<svg xmlns="http://www.w3.org/2000/svg" viewBox="0 0 2903.88 3556.7"><defs><linearGradient id="a" x1="1788.09" y1="867.42" x2="1788.09" y2="395.14" gradientUnits="userSpaceOnUse"><stop offset="0" stop-color="#ff7000"/><stop offset="1" stop-color="#fdff3f"/></linearGradient><linearGradient id="c" x1="1886.84" y1="1941.5" x2="2079.36" y2="1941.5" gradientUnits="userSpaceOnUse"><stop offset="0" stop-color="#109ea3"/><stop offset="1" stop-color="#00afad"/></linearGradient><linearGradient id="d" x1="1789.74" y1="1968.83" x2="1886.93" y2="1968.83" gradientUnits="userSpaceOnUse"><stop offset="0" stop-color="#1b7984"/><stop offset="1" stop-color="#228a97"/></linearGradient><linearGradient id="e" x1="1650.21" y1="463.19" x2="1729.38" y2="463.19" gradientUnits="userSpaceOnUse"><stop offset="0" stop-color="#fff"/><stop offset="1" stop-color="#fdff3f"/></linearGradient><clipPath id="b"><path d="M997.06 1371.68L808.28 1262c-1.49-.87-2.39-1.52-2.6-1.67L994.47 1370a29.38 29.38 0 002.59 1.68z" fill="none"/></clipPath></defs><path d="M2903.87 2714.71c.11-8-5.09-16-15.61-22.1L1670 1989.22c-20.73-12-54.53-12-75.12 0L384.47 2692.6c-10.26 6-15.38 13.82-15.37 21.68v-.08l-.31 108.24c0 7.94 5.19 15.89 15.62 21.91l1218.31 703.4a57.92 57.92 0 007.6 3.64c.14.06.31.09.46.15.44.17.92.3 1.37.47 1.51.54 3 1.1 4.59 1.55.89.25 1.82.44 2.73.67.5.12 1 .25 1.5.36s.87.23 1.31.32q2.61.54 5.29.92c.64.1 1.3.14 2 .22l1.33.15c.64.07 1.27.16 1.91.21 1.75.15 3.5.24 5.27.29h5.47q3-.11 5.93-.39l.64-.09c.52-.06 1-.15 1.54-.22 1.55-.19 3.11-.37 4.62-.64.66-.12 1.25-.34 1.89-.47 1.82-.37 3.57-.84 5.33-1.33.93-.26 1.93-.41 2.85-.7.72-.24 1.4-.55 2.11-.81s1.37-.5 2-.77a58.42 58.42 0 007.39-3.5l1210.35-703.41.64-.38c.5-.3.92-.62 1.4-.93.63-.41 1.27-.82 1.86-1.24s1-.8 1.5-1.2 1.1-.87 1.6-1.31l.31-.26c.2-.19.35-.39.54-.59a29.78 29.78 0 002.26-2.42c.15-.18.35-.35.49-.52s.23-.38.37-.56c.46-.61.86-1.23 1.25-1.86.16-.25.37-.5.51-.76s.13-.28.2-.42c.3-.55.54-1.11.78-1.67.14-.31.33-.62.44-.94a3.57 3.57 0 00.1-.35c.19-.53.33-1.07.47-1.61.09-.35.23-.7.3-1v-.29a16.59 16.59 0 00.2-1.71c0-.36.11-.71.12-1.07v-.47l.3-108.24c.04.01.03.08.03.14zM1603 3439.51l-681.1-393.25 681.1 393.25h.06zm1285.48-703.38l-1210.33 703.38h-.06.06l1210.36-703.39h.06z" fill="#163160" opacity=".41"/><path d="M1863.8 1159c-.47-17.68-8-38.37-5.41-52.52 0 0-11.82-7-17.68 10s-7.43 25.75-7.43 25.75-42.51-49.31-50.76-59.75-14.12-1-13 6.75c-.87 2.11-21.46 22.29-17 45.31s16.81 49.17 26.29 55 29 16 29 16l.31-.13 5.61 13.84 40.86-16.41-5.29-15c1.6-1.31 14.95-12.27 14.5-28.84z" fill="#ffb288"/><path d="M2430.81 1222.59s164.37 49.25 215.64 117.37 116.78 402.9-2.75 541.06l-322.43-228.22z" fill="#ffd765"/><path d="M2405.47 1222.81s164.38 49.25 215.65 117.37 116.77 402.9-2.75 541.06L2295.94 1653z" fill="#ed8843"/><path d="M2620 1211.45s-132.85-104.25-260-132.4c-127.86-28.32-127.12-11-127.12-11s-24.33 185.35-35.76 254.85 29.6 229 29.6 229l249.85 115.24z" fill="#fbfdfc"/><path d="M2487.77 1127.88s9 25.51-11.2 37.83-77.8 108.2-83.33 186.5 27 315-41.6 337c0 0 173.31 40.47 219.94-31.67s48.39-446 48.39-446-51.91-69.15-132.2-83.66z" fill="#d32d2d"/><path d="M1983 1667.16l243.69-115.24 317.15 148.55s35.63 99.1-19.8 134.73-240.17 135.92-240.17 135.92l14.52-72.58z" fill="#163160"/><path d="M2166.52 1510.57c-6.94-32.36 0-108.21 0-108.21l36.1-205 109-140.46s-6.84 112.31-11.79 179.27c-3 55.2-15.79 233.16-56.83 294.14-48.82 72.54-138.36 79.32-138.36 79.32 34.89-16.48 61.88-67.39 61.88-99.06z" fill="#d32d2d"/><path d="M954.06 3009.66s94.79 19.12 104.08 20.32c0 0 3.32 9.89-15.59 11.29-17.07 1.26-43.44.29-43.44.29l-21.11-4.47-1.35 6.29c-6.27-.5-19.62-4.1-21-8.12-1.83-5.19-1.59-25.6-1.59-25.6zm4.5-590.56s80.19-24.63 116.26-24.63 72.13 28.85 84.75 61.31-142.46 553.62-142.46 553.62l-59.51-16.23s37.87-360.66 41.48-398.53-61.93-38.43-61.93-38.43z" fill="#163160"/><path d="M749.3 2886.89s3.79 409 3.79 434.89 34.73 33.47 34.73 0 3.18-432.73 3.18-432.73z" fill="#efba41"/><path d="M1607.1 2768.47s5.34 687.34 5.34 723.81 48.91 47.14 48.91 0 4.53-720.77 4.53-720.77zm1202.99-719.31s5.34 687.34 5.34 723.81 48.92 47.14 48.92 0 4.53-720.77 4.53-720.77zm-2382.62 11.21s5.34 687.34 5.34 723.81 48.92 47.14 48.92 0 4.52-720.77 4.52-720.77zm1203-719.32s5.34 687.35 5.34 723.82 48.92 47.14 48.92 0 4.52-720.77 4.52-720.77z" fill="#8fe7ff"/><path d="M2560.63 2147.14s154.69 378.64 164.26 402.7 44.64 18.26 32.27-12.84-156.95-403.27-156.95-403.27zm-153.09 82.2s3.78 409 3.78 434.89 34.73 33.47 34.73 0 3.22-432.73 3.22-432.73zM509.85 2707.17s-84.38 400.12-90 425.39 26.72 40.14 33.93 7.46 96.33-421.78 96.33-421.78zm459.07 25.11s86.72 399.53 92 424.87 40.82 25.65 34-7.1-84.66-424.19-84.66-424.19z" fill="#efba41"/><path d="M420.29 2695.82s245-267.74 428.13-216 265.22 144 291.74 174.28-59.36 192-222.28 231.12-275.62-2.63-275.62-2.63z" fill="#ffd765"/><path d="M411.46 2673.89s245-267.74 428.14-216 265.22 144 291.74 174.28-59.36 192-222.28 231.12S645.11 2881 645.11 2881z" fill="#ed8843"/><path d="M584.32 2600.05L871 2577.93c107.52-40.83 222-40.84 289.27-60.61 92-27.05 170.06 54.78 170.06 78.22s-127.51 552.72-127.51 552.72l-64.89-25.26s-9-352.63 3.64-379.68l-343.83 86.75c-164.89 30.19-196-55.11-214-102s.58-128.02.58-128.02zm554.4 529.33s83.13 49.15 91.5 53.34c0 0-.12 10.44-18.41 5.58-16.52-4.39-41.07-14-41.07-14l-18.45-11.14-3.34 5.51c-5.75-2.52-17.16-10.3-17.16-14.57 0-5.46 6.93-24.72 6.93-24.72z" fill="#163160"/><path fill="#163160" d="M935.28 2570.19l101.81-31.72-86.57-70.42-15.24 102.14z"/><path d="M2903.75 2020.68c-.05.57-.09 1.14-.19 1.71s-.22.89-.34 1.34-.27 1.08-.46 1.61-.36.86-.54 1.29-.49 1.12-.78 1.67-.47.79-.72 1.19c-.38.62-.79 1.24-1.24 1.85-.27.36-.56.72-.86 1.08a29.78 29.78 0 01-2.26 2.42c-.29.29-.55.57-.85.85-.5.44-1.06.88-1.6 1.31s-1 .81-1.5 1.2-1.23.83-1.86 1.23-1.32.9-2 1.32l-1210.4 703.38a57.14 57.14 0 01-7.39 3.5c-.67.27-1.35.52-2 .77-1.6.58-3.29 1-5 1.52s-3.51.95-5.32 1.32c-2.14.44-4.3.84-6.5 1.11-.53.07-1 .16-1.56.22-2.95.31-5.95.47-8.95.49H1640c-3 0-5.9-.19-8.82-.49l-1.33-.15a82.18 82.18 0 01-8.56-1.46c-.5-.11-1-.24-1.49-.36a70.9 70.9 0 01-7.33-2.23c-.45-.16-.92-.29-1.36-.46a57.38 57.38 0 01-8.06-3.79L384.72 2040.73c-10.44-6-15.65-14-15.62-21.91l-.31 108.25c0 7.93 5.19 15.88 15.62 21.91l1218.31 703.39a57.92 57.92 0 007.6 3.64c.14.06.31.1.46.15.44.18.92.3 1.37.47 1.51.54 3 1.1 4.59 1.55.89.25 1.82.44 2.73.67.5.12 1 .25 1.5.36s.87.23 1.31.33c1.74.36 3.5.66 5.29.92.64.09 1.3.14 2 .21.44.06.89.11 1.33.15.64.07 1.27.16 1.91.22 1.75.14 3.5.23 5.27.28h5.47q3-.11 5.93-.39c.22 0 .43-.07.64-.09.52-.06 1-.15 1.54-.22 1.55-.19 3.11-.37 4.62-.64.66-.12 1.25-.34 1.89-.47 1.82-.37 3.57-.83 5.33-1.32.93-.27 1.93-.42 2.85-.71.72-.24 1.4-.55 2.11-.8s1.37-.51 2-.78a57.07 57.07 0 007.39-3.5L2888.2 2149l.64-.38c.5-.3.92-.62 1.4-.93.63-.41 1.27-.82 1.86-1.24s1-.8 1.5-1.19 1.1-.87 1.6-1.32l.31-.26c.2-.19.35-.39.54-.58a31.62 31.62 0 002.26-2.43c.15-.18.35-.34.49-.52s.23-.38.37-.56c.46-.61.86-1.23 1.25-1.85.16-.26.37-.51.51-.77s.13-.28.2-.42c.3-.55.54-1.11.78-1.66.14-.32.33-.63.44-1 .05-.11.06-.23.1-.34.19-.54.33-1.08.47-1.62.09-.35.23-.7.3-1v-.29a16.59 16.59 0 00.2-1.71c0-.36.11-.71.12-1.07v-.47l.3-108.24c.04.51-.04 1.02-.09 1.53z" fill="#3791d3"/><path d="M2888.26 1997.23c20.73 12 20.84 31.55.25 43.52l-1210.36 703.38c-20.59 12-54.39 12-75.12 0l-1218.31-703.4c-20.73-12-20.84-31.54-.25-43.51l1210.36-703.38c20.59-12 54.39-12 75.12 0z" fill="#81b8ea"/><path fill="#f8f9fa" d="M716.24 2038.4l384.08 223 495.94-284.73-384.09-223-495.93 284.73z"/><path d="M1410.13 1934.64c2.3 1.18 4.58 2.39 6.78 3.66 11.6 6.74 20.77 14.35 27.56 22.45l-129.91 36.31z" fill="#163160"/><path d="M1305.55 1913.92c37.13-1.34 75 5.57 104.58 20.72l-95.57 62.42z" fill="#f4c41d"/><path d="M1175.52 1974.76c6.46-13.48 18.86-26.22 37.27-36.78 25.86-14.85 59-22.85 92.76-24.06l9 83.14z" fill="#00ccab"/><path d="M1175.52 1974.76l139 22.3-135.48 28.73c-10.37-16.4-11.55-34.29-3.52-51.03z" fill="#f73c38"/><path d="M1279.72 2077.94c-24.75-3.54-48.2-10.91-67.5-22.12-15.17-8.81-26.19-19.08-33.14-30l135.48-28.73z" fill="#eec926"/><path d="M1393.68 2066.78c-34.11 12.93-75.61 16.64-114 11.16l34.84-80.88z" fill="#379af2"/><path d="M1444.47 1960.75c26.1 31.12 16.71 69.65-28.13 95.4a159.19 159.19 0 01-22.66 10.63l-79.12-69.72z" fill="#fb3a3b"/><path fill="#f4c41d" d="M932.04 2110.77l24.44 14.19 42.74-24.54-24.43-14.19-42.75 24.54z"/><path fill="#00ccab" d="M895.68 2089.66l24.44 14.19 69.52-39.92-24.43-14.18-69.53 39.91z"/><path fill="#f73c38" d="M859.32 2068.55l24.44 14.19 93.73-53.81-24.44-14.19-93.73 53.81z"/><path fill="#163160" d="M822.96 2047.44l24.44 14.19 24.72-14.19-24.44-14.19-24.72 14.19z"/><path fill="#969696" d="M1116.1 2078.48l11.53 6.69 5.15-2.95-11.53-6.69-5.15 2.95zm-13.13 7.54l11.52 6.69 5.15-2.95-11.52-6.69-5.15 2.95zm-13.13 7.54l11.52 6.69 5.15-2.95-11.52-6.69-5.15 2.95zm-13.13 7.54l11.52 6.69 5.15-2.95-11.52-6.69-5.15 2.95zm-13.14 7.54l11.53 6.69 5.15-2.95-11.53-6.69-5.15 2.95zm-13.13 7.54l11.52 6.69 5.16-2.96-11.53-6.68-5.15 2.95zm-13.13 7.54l11.52 6.69 5.15-2.96-11.52-6.69-5.15 2.96zm-13.13 7.54l11.52 6.69 5.15-2.96-11.52-6.69-5.15 2.96zm-13.14 7.54l11.53 6.69 5.15-2.96-11.52-6.69-5.16 2.96z"/><path fill="#163160" d="M805.3 2039.16l200.11 116.18 1.71-.98-200.11-116.18-1.71.98z"/><path d="M1188.52 1841.63l59.42 34.5a7.77 7.77 0 007 0c1.93-1.11 1.94-2.93 0-4l-59.43-34.5a7.72 7.72 0 00-7 0c-1.9 1.06-1.91 2.88.01 4z" fill="#f42a35"/><path d="M1163.19 1826.92l59.43 34.51a7.77 7.77 0 007 0c1.93-1.11 1.94-2.93 0-4l-59.43-34.5a7.77 7.77 0 00-7 0c-1.91 1.07-1.91 2.88 0 3.99zm-13.51 7.76l59.43 34.5a7.77 7.77 0 007 0c1.93-1.11 1.94-2.93 0-4l-59.43-34.51a7.77 7.77 0 00-7 0c-1.91 1.08-1.92 2.9 0 4.01z" fill="#119dff"/><path d="M1175 1849.38l59.43 34.5a7.77 7.77 0 007 0c1.93-1.11 1.94-2.93 0-4l-59.43-34.53a7.8 7.8 0 00-7 0c-1.91 1.1-1.91 2.92 0 4.03z" fill="#f42a35"/><path d="M1160.6 1861.72l54.36 31.56a11.17 11.17 0 0010.09 0c2.79-1.6 2.8-4.22 0-5.83l-54.35-31.56a11.23 11.23 0 00-10.1 0c-2.75 1.6-2.77 4.23 0 5.83z" fill="#119dff"/><path d="M1133.3 1845.87l14.13 8.21a11.19 11.19 0 0010.1 0c2.78-1.59 2.8-4.22 0-5.82l-14.14-8.21a11.17 11.17 0 00-10.09 0c-2.76 1.59-2.77 4.21 0 5.82zm-3.36 16.45l68.6 39.83a12.27 12.27 0 0011.06 0c3.05-1.75 3.06-4.62 0-6.38L1141 1856a12.27 12.27 0 00-11.06 0c-3.01 1.69-3.03 4.56 0 6.32z" fill="#f42a35"/><path d="M1116.25 1854.37a8.71 8.71 0 007.86 0l3.2-1.84c2.17-1.25 2.18-3.29 0-4.54a8.71 8.71 0 00-7.86 0l-3.21 1.84c-2.14 1.25-2.15 3.29.01 4.54z" fill="#119dff"/><path d="M1110.44 1888.42l57.82 33.57a7.56 7.56 0 006.81 0c1.87-1.08 1.88-2.85 0-3.93l-57.81-33.57a7.56 7.56 0 00-6.81 0c-1.87 1.08-1.88 2.84-.01 3.93z" fill="#898989"/><path d="M1085.8 1874.11l57.82 33.57a7.53 7.53 0 006.81 0c1.88-1.07 1.89-2.84 0-3.93l-57.82-33.56a7.56 7.56 0 00-6.81 0c-1.8 1.07-1.86 2.81 0 3.92zm-13.14 7.55l57.82 33.57a7.54 7.54 0 006.8 0c1.88-1.08 1.89-2.84 0-3.93l-57.82-33.57a7.54 7.54 0 00-6.8 0c-1.86 1.08-1.87 2.85 0 3.93z" fill="#898989"/><path d="M1097.29 1896l57.82 33.57a7.53 7.53 0 006.81 0c1.88-1.07 1.89-2.84 0-3.92l-57.82-33.57a7.53 7.53 0 00-6.81 0c-1.85 1.03-1.86 2.8 0 3.92zm-14.01 12l52.89 30.7a10.86 10.86 0 009.82 0c2.71-1.55 2.72-4.11 0-5.67l-52.89-30.7a10.89 10.89 0 00-9.82 0c-2.68 1.53-2.69 4.08 0 5.67zm-26.56-15.45l13.75 8a10.89 10.89 0 009.82 0c2.71-1.56 2.72-4.11 0-5.67l-13.75-8a10.89 10.89 0 00-9.82 0c-2.72 1.55-2.72 4.12 0 5.67zm-3.27 16.01l66.75 38.75a11.9 11.9 0 0010.75 0c3-1.7 3-4.49 0-6.21l-66.74-38.75a11.93 11.93 0 00-10.76 0c-2.93 1.7-2.95 4.49 0 6.21zm-13.32-7.74a8.48 8.48 0 007.65 0l3.11-1.79c2.11-1.21 2.12-3.19 0-4.41a8.48 8.48 0 00-7.65 0l-3.12 1.79c-2.12 1.21-2.12 3.19.01 4.41z" fill="#898989"/><path fill="#71bdc4" d="M1107.02 2214.7l8.97 5.21 37.08-21.29-8.97-5.21-37.08 21.29z"/><path fill="#586172" d="M1093.41 2206.8l8.98 5.21 63.36-36.38-8.97-5.21-63.37 36.38z"/><path fill="#eb8658" d="M1079.81 2198.9l8.97 5.21 62.72-36.01-8.97-5.21-62.72 36.01z"/><path fill="#71bdc4" d="M1056.46 2185.34l8.98 5.21 79.96-45.91-8.97-5.21-79.97 45.91z"/><path fill="#586172" d="M1047.35 2180.05l4.48 2.61 124.04-71.22-4.49-2.6-124.03 71.21z"/><path fill="#eb8658" d="M1029.26 2169.55l8.97 5.21 116.77-67.04-8.97-5.21-116.77 67.04z"/><path d="M1046.17 1969.28c-3.4 2-5.11 4.51-5.13 7.07l-15.22 1.72c-.82-5.42 2.23-11 9.43-15.13 5.38-3.09 12.17-4.8 19.17-5.3l.28 9a23.14 23.14 0 00-8.53 2.64z" fill="#f15a23"/><path d="M1061.58 1966.53l-.28-9a50.46 50.46 0 0115 2.92l-9.88 7a26.73 26.73 0 00-4.84-.92z" fill="#576272"/><path d="M1046.1 1983.51c6.78 3.93 17.81 4 24.63 0a11.5 11.5 0 004-3.64l15.36 1.4c-1.44 3.14-4.17 6.12-8.45 8.57-12.89 7.4-33.72 7.37-46.53-.07a20.14 20.14 0 01-8-7.85l15.23-1.71a11.84 11.84 0 003.76 3.3z" fill="#6fbbc4"/><path d="M1071.81 1970l9.88-7.06h.09c6.81 4 9.87 9.2 9.42 14.37l-15.41-1.41c-.15-2.04-1.5-4.13-3.98-5.9z" fill="#ef8559"/><path fill="#898989" d="M999.53 1928.72l39.73 23.07 3.84-2.2-39.73-23.07-3.84 2.2zm-23.67-4.09l55.04 31.96 2.44-1.4-55.05-31.96-2.43 1.4zm-6.34 3.64l55.04 31.96 2.44-1.4-55.04-31.96-2.44 1.4zm-6.34 3.64l55.04 31.96 2.44-1.4-55.04-31.96-2.44 1.4z"/><path d="M995.94 2017.37s46.14-13.54 64.1-18.38 36.69-13.28 36.69-13.28-4-30.54-33.48-23.06S1035 1967 1035 1967s11.93-1.66 17.51-2.67c0 0-2.85-11.17-10.79-10.6s-16.59-1.66-25.67 11.15-31.8 26.25-35.26 31.11z" fill="#ffb288"/><path d="M731.92 2035.65s222.44-39.75 262.51-50.8l19.63 27.24s-179.53 120.54-247 130.38-35.14-106.82-35.14-106.82z" fill="#d32d2d"/><path fill="#ffb288" d="M852.91 1949.32l-17.69 125.33-130.65-39.01 44.76-134.27 103.58 47.95z"/><path d="M886.92 1812.19s13.1 58.93 14.29 74.4-31 78.58-44.05 84.53c-12.5 0-64.28-14.88-80.95-30.36S781 1785.4 781 1785.4l51.19-13.69z" fill="#ffb288"/><path d="M887.27 2024.79s63.12 46.89 75.74 57.71 30.65 126.23 19.84 192.95-50.5 286.73-52.3 342.63c0 0-212.79 97.38-346.24-18 0 0 1.81-394.93 27.05-490.5s54.1-124.43 79.35-129.84 111.8 8.99 196.56 45.05z" fill="#d32d2d"/><path d="M896.45 1824.09s-28-4.16-37.5-8.92c0 0 11.9 52.38 3.57 64.28 0 0-10.12-23.21-21.43-8.33s1.79 31.55 1.79 31.55-19 41.07-39.29 42.85-73.21 1.79-73.21 1.79 3-29.17-2.38-41.67-36.91-90.47-4.17-127.38 67.86-42.86 109.53-30.36 83.33 41.1 63.09 76.19z" fill="#6d3131"/><path d="M277.57 2527.83c-22.73-72-45.47-166.71-55.57-223.54s27.78-73.25 55.57-59.36 186.91 101 229.85 155.34 90.94 145.24 126.3 257.64S781.48 2913 915.35 2875.14c0 0-114.92 63.14-294.26-11.37S342 2663.75 318.3 2617.34c-14.68-27.47-40.73-89.51-40.73-89.51z" fill="#ffd765"/><path fill="#0e2649" opacity=".26" d="M1711.07 2024.57l-305.32 95.68 17.06 18.15-197.37 113.94 338.41 195.38 237.28-136.99 138.24-43.32-228.3-242.84z"/><path fill="#fff" d="M1914.76 2262.66l-305.32 95.68-228.31-242.84 305.32-95.68 228.31 242.84z"/><path fill="#1f6faf" d="M1639.26 2241.22l-39.42 12.35-116.59-124 39.43-12.35 116.58 124z"/><path fill="#e75920" d="M1683.83 2227.25l-39.43 12.35-77.92-82.88 39.43-12.35 77.92 82.88z"/><path fill="#1f6faf" d="M1742.95 2208.72l-39.42 12.36-116.58-124 39.42-12.36 116.58 124z"/><path fill="#e96225" d="M1787.52 2194.75l-39.43 12.36-126.85-134.92 39.43-12.36 126.85 134.92z"/><path fill="#fff" d="M1784.88 2301.15l-245.65 141.82-338.4-195.38 245.64-141.82 338.41 195.38z"/><path fill="none" stroke="#5c5d5d" stroke-miterlimit="10" stroke-width=".75" d="M1296.36 2273.47l121.3-70.02m-110.21 76.42l121.29-70.03m-110.21 76.43l121.3-70.02m-110.21 76.42l121.29-70.03m55.17-31.85l-37.71 21.78-33.25-19.2 37.71-21.78 33.25 19.2z"/><path fill="none" stroke="#d73263" stroke-miterlimit="10" stroke-width="2.24" d="M1450.66 2195.87l28.92 1.4-1.53-32.08"/><path fill="none" stroke="#5c5d5d" stroke-miterlimit="10" stroke-width=".75" d="M1352.27 2305.75l121.29-70.03m-110.21 76.43l121.3-70.03m-110.21 76.43l121.29-70.03m-110.21 76.43l121.3-70.03m55.17-31.85l-37.71 21.77-33.26-19.2 37.71-21.77 33.26 19.2z"/><path fill="none" stroke="#d73263" stroke-miterlimit="10" stroke-width="2.24" d="M1506.56 2228.14l28.93 1.4-1.53-32.07"/><path fill="none" stroke="#5c5d5d" stroke-miterlimit="10" stroke-width=".75" d="M1408.17 2338.03l121.3-70.03m-110.21 76.43l121.29-70.03m-110.21 76.43l121.3-70.03m-110.21 76.43l121.29-70.03m55.17-31.85l-37.71 21.77-33.25-19.2 37.71-21.77 33.25 19.2z"/><path fill="none" stroke="#d73263" stroke-miterlimit="10" stroke-width="2.24" d="M1562.47 2260.42l28.92 1.4-1.53-32.07"/><path fill="none" stroke="#5c5d5d" stroke-miterlimit="10" stroke-width=".75" d="M1464.08 2370.31l121.29-70.03m-110.21 76.43l121.3-70.03m-110.21 76.42l121.29-70.02m-110.21 76.42l121.3-70.02m55.17-31.86l-37.71 21.78-33.26-19.2 37.71-21.78 33.26 19.2z"/><path fill="none" stroke="#d73263" stroke-miterlimit="10" stroke-width="2.24" d="M1618.37 2292.7l28.93 1.4-1.53-32.08"/><path d="M1257.18 2241.14l6-3.44a20.39 20.39 0 018.47-2.81 12.25 12.25 0 017.35 1.44c1.57.91 2.45 1.91 2.64 3s-.32 2.26-1.54 3.46a18.41 18.41 0 016.9-1.07 13.42 13.42 0 016 1.78q3.43 2 2.89 4.64c-.37 1.76-2.05 3.51-5 5.23l-6.21 3.59zm4.79-.18l9.73 5.62 3.08-1.78q3.2-1.85 3.66-3.59c.3-1.17-.34-2.2-1.93-3.12a8.72 8.72 0 00-5.19-1.09 14.17 14.17 0 00-6 2zm12 6.94l10.8 6.24 2.92-1.69c2.43-1.4 3.84-2.76 4.23-4.06s-.25-2.44-1.94-3.42a10.06 10.06 0 00-5.87-1.35 15.93 15.93 0 00-6.66 2.28zm4.38-18.99l2.53-1.46 16.2 9.36a21.06 21.06 0 008.89 3.05 13.26 13.26 0 007.78-1.79q3.68-2.12 3-4.65t-5.5-5.35l-15.74-9.09 2.3-1.33 15.89 9.18q6 3.49 6.58 6.64t-4.43 6a18 18 0 01-10.11 2.46 24.63 24.63 0 01-11-3.56zm40.52-22.57l2.2 1.7a21.67 21.67 0 00-3.27.85 16.61 16.61 0 00-2.83 1.29q-2.82 1.64-3.28 3.21c-.3 1.05.21 2 1.54 2.72q2.51 1.45 11 .13l1.76-.28a39.4 39.4 0 018.53-.67 11.44 11.44 0 014.83 1.49q3.42 2 3.12 4.6c-.2 1.75-1.6 3.38-4.22 4.89a24.64 24.64 0 01-3.5 1.66 30.72 30.72 0 01-4 1.23l-2.55-1.83a35.12 35.12 0 004.5-1 16.13 16.13 0 003.26-1.38q2.73-1.58 3-3.32t-2.07-3.09q-2.77-1.6-11-.33l-2 .31a41.07 41.07 0 01-8.37.64 11.33 11.33 0 01-4.74-1.41q-3.16-1.83-2.67-4.16c.34-1.56 1.88-3.13 4.64-4.72a21 21 0 012.77-1.33 34.72 34.72 0 013.35-1.2zm20.43-11.79l2.21 1.69a22.73 22.73 0 00-3.28.85 17.81 17.81 0 00-2.83 1.29q-2.82 1.63-3.27 3.21c-.3 1 .21 2 1.53 2.72q2.52 1.46 11 .13l1.75-.28a40.15 40.15 0 018.54-.67 11.67 11.67 0 014.83 1.49q3.42 2 3.12 4.6c-.2 1.76-1.61 3.38-4.22 4.89a24.78 24.78 0 01-3.51 1.66 30.57 30.57 0 01-4 1.23l-2.56-1.83a32.55 32.55 0 004.51-1.05 16.38 16.38 0 003.26-1.38c1.81-1 2.81-2.15 3-3.32s-.52-2.2-2.06-3.09q-2.79-1.61-11-.32l-2 .3a41.11 41.11 0 01-8.38.64 11.33 11.33 0 01-4.74-1.41q-3.17-1.83-2.66-4.16c.33-1.56 1.88-3.13 4.63-4.72a21.61 21.61 0 012.77-1.33 33.1 33.1 0 013.36-1.14zm6.28-4.45l2.55-1.47 27.45 15.84-2.55 1.47zm9.89-5.71l3.25-1.88 36.44 5.55a10.34 10.34 0 011 .2c.47.1 1 .24 1.69.41l-1.54-.67q-.69-.33-1.17-.6l-22.46-13 2.37-1.37 27.45 15.84-3.07 1.78-36.83-5.55a13.36 13.36 0 01-1.32-.26q-.67-.16-1.5-.45c.7.32 1.29.59 1.74.81s.76.37.9.45l22.83 13.18-2.37 1.37zm26.98-15.58l13.39-7.73 2.16 1.25-10.83 6.26 9.88 5.71 10.24-5.91 2.3 1.32-10.24 5.91 10.72 6.19 11.07-6.39 2.38 1.37-13.62 7.86zm33.47-18.5l2.21 1.69a21.48 21.48 0 00-3.28.86 16.2 16.2 0 00-2.83 1.29q-2.82 1.62-3.27 3.2t1.53 2.73c1.68 1 5.33 1 11 .12l1.75-.28a40.84 40.84 0 018.54-.67 11.68 11.68 0 014.83 1.5c2.28 1.31 3.32 2.85 3.12 4.6s-1.61 3.38-4.22 4.89a24.76 24.76 0 01-3.51 1.65 30.57 30.57 0 01-4 1.23l-2.55-1.82a35.94 35.94 0 004.5-1.05 15.81 15.81 0 003.26-1.39q2.73-1.56 3-3.32c.17-1.16-.52-2.2-2.06-3.09q-2.79-1.6-11-.32l-2 .3a40.39 40.39 0 01-8.38.64 11 11 0 01-4.74-1.41c-2.11-1.22-3-2.6-2.66-4.16s1.88-3.12 4.63-4.71a21.62 21.62 0 012.77-1.34c1-.4 2.13-.78 3.36-1.14zm20.44-11.8l2.2 1.7a21.67 21.67 0 00-3.27.85 15.87 15.87 0 00-2.83 1.29q-2.82 1.62-3.28 3.2c-.3 1.06.21 2 1.54 2.73q2.51 1.45 11 .12l1.76-.28a39.84 39.84 0 018.53-.66 11.44 11.44 0 014.83 1.49c2.28 1.31 3.32 2.85 3.12 4.6s-1.6 3.38-4.22 4.89a23.58 23.58 0 01-3.5 1.65 32.35 32.35 0 01-4 1.24l-2.55-1.83a35.53 35.53 0 004.5-1.05 16.13 16.13 0 003.26-1.38q2.73-1.58 3-3.33c.17-1.16-.52-2.19-2.07-3.08q-2.77-1.6-11-.33l-2 .3a39.65 39.65 0 01-8.37.64 11 11 0 01-4.74-1.41c-2.11-1.22-3-2.6-2.67-4.16s1.88-3.12 4.64-4.71a19.8 19.8 0 012.77-1.33 34.72 34.72 0 013.35-1.15z" fill="#606060"/><path fill="none" stroke="#9a999a" stroke-miterlimit="10" stroke-width="1.49" d="M1398.19 2133.65l48.28-27.88 338.41 195.38"/><path fill="#0e2649" opacity=".5" d="M1513.25 2226.42l-91.62 52.09-281.94 198.11-173.76-101.32-39.51-126.44 233.88 64.21 298.57-83.91 54.38-2.74z"/><path d="M259.91 2543.81c-22.73-72-45.46-166.71-55.57-223.54s27.79-73.25 55.57-59.36 186.92 101 229.86 155.34 90.93 145.24 126.29 257.64 147.29 250.22 281.63 216c0 0-114.92 64.38-294.26-10.13s-279.11-200-302.79-246.43c-14.64-27.48-40.73-89.52-40.73-89.52z" fill="#ed8843"/><path d="M2311.61 1056.92s-46.62-22.3-78.73 11.13-208.81 331.69-231.9 309.62c-18.63-17.8-131.4-186.45-131.4-186.45l-67.5 27.11s131.8 348.37 190.6 326.15c232.1-87.69 318.93-487.56 318.93-487.56z" fill="#d32d2d"/><rect x="1727.48" y="955.12" width="121.23" height="100.77" rx="50.39" ry="50.39" fill="#ffe700"/><ellipse cx="1788.09" cy="950.03" rx="117.38" ry="67.77" fill="#ffa300"/><path fill="#ffa300" d="M1670.72 848.39h234.75v101.64h-234.75z"/><path d="M1705.09 800.47c45.84-26.46 120.16-26.46 166 0s45.84 69.38 0 95.84-120.16 26.47-166 0-45.83-69.37 0-95.84z" fill="#ffe700"/><path d="M1954.83 722.57h-.08a213.71 213.71 0 0048-135.24c0-118.56-96.12-214.68-214.69-214.68s-214.66 96.13-214.66 214.69a213.76 213.76 0 0048 135.24h-.07l.62.74c.43.52.87 1 1.3 1.54 9.25 10.94 50.14 59.63 57.72 74.46 8.55 16.73 8.92 54.66 8.92 54.66s15.25 39.79 98.17 39.79 98.2-39.77 98.2-39.77.38-37.93 8.93-54.66c7.58-14.83 48.46-63.52 57.71-74.46.43-.52.88-1 1.3-1.54z" fill="url(#a)"/><path d="M1909.56 138.56c0-.6 0-1.21-.08-1.82s-.09-1.21-.14-1.83-.13-1.22-.21-1.84-.17-1.26-.27-1.89a.69.69 0 010-.13v-.06c-.09-.57-.19-1.15-.3-1.72s-.26-1.32-.4-2-.3-1.32-.46-2-.35-1.34-.53-2-.32-1.11-.49-1.68a.76.76 0 000-.11l-.06-.22c-.2-.65-.41-1.31-.63-2s-.45-1.3-.68-1.94-.46-1.25-.7-1.88-.49-1.23-.75-1.85-.42-1-.64-1.49a.69.69 0 000-.1l-.1-.24-.84-1.85c-.32-.67-.65-1.34-1-2s-.78-1.53-1.18-2.29-.92-1.65-1.38-2.46l-.24-.43c-.1-.16-.18-.33-.28-.49-.91-1.55-1.87-3.07-2.86-4.57-.76-1.13-1.55-2.24-2.35-3.34l-.05-.07c-.56-.76-1.12-1.49-1.7-2.23s-1-1.22-1.47-1.81-1-1.16-1.47-1.72-1-1.11-1.49-1.65a2.83 2.83 0 00-.24-.25l-.12-.14-1.2-1.25c-.53-.54-1.06-1.07-1.6-1.58s-1.11-1-1.67-1.55-1.12-1-1.69-1.48l-.8-.65-.2-.16-.68-.56c-.55-.44-1.11-.86-1.66-1.27s-1.09-.79-1.65-1.17-1.06-.71-1.59-1-1.06-.67-1.6-1c-.12-.08-.24-.14-.37-.21l-9.66-5.58-1.19-.67c-.52-.28-1-.54-1.54-.79s-1-.5-1.52-.72-1-.44-1.51-.64-1-.39-1.52-.57l-.35-.12h-.12l-1-.34c-.53-.16-1-.3-1.57-.43s-1-.25-1.55-.34-1.12-.2-1.67-.28l-1.19-.12h-.49q-.91-.06-1.8-.06c-.67 0-1.33 0-2 .09a22 22 0 00-2.2.32h-.2a18.5 18.5 0 00-2.48.68 18.3 18.3 0 00-3.11 1.44l-37.83 22a19.13 19.13 0 015.59-2.12h.12a22.46 22.46 0 016.4-.34h.15a29.92 29.92 0 017 1.51h.12a42.71 42.71 0 017.63 3.5l9.55 5.52a57.76 57.76 0 017.55 5.24l.2.16a73.21 73.21 0 017 6.52l.12.13a84.19 84.19 0 016.39 7.7 92.92 92.92 0 015.5 8.42l.24.41a94.47 94.47 0 014.48 8.87.36.36 0 010 .09 84.56 84.56 0 013.47 9.35v.12A72.08 72.08 0 011871 153a57.23 57.23 0 01.75 9.2l-.42 149.49a43.33 43.33 0 01-.78 8.17v.22a29.84 29.84 0 01-2.17 6.73v.08a22.48 22.48 0 01-2.87 4.41c-.36.44-.69.91-1.07 1.32a18.87 18.87 0 01-4.17 3.43l37.83-22a18.64 18.64 0 004.17-3.44c.38-.4.71-.87 1.07-1.31.46-.59 1-1.09 1.4-1.73a22.57 22.57 0 001.43-2.62v-.15c.3-.64.59-1.31.84-2s.47-1.3.67-2 .35-1.27.5-1.93c.06-.26.11-.53.16-.79 0-.07 0-.15.05-.23 0-.27.11-.55.16-.84.11-.59.2-1.19.27-1.81s.14-1.2.19-1.81.09-1.18.11-1.78 0-1.2 0-1.82a.34.34 0 010-.1l.42-149.49c.05-.51.04-1.07.02-1.64z" fill="#e88400"/><path d="M1833.8 96.54c21 12.09 38 41.67 38 65.69l-.42 149.49c-.07 24.06-17.26 33.86-38.21 21.77l-9.55-5.52c-20.9-12.07-38-41.65-37.91-65.72l.42-149.48c.07-24 17.26-33.82 38.16-21.75z" fill="#ffe700"/><path d="M2362 716.44v-.79c0-.6-.05-1.2-.08-1.81s-.09-1.23-.15-1.84-.13-1.24-.21-1.86c0-.38-.1-.76-.16-1.14v-.21c0-.18 0-.36-.07-.54-.11-.65-.22-1.29-.34-1.94s-.25-1.3-.4-2-.3-1.32-.46-2l-.34-1.27v-.21l-.14-.53-.58-2c-.21-.65-.42-1.32-.64-2s-.44-1.27-.67-1.91-.43-1.17-.66-1.76l-4.72-12.24a.3.3 0 010-.08c-.24-.61-.48-1.23-.74-1.83s-.51-1.22-.78-1.83-.54-1.22-.82-1.82c-.15-.31-.31-.62-.45-.93l-.14-.27c-.11-.25-.23-.49-.35-.73-.37-.75-.76-1.5-1.15-2.24-.55-1-1.12-2.05-1.7-3.05l-.06-.08c-.17-.31-.37-.58-.55-.88-.87-1.45-1.76-2.9-2.7-4.29-.13-.2-.27-.38-.41-.58l-.48-.69c-.42-.59-.83-1.19-1.26-1.77l-1.62-2.13-.83-1-.24-.29c-.14-.18-.28-.36-.43-.53-.48-.58-1-1.16-1.46-1.72s-1-1.12-1.5-1.66l-.78-.82-.28-.29-.52-.54c-.55-.56-1.1-1.11-1.65-1.64s-1.13-1.07-1.71-1.58l-.51-.45-.3-.27-.92-.79c-.57-.49-1.14-1-1.72-1.41s-1.13-.88-1.7-1.3l-.25-.17c-.05 0-.11-.08-.17-.13l-1.24-.88c-.54-.37-1.08-.72-1.62-1.07s-1-.65-1.58-1l-.37-.22-1.19-.67c-.52-.28-1-.54-1.54-.79s-1-.49-1.52-.72l-.49-.21-.21-.08-.81-.35c-.5-.2-1-.39-1.51-.57s-1-.35-1.53-.5l-.72-.2-.24-.06-.58-.17c-.52-.12-1-.24-1.57-.34s-1.08-.2-1.62-.27l-.67-.07h-.32l-.7-.08c-.6 0-1.2-.06-1.79 0s-1.29 0-1.92.08l-112.91 9.65a22 22 0 00-2.22.32c-.52.1-1 .26-1.49.4-.24.07-.48.12-.71.2l-.42.11a18.12 18.12 0 00-3.09 1.43l-37.83 22a17.54 17.54 0 013.51-1.54l.71-.19a20.14 20.14 0 013.74-.73l112.91-9.65a24.11 24.11 0 014.41.05h.32a29.65 29.65 0 014.44.85l.24.07a35.65 35.65 0 014.57 1.61l.22.09a43.73 43.73 0 014.73 2.39 56.37 56.37 0 014.82 3.13l.16.12q2.32 1.69 4.59 3.68l.3.26q2.24 2 4.4 4.22l.26.28c1.43 1.5 2.83 3.07 4.18 4.72.08.11.17.21.25.31 1.28 1.57 2.5 3.22 3.69 4.91.17.23.34.46.5.7 1.08 1.56 2.11 3.2 3.1 4.87.18.29.38.57.56.87 1.15 2 2.24 4 3.26 6.1 0 .09.08.18.13.27 1 2.12 2 4.28 2.83 6.49l4.72 12.25a81.08 81.08 0 012.69 8.17l.06.24a69.21 69.21 0 011.6 7.68v.23a59.45 59.45 0 01.61 7.21v.22a44.92 44.92 0 01-.36 6.67.5.5 0 010 .12 35.91 35.91 0 01-1.28 5.88c0 .11-.07.21-.1.32a27.16 27.16 0 01-2 4.68l-.36.66a21.94 21.94 0 01-2.12 2.87c-.36.43-.66.91-1 1.29a18.22 18.22 0 01-3.82 3l37.83-22a17.85 17.85 0 003.82-3c.38-.39.68-.86 1-1.28a23 23 0 001.73-2.16c.14-.23.26-.49.39-.72s.25-.44.37-.67c.22-.4.46-.77.65-1.18.35-.73.67-1.48 1-2.27.14-.4.27-.82.4-1.22l.11-.32c.05-.16.11-.32.16-.5q.29-.95.51-2t.39-1.92c.08-.5.16-1 .22-1.52v-.32c.07-.6.14-1.21.19-1.82s.08-1.2.11-1.82 0-1.19 0-1.8c-.14-.26-.14-.61-.14-.95z" fill="#e88400"/><path d="M2281.4 661.48c13.18 7.61 26 22.89 33 40.94l4.72 12.25c10.4 26.85 4.07 50.12-14.09 51.71L2192.15 776c-6 .53-12.49-1.36-18.93-5.08-13.18-7.6-26-22.89-33-40.94l-4.73-12.19c-10.39-26.91-4.06-50.17 14.09-51.77l112.91-9.65c5.94-.49 12.51 1.39 18.91 5.11z" fill="#ffe700"/><path d="M2172.72 378.71c0-.47 0-.95-.07-1.43v-.4c0-.62-.09-1.23-.15-1.86s-.13-1.26-.21-1.89-.17-1.29-.27-1.94-.22-1.31-.35-2c-.05-.29-.11-.58-.17-.87 0-.08 0-.15-.05-.22l-.18-.92q-.23-1-.48-2c-.17-.69-.35-1.37-.54-2.05s-.39-1.37-.6-2.06-.41-1.32-.63-2l-.06-.16v-.07c-.2-.58-.4-1.16-.61-1.74s-.46-1.24-.7-1.86l-.74-1.85c-.25-.61-.51-1.21-.78-1.82s-.54-1.2-.82-1.8l-.13-.27a.47.47 0 010-.1c-.27-.56-.53-1.11-.8-1.65-.35-.7-.71-1.39-1.07-2.08-.58-1.09-1.19-2.18-1.82-3.25-.31-.53-.66-1-1-1.56s-.52-.84-.79-1.27c-.42-.65-.8-1.32-1.24-2-.74-1.11-1.52-2.2-2.32-3.29-.52-.7-1.05-1.39-1.59-2.08l-.62-.78-8.25-10.29-.9-1.1c-.48-.57-1-1.14-1.44-1.69s-1-1.11-1.49-1.64c-.2-.22-.4-.43-.61-.64l-.24-.25c-.23-.25-.46-.5-.69-.73-.54-.55-1.08-1.08-1.62-1.6s-1.11-1-1.66-1.55l-.49-.42-.27-.24-.94-.82c-.56-.47-1.13-.93-1.69-1.38s-1.11-.86-1.67-1.27l-.27-.2-.2-.13-1.17-.84c-.53-.36-1.07-.72-1.61-1.06s-1.05-.65-1.57-1l-.37-.21c-.4-.24-.8-.46-1.2-.68s-1-.54-1.55-.8-1-.49-1.54-.72-1-.45-1.54-.66-1-.4-1.55-.58h-.08c-.48-.17-1-.33-1.45-.47s-1.06-.31-1.59-.45l-1.62-.36c-.56-.11-1.12-.19-1.66-.27l-.73-.07h-.22l-.78-.08c-.62 0-1.22-.06-1.82-.06s-1.32 0-2 .09-1.28.16-1.9.27h-.29a20.47 20.47 0 00-2.61.71 18.52 18.52 0 00-3.1 1.43l-37.82 22a18.45 18.45 0 015.85-2.15h.14a22.7 22.7 0 016.46-.22h.22a32 32 0 017.05 1.62 44.79 44.79 0 017.47 3.47 52.43 52.43 0 014.71 3.07l.2.14a67.79 67.79 0 014.57 3.66l.27.24c1.51 1.33 3 2.77 4.46 4.29l.25.27c1.51 1.59 3 3.27 4.43 5.07l8.26 10.28a90.55 90.55 0 015.76 8.12c.27.43.54.85.8 1.28a88.49 88.49 0 014.65 8.52.52.52 0 01.06.13 85.43 85.43 0 013.78 9.32v.08a78.8 78.8 0 012.49 9.2v.21a64 64 0 011.17 8.83v.13a48.34 48.34 0 01-.2 8.21v.12a34.56 34.56 0 01-1.61 7.23c0 .09 0 .18-.08.26a25.28 25.28 0 01-3.12 6.16l-65.44 91.88a19.84 19.84 0 01-2.73 3.13 19.19 19.19 0 01-3.17 2.34l37.83-22a19 19 0 005.91-5.47l65.44-91.89c.19-.28.39-.56.57-.85a25.31 25.31 0 001.45-2.61c.34-.71.65-1.46.94-2.22.06-.15.1-.32.16-.47s.05-.17.08-.26c.15-.44.31-.88.44-1.33.18-.62.35-1.25.49-1.89s.27-1.23.38-1.87.19-1.21.27-1.83v-.43c.05-.46.1-.91.14-1.36s.08-1.21.11-1.82 0-1.19 0-1.79.1-1.15.08-1.77z" fill="#e88400"/><path d="M2088.89 326.43a69.33 69.33 0 0118.89 16.74l8.26 10.28c18.08 22.47 24.26 53 13.75 67.79l-65.44 91.89c-7 9.93-19.93 10.36-33.12 2.75a69.26 69.26 0 01-18.92-16.78l-8.21-10.21c-18.13-22.49-24.31-53-13.8-67.82l65.44-91.88c7.06-9.96 19.96-10.38 33.15-2.76z" fill="#ffe700"/><path d="M1564.85 321.05c0-.47 0-1-.07-1.44v-.38q-.06-.93-.15-1.86t-.21-1.89c-.08-.64-.17-1.29-.27-1.93s-.22-1.32-.34-2l-.18-.88v-.24l-.18-.89a77.46 77.46 0 00-1.62-6.15c-.21-.68-.42-1.33-.64-2l-.06-.17a.14.14 0 000-.06c-.19-.58-.4-1.16-.61-1.74s-.45-1.25-.7-1.87-.49-1.24-.74-1.85-.52-1.22-.78-1.83-.55-1.21-.83-1.81l-.12-.25a.54.54 0 010-.11c-.27-.56-.53-1.11-.81-1.66s-.71-1.4-1.07-2.09c-.59-1.09-1.19-2.18-1.82-3.26-.31-.52-.66-1-1-1.55l-.8-1.26c-.42-.66-.81-1.34-1.25-2-.75-1.13-1.54-2.24-2.34-3.34-.53-.71-1.07-1.41-1.62-2.11l-.55-.7L1433.53 134c-.31-.39-.62-.78-.94-1.16l-1.44-1.69c-.49-.56-1-1.11-1.49-1.64-.19-.21-.38-.41-.58-.61l-.24-.26-.72-.75c-.54-.55-1.08-1.08-1.62-1.6s-1.1-1.05-1.66-1.54l-.47-.41c-.09-.08-.18-.17-.27-.24l-1-.83c-.56-.48-1.12-.94-1.69-1.38s-1.11-.86-1.66-1.28l-.27-.18-.2-.14q-.58-.44-1.17-.84c-.54-.36-1.07-.72-1.61-1.06l-1.57-1-.37-.21-1.2-.67c-.51-.28-1-.55-1.55-.8s-1-.49-1.54-.73l-1.54-.65c-.52-.21-1-.4-1.55-.59h-.14l-1.43-.47a42.372 42.372 0 00-3.21-.8c-.54-.11-1.11-.2-1.66-.27-.25 0-.5 0-.75-.08h-.22l-.76-.08c-.62 0-1.22-.06-1.83-.06s-1.32 0-2 .09-1.3.16-1.93.28h-.26a17.88 17.88 0 00-2.63.71 18.52 18.52 0 00-3.1 1.43l-37.83 22a18.35 18.35 0 015.87-2.16h.13a22.77 22.77 0 016.47-.22h.22a32 32 0 017 1.61 44.06 44.06 0 017.47 3.47 55.81 55.81 0 014.73 3.07l.19.14c1.54 1.11 3.07 2.35 4.59 3.68l.25.22q2.27 2 4.47 4.31l.26.27c1.51 1.59 3 3.28 4.44 5.09l112.45 139.75a90.83 90.83 0 015.76 8.14c.27.42.54.84.8 1.27a92.43 92.43 0 014.66 8.54l.06.13a85.2 85.2 0 013.78 9.33v.08a78.42 78.42 0 012.49 9.21v.23a63.76 63.76 0 011.17 8.83v.11a48.43 48.43 0 01-.2 8.22.49.49 0 000 .12 34.66 34.66 0 01-1.63 7.24 2.25 2.25 0 01-.08.24 24.72 24.72 0 01-3.13 6.15l37.83-22q.32-.43.6-.9a24.15 24.15 0 001.45-2.6c.34-.71.65-1.45.94-2.21 0-.14.09-.29.14-.44a2.25 2.25 0 00.08-.24c.16-.46.32-.91.46-1.38s.34-1.24.49-1.88.26-1.23.37-1.86.2-1.21.27-1.83v-.41c.05-.46.1-.91.14-1.38s.08-1.2.11-1.8 0-1.19 0-1.79.34-1.18.32-1.79z" fill="#e88400"/><path d="M1376.77 139.2a69.29 69.29 0 0118.93 16.8l112.45 139.75c18.08 22.52 24.3 53 13.75 67.84l-4.78 6.71c-7.06 9.93-19.95 10.35-33.14 2.74a69.2 69.2 0 01-18.91-16.77l-112.44-139.78c-18.13-22.54-24.31-53-13.8-67.81l4.78-6.76c7.09-9.92 19.97-10.34 33.16-2.72z" fill="#ffe700"/><path d="M1711.09 236.92a1.55 1.55 0 000-.22v-.56c0-.6 0-1.21-.09-1.82s-.09-1.22-.15-1.84-.12-1.24-.2-1.86c-.05-.38-.11-.77-.16-1.15a1.2 1.2 0 010-.2c0-.18 0-.36-.08-.54-.1-.64-.21-1.29-.34-1.94s-.25-1.31-.39-2-.3-1.33-.47-2c-.1-.42-.22-.85-.33-1.27l-.06-.21c0-.18-.09-.36-.14-.54-.18-.65-.38-1.32-.58-2s-.42-1.32-.64-2-.43-1.27-.66-1.91l-.66-1.75-64.7-167a1.8 1.8 0 01-.08-.21c-.24-.62-.49-1.23-.74-1.84s-.51-1.21-.78-1.81-.54-1.21-.82-1.81l-.41-.83-.12-.27c-.14-.27-.27-.55-.4-.82-.37-.74-.75-1.49-1.14-2.22q-.83-1.55-1.71-3.06v-.05c-.1-.16-.21-.32-.3-.48-.95-1.6-1.93-3.18-3-4.7l-.38-.54-.48-.67c-.43-.61-.85-1.22-1.28-1.81s-1.07-1.43-1.62-2.12l-.8-1-.24-.3-.44-.54c-.48-.58-1-1.15-1.46-1.71s-1-1.11-1.5-1.66l-.79-.83-.25-.27-.53-.55c-.55-.56-1.1-1.1-1.65-1.63s-1.13-1.07-1.7-1.58c-.17-.16-.35-.3-.52-.45l-.31-.27c-.3-.27-.6-.54-.91-.79-.57-.48-1.14-.95-1.72-1.41s-1.13-.88-1.7-1.3l-.24-.17-.19-.14c-.41-.29-.82-.59-1.23-.87s-1.09-.73-1.63-1.07-1-.66-1.58-1l-.37-.22-1.19-.67c-.47-.25-.93-.49-1.4-.72l-.13-.07-.3-.14c-.33-.16-.65-.32-1-.46l-.25-.12-.23-.1-1-.42-.3-.13h-.11c-.46-.18-.93-.36-1.39-.52h-.12l-1.25-.41-.16-.05-.28-.08-1-.28-.31-.08h-.18l-1.29-.29h-.12c-.49-.09-1-.17-1.46-.24h-.38l-1.27-.25h-.3c-.53 0-1 0-1.57-.06h-.34c-.56 0-1.1 0-1.65.07l-8.24.76h-.13a21.58 21.58 0 00-2.2.31c-.51.1-1 .26-1.46.4l-.71.19c-.14 0-.3.07-.44.12a18.08 18.08 0 00-3.09 1.42l-37.83 22a18 18 0 013.53-1.54l.71-.19a19.87 19.87 0 013.79-.72l34.56-20.08-34.56 20.08 8.24-.77c.55 0 1.1-.06 1.65-.07h.34c.52 0 1 0 1.57.05h.3c.42 0 .84.07 1.26.13l.38.05c.49.06 1 .14 1.46.24h.14c.43.08.86.18 1.29.28l.44.12c.34.08.68.18 1 .28l.44.13c.41.12.83.26 1.24.4l.15.05 1.39.52.41.17 1 .42.48.22 1 .46.43.21c.47.23.94.47 1.4.72l1.2.68 5.77-3.35-5.76 3.35a56.1 56.1 0 014.8 3.13l.19.13q2.31 1.69 4.58 3.68l.3.26c1.49 1.32 3 2.73 4.4 4.21l.26.28q2.14 2.25 4.19 4.74l.23.29q1.92 2.37 3.71 4.94c.16.21.31.43.47.65 1.14 1.67 2.24 3.4 3.29 5.17.11.19.24.37.36.56 1.16 2 2.24 4 3.26 6.13l.14.29c1 2.12 2 4.28 2.82 6.49l64.7 167a82 82 0 012.68 8.18l.06.21a70.27 70.27 0 011.61 7.71v.21a59.44 59.44 0 01.61 7.22v.22a47.79 47.79 0 01-.36 6.67v.12a36 36 0 01-1.28 5.89c0 .11-.07.21-.11.32a27 27 0 01-2 4.68c-.12.22-.23.44-.36.66a21.34 21.34 0 01-2.13 2.89c-.35.41-.65.89-1 1.27a18.47 18.47 0 01-3.79 3l37.83-22a18 18 0 003.81-3c.38-.38.68-.86 1-1.28a19.06 19.06 0 001.72-2.15c.15-.23.27-.49.41-.73l.36-.67c.21-.38.45-.76.65-1.17.34-.73.66-1.48 1-2.26.15-.4.28-.82.41-1.24 0-.11.08-.21.11-.32s.11-.32.15-.48c.19-.63.36-1.29.51-2s.28-1.27.39-1.92.16-1 .23-1.53a.51.51 0 010-.13 1.48 1.48 0 010-.19 57.464 57.464 0 00.3-3.65c.03-.62 0-1.19 0-1.8 0-.2-.01-.55-.01-.89z" fill="#e88400"/><path d="M1570.56 27.18c13.2 7.61 26 22.88 33 40.95l64.7 167c10.39 26.85 4.06 50.17-14.09 51.72l-8.28.69c-6 .52-12.5-1.37-19-5.09-13.18-7.61-26-22.9-33-40.94l-64.7-167c-10.39-26.9-4.06-50.17 14.13-51.69l8.24-.77c6.03-.49 12.56 1.41 19 5.13z" fill="#ffe700"/><path d="M2303.87 929.85s-10 66.79-7.53 97.93 8.54 50.21 21.59 58.75 90.16 18 116.27-12.15 65.8-145.63 65.8-145.63l-133.84-46.6z" fill="#ffb288"/><path d="M2343.41 1064.33l13.05 72.31s90 13.66 105.59-26V1025z" fill="#ffb288"/><path d="M2307.3 927.23s-11.27-34.53-11.36-39.56c0 0 16.47-12.55 54.13-21.59s109 0 109 0 49.71 42.68 45.19 70.8-44.15 106-44.15 106-3.55-34.66 8.5-51.73-5-45.2-15.57-34.65-9 37.66-9 37.66l-12-5.3s9.54-60-4-61.49-120.74-.14-120.74-.14z" fill="#223054"/><path d="M1425.28 2255.68s46.14-13.55 64.1-18.38 36.69-13.28 36.69-13.28-4-30.55-33.48-23.07-28.25 4.35-28.25 4.35 11.93-1.67 17.51-2.67c0 0-2.86-11.18-10.79-10.61s-16.59-1.66-25.67 11.16-31.8 26.25-35.26 31.11z" fill="#ffb288"/><path d="M958.49 2078.36s43.59 31.79 88.07 53.43 153 130.26 184.31 144.69c55.3-18 185.64-47.94 185.64-47.94s18 14.7 24 21.92c0 0-161 100.05-211.53 110.88s-220.56-68-270.33-100.4c-65.83-42.87-73.49-79.19-.16-182.58z" fill="#d32d2d"/><g clip-path="url(#b)"><path d="M997.06 1371.68L808.28 1262c-1.49-.87-2.39-1.52-2.6-1.67L994.47 1370a29.38 29.38 0 002.59 1.67" fill="#85826e"/></g><path d="M799.53 1537.4a7.62 7.62 0 00-1.69-1.33l-188.78-109.71a7.34 7.34 0 011.69 1.33c9.07 9.53 9.43 29.74 8.59 36.41l188.79 109.71c.87-6.66.47-26.88-8.6-36.41z" fill="#81b8ea"/><path d="M757.6 1565.6l.63-.67 1.24-1.29.87-.88 1.23-1.2c.61-.6 1.27-1.22 2-1.86.44-.42.91-.84 1.38-1.27.73-.65 1.5-1.32 2.29-2 .5-.43 1-.85 1.53-1.28.88-.72 1.81-1.41 2.74-2.11.47-.35.93-.71 1.42-1 1.43-1 2.9-2 4.39-2.84a38.49 38.49 0 014.21-2.11h.12a24.17 24.17 0 012.63-.91c.36-.1.71-.18 1.06-.26s.6-.14.9-.19a15.1 15.1 0 011.73-.21h.1a11.73 11.73 0 011.78.06h.34a10.09 10.09 0 011.63.36l.24.08a10.29 10.29 0 011.63.73L604.86 1437l-.1-.06a9.45 9.45 0 00-1-.47l-.56-.19-.25-.09-.19-.07c-.35-.1-.7-.18-1.06-.25h-1.16a11.59 11.59 0 00-1.32 0h-.11a14.11 14.11 0 00-1.43.14l-.3.07c-.3 0-.6.12-.9.19s-.51.09-.77.16c-.1 0-.2.08-.29.1a24.17 24.17 0 00-2.63.91h-.09a37.61 37.61 0 00-4.21 2.11c-1.5.86-3 1.82-4.4 2.84-.48.34-.94.7-1.41 1.06-.94.69-1.86 1.38-2.75 2.1-.53.43-1 .85-1.53 1.29-.79.66-1.54 1.31-2.27 2l-1.4 1.28c-.69.64-1.33 1.24-2 1.85l-.64.61-.6.6-.85.86-1.27 1.32-.6.63-.94 1-.31.33-.53.61 188.78 109.71.53-.6.35-.38z" fill="#ea6f57"/><path d="M728.63 1639.86a9.07 9.07 0 01-.91-1.29c-.13-.22-.26-.44-.37-.67a11.2 11.2 0 01-.63-1.59c-.06-.2-.14-.39-.2-.59a16.72 16.72 0 01-.46-2.42v-.49c-.06-.7-.1-1.42-.1-2.15v-.9c0-.64.06-1.28.12-1.93 0-.31 0-.61.09-.92s.12-.88.19-1.31c.12-.86.27-1.71.44-2.56.08-.41.17-.82.26-1.22.2-.89.42-1.76.65-2.63.08-.3.15-.61.24-.91.34-1.23.71-2.43 1.09-3.57l.24-.7c.4-1.18.81-2.3 1.2-3.33.07-.19.15-.4.21-.58l.48-1.19.38-.94.42-1 .3-.72c.17-.39.31-.7.44-1l.12-.27c.14-.32.25-.55.3-.65l-188.8-109.68-.28.63c-.06.11-.13.28-.19.42s-.23.5-.37.83l-.07.15-.28.68c-.13.29-.24.55-.38.88l-.41 1c-.14.37-.29.72-.45 1.13l-.09.24c0 .1-.08.24-.13.34-.39 1-.79 2.15-1.19 3.34-.06.17-.12.31-.18.49l-.06.2a89.06 89.06 0 00-1.1 3.57c0 .08 0 .15-.07.24s-.11.46-.17.68c-.23.86-.45 1.73-.64 2.61 0 .21-.11.4-.15.6s-.07.42-.11.63c-.17.85-.32 1.7-.44 2.55 0 .27-.11.55-.14.81s0 .34 0 .51-.06.61-.09.92c-.06.65-.1 1.29-.12 1.93v.9c0 .73 0 1.45.1 2.15v.5a16.58 16.58 0 00.46 2.41c0 .2.13.39.2.59a10.12 10.12 0 00.63 1.59c.11.23.23.45.36.67a9.13 9.13 0 00.92 1.29c.15.18.29.36.45.53a8.75 8.75 0 001.8 1.42l188.78 109.71a8.75 8.75 0 01-1.8-1.42c-.2-.15-.34-.37-.49-.51z" fill="#3791d3"/><path d="M766.51 1537.41v-.32c.08-.65.14-1.31.19-2 0-.3 0-.59.07-.9.05-1 .07-2 0-3v-.35q-.06-1.33-.24-2.67c0-.33-.12-.66-.18-1-.12-.67-.25-1.34-.43-2-.1-.38-.23-.74-.35-1.11-.2-.61-.42-1.22-.68-1.81-.16-.37-.34-.73-.53-1.1a16 16 0 00-1-1.67c-.22-.34-.44-.67-.69-1a17.1 17.1 0 00-1.48-1.61c-.26-.26-.49-.53-.77-.77a18.8 18.8 0 00-2.86-2l-188.75-109.76a18.47 18.47 0 012.86 2c.29.25.52.52.78.78a18.43 18.43 0 011.47 1.61c.26.32.47.67.7 1a18 18 0 011 1.67c.19.37.37.73.53 1.11.26.59.48 1.19.68 1.79.12.38.25.75.35 1.13.17.66.31 1.32.43 2 0 .33.13.66.18 1 .12.89.19 1.78.23 2.67v3.35c0 .32 0 .62-.08.93-.05.67-.1 1.33-.18 2 0 .27-.07.53-.11.79-.17 1.17-.36 2.31-.58 3.35v.18c-.23 1-.46 2-.7 2.83l-.15.53c-.22.81-.45 1.53-.63 2.07l-.19.57c0 .09-.07.21-.1.28s-.13.37-.16.44l188.78 109.71c0-.07.09-.23.17-.46 0-.05.05-.13.07-.2l.2-.57a.14.14 0 010-.06c.18-.55.39-1.25.63-2.07 0-.11 0-.16.08-.28l.07-.26c.23-.85.46-1.77.69-2.82a.09.09 0 000-.05v-.13c.22-1 .41-2.18.57-3.35.06-.17.09-.31.11-.47z" fill="#81b8ea"/><path fill="#ea6f57" d="M1071.27 932.71L882.49 823l448.24-262.18 188.79 109.71-448.25 262.18zm-367.96 626.2l.45-.57.85-1.09.64-.81 1.15-1.43.68-.84 1.59-1.92.57-.68c.77-.92 1.58-1.87 2.43-2.86l.17-.18c1.29-1.49 2.69-3 4.15-4.63l.45-.5c1.44-1.54 3-3.11 4.51-4.65l.82-.83c1.18-1.15 2.37-2.29 3.59-3.4h.06c1.17-1.07 2.37-2.1 3.56-3.09l1.09-.88c.91-.73 1.82-1.42 2.72-2.09l1.1-.79c1.23-.86 2.46-1.67 3.67-2.37a30.86 30.86 0 013.5-1.75l.25-.12a18.82 18.82 0 012.22-.76c.32-.09.63-.16 1-.23s.49-.12.73-.16c.52-.08 1-.14 1.53-.17h.16a9.87 9.87 0 011.34.06h.28a8.56 8.56 0 011.33.31l.22.07a8.09 8.09 0 011.31.59L562.6 1413.43h-.09a7.61 7.61 0 00-.81-.4l-.42-.15-.21-.07-.21-.08a8.25 8.25 0 00-.89-.2h-.51l-.46-.06h-1.1a11.92 11.92 0 00-1.3.13h-.17c-.24 0-.49.11-.74.16s-.5.09-.75.16l-.19.07a20.84 20.84 0 00-2.22.76h-.08a.91.91 0 00-.17.09 31.82 31.82 0 00-3.51 1.75c-1.21.7-2.43 1.51-3.66 2.37-.37.25-.74.53-1.1.8-.91.66-1.82 1.35-2.72 2.08l-1.09.88q-1.8 1.49-3.57 3.09h-.06a164.56 164.56 0 00-3.59 3.41c-.11.12-.23.22-.35.34s-.3.32-.46.47c-1.55 1.55-3.07 3.12-4.51 4.67l-.44.47a251.99 251.99 0 00-4.17 4.65l-.11.12-.05.07q-1.29 1.47-2.43 2.85l-.57.68-1.59 1.92c-.24.3-.46.56-.68.85-.41.49-.8 1-1.15 1.43l-.64.8-.86 1.09-.24.31-.2.26-.78 1-.18.23-.47.63 188.79 109.7c.06-.09.24-.32.47-.62l.17-.23z"/><path d="M489.61 1521.63l188.78 109.71a18.39 18.39 0 01-2.13-1.46c-.21-.17-.38-.34-.57-.51a14.13 14.13 0 01-1.11-1.06c-.18-.2-.34-.41-.5-.61a10.17 10.17 0 01-.75-1c-.13-.21-.26-.42-.37-.64a10.09 10.09 0 01-.5-1.12c-.08-.19-.16-.39-.23-.59a11.3 11.3 0 01-.32-1.37c0-.12-.06-.24-.07-.35a12.71 12.71 0 01-.11-1.74v-.47c0-.43.06-.85.12-1.28 0-.14 0-.29.07-.43a14.81 14.81 0 01.33-1.5c.16-.56.34-1.1.53-1.62a1.17 1.17 0 01.05-.11c.18-.49.39-1 .6-1.42a2.14 2.14 0 01.1-.22c.2-.43.41-.85.63-1.24l.18-.32c.16-.29.32-.57.48-.83s.16-.27.24-.39.26-.39.38-.58l.33-.5.24-.33.51-.7c.05-.06.1-.13.15-.18l.28-.36-188.76-109.77-.28.36-.06.08-.09.11-.5.69-.15.2-.09.13-.34.5-.25.39c0 .05-.08.13-.12.19l-.24.39-.25.4-.24.43-.18.32a2 2 0 01-.11.2c-.15.29-.3.58-.44.88l-.08.17-.09.21c-.08.16-.16.32-.23.49s-.24.57-.36.87a.14.14 0 010 .06v.11l-.25.69c-.1.3-.19.61-.28.92q-.13.48-.24 1c0 .18-.06.36-.09.54s-.05.29-.07.44a2.93 2.93 0 00-.05.29c0 .32-.05.65-.07 1v.47a11.29 11.29 0 00.1 1.74c0 .12.06.24.08.36a11.15 11.15 0 00.32 1.36c.06.2.15.4.22.6a12.21 12.21 0 00.51 1.12c.11.21.24.42.37.63a10.17 10.17 0 00.75 1c.16.21.32.41.5.61a13.89 13.89 0 001.1 1.06c.19.17.36.34.57.51a18.55 18.55 0 002.05 1.47z" fill="#3791d3"/><path d="M717.2 1521.54c.07-.52.1-1 .15-1.58s.13-1.1.16-1.66 0-1.21 0-1.81v-1.65c0-.55-.09-1.21-.14-1.82s-.07-1.07-.15-1.6-.24-1.2-.37-1.81-.18-1-.32-1.49-.43-1.17-.65-1.75-.31-.93-.51-1.37a17 17 0 00-1-1.69c-.24-.39-.43-.8-.7-1.17a17 17 0 00-1.51-1.68c-.27-.28-.49-.59-.78-.86a17.86 17.86 0 00-2.95-2.14L519.7 1387.75a17.34 17.34 0 012.95 2.15c.3.26.51.58.79.86a19.49 19.49 0 011.5 1.67c.27.37.46.79.7 1.18a16.94 16.94 0 011 1.69c.21.43.34.9.52 1.35s.47 1.16.65 1.76.21 1 .32 1.52.28 1.18.37 1.78.1 1.07.14 1.6.13 1.21.15 1.82 0 1.1 0 1.65v1.81c0 .6-.1 1.11-.15 1.66s-.1 1.17-.18 1.74c-.18 1.4-.43 2.78-.71 4.1-.07.38-.16.74-.24 1.11-.21.91-.43 1.81-.66 2.67l-.3 1.07c-.3 1-.6 2.06-.9 3l-.09.28c-.38 1.14-.74 2.12-1.07 3-.09.25-.19.5-.27.72s-.21.52-.3.74l-.25.61c-.08.18-.16.38-.21.5s-.14.33-.17.39L712 1539.83l.13-.29v-.12c.06-.13.11-.26.19-.45s.17-.4.27-.67.18-.43.28-.69.12-.3.19-.49l.1-.27c.33-.85.68-1.81 1.06-2.95v-.06l.07-.23c.3-.91.6-1.9.9-2.95 0-.18.11-.32.16-.5s.09-.4.14-.58q.35-1.29.66-2.67c.06-.27.14-.51.19-.79l.06-.32c.28-1.33.52-2.7.71-4.1.07-.05.09-.1.09-.16z" fill="#81b8ea"/><path d="M1044.78 1268.41c-17.19-21.76-128.71-131.39-134.58-137.16l-188.79-109.71c5.87 5.77 117.4 115.4 134.59 137.16s32.18 50.55 33 52.06l188.78 109.72c-.78-1.48-15.78-30.26-33-52.07z" fill="#ea6f57"/><path d="M631.37 1630.31c-12.73-8.31-9.2-37-9-38.53l-188.8-109.71c-.18 1.51-3.71 30.22 9 38.53.12.08.24.16.37.23l188.78 109.71z" fill="#3791d3"/><path d="M691.08 1504.29c.32-.09.62-.15.94-.22s.66-.16 1-.22.91-.12 1.36-.16h.4a13.41 13.41 0 011.68 0h.41a11.59 11.59 0 011.29.22l.4.09a10.43 10.43 0 011.6.55 14.47 14.47 0 011.67.84L513 1395.72l-.18-.1a13.78 13.78 0 00-1.49-.74l-.14-.06a10.9 10.9 0 00-1.21-.43l-.26-.06-.39-.09-.59-.14c-.23 0-.47 0-.71-.08h-.59a13.43 13.43 0 00-1.42 0h-.42c-.38 0-.76 0-1.15.11l-.22.05c-.32 0-.66.13-1 .21s-.49.09-.75.16l-.18.06a23.49 23.49 0 00-2.48.85h-.12l-.25.13a32.33 32.33 0 00-3.54 1.76c-1.23.71-2.46 1.51-3.69 2.38-.41.29-.82.63-1.24.93-.82.61-1.63 1.22-2.45 1.89-.49.4-1 .84-1.47 1.26-.74.63-1.47 1.26-2.2 1.93-.52.47-1 1-1.54 1.45s-.94.87-1.4 1.33c-.13.13-.25.28-.38.41-2.29 2.28-4.53 4.7-6.69 7.17-.14.15-.28.29-.41.44s-.2.24-.3.36c-2.39 2.77-4.67 5.57-6.8 8.31l-.18.22-.13.17q-1.84 2.4-3.53 4.68l-.91 1.25c-.81 1.11-1.58 2.19-2.31 3.22-.15.22-.33.46-.48.67l-.61.88-.87 1.26-1.21 1.77-.72 1.08-1.06 1.58c-.18.29-.38.58-.55.84l-.89 1.38-.36.55v.07c-.21.32-.34.54-.5.79l-.35.54c-.21.35-.36.58-.43.69L641 1556.57c.06-.11.22-.36.43-.69l.31-.5c.18-.27.35-.54.58-.91l.33-.51.91-1.41c.18-.26.38-.57.57-.86l1-1.54.77-1.14 1.18-1.73.92-1.28c.34-.5.71-1 1.08-1.54.73-1 1.51-2.12 2.32-3.24.3-.41.59-.82.91-1.24 1.11-1.52 2.29-3.09 3.53-4.68.09-.13.2-.26.3-.39 2.13-2.74 4.42-5.55 6.81-8.32l.69-.79c2.17-2.47 4.41-4.89 6.71-7.18.58-.58 1.17-1.16 1.77-1.72s1-1 1.54-1.46c.73-.67 1.46-1.3 2.2-1.93.49-.42 1-.86 1.48-1.26.81-.67 1.62-1.27 2.44-1.88.41-.31.83-.65 1.25-.94 1.23-.87 2.46-1.67 3.68-2.38a31.45 31.45 0 013.54-1.76l.38-.17a23.34 23.34 0 012.45-.83z" fill="#ea6f57"/><path d="M650 1529v-2.36c0-.56-.1-1.12-.19-1.7 0-.18-.05-.34-.08-.52a17.87 17.87 0 00-.53-2.16l-.16-.43a16.71 16.71 0 00-.76-1.82l-.29-.57a15.81 15.81 0 00-1.38-2.14c-.07-.09-.16-.17-.24-.26a15.51 15.51 0 00-1.69-1.77l-.58-.51a18.3 18.3 0 00-2.57-1.82l-188.86-109.75a18.18 18.18 0 012.56 1.82c.21.17.4.34.59.51a15.51 15.51 0 011.69 1.77c.07.09.16.17.23.26a15 15 0 011.39 2.14c.1.19.19.38.28.57a15 15 0 01.77 1.82c.05.15.11.29.15.43a18.09 18.09 0 01.54 2.17c0 .17.05.33.08.5.08.58.15 1.15.18 1.7v2.71c0 .5-.07 1-.13 1.4v.37c-.08.6-.18 1.14-.27 1.58v.24l-.22.91-.07.23L649.15 1534a1.65 1.65 0 00.07-.21c0-.19.13-.5.22-.91v-.24c.1-.45.19-1 .27-1.58v-.37c.05-.43.09-.9.12-1.39.11-.11.17-.22.17-.3z" fill="#81b8ea"/><path d="M547.17 1639.07a11 11 0 01-.65-1.22c-.14-.32-.23-.67-.34-1s-.31-.85-.42-1.29-.14-.74-.21-1.11-.18-.89-.23-1.34-.06-.8-.09-1.2-.07-.9-.08-1.35 0-.83 0-1.25v-1.35c0-.45.07-.84.11-1.26s.08-.89.14-1.33c0-.21.06-.4.08-.6.17-1.21.38-2.4.61-3.53 0-.11.05-.23.07-.35.26-1.18.54-2.29.82-3.31l.19-.71c.09-.29.17-.57.25-.84s.18-.61.27-.89.15-.48.23-.7.14-.44.21-.64.22-.65.31-.9.08-.22.11-.31c.1-.27.19-.5.22-.6.38-.86.84-1.88 1.35-3l.22-.48c.5-1.1 1.07-2.31 1.68-3.6.11-.21.21-.43.31-.65.66-1.38 1.37-2.83 2.14-4.39l.2-.4c.69-1.39 1.43-2.86 2.2-4.37l.66-1.3c.84-1.62 1.7-3.29 2.61-5 0-.08.09-.16.13-.24l.53-1c1-1.82 2-3.66 3-5.54.4-.73.84-1.49 1.26-2.23.84-1.49 1.68-3 2.56-4.5.3-.52.62-1 .92-1.57 1.91-3.24 3.89-6.51 5.94-9.73l.41-.66q2.55-4 5.21-7.8c.54-.79 1.1-1.55 1.65-2.32 1-1.44 2.06-2.85 3.11-4.23l1.92-2.49c.88-1.11 1.77-2.19 2.66-3.25.66-.79 1.33-1.58 2-2.33 1-1.1 2-2.12 2.93-3.13.71-.74 1.43-1.51 2.14-2.19l.68-.65c1.31-1.21 2.6-2.34 3.9-3.36l.51-.38a39.2 39.2 0 014.05-2.75q2.58-1.48 5.16-2.79c.53-.28 1.06-.52 1.59-.78 1.18-.57 2.36-1.12 3.53-1.63.53-.23 1.07-.44 1.6-.65a55.26 55.26 0 015.43-1.9c.15 0 .29-.1.44-.13.37-.11.72-.15 1.08-.24 1-.23 1.93-.45 2.85-.59l.64-.07a22.45 22.45 0 012.9-.18h.55a16 16 0 013 .39l.27.06a11.8 11.8 0 012.84 1.14l-188.74-109.67-.12-.07c-.37-.2-.74-.38-1.12-.55s-.85-.32-1.29-.45l-.3-.07-.28-.06c-.28-.06-.55-.14-.84-.19-.55-.09-1.12-.16-1.7-.2h-2.09c-.59 0-1.2.11-1.8.18l-.65.07h-.24c-.84.13-1.72.36-2.6.57-.37.09-.71.13-1.09.23h-.09c-.11 0-.23.08-.34.11a54.52 54.52 0 00-5.44 1.9c-.24.1-.47.15-.72.25s-.58.28-.88.41c-1.16.5-2.34 1.05-3.53 1.63-.53.25-1.05.49-1.59.77q-2.56 1.3-5.16 2.79a38.6 38.6 0 00-4 2.75l-.52.39c-1.29 1-2.59 2.14-3.89 3.36l-.69.64-.75.71c-.46.46-.92 1-1.38 1.48-1 1-1.95 2-2.93 3.14-.24.26-.48.49-.72.77-.43.49-.85 1-1.27 1.55-.9 1.06-1.78 2.14-2.67 3.26-.3.38-.61.72-.91 1.12s-.67.91-1 1.35c-1.05 1.39-2.08 2.79-3.11 4.24-.36.49-.72 1-1.07 1.45-.2.28-.39.59-.59.87-1.77 2.55-3.51 5.14-5.2 7.8l-.11.15c-.1.17-.2.34-.31.51-2.05 3.22-4 6.48-5.92 9.72-.18.3-.37.59-.54.88l-.4.71c-.87 1.5-1.71 3-2.54 4.45-.42.76-.86 1.52-1.28 2.27-1.07 2-2.11 3.85-3.1 5.72-.13.23-.27.48-.39.71v.06c-.07.12-.13.24-.19.36-.89 1.68-1.73 3.3-2.55 4.89l-.68 1.33c-.78 1.54-1.54 3-2.24 4.45-.05.09-.1.2-.14.29-.59 1.19-1.15 2.34-1.68 3.42l-.45 1-.35.72c-.6 1.27-1.16 2.45-1.65 3.53l-.26.56c-.49 1.08-.95 2.09-1.32 2.93l-.22.6c0 .1-.07.2-.11.31s-.2.55-.31.9l-.1.28c0 .1-.08.24-.12.36l-.22.7c-.09.28-.18.57-.27.88s-.17.56-.25.87c-.05.14-.08.26-.13.41l-.06.27c-.28 1-.56 2.13-.82 3.32v.36c-.24 1.12-.44 2.31-.61 3.52 0 .13-.05.25-.07.39s0 .14 0 .21c-.05.44-.09.89-.13 1.34s-.09.83-.11 1.25 0 .9 0 1.36v1.24c0 .41.06.9.09 1.35s0 .81.08 1.2.16.89.24 1.34.12.75.21 1.11.27.86.42 1.29.2.68.34 1a12.83 12.83 0 00.64 1.22c.16.28.29.59.47.86a11.15 11.15 0 001 1.18c.18.2.32.43.52.62a11.23 11.23 0 002 1.46l188.79 109.71a10.53 10.53 0 01-2-1.47c-.19-.18-.34-.41-.52-.61a9.33 9.33 0 01-1-1.19c-.41-.26-.54-.56-.7-.84z" fill="#ea6f57"/><path d="M605.7 1528.49c23.12-13.35 46.58-17.4 35.3 28.08 1.16-1.89 23.36-37.76 43.69-49.5 5.56-3.21 10.89-4.47 15.46-2.48 21.27 9.21 2.71 53.84 1.74 56.19 1-1.31 19.61-26.26 35.67-35.53 5.69-3.29 10.92-4.44 14.69-1.53 14.35 11.08 4.12 42.19 3.58 43.83.53-.6 10.51-12.07 21.45-18.38 7-4 14.08-5.71 18.79-.48 12.13 13.47 4.55 34.57-6.81 53.14-7.44 12.16-23 28.05-37 36.16-7.46 4.31-14.5 6.42-19.67 4.59-14.92-5.24-.23-36.57.54-38.22-.69.78-13.69 15.64-28.58 24.24-7.73 4.46-15.79 7-22.42 4.5-19.38-7.44-5.85-23.88-5.14-24.75a149.81 149.81 0 01-23.49 17.5c-8.33 4.81-16.92 7.87-22.12 4.46-12.73-8.31-9.2-37-9-38.53-1.17 1.74-23.23 34.72-46.36 48.07a35.82 35.82 0 01-14.06 5c-26.65 2.63-13.79-31.12-13.12-32.9 6.62-15.09 33.74-70.11 56.86-83.46z" fill="#ffb288"/><path d="M858 1200.72l1.84-1.91q2.6-2.7 5.12-5.37l.5-.52c1.85-2 3.65-3.9 5.43-5.82l1.6-1.74q1.9-2.05 3.73-4.07l1.64-1.8 3.77-4.18 1.15-1.28q2.36-2.64 4.56-5.14l1-1.17 3.3-3.78.57-.64.78-.91 2.42-2.8c.42-.49.85-1 1.25-1.46l2.36-2.76.92-1.08q1.56-1.83 2.93-3.47c.07-.08.12-.15.19-.22.87-1 1.68-2 2.42-2.9l.56-.67 1.6-1.93.6-.73 1.13-1.37.5-.61.91-1.11a2.13 2.13 0 01.18-.22c.29-.36.52-.65.66-.81l-188.74-109.71-.6.74-.39.48-.7.86c-.18.21-.39.47-.58.71-.34.4-.7.85-1.1 1.33l-.6.73-1.54 1.85-.65.79-2.15 2.56-.46.56-2.87 3.39-1 1.2-2.29 2.68-1.26 1.46-2.41 2.8-1.35 1.55c-1.09 1.25-2.22 2.55-3.38 3.86l-.93 1.07-4.58 5.16-1.15 1.28c-1.24 1.37-2.49 2.77-3.78 4.18-.53.6-1.08 1.19-1.62 1.79l-3.76 4.1-1.58 1.72-5.42 5.8c-.19.21-.4.42-.6.63-1.65 1.76-3.34 3.53-5.05 5.31l-1.79 1.85q-2.07 2.14-4.19 4.3l-1.9 1.93c-1.62 1.64-3.26 3.29-4.92 4.93l-1.12 1.12q-3.42 3.38-6.92 6.73l-1.75 1.67q-3.27 3.1-6.57 6.16c-.23.2-.45.42-.67.62q-3.57 3.27-7.15 6.43l-1.77 1.55c-2.29 2-4.57 4-6.85 5.86l-.47.4c-2.39 2-4.78 3.9-7.16 5.78l-1.78 1.38c-2.32 1.8-4.63 3.56-6.93 5.22l-.26.19c-2.35 1.69-4.67 3.28-7 4.81l-1.71 1.12c-2.32 1.5-4.62 2.94-6.87 4.25q-3.63 2.08-7.09 3.78c-2 1-4 1.83-5.85 2.59-.56.24-1.1.43-1.65.64-1.31.5-2.59 1-3.83 1.36l-1.74.54c-.95.28-1.85.49-2.76.71s-2.06.49-3 .66-1.74.29-2.58.38c-.63.08-1.26.15-1.87.2-1 .07-2 .09-2.88.08h-1.16a26.81 26.81 0 01-3.59-.4c-.22 0-.42-.1-.64-.15a22.07 22.07 0 01-2.69-.74l-.76-.26a20.54 20.54 0 01-2.88-1.35l188.79 109.71.21.12a20.61 20.61 0 002.11 1l.56.2.75.26c.34.12.66.25 1 .36.53.15 1.11.26 1.67.38.22 0 .42.11.64.15a2.44 2.44 0 01.26.06c1 .16 1.94.27 3 .34h3.53l.88-.09c.61 0 1.23-.12 1.86-.19s1-.08 1.51-.16c.34-.05.72-.17 1.07-.23 1-.18 2-.41 3.06-.66.51-.12 1-.18 1.5-.32s.84-.27 1.25-.39q.87-.25 1.74-.54c1.24-.4 2.52-.86 3.83-1.36.55-.21 1.09-.41 1.65-.64.24-.09.46-.16.71-.27q2.49-1 5.14-2.33c2.31-1.12 4.68-2.38 7.09-3.77 2.26-1.31 4.56-2.75 6.87-4.25l1.71-1.12c2.31-1.53 4.64-3.12 7-4.81l.26-.2c2.29-1.66 4.6-3.41 6.93-5.21l1.78-1.39c2.38-1.87 4.76-3.78 7.15-5.77l.47-.4q3.43-2.87 6.86-5.87l1.75-1.53q3.6-3.16 7.16-6.44l.66-.62q3.33-3.06 6.61-6.19l1.71-1.63q3.5-3.35 6.94-6.75l.18-.17.95-1q2.46-2.44 4.89-4.89l1.95-2c1.31-1.32 2.69-2.73 4.03-4.14z" fill="#ea6f57"/><path d="M968.31 968.58l1.26-.5 1.21-.47c.46-.19.92-.37 1.42-.55l1.31-.51 1.55-.59 1.56-.58 1.61-.6 1.56-.58 1.85-.68 1.65-.6 1.89-.69 2-.7 1.78-.64 2-.71 2-.72 1.88-.67 2.3-.81 1.75-.62 2.39-.84 1.89-.65c.8-.29 1.62-.57 2.43-.85l2-.72 2-.69 2.36-.82 2.28-.78 2-.69 2.3-.79 2.19-.75 2.27-.78 2-.68 2.31-.79 2.11-.72 2.15-.73 2-.68 2.32-.79 1.86-.63 1.8-.61 2.54-.86 1-.34 2.63-.89 1.64-.55 2-.67 5.43-1.82 1.55-.52 5.27-1.77h.08l4.29-1.44.56-.18 3.81-1.27 1-.34L882.49 823l-1 .34-3.81 1.27-.57.19-9.63 3.2-1.56.52-5.6 1.89-1.24.41-2.4.81-2.07.7-1.4.48-2.37.8-2.11.71-1.33.46-2.85 1-1.52.52-2.62.89-1.76.6-2.53.87-1.88.64-2.43.83-1.88.65-2.65.91-1.69.58-2.44.85-2.32.8-2 .69-2.05.72-2.44.85-1.88.66-2.39.84-1.75.61-2.3.81-1.88.67-2 .72-2 .7-1.87.67-1.85.67-2 .71-1.61.59-1.85.68-1.56.58-1.62.6-1.55.58-1.55.59-1.32.5-1.42.56-1.2.47-1.26.51-1 .41-.21.08-1.66.7a68.32 68.32 0 00-7.16 3.64c-1.29.74-2.62 1.56-4 2.43-.46.29-.94.62-1.4.93-.91.6-1.82 1.2-2.76 1.85-.55.38-1.11.79-1.67 1.19l-2.57 1.87-1.81 1.38c-.87.67-1.73 1.34-2.61 2l-1.87 1.5c-.89.72-1.77 1.46-2.66 2.21l-1.88 1.59c-.92.8-1.85 1.61-2.78 2.44l-1.79 1.59c-1 .92-2.06 1.88-3.08 2.84l-1.52 1.4-4.18 4-.4.38c-2.51 2.48-5 5.06-7.49 7.69l-.68.71c-2.36 2.53-4.69 5.12-7 7.74-.19.22-.4.43-.59.66s-.17.21-.26.32c-3.35 3.85-6.59 7.8-9.69 11.78-.09.12-.2.23-.29.36-.88 1.14-1.76 2.28-2.62 3.42-.7.94-1.48 2-2.33 3.05s-1.67 2.14-2.59 3.3l-.89 1.09c-.68.86-1.37 1.71-2.11 2.63l-1.13 1.39-2.19 2.66-1.37 1.66-2.24 2.84-1.63 1.94-2.21 2.65-1.87 2.21-2.29 2.71-2 2.39-2.34 2.75-2.13 2.5-2.53 2.91-2.11 2.46-2.75 3.21-2.11 2.46-3 3.44c-.62.72-1.23 1.44-1.86 2.16l-3.17 3.81-2 2.24-3.7 4.27c-.45.52-.89 1-1.35 1.56l-3.86 4.46c-1.67 1.93-3.34 3.87-5 5.8l-1.55 1.79-2.07 2.38-10.37 11.95c-1.13 1.32-2.27 2.63-3.4 3.93l-2.21 2.55-2.79 3.22-2.29 2.64c-1 1.14-2 2.28-2.95 3.4l-2.35 2.73-2.3 2.65-2.71 3.2-2.21 2.56-2.4 2.79-2.42 2.82-2.1 2.44-2.41 2.81-2 2.3-2.37 2.78-1.77 2.08-2.19 2.58-1.72 2q-3.7 4.41-6.82 8.17l-1 1.21-1.9 2.32-1.16 1.45-1.43 1.77-1 1.25-.93 1.17c-.08.12-.14.19-.22.3-.82 1.06-1.58 2-2.19 2.88l-.87 1.22c-.57.81-1.13 1.67-1.7 2.54-.09.15-.19.29-.29.44l-.06.1a95.98 95.98 0 00-2.15 3.51c-.09.15-.17.32-.26.48-.28.48-.55 1-.83 1.48-.38.69-.77 1.36-1.14 2.06-.16.3-.31.62-.47.92-.35.67-.69 1.35-1 2s-.55 1.06-.81 1.6-.35.79-.54 1.18c-.37.8-.74 1.6-1.1 2.42-.22.47-.45.94-.66 1.42s-.33.85-.51 1.26c-.38.91-.75 1.81-1.11 2.72-.19.48-.4.94-.58 1.42s-.29.82-.44 1.22c-.37 1-.71 2-1.05 2.92-.17.5-.37 1-.53 1.49s-.22.72-.34 1.09c-.33 1-.64 2-.94 3.08-.15.52-.34 1.06-.48 1.58-.09.29-.14.58-.22.87-.3 1.11-.56 2.21-.81 3.3-.13.54-.29 1.1-.41 1.64 0 .19-.05.36-.09.55-.37 1.76-.66 3.47-.89 5.13 0 .16-.07.34-.09.5v.42c-.16 1.32-.26 2.61-.32 3.86v4.04c0 .37 0 .74.06 1.1a25.09 25.09 0 00.5 3.42v.14a17.1 17.1 0 00.93 2.78c.11.27.25.51.38.77a11.3 11.3 0 001.1 1.73c.16.21.32.43.5.63a8.8 8.8 0 002.05 1.7l188.78 109.71a8.55 8.55 0 01-2-1.7c-.18-.2-.34-.42-.51-.64a11.15 11.15 0 01-1.09-1.72c-.13-.26-.27-.51-.39-.78a15.68 15.68 0 01-.92-2.76 1.31 1.31 0 010-.15 26.92 26.92 0 01-.5-3.43c0-.35 0-.72-.06-1.09 0-.91-.06-1.86 0-2.84v-1.21c.06-1.24.16-2.51.32-3.83v-.37c0-.13.07-.37.09-.55.22-1.66.53-3.39.89-5.14.15-.73.33-1.47.5-2.21.25-1.09.52-2.18.81-3.29.22-.81.46-1.63.71-2.46.29-1 .6-2 .94-3.07.27-.86.56-1.71.86-2.57s.69-2 1-2.94.67-1.75 1-2.63.73-1.81 1.11-2.71.77-1.8 1.17-2.7.73-1.61 1.11-2.41.89-1.86 1.34-2.78l1-2q.8-1.53 1.62-3c.28-.49.55-1 .82-1.48.82-1.41 1.64-2.78 2.48-4.08l.28-.44c.85-1.31 1.71-2.58 2.58-3.75.61-.84 1.36-1.83 2.18-2.89l1.19-1.5 1-1.26 1.47-1.81c.36-.46.71-.89 1.1-1.37.63-.78 1.31-1.61 2-2.44l.92-1.12 2.83-3.4.5-.6q1.67-2 3.5-4.17l1.72-2 2.19-2.59 1.76-2.07 2.37-2.78 2-2.3 2.4-2.81 2.1-2.44 2.42-2.82 2.41-2.79 2.2-2.56 2.82-3.26c.63-.73 1.26-1.47 1.91-2.21l3-3.47c.73-.83 1.45-1.67 2.18-2.52.93-1.06 1.85-2.12 2.77-3.19l2.29-2.64 3.34-3.85c.11-.14.23-.27.35-.4l5.25-6 9.57-11c.28-.31.55-.63.82-1l7.73-8.91 1.61-1.87 2.06-2.37c1.13-1.32 2.27-2.63 3.39-3.93l1.41-1.63 3.67-4.26c.54-.63 1.08-1.24 1.61-1.87l3.32-3.85 1.88-2.19 2.88-3.37 2-2.29 2.7-3.15 2-2.36c.8-.94 1.59-1.86 2.37-2.79l2-2.38 2.33-2.76 1.78-2.11 2.24-2.69 1.68-2 2.16-2.61 1.42-1.71c.75-.92 1.47-1.79 2.18-2.67.38-.46.77-.93 1.13-1.38.74-.91 1.44-1.77 2.12-2.63l.88-1.09 2.55-3.23v-.07c.84-1.09 1.63-2.11 2.33-3 .94-1.27 1.92-2.53 2.9-3.78q4.65-6 9.69-11.79l.87-1q3.42-3.93 7-7.72l.69-.73c2.47-2.63 5-5.2 7.48-7.68l.52-.5q2-2 4.08-3.95l1.54-1.42c1-.95 2-1.9 3.06-2.82l1.8-1.6c.93-.82 1.85-1.64 2.78-2.43.62-.54 1.25-1.06 1.87-1.59.89-.75 1.78-1.49 2.66-2.2.63-.51 1.25-1 1.87-1.51.88-.7 1.75-1.37 2.61-2l1.81-1.38 2.61-1.9c.57-.4 1.14-.82 1.69-1.2.93-.65 1.84-1.25 2.74-1.85.47-.31 1-.64 1.41-.93 1.35-.87 2.69-1.69 4-2.43a66.35 66.35 0 017.15-3.64l1.87-.78z" fill="#ea6f57"/><path d="M958.26 973.42a68.23 68.23 0 017.15-3.64c19.64-8.43 101.55-35.63 105.86-37.07l448.24-262.18 1.11 391.3-442.87 258.64c-.79-1.51-15.78-30.25-33-52.06S916.07 1137 910.2 1131.25c-57.86 73.71-98.66 109-126.43 125.08-17.06 9.85-29.2 12.41-37.35 12.11-21.42-.74-6.31-49.38 10.28-72.07s113.81-131 135.93-160.52c19.62-26.17 46.17-51.2 65.63-62.43z" fill="#ffb288"/><path d="M810.63 1016.16c57.38-33.13 100.4-17.67 98.25-11-2.34 7.34-149.86 176.16-171.18 207.65s-16.42 82.19 37.3 56.1c2.31-1.12 4.68-2.38 7.09-3.77 53.58-30.94 125.78-120.2 129.58-124.89 25.34 43.32 117.08 124.32 128.55 133.72s32.17 48.15 19.52 71.83c-7.24 13.81-15.26 22-23.14 26.53-21.63 12.48-41.1-1.58-42.12-2.32-3.77 41-21.23 60.11-36.75 69.08-13.67 7.88-25.22 7.88-25.83 7.88-4.81 35.32-21.42 52.2-35.36 60.25-11.35 6.56-20.46 7.21-20.94 7.25-10.31 33.53-23.87 49.35-36.14 56.43-16.9 9.76-30.6 3.25-31.32 2.91.84-6.67.47-26.89-8.6-36.41-5.44-5.71-17.18-.71-25.71 4.21a103.62 103.62 0 00-9.93 6.52c.48-1.25 9.42-25.12-6.29-34.08-5.35-3-12.34-1-19.23 3-13.36 7.71-25.72 22.07-26.37 22.83.73-1.66 14.64-33.06-4.4-42.85-5.75-2.93-13.34-.73-21.14 3.77-18.09 10.44-36.34 32.14-37.31 33.28.29-1 5.67-19.14-15.27-24-7.39-.11-14.77 2.31-22 6.47-38.68 22.33-70.3 91.18-72 94.8l-268.21 157-1.11-391.49c11.87-6.81-72.62 40.52 103.88-61.38 84.13-48.58 154.45-89.35 178.59-103.82 103-61.66 172.32-134.44 238.82-183.23a205.37 205.37 0 0118.77-12.27z" fill="#fff"/><path fill="#81b8ea" d="M271.74 1768.33L82.96 1658.62l-1.11-391.49 188.78 109.71 1.11 391.49zm551.5-758.74c2.12-1 4.23-2 6.29-2.85 1.16-.5 2.31-1 3.45-1.41 1.79-.71 3.56-1.39 5.31-2 1.12-.4 2.25-.79 3.36-1.16 1.75-.57 3.47-1.09 5.18-1.58 1-.3 2.12-.62 3.16-.9 1.22-.31 2.42-.59 3.61-.86s2.41-.57 3.57-.8 2.3-.43 3.44-.63 2.3-.4 3.43-.56c1-.14 1.9-.25 2.85-.36 1.15-.13 2.3-.26 3.42-.36.92-.08 1.81-.14 2.69-.19 1.1-.07 2.19-.13 3.24-.16h5.42c.72 0 1.44 0 2.13.08 1.05 0 2.07.13 3.06.22.53 0 1.08.08 1.6.14 1.16.13 2.26.28 3.33.45l.92.13c1.3.22 2.52.47 3.67.75l.9.23c.73.18 1.42.38 2.09.59 1 .31 2 .64 2.83 1 .25.1.54.19.78.29.47.2.85.41 1.27.61s.92.43 1.3.65L716.75 891.16a2 2 0 00-.25-.14c-.3-.18-.7-.34-1-.51s-.8-.41-1.27-.61l-.16-.07c-.19-.08-.43-.14-.62-.22-.87-.34-1.81-.67-2.84-1-.19 0-.34-.12-.54-.18-.48-.14-1-.27-1.53-.4l-.91-.23c-1.11-.26-2.27-.51-3.5-.72h-.17l-.93-.13c-1.07-.17-2.17-.32-3.33-.45-.51-.06-1.06-.1-1.6-.14s-1.31-.14-2-.18h-1c-.7 0-1.41-.06-2.13-.08h-6.83c-.59 0-1.23.09-1.83.13-.89 0-1.78.11-2.69.19-1.12.1-2.27.23-3.43.36-.94.11-1.88.22-2.84.36-.37 0-.72.08-1.1.14-.76.11-1.57.29-2.34.42-1.14.2-2.26.39-3.43.63s-2.37.52-3.57.8-2.39.55-3.61.87c-.38.09-.73.16-1.11.26-.67.18-1.38.44-2.06.63-1.71.49-3.42 1-5.18 1.59-1.11.36-2.23.75-3.36 1.15q-2.61.95-5.3 2c-.7.28-1.37.49-2.08.78-.45.19-.92.44-1.37.63-2.07.88-4.17 1.85-6.3 2.86-1 .48-2 .92-3 1.43a181.18 181.18 0 00-9.58 5.13 204.18 204.18 0 00-18.71 12.26c-66.5 48.78-135.77 121.57-238.82 183.23-24.15 14.46-270.6 158.38-282.47 165.19l188.78 109.71C282.5 1370 529 1226.11 553.1 1211.65c103-61.67 172.32-134.45 238.82-183.24a204 204 0 0118.71-12.25c3.25-1.87 6.44-3.56 9.59-5.13 1.02-.51 2.01-.96 3.02-1.44z"/><g style="isolation:isolate"><path fill="gray" d="M1771.68 1654.17l-.1 19.33 2.02-48.09.1-19.34-2.02 48.1z"/><path fill="#939292" d="M1445.48 1843.74l-.1 19.33 326.2-189.57.1-19.33-326.2 189.57z"/><path fill="#d3d3d3" d="M1171.48 1685.53l-.1 19.34 274 158.2.1-19.33-274-158.21z"/><path fill="#fff" d="M1540.2 1471.26l-368.72 214.27 274 158.21 326.2-189.57 2.02-48.1-233.5-134.81z"/></g><g style="isolation:isolate"><path fill="#b7b5ac" d="M1739.81 1625.41l-.03 10.47 31.82 18.38.04-10.47-31.83-18.38z"/><path fill="#777570" d="M1771.64 1643.79l-.04 10.47 1.59-37.79.04-10.48-1.59 37.8z"/><path fill="#d8d8d8" d="M1773.23 1605.99l-33.42 19.42 31.83 18.38 1.59-37.8z"/></g><g style="isolation:isolate"><path fill="#3ba998" d="M1294.89 1641.98l-.05 15.05 19.55 11.28.02-15.06-19.52-11.27z"/><path fill="#297569" d="M1314.41 1653.25l-.02 15.06 17.56-10.22.05-15.06-17.59 10.22z"/><path fill="#4cdbc4" d="M1312.47 1631.76l-17.58 10.22 19.52 11.27 17.59-10.22-19.53-11.27z"/></g><g style="isolation:isolate"><path fill="#3ba998" d="M1323.17 1658.3l-.04 15.06 19.53 11.28.05-15.06-19.54-11.28z"/><path fill="#297569" d="M1342.71 1669.58l-.05 15.06 35.16-20.44.03-15.05-35.14 20.43z"/><path fill="#4cdbc4" d="M1358.32 1637.88l-35.15 20.42 19.54 11.28 35.14-20.43-19.53-11.27z"/></g><g style="isolation:isolate"><path fill="#3ba998" d="M1350.83 1674.28l-.04 15.05 19.54 11.27.04-15.05-19.54-11.27z"/><path fill="#297569" d="M1370.37 1685.55l-.04 15.05 45.99-26.72.06-15.06-46.01 26.73z"/><path fill="#4cdbc4" d="M1396.83 1647.54l-46 26.74 19.54 11.27 46.01-26.73-19.55-11.28z"/></g><path fill="#4cdbc4" d="M1535.35 1744.57l-11.63-6.72-11.62 6.72 11.62 6.71 11.63-6.71z"/><path fill="#f15a24" d="M1518.04 1754.57l-11.63-6.71-11.63 6.71 11.63 6.7 11.63-6.7z"/><path fill="#29abe2" d="M1500.6 1764.63l-11.63-6.71-11.62 6.71 11.62 6.72 11.63-6.72z"/><path fill="#b3b3b3" d="M1426.41 1685.76l86.03 49.66 1.9-1.1-86.04-49.66-1.89 1.1zm-3.24 1.87l86.05 49.66 1.89-1.1-86.04-49.67-1.9 1.11zm-3.22 1.85l86.03 49.67 1.9-1.09-86.03-49.67-1.9 1.09zm-10.84 6.27l86.02 49.67 1.9-1.1-86.04-49.67-1.88 1.1zm-3.23 1.86l86.02 49.67 1.9-1.1-86.03-49.66-1.89 1.09zm-3.24 1.86l86.04 49.68 1.89-1.09-86.03-49.68-1.9 1.09zm-10.98 6.35l86.03 49.67 1.89-1.1-86.02-49.67-1.9 1.1zm-3.23 1.86l86.03 49.67 1.9-1.09-86.03-49.67-1.9 1.09zm-3.22 1.86l86.02 49.67 1.9-1.09-86.04-49.66-1.88 1.08zm130.01-193.17l187.22 108.09 25.73-14.85-187.21-108.1-25.74 14.86zm-2.54 21.21l153.04 88.35 12.86-7.42-153.04-88.36-12.86 7.43z"/><path d="M1616.82 1599.23c0 .39 0 .79-.06 1.19v.29c0 .4-.07.79-.11 1.2-.05.39-.11.79-.16 1.17a2.93 2.93 0 000 .29c-.07.4-.13.79-.21 1.18a.59.59 0 000 .13l-.24 1.07c0 .09 0 .19-.08.29-.09.38-.19.76-.3 1.15v.16c-.11.35-.21.7-.33 1l-.09.28c-.13.38-.26.77-.4 1.15a1.31 1.31 0 00-.08.21c-.12.3-.24.6-.37.9 0 .1-.08.2-.12.3-.15.36-.31.73-.48 1.09l-.12 43.18c.17-.35.33-.72.48-1.09l.12-.3c.13-.3.25-.6.36-.89a.67.67 0 01.07-.17c.15-.39.28-.77.41-1.16l.09-.27c.11-.35.22-.69.32-1a1.31 1.31 0 010-.15q.16-.59.3-1.17a1.15 1.15 0 00.07-.28c.09-.35.17-.71.24-1.06v-.1c0-.03 0 0 0 0l.21-1.18v-.29c.06-.39.12-.78.17-1.18 0-.4.08-.8.11-1.2v-.28q0-.6.06-1.2v-.83l.12-43.18c.03.18.03.52.02.75z" fill="#2f8c7a"/><path fill="#3daf9d" d="M1613.66 1612.34l-.12 43.18-90.85-14.23.13-43.18 90.84 14.23z"/><path fill="#6d3904" d="M1549.19 1650.44l-.12 43.19-26.38-52.34.13-43.18 26.37 52.33z"/><path d="M1589.09 1559.6c24.74 14.29 33 34.54 24.57 52.74l-90.84-14.23 26.37 52.33c-31.77 5.3-67.49.7-92.63-13.82-36.84-21.27-37-55.75-.43-77s96.11-21.29 132.96-.02z" fill="#4cdbc4"/><path d="M1542.44 1694.57c.35 0 .71-.08 1-.13l1.91-.25.9-.13 2.77-.43.12-43.19c-.92.15-1.84.3-2.77.43l-.9.13-1.9.25-1.06.14-1.8.21-1.06.12-1.86.17-1 .1-2.23.17h-.63c-1 .07-1.9.12-2.86.17h-.74c-.72 0-1.43.06-2.15.08h-10.01c-.73 0-1.46 0-2.2-.08h-.86c-.71 0-1.41-.08-2.11-.12h-.7c-.92-.06-1.83-.12-2.74-.21h-.57l-2.21-.21-.85-.1c-.69-.07-1.39-.14-2.08-.23l-.7-.09c-.91-.11-1.81-.22-2.7-.36-.2 0-.39 0-.59-.09-.72-.1-1.44-.2-2.15-.32l-.89-.15-1.92-.34c-.28 0-.57-.09-.85-.15l-2.41-.47h-.28l-2.73-.59-.81-.2-1.89-.45-1-.26c-.57-.14-1.13-.29-1.7-.45-.34-.08-.69-.17-1-.28l-1.48-.42-1.5-.44-1.35-.42-1.48-.48-1.33-.45-1.46-.51-1.3-.48c-.48-.17-1-.36-1.43-.54l-1.52-.6-.59-.23c-.77-.32-1.55-.64-2.31-1l-.29-.13-2-.91c-.19-.1-.38-.18-.58-.27-.73-.35-1.48-.71-2.2-1.08l-.18-.09a31.5 31.5 0 01-2-1.05l-.54-.29c-.72-.39-1.42-.78-2.12-1.19a68.42 68.42 0 01-18-14.47c-.68-.81-1.34-1.61-2-2.44a45 45 0 01-3.93-6.25 37.23 37.23 0 01-2.15-5.15c-.29-.87-.54-1.73-.77-2.6a33 33 0 01-1-7.86l-.11 43.17c0 14 9.21 28.09 27.75 38.78.7.41 1.41.8 2.12 1.18l.56.31 2 1 .18.09c.73.36 1.47.72 2.22 1.07l.57.28 2 .91.3.12c.76.34 1.52.66 2.3 1l.58.22.77.32.75.29 1.43.54 1.31.47 1.46.52 1.33.45 1.48.48 1.35.41 1.5.45.77.22.71.2 1 .28 1.7.45 1 .25 1.9.46c.27.06.53.13.8.18.89.21 1.78.4 2.69.59l.27.06 2.42.46.85.16 1.92.34.88.14 2.16.33.58.09h.16c.85.11 1.69.23 2.55.33l.69.08c.69.09 1.39.17 2.08.24l.86.09c.73.07 1.47.15 2.21.21h.73l2.57.18h.7l2.12.13h.86c.73 0 1.46.07 2.19.08h10.45l1.7-.08h.76c1 0 1.91-.1 2.86-.17h.62l2.23-.17 1-.09c.4 0 .81-.08 1.22-.11l.64-.07 1.06-.12c.75 0 1.36-.06 1.96-.14z" fill="#2f8c7a"/><path fill="#1e88ad" d="M1615.68 1659l-.13 43.18-57.88-43.02.12-43.19 57.89 43.03z"/><path d="M1648.65 1630.19c-4.09 8.9-12.14 17.31-24.15 24.29-2.81 1.63-5.77 3.13-8.82 4.52l-57.89-43z" fill="#29abe2"/><path d="M1647.88 1674.69c.22-.43.44-.88.65-1.31l.12-43.19-.64 1.32-.11.2c-.21.42-.44.83-.67 1.25l-.14.24c-.22.41-.47.83-.72 1.24a1.08 1.08 0 00-.11.18c-.26.4-.52.81-.8 1.23v.06c-.28.43-.57.84-.87 1.24l-.15.23-.91 1.2-.26.33c-.12.13-.22.28-.33.4l-.32.39-.34.41-.33.38c-.11.14-.23.27-.34.4l-.34.39c-.13.13-.25.27-.37.4l-.36.38-.37.4-.37.37-.38.39-.38.39-.4.38-.39.38-.4.38-.34.31c-.36.34-.74.67-1.13 1-.37.33-.76.65-1.15 1l-.29.24-1.22 1-.14.11c-.38.31-.77.6-1.16.9l-.31.22c-.42.32-.86.63-1.3.94l-.22.16c-.4.28-.8.56-1.21.83l-.29.2-1.41.92-.28.18-1.28.8-.3.17c-.41.25-.83.49-1.24.75-2.81 1.63-5.77 3.13-8.82 4.52l-.13 43.18a97.35 97.35 0 008.82-4.52c.42-.25.84-.49 1.24-.74l.12-.07.18-.11 1.29-.8a2.61 2.61 0 01.28-.17l1.4-.93.3-.19 1.2-.83.23-.16 1.3-1 .3-.22 1.17-.89.14-.11c.41-.32.81-.66 1.22-1l.28-.22c.4-.34.79-.67 1.16-1l1.13-1 .14-.13.19-.18.41-.38c.12-.13.26-.25.39-.37l.4-.39c.13-.12.25-.25.37-.38l.38-.39.38-.38c.12-.14.25-.27.37-.4l.36-.38.35-.4c.12-.13.24-.25.35-.38l.35-.4.33-.39c.12-.14.23-.26.34-.41s.22-.25.32-.38l.33-.41.19-.23a.86.86 0 01.07-.1c.31-.4.61-.79.9-1.19l.16-.23c.3-.41.59-.83.87-1.24v-.07c.27-.41.54-.83.79-1.23a1.74 1.74 0 00.11-.18c.26-.41.5-.82.74-1.24a.37.37 0 01.07-.12v-.11c.24-.42.47-.84.68-1.25z" fill="#1f81a3"/><path d="M1588.21 1702.39c.84-.3 1.68-.6 2.51-.92.16-.07.32-.11.47-.18.89-.34 1.76-.69 2.62-1 .18-.06.37-.15.55-.23.89-.36 1.77-.75 2.63-1.14l.13-43.18c-.86.38-1.75.77-2.64 1.14l-.54.24c-.87.35-1.74.7-2.62 1-.16.07-.32.12-.48.18-.82.32-1.66.62-2.51.93l-.34.12c-.91.31-1.83.62-2.74.91l-.76.25-1.15.36-.9.27-1.16.34-.91.25-1.18.33-.91.25-1.23.3c-.28.08-.58.16-.86.22l-1.31.32-.82.19-1.52.34-.61.13c-.72.16-1.44.3-2.16.44l-.37.07c-.59.11-1.19.23-1.79.33s-1.32.24-2 .36l-.12 43.18 1.89-.33h.1l1.76-.34.41-.07c.71-.13 1.43-.28 2.14-.44l.64-.14c.49-.11 1-.21 1.49-.33.29-.06.55-.12.83-.2.43-.09.87-.19 1.3-.3l.88-.22 1.22-.32.91-.24 1.18-.32.91-.25 1.16-.34.91-.28 1.13-.36.47-.14.3-.1 2.74-.92a3.4 3.4 0 01.35-.16z" fill="#a53d1e"/><path d="M1539.24 1612.66l57.88 43a128.08 128.08 0 01-31.5 9.3z" fill="#f15a24"/><path fill="#cf4d1f" d="M1565.5 1708.17l-26.26-95.51 26.38 52.33-.12 43.18z"/><path fill="#0e2649" d="M2467.61 2030.99l39.96-33.33-339.56-135.71-292.02-168.6-53.11 30.66-43.4-17.35-165.16 137.76-205.19 118.47 37.31 21.54-42.74 35.66 339.56 135.71 292.03 168.6 53.1-30.66 43.4 17.34 165.16-137.76 205.19-118.46-13.16-7.6-21.37-16.27z" opacity=".26"/><path fill="#fcfcfc" opacity=".7" d="M2525.51 1976.79l-375.79 313.42-728.09-290.99 375.79-313.42 728.09 290.99z"/><path fill="#fcfcfc" d="M2520.08 2033.99l-466.86 269.54-626.16-361.51 466.86-269.54 626.16 361.51z"/><path d="M1654.78 1946.59l-5.89 6.51q-10.29-3.67-17.4-.14-8.6 5.8 7.6 15.71 17.16 9.35 27.45 4.53 7.37-4.53-2.94-11.89l12.51-3q14.7 12.18.49 20.67-19.87 10.05-47.57-4.81-25.24-15.72-8.09-27.32 13.98-7.19 33.84-.26zm56.88-19.54q25 15.57 7.11 27.6-20.85 10-47.57-4.24-26-16.14-8.09-27.89 20.6-10.18 48.55 4.53zm-10.3 6q-17.4-9.76-27.71-4.39-9.06 6.38 7.11 16.28 16.92 9.19 28 4 9.24-6.03-7.4-15.94zm78.45-14.77l-9.07 5.23-49.77-10q-2.94-.84-7.35-1.7 3.92 2 9.56 5.24l29.42 17-8.58 5-53.94-31.14 9.81-5.66 48.79 10.33a51 51 0 017.35 1.7c-1-.57-2.61-1.41-4.9-2.55l-3.68-2.12-30.16-17.41 8.59-5zm-2.2-49.4l-13 7.5 43.89 25.33-9.56 5.52-43.89-25.33-13 7.5-10-5.8 35.54-20.53zm85.81 1.12l-11.77 6.79-30.65-6.37-5.39 3.12 20.84 12-9.07 5.24-53.94-31.15 18.63-10.75q15.21-8.2 31.63.42 14 7.79 6.13 15.15zm-63.5-14.58l-7.85 4.53 14.22 8.21 7.85-4.53q7.59-4.4.49-8.21a13.07 13.07 0 00-14.71.01zm105.91-9.9l-10 5.8-14.47-5-15.69 9.06 8.58 8.35-9.8 5.66-38.74-39.92 11-6.36zm-35.55-3.54l-23.78-7.78a40.62 40.62 0 01-5.15-1.84l-.49-.29-.25.14a12.77 12.77 0 012.21 1.7 12 12 0 002 1.56l13.73 13.31zm37.02-41.19l-5.88 6.51q-10.31-3.67-17.41-.14-8.58 5.8 7.6 15.71 17.16 9.35 27.46 4.53 7.35-4.53-2.94-11.89l12.5-3q14.7 12.17.49 20.67-19.86 10-47.56-4.82-25.26-15.71-8.09-27.32 13.97-7.18 33.83-.25zm34.57-26.79l-13 7.5 43.88 25.34-9.56 5.52-43.89-25.34-13 7.5-10-5.8 35.55-20.53zm-330.8 144.33q9.26 5.34 7.65 10.31t-9.56 9.57l-16 9.21-54.53-31.49 16.59-9.57a31.15 31.15 0 0116.1-4.51 27.94 27.94 0 0113.87 3.41c3.83 2.2 5.74 4.36 5.74 6.44a7.89 7.89 0 01-1.91 5.34 32.82 32.82 0 0110.84-1.66 22 22 0 0111.21 2.95zm-33.17-8.84a14.79 14.79 0 00-8.44-2.12 17.91 17.91 0 00-7.82 2.3l-9.56 5.53 16.92 9.8 9.25-5.34c2.33-1.35 3.66-2.91 4-4.7s-1.16-3.63-4.35-5.47zm25.52 13.26a16.23 16.23 0 00-10.52-2.21 25.77 25.77 0 00-9.57 3.13l-8.29 4.78 19.45 11.23 7.33-4.23q5.75-3.32 6.54-6.35t-4.94-6.35zm47.83-27.25q7.65 4.41 8.13 9.3t-8.13 9.84a31.68 31.68 0 01-17.06 4.7 34 34 0 01-16.1-4.69l-38.59-22.28 7.33-4.24 38.59 22.28a21 21 0 0010.52 3.13 18.19 18.19 0 009.25-2.39c2.76-1.6 4.15-3.37 4.15-5.34s-1.81-4-5.43-6.08l-38.58-22.27 7.33-4.24zm41.75-23.38c4.9 2.82 7.23 6 7 9.38s-3 6.7-8.29 9.76a33.29 33.29 0 01-16.9 4.61 30.69 30.69 0 01-15.63-3.87l-2.23-1.29 7.34-4.23 1.91 1.1a18.8 18.8 0 0010.2 2.58 19.45 19.45 0 009.25-2.4q5.1-2.94 4.79-5.89t-4.15-5.15c-2.12-1.23-5-1.81-8.77-1.75a62.53 62.53 0 00-13.23 1.93q-10.53 2.76-17.38 2.67a23.58 23.58 0 01-11.64-2.85q-6.7-3.87-6.22-8.93t6.95-8.79a28.38 28.38 0 0116.89-4 34.54 34.54 0 0114.35 4l-7.33 4.24a16.5 16.5 0 00-8.29-2.58 15.88 15.88 0 00-9.25 2q-3.83 2.22-4 4.7t3.35 4.51a14.59 14.59 0 006.69 1.84q3.82.2 14-2.39a72.77 72.77 0 0117.7-2.3q7.82.15 12.89 3.1zm42.76-7l-7.34 4.23-54.53-31.48 7.34-4.23zm53.57-30.93l-8 4.6-57.08-12.7-.31.18 39.54 22.83-7.34 4.24-54.53-31.49 8-4.6 57.08 12.71.32-.19-39.55-22.83 7.34-4.23zm41.45-23.93l-32.52 18.74-54.53-31.48 30.93-17.86 6.06 3.5-23.6 13.63 16.9 9.75 21.68-12.52 6.06 3.5-21.68 12.52 19.45 11.23 25.19-14.54zm25.52-32.41q7.34 4.25 7 9.39t-8.3 9.76a33.28 33.28 0 01-16.9 4.6 30.81 30.81 0 01-15.63-3.86l-2.23-1.29 7.34-4.24 1.91 1.11a18.7 18.7 0 0010.2 2.57 19.56 19.56 0 009.25-2.39c3.4-2 5-3.93 4.79-5.89s-1.6-3.68-4.15-5.15c-2.12-1.23-5-1.81-8.77-1.76a62.62 62.62 0 00-13.23 1.94q-10.53 2.76-17.38 2.67a23.56 23.56 0 01-11.64-2.86q-6.7-3.85-6.22-8.93t6.86-8.74a28.38 28.38 0 0116.89-4 34.29 34.29 0 0114.35 4l-7.33 4.23a16.4 16.4 0 00-8.29-2.57 15.81 15.81 0 00-9.25 2q-3.83 2.2-4 4.7t3.35 4.51a14.59 14.59 0 006.69 1.84q3.82.18 14-2.4a72.77 72.77 0 0117.7-2.3q7.88.13 12.99 3.06zm40.81-23.56c4.9 2.82 7.23 6 7 9.39s-3 6.69-8.29 9.75a33.29 33.29 0 01-16.9 4.61 30.66 30.66 0 01-15.63-3.87l-2.23-1.29 7.33-4.23 1.92 1.1a18.77 18.77 0 0010.2 2.58 19.45 19.45 0 009.25-2.4c3.4-2 5-3.92 4.78-5.89s-1.59-3.68-4.14-5.15q-3.2-1.85-8.77-1.75a62.61 62.61 0 00-13.24 1.93q-10.52 2.76-17.38 2.67a23.58 23.58 0 01-11.64-2.85q-6.69-3.87-6.21-8.93t6.85-8.75a28.41 28.41 0 0116.9-4 34.59 34.59 0 0114.35 4l-7.33 4.24a16.53 16.53 0 00-8.29-2.58 15.79 15.79 0 00-9.25 2c-2.55 1.47-3.88 3-4 4.69s1 3.16 3.35 4.51a14.51 14.51 0 006.7 1.84q3.83.19 14-2.39a72.77 72.77 0 0117.7-2.3q7.86.12 12.97 3.07z" fill="#18b3a0"/><path fill="#c5d2c6" d="M2379.48 2028.29l-140.32 81.01-8.6-4.96 140.32-81.02 8.6 4.97zm9.37 5.41l-140.32 81.01-4.3-2.48 140.32-81.01 4.3 2.48zm7.94 4.58l-140.32 81.02-4.3-2.49 140.32-81.01 4.3 2.48zm-199.33-116.68l-329.1 190.01-8.6-4.96 329.1-190.01 8.6 4.96zm12.6 7.28l-329.1 190.01-4.3-2.49 329.1-190 4.3 2.48zm14.76 8.52l-329.1 190.01-4.3-2.49 329.1-190 4.3 2.48zm14.75 8.52l-329.1 190-4.3-2.48 329.1-190.01 4.3 2.49zm14.76 8.51l-329.11 190.01-4.29-2.48 329.1-190.01 4.3 2.48zm31.64 18.28l-329.1 190-8.59-4.96 329.1-190.01 8.59 4.97zm12.61 7.27l-329.1 190.01-4.3-2.48 329.1-190.01 4.3 2.48zm14.75 8.52l-329.1 190.01-4.3-2.48 329.11-190.01 4.29 2.48zm14.76 8.52l-329.1 190.01-4.3-2.48 329.1-190.01 4.3 2.48zm14.75 8.52l-329.1 190.01-4.3-2.48 329.11-190.01 4.29 2.48z"/><path d="M2086 2220.8c-13-7.49-13-19.64 0-27.13s34-7.49 47 0 13 19.64 0 27.13-34.07 7.49-47 0z" fill="#18b3a0"/><path d="M2138.54 2190.44l-1.06.61c-15.45-8.92-40.6-8.92-56.06 0s-15.46 23.45 0 32.37l-1.05.61c-16-9.26-16-24.33 0-33.59s42.13-9.25 58.17 0z" fill="#18b3a0"/><path d="M2138.54 2190.44l-1.06.61c-15.45-8.92-40.6-8.92-56.06 0s-15.46 23.45 0 32.37l-1.05.61c-16-9.26-16-24.33 0-33.59s42.13-9.25 58.17 0z" fill="#18b3a0"/><path d="M2152 2231.82c-23.48 13.56-61.68 13.56-85.16 0s-23.48-35.61 0-49.17 61.68-13.55 85.16 0 23.51 35.62 0 49.17zm-83.48-48.2c-22.55 13-22.55 34.21 0 47.23s59.25 13 81.8 0 22.55-34.21 0-47.23-59.22-13.02-81.77 0z" fill="#18b3a0"/><path d="M2144.59 2227.53c-19.37 11.18-50.9 11.18-70.28 0l1.69-1c18.44 10.65 48.46 10.65 66.91 0s18.44-28 0-38.63l1.68-1c19.41 11.24 19.41 29.44 0 40.63z" fill="#18b3a0"/><path d="M2385.4 2039.83c1.26 1.15-.74 2.47-1.88 3.39a251.57 251.57 0 01-4.35 3.4q-4.58 3.51-9.38 6.91c-1.4 1-2.82 2-4.26 3-2.92-3.76-9.39-6-16.29-7.32-1-.19-2.24.28-2.21.91v.22l-2.82-1c-1.16-.41-3.06.23-2.58 1.07l.11.19-.88-.21c-1.19-.26-2.5.48-2.17 1.17a63.12 63.12 0 013.29 8.26l-6.58-3.31a1.27 1.27 0 00-.7-.5 7.08 7.08 0 00-3.51-.38c-.69.06-1.39.51-1.34.93a3 3 0 001 2 6.61 6.61 0 00-.38 1c-.17.61 0 1.07-.77 1.48a9.53 9.53 0 01-3.17.53h-.57a32.6 32.6 0 00-13.57-.88c-1.67.28-1.75 1.58-.11 1.92a51 51 0 0012.76 1 15.55 15.55 0 012 .93c1.26.71 4 2.74 2.15 3.77-1.74.95-4-.46-4.67-1.3a3.87 3.87 0 01-.71-1.55c0-.25-.1-.51-.17-.76-.32-1.28-3.59-.81-3.35.44 1.35 5.36-1.74 10.32-6.15 14.93-9 0-17.9 1.39-26.91 1.87-2.67.15-5.36.2-8 .09-1.58-.06-4.24-.17-3.95-1.39.17-.69 1.44-1.43 2.22-1.9 3.84-2.29 8.77-4.65 14.61-4.47 2.21.07 2.33-1.92.12-2-6.79-.2-12.57 2.33-17.08 5-3.73 2.22-5.22 5.83 1.59 6.58s14-.12 20.64-.75c4.92-.48 9.85-1 14.8-1.05-1.77 1.68-3.66 3.32-5.5 4.92-1 .84.8 1.81 2.26 1.4 5.14-1.46 9.27-3.71 12.09-6.6.68-.69-.12-1.41-1.41-1.51l-1.69-.11c3-3.31 5.27-6.78 5.92-10.45a9.18 9.18 0 003.38.8c4 .26 6.54-1.73 5.82-3.9a6.63 6.63 0 00-3.18-3.42 6.31 6.31 0 003.35-1.15c.53-.53.42-1.12.53-1.7 0-.13.07-.25.1-.37l.29.07a2.44 2.44 0 002-.48l7 3.53c1.28.65 3.2.12 2.93-.89a61.71 61.71 0 00-3.1-8.82l.28.12c1.3.61 2.71-.33 2.58-1.06v-.15l1.62.58c.91.32 2.29.07 2.55-.56a4.4 4.4 0 00.25-.75c5.83 1.32 10.77 3.45 12.66 6.75q-6.28 4.23-12.88 8.32-10 6.2-20.53 12.08c-3.5 2-7.05 3.91-10.62 5.84-3.39 1.82-6.79 3.62-9 6-.81.88.68 1.82 2.26 1.4a212.6 212.6 0 0026.63-8.88c7.8-3.22 15.77-6.78 21.65-11.2 4.87-3.64 7.83-8.24 6.37-12.87a2 2 0 00-.08-.22q5.2-3.54 10.18-7.18c3.26-2.39 6.45-4.8 9.51-7.27 1.91-1.54 4-3.49 2-5.35-1.12-1.13-4.18-.22-3 .86zm-68.76 42.17a20.58 20.58 0 01-1.95 1.39c.49-.47 1-.93 1.44-1.4zm47.14-21c.21 4.78-4.46 8.93-10.05 12.23-10.49 6.19-23.41 11.19-36.86 15.12 2-1.26 4.3-2.39 6.46-3.56q6-3.24 11.79-6.55 11.25-6.39 21.88-13.14 3.42-2.18 6.75-4.4z" fill="#231815"/><path fill="#003452" opacity=".62" d="M1921.27 2144.11l49.67 5.85 355.14-23.38 6.58-8.68-5.14-10.95-11.72-2.27-355.14 23.39-40.11 13.71-5.9 1.64 6.62.69z"/><path fill="#eaa86c" d="M1955.69 2119.93l11.72 2.26 5.14 10.95-6.58 8.68-11.79-2.41-5.07-10.8 6.58-8.68z"/><path fill="#2894b8" d="M1916.3 2133.77l.64 1.37-.63.83-.72-.14-.64-1.36.64-.83.71.13z"/><path fill="#246a83" d="M2310.83 2096.55l-355.14 23.38 11.72 2.26 355.14-23.38-11.72-2.26z"/><path fill="#40bfe2" d="M1967.41 2122.19l355.14-23.38 5.14 10.95-355.14 23.38-5.14-10.95z"/><path fill="#267a91" d="M2327.69 2109.76l-355.14 23.38-6.58 8.68 355.14-23.38 6.58-8.68z"/><path fill="#c66040" d="M1915.59 2133.64l40.1-13.71 11.72 2.26-51.11 11.58-.71-.13z"/><path fill="#e0a370" d="M1972.55 2133.14l-5.14-10.95-51.11 11.58.64 1.37 55.61-2z"/><path fill="#e58842" d="M1965.97 2141.82l-49.66-5.85.63-.83 55.61-2-6.58 8.68z"/><path fill="#231815" d="M1916.94 2135.14l-.64-1.37-6.62 1.51 7.26-.14z"/><path fill="#231815" d="M1916.31 2135.97l-6.63-.69 7.26-.14-.63.83zm-.72-2.33l-5.91 1.64 6.62-1.51-.71-.13z"/><path d="M2243.28 1824.69s-62 25.88-86.16 35.34-48.9 24.08-48.9 24.08 10.21 42 50.06 27.11 38.55-10.34 38.55-10.34-16.31 4.13-23.89 6.38c0 0 5.68 15.15 16.62 13.16s23.29-.2 33.92-19.45 40.1-41.43 44.15-48.73z" fill="#ffb288"/><path d="M2620 1211.45s-79.18-29.91-109.09 109.09-12.32 315-12.32 315l-287.68 185.63 65.63 39.56s289.79-128.41 325.86-173.28 43.96-442.57 17.6-476z" fill="#d32d2d"/><path d="M2079.33 1926.66l-.09-32-97.1-56.43-4.28 2.47a58.49 58.49 0 10-79.71 28 28.31 28.31 0 004.09 8.21v7.46l-112.52 65 .09 31.63-.14.08.09 7.72 97.1 56.42 192.43-111.09-.09-7.38z" fill="#003452" opacity=".37"/><g style="isolation:isolate"><path fill="#e85831" d="M2079.22 1901.67l.09 7.72-192.42 111.09-.09-7.71 192.42-111.1z"/><path fill="#d64118" d="M1886.8 2012.77l.09 7.71-97.1-56.42-.09-7.72 97.1 56.43z"/><path fill="#e85831" d="M1982.12 1845.24l97.1 56.43-192.42 111.1-97.1-56.43 192.42-111.1z"/></g><g style="isolation:isolate"><path fill="url(#c)" d="M2079.26 1869.97l.1 31.96-192.43 111.1-.09-31.97 192.42-111.09z"/><path fill="url(#d)" d="M1886.84 1981.06l.09 31.97-97.1-56.43-.09-31.97 97.1 56.43z"/><path fill="#7af5e9" d="M1982.16 1813.54l97.1 56.43-192.42 111.09-97.1-56.43 192.42-111.09z"/></g><path d="M1947 1880.17a22.36 22.36 0 01-22.35 22.36 22.36 22.36 0 01-22.36-22.36v-40.64a22.35 22.35 0 0122.36-22.35 22.35 22.35 0 0122.35 22.35z" fill="#7b6056"/><path d="M1983.1 1791.88a58.48 58.48 0 10-84.92 52.12 27.59 27.59 0 0052.87 0 58.43 58.43 0 0032.05-52.12z" fill="#e85831"/><path d="M1894.78 1757.74a7.48 7.48 0 117.48 7.48 7.47 7.47 0 01-7.48-7.48z" fill="#f47658"/><path fill="#81b8ea" d="M304.26 833.44l69.36-40.31-.34 122.01-69.36 40.31.34-122.01z"/><path d="M451.83 608.61c0-.73-.05-1.48-.1-2.22 0-.36-.06-.71-.09-1.07v-.43c0-.25 0-.49-.06-.75-.07-.75-.15-1.5-.25-2.26s-.21-1.54-.33-2.32a.52.52 0 010-.11v-.16q-.17-1-.36-2.07c-.15-.8-.31-1.61-.49-2.42-.06-.31-.14-.63-.22-.94s-.07-.34-.11-.5c-.08-.33-.15-.66-.23-1-.21-.82-.42-1.64-.65-2.47-.18-.64-.37-1.28-.56-1.92l-.09-.28a2.5 2.5 0 00-.07-.26c-.25-.81-.51-1.61-.77-2.41s-.55-1.59-.83-2.38c-.06-.17-.13-.33-.19-.49l-.15-.4c-.17-.47-.34-.93-.52-1.4-.3-.76-.6-1.52-.92-2.27-.23-.57-.48-1.13-.72-1.7a2 2 0 01-.11-.26c-.05-.09-.08-.18-.12-.27-.34-.76-.68-1.5-1-2.25s-.78-1.65-1.19-2.47l-.21-.4c-.08-.17-.17-.34-.26-.5-.32-.63-.64-1.27-1-1.89-.43-.81-.89-1.61-1.34-2.4l-.71-1.27-.27-.47c-.39-.68-.83-1.32-1.24-2-.64-1-1.26-2.07-1.93-3.08l-.32-.51c-.88-1.32-1.8-2.62-2.74-3.9l-.19-.27v-.05c-.68-.92-1.37-1.82-2.07-2.72-.54-.69-1.09-1.36-1.64-2l-.1-.11-.07-.09q-.89-1.07-1.8-2.1c-.6-.68-1.2-1.35-1.81-2l-.25-.26-.29-.3c-.45-.48-.9-1-1.36-1.44-.65-.65-1.3-1.3-2-1.94l-.56-.51-.46-.43c-.34-.31-.68-.64-1-1-.68-.62-1.36-1.21-2.06-1.8l-.85-.7-.47-.39-.74-.59c-.67-.53-1.34-1-2-1.55l-1.43-1-.3-.21-.28-.19c-.65-.45-1.3-.88-1.95-1.3s-1.3-.81-1.95-1.19l-.45-.26-289.05-166.79-1.46-.82c-.63-.34-1.26-.67-1.89-1-.42-.21-.84-.4-1.26-.6l-.27-.13-.34-.15a42.06 42.06 0 00-3.71-1.49l-.36-.12-.3-.09c-.4-.14-.8-.28-1.19-.4-.65-.19-1.28-.36-1.92-.52l-1-.22-.38-.08c-.18 0-.36-.09-.54-.12-.69-.14-1.37-.25-2-.34-.44-.06-.87-.09-1.3-.14h-.77c-.74-.06-1.47-.08-2.19-.08-.34 0-.66 0-1 .05h-1.43a23.71 23.71 0 00-2.7.39h-.07c-.24.05-.47.14-.71.2a25.34 25.34 0 00-2.49.68l-.21.1a22.79 22.79 0 00-3.58 1.65l-69.37 40.36a22.84 22.84 0 013.58-1.65 26.59 26.59 0 012.68-.77c.25-.06.49-.15.74-.2a25.9 25.9 0 013.47-.45h.72a28.2 28.2 0 013.55.06h.4a34.1 34.1 0 013.88.59l.38.09a39.19 39.19 0 014.09 1.13l.3.1a46.51 46.51 0 014.41 1.76l.27.13c1.52.7 3.05 1.49 4.61 2.39l288.92 166.8q2.34 1.36 4.62 3l.32.21q2.11 1.5 4.18 3.16l.47.39q2 1.65 3.94 3.45l.47.43a88.53 88.53 0 013.87 3.88l.29.3c1.34 1.44 2.65 2.92 3.93 4.46l.11.14c1.28 1.54 2.52 3.14 3.73 4.77.08.1.15.22.23.32 1 1.43 2 2.88 3 4.36.68 1 1.31 2 2 3.1.5.81 1 1.61 1.5 2.43l.72 1.28c.79 1.41 1.57 2.83 2.3 4.26l.28.53c.89 1.78 1.74 3.58 2.53 5.39 0 .08.08.18.12.27.77 1.77 1.5 3.57 2.17 5.36 0 .13.09.26.14.38q1 2.77 1.87 5.55c0 .1.05.2.08.29q.81 2.69 1.44 5.37l.12.51c.41 1.82.78 3.64 1.07 5.44a.51.51 0 000 .13q.44 2.75.66 5.45v.45c.14 1.8.22 3.59.21 5.35L382 824.75c0 1.76-.09 3.45-.24 5.09v.43q-.23 2.25-.63 4.32l-.12.56a36.7 36.7 0 01-1 3.85c-.07.23-.15.46-.23.69a34.72 34.72 0 01-1.34 3.42 2.29 2.29 0 01-.1.23 29.8 29.8 0 01-1.85 3.35 25 25 0 01-3.24 4c-.28.29-.57.56-.86.84a23.3 23.3 0 01-4 3l69.35-40.31a22.49 22.49 0 004-3c.29-.27.58-.55.86-.84a25 25 0 003.24-4l.06-.08a29.45 29.45 0 001.76-3.19v-.07c0-.08.07-.18.11-.26.34-.75.67-1.51 1-2.31.13-.35.24-.72.36-1.08s.16-.47.23-.71.15-.43.22-.65c.23-.77.43-1.56.62-2.37.06-.26.11-.54.16-.81l.12-.56c.05-.3.12-.59.17-.89.13-.72.24-1.46.33-2.21.05-.4.09-.81.13-1.22 0-.15 0-.3.05-.45s0-.36.05-.55c.06-.71.11-1.43.14-2.17s0-1.47.05-2.22v-.14l.49-173.75c-.03-.69-.03-1.38-.06-2.08z" fill="#81b8ea"/><path d="M336.11 570.63c25.6 14.79 46.48 50.94 46.39 80.36l-.5 173.76c-.08 29.42-21.09 41.39-46.7 26.61l-31.05-17.92-.34 122-105.78-183.28-151.73-87.6C20.79 669.77-.08 633.62 0 604.2l.49-173.76c.09-29.42 21.1-41.39 46.7-26.61z" fill="#fff"/><path d="M77.75 556.84c0-17 12-23.92 26.69-15.41s26.7 29.21 26.7 46.24-12 23.92-26.7 15.41-26.69-29.21-26.69-46.24zm72.78 42.54c0-17 11.95-23.92 26.69-15.41s26.7 29.21 26.7 46.24-11.95 23.92-26.7 15.41-26.69-29.21-26.69-46.24zm72.78 42.55c0-17 11.95-23.93 26.7-15.42s26.69 29.22 26.69 46.24-11.95 23.92-26.7 15.41-26.69-29.16-26.69-46.23z" fill="#3791d3"/><path fill="#0e2649" opacity=".68" d="M965.93 2375.3l-16.78 101.32 186.9 106.32 3.64-106.32-173.76-101.32z"/><path d="M1727 434.26c7.39 9.52-3.29 30.19-23.86 46.17s-43.24 21.21-50.63 11.69 3.3-30.19 23.87-46.17 43.27-21.21 50.62-11.69z" fill="url(#e)"/></svg>