<svg xmlns="http://www.w3.org/2000/svg"><symbol id="icon_airplane" viewBox="0 0 7.64 7.64"><path d="M7.61 6.84a.24.24 0 0 1 0 .12.38.38 0 0 1-.12.28l-.28.27a.34.34 0 0 1-.21.12.41.41 0 0 1-.28-.15l-2.23-2.8c-.26.23-.51.43-.73.6s-.45.32-.65.45l.16 1.34a.35.35 0 0 1-.1.26l-.17.2a.39.39 0 0 1-.28.11.37.37 0 0 1-.28-.15l-1-1.3L.15 5.2A.43.43 0 0 1 0 4.91a.4.4 0 0 1 .11-.27l.14-.14a.31.31 0 0 1 .27-.11l1.34.16c.13-.2.27-.42.45-.65s.37-.47.6-.72L.17 1A.35.35 0 0 1 0 .69a.45.45 0 0 1 .13-.3L.4.12A.45.45 0 0 1 .67 0H.8l3.85 1.4.72-.68a2.41 2.41 0 0 1 .77-.53 2 2 0 0 1 .8-.19.68.68 0 0 1 .52.18.42.42 0 0 1 .14.22 1.36 1.36 0 0 1 0 .3 2.15 2.15 0 0 1-.19.8 2.22 2.22 0 0 1-.53.76L6.2 3z"/></symbol><symbol id="icon_arrow" viewBox="0 0 13.29 15.99"><path d="M6 15.79l.07.05h1.05l.08-.06h.06l.08-.06 5.47-5.48a1.17 1.17 0 0 0-1.65-1.65L7.81 12V1.17A1.16 1.16 0 0 0 7.3.2a1.14 1.14 0 0 0-.66-.2 1.16 1.16 0 0 0-.82.34 1.18 1.18 0 0 0-.34.83V12L2 8.52a1.17 1.17 0 0 0-1.66 0 1.21 1.21 0 0 0-.34.83 1.14 1.14 0 0 0 .34.82l5.48 5.48.07.06z"/></symbol><symbol id="icon_arrow2" viewBox="0 0 10.16 17.31"><path d="M1.5 1.5l7.16 7.16m0 1.5a1.49 1.49 0 0 1-1.06-.44L.44 2.56A1.5 1.5 0 0 1 2.56.44L9.72 7.6a1.51 1.51 0 0 1 0 2.12 1.53 1.53 0 0 1-1.06.44zm0-1.5L1.5 15.81"/><path d="M1.5 17.31a1.47 1.47 0 0 1-1.06-.44 1.49 1.49 0 0 1 0-2.12L7.6 7.6a1.49 1.49 0 0 1 2.12 0 1.51 1.51 0 0 1 0 2.12l-7.16 7.15a1.47 1.47 0 0 1-1.06.44z"/></symbol><symbol id="icon_bike" viewBox="0 0 29.1 18.1"><path d="M5.39 18.1a5.39 5.39 0 1 1 5.38-5.38 5.39 5.39 0 0 1-5.38 5.38zm0-9.77a4.39 4.39 0 1 0 4.38 4.39 4.4 4.4 0 0 0-4.38-4.39zm18.32 9.77a5.39 5.39 0 1 1 5.39-5.38 5.39 5.39 0 0 1-5.39 5.38zm0-9.77a4.39 4.39 0 1 0 4.39 4.39 4.4 4.4 0 0 0-4.39-4.39z"/><path d="M13.33 13.22H5.39a.51.51 0 0 1-.39-.78l4.7-7.09-1.8-4.27a.52.52 0 0 1 .27-.66.49.49 0 0 1 .65.27l1.76 4.2h10.08a.51.51 0 0 1 .46.3.53.53 0 0 1-.11.55l-7.33 7.33a.5.5 0 0 1-.35.15zm-7-1h6.25l-2.42-5.76zM11 5.89l2.5 6 5.95-5.95z"/><path d="M23.71 13.22a.45.45 0 0 1-.16 0l-1.16-.39a.49.49 0 0 1-.32-.35L19.21 1.85a.48.48 0 0 1 .1-.46.53.53 0 0 1 .44-.17l3.85.45a1.74 1.74 0 0 1 1.47 2 1.72 1.72 0 0 1-1.95 1.46.49.49 0 0 1-.42-.56.52.52 0 0 1 .56-.43.71.71 0 0 0 .82-.61.73.73 0 0 0-.61-.82l-3.11-.41L23 11.94l.9.3a.5.5 0 0 1-.16 1zm-12.83-11h-.15L7.06 1a.5.5 0 0 1-.32-.66.5.5 0 0 1 .64-.34L11 1.25a.5.5 0 0 1-.16 1z"/></symbol><symbol id="icon_breafcase" viewBox="0 0 10.5 9"><path d="M10.5 2.44v2.25H0V2.44a.87.87 0 0 1 .28-.66.87.87 0 0 1 .66-.28H3V.56A.55.55 0 0 1 3.56 0h3.38a.55.55 0 0 1 .56.56v.94h2.06a.87.87 0 0 1 .66.28.87.87 0 0 1 .28.66zm0 2.81v2.81a1 1 0 0 1-.94.94H.94a.87.87 0 0 1-.66-.28.87.87 0 0 1-.28-.66V5.25h3.94v.94a.38.38 0 0 0 .37.37h1.88a.38.38 0 0 0 .37-.37v-.94zM3.75 1.5h3V.75h-3zM6 5.25V6H4.5v-.75z"/></symbol><symbol id="icon_burger" viewBox="0 0 20.34 15.5"><rect y="13.67" width="15.58" height="1.83" rx=".19" ry=".19"/><rect y="6.83" width="11.18" height="1.83" rx=".19" ry=".19"/><rect width="20.34" height="1.83" rx=".19" ry=".19"/></symbol><symbol id="icon_bus" viewBox="0 0 10.54 5.56"><path d="M9.73 0H1.91A1.9 1.9 0 0 0 0 1.91v3.24h1.79a1.17 1.17 0 0 1-.05-.27.92.92 0 1 1 1.83 0 .81.81 0 0 1 0 .27h4.07a.82.82 0 0 1-.06-.27.92.92 0 0 1 1.84 0 .82.82 0 0 1-.06.27h1.18V.81A.81.81 0 0 0 9.73 0zM2.48 3.32H1v-1h1.48zm0-1.48H1v-1h1.48zM4.4 3.32H2.92v-1H4.4zm0-1.48H2.92v-1H4.4zm1.92 1.48H4.84v-1h1.48zm0-1.48H4.84v-1h1.48zm1.92 1.48H6.76v-1h1.48zm0-1.48H6.76v-1h1.48zm1.91 1.48H8.68v-1h1.47zm0-1.48H8.68v-1h1.47z"/><circle cx="2.66" cy="4.93" r=".63"/><circle cx="8.52" cy="4.93" r=".63"/></symbol><symbol id="icon_calendar" viewBox="0 0 18.42 16.21"><path d="M16.82 1.6v13H1.6v-13h15.22m1.6-1.6H0v16.21h18.42V0z"/><path d="M0 3.64h18.42v1.6H0zm4 4.75h-.79a.8.8 0 0 1 0-1.6H4a.8.8 0 0 1 0 1.6zm3.78 0H7a.8.8 0 0 1 0-1.6h.79a.8.8 0 0 1 0 1.6zm3.78 0h-.8a.8.8 0 0 1 0-1.6h.8a.8.8 0 0 1 0 1.6zm3.77 0h-.79a.8.8 0 0 1 0-1.6h.79a.8.8 0 0 1 0 1.6zM4 11.41h-.79a.8.8 0 0 1 0-1.6H4a.8.8 0 0 1 0 1.6zm3.78 0H7a.8.8 0 1 1 0-1.6h.79a.8.8 0 1 1 0 1.6zm3.78 0h-.8a.8.8 0 0 1 0-1.6h.8a.8.8 0 0 1 0 1.6zm3.77 0h-.79a.8.8 0 0 1 0-1.6h.79a.8.8 0 1 1 0 1.6z"/></symbol><symbol id="icon_calendar2" viewBox="0 0 7.5 7.5"><path d="M6.94.9a.53.53 0 0 1 .39.16.5.5 0 0 1 .17.39v5.49a.58.58 0 0 1-.56.56H.56a.5.5 0 0 1-.39-.17.54.54 0 0 1-.17-.39V1.45a.54.54 0 0 1 .17-.39A.53.53 0 0 1 .56.9h.19V.83a.92.92 0 0 1 0-.29A.72.72 0 0 1 1 .27a.84.84 0 0 1 .28-.2A1.4 1.4 0 0 1 1.67 0a1.38 1.38 0 0 1 .43.07.84.84 0 0 1 .28.2.67.67 0 0 1 .16.27 1 1 0 0 1 0 .29V.9h.23V.83a.93.93 0 0 1 .1-.29A.61.61 0 0 1 3 .27a.75.75 0 0 1 .28-.2A1.33 1.33 0 0 1 3.74 0a1.29 1.29 0 0 1 .43.07.79.79 0 0 1 .29.2.69.69 0 0 1 .17.27 1 1 0 0 1 0 .29V.9h.23V.83A.93.93 0 0 1 5 .54a.72.72 0 0 1 .12-.27.84.84 0 0 1 .28-.2A1.35 1.35 0 0 1 5.84 0a1.38 1.38 0 0 1 .43.07.84.84 0 0 1 .28.2.81.81 0 0 1 .16.27 1 1 0 0 1 0 .29V.9zM2.11 2.77H.76V4h1.35zm0 1.39H.76v1.21h1.35zm0 1.39H.76v1.2h1.35zM1.3 1.93c0 .18.12.27.37.27S2 2.11 2 1.93V.83q0-.27-.33-.27c-.25 0-.37.09-.37.27zm2.36.84H2.29V4h1.37zm0 1.39H2.29v1.21h1.37zm0 1.39H2.29v1.2h1.37zm-.27-3.62a.25.25 0 0 0 .08.2.38.38 0 0 0 .27.07.41.41 0 0 0 .26-.07.23.23 0 0 0 .09-.2V.83A.23.23 0 0 0 4 .63a.41.41 0 0 0-.26-.07.38.38 0 0 0-.27.07.26.26 0 0 0-.08.2v1.1zm1.81.84H3.84V4H5.2zm0 1.39H3.84v1.21H5.2zm0 1.39H3.84v1.2H5.2zm1.55-2.78H5.39V4h1.36zm0 1.39H5.39v1.21h1.36zm0 1.39H5.39v1.2h1.36zM5.47 1.93c0 .18.12.27.37.27s.36-.09.35-.27V.83c0-.18-.12-.27-.35-.27s-.37.09-.37.27z"/></symbol><symbol id="icon_car" viewBox="0 0 6.62 4.36"><path d="M5 .5l.28.69h-3.9L1.65.5H5m.06-.5h-3.5a.38.38 0 0 0-.35.24L.64 1.69H6L5.41.24A.38.38 0 0 0 5.06 0z"/><rect x=".41" y="2.89" width=".93" height="1.47" rx=".2" ry=".2"/><rect x="5.28" y="2.89" width=".93" height="1.47" rx=".2" ry=".2"/><rect y="1.15" width=".61" height=".38" rx=".17" ry=".17"/><rect x="6.01" y="1.15" width=".61" height=".38" rx=".17" ry=".17"/><path d="M5.26 1.3h-3.9A1.09 1.09 0 0 0 .27 2.39v.31a1.09 1.09 0 0 0 1.09 1.09h3.9A1.09 1.09 0 0 0 6.35 2.7v-.31A1.09 1.09 0 0 0 5.26 1.3zm-3.9 1.3H.71a.27.27 0 0 1 0-.53h.65a.27.27 0 0 1 0 .53zm3.16-.07a.26.26 0 0 1-.26.26H2.37a.27.27 0 0 1-.27-.26v-.19a.27.27 0 0 1 .27-.27h1.89a.27.27 0 0 1 .26.27zm1.39.07h-.65a.27.27 0 0 1 0-.53h.65a.27.27 0 0 1 0 .53z"/></symbol><symbol id="icon_card" viewBox="0 0 11.25 9"><path d="M10.31 0a.87.87 0 0 1 .69.28.87.87 0 0 1 .28.66v7.12a1 1 0 0 1-.94.94H.94a.87.87 0 0 1-.66-.28.87.87 0 0 1-.28-.66V.94A.87.87 0 0 1 .28.28.87.87 0 0 1 .94 0zM.94.75A.19.19 0 0 0 .81.8a.2.2 0 0 0-.06.14v1.31h9.75V.94a.2.2 0 0 0-.06-.14.19.19 0 0 0-.13-.05zm9.37 7.5a.21.21 0 0 0 .19-.19V4.5H.75v3.56a.16.16 0 0 0 .06.13.16.16 0 0 0 .13.06zM1.5 7.5v-.75H3v.75zm2.25 0v-.75H6v.75z"/></symbol><symbol id="icon_chat-arrow" viewBox="0 0 14.54 14"><path d="M0 0l.98 5.48L7.81 7 .98 8.52 0 14l14.54-7L0 0z"/></symbol><symbol id="icon_check" viewBox="0 0 15.12 13.88"><path d="M5.17 13.88L.31 8.4a1.2 1.2 0 0 1 .25-1.82 1.58 1.58 0 0 1 2.05.21l2.46 2.78 7.41-9a1.57 1.57 0 0 1 2-.29 1.21 1.21 0 0 1 .32 1.82L5.17 13.88z"/></symbol><symbol id="icon_check2" viewBox="0 0 10.83 10.95"><path d="M9.83 1L4.24 9.95m0 1.05a1 1 0 0 1-.53-.15 1 1 0 0 1-.32-1.38L9 .47a1 1 0 0 1 1.7 1.06l-5.59 9a1 1 0 0 1-.87.47zm0-1.05L1 5.24"/><path d="M4.24 11a1 1 0 0 1-.82-.43L.18 5.81a1 1 0 0 1 1.64-1.14l3.24 4.71a1 1 0 0 1-.25 1.4 1.08 1.08 0 0 1-.57.22z"/></symbol><symbol id="icon_childcare" viewBox="0 0 15 24"><path d="M9.5 19h-4a.52.52 0 0 1-.44-.25.54.54 0 0 1 0-.51l1.25-2.08C2.18 13.54 0 10.73 0 8c0-4.64 3.15-8 7.5-8S15 3.36 15 8c0 2.73-2.18 5.54-6.32 8.16l1.25 2.08a.54.54 0 0 1 0 .51.52.52 0 0 1-.43.25zm-3.12-1h2.24l-1-1.74A.47.47 0 0 1 7.5 16a.47.47 0 0 1-.07.25zM7.5 1C3.67 1 1 3.88 1 8c0 2.42 2.22 5.1 6.26 7.57a.52.52 0 0 1 .24.43.52.52 0 0 1 .24-.42C11.78 13.1 14 10.42 14 8c0-4.12-2.67-7-6.5-7z"/><path d="M11.5 24a.5.5 0 0 1-.5-.5v-2a.5.5 0 0 0-1 0 1.5 1.5 0 0 1-3 0v-3a.5.5 0 0 1 1 0v3a.5.5 0 0 0 1 0 1.5 1.5 0 0 1 3 0v2a.5.5 0 0 1-.5.5zm-9-16a.5.5 0 0 1-.5-.5A5.51 5.51 0 0 1 7.5 2a.5.5 0 0 1 0 1A4.51 4.51 0 0 0 3 7.5a.5.5 0 0 1-.5.5z"/></symbol><symbol id="icon_coffe" viewBox="0 0 24 24"><path d="M23.5 24H.5a.5.5 0 0 1-.5-.5v-3a.5.5 0 0 1 .5-.5H10v-9H3.5a.5.5 0 0 1-.5-.5V.5a.5.5 0 0 1 .5-.5H22a2 2 0 0 1 2 2v21.5a.5.5 0 0 1-.5.5zM1 23h22V2a1 1 0 0 0-1-1H4v9h6.5a.5.5 0 0 1 .5.5v10a.5.5 0 0 1-.5.5H1z"/><path d="M19 23.5h-1v-11a.5.5 0 0 1 .5-.5h5v1H19zM23.5 6h-6a.5.5 0 0 1 0-1h6a.5.5 0 0 1 0 1zm0 2h-6a.5.5 0 0 1 0-1h6a.5.5 0 0 1 0 1zm0 2h-6a.5.5 0 0 1 0-1h6a.5.5 0 0 1 0 1zm-15 7h-4a.5.5 0 0 1-.5-.5V14a.5.5 0 0 1 .5-.5h4a.5.5 0 0 1 .5.5v2.5a.5.5 0 0 1-.5.5zM5 16h3v-1.5H5z"/><path d="M4.5 16h-4a.5.5 0 0 1 0-1h4a.5.5 0 0 1 0 1zM7 10.5h1V14H7zm-2 0h1V14H5zM7 6a2 2 0 1 1 2-2 2 2 0 0 1-2 2zm0-3a1 1 0 1 0 1 1 1 1 0 0 0-1-1zm-.5 15a.5.5 0 0 1-.5-.5v-1a.5.5 0 0 1 1 0v1a.5.5 0 0 1-.5.5z"/></symbol><symbol id="icon_cross" viewBox="0 0 15.36 15.36"><path transform="rotate(135 7.684 7.682)" d="M-2.43 6.94H17.8v1.49H-2.43z"/><path transform="rotate(45 7.679 7.68)" d="M-2.43 6.94H17.8v1.49H-2.43z"/></symbol><symbol id="icon_document" viewBox="0 0 5.88 7.35"><path d="M3.31 0a.88.88 0 0 1 .34.08.9.9 0 0 1 .29.18l1.68 1.68a1 1 0 0 1 .19.29.86.86 0 0 1 .07.34V7a.38.38 0 0 1-.1.27.37.37 0 0 1-.26.1H.37a.35.35 0 0 1-.26-.1A.39.39 0 0 1 0 7V.36A.34.34 0 0 1 .11.11.36.36 0 0 1 .37 0zm1.84 3.3H3a.33.33 0 0 1-.25-.1.39.39 0 0 1-.11-.27V.74H.74v5.88h4.41zM1.28 4H4.6v.5H1.28zm0 1.29H4.6v.55H1.28zm3.87-2.72v-.12L3.42.79h-.06v1.78z"/></symbol><symbol id="icon_download" viewBox="0 0 7.4 7.28"><path d="M3.92 7.19a.31.31 0 0 1-.44 0L.06 3.77a.19.19 0 0 1 0-.28l.25-.25a.19.19 0 0 1 .28 0l2.89 2.89a.31.31 0 0 0 .44 0l2.89-2.9a.19.19 0 0 1 .28 0l.25.25a.19.19 0 0 1 0 .28z"/><rect x="3.32" width=".75" height="6.55" rx=".2" ry=".2"/></symbol><symbol id="icon_fb-symbol" viewBox="0 0 4.5 9.66"><path d="M3 3.16h1.5l-.18 1.67H3v4.83H1V4.83H0V3.16h1v-1A2.27 2.27 0 0 1 1.5.55 2.16 2.16 0 0 1 3.16 0h1.33v1.66h-.83a1.66 1.66 0 0 0-.37 0 .33.33 0 0 0-.2.14A.56.56 0 0 0 3 2a2.07 2.07 0 0 0 0 .29z"/></symbol><symbol id="icon_full-heart" viewBox="0 0 17.29 16.21"><path d="M12 0a5.33 5.33 0 0 0-3.3 1.14 5.36 5.36 0 0 0-7.09.42 5.37 5.37 0 0 0 0 7.57l7.09 7.08 7.08-7.08A5.35 5.35 0 0 0 12 0z"/></symbol><symbol id="icon_google" viewBox="0 0 364.45 371.86"><path d="M125.15 10.18a188.36 188.36 0 0 1 125.3 1.1 180.76 180.76 0 0 1 59.9 37.1c-5.8 6.3-12.1 12.2-18.1 18.3l-34.2 34.2A101.31 101.31 0 0 0 218 77.28a109.81 109.81 0 0 0-54.6-2.2 111.15 111.15 0 0 0-55.6 30.9 115.41 115.41 0 0 0-27 43.9c-20.3-15.8-40.6-31.5-61-47.3 21.45-43 60.05-76.9 105.35-92.4z"/><path d="M3.65 149.18a185.51 185.51 0 0 1 16.2-46.8c20.3 15.8 40.6 31.5 61 47.3a112.2 112.2 0 0 0 0 72.4Q50.4 245.78 20 269.38a185.08 185.08 0 0 1-16.35-120.2zm182.35 1.9h175c5.8 32.7 4.5 66.8-4.7 98.8-8.5 29.3-24.6 56.5-47.1 77.2l-59.1-45.9a87.61 87.61 0 0 0 37.2-57.5H185.85q.15-36.3.15-72.6z"/><path d="M19.75 269.48q30.45-23.55 60.9-47.3a115.59 115.59 0 0 0 42.6 57.1 110.81 110.81 0 0 0 41.4 17.9c14.6 3 29.7 2.6 44.4.1a106.55 106.55 0 0 0 41-16.2l59.1 45.9c-21.3 19.7-48 33.1-76.2 39.6-31.2 7.1-64.2 7.3-95.2-1a183.79 183.79 0 0 1-67.6-34.1 187.26 187.26 0 0 1-50.4-62z"/></symbol><symbol id="icon_gym" viewBox="0 0 27.69 15.91"><path d="M8 15.91H3.73a.5.5 0 0 1-.5-.5V.5a.5.5 0 0 1 .5-.5H8a.5.5 0 0 1 .5.5v14.91a.5.5 0 0 1-.5.5zm-3.76-1h3.25V1H4.23z"/><path d="M3.73 13.9H.5a.5.5 0 0 1-.5-.5V2.51A.5.5 0 0 1 .5 2h3.23a.51.51 0 0 1 .5.5v10.9a.5.5 0 0 1-.5.5zM1 12.9h2.23V3H1zm26.19 1H24a.5.5 0 0 1-.5-.5V2.51A.5.5 0 0 1 24 2h3.22a.5.5 0 0 1 .5.5v10.9a.5.5 0 0 1-.53.5zm-2.72-1h2.22V3h-2.22z"/><path d="M24 15.91h-4.29a.5.5 0 0 1-.5-.5V.5a.5.5 0 0 1 .5-.5H24a.5.5 0 0 1 .5.5v14.91a.5.5 0 0 1-.5.5zm-3.76-1h3.26V1h-3.29z"/><path d="M19.71 10.23H8a.5.5 0 0 1-.5-.5V6.18a.5.5 0 0 1 .5-.5h11.71a.51.51 0 0 1 .5.5v3.55a.5.5 0 0 1-.5.5zm-11.22-1h10.72V6.68H8.49z"/></symbol><symbol id="icon_heart" viewBox="0 0 17.29 16.21"><path d="M12 1.6a3.72 3.72 0 0 1 2.6 1.09 3.77 3.77 0 0 1 0 5.31l-5.95 6-5.96-6a3.75 3.75 0 0 1 5-5.6l1 .77 1-.78A3.8 3.8 0 0 1 12 1.6M12 0a5.31 5.31 0 0 0-3.3 1.14 5.37 5.37 0 0 0-7.09.42 5.37 5.37 0 0 0 0 7.57l7.09 7.08 7.08-7.08A5.35 5.35 0 0 0 12 0z"/></symbol><symbol id="icon_info" viewBox="0 0 14.1 14.1"><path d="M7.05 14.1a7.05 7.05 0 1 1 7.05-7 7.05 7.05 0 0 1-7.05 7zm0-12.5a5.45 5.45 0 1 0 5.45 5.45A5.45 5.45 0 0 0 7.05 1.6z"/><path d="M7.05 11.08a.8.8 0 0 1-.8-.8V6.41a.8.8 0 1 1 1.6 0v3.87a.8.8 0 0 1-.8.8zm0-6a.8.8 0 0 1-.8-.8v-.59a.8.8 0 1 1 1.6 0v.59a.8.8 0 0 1-.8.8z"/></symbol><symbol id="icon_kitchen" viewBox="0 0 24 24"><path d="M22.5 21h-21a.5.5 0 0 1-.5-.5v-18a.5.5 0 0 1 .5-.5h21a.5.5 0 0 1 .5.5v18a.5.5 0 0 1-.5.5zM2 20h20V3H2z"/><path d="M23.5 24H.5a.5.5 0 0 1-.5-.5v-3a.5.5 0 0 1 .5-.5h23a.5.5 0 0 1 .5.5v3a.5.5 0 0 1-.5.5zM1 23h22v-2H1zm19.5-4h-17a.5.5 0 0 1-.5-.5v-10a.5.5 0 0 1 .5-.5h17a.5.5 0 0 1 .5.5v10a.5.5 0 0 1-.5.5zM4 18h16V9H4z"/><path d="M17.5 12h-11a.5.5 0 0 1 0-1h11a.5.5 0 0 1 0 1zm-2-5A1.5 1.5 0 1 1 17 5.5 1.5 1.5 0 0 1 15.5 7zm0-2a.5.5 0 1 0 .5.5.5.5 0 0 0-.5-.5zm4 2A1.5 1.5 0 1 1 21 5.5 1.5 1.5 0 0 1 19.5 7zm0-2a.5.5 0 1 0 .5.5.5.5 0 0 0-.5-.5zm-7 2h-9a.5.5 0 0 1-.5-.5v-2a.5.5 0 0 1 .5-.5h9a.5.5 0 0 1 .5.5v2a.5.5 0 0 1-.5.5zM4 6h8V5H4zm19.5-3H.5a.5.5 0 0 1-.5-.5v-2A.5.5 0 0 1 .5 0h23a.5.5 0 0 1 .5.5v2a.5.5 0 0 1-.5.5zM1 2h22V1H1z"/></symbol><symbol id="icon_lock" viewBox="0 0 16 24"><path d="M8 24a8 8 0 1 1 8-8 8 8 0 0 1-8 8zM8 9a7 7 0 1 0 7 7 7 7 0 0 0-7-7z"/><path d="M13.5 10.44h-1V5.5a4.5 4.5 0 0 0-9 0v4.92h-1V5.5a5.5 5.5 0 0 1 11 0zM8 20.5a4.5 4.5 0 1 1 4.5-4.5A4.51 4.51 0 0 1 8 20.5zm0-8a3.5 3.5 0 1 0 3.5 3.5A3.5 3.5 0 0 0 8 12.5z"/><path d="M8 13.5a.5.5 0 0 1-.5-.5v-2a.5.5 0 0 1 1 0v2a.5.5 0 0 1-.5.5zm0 8a.5.5 0 0 1-.5-.5v-2a.5.5 0 0 1 1 0v2a.5.5 0 0 1-.5.5zm5-5h-2a.5.5 0 0 1 0-1h2a.5.5 0 0 1 0 1zm-8 0H3a.5.5 0 0 1 0-1h2a.5.5 0 0 1 0 1zm3 .5a1 1 0 1 1 1-1 1 1 0 0 1-1 1zm0-1z"/></symbol><symbol id="icon_long-arrow" viewBox="0 0 76.6 7.4"><path d="M76.51 3.48a.31.31 0 0 1 0 .44l-3.42 3.42a.19.19 0 0 1-.28 0l-.25-.25a.19.19 0 0 1 0-.28l2.89-2.89a.31.31 0 0 0 0-.44L72.55.59a.19.19 0 0 1 0-.28l.25-.25a.19.19 0 0 1 .28 0z"/><rect y="3.33" width="75.88" height=".75" rx=".2" ry=".2"/></symbol><symbol id="icon_loupe" viewBox="0 0 8.09 8.25"><path d="M2.94 5.88a2.94 2.94 0 1 1 2.94-2.94 2.94 2.94 0 0 1-2.94 2.94zm0-5.13a2.19 2.19 0 1 0 2.19 2.19A2.19 2.19 0 0 0 2.94.75z"/><rect x="3.96" y="5.61" width="4.43" height="1.45" rx=".4" ry=".4" transform="rotate(45 6.175 6.338)"/></symbol><symbol id="icon_man" viewBox="0 0 3.9 6.96"><path d="M.36 6.89a.22.22 0 0 1-.29 0 .21.21 0 0 1 0-.28l.75-1A1.48 1.48 0 0 0 1 5.29L1.43 4a1.28 1.28 0 0 0 .07-.39l.05-2a.15.15 0 0 1 .19-.15l.17.06a.32.32 0 0 1 .21.25l.19 2a.82.82 0 0 1-.06.38l-.57 1.39a1 1 0 0 1-.22.32z"/><path d="M3.75 6.94a.24.24 0 0 1-.29-.07L1.67 4.41a.22.22 0 0 1 0-.29l.35-.3a.16.16 0 0 1 .25 0l1.61 2.82a.2.2 0 0 1-.08.27zM.39 3.76a.26.26 0 0 1-.24.11c-.07 0-.08-.13 0-.23L.5 2.8a1.19 1.19 0 0 1 .23-.31l.75-.67a.2.2 0 0 1 .28 0L2 2.1a.17.17 0 0 1 0 .26l-.74.52a1.29 1.29 0 0 0-.3.27z"/><path d="M3.79 3.65a.18.18 0 0 1-.25.07l-.69-.35a1.43 1.43 0 0 1-.31-.24l-.85-.87a.19.19 0 0 1 0-.28l.25-.25a.19.19 0 0 1 .27 0l.72 1a1.85 1.85 0 0 0 .28.27l.5.39a.25.25 0 0 1 .08.26z"/><circle cx="1.88" cy=".83" r=".83"/></symbol><symbol id="icon_message" viewBox="0 0 17.92 16.44"><path d="M11.36 1.6a5 5 0 0 1 0 9.93H9.11a1.62 1.62 0 0 0-1.26.6l-.61.78-.06-.26a1.6 1.6 0 0 0-1.32-1.18 5 5 0 0 1 .7-9.87h4.8m0-1.6h-4.8A6.58 6.58 0 0 0 0 6.56a6.59 6.59 0 0 0 5.63 6.49l.87 3.39 2.61-3.31h2.25a6.59 6.59 0 0 0 6.56-6.57A6.58 6.58 0 0 0 11.36 0z"/><path d="M12.63 5.82H4.88a.8.8 0 0 1 0-1.6h7.75a.8.8 0 0 1 0 1.6zM9 9.14H4.88a.8.8 0 0 1 0-1.6H9a.8.8 0 0 1 0 1.6z"/></symbol><symbol id="icon_metro" viewBox="0 0 7.3 5.88"><path d="M3.65 5.88a2.94 2.94 0 1 1 2.94-2.94 2.94 2.94 0 0 1-2.94 2.94zm0-5.13a2.19 2.19 0 1 0 2.19 2.19A2.2 2.2 0 0 0 3.65.75z"/><rect y="2.21" width="7.3" height="1.45" rx=".4" ry=".4"/></symbol><symbol id="icon_pan" viewBox="0 0 7.35 7.35"><path d="M6.15 2.55L2 6.7l-2 .65.66-2 4.15-4.14zm-1.22-.34a.13.13 0 0 0 0-.21.16.16 0 0 0-.11 0 .11.11 0 0 0-.09 0L1.42 5.29a.18.18 0 0 0 0 .11.16.16 0 0 0 0 .11.14.14 0 0 0 .11 0 .13.13 0 0 0 .1 0zM7.19.7a.57.57 0 0 1 .16.41.54.54 0 0 1-.16.4l-.57.57L5.28.74l.57-.57a.54.54 0 0 1 .4-.17.56.56 0 0 1 .4.17l.27.26.27.27z"/></symbol><symbol id="icon_refresh" viewBox="0 0 612.035 612.035"><path d="M323.128 56.236l5.646-9.57 40.17-40.169C271.247-13.921 165.482 13.786 89.65 89.646-16.421 195.717-28.355 360.261 53.875 479.49L10.98 522.386l137.7 19.667-19.667-137.7-34.968 34.967c-60.978-96.724-49.322-226.078 34.94-310.34 53.244-53.243 124.486-77.501 194.143-72.744zm258.264 13.743l-137.7-19.667 19.668 137.7 38.25-38.25c78.726 98.31 72.521 242.186-18.583 333.317-61.116 61.117-145.989 84.039-224.882 68.739l-45.65 45.649c105.654 33.799 226.05 8.791 309.895-75.054 112.858-112.858 119.146-291.979 18.805-412.209l40.197-40.225z"/></symbol><symbol id="icon_round-angle-down" viewBox="0 0 11 9"><path d="M11 4L0 0v9c3.83-5.67 11-5 11-5z"/></symbol><symbol id="icon_round-angle" viewBox="0 0 11 9"><path d="M0 0v9l11-4s-7.17.67-11-5z"/></symbol><symbol id="icon_round-cross" viewBox="0 0 14.73 14.73"><path transform="rotate(135 7.366 7.362)" d="M2.3 6.99h10.13v.75H2.3z"/><path transform="rotate(45 7.362 7.36)" d="M2.3 6.99h10.13v.75H2.3z"/><path d="M7.37 14.73a7.37 7.37 0 1 1 7.36-7.36 7.37 7.37 0 0 1-7.36 7.36zM7.37 1a6.37 6.37 0 1 0 6.36 6.37A6.38 6.38 0 0 0 7.37 1z"/></symbol><symbol id="icon_sc-fb" viewBox="0 0 15.99 18.46"><path d="M8 0L0 4.61v9.23l8 4.62 8-4.62V4.61zm2.08 9.23H8.74v4.83h-2V9.23h-1V7.57h1v-1A2.32 2.32 0 0 1 7.24 5a2.16 2.16 0 0 1 1.66-.6h1.33v1.67H9.4a1.9 1.9 0 0 0-.4.03.43.43 0 0 0-.2.14.53.53 0 0 0-.07.2 1.19 1.19 0 0 0 0 .29v.84h1.5z"/></symbol><symbol id="icon_sc-inst" viewBox="0 0 15.99 18.46"><path d="M9.87 5.87H6.11a1.48 1.48 0 0 0-1.47 1.48v3.76a1.48 1.48 0 0 0 1.47 1.48h3.76a1.48 1.48 0 0 0 1.48-1.48V7.35a1.48 1.48 0 0 0-1.48-1.48zM8 11.35a2.12 2.12 0 1 1 2.13-2.12A2.12 2.12 0 0 1 8 11.35zm2.28-3.78a.58.58 0 1 1 .57-.57.58.58 0 0 1-.58.57z"/><path d="M8 8.11a1.12 1.12 0 1 0 1.12 1.12A1.12 1.12 0 0 0 8 8.11z"/><path d="M8 0L0 4.61v9.23l8 4.62 8-4.62V4.61zm4.36 11.11a2.49 2.49 0 0 1-2.48 2.48H6.11a2.48 2.48 0 0 1-2.47-2.48V7.35a2.48 2.48 0 0 1 2.47-2.48h3.76a2.49 2.49 0 0 1 2.48 2.48z"/></symbol><symbol id="icon_sc-ln" viewBox="0 0 15.99 18.46"><path d="M8 0L0 4.61v9.23l8 4.62 8-4.62V4.61zM5.54 13.53H3.6V7.72h1.94zm-.17-6.88a1.13 1.13 0 0 1-.8.28 1 1 0 0 1-.77-.28 1 1 0 0 1-.3-.72.92.92 0 0 1 .31-.72 1.08 1.08 0 0 1 .78-.28 1.05 1.05 0 0 1 .78.28 1 1 0 0 1 .3.72 1 1 0 0 1-.3.72zm7.12 6.88h-1.92v-3.1a1.7 1.7 0 0 0-.24-1 .85.85 0 0 0-.74-.35 1 1 0 0 0-.62.2 1.24 1.24 0 0 0-.37.51 1.19 1.19 0 0 0-.07.47v3.24H6.6V7.72h1.93v.83a2.78 2.78 0 0 1 .23-.31 2.56 2.56 0 0 1 .33-.31 1.73 1.73 0 0 1 .51-.25 2.36 2.36 0 0 1 .67-.09 2.07 2.07 0 0 1 1.61.66 2.8 2.8 0 0 1 .61 1.95z"/></symbol><symbol id="icon_sc-tw" viewBox="0 0 15.99 18.46"><path d="M8 0L0 4.61v9.23l8 4.62 8-4.62V4.61zm3.92 7.35a1.63 1.63 0 0 1 0 .25 5.27 5.27 0 0 1-.23 1.51 5.2 5.2 0 0 1-.69 1.46 5.82 5.82 0 0 1-1.06 1.23 4.78 4.78 0 0 1-1.52.86 5.55 5.55 0 0 1-1.89.34 5.21 5.21 0 0 1-2.9-.85 3.17 3.17 0 0 0 .45 0 3.73 3.73 0 0 0 2.35-.8A1.9 1.9 0 0 1 4.66 10h.36a2.14 2.14 0 0 0 .5-.06 1.86 1.86 0 0 1-1.09-.66A1.79 1.79 0 0 1 4 8.14a1.85 1.85 0 0 0 .86.24 1.93 1.93 0 0 1-.62-.68 1.87 1.87 0 0 1 0-1.85A5.34 5.34 0 0 0 6 7.22a5.24 5.24 0 0 0 2.17.59 2.25 2.25 0 0 1 0-.44A1.88 1.88 0 0 1 10 5.48a1.8 1.8 0 0 1 1.38.6 3.65 3.65 0 0 0 1.2-.46 1.79 1.79 0 0 1-.83 1 3.68 3.68 0 0 0 1.09-.29 4 4 0 0 1-.93 1.02z"/></symbol><symbol id="icon_select-arrow" viewBox="0 0 16.31 9.16"><path d="M15.31 1L8.16 8.16m0 1a1 1 0 0 1-.71-.3 1 1 0 0 1 0-1.41L14.61.29a1 1 0 0 1 1.39 0 1 1 0 0 1 0 1.42L8.86 8.86a1 1 0 0 1-.7.3zm0-1L1 1"/><path d="M8.16 9.16a1 1 0 0 1-.71-.3L.29 1.71A1 1 0 0 1 1.71.29l7.15 7.16a1 1 0 0 1 0 1.41 1 1 0 0 1-.7.3z"/></symbol><symbol id="icon_shower" viewBox="0 0 28.8 27.09"><path d="M28.3 27.09a.5.5 0 0 1-.5-.5V11.88c0-5.74-4.8-8.62-7.48-8.62a.5.5 0 0 1 0-1c3 0 8.48 3.22 8.48 9.62v14.71a.5.5 0 0 1-.5.5z"/><path d="M20 11.18a.47.47 0 0 1-.32-.12l-9.57-8.23a.53.53 0 0 1-.17-.35.47.47 0 0 1 .14-.37A6.8 6.8 0 0 1 20.36 11a.49.49 0 0 1-.35.19zm-8.82-8.75l8.7 7.57a5.81 5.81 0 0 0-8.7-7.52z"/><path d="M19 10.39h-.11c-6.85-1.59-8.14-6.91-8.2-7.14a.5.5 0 1 1 1-.22c0 .2 1.22 4.94 7.45 6.38a.5.5 0 0 1-.12 1zm-7-.78a.51.51 0 0 1-.5-.5.51.51 0 0 1 .15-.36.52.52 0 0 1 .71 0 .54.54 0 0 1 .14.36.43.43 0 0 1 0 .19.48.48 0 0 1-.46.31zm-7.59 6.95a.49.49 0 0 1 0-.7.5.5 0 0 1 .71 0 .5.5 0 0 1 0 .71.47.47 0 0 1-.35.14.51.51 0 0 1-.36-.15zm1.45-1.42a.5.5 0 0 1 0-.71.49.49 0 0 1 .7 0 .5.5 0 0 1 0 .71.54.54 0 0 1-.35.14.51.51 0 0 1-.35-.14zm1.45-1.42a.5.5 0 0 1 0-.71A.5.5 0 0 1 8 13a.5.5 0 0 1 0 .71.5.5 0 0 1-.35.14.47.47 0 0 1-.34-.13zm1.44-1.42a.5.5 0 0 1 0-.71.5.5 0 0 1 .71 0 .5.5 0 0 1 0 .71.52.52 0 0 1-.35.14.51.51 0 0 1-.36-.14zm1.45-1.42a.5.5 0 0 1 0-.71.49.49 0 0 1 .7 0 .49.49 0 0 1 0 .7.5.5 0 0 1-.35.15.51.51 0 0 1-.35-.14zm-6.88 7.26a.72.72 0 0 1-.19 0A.91.91 0 0 1 3 18a.54.54 0 0 1-.14-.36.5.5 0 0 1 .14-.36.53.53 0 0 1 .71 0 .51.51 0 0 1 .15.35.51.51 0 0 1-.51.51zm7.12-10.47a.48.48 0 0 1-.5-.5.5.5 0 0 1 .14-.35.53.53 0 0 1 .55-.11.46.46 0 0 1 .16.11.51.51 0 0 1 .15.35.53.53 0 0 1-.15.36.5.5 0 0 1-.35.14zm-8.7 5.64a.51.51 0 0 1 .12-.7.51.51 0 0 1 .7.12.5.5 0 0 1-.12.7.52.52 0 0 1-.29.09.51.51 0 0 1-.41-.21zm1.66-1.17a.51.51 0 0 1 .12-.7.51.51 0 0 1 .7.12.5.5 0 0 1-.12.7.52.52 0 0 1-.29.09.49.49 0 0 1-.41-.21zM5.06 11a.5.5 0 0 1 .12-.7.51.51 0 0 1 .7.12.52.52 0 0 1-.12.7.52.52 0 0 1-.29.09.48.48 0 0 1-.41-.21zm1.65-1.2a.52.52 0 0 1 .12-.7.52.52 0 0 1 .7.12.5.5 0 0 1-.12.7.52.52 0 0 1-.29.09.51.51 0 0 1-.41-.21zm1.66-1.17a.5.5 0 0 1 .12-.69.51.51 0 0 1 .7.11.51.51 0 0 1-.12.7.52.52 0 0 1-.29.09.51.51 0 0 1-.41-.21zM.5 14.69a.41.41 0 0 1-.19 0 .39.39 0 0 1-.17-.11.44.44 0 0 1-.1-.16.43.43 0 0 1 0-.19.54.54 0 0 1 .14-.36.48.48 0 0 1 .17-.1.5.5 0 0 1 .38 0 .54.54 0 0 1 .16.1.55.55 0 0 1 .15.36.65.65 0 0 1 0 .19.46.46 0 0 1-.11.16.42.42 0 0 1-.16.11.43.43 0 0 1-.27 0zm13.39-3.9a.51.51 0 0 1-.35-.15.47.47 0 0 1-.15-.35.41.41 0 0 1 0-.19.39.39 0 0 1 .11-.17.51.51 0 0 1 .54-.1.44.44 0 0 1 .16.1.39.39 0 0 1 .11.17.41.41 0 0 1 0 .19.47.47 0 0 1-.15.35.51.51 0 0 1-.27.15zM8.2 19.28a.5.5 0 0 1-.15-.69.51.51 0 0 1 .69-.16.5.5 0 0 1 .15.69.49.49 0 0 1-.42.24.56.56 0 0 1-.27-.08zm1.09-1.71a.51.51 0 0 1-.16-.69.49.49 0 0 1 .69-.16.5.5 0 0 1 .16.69.51.51 0 0 1-.42.23.5.5 0 0 1-.27-.07zm1.08-1.72a.5.5 0 0 1-.15-.69.5.5 0 0 1 .69-.15.5.5 0 0 1 .15.69.48.48 0 0 1-.42.23.56.56 0 0 1-.27-.08zm1.09-1.71a.49.49 0 0 1-.16-.69.51.51 0 0 1 .69-.16.51.51 0 0 1 .16.69.52.52 0 0 1-.43.24.5.5 0 0 1-.26-.08zm1.08-1.72a.49.49 0 0 1-.15-.68.48.48 0 0 1 .68-.16.49.49 0 0 1 .16.69.51.51 0 0 1-.42.23.45.45 0 0 1-.27-.08zm-5.15 8.65a.51.51 0 0 1-.5-.5.43.43 0 0 1 0-.19.36.36 0 0 1 .11-.16.49.49 0 0 1 .54-.11.53.53 0 0 1 .27.27.43.43 0 0 1 0 .19.47.47 0 0 1-.15.35.36.36 0 0 1-.16.11.43.43 0 0 1-.11.04zm8.54-9.42a.47.47 0 0 1-.35-.15.36.36 0 0 1-.11-.16.43.43 0 0 1 0-.19.47.47 0 0 1 .15-.35.5.5 0 0 1 .7 0 .5.5 0 0 1-.35.85zm-3.57 9.52a.5.5 0 0 1-.3-.64.51.51 0 0 1 .64-.3.49.49 0 0 1 .3.64.5.5 0 0 1-.47.33.51.51 0 0 1-.17-.03zm.64-1.91a.5.5 0 0 1-.3-.64.5.5 0 0 1 .64-.3.49.49 0 0 1 .3.64.5.5 0 0 1-.47.33.51.51 0 0 1-.17-.03zm.68-1.91a.5.5 0 0 1-.3-.64.5.5 0 0 1 .64-.3.5.5 0 0 1 .3.64.5.5 0 0 1-.47.33zm.68-1.91a.5.5 0 0 1-.3-.64.5.5 0 0 1 .64-.3.5.5 0 0 1 .3.64.51.51 0 0 1-.47.33.51.51 0 0 1-.13-.03zm.68-1.91a.5.5 0 0 1-.3-.64.5.5 0 0 1 .64-.3.5.5 0 0 1 .3.64.51.51 0 0 1-.47.33.51.51 0 0 1-.13-.03zm-3.19 9.58a.43.43 0 0 1-.19 0 .54.54 0 0 1-.16-.1.55.55 0 0 1-.15-.36.51.51 0 0 1 .15-.35.49.49 0 0 1 .54-.11.46.46 0 0 1 .16.11.47.47 0 0 1 .15.35.51.51 0 0 1-.15.36.48.48 0 0 1-.35.1z"/></symbol><symbol id="icon_slider-arrow-bold" viewBox="0 0 9.96 22.68"><path d="M1 1l7.96 10.34m.04 1a1 1 0 0 1-.83-.34L.21 1.61A1 1 0 0 1 1.79.39l8 10.34A1 1 0 0 1 9 12.34zm-.04-1L1 21.68"/><path d="M1 22.68a1 1 0 0 1-.61-.2 1 1 0 0 1-.18-1.41l8-10.34A1 1 0 0 1 9.75 12l-8 10.34a1 1 0 0 1-.75.34z"/></symbol><symbol id="icon_slider-arrow" viewBox="0 0 8.46 21.18"><path d="M.25.25l7.96 10.34m0 .25a.25.25 0 0 1-.2-.1L.05.4A.25.25 0 0 1 .1.05.25.25 0 0 1 .45.1l8 10.34a.25.25 0 0 1-.05.35.25.25 0 0 1-.19.05zm0-.25L.25 20.93"/><path d="M.25 21.18a.21.21 0 0 1-.15-.05.25.25 0 0 1 0-.35L8 10.44a.25.25 0 1 1 .4.3l-8 10.34a.23.23 0 0 1-.15.1z"/></symbol><symbol id="icon_stand" viewBox="0 0 24 24"><path d="M23.5 17H.5a.5.5 0 0 1-.5-.5V.5A.5.5 0 0 1 .5 0h23a.5.5 0 0 1 .5.5v16a.5.5 0 0 1-.5.5zM1 16h22V1H1z"/><path d="M11.5 24a.5.5 0 0 1-.5-.5v-7a.5.5 0 0 1 1 0v7a.5.5 0 0 1-.5.5z"/><path d="M18.5 24a.47.47 0 0 1-.35-.15l-6.65-6.64-6.65 6.64a.49.49 0 0 1-.7-.7l7-7a.48.48 0 0 1 .7 0l7 7a.48.48 0 0 1 0 .7.47.47 0 0 1-.35.15zm5-19H.5a.5.5 0 0 1 0-1h23a.5.5 0 0 1 0 1z"/></symbol><symbol id="icon_star" viewBox="0 0 39 37"><path fill-rule="evenodd" d="M19.5 2.501l5.603 10.056 11.395 2.166-7.933 8.382 1.44 11.394L19.5 29.623 8.995 34.499l1.439-11.394-7.932-8.382 11.395-2.166L19.5 2.501"/></symbol><symbol id="icon_time" viewBox="0 0 9 9"><path d="M8.4 2.24A4.42 4.42 0 0 1 9 4.5a4.42 4.42 0 0 1-.6 2.26A4.52 4.52 0 0 1 6.76 8.4 4.42 4.42 0 0 1 4.5 9a4.42 4.42 0 0 1-2.26-.6A4.52 4.52 0 0 1 .6 6.76 4.42 4.42 0 0 1 0 4.5a4.42 4.42 0 0 1 .6-2.26A4.6 4.6 0 0 1 2.24.6 4.42 4.42 0 0 1 4.5 0a4.42 4.42 0 0 1 2.26.6A4.6 4.6 0 0 1 8.4 2.24zM7.26 6.1a3.07 3.07 0 0 0 .43-1.6 3.07 3.07 0 0 0-.43-1.6A3.22 3.22 0 0 0 6.1 1.74a3.19 3.19 0 0 0-3.2 0A3.22 3.22 0 0 0 1.74 2.9 3.19 3.19 0 0 0 6.1 7.26 3.15 3.15 0 0 0 7.26 6.1zm-2-3.66v2.62a.17.17 0 0 1-.19.19H3.19A.17.17 0 0 1 3 5.06v-.37a.17.17 0 0 1 .19-.19H4.5V2.44a.22.22 0 0 1 0-.14.22.22 0 0 1 .14 0h.37a.22.22 0 0 1 .14 0 .22.22 0 0 1 .1.14z"/></symbol></svg>