<svg xmlns="http://www.w3.org/2000/svg" xmlns:xlink="http://www.w3.org/1999/xlink" viewBox="0 0 171.5 53.7"><defs><linearGradient id="a" x1="28.97" x2="42.59" y1="32.52" y2="12.33" gradientTransform="matrix(1 0 0 -1 0 56)" gradientUnits="userSpaceOnUse"><stop offset=".25" stop-color="#008199"/><stop offset="1" stop-color="#0de1aa"/></linearGradient><linearGradient id="b" x1="16.87" x2="5.51" y1="34.57" y2="10.2" xlink:href="#a"/><linearGradient id="c" x1="23.03" x2="23.61" y1="55.98" y2="39.19" xlink:href="#a"/></defs><title>logo-shift</title><path fill="url(#a)" d="M42.5 16.16v22L29.13 45.9v-6l11.11-6.51V17.3l-15.61 9.11v27.28L47 40.7V13.57zM29.13 29l6.61-3.9v5.7l-6.61 3.9z"/><path fill="url(#b)" d="M0 13.57V40.7l22.37 13V37.31L11.26 30.8v-5.69l11.11 6.5v-5.2L6.76 17.3v16.08l11.11 6.51v6L4.49 38.11V16.16z"/><path fill="url(#c)" d="M0 13.57l4.5 2.59 19-10.97 19.01 10.97L47 13.57 23.5 0 0 13.57z"/><path fill="#525a65" d="M58.5 31.36l1.87-2.63a7.18 7.18 0 0 0 5.17 2.19c1.89 0 2.82-.88 2.82-1.8 0-2.87-9.35-.9-9.35-7 0-2.71 2.34-4.95 6.16-4.95a9 9 0 0 1 6.33 2.27L69.58 22a7 7 0 0 0-4.73-1.78c-1.48 0-2.31.66-2.31 1.63 0 2.59 9.33.86 9.33 6.92 0 3-2.12 5.21-6.5 5.21a9.29 9.29 0 0 1-6.87-2.62zm18.11.78v6h-3.09V21.89h3.09v1.48a4.56 4.56 0 0 1 3.63-1.77c3 0 5.21 2.24 5.21 6.16s-2.19 6.18-5.21 6.18a4.5 4.5 0 0 1-3.63-1.8zm5.63-4.38c0-2-1.2-3.41-3-3.41a3.47 3.47 0 0 0-2.66 1.34v4.16a3.55 3.55 0 0 0 2.66 1.34c1.76 0 3-1.39 3-3.43zm11.92 5.89v-1.22a4.83 4.83 0 0 1-3.72 1.51 3.93 3.93 0 0 1-4.09-3.75V30c0-2.75 2.22-3.79 4.09-3.79a4.84 4.84 0 0 1 3.72 1.43V26.1c0-1.19-1-2-2.58-2a4.94 4.94 0 0 0-3.43 1.39l-1.15-2a7.74 7.74 0 0 1 5.14-1.85c2.68 0 5.14 1.07 5.14 4.45v7.6zm0-2.83v-1.46a3.09 3.09 0 0 0-2.48-1c-1.22 0-2.21.63-2.21 1.78s1 1.73 2.21 1.73a3.09 3.09 0 0 0 2.48-1.05zM99 27.76a6 6 0 0 1 5.83-6.16 2.67 2.67 0 0 1 .4 0 5.47 5.47 0 0 1 4.65 2.11l-2 1.9a2.85 2.85 0 0 0-2.48-1.26 3.14 3.14 0 0 0-3.2 3.08v.33a3.16 3.16 0 0 0 2.88 3.42h.31a3 3 0 0 0 2.48-1.27l2 1.88a5.44 5.44 0 0 1-4.65 2.14A6 6 0 0 1 99 28.18zm11.5 0a6 6 0 0 1 5.84-6.16h.25c3.5 0 5.89 2.63 5.89 6.47v.68h-8.74a3.16 3.16 0 0 0 3.38 2.73 5 5 0 0 0 3.14-1.17l1.37 2a7.31 7.31 0 0 1-4.85 1.63 6 6 0 0 1-6.28-5.71zm6.09-3.71a2.81 2.81 0 0 0-2.9 2.61h5.79a2.72 2.72 0 0 0-2.82-2.61zm14.6 8.09v6h-3.1V21.89h3.1v1.48a4.53 4.53 0 0 1 3.62-1.77c3 0 5.21 2.24 5.21 6.16s-2.19 6.18-5.21 6.18a4.53 4.53 0 0 1-3.62-1.8zm5.62-4.38c0-2-1.19-3.41-3-3.41a3.45 3.45 0 0 0-2.65 1.34v4.16a3.55 3.55 0 0 0 2.65 1.34c1.81 0 3-1.39 3-3.43zm4.11 0a6.22 6.22 0 1 1 6.22 6.24 6.21 6.21 0 0 1-6.22-6.24zm9.23 0c0-1.83-1.09-3.41-3-3.41s-3 1.58-3 3.41 1.07 3.43 3 3.43 3-1.58 3-3.43z"/><path fill="#525a65" d="M154.29 27.76a6.22 6.22 0 1 1 6.22 6.24 6.21 6.21 0 0 1-6.22-6.24zm9.23 0c0-1.83-1.1-3.41-3-3.41s-3 1.58-3 3.41 1.07 3.43 3 3.43 3-1.58 3-3.43zm4.89 5.89V17.41h3.09v16.24z"/></svg>