<svg width="281" height="98" viewBox="0 0 281 98" fill="none" xmlns="http://www.w3.org/2000/svg"><path d="M77.47 29.497v40.058l-24.38 14.23V72.818l20.245-11.883V31.58L44.897 48.204V98l40.765-23.714V24.76l-8.191 4.737zM53.09 52.93l12.053-7.11v10.394l-12.053 7.12V52.93z" fill="url(#a)"/><path d="M0 24.76v49.526l40.765 23.657V68.097l-20.25-11.883v-10.39L40.76 57.688v-9.483l-28.436-16.63v29.361l20.244 11.878v10.925L8.186 69.555V29.497L0 24.76z" fill="url(#b)"/><path d="M106.406 59.941l3.004-4.216a11.388 11.388 0 0 0 8.265 3.513c3.04 0 4.522-1.405 4.522-2.889 0-4.606-14.975-1.446-14.975-11.242 0-4.336 3.743-7.928 9.865-7.928 4.133 0 7.563 1.25 10.136 3.633l-3.082 4.06c-2.105-1.951-4.912-2.852-7.563-2.852-2.38 0-3.706 1.057-3.706 2.618 0 4.138 14.933 1.37 14.933 11.087 0 4.762-3.394 8.354-10.411 8.354-4.984 0-8.571-1.676-10.988-4.138zm29.008 1.249v9.603h-4.953v-26.04h4.953v2.384c1.445-1.838 3.509-2.853 5.811-2.853 4.834 0 8.342 3.592 8.342 9.88 0 6.287-3.508 9.915-8.342 9.915-2.224 0-4.293-.937-5.811-2.889zm9.008-7.027c0-3.242-1.913-5.465-4.756-5.465-1.601 0-3.43.937-4.252 2.15v6.678c.822 1.171 2.651 2.15 4.252 2.15 2.843-.006 4.756-2.233 4.756-5.513zm19.101 9.447v-1.95c-1.289 1.525-3.508 2.42-5.967 2.42-3.004 0-6.549-2.03-6.549-6.246 0-4.414 3.55-6.09 6.549-6.09 2.495 0 4.72.822 5.967 2.306v-2.54c0-1.916-1.637-3.165-4.132-3.165-2.027 0-3.898.745-5.499 2.228l-1.871-3.32c2.302-2.03 5.265-2.968 8.227-2.968 4.289 0 8.228 1.718 8.228 7.147v12.18h-4.953zm0-4.528V56.74c-.821-1.093-2.381-1.64-3.976-1.64-1.949 0-3.55 1.015-3.55 2.853 0 1.759 1.601 2.774 3.55 2.774 1.601-.005 3.16-.552 3.976-1.645zm7.682-4.919c0-5.777 4.174-9.879 9.98-9.879 3.862 0 6.201 1.681 7.448 3.4l-3.238 3.044c-.899-1.327-2.261-2.03-3.976-2.03-3.005 0-5.11 2.186-5.11 5.465 0 3.28 2.105 5.507 5.11 5.507 1.715 0 3.082-.78 3.976-2.03l3.238 3.009c-1.247 1.76-3.586 3.435-7.448 3.435-5.806-.005-9.98-4.101-9.98-9.92zm18.478 0c0-5.465 4.018-9.879 9.745-9.879 5.614 0 9.434 4.216 9.434 10.384v1.093h-13.997c.312 2.384 2.224 4.373 5.421 4.373 1.601 0 3.82-.703 5.031-1.874l2.183 3.2c-1.871 1.718-4.833 2.619-7.76 2.619-5.728 0-10.057-3.862-10.057-9.916zm9.751-5.933c-3.083 0-4.408 2.306-4.642 4.18h9.278c-.114-1.802-1.362-4.18-4.636-4.18zm16.996 12.96v9.603h-4.953v-26.04h4.953v2.384c1.445-1.838 3.508-2.853 5.811-2.853 4.834 0 8.342 3.592 8.342 9.88 0 6.287-3.508 9.915-8.342 9.915-2.22 0-4.288-.937-5.811-2.889zm9.007-7.027c0-3.242-1.912-5.465-4.755-5.465-1.601 0-3.431.937-4.252 2.15v6.678c.821 1.171 2.651 2.15 4.252 2.15 2.848-.006 4.755-2.233 4.755-5.513zm6.591 0c0-5.35 3.742-9.879 9.943-9.879 6.237 0 9.98 4.529 9.98 9.88 0 5.387-3.743 9.915-9.98 9.915-6.201 0-9.943-4.528-9.943-9.916zm14.777 0c0-2.93-1.757-5.465-4.834-5.465-3.082 0-4.797 2.54-4.797 5.465 0 2.967 1.715 5.507 4.797 5.507 3.077 0 4.834-2.54 4.834-5.507zm6.627 0c0-5.35 3.742-9.879 9.943-9.879 6.237 0 9.979 4.529 9.979 9.88 0 5.387-3.742 9.915-9.979 9.915-6.201 0-9.943-4.528-9.943-9.916zm14.777 0c0-2.93-1.757-5.465-4.834-5.465-3.082 0-4.797 2.54-4.797 5.465 0 2.967 1.715 5.507 4.797 5.507s4.834-2.54 4.834-5.507zm7.838 9.447V37.57H281v26.046h-4.953v-.005z" fill="#415A65"/><path d="M0 24.765l8.191 4.732L42.834 9.473 77.47 29.497l8.191-4.732L42.834 0 0 24.765z" fill="url(#c)"/><defs><linearGradient id="a" x1="52.806" y1="42.86" x2="77.675" y2="79.678" gradientUnits="userSpaceOnUse"><stop offset=".25" stop-color="#008199"/><stop offset="1" stop-color="#0DE1AA"/></linearGradient><linearGradient id="b" x1="30.736" y1="39.113" x2="9.978" y2="83.566" gradientUnits="userSpaceOnUse"><stop offset=".25" stop-color="#008199"/><stop offset="1" stop-color="#0DE1AA"/></linearGradient><linearGradient id="c" x1="41.97" y1=".03" x2="43.042" y2="30.703" gradientUnits="userSpaceOnUse"><stop offset=".25" stop-color="#008199"/><stop offset="1" stop-color="#0DE1AA"/></linearGradient></defs></svg>