<svg xmlns="http://www.w3.org/2000/svg" xmlns:xlink="http://www.w3.org/1999/xlink" viewBox="0 0 261.45 298.68"><defs><linearGradient id="a" x1="161.17" y1="130.63" x2="236.92" y2="242.94" gradientUnits="userSpaceOnUse"><stop offset=".25" stop-color="#008199"/><stop offset="1" stop-color="#0de1aa"/></linearGradient><linearGradient id="b" x1="93.81" y1="119.21" x2="30.6" y2="254.76" xlink:href="#a"/><linearGradient id="c" x1="128.1" y1=".09" x2="131.36" y2="93.58" xlink:href="#a"/></defs><path d="M236.44 89.9V212L162 255.35v-33.42l61.79-36.22V96.25L137 146.91v151.77l124.44-72.28V75.46zM162 161.31l36.79-21.67v31.68L162 193z" fill="url(#a)"/><path d="M0 75.46v151l124.41 72.04v-91l-61.79-36.2v-31.63l61.79 36.15v-28.91L37.62 96.22v89.49l61.79 36.2v33.29L25 212V89.9z" fill="url(#b)"/><path fill="url(#c)" d="M.01 75.47l25 14.44 105.72-61.04 105.72 61.04 25-14.44L130.73 0 .01 75.47z"/></svg>