<svg xmlns="http://www.w3.org/2000/svg" xmlns:xlink="http://www.w3.org/1999/xlink" viewBox="0 0 169.51 54"><defs><linearGradient id="a" x1="29.14" x2="42.84" y1="23.62" y2="43.92" gradientUnits="userSpaceOnUse"><stop offset=".25" stop-color="#008199"/><stop offset="1" stop-color="#0de1aa"/></linearGradient><linearGradient id="b" x1="16.96" x2="5.53" y1="21.55" y2="46.06" xlink:href="#a"/><linearGradient id="c" x1="23.16" x2="23.75" y1=".02" y2="16.92" xlink:href="#a"/></defs><path fill="#415a65" d="M57.51 34.28l1.92-2.71a7.33 7.33 0 005.31 2.26c2 0 2.9-.9 2.9-1.85 0-3-9.61-.93-9.61-7.21 0-2.77 2.4-5.08 6.33-5.08a9.26 9.26 0 016.5 2.31l-2 2.6A7.16 7.16 0 0064 22.8c-1.53 0-2.38.67-2.38 1.67 0 2.65 9.58.88 9.58 7.1 0 3.06-2.18 5.36-6.68 5.36a9.52 9.52 0 01-7.01-2.65zm18.61.8v6.15h-3.18V24.55h3.18v1.52a4.66 4.66 0 013.72-1.82c3.11 0 5.36 2.3 5.36 6.32s-2.2 6.36-5.36 6.36a4.6 4.6 0 01-3.72-1.85zm5.77-4.51c0-2.07-1.22-3.5-3-3.5a3.54 3.54 0 00-2.72 1.38v4.28a3.62 3.62 0 002.72 1.37c1.78 0 3-1.42 3-3.53zm12.26 6.06v-1.25a5 5 0 01-3.83 1.55 4 4 0 01-4.2-4c0-2.83 2.28-3.91 4.2-3.91a5 5 0 013.83 1.48v-1.63c0-1.22-1.05-2-2.65-2a5.1 5.1 0 00-3.5 1.4l-1.2-2.12a7.94 7.94 0 015.28-1.9c2.75 0 5.28 1.1 5.28 4.57v7.81zm0-2.9v-1.5a3.16 3.16 0 00-2.55-1.06c-1.25 0-2.28.66-2.28 1.83s1 1.78 2.28 1.78a3.19 3.19 0 002.55-1.05zm4.93-3.16a6.12 6.12 0 016.4-6.32 5.62 5.62 0 014.78 2.17l-2.08 1.95a2.92 2.92 0 00-2.55-1.3 3.23 3.23 0 00-3.28 3.5 3.25 3.25 0 003.28 3.53 3 3 0 002.55-1.3l2.08 1.93a5.58 5.58 0 01-4.78 2.2 6.13 6.13 0 01-6.4-6.36zm11.85 0a6.15 6.15 0 016.26-6.32c3.6 0 6 2.7 6 6.65v.7h-9a3.25 3.25 0 003.48 2.8 5.13 5.13 0 003.33-1.2l1.4 2a7.53 7.53 0 01-5 1.68 6.13 6.13 0 01-6.47-6.31zm6.26-3.8a2.91 2.91 0 00-3 2.68h6a2.79 2.79 0 00-3-2.68zm10.9 8.31v6.15h-3.18V24.55h3.18v1.52a4.68 4.68 0 013.73-1.82c3.1 0 5.35 2.3 5.35 6.32s-2.25 6.36-5.35 6.36a4.62 4.62 0 01-3.73-1.85zm5.78-4.51c0-2.07-1.23-3.5-3.05-3.5a3.56 3.56 0 00-2.73 1.38v4.28a3.64 3.64 0 002.73 1.37c1.82 0 3.05-1.42 3.05-3.53zm4.22 0a6.4 6.4 0 0112.79 0 6.4 6.4 0 01-12.79 0zm9.48 0c0-1.87-1.12-3.5-3.1-3.5s-3.07 1.63-3.07 3.5 1.1 3.53 3.07 3.53 3.1-1.62 3.1-3.53zm4.26 0a6.39 6.39 0 0112.78 0 6.39 6.39 0 01-12.78 0zm9.47 0c0-1.87-1.12-3.5-3.1-3.5s-3.07 1.63-3.07 3.5 1.1 3.53 3.07 3.53 3.1-1.62 3.1-3.53zm5.03 6.06V19.94h3.18v16.69z"/><path fill="url(#a)" d="M42.75 16.25v22.08l-13.46 7.84v-6.05l11.18-6.54V17.4l-15.69 9.16V54l22.49-13.07V13.64zM29.29 29.16L36 25.25V31l-6.71 3.9z"/><path fill="url(#b)" d="M0 13.64v27.29L22.49 54V37.52L11.32 31v-5.75l11.17 6.54v-5.23L6.8 17.4v16.18L18 40.12v6l-13.48-7.8V16.25z"/><path fill="url(#c)" d="M0 13.64l4.52 2.61L23.64 5.22l19.11 11.03 4.52-2.61L23.64 0 0 13.64z"/></svg>