<svg xmlns="http://www.w3.org/2000/svg" viewBox="0 0 25.11 25.44"><path d="M3.06 2.9h9.76a3.05 3.05 0 012.69 4.51l-4.88 9a3.06 3.06 0 01-5.37 0l-4.89-9A3.05 3.05 0 013.06 2.9z" fill="#83c2b1"/><path fill="none" stroke="#040706" stroke-linejoin="round" d="M6.44 11.72h18.17v2.93H6.44zm14.79 13.22H9.82L7.94 14.65h15.17l-1.88 10.29zM14.7 11.56a5.91 5.91 0 01-1.21-4.41c.37-2.58 1.87-5.31 2-6.65 2.2 6.09 3.12 7.59 1.79 11.22a23.78 23.78 0 01-2.58-.16z"/><path d="M10.82 11.72a5 5 0 01-1.17-3.55c.09-2.27 0-4.47 0-4.47s3.14 2.24 3.78 4m4.43.75A16.2 16.2 0 0119 5.5a3.84 3.84 0 00.62-1.37s1.8 4.37.42 7.59" fill="none" stroke="#040706" stroke-linejoin="round"/><path d="M11.33 7.71a6.84 6.84 0 00.56 2.18m3.63-4.61a15.87 15.87 0 01.12 3.52" fill="none" stroke="#040706" stroke-linecap="round" stroke-linejoin="round"/></svg>