<svg xmlns="http://www.w3.org/2000/svg" viewBox="0 0 33.37 21.26"><title>picture-payments</title><rect x="13.87" y="1.76" width="17.74" height="17.74" rx="4.62" ry="4.62" transform="rotate(-45 22.734 10.633)" fill="#83c2b1"/><path fill="none" stroke="#040706" stroke-linecap="round" stroke-linejoin="round" d="M25.61 6.81l-6.55 4.37H13.6m12.01-2.19l-6.55 4.37H13.6m12.01-2.18l-6.55 4.36H13.6m12.01-2.18l-6.55 4.37H13.6"/><path fill="none" stroke="#040706" stroke-linecap="round" stroke-linejoin="round" d="M13.6 18.82H5.96V8.45l6.55-4.92h7.64L13.6 8.45v10.37zm-7.64-7.64H.5m5.46 2.18H.5m5.46 2.18H.5m5.46 2.19H.5"/><path fill="none" stroke="#040706" stroke-linejoin="round" d="M18.52 4.63h7.09l-6.55 4.36H13.6m-7.64 0H.5l6.55-4.36h3.82"/><path fill="none" stroke="#040706" stroke-linecap="round" stroke-linejoin="round" d="M9.78 16.09v1.09m0-8.73v1.09m-1.64 4.91a1.64 1.64 0 1 0 1.64-1.64 1.64 1.64 0 1 1 1.64-1.63"/></svg>