<svg xmlns="http://www.w3.org/2000/svg" xmlns:xlink="http://www.w3.org/1999/xlink" viewBox="0 0 2979.37 3711.84"><defs><linearGradient id="c" x1="2817.36" y1="1756.64" x2="2972.57" y2="1756.64" gradientTransform="matrix(-1 0 0 1 5184.1 0)" gradientUnits="userSpaceOnUse"><stop offset="0" stop-color="#fff"/><stop offset="1"/></linearGradient><linearGradient id="a" x1="1230.1" y1="2034.25" x2="1255.12" y2="2034.25" gradientUnits="userSpaceOnUse"><stop offset="0" stop-color="#325199"/><stop offset="1" stop-color="#2b4485"/></linearGradient><linearGradient id="f" x1="1230.1" y1="1646.26" x2="1811.19" y2="1646.26" xlink:href="#a"/><linearGradient id="g" x1="1259.09" y1="2385.79" x2="1653.57" y2="2385.79" xlink:href="#a"/><linearGradient id="h" x1="1653.52" y1="2335.67" x2="2204.44" y2="2335.67" xlink:href="#a"/><linearGradient id="b" x1="665.86" y1="1459.59" x2="578.27" y2="1176.79" gradientUnits="userSpaceOnUse"><stop offset="0" stop-color="#0290d3"/><stop offset="1" stop-color="#fff"/></linearGradient><linearGradient id="i" x1="528.02" y1="2150.47" x2="440.43" y2="1867.67" xlink:href="#b"/><linearGradient id="j" x1="1923.37" y1="1255.56" x2="1835.77" y2="972.76" xlink:href="#b"/><linearGradient id="k" x1="1864.04" y1="343.03" x2="1776.44" y2="60.23" xlink:href="#b"/><linearGradient id="l" x1="302.93" y1="699.17" x2="215.33" y2="416.37" xlink:href="#b"/><linearGradient id="m" x1="1040.88" y1="793.54" x2="953.29" y2="510.74" xlink:href="#b"/><filter id="d" x="2211.53" y="1694.74" width="155.21" height="123.81" filterUnits="userSpaceOnUse" color-interpolation-filters="sRGB"><feFlood flood-color="#fff" result="bg"/><feBlend in="SourceGraphic" in2="bg"/></filter><mask id="n" x="2211.53" y="1694.74" width="155.21" height="123.81" maskUnits="userSpaceOnUse"><g mask="url(#c)" filter="url(#d)"><path d="M2259.58 1694.74l107.16 66-135.1 57.81c-34.5-38.43-24.24-88.64 27.94-123.81z" fill="url(#c)" style="mix-blend-mode:multiply"/></g></mask><linearGradient id="o" x1="2817.36" y1="1756.64" x2="2972.57" y2="1756.64" gradientTransform="matrix(-1 0 0 1 5184.1 0)" gradientUnits="userSpaceOnUse"><stop offset="0" stop-color="#fff"/><stop offset="1" stop-color="#fff"/></linearGradient><linearGradient id="p" x1="2809" y1="1792.27" x2="2968.34" y2="1792.27" gradientTransform="matrix(-1 0 0 1 5184.1 0)" gradientUnits="userSpaceOnUse"><stop offset="0" stop-color="#fff"/><stop offset="1" stop-color="#e84378"/></linearGradient><clipPath id="q"><path d="M2551.55 1827.67l-3-50.8v1.35l3.06 50.79c0-.44-.03-.89-.06-1.34z" fill="none"/></clipPath><clipPath id="r"><path d="M2519.6 1862l1.82 30.48c20.81-19.36 31-41.64 30.12-63.47l-1.84-30.47c.87 21.8-9.28 44.08-30.1 63.46z" fill="none"/></clipPath><linearGradient id="e" x1="1230.03" y1="2355.07" x2="1230.03" y2="2274.25" gradientTransform="translate(-190.92)" gradientUnits="userSpaceOnUse"><stop offset="0" stop-color="#f8ff3f"/><stop offset="1" stop-color="#fff"/></linearGradient><linearGradient id="s" x1="1179.36" y1="2435.01" x2="1179.36" y2="2310.6" xlink:href="#e"/><linearGradient id="t" x1="1128.71" y1="2502.38" x2="1128.71" y2="2418.63" xlink:href="#e"/><linearGradient id="u" x1="1078.07" y1="2551.48" x2="1078.07" y2="2509.39" xlink:href="#e"/><clipPath id="v"><path d="M1070.32 1969.86l22.19-.93q-16.26 55-37.15 107c-31.34 77.81-70.43 150.28-116.19 215.39-49.84 70.93-96.52 117.43-124.67 142.45l-22.2.93c28.16-25 74.83-71.53 124.67-142.44 45.76-65.11 84.85-137.59 116.19-215.4q20.89-51.93 37.16-107z" fill="none"/></clipPath></defs><title>tenant-slider-3</title><g style="isolation:isolate"><ellipse cx="2582.1" cy="3508.51" rx="282.39" ry="102.79" fill="#163160" opacity=".25"/><path fill="#163160" opacity=".25" d="M2796.07 2711.2l-1683.11 971.74-949.92-548.43 1683.11-971.75 949.92 548.44z"/><path fill="#c43947" d="M1256.99 3573.63l-27.19-681.22 87.12-3.33-29.97 685.39-29.96-.84z"/><path fill="#fff" d="M1305.87 3205.38l3.61-103.22h-73l3.28 103.22h66.11z"/><path fill="#c43947" d="M559.46 3121.04l-27.19-681.22 87.12-3.33-29.97 685.38-29.96-.83z"/><path fill="#fff" d="M608.34 2752.78l3.61-103.21h-73l3.28 103.21h66.11z"/><path fill="#c43947" d="M2799.36 2653.44l-27.18-681.22 87.11-3.33-29.96 685.39-29.97-.84z"/><path fill="#fff" d="M2848.25 2285.19l3.61-103.22h-73l3.28 103.22h66.11z"/><g style="isolation:isolate"><path fill="#85c4e0" d="M2971.97 1934.53l.19 69.93-1709.09 986.74-.19-69.92 1709.09-986.75z"/><path fill="#85c4e0" d="M1262.88 2921.28l.19 69.92-816.2-474.32-.2-69.93 816.21 474.33z"/><path fill="#fff" d="M2155.76 1460.2l816.21 474.33-1709.09 986.75-816.21-474.33 1709.09-986.75z"/></g><path d="M1252.74 2257l-1.24-438.26-21.4-12.43 1.24 438.25c0 2.55.92 4.36 2.38 5.21l21.4 12.44c-1.46-.86-2.37-2.67-2.38-5.21z" fill="url(#a)"/><path d="M1789.79 1473.78l-551.58 318.46a9.06 9.06 0 0 0-.77.49c-.08 0-.16.12-.24.18s-.35.25-.51.38l-.28.23-.46.4-.27.26-.17.15-.18.19-.54.58-.17.18-.14.17-.32.39a2.43 2.43 0 0 0-.2.25l-.17.22-.22.31-.16.21c-.08.12-.16.25-.25.37l-.16.24-.06.09c-.15.23-.29.46-.42.7l-.08.15-.28.5-.12.23-.12.25a1.51 1.51 0 0 0-.11.22c-.09.18-.17.36-.26.55a.61.61 0 0 1 0 .12l-.3.73v.13a2 2 0 0 0-.1.26l-.14.38c0 .09 0 .18-.08.27s-.07.23-.1.35 0 .14-.07.21l-.09.36c0 .14-.07.28-.1.42s0 .1 0 .15 0 .2-.05.3-.08.43-.11.64v.35a11.4 11.4 0 0 0-.09 1.42l21.4 12.43a13.69 13.69 0 0 1 .09-1.41v-.35c0-.12.07-.43.11-.64l.09-.45c0-.14.07-.28.1-.42s.1-.39.16-.58.07-.22.1-.34.15-.43.22-.65.07-.18.1-.27c.11-.3.23-.6.36-.89a.61.61 0 0 0 .05-.12c.12-.26.24-.52.37-.78l.12-.24.4-.74s0-.09.08-.14c.17-.28.34-.56.52-.84l.15-.23.41-.58a3.55 3.55 0 0 1 .23-.31l.36-.47.32-.39.32-.36c.17-.19.35-.39.54-.57l.34-.35.27-.25.46-.4.28-.23.51-.39.24-.17c.26-.18.52-.35.78-.5l551.57-318.45z" fill="url(#f)"/><path d="M1819.35 1490.88c0-5.14-3.69-7.24-8.16-4.66l-551.57 318.45c-4.48 2.59-8.14 8.92-8.12 14.06l1 361.35 567.86-327.85zm-558.44 770.76l551.57-318.45c4.48-2.58 8.13-8.91 8.11-14l-.21-76.91-567.86 327.85.22 76.91c.02 5.09 3.69 7.19 8.17 4.6z" fill="#16254a"/><path d="M1803.19 1928.62l-1-417.32-533.32 307.91a2.2 2.2 0 0 0-.15.26l1 417.15z" fill="#fff"/><path d="M1284.61 1829.94l517.64-298.85-.06-19.16-533.32 307.92c0 .08-.11.17-.15.25l1 417.41 15.69-9.06-.94-398.25z" fill="#8698b5" opacity=".35"/><path d="M1653.52 2487.84c-.35.2-.73.38-1.12.56l-.32.13c-.32.14-.66.26-1 .37l-.26.09-.5.14-.51.14-.52.11-.52.1c-.42.08-.85.14-1.28.18h-.39c-.26 0-.53 0-.8.06h-2.24l-.53-.05-.57-.06-.51-.07-.61-.1-.47-.1-.7-.17-.4-.11c-.42-.12-.83-.25-1.23-.4l-.59-.25-.31-.14c-.29-.14-.58-.29-.85-.44L1262.42 2270c-2.21-1.28-3.32-3-3.33-4.66l.05 16.5c0 1.69 1.11 3.38 3.32 4.67l374.88 217.85c.27.16.55.31.85.45l.3.13.56.24c.39.15.8.29 1.23.41h.12l.28.07.7.16.22.06h.25l.61.1h.51a5.51 5.51 0 0 0 .57.06h1.44a1.34 1.34 0 0 0 .2 0h1.13l.8-.05h.38c.44-.05.87-.11 1.29-.19h.08l.43-.09.52-.11.52-.14.5-.14h.09l.17-.07c.34-.11.67-.23 1-.36l.32-.14c.39-.17.76-.36 1.12-.56z" fill="url(#g)"/><path d="M1810 1944.48c4.48-2.59 11.79-2.58 16.23 0l374.88 217.85c4.45 2.59 4.42 6.82-.06 9.41l-547.5 316.1c-4.48 2.58-11.78 2.58-16.23 0L1262.42 2270c-4.45-2.58-4.43-6.81 0-9.4z" fill="#9e9e9e"/><path d="M1645.26 2472.56l-356.59-207.23 529.27-305.57h.29L2174.82 2167l-529.26 305.56h-.3z" fill="#fff"/><g style="isolation:isolate"><path fill="#c5c5c5" d="M1873.71 2012.59l.01 1.65-31.84 18.38v-1.65l31.83-18.38z"/><path fill="#888" d="M1841.88 2030.97v1.65l-31.63-18.38v-1.65l31.63 18.38z"/><path fill="#a39f9f" d="M1842.08 1994.21l31.63 18.38-31.83 18.38-31.63-18.38 31.83-18.38z"/></g><g style="isolation:isolate"><path fill="#c5c5c5" d="M1832.78 2036.23v1.65l-31.84 18.38v-1.65l31.84-18.38z"/><path fill="#888" d="M1800.94 2054.61v1.65l-31.62-18.38-.01-1.65 31.63 18.38z"/><path fill="#a39f9f" d="M1801.15 2017.85l31.63 18.38-31.84 18.38-31.63-18.38 31.84-18.38z"/></g><g style="isolation:isolate"><path fill="#c5c5c5" d="M1791.85 2059.86v1.65l-31.83 18.38-.01-1.65 31.84-18.38z"/><path fill="#888" d="M1760.01 2078.24l.01 1.65-31.63-18.38-.01-1.65 31.63 18.38z"/><path fill="#a39f9f" d="M1760.22 2041.48l31.63 18.38-31.84 18.38-31.63-18.38 31.84-18.38z"/></g><g style="isolation:isolate"><path fill="#c5c5c5" d="M1750.92 2083.49v1.65l-31.83 18.38-.01-1.65 31.84-18.38z"/><path fill="#888" d="M1719.08 2101.87l.01 1.65-31.63-18.38-.01-1.65 31.63 18.38z"/><path fill="#a39f9f" d="M1719.29 2065.11l31.63 18.38-31.84 18.38-31.63-18.38 31.84-18.38z"/></g><g style="isolation:isolate"><path fill="#c5c5c5" d="M1709.98 2107.12l.01 1.65-31.84 18.38v-1.65l31.83-18.38z"/><path fill="#888" d="M1678.15 2125.5v1.65l-31.63-18.38v-1.65l31.63 18.38z"/><path fill="#a39f9f" d="M1678.35 2088.74l31.63 18.38-31.83 18.38-31.63-18.38 31.83-18.38z"/></g><g style="isolation:isolate"><path fill="#c5c5c5" d="M1669.05 2130.75l.01 1.65-31.84 18.38v-1.65l31.83-18.38z"/><path fill="#888" d="M1637.22 2149.13v1.65l-31.63-18.38v-1.65l31.63 18.38z"/><path fill="#a39f9f" d="M1637.42 2112.37l31.63 18.38-31.83 18.38-31.63-18.38 31.83-18.38z"/></g><g style="isolation:isolate"><path fill="#c5c5c5" d="M1628.13 2154.38v1.65l-31.84 18.38v-1.65l31.84-18.38z"/><path fill="#888" d="M1596.29 2172.76v1.65l-31.63-18.38v-1.65l31.63 18.38z"/><path fill="#a39f9f" d="M1596.5 2136l31.63 18.38-31.84 18.38-31.63-18.38 31.84-18.38z"/></g><g style="isolation:isolate"><path fill="#c5c5c5" d="M1587.19 2178.01v1.65l-31.83 18.39-.01-1.66 31.84-18.38z"/><path fill="#888" d="M1555.35 2196.39l.01 1.66-31.63-18.39v-1.65l31.62 18.38z"/><path fill="#a39f9f" d="M1555.56 2159.64l31.63 18.37-31.84 18.38-31.62-18.38 31.83-18.37z"/></g><g style="isolation:isolate"><path fill="#c5c5c5" d="M1546.26 2201.65l.01 1.65-31.84 18.38-.01-1.65 31.84-18.38z"/><path fill="#888" d="M1514.42 2220.03l.01 1.65-31.63-18.38v-1.66l31.62 18.39z"/><path fill="#a39f9f" d="M1514.63 2183.26l31.63 18.39-31.84 18.38-31.62-18.39 31.83-18.38z"/></g><g style="isolation:isolate"><path fill="#c5c5c5" d="M1505.33 2225.28l.01 1.65-31.84 18.38v-1.65l31.83-18.38z"/><path fill="#888" d="M1473.5 2243.66v1.65l-31.63-18.38v-1.65l31.63 18.38z"/><path fill="#a39f9f" d="M1473.7 2206.89l31.63 18.39-31.83 18.38-31.63-18.38 31.83-18.39z"/></g><g style="isolation:isolate"><path fill="#c5c5c5" d="M1464.4 2248.91v1.65l-31.83 18.38-.01-1.65 31.84-18.38z"/><path fill="#888" d="M1432.56 2267.29l.01 1.65-31.63-18.38-.01-1.65 31.63 18.38z"/><path fill="#a39f9f" d="M1432.77 2230.53l31.63 18.38-31.84 18.38-31.63-18.38 31.84-18.38z"/></g><g style="isolation:isolate"><path fill="#c5c5c5" d="M1423.47 2272.54v1.65l-31.83 18.38-.01-1.65 31.84-18.38z"/><path fill="#888" d="M1391.63 2290.92l.01 1.65-31.63-18.38-.01-1.65 31.63 18.38z"/><path fill="#a39f9f" d="M1391.84 2254.16l31.63 18.38-31.84 18.38-31.63-18.38 31.84-18.38z"/></g><g style="isolation:isolate"><path fill="#c5c5c5" d="M1917.23 2037.88l.01 1.65-31.84 18.38v-1.65l31.83-18.38z"/><path fill="#888" d="M1885.4 2056.26v1.65l-31.63-18.38v-1.65l31.63 18.38z"/><path fill="#a39f9f" d="M1885.6 2019.5l31.63 18.38-31.83 18.38-31.63-18.38 31.83-18.38z"/></g><g style="isolation:isolate"><path fill="#c5c5c5" d="M1876.3 2061.52v1.65l-31.84 18.38v-1.65l31.84-18.38z"/><path fill="#888" d="M1844.46 2079.9v1.65l-31.62-18.38-.01-1.65 31.63 18.38z"/><path fill="#a39f9f" d="M1844.67 2043.14l31.63 18.38-31.84 18.38-31.63-18.38 31.84-18.38z"/></g><g style="isolation:isolate"><path fill="#c5c5c5" d="M1835.37 2085.15v1.65l-31.83 18.38-.01-1.65 31.84-18.38z"/><path fill="#888" d="M1803.53 2103.53l.01 1.65-31.63-18.38-.01-1.65 31.63 18.38z"/><path fill="#a39f9f" d="M1803.74 2066.77l31.63 18.38-31.84 18.38-31.63-18.38 31.84-18.38z"/></g><g style="isolation:isolate"><path fill="#c5c5c5" d="M1794.44 2108.78v1.65l-31.83 18.38-.01-1.65 31.84-18.38z"/><path fill="#888" d="M1762.6 2127.16l.01 1.65-31.63-18.38-.01-1.65 31.63 18.38z"/><path fill="#a39f9f" d="M1762.81 2090.4l31.63 18.38-31.84 18.38-31.63-18.38 31.84-18.38z"/></g><g style="isolation:isolate"><path fill="#c5c5c5" d="M1753.5 2132.41l.01 1.65-31.84 18.38v-1.65l31.83-18.38z"/><path fill="#888" d="M1721.67 2150.79v1.65l-31.63-18.38v-1.65l31.63 18.38z"/><path fill="#a39f9f" d="M1721.87 2114.03l31.63 18.38-31.83 18.38-31.63-18.38 31.83-18.38z"/></g><g style="isolation:isolate"><path fill="#c5c5c5" d="M1712.57 2156.04l.01 1.65-31.84 18.38v-1.65l31.83-18.38z"/><path fill="#888" d="M1680.74 2174.42v1.65l-31.63-18.38v-1.65l31.63 18.38z"/><path fill="#a39f9f" d="M1680.94 2137.66l31.63 18.38-31.83 18.38-31.63-18.38 31.83-18.38z"/></g><g style="isolation:isolate"><path fill="#c5c5c5" d="M1671.64 2179.67l.01 1.65-31.84 18.38v-1.65l31.83-18.38z"/><path fill="#888" d="M1639.81 2198.05v1.65l-31.63-18.38v-1.65l31.63 18.38z"/><path fill="#a39f9f" d="M1640.02 2161.29l31.62 18.38-31.83 18.38-31.63-18.38 31.84-18.38z"/></g><g style="isolation:isolate"><path fill="#c5c5c5" d="M1630.71 2203.31v1.65l-31.83 18.38v-1.65l31.83-18.38z"/><path fill="#888" d="M1598.88 2221.69v1.65l-31.63-18.38-.01-1.65 31.64 18.38z"/><path fill="#a39f9f" d="M1599.08 2184.93l31.63 18.38-31.83 18.38-31.64-18.38 31.84-18.38z"/></g><g style="isolation:isolate"><path fill="#c5c5c5" d="M1589.78 2226.94l.01 1.65-31.84 18.38-.01-1.65 31.84-18.38z"/><path fill="#888" d="M1557.94 2245.32l.01 1.65-31.63-18.38v-1.65l31.62 18.38z"/><path fill="#a39f9f" d="M1558.15 2208.55l31.63 18.39-31.84 18.38-31.62-18.38 31.83-18.39z"/></g><g style="isolation:isolate"><path fill="#c5c5c5" d="M1548.85 2250.57l.01 1.65-31.84 18.38v-1.65l31.83-18.38z"/><path fill="#888" d="M1517.02 2268.95v1.65l-31.63-18.38v-1.65l31.63 18.38z"/><path fill="#a39f9f" d="M1517.22 2232.19l31.63 18.38-31.83 18.38-31.63-18.38 31.83-18.38z"/></g><g style="isolation:isolate"><path fill="#c5c5c5" d="M1507.92 2274.2v1.65l-31.83 18.38-.01-1.65 31.84-18.38z"/><path fill="#888" d="M1476.08 2292.58l.01 1.65-31.63-18.38-.01-1.65 31.63 18.38z"/><path fill="#a39f9f" d="M1476.29 2255.82l31.63 18.38-31.84 18.38-31.63-18.38 31.84-18.38z"/></g><g style="isolation:isolate"><path fill="#c5c5c5" d="M1466.99 2297.83v1.65l-31.83 18.38-.01-1.65 31.84-18.38z"/><path fill="#888" d="M1435.15 2316.21l.01 1.65-31.63-18.38-.01-1.65 31.63 18.38z"/><path fill="#a39f9f" d="M1435.36 2279.45l31.63 18.38-31.84 18.38-31.63-18.38 31.84-18.38z"/></g><g style="isolation:isolate"><path fill="#c5c5c5" d="M1960.75 2063.17l.01 1.65-31.84 18.38v-1.65l31.83-18.38z"/><path fill="#888" d="M1928.92 2081.55v1.65l-31.63-18.38v-1.65l31.63 18.38z"/><path fill="#a39f9f" d="M1929.12 2044.79l31.63 18.38-31.83 18.38-31.63-18.38 31.83-18.38z"/></g><g style="isolation:isolate"><path fill="#c5c5c5" d="M1919.82 2086.81v1.65l-31.84 18.38v-1.65l31.84-18.38z"/><path fill="#888" d="M1887.98 2105.19v1.65l-31.62-18.38-.01-1.65 31.63 18.38z"/><path fill="#a39f9f" d="M1888.19 2068.43l31.63 18.38-31.84 18.38-31.63-18.38 31.84-18.38z"/></g><g style="isolation:isolate"><path fill="#c5c5c5" d="M1878.89 2110.44v1.65l-31.83 18.38-.01-1.65 31.84-18.38z"/><path fill="#888" d="M1847.05 2128.82l.01 1.65-31.63-18.38-.01-1.65 31.63 18.38z"/><path fill="#a39f9f" d="M1847.26 2092.06l31.63 18.38-31.84 18.38-31.63-18.38 31.84-18.38z"/></g><g style="isolation:isolate"><path fill="#c5c5c5" d="M1837.96 2134.07v1.65l-31.83 18.38-.01-1.65 31.84-18.38z"/><path fill="#888" d="M1806.12 2152.45l.01 1.65-31.63-18.38-.01-1.65 31.63 18.38z"/><path fill="#a39f9f" d="M1806.33 2115.69l31.63 18.38-31.84 18.38-31.63-18.38 31.84-18.38z"/></g><g style="isolation:isolate"><path fill="#c5c5c5" d="M1797.02 2157.7l.01 1.65-31.84 18.38v-1.65l31.83-18.38z"/><path fill="#888" d="M1765.19 2176.08v1.65l-31.63-18.38v-1.65l31.63 18.38z"/><path fill="#a39f9f" d="M1765.39 2139.32l31.63 18.38-31.83 18.38-31.63-18.38 31.83-18.38z"/></g><g style="isolation:isolate"><path fill="#c5c5c5" d="M1756.1 2181.33v1.65l-31.84 18.38v-1.65l31.84-18.38z"/><path fill="#888" d="M1724.26 2199.71v1.65l-31.63-18.38v-1.65l31.63 18.38z"/><path fill="#a39f9f" d="M1724.46 2162.95l31.64 18.38-31.84 18.38-31.63-18.38 31.83-18.38z"/></g><g style="isolation:isolate"><path fill="#c5c5c5" d="M1715.16 2204.96l.01 1.65-31.84 18.38v-1.65l31.83-18.38z"/><path fill="#888" d="M1683.33 2223.34v1.65l-31.63-18.38v-1.65l31.63 18.38z"/><path fill="#a39f9f" d="M1683.54 2186.58l31.62 18.38-31.83 18.38-31.63-18.38 31.84-18.38z"/></g><g style="isolation:isolate"><path fill="#c5c5c5" d="M1674.23 2228.6v1.65l-31.83 18.38-.01-1.65 31.84-18.38z"/><path fill="#888" d="M1642.39 2246.98l.01 1.65-31.63-18.38v-1.65l31.62 18.38z"/><path fill="#a39f9f" d="M1642.6 2210.22l31.63 18.38-31.84 18.38-31.62-18.38 31.83-18.38z"/></g><g style="isolation:isolate"><path fill="#c5c5c5" d="M1633.3 2252.23l.01 1.65-31.84 18.38v-1.65l31.83-18.38z"/><path fill="#888" d="M1601.47 2270.61v1.65l-31.63-18.38v-1.65l31.63 18.38z"/><path fill="#a39f9f" d="M1601.67 2233.85l31.63 18.38-31.83 18.38-31.63-18.38 31.83-18.38z"/></g><g style="isolation:isolate"><path fill="#c5c5c5" d="M1592.37 2275.86l.01 1.65-31.84 18.38v-1.65l31.83-18.38z"/><path fill="#888" d="M1560.54 2294.24v1.65l-31.63-18.38v-1.65l31.63 18.38z"/><path fill="#a39f9f" d="M1560.74 2257.48l31.63 18.38-31.83 18.38-31.63-18.38 31.83-18.38z"/></g><g style="isolation:isolate"><path fill="#c5c5c5" d="M1551.44 2299.49v1.65l-31.83 18.38-.01-1.65 31.84-18.38z"/><path fill="#888" d="M1519.6 2317.87l.01 1.65-31.63-18.38-.01-1.65 31.63 18.38z"/><path fill="#a39f9f" d="M1519.81 2281.11l31.63 18.38-31.84 18.38-31.63-18.38 31.84-18.38z"/></g><g style="isolation:isolate"><path fill="#c5c5c5" d="M1510.51 2323.12v1.65l-31.83 18.38-.01-1.65 31.84-18.38z"/><path fill="#888" d="M1478.67 2341.5l.01 1.65-31.63-18.38-.01-1.65 31.63 18.38z"/><path fill="#a39f9f" d="M1478.88 2304.74l31.63 18.38-31.84 18.38-31.63-18.38 31.84-18.38z"/></g><g style="isolation:isolate"><path fill="#c5c5c5" d="M2004.27 2088.47l.01 1.65-31.84 18.38v-1.65l31.83-18.38z"/><path fill="#888" d="M1972.44 2106.85v1.65l-31.63-18.39v-1.64l31.63 18.38z"/><path fill="#a39f9f" d="M1972.64 2070.08l31.63 18.39-31.83 18.38-31.63-18.38 31.83-18.39z"/></g><g style="isolation:isolate"><path fill="#c5c5c5" d="M1963.34 2112.1v1.65l-31.83 18.38-.01-1.65 31.84-18.38z"/><path fill="#888" d="M1931.5 2130.48l.01 1.65-31.63-18.38-.01-1.65 31.63 18.38z"/><path fill="#a39f9f" d="M1931.71 2093.72l31.63 18.38-31.84 18.38-31.63-18.38 31.84-18.38z"/></g><g style="isolation:isolate"><path fill="#c5c5c5" d="M1922.41 2135.73v1.65l-31.83 18.38-.01-1.65 31.84-18.38z"/><path fill="#888" d="M1890.57 2154.11l.01 1.65-31.63-18.38-.01-1.65 31.63 18.38z"/><path fill="#a39f9f" d="M1890.78 2117.35l31.63 18.38-31.84 18.38-31.63-18.38 31.84-18.38z"/></g><g style="isolation:isolate"><path fill="#c5c5c5" d="M1881.48 2159.36v1.65l-31.83 18.38-.01-1.65 31.84-18.38z"/><path fill="#888" d="M1849.64 2177.74l.01 1.65-31.63-18.38-.01-1.65 31.63 18.38z"/><path fill="#a39f9f" d="M1849.85 2140.98l31.63 18.38-31.84 18.38-31.63-18.38 31.84-18.38z"/></g><g style="isolation:isolate"><path fill="#c5c5c5" d="M1840.54 2182.99l.01 1.65-31.84 18.38v-1.65l31.83-18.38z"/><path fill="#888" d="M1808.71 2201.37v1.65l-31.63-18.38v-1.65l31.63 18.38z"/><path fill="#a39f9f" d="M1808.91 2164.61l31.63 18.38-31.83 18.38-31.63-18.38 31.83-18.38z"/></g><g style="isolation:isolate"><path fill="#c5c5c5" d="M1799.61 2206.62l.01 1.66-31.84 18.38V2225l31.83-18.38z"/><path fill="#888" d="M1767.78 2225v1.66l-31.63-18.38v-1.66l31.63 18.38z"/><path fill="#a39f9f" d="M1767.99 2188.24l31.62 18.38-31.83 18.38-31.63-18.38 31.84-18.38z"/></g><g style="isolation:isolate"><path fill="#c5c5c5" d="M1758.69 2230.25v1.66l-31.83 18.37-.01-1.64 31.84-18.39z"/><path fill="#888" d="M1726.85 2248.64l.01 1.64-31.64-18.38v-1.65l31.63 18.39z"/><path fill="#a39f9f" d="M1727.06 2211.87l31.63 18.38-31.84 18.39-31.63-18.39 31.84-18.38z"/></g><g style="isolation:isolate"><path fill="#c5c5c5" d="M1717.75 2253.89l.01 1.65-31.84 18.38-.01-1.65 31.84-18.38z"/><path fill="#888" d="M1685.91 2272.27l.01 1.65-31.63-18.38v-1.65l31.62 18.38z"/><path fill="#a39f9f" d="M1686.12 2235.51l31.63 18.38-31.84 18.38-31.62-18.38 31.83-18.38z"/></g><g style="isolation:isolate"><path fill="#c5c5c5" d="M1676.82 2277.52l.01 1.65-31.84 18.38-.01-1.65 31.84-18.38z"/><path fill="#888" d="M1644.98 2295.9l.01 1.65-31.63-18.38v-1.65l31.62 18.38z"/><path fill="#a39f9f" d="M1645.19 2259.14l31.63 18.38-31.84 18.38-31.62-18.38 31.83-18.38z"/></g><g style="isolation:isolate"><path fill="#c5c5c5" d="M1635.89 2301.15l.01 1.65-31.84 18.38v-1.65l31.83-18.38z"/><path fill="#888" d="M1604.06 2319.53v1.65l-31.63-18.38v-1.65l31.63 18.38z"/><path fill="#a39f9f" d="M1604.26 2282.77l31.63 18.38-31.83 18.38-31.63-18.38 31.83-18.38z"/></g><g style="isolation:isolate"><path fill="#c5c5c5" d="M1594.96 2324.78v1.65l-31.83 18.38-.01-1.65 31.84-18.38z"/><path fill="#888" d="M1563.12 2343.16l.01 1.65-31.63-18.38-.01-1.65 31.63 18.38z"/><path fill="#a39f9f" d="M1563.33 2306.4l31.63 18.38-31.84 18.38-31.63-18.38 31.84-18.38z"/></g><g style="isolation:isolate"><path fill="#c5c5c5" d="M1554.03 2348.41v1.65l-31.83 18.38-.01-1.65 31.84-18.38z"/><path fill="#888" d="M1522.19 2366.79l.01 1.65-31.63-18.38-.01-1.65 31.63 18.38z"/><path fill="#a39f9f" d="M1522.4 2330.03l31.63 18.38-31.84 18.38-31.63-18.38 31.84-18.38z"/></g><path d="M1980.87 2255l-182.36 105.29a3.21 3.21 0 0 1-2.87.12l-114.24-66c-.74-.42-.64-1.17.2-1.66l182.4-105.22a3.18 3.18 0 0 1 2.87-.12l114.24 66c.71.38.61 1.12-.24 1.59z" fill="#a39f9f"/><path d="M2204.4 2167v.69c0 .12-.05.2-.08.3a3.37 3.37 0 0 1-.09.34c0 .1-.08.19-.12.29a3.73 3.73 0 0 1-.16.35l-.15.25a4.81 4.81 0 0 1-.27.41l-.18.22a4.87 4.87 0 0 1-.43.49l-.25.24a3.47 3.47 0 0 1-.29.25l-.36.29-.34.24-.6.38-547.5 316.1v16.5l547.34-316 .16-.09h.07l.18-.1.13-.07.21-.15.35-.24.35-.28c.11-.09.21-.17.3-.26l.13-.11.12-.13c.15-.16.3-.32.43-.48a1.49 1.49 0 0 0 .12-.14.47.47 0 0 0 .06-.09c.1-.13.18-.27.27-.41a1.88 1.88 0 0 1 .12-.18v-.06c0-.06.11-.24.16-.36s.07-.15.1-.23l.09-.34c0-.09.05-.18.07-.26v-.35a2.28 2.28 0 0 0 0-.26v-.08z" fill="url(#h)"/><path d="M1350.31 1865c0-5.33 3.74-11.8 8.35-14.47s8.36-.5 8.36 4.83-3.74 11.8-8.36 14.46-8.35.55-8.35-4.82z" fill="#ff473d"/><path d="M1377.67 1849.24c0-5.32 3.74-11.8 8.36-14.46s8.35-.51 8.35 4.82-3.74 11.8-8.35 14.47-8.36.5-8.36-4.83z" fill="#64a1e0"/><path d="M1404.88 1833.53c0-5.32 3.74-11.8 8.35-14.46s8.36-.51 8.36 4.82-3.74 11.8-8.36 14.47-8.35.5-8.35-4.83z" fill="#95c464"/><path d="M1729.4 1658.56l-287.55 166c-2.51 1.44-4.56-.11-4.56-3.45v-9.88c0-3.34 2-7.26 4.56-8.71l287.55-166c2.5-1.45 4.56.1 4.56 3.45v9.87c.04 3.36-2.06 7.28-4.56 8.72z" fill="#6fbbc4"/><path fill="#71bdc4" d="M1481.18 1992.87l-7.94 4.58v-52.64l7.94-4.58v52.64z"/><path fill="#586172" d="M1493.22 1985.92l-7.94 4.59v-34.31l7.94-4.59v34.31z"/><path fill="#eb8658" d="M1505.26 1978.97l-7.94 4.59v-101l7.94-4.59v101z"/><path fill="#71bdc4" d="M1529.21 1965.14l-7.94 4.59v-85.92l7.94-4.58v85.91z"/><path fill="#586172" d="M1541.25 1958.19l-7.94 4.59v-78.23l7.94-4.58v78.22z"/><path fill="#eb8658" d="M1553.28 1951.24l-7.94 4.59v-101l7.94-4.58v100.99z"/><path fill="#71bdc4" d="M1577.62 1937.2l-7.94 4.58v-85.91l7.94-4.59v85.92z"/><path fill="#586172" d="M1589.65 1930.25l-7.94 4.58v-74.09l7.94-4.58v74.09z"/><path fill="#eb8658" d="M1601.69 1923.3l-7.94 4.58v-39.11l7.94-4.59v39.12z"/><path fill="#71bdc4" d="M1625.9 1909.32l-7.94 4.59v-115.05l7.94-4.58v115.04z"/><path fill="#586172" d="M1637.93 1902.37l-7.94 4.59v-74.09l7.94-4.58v74.08z"/><path fill="#eb8658" d="M1649.97 1895.42l-7.94 4.59v-145.02l7.94-4.58v145.01z"/><path fill="#71bdc4" d="M1674.3 1881.37l-7.94 4.59v-80.13l7.94-4.58v80.12z"/><path fill="#586172" d="M1686.34 1874.42l-7.94 4.59v-51.6l7.94-4.58v51.59z"/><path fill="#eb8658" d="M1698.38 1867.47l-7.94 4.59v-101l7.94-4.59v101z"/><path fill="#71bdc4" d="M1719.04 1855.55l-7.94 4.58v-115.05l7.94-4.58v115.05z"/><path fill="#586172" d="M1727.11 1850.89l-3.97 2.29v-150.93l3.97-2.29v150.93z"/><path fill="#eb8658" d="M1743.12 1841.64l-7.94 4.59v-145.02l7.94-4.58v145.01z"/><path fill="#898989" d="M1743.12 1868.11l-269.88 155.81v-8.28l269.88-155.81v8.28zm0 9.76l-269.88 155.81v-4.14l269.88-155.81v4.14zm0 9.57l-269.88 155.81v-4.14l269.88-155.81v4.14zm-138.01 89.24l-131.87 76.13v-4.14l131.87-76.13v4.14z"/><path d="M1388.52 1911.47c-27 15.58-48.85 53.46-48.85 84.6l48.85-28.2z" fill="#dc4511"/><path d="M1339.67 1996.07c0 31.16 21.88 43.78 48.85 28.21v-56.41zm48.85-84.6v56.4l48.85-28.2c0-31.14-21.87-43.77-48.85-28.2z" fill="#e95a59"/><path d="M1388.52 2024.28c27-15.58 48.85-53.46 48.85-84.61l-48.85 28.2z" fill="#e95a59"/><path d="M1388.52 1945.32c-10.79 6.23-19.53 21.38-19.53 33.83l19.53-11.28z" fill="#fcd558"/><path d="M1388.52 1932.91v35l30.28-17.48c0-19.34-13.55-27.17-30.28-17.52z" fill="#a3d2d1"/><path d="M1388.52 1967.87V2010c20.16-11.64 36.5-39.94 36.5-63.22z" fill="#fcd558"/><path d="M1405.06 2038.3a13.83 13.83 0 0 1-6.24 10.81l-20.59 11.89c-3.45 2-6.24.38-6.24-3.6a13.76 13.76 0 0 1 6.24-10.81l20.59-11.89c3.44-2 6.24-.38 6.24 3.61z" fill="#e95a59"/><path d="M1405.06 2064.38a13.81 13.81 0 0 1-6.24 10.81l-20.59 11.89c-3.45 2-6.25.38-6.24-3.6a13.79 13.79 0 0 1 6.24-10.81l20.59-11.89c3.44-2 6.24-.38 6.24 3.6z" fill="#a3d2d1"/><path d="M1405.06 2090.47a13.81 13.81 0 0 1-6.24 10.81l-20.59 11.89c-3.45 2-6.24.38-6.25-3.6a13.84 13.84 0 0 1 6.25-10.82l20.59-11.88c3.44-2 6.24-.38 6.24 3.6z" fill="#fcd558"/><path fill="#0c203d" d="M2059.8 2765.18l237.04 59.12-3.69-25.9-233.35-33.22z"/><path d="M1788.28 2459l-14-10.91s-18.48-43.73-25.36-51.32-17.9-10.88-16.36 3.56 10 28.69 10 28.69-50-26.22-64.94-32.64-49.28-5.93 15.2 27.38c0 0-45.12-22.28-50.49-11.45s45 24 45 24-44.25-15-50.48-6.06c-3.76 5.37 45.88 22.41 45.88 22.41s-49.6-12.22-45-5 40.46 25 64.82 28.22a199.61 199.61 0 0 1 34.45 7.84l21.7 14zm415.06-227.31l-16.44-6.69s-47.13 5.75-57.14 3.56-18.34-10.11-5.06-16 29.88-5.57 29.88-5.57-47.65-30.34-60.64-40.08-29.68-39.78 31.32-.44c0 0-41.79-28-35.07-38.09s43.24 27.09 43.24 27.09-35-30.92-30.39-40.76c2.78-5.93 42.27 28.63 42.27 28.63s-35.28-36.92-26.7-36.5 40.54 22.22 60.95 35.91a155.79 155.79 0 0 1 26.62 23.25l16.05 20.85z" fill="#ffb187"/><path d="M2521.27 2254.84s-258.19-59.76-302-71.85l-15.94 48.7s205.73 129.21 279.51 140 38.43-116.85 38.43-116.85z" fill="#d32d2d"/><path fill="#ffb288" d="M2372.2 2159.86l15.82 112.06 116.83-34.87-40.02-120.07-92.63 42.88z"/><path d="M2398.73 2672.85s-213-25.64-252.41-25.64-78.88 31.56-92.68 67.05 155.78 605.38 155.78 605.38l65.08-17.74s-41.42-394.39-45.36-435.8 303.68 144 303.68 144z" fill="#163160"/><path d="M2351.4 2243s-69 51.27-82.82 63.1-33.52 138-21.69 211 55.21 313.53 57.18 374.66c0 0 232.69 106.49 378.62-19.72 0 0-2-431.85-29.58-536.36s-59.16-136.06-86.77-142-122.26 9.85-214.94 49.32z" fill="#d32d2d"/><path d="M2273.52 2301.54s-47.67 34.77-96.31 58.43-167.36 142.44-201.54 158.22c-60.47-19.72-199.06-68.24-199.06-68.24s-23.66 31.9-30.23 39.78c0 0 176.09 109.42 231.31 121.25s241.17-74.36 295.6-109.78c72.04-46.88 80.42-86.6.23-199.66z" fill="#d32d2d"/><path d="M2682.69 2872l-313.53-24.19c-117.58-44.65-346.53-88.29-420-109.91-100.57-29.58-165.64 69-165.64 94.66s222.82 638.9 222.82 638.9l71-27.6s-73.14-433.88-87-463.46l447.47 158c147.55 58 225.81-75.12 245.52-126.39s-.64-140.01-.64-140.01z" fill="#163160"/><path d="M2341.79 2037.24s-11.71 52.69-12.77 66.53 27.68 70.26 39.39 75.58c11.17 0 57.48-13.31 72.38-27.15s-4.26-138.91-4.26-138.91l-45.77-12.29z" fill="#ffb288"/><path d="M2333.28 2047.88s25-3.72 33.53-8c0 0-10.65 46.84-3.19 57.48 0 0 9-20.76 19.16-7.45s-1.6 28.21-1.6 28.21 17 36.73 35.13 38.32 65.46 1.6 65.46 1.6-2.66-26.08 2.13-37.26 33-80.9 3.73-113.9-60.68-38.32-97.93-27.15-74.52 36.75-56.42 68.15z" fill="#6d3131"/><path d="M2076.44 3450.85s-90.91 53.74-100.06 58.32c0 0 .13 11.42 20.14 6.1 18.06-4.8 44.91-15.25 44.91-15.25l20.17-12.19 3.65 6c6.29-2.77 18.77-11.28 18.77-15.94-.02-5.99-7.58-27.04-7.58-27.04zm201.93-130.92s-103.66 20.9-113.81 22.22c0 0-3.63 10.81 17 12.34 18.67 1.39 47.5.32 47.5.32l23.09-4.88 1.47 6.87c6.86-.55 21.45-4.48 23-8.88 2-5.67 1.75-27.99 1.75-27.99z" fill="#163160"/><path d="M2594.21 3678.43a33.41 33.41 0 1 1 33.4 33.41 33.4 33.4 0 0 1-33.4-33.41zm-344.33-229.31a33.41 33.41 0 1 1 33.41 33.41 33.4 33.4 0 0 1-33.41-33.41zm624.27 17.36a33.41 33.41 0 1 1 33.41 33.41 33.4 33.4 0 0 1-33.41-33.41z" fill="#151e28"/><path fill="#efba41" d="M2942.61 2435.09l-396.1 228.69 36.75 21.22 396.11-228.69-36.76-21.22z"/><path d="M2284.77 3454.71a12.57 12.57 0 0 1-11.37-17.91c.5-1.08 12.77-26.73 42.36-45.12 27.33-17 226.23-79.6 248.82-86.68a12.57 12.57 0 0 1 7.52 24c-87.49 27.43-224.43 72.45-243.07 84-23 14.27-32.78 34.24-32.87 34.44a12.58 12.58 0 0 1-11.39 7.27zm342.16 220.38a12.57 12.57 0 0 1-12.57-12.5c-.94-182.75-31.29-343.32-31.6-344.92a12.57 12.57 0 1 1 24.69-4.73c.31 1.62 31.09 164.35 32.05 349.52a12.56 12.56 0 0 1-12.5 12.63z" fill="#47576e"/><path d="M2922.1 3454.53l-25.13-.68v.26c0-1.17-1-28.8-48-52.33-54.52-27.26-235.76-88.42-237.58-89a12.57 12.57 0 1 1 8-23.82c7.52 2.53 184.73 62.33 240.81 90.36 62.36 31.17 61.95 73.43 61.9 75.21z" fill="#47576e"/><path fill="#fedd8b" d="M2619.59 3280.82l-461.08-266.2 63.9-36.89 461.08 266.2-63.9 36.89z"/><path fill="#efba41" d="M2158.51 3014.62v88.98l412.19 247.22v-100.55l-412.19-235.65z"/><path fill="#ffd765" d="M2546.51 2663.78l-79.68 321.67 52.08 347.22 47.98 26.86-53.77-374.08 70.14-300.45-36.75-21.22z"/><path fill="#ed8843" d="M2979.37 2456.31l-70.8 342.02 57.87 333.72-399.55 227.48-53.77-374.08 70.14-300.45 396.11-228.69z"/><path d="M1644.13 527.15c.74-.36 1.47-.69 2.2-1l.82-.35c.66-.27 1.32-.52 2-.75l.63-.23c.85-.29 1.7-.55 2.54-.78.56-.16 1.11-.29 1.66-.41.17 0 .33-.09.5-.12.71-.16 1.42-.29 2.12-.39a31.23 31.23 0 0 1 3.14-.32h3.8c.74 0 1.46.14 2.18.25l.66.11c.81.15 1.6.33 2.37.55.75.22 1.48.49 2.2.78l.61.26c.59.26 1.18.55 1.75.86l.57.3-54.74-31.82-.26-.14c-.1-.06-.21-.1-.31-.15-.57-.31-1.15-.6-1.75-.86-.12-.05-.22-.12-.33-.16l-.28-.1a22.9 22.9 0 0 0-2.2-.78c-.77-.22-1.56-.4-2.37-.55-.1 0-.19-.05-.29-.06l-.37-.05c-.71-.11-1.44-.2-2.18-.25h-.42c-.9-.05-1.81-.05-2.75 0h-.63a31.23 31.23 0 0 0-3.14.32c-.69.11-1.39.24-2.09.39-.17 0-.33.08-.5.12-.52.11-1 .23-1.56.37h-.1c-.84.23-1.69.49-2.54.78l-.62.23c-.66.23-1.31.48-2 .75l-.29.11c-.18.08-.35.17-.53.24-.73.32-1.46.65-2.2 1-.28.14-.57.27-.85.42-1 .49-2 1-3 1.59l-176.3 101.79a57.69 57.69 0 0 0-3.68 2.31l-.64.42c-1.16.79-2.31 1.63-3.45 2.51l-.66.51c-1.16.92-2.31 1.86-3.43 2.85l-.24.21c-1.09 1-2.17 2-3.23 3l-.34.32-.22.23c-.75.75-1.5 1.51-2.23 2.29l-.18.18c-.79.85-1.57 1.71-2.34 2.59l-.18.2-.24.29c-1.2 1.4-2.38 2.82-3.52 4.29l-.09.11-.23.3c-.91 1.19-1.79 2.39-2.66 3.62l-.27.37-.13.18c-.82 1.18-1.62 2.38-2.4 3.59l-.22.33c-.11.17-.21.35-.32.53-.64 1-1.25 2-1.86 3l-.28.47a1.62 1.62 0 0 0-.1.18c-.68 1.16-1.34 2.34-2 3.53l-.16.29c-.11.2-.2.4-.3.59-.5.95-1 1.9-1.45 2.86-.1.2-.21.4-.3.6s-.11.23-.16.34c-.58 1.21-1.14 2.42-1.67 3.64l-.06.14-.18.43c-.46 1.09-.91 2.18-1.34 3.28-.07.18-.15.36-.22.55s-.1.28-.16.42c-.49 1.31-1 2.62-1.4 3.93v.12l-.09.31c-.44 1.34-.85 2.67-1.22 4-.05.17-.11.34-.16.5a2.44 2.44 0 0 1-.06.26c-.43 1.58-.81 3.15-1.16 4.72 0 .15-.07.29-.1.43s-.07.38-.11.58c-.13.61-.25 1.23-.36 1.84-.07.43-.15.85-.22 1.27-.11.64-.2 1.28-.29 1.91 0 .31-.1.61-.14.91v.21c-.17 1.35-.3 2.69-.4 4 0 .29 0 .58-.05.86-.08 1.37-.13 2.72-.13 4.06l.58 202.6c0 14.83 5.32 25.29 13.81 30.22l54.74 31.81c-8.49-4.93-13.77-15.39-13.82-30.22l-.57-202.6c0-1.34 0-2.69.13-4.05v-.87c.1-1.33.23-2.67.4-4 0-.37.1-.75.16-1.12.09-.63.18-1.27.28-1.9.08-.43.15-.86.23-1.29q.16-.91.36-1.83c.06-.33.14-.67.21-1 .35-1.57.73-3.14 1.16-4.72.07-.25.14-.5.22-.76.37-1.33.78-2.67 1.22-4 .05-.14.09-.28.13-.42.44-1.32.92-2.63 1.41-3.94.13-.32.25-.65.38-1 .43-1.1.87-2.19 1.34-3.28l.24-.57c.53-1.22 1.09-2.43 1.67-3.64.15-.31.3-.62.46-.93.47-1 1-1.92 1.45-2.87.15-.29.3-.59.46-.88.63-1.19 1.29-2.36 2-3.53.12-.22.26-.43.38-.65.61-1 1.22-2 1.86-3l.54-.86c.78-1.21 1.58-2.41 2.4-3.59l.4-.55c.86-1.23 1.75-2.43 2.66-3.62.11-.13.21-.27.31-.41 1.15-1.47 2.32-2.89 3.53-4.29l.42-.49c.77-.88 1.55-1.74 2.34-2.59l.17-.18c.74-.78 1.49-1.54 2.24-2.29.18-.19.37-.36.56-.55 1.06-1 2.14-2 3.23-3l.23-.21c1.13-1 2.28-1.93 3.44-2.85l.66-.51c1.14-.88 2.29-1.72 3.45-2.51l.63-.42c1.22-.81 2.45-1.6 3.69-2.31l176.3-101.79c1-.58 2-1.1 3-1.59.22-.09.51-.22.79-.36z" fill="#5353c9"/><path d="M1640.31 529.16c26-15 47.31-2.85 47.39 27l.57 202.6c.09 29.84-21.09 66.53-47.08 81.53l-176.3 101.79c-26 15-47.29 2.85-47.38-27l-.57-202.6c-.08-29.84 21.1-66.53 47.07-81.52z" fill="#8183f7"/><path d="M1554.67 636.52c-48.67 28.1-88.13 96.44-88.13 152.63s39.46 79 88.13 50.88 88.12-96.43 88.12-152.63l-88.12 50.88z" fill="#fff"/><path d="M1568.83 609.26V711l88.17-50.86c0-56.2-39.5-78.98-88.17-50.88z" fill="#fff"/><path d="M281.93 922.7c.74-.35 1.47-.69 2.2-1l.82-.35c.66-.27 1.32-.52 2-.75l.63-.24c.85-.29 1.7-.55 2.53-.78.57-.15 1.12-.28 1.67-.41l.49-.12q1.08-.22 2.13-.39c1.06-.16 2.11-.25 3.13-.31h3.81c.74.06 1.46.15 2.18.26l.66.11a23.31 23.31 0 0 1 2.37.55c.75.22 1.48.49 2.2.78l.6.25c.6.27 1.19.55 1.76.86l.57.3L257 889.68l-.26-.15c-.1-.06-.21-.09-.31-.15-.57-.31-1.16-.6-1.76-.86l-.32-.16-.28-.09c-.72-.29-1.45-.56-2.2-.78a22.7 22.7 0 0 0-2.37-.55l-.29-.07h-.37c-.72-.11-1.44-.2-2.18-.26h-.42c-.9-.06-1.82-.06-2.75 0h-.63a31.17 31.17 0 0 0-3.14.31c-.69.11-1.39.24-2.09.39l-.5.12c-.52.12-1 .24-1.56.38h-.1c-.84.23-1.69.49-2.54.78l-.62.23c-.66.24-1.32.48-2 .76l-.3.11-.52.24c-.73.31-1.46.65-2.2 1l-.86.42c-1 .5-2 1-3 1.59L47.07 994.69c-1.24.72-2.47 1.5-3.69 2.31l-.63.43c-1.16.79-2.31 1.63-3.45 2.5l-.66.52c-1.16.91-2.31 1.85-3.44 2.84l-.23.22c-1.09 1-2.17 2-3.23 3l-.34.31-.22.23c-.76.75-1.5 1.51-2.23 2.29l-.18.19c-.8.84-1.57 1.71-2.34 2.59l-.18.2a3.36 3.36 0 0 0-.24.29c-1.21 1.39-2.38 2.82-3.53 4.29l-.08.1-.23.31c-.91 1.18-1.8 2.39-2.66 3.61-.09.13-.19.25-.27.37a2.14 2.14 0 0 0-.13.19c-.82 1.17-1.62 2.37-2.4 3.58-.07.12-.15.22-.22.34l-.33.52c-.63 1-1.25 2-1.85 3l-.28.47a1.62 1.62 0 0 0-.1.18c-.68 1.17-1.34 2.35-2 3.54l-.17.29-.29.58c-.5 1-1 1.91-1.45 2.87-.1.2-.21.39-.3.59s-.11.23-.16.34c-.58 1.21-1.14 2.43-1.67 3.65l-.06.13-.18.44c-.47 1.09-.91 2.18-1.34 3.27-.07.19-.15.37-.22.55s-.1.29-.16.43c-.49 1.31-1 2.62-1.41 3.93a.49.49 0 0 1 0 .11l-.09.32c-.44 1.33-.85 2.66-1.22 4-.05.17-.11.33-.16.5l-.06.25c-.43 1.58-.82 3.16-1.16 4.73 0 .14-.07.28-.1.43s-.07.38-.11.57c-.13.62-.25 1.23-.36 1.84-.08.43-.16.86-.23 1.28-.1.64-.19 1.27-.28 1.91-.05.3-.1.6-.14.9v.22c-.17 1.35-.3 2.69-.4 4v.86c-.08 1.36-.13 2.72-.13 4.06l.57 202.6c.05 14.82 5.33 25.28 13.82 30.22l54.74 31.81c-8.49-4.94-13.77-15.4-13.82-30.22L54.74 1108c0-1.34 0-2.7.13-4.06 0-.29 0-.57.05-.86.1-1.33.23-2.67.4-4 0-.37.1-.75.16-1.13.09-.63.18-1.26.28-1.9.07-.43.15-.85.23-1.28.11-.61.23-1.22.35-1.83.07-.34.15-.68.22-1 .34-1.57.73-3.15 1.16-4.73l.21-.75c.38-1.34.79-2.67 1.23-4 0-.14.09-.28.13-.42.44-1.31.92-2.62 1.41-3.93l.38-1c.43-1.09.87-2.18 1.34-3.27l.24-.57c.53-1.22 1.09-2.44 1.67-3.64l.45-.94c.47-1 1-1.92 1.46-2.86.15-.3.3-.59.46-.88.63-1.19 1.29-2.37 2-3.53l.39-.66c.6-1 1.22-2 1.85-3 .18-.28.36-.57.55-.85.78-1.22 1.58-2.41 2.4-3.59l.4-.56c.86-1.22 1.75-2.43 2.66-3.61l.31-.41c1.15-1.47 2.32-2.9 3.53-4.29.14-.16.27-.33.42-.49.77-.88 1.54-1.75 2.34-2.59l.17-.19c.74-.78 1.48-1.54 2.24-2.29l.56-.54q1.59-1.56 3.23-3l.23-.22c1.13-1 2.28-1.93 3.44-2.84l.66-.52c1.14-.87 2.29-1.71 3.45-2.51l.63-.42c1.22-.81 2.44-1.59 3.69-2.31l176.3-101.79c1-.57 2-1.09 3-1.59z" fill="#94159e"/><path d="M278.11 924.71c26-15 47.3-2.85 47.39 27l.57 202.61c.09 29.84-21.09 66.53-47.08 81.53l-176.3 101.79c-26 15-47.29 2.84-47.38-27L54.74 1108c-.09-29.84 21.1-66.53 47.07-81.53z" fill="#ce29d3"/><path d="M245.51 1101.22c0 15.88-5.56 33.47-14.54 49.09l24.76 28.41c20.76-32 34.24-69.5 34.24-103.17 0-25.18-7.69-43.64-20.1-54.94l-32.23 54.29c4.92 6.1 7.87 14.94 7.87 26.32zM224 1066.27l32.16-54.18c-11.59-4.62-25.33-5.12-40.71-.06l-4.87 54.57a31.73 31.73 0 0 1 13.42-.33zm-28.51 121.58c-27.62 16-50 3-50-28.87a88.09 88.09 0 0 1 4.71-26.88l-36-9.65c-8.13 20.82-13.13 42.2-13.13 62.2 0 60.25 42.29 84.67 94.47 54.54 15.92-9.19 30.68-22.68 43.84-38.3l-24.78-28.43a85.8 85.8 0 0 1-19.11 15.39zm-4.56-112.34l4.88-54.65c-.1.06-.21.08-.32.15-27.74 16-52.44 44.33-69.73 76.3l36.13 9.67c7.82-12.76 17.89-23.85 29.04-31.47z" fill="#fff"/><path d="M2107.25 505.88c.74-.36 1.47-.69 2.2-1l.82-.35c.66-.27 1.32-.52 2-.75l.63-.23c.85-.29 1.7-.55 2.53-.78.56-.16 1.12-.29 1.67-.41l.49-.12q1.08-.24 2.13-.39a31 31 0 0 1 3.13-.32h3.81c.74.05 1.46.14 2.18.25l.66.11c.8.15 1.6.33 2.37.55.75.22 1.48.49 2.2.78l.6.26c.6.26 1.19.55 1.76.86l.57.29-54.74-31.81-.26-.15-.31-.14a19.08 19.08 0 0 0-1.76-.86c-.11-.05-.21-.12-.32-.16l-.28-.1c-.72-.29-1.45-.56-2.2-.78-.77-.22-1.57-.4-2.37-.55-.1 0-.19-.05-.29-.06l-.37-.05c-.72-.11-1.44-.2-2.18-.25h-.42c-.9-.05-1.82-.05-2.75 0h-.63a31.23 31.23 0 0 0-3.14.32c-.69.11-1.39.23-2.09.39-.17 0-.34.08-.5.12-.52.11-1 .23-1.56.37h-.1c-.84.23-1.69.49-2.54.78l-.62.23q-1 .35-2 .75l-.3.11-.52.24c-.73.31-1.46.65-2.2 1l-.86.42c-1 .49-2 1-3 1.59l-176.3 101.79c-1.24.71-2.47 1.49-3.69 2.31l-.63.42c-1.17.79-2.31 1.63-3.45 2.51l-.66.51c-1.16.92-2.31 1.86-3.44 2.85l-.23.21c-1.09 1-2.17 2-3.23 3l-.34.32a2.39 2.39 0 0 0-.22.23c-.76.75-1.5 1.51-2.24 2.29l-.17.18c-.8.85-1.57 1.71-2.34 2.59l-.18.2c-.09.09-.16.2-.24.29-1.21 1.4-2.38 2.82-3.53 4.29a.39.39 0 0 1-.08.1l-.23.31c-.91 1.19-1.8 2.39-2.66 3.62-.09.12-.19.24-.27.36l-.13.19c-.82 1.18-1.62 2.38-2.4 3.59l-.22.33c-.12.17-.22.35-.33.53-.63 1-1.25 2-1.85 3l-.28.47a1.62 1.62 0 0 0-.1.18c-.68 1.16-1.34 2.34-2 3.53l-.17.29-.29.59c-.5.95-1 1.9-1.46 2.86-.09.2-.2.4-.29.6s-.11.23-.16.34c-.58 1.21-1.14 2.42-1.67 3.64l-.06.14-.18.43c-.47 1.09-.91 2.18-1.34 3.28-.07.18-.15.36-.22.55s-.1.28-.16.42c-.49 1.31-1 2.62-1.41 3.93a.56.56 0 0 1 0 .12l-.09.31a101.8 101.8 0 0 0-1.23 4c0 .17-.1.34-.15.5l-.06.26c-.43 1.57-.82 3.15-1.16 4.72 0 .15-.07.29-.1.43s-.07.38-.11.58c-.13.61-.25 1.23-.36 1.84-.08.42-.16.85-.23 1.27-.1.64-.19 1.28-.28 1.91 0 .3-.1.61-.14.91v.21c-.17 1.35-.3 2.69-.4 4v.86c-.08 1.37-.13 2.72-.13 4.06l.57 202.6c0 14.83 5.33 25.29 13.82 30.22l54.66 31.89c-8.49-4.93-13.78-15.39-13.82-30.22l-.57-202.6c0-1.34 0-2.69.13-4.05v-.87c.1-1.33.23-2.67.4-4 0-.37.1-.75.15-1.12.09-.64.19-1.27.29-1.9.07-.43.15-.86.23-1.29.11-.61.23-1.22.35-1.83.07-.33.15-.67.22-1 .34-1.57.73-3.15 1.16-4.72l.21-.76c.38-1.33.79-2.67 1.23-4 0-.13.08-.27.13-.41.44-1.32.92-2.63 1.41-3.94.13-.32.25-.65.38-1 .43-1.1.87-2.19 1.34-3.28l.24-.57c.53-1.22 1.09-2.43 1.67-3.64l.45-.94c.47-1 1-1.91 1.46-2.86.15-.29.3-.59.46-.88.63-1.19 1.29-2.37 2-3.53l.39-.65c.6-1 1.22-2 1.85-3 .18-.29.36-.58.55-.86.78-1.21 1.58-2.41 2.4-3.59l.39-.55c.87-1.23 1.76-2.43 2.67-3.62.11-.13.21-.27.31-.41 1.14-1.47 2.32-2.89 3.53-4.29.14-.16.27-.33.42-.49.76-.88 1.54-1.74 2.33-2.59l.18-.18c.74-.78 1.48-1.54 2.24-2.29.18-.19.37-.36.56-.55 1.06-1 2.13-2 3.23-3l.23-.21c1.13-1 2.28-1.93 3.44-2.85l.66-.51c1.14-.88 2.28-1.72 3.45-2.51l.63-.42c1.22-.81 2.44-1.6 3.69-2.31l176.3-101.79c1-.58 2-1.1 3-1.59z" fill="#e57f23"/><path d="M2103.43 507.89c26-15 47.3-2.85 47.39 27l.57 202.6c.09 29.84-21.1 66.53-47.08 81.53L1928 920.8c-26 15-47.29 2.84-47.38-27l-.57-202.6c-.09-29.84 21.1-66.53 47.07-81.52z" fill="#fcc454"/><path d="M2022.76 813.71c-55.65 32.13-100.92 6-100.92-58.26s45.27-142.67 100.92-174.8v21.29c-45.48 26.26-82.48 90.34-82.48 142.86s37 73.88 82.48 47.62 82.47-90.35 82.47-142.86l18.45-10.65c0 64.26-45.28 142.67-100.92 174.8z" fill="#fff"/><path d="M2022.76 771.12v-21.3c25.13-14.51 45.59-49.93 45.59-79s-20.46-40.84-45.59-26.32-45.6 49.93-45.6 79l-18.44 10.65c0-40.77 28.73-90.52 64-110.91s64-3.8 64 37-28.66 90.49-63.96 110.88z" fill="#fff"/><path d="M710.68 1156.53c23.77-13.72 43.26-2.61 43.34 24.68l.53 185.29c.07 27.29-19.3 60.85-43.06 74.57l-161.24 93.09c-23.75 13.71-43.25 2.6-43.33-24.69l-.52-185.29c-.08-27.29 19.29-60.85 43-74.56z" opacity=".55" fill="url(#b)"/><path d="M572.84 1847.41c23.77-13.72 43.27-2.6 43.34 24.69l.53 185.29c.08 27.29-19.3 60.84-43.06 74.56L412.41 2225c-23.75 13.71-43.25 2.6-43.32-24.69l-.53-185.29c-.08-27.29 19.3-60.84 43.05-74.56z" opacity=".55" fill="url(#i)"/><path d="M1968.19 952.51c23.76-13.72 43.26-2.61 43.34 24.68l.52 185.29c.08 27.29-19.29 60.84-43 74.56l-161.24 93.09c-23.75 13.72-43.25 2.6-43.33-24.69l-.52-185.29c-.08-27.29 19.29-60.84 43-74.55z" opacity=".55" fill="url(#j)"/><path d="M1908.86 40c23.76-13.72 43.26-2.6 43.34 24.69l.52 185.29c.08 27.29-19.29 60.84-43.06 74.56l-161.23 93.06c-23.75 13.71-43.25 2.6-43.33-24.69l-.53-185.29c-.07-27.29 19.3-60.84 43-74.56z" opacity=".55" fill="url(#k)"/><path d="M347.75 396.12c23.76-13.72 43.26-2.61 43.34 24.68l.52 185.29c.08 27.29-19.29 60.84-43.05 74.56l-161.24 93.09c-23.75 13.72-43.25 2.6-43.33-24.69l-.52-185.29c-.08-27.29 19.29-60.84 43-74.55z" opacity=".55" fill="url(#l)"/><path d="M1085.7 490.48c23.77-13.72 43.27-2.61 43.34 24.68l.53 185.29c.08 27.29-19.3 60.85-43.06 74.57l-161.24 93.09c-23.75 13.71-43.25 2.6-43.32-24.69l-.53-185.29c-.08-27.29 19.3-60.85 43.05-74.56z" opacity=".55" fill="url(#m)"/><path d="M274.43 1451.92c.71-.34 1.41-.66 2.11-1l.78-.34c.64-.26 1.26-.49 1.89-.71l.6-.23c.81-.27 1.62-.52 2.42-.74.54-.15 1.07-.28 1.59-.4l.48-.11c.68-.15 1.35-.27 2-.37a28.74 28.74 0 0 1 3-.3h3.64c.71 0 1.4.14 2.08.25l.63.1c.77.14 1.53.31 2.27.52a20.85 20.85 0 0 1 2.1.74l.58.24c.57.26 1.13.53 1.68.83l.54.28-52.32-30.41a2 2 0 0 1-.25-.14l-.29-.14c-.55-.3-1.11-.57-1.68-.82l-.32-.16-.26-.09a22 22 0 0 0-2.11-.74c-.74-.22-1.5-.38-2.27-.53l-.28-.06h-.35c-.68-.11-1.38-.19-2.08-.24h-3.64a28.74 28.74 0 0 0-3 .3c-.66.1-1.33.23-2 .37l-.47.12c-.5.11-1 .22-1.49.36h-.1q-1.2.33-2.43.75c-.19.06-.4.15-.59.22q-.94.33-1.89.72l-.28.1-.5.23c-.7.3-1.4.62-2.11 1l-.82.4c-.93.48-1.88 1-2.83 1.52l-168.52 97.3c-1.19.69-2.36 1.43-3.52 2.21l-.61.41a65.41 65.41 0 0 0-3.3 2.39l-.63.5q-1.66 1.3-3.28 2.71l-.23.21c-1 .92-2.07 1.88-3.08 2.87l-.33.31-.21.22c-.72.71-1.43 1.44-2.14 2.19l-.17.17c-.75.81-1.5 1.64-2.23 2.48l-.18.19-.22.28a96.661 96.661 0 0 0-3.37 4.1.39.39 0 0 0-.08.1c-.08.09-.14.19-.22.29q-1.3 1.7-2.55 3.46l-.26.35a1.77 1.77 0 0 1-.12.17c-.78 1.13-1.55 2.27-2.29 3.43l-.22.32-.3.5c-.61 1-1.2 1.93-1.77 2.9l-.28.45-.09.17c-.65 1.12-1.28 2.24-1.88 3.38-.05.09-.11.18-.16.28s-.19.37-.28.56c-.48.91-.94 1.82-1.39 2.74-.09.19-.2.37-.29.56l-.15.33q-.82 1.74-1.59 3.48l-.06.13-.17.42c-.45 1-.87 2.08-1.28 3.13l-.22.52c0 .14-.09.28-.14.41a88.9 88.9 0 0 0-1.35 3.76v.11l-.09.3a92.75 92.75 0 0 0-1.17 3.82c0 .16-.1.32-.15.48s0 .16 0 .24c-.42 1.51-.78 3-1.11 4.52 0 .14-.07.27-.1.41s-.07.37-.11.55c-.12.59-.23 1.18-.34 1.76-.07.41-.15.82-.22 1.22-.1.61-.18 1.22-.27 1.83 0 .28-.09.57-.13.86v.2c-.17 1.29-.29 2.58-.38 3.85v.82c-.08 1.3-.13 2.6-.12 3.88l.55 193.66c0 14.17 5.09 24.17 13.2 28.88l52.14 30.4c-8.11-4.71-13.16-14.71-13.2-28.88l-.55-193.66c0-1.28 0-2.58.12-3.88v-.83c.1-1.27.22-2.55.38-3.84l.15-1.07c.09-.61.18-1.21.28-1.82.07-.41.14-.82.22-1.23.1-.58.21-1.16.33-1.75l.21-1c.33-1.51.7-3 1.11-4.52.06-.24.14-.48.2-.72.37-1.28.75-2.56 1.17-3.83 0-.13.09-.27.13-.4.42-1.26.88-2.51 1.35-3.76l.36-.93c.41-1 .84-2.09 1.28-3.13.08-.19.15-.37.23-.55q.76-1.75 1.59-3.48c.15-.3.3-.6.44-.9.45-.91.91-1.83 1.39-2.73.15-.28.29-.57.44-.84.61-1.14 1.23-2.27 1.88-3.38l.37-.62c.58-1 1.17-1.94 1.77-2.9l.52-.82c.75-1.16 1.51-2.3 2.3-3.43.12-.18.25-.35.38-.53.82-1.17 1.67-2.32 2.54-3.45l.3-.4c1.09-1.4 2.22-2.76 3.37-4.1l.4-.47c.74-.84 1.48-1.66 2.24-2.47l.17-.18q1.13-1.11 2.2-2.11l.54-.52q1.52-1.49 3.09-2.88l.22-.2c1.08-.95 2.18-1.85 3.28-2.72l.64-.49c1.08-.84 2.18-1.64 3.29-2.4l.61-.4c1.16-.78 2.33-1.53 3.52-2.21l168.52-97.3c1-.55 1.9-1 2.84-1.52z" fill="#e57f23"/><path d="M270.78 1453.84c24.84-14.34 45.22-2.72 45.3 25.8l.55 193.66c.08 28.53-20.17 63.6-45 77.94l-168.53 97.3c-24.82 14.33-45.2 2.71-45.28-25.81l-.55-193.66c-.08-28.53 20.17-63.6 45-77.93z" fill="#fcc454"/><path d="M651.16 697.13c.74-.36 1.47-.7 2.2-1l.82-.35c.66-.27 1.32-.52 2-.75l.63-.23c.85-.3 1.7-.56 2.54-.78.56-.16 1.11-.29 1.66-.42.17 0 .33-.08.5-.12.71-.15 1.42-.28 2.12-.39 1.06-.16 2.11-.25 3.14-.31h3.8c.74.05 1.46.14 2.18.25l.66.11c.81.15 1.6.33 2.37.55.75.22 1.48.49 2.2.78l.61.26c.59.26 1.18.54 1.75.85.19.11.38.2.57.3l-54.73-31.78-.26-.15c-.1-.05-.21-.09-.31-.15-.57-.31-1.15-.59-1.75-.86-.12 0-.22-.11-.33-.15l-.28-.1a22.9 22.9 0 0 0-2.2-.78 22.7 22.7 0 0 0-2.37-.55l-.29-.07h-.37c-.71-.11-1.44-.2-2.18-.25h-.42c-.9-.05-1.81-.06-2.75 0h-.63c-1 .06-2.08.15-3.14.31-.69.1-1.39.23-2.09.38-.17 0-.33.09-.5.12-.52.12-1 .24-1.56.38h-.1c-.84.23-1.69.49-2.54.79l-.62.23c-.66.23-1.31.48-2 .75l-.3.11-.52.24c-.73.31-1.46.65-2.2 1l-.85.41c-1 .5-2 1-3 1.6L416.3 769.11c-1.24.72-2.47 1.5-3.68 2.31l-.64.43c-1.16.79-2.31 1.63-3.45 2.5l-.66.52a76.13 76.13 0 0 0-3.43 2.85l-.24.21q-1.63 1.46-3.23 3l-.34.32-.22.23c-.75.74-1.5 1.51-2.23 2.28l-.18.24c-.79.84-1.57 1.71-2.34 2.59l-.18.2-.24.29q-1.82 2.09-3.52 4.29l-.09.1-.23.31c-.91 1.18-1.79 2.39-2.66 3.62l-.27.36c-.05.06-.08.13-.13.19-.82 1.18-1.62 2.37-2.4 3.59l-.22.33c-.11.17-.21.35-.32.53-.64 1-1.25 2-1.86 3l-.28.46a1.74 1.74 0 0 0-.1.19c-.68 1.16-1.34 2.34-2 3.53l-.16.29c-.11.19-.2.39-.3.59-.5.95-1 1.9-1.45 2.86-.1.2-.21.39-.3.59s-.11.23-.16.35c-.58 1.2-1.14 2.42-1.67 3.64l-.06.14-.18.43c-.46 1.09-.91 2.18-1.34 3.27-.07.19-.15.37-.22.55s-.1.29-.16.43c-.49 1.31-1 2.62-1.4 3.93a1.17 1.17 0 0 1-.05.11l-.09.32c-.44 1.33-.85 2.67-1.22 4-.05.17-.11.33-.16.5a1.83 1.83 0 0 1-.06.25c-.43 1.58-.81 3.16-1.16 4.73 0 .14-.07.29-.1.43s-.07.38-.11.57c-.13.62-.25 1.23-.36 1.85-.07.42-.15.85-.22 1.27-.11.64-.2 1.28-.29 1.91-.05.3-.1.61-.14.91v.21c-.17 1.35-.3 2.69-.4 4 0 .29 0 .57-.05.86-.08 1.36-.13 2.72-.13 4.06l.58 202.6c0 14.83 5.32 25.28 13.81 30.22l54.74 31.81c-8.49-4.94-13.77-15.39-13.82-30.22L424 882.45c0-1.34 0-2.69.13-4.06v-.86c.1-1.33.23-2.67.4-4 .05-.37.1-.75.16-1.12.09-.64.18-1.27.28-1.91.07-.42.15-.85.23-1.28q.16-.91.36-1.83c.06-.34.14-.67.21-1 .34-1.57.73-3.15 1.16-4.72.07-.26.14-.51.22-.76.37-1.34.78-2.67 1.22-4 .05-.14.09-.28.13-.41.44-1.32.92-2.63 1.41-3.94.13-.32.25-.65.38-1 .43-1.1.87-2.19 1.34-3.28l.24-.57c.53-1.22 1.09-2.43 1.67-3.64.15-.32.3-.63.46-.94.47-1 1-1.91 1.45-2.86.15-.3.3-.59.46-.88.63-1.19 1.29-2.37 2-3.53.12-.22.26-.44.38-.65.61-1 1.22-2 1.86-3l.54-.85c.78-1.21 1.58-2.41 2.4-3.59.13-.19.27-.37.4-.55q1.29-1.84 2.66-3.62c.11-.13.21-.27.31-.41 1.15-1.47 2.32-2.9 3.53-4.29l.42-.49c.77-.88 1.54-1.75 2.34-2.59l.17-.18c.74-.78 1.49-1.55 2.24-2.29.18-.19.37-.37.56-.55 1.06-1 2.14-2 3.23-3l.23-.21q1.69-1.49 3.44-2.85l.66-.52c1.14-.87 2.29-1.71 3.45-2.5l.63-.42c1.22-.82 2.45-1.6 3.69-2.31l176.3-101.79c1-.58 2-1.1 3-1.6z" fill="#1ea58b"/><path d="M647.34 699.14c26-15 47.31-2.86 47.39 27l.57 202.6c.09 29.84-21.09 66.53-47.08 81.53l-176.3 101.79c-26 15-47.29 2.84-47.38-27L424 882.45c-.08-29.84 21.1-66.53 47.07-81.52z" fill="#27e0c0"/><ellipse cx="590.61" cy="832.61" rx="32.6" ry="18.82" transform="rotate(-60 590.606 832.6)" fill="#fff"/><path d="M590.61 879.61c-27.25 15.73-49.35 54-49.35 85.47l98.7-57c.04-31.45-22.09-44.21-49.35-28.47zm-97.98 9.57c0-14.71 10.33-32.58 23.06-39.94s23-1.39 23 13.31-10.32 32.58-23 39.94-23.06 1.39-23.06-13.31z" fill="#fff"/><path d="M515.69 922.87c-27.26 15.73-49.35 54-49.35 85.47l98.7-57c-.04-31.45-22.1-44.21-49.35-28.47z" fill="#fff"/><ellipse cx="643.57" cy="917.87" rx="44.7" ry="25.81" transform="rotate(-60 643.556 917.869)" fill="#fff"/><path d="M660.71 913.67l-34.28 19.79c-2.35 1.36-4.27-.09-4.27-3.22 0-3.14 1.92-6.81 4.27-8.16l34.28-19.79c2.35-1.36 4.27.09 4.27 3.22.02 3.13-1.92 6.81-4.27 8.16z" fill="#27e0c0"/><path d="M648.49 896.42v37.21c0 3.37-2.07 7.31-4.59 8.77l-.69.39c-2.52 1.46-4.58-.1-4.58-3.46v-37.21c0-3.37 2.07-7.31 4.59-8.77l.69-.39c2.52-1.46 4.58.1 4.58 3.46z" fill="#27e0c0"/><path d="M1600.08 1177.54c.73-.36 1.47-.69 2.2-1l.82-.36c.66-.27 1.32-.51 2-.75l.63-.23c.85-.29 1.7-.55 2.53-.78.56-.16 1.12-.29 1.67-.41l.49-.12c.72-.16 1.42-.28 2.12-.39a31.53 31.53 0 0 1 3.14-.32h3.81c.74.06 1.46.14 2.18.26.22 0 .44.06.66.11a23.28 23.28 0 0 1 2.37.54c.75.22 1.48.49 2.2.78l.6.26c.6.26 1.19.55 1.76.86.19.1.38.19.56.3l-54.73-31.81-.27-.15a2.8 2.8 0 0 0-.3-.15c-.57-.31-1.16-.6-1.76-.86l-.32-.16-.28-.1c-.72-.29-1.45-.56-2.2-.78-.77-.22-1.57-.4-2.37-.55-.1 0-.19 0-.29-.06h-.37c-.72-.11-1.44-.19-2.18-.25h-3.81a31.53 31.53 0 0 0-3.14.32c-.69.11-1.38.24-2.09.39l-.49.12c-.52.12-1 .23-1.56.38h-.11c-.83.23-1.68.49-2.53.78l-.63.23c-.65.23-1.31.48-2 .75l-.3.11-.52.24c-.73.32-1.46.65-2.2 1l-.86.42c-1 .49-2 1-3 1.59l-176.3 101.79c-1.25.71-2.47 1.49-3.69 2.31l-.64.42a66.89 66.89 0 0 0-3.44 2.51l-.66.51c-1.16.92-2.31 1.86-3.44 2.85l-.23.21c-1.1 1-2.17 2-3.23 3l-.34.32-.23.23c-.75.75-1.49 1.51-2.23 2.29l-.18.18c-.79.85-1.57 1.71-2.33 2.59l-.19.2a3.36 3.36 0 0 1-.24.29c-1.2 1.4-2.38 2.82-3.52 4.29l-.08.11-.23.3c-.91 1.19-1.8 2.39-2.67 3.62-.08.12-.18.24-.27.37l-.12.18c-.82 1.18-1.62 2.38-2.4 3.59l-.23.33c-.11.18-.21.36-.32.53-.63 1-1.25 2-1.85 3l-.28.47-.11.18c-.67 1.17-1.33 2.34-2 3.53l-.17.29c-.1.2-.19.4-.3.59-.49 1-1 1.9-1.45 2.87-.09.19-.2.39-.3.59l-.15.34c-.58 1.21-1.14 2.42-1.67 3.64l-.06.14c-.07.14-.12.29-.18.43-.47 1.09-.91 2.18-1.34 3.28-.07.18-.15.36-.22.55s-.1.28-.16.43c-.49 1.3-1 2.61-1.41 3.93v.11c0 .04-.06.21-.1.31-.43 1.34-.84 2.67-1.22 4 0 .17-.1.34-.15.51l-.06.25c-.43 1.58-.82 3.15-1.16 4.72 0 .15-.08.29-.11.43s-.07.39-.11.58c-.12.61-.24 1.23-.35 1.84-.08.43-.16.85-.23 1.28-.1.63-.2 1.27-.29 1.91 0 .3-.09.6-.13.9a1.49 1.49 0 0 0 0 .21c-.18 1.35-.3 2.69-.4 4v.85c-.08 1.37-.14 2.72-.13 4.06l.57 202.61c0 14.82 5.33 25.28 13.82 30.21l54.74 31.81c-8.49-4.93-13.78-15.39-13.82-30.21l-.57-202.61c0-1.33 0-2.69.13-4v-.87c.09-1.33.22-2.67.39-4 0-.38.11-.75.16-1.13.09-.63.18-1.27.29-1.9.07-.43.15-.86.23-1.28.11-.61.23-1.23.35-1.84.07-.33.15-.67.22-1 .34-1.57.72-3.14 1.16-4.72l.21-.75c.38-1.34.79-2.68 1.23-4 0-.14.08-.28.13-.42.44-1.32.91-2.63 1.41-3.94.12-.32.25-.64.38-1 .43-1.09.87-2.19 1.34-3.28.08-.19.15-.38.24-.57.53-1.22 1.09-2.43 1.66-3.64l.46-.93c.47-1 1-1.92 1.45-2.87.16-.29.31-.59.46-.88.64-1.19 1.29-2.36 2-3.53l.39-.65c.6-1 1.22-2 1.85-3l.54-.86c.78-1.21 1.58-2.41 2.41-3.59l.39-.55c.87-1.23 1.76-2.43 2.67-3.62l.31-.41c1.14-1.46 2.32-2.89 3.52-4.29l.42-.49c.77-.88 1.55-1.74 2.34-2.59l.18-.18c.74-.78 1.48-1.54 2.24-2.29.18-.19.37-.36.56-.54 1.06-1 2.13-2.05 3.23-3l.23-.21c1.13-1 2.28-1.93 3.44-2.84l.66-.52c1.13-.88 2.28-1.72 3.45-2.51l.63-.42c1.22-.81 2.44-1.59 3.68-2.31l176.31-101.79c1-.58 2-1.1 3-1.59z" fill="#b71d1d"/><path d="M1596.26 1179.55c26-15 47.3-2.85 47.39 27l.57 202.6c.09 29.84-21.1 66.53-47.08 81.53l-176.3 101.79c-26 15-47.29 2.85-47.38-27l-.57-202.61c-.09-29.84 21.09-66.53 47.06-81.52z" fill="#e23737"/><path d="M1500.54 1267.62v-19.75l20-11.53v19.75q48.46-20.28 56.08 30.18l-30.42 27.44q-5.7-27.42-25.66-22.5v61.46q61.77-17 60.83 34-3.81 60.38-60.83 99.86v23l-20 11.52v-23q-53.24 24.15-64.62-31.82l30.41-27.44q4.74 39 34.21 26.34v-71.33q-60.82 17.58-58-29.08 2.88-57.59 58-97.1zm-1 91.63v-57.06q-25.65 19.21-26.61 45 .07 16.45 26.66 12.06zm20.91 29.63v65.84q29.45-20.28 30.41-51.57 2.9-23.59-30.36-14.27z" fill="#fff"/><path d="M1193.89 929.89c.74-.36 1.48-.69 2.2-1l.83-.35a31.7 31.7 0 0 1 2-.75l.62-.23c.86-.29 1.7-.55 2.54-.78.56-.16 1.12-.29 1.67-.41l.49-.12c.71-.16 1.42-.29 2.12-.39a31.53 31.53 0 0 1 3.14-.32h3.81c.73.05 1.46.14 2.17.25l.66.11c.81.15 1.61.33 2.38.55a23.1 23.1 0 0 1 2.21.78l.6.26c.6.26 1.19.55 1.76.86l.56.29-54.74-31.81-.26-.14-.3-.15c-.57-.31-1.16-.6-1.76-.86a3.36 3.36 0 0 0-.33-.16l-.27-.1a23.1 23.1 0 0 0-2.21-.78c-.77-.22-1.57-.4-2.38-.55l-.28-.06h-.38c-.71-.11-1.43-.2-2.17-.25h-.42c-.9-.05-1.82-.05-2.75 0a2.61 2.61 0 0 0-.28 0h-.36a31.53 31.53 0 0 0-3.14.32c-.69.11-1.38.24-2.09.39l-.49.12c-.52.11-1 .23-1.56.37h-.11c-.84.23-1.68.49-2.54.78l-.62.23c-.65.23-1.31.48-2 .75l-.3.11-.52.24c-.73.32-1.47.65-2.2 1l-.86.42c-1 .49-2 1-3 1.59L959 1001.88c-1.24.71-2.46 1.49-3.68 2.31l-.64.42a66.89 66.89 0 0 0-3.44 2.51l-.66.51c-1.16.92-2.31 1.86-3.44 2.85l-.23.21c-1.1 1-2.17 2-3.23 3l-.34.32-.23.23c-.75.75-1.49 1.51-2.23 2.29l-.18.18c-.79.85-1.57 1.71-2.34 2.59l-.18.2-.24.29c-1.2 1.4-2.38 2.82-3.52 4.29l-.08.1-.23.31c-.91 1.19-1.8 2.39-2.67 3.62l-.27.36-.12.19c-.83 1.18-1.62 2.38-2.41 3.59l-.22.33c-.11.17-.21.35-.32.53-.63 1-1.25 2-1.85 3-.09.16-.19.31-.29.47a1.62 1.62 0 0 1-.1.18c-.68 1.16-1.33 2.34-2 3.53l-.16.29c-.1.2-.19.4-.3.59-.49 1-1 1.9-1.45 2.86l-.3.6c-.05.11-.1.23-.16.34-.57 1.21-1.13 2.42-1.66 3.64l-.07.14c-.06.14-.11.29-.17.43-.47 1.09-.91 2.18-1.34 3.28-.07.18-.16.36-.23.55l-.15.42q-.75 2-1.41 3.93v.12c0 .1-.06.21-.1.31-.44 1.34-.84 2.67-1.22 4 0 .17-.11.34-.15.5l-.06.26c-.44 1.57-.82 3.15-1.16 4.72 0 .15-.08.29-.11.43s-.07.38-.11.58c-.12.61-.24 1.23-.35 1.84-.08.42-.16.85-.23 1.27-.11.64-.2 1.28-.29 1.91 0 .31-.1.61-.13.91v.21q-.25 2-.39 4v.86c-.08 1.37-.14 2.72-.13 4.06l.57 202.6c0 14.83 5.33 25.29 13.81 30.22l54.68 31.84c-8.49-4.93-13.77-15.39-13.81-30.22l-.58-202.6c0-1.34 0-2.69.13-4l.06-.87q.14-2 .39-4c.05-.37.11-.75.16-1.12.09-.63.18-1.27.29-1.9.07-.43.15-.86.23-1.29.11-.61.22-1.22.35-1.83.07-.33.14-.67.22-1 .34-1.57.72-3.14 1.16-4.72.06-.25.14-.5.21-.76.38-1.33.78-2.67 1.22-4l.14-.42c.44-1.32.91-2.63 1.41-3.94.12-.32.25-.65.38-1 .42-1.1.87-2.19 1.34-3.28.08-.19.15-.38.24-.57.53-1.22 1.09-2.43 1.66-3.64.15-.31.31-.62.46-.94.47-1 1-1.91 1.45-2.86.16-.29.31-.59.46-.88.64-1.19 1.29-2.36 2-3.53l.39-.65c.6-1 1.22-2 1.85-3l.54-.86c.78-1.21 1.58-2.41 2.41-3.59l.39-.55c.87-1.23 1.76-2.43 2.67-3.62l.31-.41c1.14-1.47 2.32-2.89 3.52-4.29l.42-.49c.77-.88 1.55-1.74 2.34-2.59l.18-.18c.73-.78 1.48-1.54 2.23-2.29.19-.19.38-.36.56-.55 1.07-1 2.14-2 3.23-3l.24-.21c1.13-1 2.28-1.93 3.43-2.85l.66-.51c1.14-.88 2.29-1.72 3.45-2.51l.64-.42c1.21-.81 2.44-1.6 3.68-2.31l176.28-101.85c1-.58 2-1.1 3-1.59z" fill="#b71d1d"/><path d="M1190.08 931.9c26-15 47.3-2.85 47.38 27l.58 202.6c.08 29.84-21.1 66.53-47.08 81.53l-176.31 101.79c-26 15-47.29 2.85-47.37-27l-.58-202.6c-.08-29.84 21.1-66.53 47.07-81.52z" fill="#e23737"/><path fill="#fff" d="M1196.78 1117.84l25.52-38.62-31.54-26.74-95.54 60.84-40.32-35.87-25.81 38.37 50.84 45.22 95.83-61.02 21.02 17.82z"/><path fill="#fff" d="M1077.41 1059.3l-63.11 6.16 8.84 73.13 54.27-79.29zm104.17 141.12l30.22-17.45v-64.96l-30.22 17.45v64.96zm-52.25 30.17l30.22-17.45v-85.75l-30.22 17.45v85.75zm-52.26 30.17l30.23-17.45v-79.43l-30.23 17.45v79.43zm-52.25 30.16l30.23-17.45v-119.88l-30.23 17.45v119.88z"/><path d="M933.88 151.94c.73-.35 1.47-.69 2.19-1l.83-.36c.66-.27 1.32-.51 2-.75l.63-.23c.85-.29 1.69-.55 2.53-.78.56-.15 1.12-.28 1.67-.41l.49-.12c.72-.15 1.42-.28 2.12-.39a31.46 31.46 0 0 1 3.14-.31h3.81c.74.06 1.46.14 2.17.26l.66.11a22.89 22.89 0 0 1 2.38.55 23 23 0 0 1 2.21.77l.6.26c.6.26 1.19.55 1.76.86.19.1.38.19.56.3l-54.74-31.81-.26-.15a2.8 2.8 0 0 0-.3-.15c-.57-.31-1.16-.6-1.76-.86l-.32-.16-.28-.1c-.72-.29-1.45-.55-2.2-.77-.77-.22-1.57-.39-2.37-.54l-.29-.07h-.37c-.72-.12-1.44-.2-2.18-.26h-.42c-.9-.05-1.82-.05-2.75 0a2.61 2.61 0 0 1-.28 0h-.36a31.46 31.46 0 0 0-3.14.31c-.69.11-1.38.24-2.09.39l-.49.12c-.52.12-1 .24-1.56.38h-.11c-.83.23-1.68.49-2.53.78l-.63.23c-.65.24-1.31.48-2 .75l-.3.12-.52.24c-.73.31-1.46.64-2.2 1l-.86.42c-1 .5-2 1-3 1.59L699 223.93c-1.24.72-2.46 1.5-3.68 2.31l-.64.42c-1.16.8-2.31 1.63-3.44 2.51l-.66.52c-1.16.91-2.31 1.85-3.44 2.84l-.23.22c-1.1 1-2.17 2-3.23 3l-.34.32c-.08.08-.15.16-.23.23-.75.75-1.49 1.51-2.23 2.29l-.18.19c-.79.84-1.57 1.71-2.34 2.58a1.71 1.71 0 0 1-.18.2c-.08.1-.15.2-.24.3-1.2 1.39-2.38 2.82-3.52 4.29a.39.39 0 0 0-.08.1l-.23.31c-.91 1.18-1.8 2.39-2.67 3.61-.08.13-.18.24-.27.37l-.12.19c-.82 1.17-1.62 2.37-2.4 3.58a4 4 0 0 0-.23.34l-.32.52c-.63 1-1.25 2-1.85 3-.09.16-.19.31-.29.47a1.62 1.62 0 0 1-.1.18c-.67 1.17-1.33 2.35-2 3.53l-.16.3c-.1.19-.19.39-.3.58-.49.95-1 1.91-1.45 2.87-.09.2-.2.39-.3.59l-.15.34c-.58 1.21-1.14 2.42-1.67 3.65l-.06.13c-.07.15-.12.29-.18.44-.47 1.08-.91 2.18-1.34 3.27-.07.18-.15.37-.23.55s-.09.29-.15.43c-.49 1.3-1 2.62-1.41 3.93v.11c0 .04-.06.21-.1.32-.43 1.33-.84 2.66-1.22 4 0 .16-.1.33-.15.5l-.06.25c-.44 1.58-.82 3.15-1.16 4.73 0 .14-.08.28-.11.43s-.07.38-.11.57c-.12.62-.24 1.23-.35 1.84-.08.43-.16.85-.23 1.28-.11.64-.2 1.27-.29 1.91 0 .3-.09.6-.13.9a1.49 1.49 0 0 0 0 .21c-.18 1.35-.3 2.7-.4 4v.86c-.08 1.36-.14 2.72-.13 4.05l.57 202.61c0 14.82 5.33 25.28 13.82 30.21l54.73 31.81c-8.49-4.93-13.77-15.39-13.81-30.21l-.57-202.6c0-1.34 0-2.7.13-4.06v-.86q.14-2 .39-4c0-.38.11-.75.16-1.13.09-.63.18-1.26.29-1.9.07-.43.15-.85.23-1.28.11-.61.23-1.22.35-1.83.07-.34.14-.68.22-1 .34-1.58.72-3.15 1.16-4.73l.21-.75c.38-1.34.79-2.68 1.23-4 0-.14.08-.28.13-.42q.66-2 1.41-3.93c.12-.33.25-.65.38-1 .42-1.09.87-2.18 1.34-3.27.08-.19.15-.38.24-.57.53-1.22 1.09-2.44 1.66-3.65l.46-.93c.47-1 1-1.92 1.45-2.87.16-.29.31-.58.46-.88.64-1.18 1.29-2.36 2-3.53l.34-.62c.6-1 1.22-2 1.85-3l.54-.85c.78-1.22 1.58-2.42 2.41-3.59l.39-.56c.87-1.22 1.76-2.43 2.67-3.61l.31-.41c1.14-1.47 2.32-2.9 3.52-4.29l.42-.49c.77-.88 1.55-1.75 2.34-2.59l.18-.19c.74-.78 1.48-1.54 2.23-2.29l.56-.54c1.07-1 2.14-2.05 3.24-3l.23-.22c1.13-1 2.28-1.93 3.44-2.84.22-.18.43-.35.66-.52a68.79 68.79 0 0 1 3.45-2.51l.63-.42c1.22-.81 2.44-1.59 3.68-2.31L930.06 154c1-.57 2-1.09 3-1.59z" fill="#b71d1d"/><path d="M930.06 154c26-15 47.3-2.85 47.39 27l.57 202.6c.09 29.85-21.1 66.54-47.08 81.54l-176.3 101.73c-26 15-47.3 2.84-47.38-27l-.57-202.6c-.09-29.85 21.09-66.54 47.06-81.53z" fill="#e23737"/><path d="M803.87 451.76l76.24-44c30.24-17.46 55-64.74 55-105.06 0-40.32-24.74-59-55-41.57l-76.24 44c-30.25 17.46-55 64.74-55 105.06.01 40.32 24.75 59.03 55 41.57z" fill="#ffc2c7"/><path fill="#ffc2c7" d="M928.63 329.01l20.02-11.55v-45.21l-20.02 11.56v45.2zm-23.18-68.97l21.22-19.48-9.36 27.89-11.86-8.41zm-106.18 183l-5.38 37.86-8.56-1.98-8.81 12.01v-46.76l22.75-1.13zm91.65-52.91l-5.39 37.86-8.56-1.98-8.81 12.01v-46.76l22.76-1.13z"/><path d="M760.09 385.18s-14.24-5.31-20.3 5.82 11.94 9.63 9.09-12" fill="none" stroke="#ffc2c7" stroke-linecap="round" stroke-miterlimit="10" stroke-width="4.5"/><path d="M813.32 315.23l57.82-33.38a8.85 8.85 0 0 0 4-6.92c0-2.54-1.79-3.57-4-2.31L813.32 306a8.83 8.83 0 0 0-4 6.92c.01 2.54 1.8 3.58 4 2.31zm96.37-24.37a12.22 12.22 0 0 0-5.51 9.54c0 3.5 2.48 4.93 5.51 3.18a12.23 12.23 0 0 0 5.5-9.54c0-3.49-2.48-4.93-5.5-3.18z" fill="#843710"/><path d="M1042.17 1504.07c.74-.36 1.48-.7 2.2-1l.83-.35a31.7 31.7 0 0 1 2-.75l.62-.23c.86-.3 1.7-.56 2.54-.79.56-.15 1.11-.28 1.67-.41l.49-.12c.71-.15 1.42-.28 2.12-.39 1.07-.16 2.11-.25 3.14-.31h3.8c.74 0 1.47.14 2.18.25l.66.11a23.5 23.5 0 0 1 2.38.55 23.1 23.1 0 0 1 2.21.78l.6.26c.6.26 1.19.54 1.76.85.18.11.38.19.56.3l-54.74-31.82-.26-.15-.3-.15c-.57-.31-1.16-.59-1.76-.86-.11 0-.21-.11-.33-.16l-.27-.09a23.1 23.1 0 0 0-2.21-.78 22.89 22.89 0 0 0-2.38-.55l-.28-.07h-.38c-.71-.11-1.43-.2-2.17-.25h-.42a25.17 25.17 0 0 0-2.75 0h-.64c-1 .06-2.07.15-3.14.31-.69.1-1.39.23-2.09.38l-.49.12c-.52.12-1 .24-1.56.38h-.11c-.84.23-1.68.49-2.54.79l-.62.23c-.65.23-1.31.48-2 .75l-.3.11-.52.24c-.73.31-1.47.65-2.2 1l-.86.42c-1 .5-2 1-3 1.59l-176.3 101.79c-1.24.72-2.46 1.5-3.68 2.31l-.64.43a73.21 73.21 0 0 0-3.44 2.5c-.23.17-.44.35-.66.52-1.16.91-2.31 1.85-3.44 2.85a2.29 2.29 0 0 0-.23.21c-1.1 1-2.17 2-3.23 3l-.34.32-.23.23c-.75.74-1.49 1.5-2.23 2.28l-.18.19c-.79.84-1.57 1.71-2.34 2.59l-.18.2-.24.29c-1.2 1.39-2.38 2.82-3.52 4.29l-.08.1-.23.31q-1.36 1.77-2.67 3.62l-.27.36-.12.19c-.83 1.18-1.62 2.37-2.41 3.59l-.22.33-.32.52c-.63 1-1.25 2-1.85 3l-.29.46a1.74 1.74 0 0 1-.1.19c-.68 1.16-1.33 2.34-2 3.53l-.16.29-.3.59c-.5.95-1 1.9-1.45 2.86l-.3.59c0 .12-.1.23-.16.35-.57 1.2-1.13 2.42-1.66 3.64l-.07.14c-.06.14-.11.29-.17.43-.47 1.09-.91 2.18-1.34 3.27-.07.19-.16.37-.23.55l-.15.43q-.75 2-1.41 3.93v.11c0 .03-.06.21-.1.32-.44 1.33-.84 2.67-1.22 4-.05.17-.11.33-.15.5s0 .17-.06.25c-.44 1.58-.82 3.16-1.16 4.73 0 .14-.08.29-.11.43s-.07.38-.11.57c-.12.62-.24 1.23-.35 1.85-.08.42-.16.85-.23 1.27-.11.64-.2 1.28-.29 1.91 0 .3-.1.61-.14.91a1.49 1.49 0 0 1 0 .21q-.26 2-.39 4v.86c-.08 1.36-.14 2.72-.13 4.06l.57 202.6c0 14.82 5.32 25.28 13.81 30.22l54.74 31.81c-8.49-4.94-13.77-15.39-13.81-30.22l-.58-202.6c0-1.34 0-2.69.13-4.06l.06-.86q.14-2 .39-4c.05-.37.11-.75.16-1.12a62.92 62.92 0 0 1 .52-3.19c.11-.61.22-1.22.35-1.83.07-.34.14-.67.22-1 .34-1.57.72-3.15 1.16-4.73.06-.25.14-.5.21-.75.38-1.34.78-2.67 1.22-4 .05-.14.09-.28.14-.41.44-1.32.91-2.63 1.41-3.94.12-.32.25-.65.38-1 .42-1.1.87-2.19 1.34-3.28.08-.19.15-.38.24-.57.53-1.22 1.09-2.44 1.66-3.64.15-.32.31-.63.46-.94.47-1 1-1.91 1.45-2.86l.46-.88c.64-1.19 1.29-2.37 2-3.53l.39-.65c.6-1 1.22-2 1.85-3l.54-.85c.78-1.21 1.58-2.41 2.41-3.59l.39-.55q1.31-1.84 2.67-3.62l.31-.41c1.14-1.47 2.32-2.9 3.52-4.29l.42-.49c.77-.88 1.55-1.75 2.34-2.59l.18-.18c.73-.78 1.48-1.55 2.23-2.3l.56-.54c1.06-1 2.14-2 3.23-3l.24-.21c1.13-1 2.28-1.94 3.43-2.85l.66-.52c1.14-.87 2.29-1.71 3.45-2.5.21-.15.42-.28.64-.42 1.21-.82 2.44-1.6 3.68-2.32l176.31-101.78c1-.58 2-1.1 3-1.6z" fill="#1ea58b"/><path d="M1038.36 1506.08c26-15 47.3-2.86 47.38 27l.58 202.6c.08 29.84-21.1 66.53-47.08 81.53L862.93 1919c-26 15-47.29 2.84-47.37-27l-.58-202.6c-.08-29.84 21.1-66.53 47.07-81.53z" fill="#27e0c0"/><path d="M897.22 1694.79c-7.14 21.39-11.2 43.31-11.2 64.09 0 20.18 3.82 37 10.58 50a251 251 0 0 0-20.46 33.44c-16.1-11.27-25.91-32.87-25.91-62.78 0-30.39 10.13-63.88 26.69-94.12a49.34 49.34 0 0 0 20.3 9.37zm108.89 52c7-21.24 11-43 11-63.62 0-21.23-4.22-38.78-11.66-52a250.65 250.65 0 0 0 18.89-30.86c16.56 11.12 26.7 32.91 26.7 63.3 0 29.91-9.82 62.84-25.92 92.7a49.46 49.46 0 0 0-19.01-9.52z" fill="none" stroke="#fff" stroke-linecap="round" stroke-linejoin="round" stroke-width="8.92"/><path d="M1005.49 1631.15c7.44 13.24 11.66 30.79 11.66 52 0 20.63-4 42.38-11 63.62-15.89-4-35-.72-55.46 11.12-19.91 11.49-38.44 29.47-54 51-6.76-13-10.58-29.83-10.58-50 0-20.78 4.06-42.7 11.2-64.09 15.48 3.26 33.79-.23 53.43-11.57 20.15-11.7 38.98-30.09 54.75-52.08zm-57.89-23.69c-21.76 24-39.6 55-50.38 87.33a49.34 49.34 0 0 1-20.3-9.36c17.7-32.32 42.76-60.89 70.68-77.97zm57.89 23.69c-10.8-19.25-28.4-29.38-49.8-28.31 27.13-14.11 51.41-14.14 68.69-2.55a250.65 250.65 0 0 1-18.89 30.86zM896.6 1808.89c10.71 20.59 28.82 31.47 51 30.31-28.33 15.38-53.71 15.54-71.46 3.13a251 251 0 0 1 20.46-33.44z" fill="none" stroke="#fff" stroke-linecap="round" stroke-linejoin="round" stroke-width="8.92"/><path d="M1006.11 1746.79a49.46 49.46 0 0 1 19.05 9.5c-17.33 32.13-41.94 60.71-69.47 78.18 21.82-24.09 39.68-55.28 50.42-87.68z" fill="none" stroke="#fff" stroke-linecap="round" stroke-linejoin="round" stroke-width="8.92"/><path fill="none" stroke="#fff" stroke-linecap="round" stroke-linejoin="round" stroke-width="9.28" d="M951.59 1605.16v231.68m99.49-173.25l-200.13 115.54"/><path d="M1431.82 36.22c.73-.36 1.47-.69 2.2-1l.82-.36c.66-.27 1.32-.51 2-.75l.63-.23c.85-.29 1.7-.55 2.53-.78.56-.15 1.12-.28 1.67-.41l.49-.12c.72-.15 1.42-.28 2.12-.39a31.46 31.46 0 0 1 3.14-.31h3.81c.74.06 1.46.14 2.18.26l.66.11c.8.15 1.6.32 2.37.54.75.22 1.48.48 2.2.77l.6.26c.6.26 1.19.55 1.76.86.19.1.38.19.56.3L1406.84 3.2l-.26-.15c-.1-.06-.21-.1-.31-.15-.57-.31-1.16-.6-1.76-.86l-.32-.16-.28-.1c-.72-.29-1.45-.55-2.2-.77-.77-.22-1.57-.39-2.37-.54l-.34-.09h-.37c-.72-.12-1.44-.2-2.18-.26h-.32a.34.34 0 0 1-.1 0h-3.39c-1 .06-2.07.16-3.13.32-.69.11-1.38.24-2.09.39l-.49.12c-.52.12-1 .24-1.56.38h-.11c-.83.23-1.68.49-2.53.78l-.63.23c-.65.24-1.31.48-2 .75l-.3.12-.52.24c-.73.31-1.46.64-2.2 1l-.86.42c-1 .49-2 1-3 1.59L1197 108.21c-1.24.72-2.47 1.5-3.69 2.31l-.63.42c-1.17.8-2.32 1.63-3.45 2.51l-.66.52c-1.16.91-2.31 1.85-3.44 2.84l-.23.21c-1.09 1-2.17 2-3.23 3l-.34.32c-.08.08-.15.16-.23.23-.75.75-1.49 1.51-2.23 2.29l-.18.19c-.79.84-1.56 1.71-2.33 2.58l-.18.2c-.09.1-.16.2-.24.3q-1.82 2.08-3.53 4.29l-.08.1-.23.31q-1.36 1.77-2.66 3.61c-.09.13-.19.24-.28.37l-.12.18c-.82 1.18-1.62 2.38-2.4 3.59l-.23.33c-.11.18-.21.36-.32.53-.63 1-1.25 2-1.85 3l-.28.47-.11.18c-.67 1.17-1.33 2.35-2 3.53l-.17.3c-.1.19-.19.39-.29.58-.5 1-1 1.91-1.46 2.87-.09.2-.2.39-.3.59l-.15.34c-.58 1.21-1.14 2.42-1.67 3.65l-.06.13c-.07.15-.12.29-.18.44-.47 1.08-.91 2.17-1.34 3.27l-.22.55c-.06.14-.1.28-.16.43-.49 1.3-1 2.61-1.41 3.93v.11l-.09.32c-.44 1.33-.85 2.66-1.23 4 0 .16-.1.33-.15.5l-.06.25c-.43 1.58-.82 3.15-1.16 4.73 0 .14-.07.28-.1.42s-.08.39-.12.58c-.12.62-.24 1.23-.35 1.84-.08.43-.16.85-.23 1.28-.1.64-.2 1.27-.29 1.91 0 .3-.09.6-.13.9v.21c-.17 1.35-.3 2.7-.4 4v.86c-.08 1.36-.14 2.72-.13 4l.57 202.61c0 14.82 5.33 25.28 13.82 30.21l54.61 31.93c-8.49-4.93-13.78-15.39-13.82-30.21l-.57-202.61c0-1.33 0-2.69.13-4v-.87c.1-1.33.22-2.66.39-4 0-.38.11-.75.16-1.13.09-.63.19-1.26.29-1.9.07-.43.15-.86.23-1.28.11-.61.23-1.22.35-1.84.07-.33.15-.67.22-1 .34-1.58.73-3.15 1.16-4.73l.21-.75c.38-1.34.79-2.68 1.23-4 0-.14.08-.28.13-.42a97.1 97.1 0 0 1 1.41-3.93c.12-.33.25-.65.38-1 .43-1.09.87-2.19 1.34-3.27l.24-.57c.53-1.23 1.09-2.44 1.67-3.65l.45-.93c.47-1 1-1.92 1.45-2.87.16-.29.31-.58.46-.88.64-1.18 1.3-2.36 2-3.53l.39-.65c.6-1 1.22-2 1.85-3l.54-.86c.79-1.21 1.59-2.41 2.41-3.58l.39-.56c.87-1.22 1.76-2.43 2.67-3.61l.31-.41c1.14-1.47 2.32-2.9 3.52-4.29l.42-.5c.77-.87 1.55-1.74 2.34-2.58l.18-.19c.74-.78 1.48-1.54 2.24-2.29l.56-.54c1.06-1 2.13-2 3.23-3 .08-.06.15-.14.23-.21 1.13-1 2.28-1.93 3.44-2.84l.66-.52a68.79 68.79 0 0 1 3.45-2.51l.63-.42c1.22-.81 2.44-1.59 3.68-2.31L1428 38.23c1-.57 2-1.1 3-1.59z" fill="#5353c9"/><path d="M1428 38.23c26-15 47.3-2.85 47.39 27l.57 202.6c.09 29.84-21.1 66.53-47.08 81.54l-176.3 101.78c-26 15-47.29 2.85-47.38-27l-.57-202.61c-.09-29.84 21.09-66.53 47.06-81.52z" fill="#8183f7"/><path d="M1280.74 267.8c0-45.09 31.65-99.92 70.71-122.47s70.7-4.27 70.7 40.83c0 2.71-.12 5.47-.35 8.25l13.69 27.13-4.7 9.48-22 12.73v37.68l-10 14.44-18.79 10.79v42L1301.47 394v-65.94l-13-27.58.06-.05c-4.95-8.3-7.79-19.25-7.79-32.63z" fill="#fff"/><g style="isolation:isolate"><path fill="#002f70" d="M2258.19 1702.04l3.82 63.49 117.71 72.51-3.82-63.49-117.71-72.51z"/><path fill="#00204c" d="M2375.9 1774.55l3.82 63.49 90.2-93.24-3.81-63.5-90.21 93.25z"/><path d="M2262.34 1699.57c-1.4.81-2.77 1.63-4.15 2.47l117.71 72.51 90.21-93.25c-62.66-21.36-145.62-15.3-203.77 18.27z" fill="#003886"/></g><path d="M2208.21 1852.42c0-.22-.05-.44-.08-.67s-.07-.73-.11-1.1c0-.18 0-.37-.05-.55-.06-.56-.09-1.11-.11-1.66l-4.58-76.2c0 .55.08 1.11.12 1.66v.55q.07.55.12 1.11 0 .33.09.66c0 .34.07.66.12 1s.07.46.11.69.09.65.14 1 .08.4.11.61.11.67.18 1l.12.65.21 1c0 .22.09.43.15.65s.14.65.22 1 .11.41.16.62.17.71.28 1a3.44 3.44 0 0 0 .15.55c.12.45.26.91.38 1.37 0 .07 0 .15.07.22.16.53.33 1 .5 1.58a3.9 3.9 0 0 1 .17.48c.12.37.25.73.37 1.1l.25.63q.16.47.36 1a6 6 0 0 0 .27.65c.11.31.24.62.37.93s.18.45.29.67.25.61.38.91.2.45.31.67.27.62.43.92.2.44.3.65.33.64.47 1 .21.39.3.58l.58 1.11c.09.15.16.29.24.45l.85 1.54c.13.21.25.41.37.63s.37.64.59 1 .28.46.41.68.37.61.58.91.29.47.44.69.38.6.58.89l.48.71.59.86c.17.24.35.48.51.72s.4.56.61.84.35.47.54.72.41.55.64.82l.56.73.64.81c.2.24.4.48.59.73s.46.54.67.82a3.9 3.9 0 0 1 .33.38l.89 1c.13.15.28.3.4.46l.93 1 .33.35c.41.46.84.91 1.26 1.37l.28.26c.36.36.7.73 1.05 1.09l.43.43 1 1 .43.42c.45.44.92.87 1.4 1.31l4.58 76.21-1.41-1.33-.42-.41-1-1-.43-.43-1.07-1.09-.26-.27-1.27-1.35c-.13-.13-.21-.24-.33-.36l-.92-1c-.14-.16-.27-.3-.4-.46-.31-.33-.6-.68-.89-1l-.33-.38-.12-.14-.55-.68-.59-.72-.66-.82-.55-.72-.64-.83-.54-.71-.6-.85c-.18-.24-.34-.48-.52-.71s-.38-.57-.59-.86-.33-.47-.48-.71l-.57-.89-.47-.69-.56-.92c-.14-.22-.29-.44-.43-.67s-.37-.65-.56-1l-.37-.62c-.3-.5-.57-1-.85-1.51l-.25-.46-.57-1.09c-.09-.21-.21-.4-.3-.6s-.32-.64-.48-1-.21-.43-.3-.65-.29-.61-.43-.92-.19-.44-.3-.67-.27-.61-.41-.92-.19-.44-.28-.66-.24-.62-.38-.93l-.24-.65c-.13-.33-.25-.64-.36-1s-.17-.42-.25-.62 0-.13-.05-.21c-.13-.3-.22-.6-.32-.9s-.12-.31-.16-.47c-.18-.53-.35-1-.51-1.58a1.19 1.19 0 0 1-.07-.23c-.12-.45-.27-.91-.4-1.36 0-.19-.09-.37-.14-.55-.1-.35-.19-.7-.28-1 0-.2-.1-.41-.15-.62a8.46 8.46 0 0 1-.22-1c-.07-.22-.11-.44-.16-.66s-.13-.64-.2-1l-.12-.65c-.07-.34-.12-.66-.18-1s-.08-.42-.11-.62 0-.15 0-.22c0-.25-.07-.49-.1-.74s-.08-.47-.11-.71-.08-.72-.14-1.05z" fill="#b72129"/><path fill="#5c1115" d="M2230 1823.93l4.58 76.21 145.1-62.09-4.58-76.2-145.1 62.08z"/><path d="M2257.4 1689.35c-60.86 37.32-71.23 94-27.4 134.58l145.1-62.08z" fill="#f42c37"/><g mask="url(#n)"><path d="M2259.58 1694.74l107.16 66-135.1 57.81c-34.5-38.43-24.24-88.64 27.94-123.81z" fill="url(#o)" style="mix-blend-mode:overlay"/></g><path d="M2229 1822.45l144.34-61.75 1.73 1.07-145.07 62.07a95.49 95.49 0 0 1-14.25-16.39 97.55 97.55 0 0 0 13.25 15z" fill="url(#p)" style="mix-blend-mode:overlay"/><path d="M2229 1822.45l144.34-61.75 1.73 1.07-145.07 62.07a95.49 95.49 0 0 1-14.25-16.39 97.55 97.55 0 0 0 13.25 15z" fill="url(#p)" style="mix-blend-mode:overlay"/><g style="isolation:isolate"><path fill="#1f629a" d="M2376.69 1787.25l3.04 50.79 171.89-9.03-3.06-50.79-171.87 9.03z"/><g clip-path="url(#q)" style="isolation:isolate"><path d="M2548.56 1778.22l3.06 50.79c0-.44 0-.89-.07-1.34l-3-50.8v1.35" fill="#174b76" style="isolation:isolate"/></g><path d="M2466.89 1694l-90.2 93.24 171.87-9c-.93-23.88-15-47.19-42.77-65.51a169.73 169.73 0 0 0-38.9-18.73z" fill="#39a2ea"/></g><g style="isolation:isolate"><path fill="#8c24b5" d="M2377.81 1807.55l1.84 30.48 141.77 54.43-1.82-30.48-141.79-54.43z"/><g clip-path="url(#r)" style="isolation:isolate"><path d="M2519.6 1862l1.82 30.48c20.81-19.36 31-41.64 30.12-63.47l-1.84-30.47c.87 21.82-9.28 44.1-30.1 63.46" fill="#62197e" style="isolation:isolate"/></g><path d="M2549.7 1798.52l-171.89 9L2519.6 1862c20.82-19.38 30.97-41.66 30.1-63.48z" fill="#a72bd7"/></g><path fill="#9d8d2a" d="M2376.94 1792.16l2.74 45.72 31.12 102.63-2.75-45.72-31.11-102.63z"/><path d="M2410.16 1894.46l.77-.12c.88-.14 1.75-.28 2.61-.44l.46-.07 2.17-.38.9-.17c.58-.1 1.13-.2 1.71-.32l1-.2 1.56-.31 1.07-.22 1.55-.32 1.06-.23 1.55-.34 1-.22 1.49-.35 1.16-.27 1.5-.37 1.14-.27 1.53-.4c.37-.08.74-.18 1.1-.27l1.67-.44.93-.25 2.06-.58.55-.14 2.58-.75.71-.21c.63-.19 1.24-.37 1.86-.57l1-.29 1.58-.5 2.6-.85a1 1 0 0 0 .16-.06q1.41-.45 2.79-.93l.89-.32 1.86-.65 1.07-.39 1.66-.62c.37-.15.76-.28 1.12-.42l1.61-.62 1.13-.44 1.61-.64 1.09-.45 1.65-.68 1-.44 1.8-.78.85-.36 1.31-.6 1.13-.51c.47-.21.89-.42 1.33-.61l1.14-.53 1.32-.63c.37-.18.74-.35 1.1-.54s.9-.43 1.32-.66.73-.35 1.07-.53l1.36-.69 1-.53 1.43-.75.93-.5c.54-.28 1-.58 1.59-.86.25-.14.5-.28.74-.43.78-.42 1.53-.86 2.31-1.3a154.73 154.73 0 0 0 28.21-20.55l2.74 45.72a154 154 0 0 1-28.21 20.54c-.77.45-1.52.89-2.29 1.32l-.76.4c-.52.3-1 .59-1.57.87l-.95.5-1.4.76-1 .51-1.38.71-1.05.53c-.45.21-.89.44-1.34.66l-1.1.52c-.45.23-.89.44-1.33.64l-1.12.53-1.31.61-1.16.52-1.31.59a.52.52 0 0 0-.15.07l-.71.3-1.8.78c-.33.15-.69.29-1 .43-.54.24-1.09.46-1.64.69-.39.14-.75.29-1.1.44l-1.6.65-1.13.43-1.62.62-1.1.42-1.68.63-1.07.38-1.86.67-.89.31-2.79.93h-.13c-.89.3-1.76.58-2.65.86h-.16l-1.39.44-1 .31c-.61.18-1.23.36-1.82.55l-.75.22c-.85.24-1.7.5-2.58.74l-.59.16c-.67.2-1.34.39-2 .56-.32.1-.64.18-1 .26l-1.65.43-1.1.28c-.49.13-1 .27-1.53.39l-1.12.28c-.51.13-1 .25-1.52.36l-1.17.27-1.07.26-.41.08-1 .25c-.52.1-1 .22-1.55.33l-1.07.23-1.55.32-1.07.22-1.56.31-1 .2-1.69.32-.92.17-2.16.38-.44.07c-.88.15-1.76.3-2.64.43l-.76.13-1.56.25-.55.08-2.74-45.72z" fill="#ff8200"/><path d="M2376.94 1792.16l31.12 102.63c29.61-4.43 58.2-13.65 82.44-27.65a154.73 154.73 0 0 0 28.21-20.55z" fill="#ffe644"/><path d="M2238.51 1903.6l-.6-.51c-.38-.33-.8-.68-1.18-1-.18-.15-.36-.3-.52-.45-.55-.49-1.1-1-1.63-1.47l-3.36-55.87c.53.5 1.1 1 1.64 1.48.17.15.33.31.52.46l1.18 1 .6.5 1.25 1c.17.14.33.29.51.42l1.67 1.34.36.27c.59.46 1.21.92 1.81 1.38v.06l1.84 1.33c.11.08.23.17.36.25.6.44 1.23.87 1.85 1.31l.37.25c.66.45 1.31.9 2 1.34l1.9 1.24.66.41c.43.27.85.54 1.29.8.26.17.52.32.78.47s.78.49 1.19.72l.85.51 1.14.66.89.51 1.13.63c.3.18.61.34.93.51l1.12.61.93.49 1.14.6 1 .49 1.14.57 1 .49 1.14.55 1 .47c.37.19.77.37 1.14.54l1 .46 1.16.54 1 .45 1.18.51 1 .44 1.18.5 1 .43c.38.16.79.33 1.21.48l1 .42 1.22.48 1 .4 1.23.46 1 .39 1.28.46 1 .37c.44.14.87.3 1.31.45s.66.23 1 .34.9.31 1.35.46l1 .32c.46.17 1 .31 1.45.47l.9.28 1.65.51.74.22c.78.24 1.58.47 2.39.7l.35.1 2 .57.88.23c.52.14 1 .29 1.56.42l1 .25c.49.13.95.26 1.45.38l1 .26c.46.1.93.22 1.4.34l1.1.25 1.38.32 1.14.25 1.34.3c.39.08.77.15 1.15.24l1.36.28 1.14.23 1.37.27 1.15.22 1.23.23 2.55.45.54.09c1 .18 2 .34 3.08.51l.85.13 2.31.34 1 .14 2.44.33c.25 0 .47.07.71.09l3.13.39.75.08 2.43.26 1 .1 2.38.23.83.07 3.16.26 1.14.08 1.59.1c.41 0 .79.06 1.2.08s1 .06 1.55.09l1.22.06 1.54.07c.42 0 .84 0 1.26.05s1 0 1.48.06h21.63l1.56-.08h1.1l1.63-.1 1-.05 1.92-.13h.74l2.65-.2h.34l2.22-.2.88-.08 1.69-.16 1-.1 1.56-.17 1.06-.11c.49-.06 1-.11 1.52-.18l1.06-.12 1.56-.2 1-.13c.58-.07 1.15-.14 1.72-.23l.85-.11 2.51-.36 3.36 55.88c-.85.13-1.68.25-2.53.36l-.85.13-1.7.22-1 .13-1.58.19-1 .13-1.54.17-1 .12c-.52.06-1 .12-1.56.16l-1 .11-1.68.16-.9.08c-.74.08-1.47.13-2.21.2h-.34l-2.62.19h-.73l-1.91.12-1 .06-1.64.1h-1.1l-1.53.07h-24.41l-1.52-.09-1.22-.05-1.56-.1-1.19-.07-1.62-.1-1-.08h-.12l-3.17-.25-.84-.08-2.35-.22-1-.11c-.82-.08-1.63-.16-2.44-.26l-.75-.08-3.11-.38-.73-.09c-.81-.1-1.63-.21-2.43-.33l-1-.14-2.3-.35-.85-.12c-1-.16-2.06-.33-3.07-.51l-.54-.1-2.56-.44-.41-.07-.8-.16-1.18-.22-1.37-.27-1.15-.23-1.34-.29-1.16-.23-1.35-.3-1.11-.25-1.39-.32-1.08-.26c-.46-.1-.93-.22-1.41-.34l-1.06-.25c-.46-.13-1-.25-1.43-.37l-1-.25c-.54-.14-1.06-.28-1.56-.43l-.87-.23c-.68-.18-1.37-.37-2-.58a2.93 2.93 0 0 1-.37-.1c-.8-.22-1.59-.46-2.39-.69l-.72-.22-1.66-.5c-.3-.11-.61-.2-.91-.3l-1.44-.46-1-.32-1.36-.45-1-.36-1.3-.44c-.35-.13-.71-.25-1-.38l-1.28-.45-1-.39-1.2-.51-1-.41-1.21-.47-1-.42-1.21-.49c-.35-.13-.68-.28-1-.42l-1.2-.5c-.34-.14-.68-.3-1-.45s-.8-.33-1.18-.51-.69-.3-1-.45l-1.17-.52-1-.47-1.14-.53c-.33-.17-.67-.32-1-.48s-.77-.37-1.14-.56l-1-.48-1.14-.58c-.31-.16-.64-.32-.94-.49s-.77-.39-1.14-.59l-.94-.49c-.37-.21-.74-.42-1.13-.62l-.92-.51-1.13-.63-.88-.5-1.16-.67-.84-.5c-.4-.23-.79-.47-1.18-.72l-.8-.47-1.26-.8c-.23-.14-.45-.27-.66-.42-.65-.4-1.29-.82-1.92-1.24l-2-1.33-.35-.26-1.87-1.3c-.11-.08-.23-.18-.36-.26-.6-.44-1.21-.88-1.8-1.33h-.07c-.62-.45-1.22-.91-1.81-1.38-.13-.09-.24-.19-.36-.27l-1.49-1.18a1.16 1.16 0 0 0-.2-.16 4.76 4.76 0 0 0-.52-.43z" fill="#bf6200"/><path d="M2231.22 1844.25a123.24 123.24 0 0 0 16 12.46c41.38 27.32 102.75 36.7 160.2 28.09l-31.1-102.63z" fill="#ff9b33"/><path fill="#f8f9fa" d="M924.26 2600.46l292.39 169.76 377.53-216.76-292.39-169.75-377.53 216.75z"/><path d="M1452.49 2521.47c1.75.89 3.48 1.82 5.16 2.79a78.59 78.59 0 0 1 21 17.09l-98.91 27.65z" fill="#163160"/><path d="M1372.88 2505.69c28.26-1 57.06 4.25 79.61 15.78l-72.75 47.53z" fill="#f4c41d"/><path d="M1273.89 2552c4.92-10.27 14.36-20 28.38-28 19.68-11.3 44.92-17.4 70.61-18.32l6.86 63.3z" fill="#00ccab"/><path d="M1273.89 2552l105.85 17-103.13 21.87c-7.93-12.5-8.83-26.12-2.72-38.87z" fill="#f73c38"/><path d="M1353.22 2630.56c-18.85-2.7-36.7-8.31-51.39-16.84-11.55-6.7-19.93-14.53-25.22-22.86l103.13-21.86z" fill="#eec926"/><path d="M1440 2622.06c-26 9.84-57.55 12.67-86.74 8.5l26.52-61.57z" fill="#379af2"/><path d="M1478.63 2541.35c19.87 23.69 12.73 53-21.42 72.62a120.32 120.32 0 0 1-17.25 8.09l-60.22-53.06z" fill="#fb3a3b"/><path fill="#f4c41d" d="M1088.55 2655.55l18.6 10.8 32.54-18.68-18.6-10.8-32.54 18.68z"/><path fill="#00ccab" d="M1060.87 2639.48l18.6 10.8 52.92-30.38-18.6-10.8-52.92 30.38z"/><path fill="#f73c38" d="M1033.18 2623.41l18.61 10.8 71.35-40.96-18.61-10.8-71.35 40.96z"/><path fill="#163160" d="M1005.51 2607.34l18.6 10.8 18.82-10.8-18.6-10.8-18.82 10.8z"/><path fill="#969696" d="M1228.66 2630.97l8.77 5.09 3.92-2.25-8.77-5.09-3.92 2.25zm-10 5.74l8.78 5.09 3.91-2.25-8.77-5.09-3.92 2.25zm-9.99 5.74l8.77 5.09 3.92-2.25-8.77-5.09-3.92 2.25zm-10 5.74l8.77 5.09 3.92-2.25-8.77-5.09-3.92 2.25zm-10 5.74l8.77 5.09 3.93-2.25-8.77-5.09-3.93 2.25zm-10 5.74l8.78 5.09 3.92-2.25-8.77-5.09-3.93 2.25zm-9.99 5.74l8.77 5.09 3.93-2.25-8.77-5.09-3.93 2.25zm-10 5.74l8.78 5.09 3.91-2.25-8.77-5.09-3.92 2.25zm-10 5.74l8.78 5.09 3.92-2.25-8.77-5.09-3.93 2.25z"/><path fill="#163160" d="M992.07 2601.04l152.32 88.44 1.31-.75-152.34-88.44-1.29.75z"/><path d="M1283.79 2450.66l45.24 26.27a5.9 5.9 0 0 0 5.32 0c1.47-.85 1.48-2.23 0-3.08l-45.24-26.26a5.89 5.89 0 0 0-5.33 0c-1.45.84-1.46 2.22.01 3.07z" fill="#f42a35"/><path d="M1264.51 2439.47l45.24 26.27a5.92 5.92 0 0 0 5.33 0c1.46-.84 1.47-2.22 0-3.07l-45.24-26.26a5.87 5.87 0 0 0-5.32 0c-1.47.83-1.47 2.21-.01 3.06zm-10.28 5.91l45.23 26.26a5.92 5.92 0 0 0 5.33 0c1.47-.84 1.48-2.23 0-3.07l-45.24-26.27a5.92 5.92 0 0 0-5.33 0c-1.44.84-1.45 2.23.01 3.08z" fill="#119dff"/><path d="M1273.5 2456.57l45.24 26.27a5.9 5.9 0 0 0 5.32 0c1.47-.84 1.48-2.22 0-3.07l-45.24-26.27a5.89 5.89 0 0 0-5.33 0c-1.44.84-1.49 2.22.01 3.07z" fill="#f42a35"/><path d="M1262.54 2466l41.38 24a8.52 8.52 0 0 0 7.68 0c2.12-1.21 2.13-3.2 0-4.43l-41.37-24a8.54 8.54 0 0 0-7.69 0c-2.1 1.17-2.11 3.17 0 4.43z" fill="#119dff"/><path d="M1241.75 2453.9l10.76 6.24a8.54 8.54 0 0 0 7.69 0c2.12-1.21 2.12-3.21 0-4.43l-10.76-6.25a8.54 8.54 0 0 0-7.69 0c-2.1 1.21-2.11 3.21 0 4.44zm-2.55 12.52l52.22 30.32a9.32 9.32 0 0 0 8.42 0c2.31-1.33 2.33-3.52 0-4.86l-52.23-30.32a9.36 9.36 0 0 0-8.41 0c-2.3 1.33-2.31 3.52 0 4.86z" fill="#f42a35"/><path d="M1228.77 2460.37a6.68 6.68 0 0 0 6 0l2.43-1.4c1.65-.95 1.67-2.5 0-3.46a6.63 6.63 0 0 0-6 0l-2.44 1.41c-1.62.94-1.63 2.5.01 3.45z" fill="#119dff"/><path d="M1224.35 2486.28l44 25.56a5.76 5.76 0 0 0 5.18 0c1.43-.82 1.44-2.17 0-3l-44-25.56a5.76 5.76 0 0 0-5.18 0c-1.41.83-1.42 2.18 0 3z" fill="#898989"/><path d="M1205.6 2475.4l44 25.55a5.73 5.73 0 0 0 5.18 0c1.43-.82 1.44-2.17 0-3l-44-25.56a5.76 5.76 0 0 0-5.18 0c-1.42.83-1.43 2.18 0 3.01zm-10.01 5.74l44 25.55a5.75 5.75 0 0 0 5.19 0c1.42-.82 1.43-2.16 0-3l-44-25.55a5.75 5.75 0 0 0-5.19 0c-1.42.86-1.42 2.18 0 3z" fill="#898989"/><path d="M1214.35 2492l44 25.55a5.73 5.73 0 0 0 5.18 0c1.43-.82 1.43-2.16 0-3l-44-25.55a5.73 5.73 0 0 0-5.18 0c-1.42.86-1.42 2.2 0 3zm-10.67 9.17l40.26 23.37a8.26 8.26 0 0 0 7.47 0c2.07-1.18 2.08-3.12 0-4.31l-40.25-23.38a8.29 8.29 0 0 0-7.47 0c-2.05 1.15-2.06 3.15-.01 4.32zm-20.22-11.74l10.47 6.08a8.32 8.32 0 0 0 7.47 0c2.07-1.19 2.08-3.13 0-4.32l-10.47-6.08a8.31 8.31 0 0 0-7.48 0c-2.04 1.19-2.05 3.13.01 4.32zm-2.46 12.18l50.81 29.5a9 9 0 0 0 8.18 0c2.27-1.29 2.28-3.42 0-4.72l-50.81-29.5a9.06 9.06 0 0 0-8.19 0c-2.25 1.29-2.27 3.42.01 4.72zm-10.18-5.88a6.47 6.47 0 0 0 5.83 0l2.38-1.36c1.6-.92 1.6-2.43 0-3.36a6.47 6.47 0 0 0-5.83 0l-2.36 1.37c-1.6.91-1.61 2.42-.02 3.35z" fill="#898989"/><path fill="#71bdc4" d="M1221.74 2734.66l6.83 3.97 28.24-16.21-6.84-3.96-28.23 16.2z"/><path fill="#586172" d="M1211.39 2728.65l6.83 3.97 48.24-27.7-6.83-3.97-48.24 27.7z"/><path fill="#eb8658" d="M1201.04 2722.64l6.82 3.97 47.75-27.41-6.83-3.97-47.74 27.41z"/><path fill="#71bdc4" d="M1183.26 2712.32l6.83 3.96 60.88-34.95-6.83-3.96-60.88 34.95z"/><path fill="#586172" d="M1176.32 2708.29l3.42 1.98 94.42-54.21-3.42-1.98-94.42 54.21z"/><path fill="#eb8658" d="M1162.55 2700.29l6.83 3.97 88.89-51.04-6.83-3.96-88.89 51.03z"/><path d="M1175.42 2547.84c-2.58 1.49-3.88 3.43-3.91 5.39l-11.58 1.3c-.62-4.13 1.7-8.37 7.18-11.52a34.73 34.73 0 0 1 14.59-4l.22 6.83a17.71 17.71 0 0 0-6.5 2z" fill="#f15a23"/><path d="M1187.16 2545.75l-.22-6.82a38.41 38.41 0 0 1 11.45 2.21l-7.52 5.37a19.37 19.37 0 0 0-3.71-.76z" fill="#576272"/><path d="M1175.37 2558.67c5.17 3 13.56 3 18.75 0a8.57 8.57 0 0 0 3.05-2.77l11.7 1.07a15.07 15.07 0 0 1-6.44 6.53c-9.81 5.63-25.66 5.6-35.42-.06a15.42 15.42 0 0 1-6.08-6l11.59-1.31a9.07 9.07 0 0 0 2.85 2.54z" fill="#6fbbc4"/><path d="M1194.94 2548.42l7.53-5.38h.06c5.19 3 7.52 7 7.18 10.94l-11.73-1.07a6.3 6.3 0 0 0-3.04-4.49z" fill="#ef8559"/><path fill="#898989" d="M1139.93 2516.97l30.24 17.56 2.92-1.68-30.25-17.56-2.91 1.68zm-18.04-3.12l41.91 24.33 1.85-1.07-41.89-24.33-1.87 1.07zm-4.82 2.77l41.91 24.33 1.85-1.06-41.9-24.34-1.86 1.07zm-4.82 2.77l41.9 24.33 1.86-1.07-41.91-24.32-1.85 1.06z"/><path fill="#00a0d4" d="M2011.1 1622.62v258.04l204.39 118v-258.03l-204.39-118.01z"/><path fill="#f43434" d="M2220.86 1994.99l-63.58 36.71-204.4-118 63.59-36.72 204.39 118.01z"/><path fill="#00789f" d="M2016.47 1618.95l-5.99 3.46 198.49 114.54-51.69 29.85-198.5-114.54-5.9 3.4 204.4 118 63.58-36.71-204.39-118z"/><path fill="#00506a" d="M2220.86 1736.95v258.04l-63.58 36.71v-258.04l63.58-36.71z"/><path fill="#00a0d4" d="M1952.88 1655.66v258.04l204.4 118v-258.04l-204.4-118z"/><path d="M2166.36 1965.36c0-14.49 10.16-32.1 22.71-39.34s22.71-1.37 22.71 13.11-10.17 32.1-22.71 39.34-22.71 1.37-22.71-13.11z" fill="#fff"/><path fill="#002835" opacity=".71" d="M2011.1 1682.45l146.18 84.35 38.81-22.41-184.99-74.73v12.79z"/><path d="M2189.07 1930.35c11.9-6.88 21.66-1.91 22.61 11 .05-.74.1-1.49.1-2.22 0-14.48-10.17-20.35-22.71-13.11s-22.71 24.85-22.71 39.34c0 .73 0 1.42.09 2.11.96-14.03 10.7-30.25 22.62-37.12z" fill="#0b0a20" opacity=".63"/><path fill="#f43434" d="M2124.04 2020.42l-63.59 36.71-204.39-118 63.6-36.71 204.38 118zm0-258.03l-63.59 36.72-204.39-118.01 63.6-36.71 204.38 118z"/><path fill="#fff" d="M1861.8 1677.6l51.7-29.84 198.64 114.63-51.69 29.85-198.65-114.64z"/><path fill="#701414" opacity=".39" d="M1913.5 1647.76l-4.34 2.5 194.33 112.13-47.36 27.35 4.32 2.5 51.69-29.85-198.64-114.63z"/><path fill="#701414" d="M1864.43 1676.21l.01-.02-.09-.06-2.55 1.47 198.65 114.64 2.52-1.46-198.54-114.57z"/><path fill="#b72727" d="M2124.04 1762.39v258.03l-63.59 36.71v-258.02l63.59-36.72z"/><path fill="#ed3e3e" d="M1856.06 1681.1v258.03l204.39 118v-258.02l-204.39-118.01z"/><path d="M2069.53 1990.79c0-14.48 10.17-32.09 22.72-39.33s22.71-1.37 22.71 13.11-10.17 32.1-22.71 39.33-22.72 1.37-22.72-13.11z" fill="#fff"/><path d="M2092.25 1955.91c11.9-6.88 21.66-1.91 22.61 11 .06-.74.1-1.49.1-2.21 0-14.49-10.17-20.36-22.71-13.12s-22.72 24.85-22.72 39.34c0 .73 0 1.42.1 2.1.95-14.02 10.71-30.23 22.62-37.11z" fill="#350606" opacity=".63"/><g style="isolation:isolate"><path fill="#186065" d="M1079.77 2415.03l-35.35-20.54-.87-306.95 35.36 20.54.86 306.95z"/><path fill="#238f98" d="M1078.91 2108.08l-35.36-20.54 36.4-21.02 35.36 20.54-36.4 21.02z"/><path fill="#54e6ea" d="M1115.31 2087.06l.87 306.95-36.41 21.02-.86-306.95 36.4-21.02z"/></g><g style="isolation:isolate"><path fill="#186065" d="M1029.06 2444.3l-35.34-20.54-.75-263.26 35.35 20.55.74 263.25z"/><path fill="#238f98" d="M1028.32 2181.05l-35.35-20.55 36.4-21.01 35.35 20.54-36.4 21.02z"/><path fill="#54e6ea" d="M1064.72 2160.03l.75 263.26-36.41 21.01-.74-263.25 36.4-21.02z"/></g><g style="isolation:isolate"><path fill="#186065" d="M978.36 2473.59L943 2453.04l-.62-217.03 35.36 20.54.62 217.04z"/><path fill="#238f98" d="M977.74 2256.55l-35.36-20.54 36.42-21.02 35.35 20.54-36.41 21.02z"/><path fill="#54e6ea" d="M1014.15 2235.53l.61 217.03-36.4 21.03-.62-217.04 36.41-21.02z"/></g><g style="isolation:isolate"><path fill="#186065" d="M927.65 2502.86l-35.35-20.54-.55-190.14 35.36 20.54.54 190.14z"/><path fill="#238f98" d="M927.11 2312.72l-35.36-20.54 36.42-21.02 35.34 20.54-36.4 21.02z"/><path fill="#54e6ea" d="M963.51 2291.7l.55 190.14-36.41 21.02-.54-190.14 36.4-21.02z"/></g><g style="isolation:isolate"><path fill="#186065" d="M876.94 2532.14l-35.35-20.55-.41-143.53 35.35 20.54.41 143.54z"/><path fill="#238f98" d="M876.53 2388.6l-35.35-20.54 36.41-21.02 35.35 20.54-36.41 21.02z"/><path fill="#54e6ea" d="M912.94 2367.58l.41 143.54-36.41 21.02-.41-143.54 36.41-21.02z"/></g><g style="isolation:isolate"><path fill="#186065" d="M826.23 2561.41l-35.35-20.54-.28-97.71 35.36 20.54.27 97.71z"/><path fill="#238f98" d="M825.96 2463.7l-35.36-20.54 36.41-21.02 35.35 20.55-36.4 21.01z"/><path fill="#54e6ea" d="M862.36 2442.69l.28 97.7-36.41 21.02-.27-97.71 36.4-21.01z"/></g><path fill="#050c28" opacity=".28" d="M1043.55 2147.73l-8.3 5.36-23.67 18.38 16.74 9.58 33.34-22.8-18.11-10.52z"/><path fill="#072526" opacity=".28" d="M992.33 2223.23l-8.29 5.36-22.03 18.56 15.73 9.4 32.71-22.8-18.12-10.52z"/><path d="M1049.25 2090.85s23.07-9.47 35.58-21.5l15 8.72s-21.41 18.65-31.17 24zM814.5 2433.72l23.04-5.46-10.53-6.12-12.51 11.58zm51.61-51.17s28.89-16.55 37.36-20.47l-13.05-7.28z" fill="#050c28" opacity=".28"/><path fill="#d31616" opacity=".53" style="mix-blend-mode:multiply" d="M1151.53 2403.1l-.87-252.62-35.35-20.54-36.4 21.02.2 60.31-14.39-8.36-36.4 21.01.22 62.85-14.39-8.36-36.41 21.02.16 43.5-14.39-8.35-36.4 21.02.25 63.24-14.42-8.38-36.41 21.02.29 62.49-14.46-8.4-36.4 21.02.27 43.37 35.35 20.54 36.41-21.02-.11-16.63 14.41 8.37 36.4-21.02-.07-16.61 14.38 8.36 36.41-21.02-.07-16.6 14.36 8.34 36.41-21.02-.06-16.6 14.36 8.34 36.41-21.01-.06-16.6 14.36 8.34 36.41-21.02z"/><g style="isolation:isolate"><path fill="#b95804" d="M1122.62 2428.46l-35.34-20.55-.87-252.61 35.35 20.54.86 252.62z"/><path fill="#f67606" d="M1121.76 2175.84l-35.35-20.54 36.41-21.02 35.34 20.54-36.4 21.02z"/><path fill="#f6b518" d="M1158.16 2154.82l.88 252.62-36.42 21.02-.86-252.62 36.4-21.02z"/></g><g style="isolation:isolate"><path fill="#b95804" d="M1071.92 2457.73l-35.35-20.54-.74-208.92 35.35 20.54.74 208.92z"/><path fill="#f67606" d="M1071.18 2248.81l-35.35-20.54 36.4-21.02 35.36 20.54-36.41 21.02z"/><path fill="#f6b518" d="M1107.59 2227.79l.74 208.92-36.41 21.02-.74-208.92 36.41-21.02z"/></g><path fill="#b95804" d="M1021.22 2487.01l-35.36-20.54-.62-162.7 35.36 20.54.62 162.7z"/><path fill="#f67606" d="M1020.6 2324.31l-35.36-20.54 36.42-21.02 35.34 20.54-36.4 21.02z"/><path fill="#f6b518" d="M1057 2303.29l.63 162.7-36.41 21.02-.62-162.7 36.4-21.02z"/><path fill="url(#e)" d="M1057 2303.29l.63 162.7-36.41 21.02-.62-162.7 36.4-21.02z" opacity=".56"/><path fill="#b95804" d="M970.51 2516.29l-35.36-20.55-.54-135.8 35.36 20.54.54 135.81z"/><path fill="#f67606" d="M969.97 2380.48l-35.36-20.54 36.42-21.03 35.35 20.55-36.41 21.02z"/><path fill="#f6b518" d="M1006.38 2359.46l.53 135.8-36.4 21.03-.54-135.81 36.41-21.02z"/><path fill="url(#s)" d="M1006.38 2359.46l.53 135.8-36.4 21.03-.54-135.81 36.41-21.02z" opacity=".72"/><path fill="#b95804" d="M919.79 2545.56l-35.35-20.55-.4-89.19 35.35 20.54.4 89.2z"/><path fill="#f67606" d="M919.39 2456.36l-35.35-20.54 36.41-21.02 35.35 20.54-36.41 21.02z"/><path fill="#f6b518" d="M955.8 2435.34l.4 89.2-36.41 21.02-.4-89.2 36.41-21.02z"/><path fill="url(#t)" d="M955.8 2435.34l.4 89.2-36.41 21.02-.4-89.2 36.41-21.02z" style="mix-blend-mode:color-dodge"/><path fill="#b95804" d="M869.1 2574.84l-35.36-20.55-.28-43.37 35.36 20.55.28 43.37z"/><path fill="#f67606" d="M868.82 2531.47l-35.36-20.55 36.41-21.02 35.35 20.55-36.4 21.02z"/><path fill="#f6b518" d="M905.22 2510.45l.28 43.37-36.4 21.02-.28-43.37 36.4-21.02z"/><path fill="url(#u)" d="M905.22 2510.45l.28 43.37-36.4 21.02-.28-43.37 36.4-21.02z" style="mix-blend-mode:color-dodge"/><g style="isolation:isolate"><g clip-path="url(#v)" style="isolation:isolate"><path d="M1070.32 1969.86q-6.72 22.67-14.2 44.84-10.68 31.59-23 62.11-3.59 8.93-7.32 17.77-16.87 39.95-36.46 77.83Q969 2212 945.69 2249q-13.89 22.1-28.72 43.21-12.63 18-24.92 33.87a855.45 855.45 0 0 1-67.24 77.56c-12.42 12.64-23.43 23-32.51 31l22.2-.93c9.08-8.07 20.09-18.37 32.5-31a855.37 855.37 0 0 0 67.25-77.56c8.16-10.61 16.5-21.89 24.92-33.88q14.83-21.09 28.71-43.21 23.24-37 43.7-76.59 19.56-37.84 36.46-77.83 3.74-8.82 7.32-17.76 12.27-30.49 23-62.11 7.48-22.17 14.19-44.84z" fill="#f24646"/></g><path fill="#f42f2f" d="M1074.65 1869.44l22.2-.93 23.45 110.92-22.2.94-23.45-110.93z"/><path d="M1074.65 1869.44l23.45 110.93-27.78-10.51q-16.26 55-37.16 107c-31.34 77.81-70.43 150.29-116.19 215.4-49.84 70.91-96.51 117.42-124.67 142.44l-48.16-27c19.45-15.76 74.64-64.08 134-149 47.4-67.91 104.34-169.54 144.86-306.7l-30.66-11.6z" fill="#d00200"/></g></g></svg>