<?xml version="1.0" standalone="no"?>
<!DOCTYPE svg PUBLIC "-//W3C//DTD SVG 1.1//EN" "http://www.w3.org/Graphics/SVG/1.1/DTD/svg11.dtd" >
<svg xmlns="http://www.w3.org/2000/svg" xmlns:xlink="http://www.w3.org/1999/xlink" version="1.1">
<metadata>
Created by FontForge 20170731 at Fri Oct  9 12:51:57 2020
 By Aleksey,,,
Copyright (c) 2015 by Mariya Pigoulevskaya. All rights reserved.
</metadata>
<defs>
<font id="Stolzl-Light" horiz-adv-x="0" >
  <font-face 
    font-family="Stolzl Light"
    font-weight="300"
    font-stretch="normal"
    units-per-em="2048"
    panose-1="0 0 4 0 0 0 0 0 0 0"
    ascent="1638"
    descent="-410"
    x-height="1126"
    cap-height="1434"
    bbox="-1092 -535 2804 2120"
    underline-thickness="102"
    underline-position="-307"
    unicode-range="U+0020-25CA"
  />
<missing-glyph horiz-adv-x="1044" 
d="M856 1577v-2089h-661v2089h661zM696 1438h-346v-70h137v-78h-139v-67h348v67h-139v78h139v70zM557 1167h-209v-217h348v72h-139v145zM487 1096v-74h-69v74h69zM696 893h-348v-68h139v-77h-139v-70h209v147h139v68zM696 768h-69v-137h-279v-72h348v209zM696 514h-209v-117
h70v47h70v-98h-209v168h-70v-235h348v235zM696 152h-348v-236h348v236zM627 84v-98h-209v98h209zM696 -131h-348v-70h148l-148 -98v-70h348v70h-213l146 98h67v70z" />
    <glyph glyph-name=".notdef" horiz-adv-x="1044" 
d="M856 1577v-2089h-661v2089h661zM696 1438h-346v-70h137v-78h-139v-67h348v67h-139v78h139v70zM557 1167h-209v-217h348v72h-139v145zM487 1096v-74h-69v74h69zM696 893h-348v-68h139v-77h-139v-70h209v147h139v68zM696 768h-69v-137h-279v-72h348v209zM696 514h-209v-117
h70v47h70v-98h-209v168h-70v-235h348v235zM696 152h-348v-236h348v236zM627 84v-98h-209v98h209zM696 -131h-348v-70h148l-148 -98v-70h348v70h-213l146 98h67v70z" />
    <glyph glyph-name=".null" 
 />
    <glyph glyph-name="nonmarkingreturn" horiz-adv-x="682" 
 />
    <glyph glyph-name="space" unicode=" " horiz-adv-x="614" 
 />
    <glyph glyph-name="exclam" unicode="!" horiz-adv-x="559" 
d="M336 1434v-598l-8 -441h-97l-8 441v598h113zM279 150q37 0 62.5 -24.5t25.5 -59.5q0 -37 -25.5 -63t-62.5 -26q-36 0 -61 26t-25 63q0 35 24.5 59.5t61.5 24.5z" />
    <glyph glyph-name="quotedbl" unicode="&#x22;" horiz-adv-x="813" 
d="M205 772l-12 395v267h108v-267l-14 -395h-82zM526 772l-14 395v267h109v-267l-13 -395h-82z" />
    <glyph glyph-name="numbersign" unicode="#" horiz-adv-x="1832" 
d="M1616 1016h-328l-106 -408h327l-24 -92h-328l-135 -516h-102l135 516h-434l-136 -516h-102l135 516h-325l24 92h326l108 408h-327l24 92h328l123 469h102l-123 -469h432l125 469h103l-125 -469h327zM1079 608l107 408h-432l-109 -408h434z" />
    <glyph glyph-name="dollar" unicode="$" horiz-adv-x="1306" 
d="M1210 389q0 -132 -68 -226t-179 -139t-254 -47v-231h-109v238q-216 21 -342.5 136t-161.5 296h109q85 -336 487 -336q189 0 299.5 79.5t110.5 223.5q0 31 -6 56.5t-15.5 46.5t-28.5 39.5t-37.5 32.5t-51 28t-59.5 24t-72 22t-81.5 20.5t-93.5 21.5q-110 25 -181 45.5
t-141.5 52t-110 68.5t-63.5 91.5t-24 125.5q0 121 64.5 211.5t171.5 136.5t243 49v234h109v-236q188 -20 305 -111.5t158 -234.5h-109q-50 120 -161.5 184t-276.5 64q-179 0 -287 -78t-108 -223q0 -104 90 -160t346 -113q70 -16 116 -27t102 -27.5t91.5 -32.5t74.5 -38
t62.5 -47.5t43.5 -58t29 -72.5t9 -88z" />
    <glyph glyph-name="percent" unicode="%" horiz-adv-x="2142" 
d="M553 594q-163 0 -261.5 110t-98.5 320q0 211 98.5 321.5t261.5 110.5q164 0 263 -110.5t99 -321.5q0 -210 -99 -320t-263 -110zM1536 1434l-819 -1434h-111l819 1434h111zM553 684q122 0 192 84.5t70 255.5q0 172 -70 256t-192 84t-192 -84t-70 -256q0 -171 70 -255.5
t192 -84.5zM1589 840q164 0 263.5 -110t99.5 -320q0 -211 -99.5 -322t-263.5 -111q-163 0 -261.5 111t-98.5 322q0 210 98.5 320t261.5 110zM1589 750q-122 0 -192 -84.5t-70 -255.5q0 -172 70 -256t192 -84t192 84t70 256q0 171 -70 255.5t-192 84.5z" />
    <glyph glyph-name="ampersand" unicode="&#x26;" horiz-adv-x="1372" 
d="M1276 0h-137l-150 156q-176 -179 -436 -179q-207 0 -332 99.5t-125 269.5q0 40 9 76t22 64t40 59t48.5 52t63 51t69.5 48.5t80 51.5q-110 128 -152.5 211t-42.5 165q0 149 102.5 240.5t262.5 91.5q153 0 244.5 -85t91.5 -218q0 -60 -21 -111.5t-70.5 -103.5t-105.5 -96
t-151 -109q-4 -4 -6 -4q44 -49 399 -420q91 139 121 340h110q-31 -247 -155 -418q51 -52 221 -231zM342 1120q0 -67 37 -136t135 -181q22 13 33 22q165 114 220.5 181.5t55.5 144.5q0 91 -59 147t-166 56q-116 0 -186 -63t-70 -171zM561 80q217 0 357 149q-327 338 -422 443
q-54 -36 -74.5 -50t-61.5 -43t-56.5 -44t-40 -41t-33.5 -46t-17 -46.5t-8 -55.5q0 -120 94 -193t262 -73z" />
    <glyph glyph-name="quotesingle" unicode="'" horiz-adv-x="493" 
d="M301 1434v-267l-14 -395h-82l-12 395v267h108z" />
    <glyph glyph-name="parenleft" unicode="(" horiz-adv-x="782" 
d="M590 1550q-155 -289 -222 -522t-67 -496t67 -495.5t222 -521.5l-82 -50q-166 281 -240.5 541.5t-74.5 525.5t74.5 525.5t240.5 541.5z" />
    <glyph glyph-name="parenright" unicode=")" horiz-adv-x="782" 
d="M193 1550l83 49q166 -281 240 -541.5t74 -525.5t-74 -525.5t-240 -541.5l-83 50q155 288 221.5 521t66.5 496t-66.5 496.5t-221.5 521.5z" />
    <glyph glyph-name="asterisk" unicode="*" horiz-adv-x="1130" 
d="M938 1163l-305 -119l211 -251l-70 -56l-209 254l-211 -254l-67 56l209 251l-303 119l32 80l297 -115v306h84v-306l297 115z" />
    <glyph glyph-name="plus" unicode="+" horiz-adv-x="1411" 
d="M760 1116v-450h459v-105h-459v-448h-109v448h-458v105h458v450h109z" />
    <glyph glyph-name="comma" unicode="," horiz-adv-x="614" 
d="M422 61q1 -17 -4 -40t-38.5 -114t-100.5 -259h-86l124 332q-31 6 -50 27.5t-19 53.5q0 38 25.5 63.5t62.5 25.5q34 0 60 -21.5t26 -67.5z" />
    <glyph glyph-name="hyphen" unicode="-" horiz-adv-x="1032" 
d="M842 674v-105h-649v105h649z" />
    <glyph glyph-name="period" unicode="." horiz-adv-x="559" 
d="M279 150q37 0 62.5 -24.5t25.5 -59.5q0 -37 -25.5 -63t-62.5 -26q-36 0 -61 26t-25 63q0 35 24.5 59.5t61.5 24.5z" />
    <glyph glyph-name="slash" unicode="/" horiz-adv-x="632" 
d="M580 1577l-416 -1577h-111l416 1577h111z" />
    <glyph glyph-name="zero" unicode="0" horiz-adv-x="1378" 
d="M688 1456q267 0 413 -191.5t146 -547.5t-146 -548t-413 -192q-264 0 -410.5 191t-146.5 549t146.5 548.5t410.5 190.5zM688 82q99 0 178.5 35t141.5 108t95.5 198t33.5 294t-33.5 294t-95.5 198t-141.5 108t-178.5 35q-78 0 -144 -21.5t-122.5 -69t-96 -120.5
t-61.5 -180.5t-22 -243.5t22 -243.5t61.5 -180.5t96 -120.5t122.5 -69t144 -21.5z" />
    <glyph glyph-name="one" unicode="1" horiz-adv-x="712" 
d="M469 1434h51v-1434h-108v1307l-336 -136v109z" />
    <glyph glyph-name="two" unicode="2" horiz-adv-x="1257" 
d="M274 104h887v-104h-1065v80l414 360q268 235 341 309q118 118 145 207q12 40 12 86q0 138 -104 224t-271 86q-168 0 -274 -90t-142 -248h-111q38 205 180.5 323.5t352.5 118.5q211 0 345 -115.5t134 -293.5q0 -40 -6 -75.5t-24.5 -73.5t-36 -69t-57 -75t-70 -76
t-91.5 -88t-106 -95.5t-129 -111.5l-322 -277z" />
    <glyph glyph-name="three" unicode="3" horiz-adv-x="1251" 
d="M879 758q130 -37 203 -133.5t73 -231.5q0 -187 -140.5 -301.5t-361.5 -114.5q-104 0 -195 25.5t-166 75t-126 130t-70 183.5h111q38 -158 157 -233.5t289 -75.5q176 0 285 87t109 232q0 132 -91 213.5t-280 81.5h-203v99h150q189 0 281.5 68.5t92.5 189.5q0 137 -104 218
t-262 81q-156 0 -256 -66.5t-142 -222.5h-110q23 106 71 183t116 122.5t148 66.5t175 21q201 0 337 -109t136 -284q0 -107 -58.5 -188t-168.5 -117z" />
    <glyph glyph-name="four" unicode="4" horiz-adv-x="1273" 
d="M1198 463v-103h-217v-360h-109v360l-796 -2v105l739 971h166v-971h217zM201 463h671v868h-12z" />
    <glyph glyph-name="five" unicode="5" horiz-adv-x="1257" 
d="M670 938q211 0 351 -130.5t140 -340.5t-146 -350t-362 -140q-210 0 -363.5 114t-193.5 315h111q39 -152 159 -238t287 -86q172 0 285 111t113 276q0 167 -112 271t-284 104q-260 0 -393 -219h-104l172 809h766v-105h-684l-115 -545q141 154 373 154z" />
    <glyph glyph-name="six" unicode="6" horiz-adv-x="1245" 
d="M649 961q99 0 189 -33.5t159.5 -94.5t110.5 -153.5t41 -202.5q0 -147 -71 -262t-191.5 -176.5t-268.5 -61.5q-144 0 -261.5 58.5t-189 176t-71.5 275.5q0 44 5 83.5t22 87t33 86t54 101t69.5 110.5t94.5 135.5t112.5 155t140.5 188.5h125l-420 -574q151 101 317 101z
M621 82q178 0 297.5 109t119.5 286q0 179 -118.5 286t-294.5 107q-185 0 -302.5 -108t-117.5 -289q0 -118 57 -208t151 -136.5t208 -46.5z" />
    <glyph glyph-name="seven" unicode="7" horiz-adv-x="1105" 
d="M76 1434h954v-88l-663 -1346h-123l659 1329h-827v105z" />
    <glyph glyph-name="eight" unicode="8" horiz-adv-x="1232" 
d="M856 758q134 -38 207.5 -137.5t73.5 -237.5q0 -124 -70.5 -217.5t-187.5 -141t-263 -47.5q-145 0 -262.5 47.5t-187.5 141t-70 217.5q0 138 73.5 237.5t207.5 137.5q-112 37 -169.5 119.5t-57.5 193.5q0 173 133 279t333 106t333.5 -106t133.5 -279q0 -111 -57.5 -193.5
t-169.5 -119.5zM258 1059q0 -121 87.5 -191.5t270.5 -70.5q182 0 270.5 71t88.5 191q0 137 -101 215t-258 78t-257.5 -78t-100.5 -215zM616 82q181 0 296.5 82t115.5 227q0 307 -412 307q-411 0 -411 -307q0 -145 114.5 -227t296.5 -82z" />
    <glyph glyph-name="nine" unicode="9" horiz-adv-x="1245" 
d="M625 1456q145 0 263 -58.5t189.5 -176t71.5 -275.5q0 -44 -5 -83.5t-22 -87t-33 -85.5t-54.5 -101.5t-69 -110.5t-94.5 -135.5t-112.5 -154t-140.5 -188.5h-124l419 573q-149 -100 -319 -100q-133 0 -245 56.5t-182.5 168.5t-70.5 258q0 147 70.5 262t190.5 176.5
t268 61.5zM205 956q0 -179 120 -286t296 -107q184 0 300.5 108t116.5 290q0 177 -119 284t-294 107q-179 0 -299.5 -110t-120.5 -286z" />
    <glyph glyph-name="colon" unicode=":" horiz-adv-x="559" 
d="M279 1010q37 0 62.5 -24.5t25.5 -61.5q0 -35 -25.5 -59.5t-62.5 -24.5t-61.5 24.5t-24.5 59.5q0 37 24.5 61.5t61.5 24.5zM279 150q37 0 62.5 -24.5t25.5 -59.5q0 -37 -25.5 -63t-62.5 -26q-36 0 -61 26t-25 63q0 35 24.5 59.5t61.5 24.5z" />
    <glyph glyph-name="semicolon" unicode=";" horiz-adv-x="614" 
d="M336 840q-37 0 -62.5 24.5t-25.5 59.5q0 37 25.5 61.5t62.5 24.5t61.5 -24.5t24.5 -61.5q0 -35 -24.5 -59.5t-61.5 -24.5zM422 61q1 -17 -4 -40t-38.5 -114t-100.5 -259h-86l124 332q-31 6 -50 27.5t-19 53.5q0 38 25.5 63.5t62.5 25.5q34 0 60 -21.5t26 -67.5z" />
    <glyph glyph-name="less" unicode="&#x3c;" horiz-adv-x="1411" 
d="M1219 1024v-113l-861 -286l861 -289v-115l-1026 361v84z" />
    <glyph glyph-name="equal" unicode="=" horiz-adv-x="1411" 
d="M1219 883v-103h-1026v103h1026zM1219 467v-100h-1026v100h1026z" />
    <glyph glyph-name="greater" unicode="&#x3e;" horiz-adv-x="1411" 
d="M193 1024l1026 -356v-86l-1026 -361v115l860 289l-860 286v113z" />
    <glyph glyph-name="question" unicode="?" horiz-adv-x="1169" 
d="M500 395v105q0 50 15 88t54 70.5t67.5 50t93.5 51.5q10 5 15 8q45 24 73 41t59.5 42t48 51t28 62t11.5 80q0 141 -101 225.5t-274 84.5q-341 0 -383 -336h-111q24 219 157 328.5t339 109.5q217 0 349 -111.5t132 -297.5q0 -57 -14.5 -105.5t-37 -83t-59.5 -67t-72 -54
t-85 -47.5q-102 -54 -133 -79q-63 -54 -64 -128v-88h-108zM559 -23q-37 0 -62.5 26t-25.5 63q0 36 25.5 60t62.5 24t62.5 -24t25.5 -60q0 -37 -25.5 -63t-62.5 -26z" />
    <glyph glyph-name="at" unicode="@" horiz-adv-x="2355" 
d="M1196 1599q170 0 324 -43t282.5 -129.5t222.5 -209t146.5 -290t52.5 -362.5q0 -281 -102.5 -431t-274.5 -150q-72 0 -134 26t-107.5 87.5t-53.5 150.5q-61 -122 -172.5 -193t-253.5 -71q-210 0 -343.5 147t-133.5 375q0 229 133 375.5t342 146.5q142 0 253.5 -70
t172.5 -192v244h101v-721q0 -103 57.5 -156t140.5 -53q55 0 102.5 26t86.5 80t61.5 148.5t22.5 220.5q0 186 -48 342t-133 266.5t-202 188t-254 114.5t-289 37q-165 0 -312.5 -44.5t-266.5 -130.5t-205.5 -205.5t-133.5 -275t-47 -333.5q0 -177 47 -329.5t132.5 -266
t203 -194t261.5 -121.5t305 -41q245 0 442 96l20 -96q-222 -97 -464 -97q-224 0 -416 73t-332 206t-219.5 331.5t-79.5 438.5q0 194 52 365t148 302t227 225.5t294 143.5t344 49zM1141 80q174 0 290.5 120.5t116.5 305.5t-116.5 305.5t-290.5 120.5q-172 0 -281.5 -120
t-109.5 -306t109.5 -306t281.5 -120z" />
    <glyph glyph-name="A" unicode="A" horiz-adv-x="1480" 
d="M1288 0l-194 477h-707l-194 -477h-117l592 1434h145l592 -1434h-117zM430 580h621l-312 755z" />
    <glyph glyph-name="B" unicode="B" horiz-adv-x="1339" 
d="M979 760q131 -36 197.5 -131t66.5 -238q0 -183 -115.5 -287t-347.5 -104h-587v1434h571q223 0 328.5 -95t105.5 -266q0 -239 -219 -313zM1090 1063q0 129 -77 197.5t-257 68.5h-455v-532h442q188 0 267.5 68.5t79.5 197.5zM778 104q189 0 272 76.5t83 216.5
q0 145 -84.5 222t-274.5 77h-473v-592h477z" />
    <glyph glyph-name="C" unicode="C" horiz-adv-x="1638" 
d="M870 -23q-156 0 -293 56t-234.5 153.5t-153.5 235.5t-56 295t56 294.5t153.5 235t234.5 153.5t293 56q232 0 413 -125t259 -338h-117q-73 164 -222 261.5t-337 97.5q-130 0 -245.5 -49t-198.5 -133t-131.5 -202t-48.5 -251t48.5 -251t131.5 -202t198.5 -133t245.5 -49
q188 0 337 97t222 261h117q-78 -213 -259 -338t-413 -125z" />
    <glyph glyph-name="D" unicode="D" horiz-adv-x="1527" 
d="M662 1434q207 0 375 -90.5t264 -255t96 -371.5q0 -206 -97 -370.5t-265 -255.5t-373 -91h-469v1434h469zM666 104q174 0 315.5 77.5t223.5 218t83 317.5q0 132 -48 246.5t-131.5 194.5t-198 125.5t-244.5 45.5h-365v-1225h365z" />
    <glyph glyph-name="E" unicode="E" horiz-adv-x="1173" 
d="M1077 1329h-776v-536h729v-105h-729v-584h776v-104h-884v1434h884v-105z" />
    <glyph glyph-name="F" unicode="F" horiz-adv-x="1173" 
d="M1077 1329h-776v-545h729v-102h-729v-682h-108v1434h884v-105z" />
    <glyph glyph-name="G" unicode="G" horiz-adv-x="1732" 
d="M801 729h749v-729h-98v383q-58 -190 -217.5 -298t-372.5 -108q-205 0 -372.5 96t-263 265.5t-95.5 378.5q0 157 56.5 294.5t154 235t233.5 153.5t291 56q235 0 415 -124t259 -335h-117q-73 162 -222 258.5t-337 96.5q-130 0 -245.5 -49t-198.5 -133.5t-131.5 -203
t-48.5 -253.5q0 -176 80.5 -321t224 -228.5t321.5 -83.5q246 0 408 153.5t168 399.5h-641v96z" />
    <glyph glyph-name="H" unicode="H" horiz-adv-x="1529" 
d="M1231 1434h108v-1434h-108v690h-930v-690h-108v1434h108v-639h930v639z" />
    <glyph glyph-name="I" unicode="I" horiz-adv-x="495" 
d="M195 0v1434h108v-1434h-108z" />
    <glyph glyph-name="J" unicode="J" horiz-adv-x="1118" 
d="M817 1434h109v-998q0 -216 -116.5 -337.5t-309.5 -121.5q-192 0 -308 117.5t-116 331.5v102h108v-100q0 -169 85.5 -257.5t232.5 -88.5q144 0 229.5 91t85.5 265v996z" />
    <glyph glyph-name="K" unicode="K" horiz-adv-x="1261" 
d="M1186 0h-144l-741 705v-705h-108v1434h108v-686l721 686h143l-739 -705z" />
    <glyph glyph-name="L" unicode="L" horiz-adv-x="1103" 
d="M301 104h729v-104h-837v1434h108v-1330z" />
    <glyph glyph-name="M" unicode="M" horiz-adv-x="1662" 
d="M1325 1434h145v-1434h-108v1307l-531 -797h-12l-528 797v-1307h-109v1434h144l501 -750z" />
    <glyph glyph-name="N" unicode="N" horiz-adv-x="1509" 
d="M1219 1434h108v-1434h-145l-899 1303l8 -703v-600h-109v1434h144l901 -1303l-8 703v600z" />
    <glyph glyph-name="O" unicode="O" horiz-adv-x="1734" 
d="M868 1456q154 0 290.5 -56.5t234 -154.5t154.5 -235t57 -293q0 -208 -96.5 -377.5t-265.5 -266t-374 -96.5t-374 96.5t-266 266t-97 377.5q0 207 97.5 377t266.5 266t373 96zM868 1352q-130 0 -246 -48.5t-199.5 -132.5t-132 -202.5t-48.5 -251.5t48.5 -251.5t132 -202.5
t199.5 -132.5t246 -48.5q173 0 316.5 82.5t226.5 228.5t82 324q1 178 -82 324t-226.5 228.5t-316.5 82.5z" />
    <glyph glyph-name="P" unicode="P" horiz-adv-x="1374" 
d="M754 1434q118 0 212.5 -35.5t154 -97t91 -142.5t31.5 -174t-31.5 -174.5t-91 -144.5t-154 -99.5t-212.5 -36.5h-451v-530h-110v1434h561zM752 635q96 0 170.5 28.5t119.5 78t68 111t23 132.5t-23 132t-68 109t-119.5 75.5t-170.5 27.5h-449v-694h449z" />
    <glyph glyph-name="Q" unicode="Q" horiz-adv-x="1734" 
d="M1604 717q0 -170 -66 -316t-184 -247l250 -332l-84 -64l-252 332q-177 -113 -400 -113q-205 0 -374 96.5t-266 266t-97 377.5q0 207 97.5 377t266.5 266t373 96q154 0 290.5 -56.5t234 -154.5t154.5 -235t57 -293zM868 82q173 0 316.5 82.5t226.5 228.5t82 324
q1 178 -82 324t-226.5 228.5t-316.5 82.5q-130 0 -246 -48.5t-199.5 -132.5t-132 -202.5t-48.5 -251.5t48.5 -251.5t132 -202.5t199.5 -132.5t246 -48.5z" />
    <glyph glyph-name="R" unicode="R" horiz-adv-x="1339" 
d="M1126 0l-493 573h-330v-573h-110v1434h542q233 0 358.5 -119t125.5 -309q0 -184 -117 -302.5t-334 -128.5l496 -575h-138zM303 1329v-657h424q188 0 285.5 94t97.5 238q0 145 -97 235t-286 90h-424z" />
    <glyph glyph-name="S" unicode="S" horiz-adv-x="1306" 
d="M682 780q70 -16 116 -27t102 -27.5t91.5 -32.5t74.5 -38t62.5 -47.5t43.5 -58t29 -72.5t9 -88q0 -101 -40.5 -180.5t-111 -129.5t-162.5 -76t-200 -26q-260 0 -410.5 119t-189.5 320h109q85 -336 487 -336q189 0 299.5 79.5t110.5 223.5q0 31 -6 56.5t-15.5 46.5
t-28.5 39.5t-37.5 32.5t-51 28t-59.5 24t-72 22t-81.5 20.5t-93.5 21.5q-110 25 -181 45.5t-141.5 52t-110 68.5t-63.5 91.5t-24 125.5q0 123 67 214.5t179.5 138t253.5 46.5q225 0 365 -94.5t186 -255.5h-109q-50 120 -161.5 184t-276.5 64q-177 0 -286 -79.5t-109 -221.5
q0 -104 90 -160t346 -113z" />
    <glyph glyph-name="T" unicode="T" horiz-adv-x="1234" 
d="M1159 1434v-105h-487v-1329h-109v1329h-487v105h1083z" />
    <glyph glyph-name="U" unicode="U" horiz-adv-x="1484" 
d="M1192 1434h111v-877q0 -143 -42.5 -255t-118 -182.5t-175.5 -106.5t-219 -36t-219 36t-175.5 106.5t-118 182.5t-42.5 255v877h110v-871q0 -238 123.5 -359.5t321.5 -121.5t321 121.5t123 359.5v871z" />
    <glyph glyph-name="V" unicode="V" horiz-adv-x="1368" 
d="M1178 1434h114l-536 -1434h-144l-536 1434h114l494 -1321z" />
    <glyph glyph-name="W" unicode="W" horiz-adv-x="2027" 
d="M1839 1434h113l-416 -1434h-143l-152 518l-217 780h-20l-218 -780l-149 -518h-143l-418 1434h112l201 -686l176 -635l178 635l199 686h145l199 -686l176 -637l178 637z" />
    <glyph glyph-name="X" unicode="X" horiz-adv-x="1243" 
d="M1169 0h-131l-415 641l-418 -641h-129l479 733l-459 701h131l396 -611l397 611h131l-461 -703z" />
    <glyph glyph-name="Y" unicode="Y" horiz-adv-x="1343" 
d="M1268 1434l-541 -897v-537h-111v532l-540 902h125l471 -779l471 779h125z" />
    <glyph glyph-name="Z" unicode="Z" horiz-adv-x="1216" 
d="M229 104h891v-104h-1024v104l889 1225h-852v105h987v-105z" />
    <glyph glyph-name="bracketleft" unicode="[" horiz-adv-x="782" 
d="M590 1577v-104h-287v-1881h287v-104h-397v2089h397z" />
    <glyph glyph-name="backslash" unicode="\" horiz-adv-x="911" 
d="M303 1577l416 -1577h-111l-415 1577h110z" />
    <glyph glyph-name="bracketright" unicode="]" horiz-adv-x="782" 
d="M193 1577h397v-2089h-397v104h286v1881h-286v104z" />
    <glyph glyph-name="asciicircum" unicode="^" horiz-adv-x="1136" 
d="M567 1456l377 -377l-76 -75l-301 299l-299 -299l-75 75z" />
    <glyph glyph-name="underscore" unicode="_" horiz-adv-x="1327" 
d="M1135 -39v-102h-942v102h942z" />
    <glyph glyph-name="grave" unicode="`" horiz-adv-x="794" 
d="M262 1720l340 -340l-59 -59l-350 330z" />
    <glyph glyph-name="a" unicode="a" horiz-adv-x="1396" 
d="M1120 1126h109v-1126h-109v268q-68 -134 -191.5 -212.5t-279.5 -78.5q-235 0 -384.5 165.5t-149.5 420.5q0 167 67.5 301t189.5 209.5t275 75.5q158 0 281.5 -79t191.5 -214v270zM664 82q196 0 327 136t131 345q0 208 -131 344.5t-327 136.5q-194 0 -317.5 -135.5
t-123.5 -345.5t123.5 -345.5t317.5 -135.5z" />
    <glyph glyph-name="b" unicode="b" horiz-adv-x="1396" 
d="M750 1149q154 0 276 -75.5t189 -209.5t67 -301t-67 -301t-189 -209.5t-276 -75.5q-157 0 -282 79t-192 214v-270h-108v1577h108v-721q67 135 192 214t282 79zM733 82q194 0 317.5 135.5t123.5 345.5t-123 345.5t-318 135.5q-196 0 -327.5 -136.5t-131.5 -344.5
q0 -209 131.5 -345t327.5 -136z" />
    <glyph glyph-name="c" unicode="c" horiz-adv-x="1327" 
d="M692 -23q-160 0 -292 75.5t-208.5 210t-76.5 300.5t76.5 300.5t209 210t293.5 75.5q192 0 339.5 -107.5t199.5 -289.5h-115q-45 133 -160 214t-264 81q-200 0 -335.5 -138t-135.5 -346t135 -345.5t334 -137.5q150 0 265.5 81.5t160.5 213.5h115q-52 -182 -200.5 -290
t-340.5 -108z" />
    <glyph glyph-name="d" unicode="d" horiz-adv-x="1400" 
d="M1126 1577h109v-1577h-109v270q-69 -135 -193 -214t-280 -79q-235 0 -384.5 165.5t-149.5 420.5q0 167 67.5 301t189.5 209.5t275 75.5q158 0 282 -79t193 -214v721zM668 82q196 0 327 136t131 345q0 208 -131 344.5t-327 136.5q-194 0 -317.5 -135.5t-123.5 -345.5
t123.5 -345.5t317.5 -135.5z" />
    <glyph glyph-name="e" unicode="e" horiz-adv-x="1339" 
d="M684 1149q257 0 409.5 -172.5t147.5 -448.5h-1016q9 -206 138 -326t329 -120q136 0 243 57.5t163 165.5h112q-67 -160 -206.5 -244t-313.5 -84q-251 0 -413 161.5t-162 420.5q0 170 73 304.5t203 210t293 75.5zM684 1047q-185 0 -310 -116t-147 -300h899
q-21 185 -140 300.5t-302 115.5z" />
    <glyph glyph-name="f" unicode="f" horiz-adv-x="964" 
d="M692 1501q-301 0 -301 -366v-9h496v-102h-496v-1024h-108v1024h-226v102h226v13q0 215 104 337.5t295 122.5q123 0 229 -45l-20 -94l-21 8q-82 33 -178 33z" />
    <glyph glyph-name="g" unicode="g" horiz-adv-x="1396" 
d="M1120 1126h109v-1114q0 -254 -139.5 -400.5t-382.5 -146.5q-199 0 -347.5 105t-195.5 287h115q40 -134 154 -212.5t272 -78.5q199 0 307 116t108 326v264q-67 -133 -192.5 -211.5t-278.5 -78.5q-235 0 -384.5 165t-149.5 418q0 166 67.5 299.5t190 209t276.5 75.5
q153 0 278.5 -79.5t192.5 -213.5v270zM664 86q196 0 327 135.5t131 343.5q0 206 -131 342.5t-327 136.5q-194 0 -317.5 -135.5t-123.5 -343.5t123.5 -343.5t317.5 -135.5z" />
    <glyph glyph-name="h" unicode="h" horiz-adv-x="1284" 
d="M719 1149q193 0 300 -113t107 -319v-717h-108v702q0 168 -84.5 255t-239.5 87q-193 0 -300 -130t-107 -345v-569h-109v1577h109v-711q58 134 166 208.5t266 74.5z" />
    <glyph glyph-name="i" unicode="i" horiz-adv-x="444" 
d="M221 1610q38 0 63 -24t25 -60q0 -37 -25 -61.5t-63 -24.5q-36 0 -61 25t-25 61q0 35 25.5 59.5t60.5 24.5zM168 0v1126h108v-1126h-108z" />
    <glyph glyph-name="j" unicode="j" horiz-adv-x="444" 
d="M221 1610q38 0 63 -24t25 -60q0 -37 -25 -61.5t-63 -24.5q-36 0 -61 25t-25 61q0 35 25.5 59.5t60.5 24.5zM168 -512v1638h108v-1638h-108z" />
    <glyph glyph-name="k" unicode="k" horiz-adv-x="1165" 
d="M1108 0h-150l-671 565v-565h-109v1577h109v-965l612 514h148l-637 -532z" />
    <glyph glyph-name="l" unicode="l" horiz-adv-x="444" 
d="M176 0v1577h111v-1577h-111z" />
    <glyph glyph-name="m" unicode="m" horiz-adv-x="1933" 
d="M1409 1149q177 0 272 -105.5t95 -302.5v-741h-109v725q0 159 -72.5 239t-210.5 80q-88 0 -157.5 -38t-112.5 -104.5t-65.5 -151t-22.5 -181.5l2 -569h-110v725q0 159 -73 239t-210 80q-88 0 -157.5 -38t-113 -104.5t-66 -151t-22.5 -181.5l3 -569h-111v1126h111v-254
q55 133 146 205t234 72q147 0 239 -75t118 -216q112 291 393 291z" />
    <glyph glyph-name="n" unicode="n" horiz-adv-x="1271" 
d="M709 1149q191 0 298 -113t107 -319v-717h-108v702q0 168 -84 255t-236 87q-193 0 -301.5 -130t-108.5 -345v-569h-108v1126h108v-264q57 134 165.5 210.5t267.5 76.5z" />
    <glyph glyph-name="o" unicode="o" horiz-adv-x="1382" 
d="M692 1149q118 0 224.5 -44.5t184.5 -121.5t123.5 -186.5t45.5 -233.5q0 -165 -76.5 -299.5t-209 -210.5t-292.5 -76q-119 0 -225.5 44.5t-184 122t-122.5 186.5t-45 233q0 165 78 300.5t210 210.5t289 75zM692 1044q-196 0 -331.5 -136t-135.5 -345q0 -207 135 -344
t332 -137t332 137t135 344q0 208 -135.5 344.5t-331.5 136.5z" />
    <glyph glyph-name="p" unicode="p" horiz-adv-x="1406" 
d="M760 1149q154 0 276 -75.5t189 -209.5t67 -301t-67 -301t-189 -209.5t-276 -75.5q-157 0 -281.5 79t-191.5 214v-782h-109v1638h109v-270q67 135 191.5 214t281.5 79zM743 82q194 0 317.5 135.5t123.5 345.5t-123 345.5t-318 135.5q-196 0 -327 -136.5t-131 -344.5
q0 -209 131 -345t327 -136z" />
    <glyph glyph-name="q" unicode="q" horiz-adv-x="1396" 
d="M1120 1126h109v-1638h-109v782q-68 -135 -191 -214t-280 -79q-235 0 -384.5 165.5t-149.5 420.5q0 167 67.5 301t189.5 209.5t275 75.5q158 0 281.5 -79t191.5 -214v270zM664 82q196 0 327 136t131 345q0 208 -131 344.5t-327 136.5q-194 0 -317.5 -135.5t-123.5 -345.5
t123.5 -345.5t317.5 -135.5z" />
    <glyph glyph-name="r" unicode="r" horiz-adv-x="833" 
d="M702 1149q47 0 74 -6v-109q-36 4 -71 4q-196 0 -312.5 -133t-116.5 -358v-547h-108v1126h108v-280q52 139 160 221t266 82z" />
    <glyph glyph-name="s" unicode="s" horiz-adv-x="1150" 
d="M614 -23q-219 0 -360 98t-176 277h110q72 -270 424 -270q147 0 243.5 57.5t96.5 161.5q0 37 -14.5 65t-40 47.5t-67 36t-89.5 30t-112 29.5q-10 2 -15.5 3.5t-14 3.5t-15.5 4q-88 22 -146.5 39.5t-112.5 38t-86 41.5t-56 48.5t-34 60.5t-10 75q0 153 122 239.5t314 86.5
q184 0 308.5 -81.5t160.5 -229.5h-110q-37 103 -130.5 154.5t-225.5 51.5q-147 0 -238.5 -58t-91.5 -155q0 -80 69.5 -115t285.5 -91q10 -3 15 -4q67 -17 102.5 -27t87.5 -25.5t78 -27.5t61 -30.5t52 -37t34 -43.5t23.5 -55t6.5 -66q0 -107 -62.5 -184t-162.5 -112.5
t-224 -35.5z" />
    <glyph glyph-name="t" unicode="t" horiz-adv-x="1044" 
d="M944 135l21 -92q-50 -26 -129 -46t-158 -20q-187 0 -291 118.5t-104 332.5v596h-226v102h226v283l108 25v-308h551v-102h-551v-592q0 -169 76 -260.5t227 -91.5q117 0 250 55z" />
    <glyph glyph-name="u" unicode="u" horiz-adv-x="1253" 
d="M985 1126h109v-1126h-109v264q-57 -133 -164 -210t-264 -77q-189 0 -294 114t-105 319v716h108v-702q0 -168 81.5 -255t232.5 -87q189 0 297 130t108 345v569z" />
    <glyph glyph-name="v" unicode="v" horiz-adv-x="1140" 
d="M967 1126h116l-442 -1126h-141l-443 1126h117l395 -1024z" />
    <glyph glyph-name="w" unicode="w" horiz-adv-x="1689" 
d="M1522 1126h110l-344 -1126h-137l-117 379l-180 629h-20l-179 -627l-116 -381h-138l-344 1126h111l108 -354l195 -661l197 661l106 354h139l109 -354l195 -657l196 657z" />
    <glyph glyph-name="x" unicode="x" horiz-adv-x="1081" 
d="M1024 0h-131l-352 494l-351 -494h-133l416 580l-391 546h131l330 -462l325 462h133l-393 -546z" />
    <glyph glyph-name="y" unicode="y" horiz-adv-x="1171" 
d="M997 1126h117l-772 -1638h-119l303 641l-469 997h117l410 -876z" />
    <glyph glyph-name="z" unicode="z" horiz-adv-x="1097" 
d="M225 102l785 2v-104h-922v104l780 920l-737 -2v104h875v-104z" />
    <glyph glyph-name="braceleft" unicode="{" horiz-adv-x="995" 
d="M555 936q0 -175 -41 -272t-149 -132q108 -35 149 -131.5t41 -271.5v-137q0 -90 5 -150.5t20 -115.5t42.5 -86t72.5 -50t110 -20v-105q-193 0 -276 126.5t-83 373.5v144q0 79 -3 126.5t-16 99.5t-37 80t-67.5 46t-107.5 18h-22v107h22q64 0 107.5 18t67.5 46t37 80
t16 99.5t3 126.5v144q0 247 83 373t276 126v-104q-65 -1 -110 -20t-72.5 -50t-42.5 -86t-20 -115.5t-5 -150.5v-137z" />
    <glyph glyph-name="bar" unicode="|" horiz-adv-x="493" 
d="M301 1434v-1627h-108v1627h108z" />
    <glyph glyph-name="braceright" unicode="}" horiz-adv-x="995" 
d="M782 586h23v-107h-23q-64 0 -107.5 -18t-68 -46t-37.5 -80t-16.5 -100t-3.5 -126v-144q0 -247 -81.5 -373.5t-274.5 -126.5v105q65 1 110 20t72 50t41.5 86.5t19 115t4.5 150.5v137q0 174 41.5 271t149.5 132q-108 35 -149.5 132.5t-41.5 271.5v137q0 91 -4.5 150.5
t-19 115t-41.5 86.5t-72 50t-110 20v104q193 0 274.5 -126t81.5 -373v-144q0 -78 3.5 -126t16.5 -100t37.5 -80t68 -46t107.5 -18z" />
    <glyph glyph-name="asciitilde" unicode="~" horiz-adv-x="1306" 
d="M885 522q-36 0 -69 9t-67 31t-53.5 37t-56.5 46q-9 7 -36.5 29.5t-41 32t-37 23.5t-45.5 20t-45 6q-71 0 -108 -55t-37 -148h-96q0 146 62 223.5t167 77.5q36 0 68.5 -9t67 -30.5t53 -35.5t57.5 -46q9 -7 36.5 -29.5t40.5 -31.5t36.5 -23.5t45.5 -20t45 -5.5
q71 0 108.5 55t37.5 147h96q0 -146 -62 -224.5t-167 -78.5z" />
    <glyph glyph-name="exclamdown" unicode="&#xa1;" horiz-adv-x="559" 
d="M279 780q-37 0 -61.5 24.5t-24.5 59.5q0 37 24.5 62.5t61.5 25.5t62.5 -25.5t25.5 -62.5q0 -35 -25.5 -59.5t-62.5 -24.5zM336 -504h-113v598l8 441h97l8 -441v-598z" />
    <glyph glyph-name="cent" unicode="&#xa2;" horiz-adv-x="1327" 
d="M692 80q150 0 265.5 81.5t160.5 213.5h115q-47 -168 -180 -273.5t-308 -119.5v-289h-108v289q-225 20 -373.5 183t-148.5 398q0 156 68.5 284.5t187.5 206.5t266 91v289h108v-287q175 -15 308 -121.5t180 -273.5h-115q-45 133 -160 214t-264 81q-200 0 -335.5 -138
t-135.5 -346t135 -345.5t334 -137.5z" />
    <glyph glyph-name="sterling" unicode="&#xa3;" horiz-adv-x="1466" 
d="M1245 305h111q0 -170 -79 -237.5t-245 -67.5h-921v104h120q80 0 109 34t29 110v385h-258v98h258v277q0 208 119.5 328t330.5 120q208 0 328.5 -117.5t120.5 -316.5h-111q0 151 -84 240.5t-248 89.5q-167 0 -257.5 -89.5t-90.5 -256.5v-275h473v-98h-473v-381
q0 -107 -57 -148h602q124 0 173.5 42t49.5 159z" />
    <glyph glyph-name="currency" unicode="&#xa4;" horiz-adv-x="1462" 
d="M1200 723q0 -168 -94 -295l164 -166l-78 -78l-162 166q-129 -104 -299 -104t-299 104l-162 -166l-77 78l165 166q-96 126 -96 295q0 165 96 295l-165 166l77 78l164 -166q127 102 297 102q168 0 295 -100l166 164l78 -78l-166 -166q96 -126 96 -295zM731 344
q157 0 263 107.5t106 271.5q0 163 -107 270t-262 107q-153 0 -261 -107t-108 -270t107 -271t262 -108z" />
    <glyph glyph-name="yen" unicode="&#xa5;" horiz-adv-x="1413" 
d="M1303 1434l-510 -846h389v-74h-420v-176h420v-72h-420v-266h-109v266h-420v72h420v176h-420v74h385l-507 846h125l471 -779l471 779h125z" />
    <glyph glyph-name="brokenbar" unicode="&#xa6;" horiz-adv-x="493" 
d="M301 1434v-725h-108v725h108zM301 532v-725h-108v725h108z" />
    <glyph glyph-name="section" unicode="&#xa7;" horiz-adv-x="1333" 
d="M956 332q81 -37 118.5 -88t37.5 -129q0 -152 -115.5 -237t-308.5 -85q-183 0 -312.5 80.5t-164.5 235.5h111q18 -62 57 -107.5t91 -70.5t107 -36.5t115 -11.5q141 0 226.5 60.5t85.5 162.5q0 30 -8 52.5t-30.5 42t-46 33t-72.5 30t-90 27.5t-118 31q-105 26 -157 41
t-119 41.5t-96.5 54.5t-51.5 71.5t-22 100.5q0 93 48 162t134 125q-81 37 -118.5 88t-37.5 129q0 150 121.5 235.5t310.5 85.5q182 0 308 -75.5t161 -225.5h-108q-25 78 -85 127t-128 66.5t-150 17.5q-137 0 -228 -61t-91 -162q0 -26 7.5 -46.5t18.5 -36.5t36.5 -31t48 -26
t68 -24.5t81.5 -23.5t102 -27q51 -13 81 -20.5t73 -19.5t67 -21t57 -22t51.5 -25t40.5 -28.5t34 -34t23 -39t15.5 -46.5t4.5 -54q0 -94 -48 -162t-135 -124zM305 647q0 -38 13 -65.5t36.5 -47.5t63 -36t86 -30t112.5 -31q12 -3 19 -5t18.5 -4.5t20.5 -5.5q93 -23 192 -55
q78 52 120 106.5t42 128.5q0 38 -13.5 65.5t-35.5 47t-63.5 36.5t-84.5 29.5t-111 30.5q-13 3 -20.5 5t-19 5t-21.5 6q-81 20 -192 56q-78 -52 -120 -107t-42 -129z" />
    <glyph glyph-name="dieresis" unicode="&#xa8;" horiz-adv-x="1015" 
d="M274 1606q35 0 59.5 -23t24.5 -57q0 -35 -24.5 -58.5t-59.5 -23.5q-34 0 -57.5 23.5t-23.5 58.5q0 34 23.5 57t57.5 23zM739 1606q35 0 59.5 -23t24.5 -57q0 -35 -24.5 -58.5t-59.5 -23.5t-59.5 23.5t-24.5 58.5q0 34 24.5 57t59.5 23z" />
    <glyph glyph-name="copyright" unicode="&#xa9;" horiz-adv-x="1490" 
d="M745 1599q150 0 277.5 -74t201.5 -201t74 -277q0 -112 -44 -214.5t-118 -176.5t-176.5 -118t-214.5 -44q-150 0 -277 74t-201 201.5t-74 277.5t74 277t201 201t277 74zM745 557q133 0 245.5 65.5t177.5 178t65 246.5q0 133 -65 245t-177.5 177t-245.5 65t-245 -65
t-177 -177t-65 -245q0 -134 65 -246.5t177 -178t245 -65.5zM745 1270q-90 0 -152.5 -63.5t-62.5 -159.5q0 -97 62.5 -161.5t152.5 -64.5q65 0 117.5 35t77.5 94h78q-28 -89 -102.5 -142.5t-170.5 -53.5q-121 0 -203.5 83.5t-82.5 209.5q0 125 82.5 207.5t203.5 82.5
q96 0 170.5 -53.5t102.5 -142.5h-78q-25 59 -77.5 94t-117.5 35z" />
    <glyph glyph-name="guillemotleft" unicode="&#xab;" horiz-adv-x="1193" 
d="M567 197l-374 374l374 375l74 -76l-299 -299l299 -299zM928 197l-375 374l375 375l76 -76l-302 -299l302 -299z" />
    <glyph glyph-name="logicalnot" unicode="&#xac;" horiz-adv-x="1411" 
d="M1219 674v-389h-109v284h-917v105h1026z" />
    <glyph glyph-name="registered" unicode="&#xae;" horiz-adv-x="1490" 
d="M745 1599q150 0 277.5 -74t201.5 -201t74 -277q0 -112 -44 -214.5t-118 -176.5t-176.5 -118t-214.5 -44q-150 0 -277 74t-201 201.5t-74 277.5t74 277t201 201t277 74zM745 555q99 0 189 39t155.5 104.5t104.5 157t39 191.5q0 202 -143.5 345.5t-344.5 143.5t-344 -143.5
t-143 -345.5q0 -134 65.5 -247t177.5 -179t244 -66zM977 1155q0 -76 -45 -125t-133 -53l194 -236h-90l-192 236h-95v-236h-71v590h246q93 0 139.5 -48.5t46.5 -127.5zM616 1268v-230h150q78 0 108.5 29.5t30.5 87.5q0 57 -30.5 85t-108.5 28h-150z" />
    <glyph glyph-name="macron" unicode="&#xaf;" horiz-adv-x="899" 
d="M707 1577v-86h-514v86h514z" />
    <glyph glyph-name="degree" unicode="&#xb0;" horiz-adv-x="1087" 
d="M543 1599q148 0 250 -102t102 -248t-103 -249t-249 -103q-145 0 -248 103t-102 249q-1 146 101 248t249 102zM543 1511q-109 0 -185.5 -77t-76.5 -187t77 -187t185 -77q109 0 186.5 77t77.5 187t-77 187t-187 77z" />
    <glyph glyph-name="plusminus" unicode="&#xb1;" horiz-adv-x="1411" 
d="M760 1116v-317h459v-88h-459v-330h-109v330h-458v88h458v317h109zM1219 289v-88h-1026v88h1026z" />
    <glyph glyph-name="uni00B2" unicode="&#xb2;" horiz-adv-x="841" 
d="M225 844h539v-84h-686v71l297 222q153 113 204.5 170t51.5 127q0 74 -54.5 122t-146.5 48q-99 0 -159.5 -53t-75.5 -158h-101q17 137 106.5 213.5t231.5 76.5q138 0 217.5 -73.5t79.5 -177.5q0 -65 -34 -122.5t-89 -105t-157 -119.5z" />
    <glyph glyph-name="uni00B3" unicode="&#xb3;" horiz-adv-x="833" 
d="M616 1200q63 -24 101.5 -80t38.5 -133q0 -106 -84.5 -178t-233.5 -72q-138 0 -238 69.5t-122 199.5h98q21 -91 90.5 -140t167.5 -49q103 0 163 47.5t60 126.5q0 74 -42.5 115t-110.5 41h-174v74h119q73 0 125.5 34.5t52.5 102.5q0 74 -55.5 118t-145.5 44q-89 0 -152 -47
t-77 -142h-99q17 129 107.5 198.5t222.5 69.5q136 0 216.5 -68.5t80.5 -172.5t-109 -158z" />
    <glyph glyph-name="acute" unicode="&#xb4;" horiz-adv-x="794" 
d="M532 1722l70 -71l-352 -328l-57 57z" />
    <glyph glyph-name="paragraph" unicode="&#xb6;" horiz-adv-x="1241" 
d="M401 1434h648v-1641h-111v1536h-328v-1536h-108v1063h-101q-91 0 -149.5 59t-58.5 150v160q0 91 58.5 150t149.5 59z" />
    <glyph glyph-name="periodcentered" unicode="&#xb7;" horiz-adv-x="559" 
d="M279 725q37 0 62.5 -24.5t25.5 -61.5q0 -35 -25.5 -59.5t-62.5 -24.5t-61.5 24.5t-24.5 59.5q0 37 24.5 61.5t61.5 24.5z" />
    <glyph glyph-name="cedilla" unicode="&#xb8;" horiz-adv-x="761" 
d="M358 -172q39 -3 75.5 -14t71 -31t55 -55t20.5 -80q0 -88 -73 -135.5t-192 -47.5q-73 0 -122 11v69q45 -10 112 -10q83 0 132.5 29t49.5 86q0 121 -229 127l96 223h82z" />
    <glyph glyph-name="uni00B9" unicode="&#xb9;" horiz-adv-x="522" 
d="M395 1577h49v-817h-98v708l-268 -100v94z" />
    <glyph glyph-name="guillemotright" unicode="&#xbb;" horiz-adv-x="1193" 
d="M266 197l-73 75l299 299l-299 299l73 76l375 -375zM629 197l-76 75l301 299l-301 299l76 76l375 -375z" />
    <glyph glyph-name="onequarter" unicode="&#xbc;" horiz-adv-x="1650" 
d="M346 616v709l-268 -100v94l317 115h49v-818h-98zM1133 1434h110l-819 -1434h-111zM1571 268v-84h-152v-184h-98v184h-459v84l428 549h129v-549h152zM954 268h367v473z" />
    <glyph glyph-name="onehalf" unicode="&#xbd;" horiz-adv-x="1783" 
d="M346 616v709l-268 -100v94l317 115h49v-818h-98zM1133 1434h110l-819 -1434h-111zM1165 84h539v-84h-686v72l297 221q153 113 204.5 170t51.5 127q0 74 -54.5 122t-146.5 48q-206 0 -235 -211h-101q17 138 107 214.5t231 76.5q138 0 217.5 -73.5t79.5 -176.5
q0 -49 -16.5 -91t-56 -85t-85 -80t-122.5 -92z" />
    <glyph glyph-name="threequarters" unicode="&#xbe;" horiz-adv-x="1867" 
d="M756 844q0 -106 -84.5 -178t-233.5 -72q-139 0 -238.5 69t-121.5 199h98q21 -91 90.5 -139.5t167.5 -48.5q103 0 163 47.5t60 126.5q0 74 -42.5 115t-110.5 41h-174v73h119q73 0 125.5 34.5t52.5 102.5q0 74 -55.5 118t-145.5 44q-89 0 -152 -46.5t-77 -141.5h-99
q17 129 107.5 198.5t222.5 69.5q136 0 216.5 -69t80.5 -173q0 -102 -109 -157q63 -24 101.5 -80t38.5 -133zM1350 1434h110l-819 -1434h-111zM1788 268v-84h-152v-184h-98v184h-459v84l428 549h129v-549h152zM1171 268h367v473z" />
    <glyph glyph-name="questiondown" unicode="&#xbf;" horiz-adv-x="1169" 
d="M610 944q37 0 62.5 -25.5t25.5 -62.5q0 -36 -25.5 -60t-62.5 -24q-38 0 -63 23.5t-25 60.5t25 62.5t63 25.5zM668 526v-104q0 -50 -16 -89t-52 -69.5t-69.5 -51t-92.5 -51.5q-9 -5 -14 -7q-45 -24 -73 -41t-59 -42.5t-48 -51.5t-28 -62t-11 -80q0 -141 100 -225t275 -84
q341 0 383 336h110q-25 -219 -157.5 -329t-337.5 -110q-217 0 -349.5 112t-132.5 298q0 71 20 127t61 98t82.5 70t105.5 61q102 54 133 80q62 53 63 127v88h107z" />
    <glyph glyph-name="Agrave" unicode="&#xc0;" horiz-adv-x="1480" 
d="M944 1634l-59 -57l-350 328l69 71zM1288 0l-194 477h-707l-194 -477h-117l592 1434h145l592 -1434h-117zM430 580h621l-312 755z" />
    <glyph glyph-name="Aacute" unicode="&#xc1;" horiz-adv-x="1480" 
d="M944 1905l-352 -328l-57 57l339 342zM1288 0l-194 477h-707l-194 -477h-117l592 1434h145l592 -1434h-117zM430 580h621l-312 755z" />
    <glyph glyph-name="Acircumflex" unicode="&#xc2;" horiz-adv-x="1480" 
d="M739 1855l-274 -278l-66 65l340 340l340 -340l-65 -65zM1288 0l-194 477h-707l-194 -477h-117l592 1434h145l592 -1434h-117zM430 580h621l-312 755z" />
    <glyph glyph-name="Atilde" unicode="&#xc3;" horiz-adv-x="1480" 
d="M571 1823q-57 0 -77.5 -47.5t-20.5 -139.5h-80q0 277 176 277q48 0 85 -23t102 -86q6 -6 22 -21.5t22 -21t19 -17t21 -16t19.5 -10.5t23 -8t24.5 -2q56 0 77.5 48t21.5 138h79q0 -276 -178 -276q-47 0 -84.5 22.5t-99.5 83.5q-7 7 -25.5 25t-25.5 25t-22 19t-25 16.5
t-24.5 9t-29.5 4.5zM1288 0l-194 477h-707l-194 -477h-117l592 1434h145l592 -1434h-117zM430 580h621l-312 755z" />
    <glyph glyph-name="Adieresis" unicode="&#xc4;" horiz-adv-x="1480" 
d="M506 1700q-34 0 -58 23t-24 57q0 35 24 58.5t58 23.5q35 0 59.5 -23.5t24.5 -58.5q0 -34 -24.5 -57t-59.5 -23zM971 1700q-35 0 -59.5 23t-24.5 57q0 35 24.5 58.5t59.5 23.5t59.5 -23.5t24.5 -58.5q0 -34 -24.5 -57t-59.5 -23zM1288 0l-194 477h-707l-194 -477h-117
l592 1434h145l592 -1434h-117zM430 580h621l-312 755z" />
    <glyph glyph-name="Aring" unicode="&#xc5;" horiz-adv-x="1480" 
d="M739 1577q-98 0 -167.5 70t-69.5 170t68.5 168.5t168.5 68.5q102 0 171.5 -69t68.5 -168q1 -99 -69.5 -169.5t-170.5 -70.5zM739 1978q-67 0 -113.5 -46.5t-45.5 -116.5q0 -68 46.5 -116t112.5 -48q67 0 114.5 48t47.5 116q0 70 -46.5 116.5t-115.5 46.5zM1288 0
l-194 477h-707l-194 -477h-117l592 1434h145l592 -1434h-117zM430 580h621l-312 755z" />
    <glyph glyph-name="AE" unicode="&#xc6;" horiz-adv-x="1722" 
d="M1626 1329h-774v-536h727v-105h-727v-584h774v-104h-883v477h-356l-194 -477h-117l592 1434h145h813v-105zM430 580h313v761z" />
    <glyph glyph-name="Ccedilla" unicode="&#xc7;" horiz-adv-x="1638" 
d="M866 82q188 0 337 97t222 261h117q-78 -213 -259 -338t-413 -125h-18l-68 -149q38 -3 74.5 -14t71 -31.5t55.5 -55.5t21 -79q0 -88 -73 -135.5t-192 -47.5q-73 0 -123 11v69q45 -10 113 -10q83 0 132.5 29t49.5 86q0 121 -229 127l90 207q-185 22 -331 121.5t-228 259
t-82 352.5q0 157 56 294.5t153.5 235t234.5 153.5t293 56q232 0 413 -125t259 -338h-117q-73 164 -222 261.5t-337 97.5q-130 0 -245.5 -49t-198.5 -133t-131.5 -202t-48.5 -251t48.5 -251t131.5 -202t198.5 -133t245.5 -49z" />
    <glyph glyph-name="Egrave" unicode="&#xc8;" horiz-adv-x="1173" 
d="M791 1634l-60 -57l-350 328l70 71zM1077 1329h-776v-536h729v-105h-729v-584h776v-104h-884v1434h884v-105z" />
    <glyph glyph-name="Eacute" unicode="&#xc9;" horiz-adv-x="1173" 
d="M791 1905l-353 -328l-57 57l340 342zM1077 1329h-776v-536h729v-105h-729v-584h776v-104h-884v1434h884v-105z" />
    <glyph glyph-name="Ecircumflex" unicode="&#xca;" horiz-adv-x="1173" 
d="M586 1855l-275 -278l-65 65l340 340l340 -340l-66 -65zM1077 1329h-776v-536h729v-105h-729v-584h776v-104h-884v1434h884v-105z" />
    <glyph glyph-name="Edieresis" unicode="&#xcb;" horiz-adv-x="1173" 
d="M352 1700q-34 0 -58 23t-24 57q0 35 24 58.5t58 23.5q35 0 59.5 -23.5t24.5 -58.5q0 -34 -24.5 -57t-59.5 -23zM817 1700q-35 0 -59.5 23t-24.5 57q0 35 24.5 58.5t59.5 23.5t59.5 -23.5t24.5 -58.5q0 -34 -24.5 -57t-59.5 -23zM1077 1329h-776v-536h729v-105h-729v-584
h776v-104h-884v1434h884v-105z" />
    <glyph glyph-name="Igrave" unicode="&#xcc;" horiz-adv-x="495" 
d="M111 1976l340 -342l-60 -57l-350 328zM195 0v1434h108v-1434h-108z" />
    <glyph glyph-name="Iacute" unicode="&#xcd;" horiz-adv-x="495" 
d="M381 1976l70 -71l-353 -328l-57 57zM195 0v1434h108v-1434h-108z" />
    <glyph glyph-name="Icircumflex" unicode="&#xce;" horiz-adv-x="495" 
d="M586 1642l-66 -65l-274 278l-275 -278l-65 65l340 340zM195 0v1434h108v-1434h-108z" />
    <glyph glyph-name="Idieresis" unicode="&#xcf;" horiz-adv-x="495" 
d="M12 1862q35 0 59.5 -23.5t24.5 -58.5q0 -34 -24.5 -57t-59.5 -23q-34 0 -58 23t-24 57q0 35 24 58.5t58 23.5zM477 1862q35 0 59.5 -23.5t24.5 -58.5q0 -34 -24.5 -57t-59.5 -23t-59.5 23t-24.5 57q0 35 24.5 58.5t59.5 23.5zM195 0v1434h108v-1434h-108z" />
    <glyph glyph-name="Eth" unicode="&#xd0;" horiz-adv-x="1527" 
d="M662 1434q207 0 375 -90.5t264 -255t96 -371.5q0 -206 -97 -370.5t-265 -255.5t-373 -91h-469v664h-160v104h160v666h469zM666 104q174 0 315.5 77.5t223.5 218t83 317.5q0 132 -48 246.5t-131.5 194.5t-198 125.5t-244.5 45.5h-365v-561h322v-104h-322v-560h365z" />
    <glyph glyph-name="Ntilde" unicode="&#xd1;" horiz-adv-x="1509" 
d="M586 1823q-57 0 -78 -47.5t-21 -139.5h-79q0 277 176 277q48 0 84.5 -22.5t101.5 -86.5q5 -5 22 -21.5t22 -21t19 -17t21.5 -16t19.5 -10t23.5 -8.5t24.5 -2q56 0 77 47.5t21 138.5h80q0 -276 -178 -276q-47 0 -85 23t-100 83l-29.5 29.5t-31 29.5t-25.5 19t-32.5 17
t-32.5 4zM1219 1434h108v-1434h-145l-899 1303l8 -703v-600h-109v1434h144l901 -1303l-8 703v600z" />
    <glyph glyph-name="Ograve" unicode="&#xd2;" horiz-adv-x="1734" 
d="M731 1976l340 -342l-59 -57l-350 328zM868 1456q154 0 290.5 -56.5t234 -154.5t154.5 -235t57 -293q0 -208 -96.5 -377.5t-265.5 -266t-374 -96.5t-374 96.5t-266 266t-97 377.5q0 207 97.5 377t266.5 266t373 96zM868 1352q-130 0 -246 -48.5t-199.5 -132.5t-132 -202.5
t-48.5 -251.5t48.5 -251.5t132 -202.5t199.5 -132.5t246 -48.5q173 0 316.5 82.5t226.5 228.5t82 324q1 178 -82 324t-226.5 228.5t-316.5 82.5z" />
    <glyph glyph-name="Oacute" unicode="&#xd3;" horiz-adv-x="1734" 
d="M1001 1976l70 -71l-352 -328l-57 57zM868 1456q154 0 290.5 -56.5t234 -154.5t154.5 -235t57 -293q0 -208 -96.5 -377.5t-265.5 -266t-374 -96.5t-374 96.5t-266 266t-97 377.5q0 207 97.5 377t266.5 266t373 96zM868 1352q-130 0 -246 -48.5t-199.5 -132.5t-132 -202.5
t-48.5 -251.5t48.5 -251.5t132 -202.5t199.5 -132.5t246 -48.5q173 0 316.5 82.5t226.5 228.5t82 324q1 178 -82 324t-226.5 228.5t-316.5 82.5z" />
    <glyph glyph-name="Ocircumflex" unicode="&#xd4;" horiz-adv-x="1734" 
d="M1206 1642l-65 -65l-275 278l-274 -278l-66 65l340 340zM868 1456q154 0 290.5 -56.5t234 -154.5t154.5 -235t57 -293q0 -208 -96.5 -377.5t-265.5 -266t-374 -96.5t-374 96.5t-266 266t-97 377.5q0 207 97.5 377t266.5 266t373 96zM868 1352q-130 0 -246 -48.5
t-199.5 -132.5t-132 -202.5t-48.5 -251.5t48.5 -251.5t132 -202.5t199.5 -132.5t246 -48.5q173 0 316.5 82.5t226.5 228.5t82 324q1 178 -82 324t-226.5 228.5t-316.5 82.5z" />
    <glyph glyph-name="Otilde" unicode="&#xd5;" horiz-adv-x="1734" 
d="M1133 1894h79q0 -276 -178 -276q-47 0 -84.5 22.5t-99.5 83.5q-7 7 -25.5 25t-25.5 25t-22 19t-25 16.5t-24.5 9t-29.5 4.5q-57 0 -77.5 -47.5t-20.5 -139.5h-80q0 277 176 277q48 0 85 -23t102 -86q6 -6 22 -21.5t22 -21t19 -17t21 -16t19.5 -10.5t23 -8t24.5 -2
q56 0 77.5 48t21.5 138zM868 1456q154 0 290.5 -56.5t234 -154.5t154.5 -235t57 -293q0 -208 -96.5 -377.5t-265.5 -266t-374 -96.5t-374 96.5t-266 266t-97 377.5q0 207 97.5 377t266.5 266t373 96zM868 1352q-130 0 -246 -48.5t-199.5 -132.5t-132 -202.5t-48.5 -251.5
t48.5 -251.5t132 -202.5t199.5 -132.5t246 -48.5q173 0 316.5 82.5t226.5 228.5t82 324q1 178 -82 324t-226.5 228.5t-316.5 82.5z" />
    <glyph glyph-name="Odieresis" unicode="&#xd6;" horiz-adv-x="1734" 
d="M633 1862q35 0 59.5 -23.5t24.5 -58.5q0 -34 -24.5 -57t-59.5 -23q-34 0 -58 23t-24 57q0 35 24 58.5t58 23.5zM1098 1862q35 0 59.5 -23.5t24.5 -58.5q0 -34 -24.5 -57t-59.5 -23t-59.5 23t-24.5 57q0 35 24.5 58.5t59.5 23.5zM868 1456q154 0 290.5 -56.5t234 -154.5
t154.5 -235t57 -293q0 -208 -96.5 -377.5t-265.5 -266t-374 -96.5t-374 96.5t-266 266t-97 377.5q0 207 97.5 377t266.5 266t373 96zM868 1352q-130 0 -246 -48.5t-199.5 -132.5t-132 -202.5t-48.5 -251.5t48.5 -251.5t132 -202.5t199.5 -132.5t246 -48.5q173 0 316.5 82.5
t226.5 228.5t82 324q1 178 -82 324t-226.5 228.5t-316.5 82.5z" />
    <glyph glyph-name="multiply" unicode="&#xd7;" horiz-adv-x="1396" 
d="M1130 1124l76 -73l-434 -430l434 -435l-76 -73l-432 434l-432 -434l-73 73l432 435l-432 430l73 73l432 -430z" />
    <glyph glyph-name="Oslash" unicode="&#xd8;" horiz-adv-x="1734" 
d="M1243 1358q166 -96 263.5 -265t97.5 -376q0 -208 -96.5 -377.5t-265.5 -266t-374 -96.5q-148 0 -286 56l-54 -105h-110l74 148q-166 96 -263.5 265t-97.5 376t97.5 377t266.5 266t373 96q149 0 287 -55l51 104h111zM242 717q0 -176 79.5 -319t217.5 -226l567 1135
q-112 45 -238 45q-130 0 -246 -48.5t-199.5 -132.5t-132 -202.5t-48.5 -251.5zM868 82q173 0 316.5 82.5t226.5 228.5t82 324q1 175 -79 318t-218 227l-567 -1135q115 -45 239 -45z" />
    <glyph glyph-name="Ugrave" unicode="&#xd9;" horiz-adv-x="1484" 
d="M606 1976l340 -342l-59 -57l-350 328zM1192 1434h111v-877q0 -143 -42.5 -255t-118 -182.5t-175.5 -106.5t-219 -36t-219 36t-175.5 106.5t-118 182.5t-42.5 255v877h110v-871q0 -238 123.5 -359.5t321.5 -121.5t321 121.5t123 359.5v871z" />
    <glyph glyph-name="Uacute" unicode="&#xda;" horiz-adv-x="1484" 
d="M877 1976l69 -71l-352 -328l-57 57zM1192 1434h111v-877q0 -143 -42.5 -255t-118 -182.5t-175.5 -106.5t-219 -36t-219 36t-175.5 106.5t-118 182.5t-42.5 255v877h110v-871q0 -238 123.5 -359.5t321.5 -121.5t321 121.5t123 359.5v871z" />
    <glyph glyph-name="Ucircumflex" unicode="&#xdb;" horiz-adv-x="1484" 
d="M1083 1642l-65 -65l-275 278l-274 -278l-66 65l340 340zM1192 1434h111v-877q0 -143 -42.5 -255t-118 -182.5t-175.5 -106.5t-219 -36t-219 36t-175.5 106.5t-118 182.5t-42.5 255v877h110v-871q0 -238 123.5 -359.5t321.5 -121.5t321 121.5t123 359.5v871z" />
    <glyph glyph-name="Udieresis" unicode="&#xdc;" horiz-adv-x="1484" 
d="M510 1862q35 0 59.5 -23.5t24.5 -58.5q0 -34 -24.5 -57t-59.5 -23q-34 0 -58 23t-24 57q0 35 24 58.5t58 23.5zM975 1862q35 0 59.5 -23.5t24.5 -58.5q0 -34 -24.5 -57t-59.5 -23t-59.5 23t-24.5 57q0 35 24.5 58.5t59.5 23.5zM1192 1434h111v-877q0 -143 -42.5 -255
t-118 -182.5t-175.5 -106.5t-219 -36t-219 36t-175.5 106.5t-118 182.5t-42.5 255v877h110v-871q0 -238 123.5 -359.5t321.5 -121.5t321 121.5t123 359.5v871z" />
    <glyph glyph-name="Yacute" unicode="&#xdd;" horiz-adv-x="1343" 
d="M877 1905l-353 -328l-57 57l340 342zM1268 1434l-541 -897v-537h-111v532l-540 902h125l471 -779l471 779h125z" />
    <glyph glyph-name="Thorn" unicode="&#xde;" horiz-adv-x="1374" 
d="M754 1223q118 0 212.5 -35t154 -96.5t91 -142t31.5 -173.5q0 -94 -31.5 -175.5t-91 -145t-154 -100t-212.5 -36.5h-451v-319h-110v1434h110v-211h451zM752 424q96 0 170.5 29t119.5 78.5t68 111t23 131.5q0 71 -23 132t-68 109.5t-119.5 76.5t-170.5 28h-449v-696h449z
" />
    <glyph glyph-name="germandbls" unicode="&#xdf;" horiz-adv-x="1257" 
d="M862 829q150 -36 228.5 -147t78.5 -266q0 -207 -135 -323t-348 -116q-68 0 -149 11.5t-134 31.5l23 101q106 -39 248 -39q174 0 280.5 88.5t106.5 249.5q0 150 -94 246t-279 96h-194v104h145q174 0 265 84.5t91 220.5q0 140 -95 232t-263 92q-171 0 -266 -100t-95 -275
v-1120h-108v1120q0 219 126 349t343 130q214 0 340.5 -119t126.5 -298q0 -122 -63 -216.5t-179 -136.5z" />
    <glyph glyph-name="agrave" unicode="&#xe0;" horiz-adv-x="1396" 
d="M907 1380l-59 -59l-350 330l69 69zM1120 1126h109v-1126h-109v268q-68 -134 -191.5 -212.5t-279.5 -78.5q-235 0 -384.5 165.5t-149.5 420.5q0 167 67.5 301t189.5 209.5t275 75.5q158 0 281.5 -79t191.5 -214v270zM664 82q196 0 327 136t131 345q0 208 -131 344.5
t-327 136.5q-194 0 -317.5 -135.5t-123.5 -345.5t123.5 -345.5t317.5 -135.5z" />
    <glyph glyph-name="aacute" unicode="&#xe1;" horiz-adv-x="1396" 
d="M907 1651l-352 -328l-57 57l340 342zM1120 1126h109v-1126h-109v268q-68 -134 -191.5 -212.5t-279.5 -78.5q-235 0 -384.5 165.5t-149.5 420.5q0 167 67.5 301t189.5 209.5t275 75.5q158 0 281.5 -79t191.5 -214v270zM664 82q196 0 327 136t131 345q0 208 -131 344.5
t-327 136.5q-194 0 -317.5 -135.5t-123.5 -345.5t123.5 -345.5t317.5 -135.5z" />
    <glyph glyph-name="acircumflex" unicode="&#xe2;" horiz-adv-x="1396" 
d="M702 1602l-274 -279l-66 63l340 343l340 -343l-65 -63zM1120 1126h109v-1126h-109v268q-68 -134 -191.5 -212.5t-279.5 -78.5q-235 0 -384.5 165.5t-149.5 420.5q0 167 67.5 301t189.5 209.5t275 75.5q158 0 281.5 -79t191.5 -214v270zM664 82q196 0 327 136t131 345
q0 208 -131 344.5t-327 136.5q-194 0 -317.5 -135.5t-123.5 -345.5t123.5 -345.5t317.5 -135.5z" />
    <glyph glyph-name="atilde" unicode="&#xe3;" horiz-adv-x="1396" 
d="M535 1573q-57 0 -78 -47.5t-21 -139.5h-80q0 277 176 277q48 0 84 -23t103 -86q7 -7 25.5 -25t25.5 -24.5t22 -18.5t25 -17t24 -9t29 -4q56 0 77.5 48.5t21.5 140.5h80q0 -279 -179 -279q-46 0 -83 23.5t-101 85.5q-7 7 -25.5 25t-25.5 24.5t-22 18.5t-25 17t-24 9t-29 4
zM1120 1126h109v-1126h-109v268q-68 -134 -191.5 -212.5t-279.5 -78.5q-235 0 -384.5 165.5t-149.5 420.5q0 167 67.5 301t189.5 209.5t275 75.5q158 0 281.5 -79t191.5 -214v270zM664 82q196 0 327 136t131 345q0 208 -131 344.5t-327 136.5q-194 0 -317.5 -135.5
t-123.5 -345.5t123.5 -345.5t317.5 -135.5z" />
    <glyph glyph-name="adieresis" unicode="&#xe4;" horiz-adv-x="1396" 
d="M469 1444q-34 0 -58 23.5t-24 58.5q0 34 24 57t58 23q35 0 59.5 -23t24.5 -57q0 -35 -24.5 -58.5t-59.5 -23.5zM934 1444q-35 0 -59.5 23.5t-24.5 58.5q0 34 24.5 57t59.5 23t59.5 -23t24.5 -57q0 -35 -24.5 -58.5t-59.5 -23.5zM1120 1126h109v-1126h-109v268
q-68 -134 -191.5 -212.5t-279.5 -78.5q-235 0 -384.5 165.5t-149.5 420.5q0 167 67.5 301t189.5 209.5t275 75.5q158 0 281.5 -79t191.5 -214v270zM664 82q196 0 327 136t131 345q0 208 -131 344.5t-327 136.5q-194 0 -317.5 -135.5t-123.5 -345.5t123.5 -345.5
t317.5 -135.5z" />
    <glyph glyph-name="aring" unicode="&#xe5;" horiz-adv-x="1396" 
d="M702 1323q-98 0 -167.5 70t-69.5 168q0 101 68.5 170t168.5 69q102 0 171.5 -69t68.5 -170q1 -98 -69.5 -168t-170.5 -70zM702 1724q-67 0 -113.5 -46.5t-45.5 -116.5q0 -69 46.5 -116.5t112.5 -47.5q68 0 115 47.5t47 116.5q0 70 -46.5 116.5t-115.5 46.5zM1120 1126
h109v-1126h-109v268q-68 -134 -191.5 -212.5t-279.5 -78.5q-235 0 -384.5 165.5t-149.5 420.5q0 167 67.5 301t189.5 209.5t275 75.5q158 0 281.5 -79t191.5 -214v270zM664 82q196 0 327 136t131 345q0 208 -131 344.5t-327 136.5q-194 0 -317.5 -135.5t-123.5 -345.5
t123.5 -345.5t317.5 -135.5z" />
    <glyph glyph-name="ae" unicode="&#xe6;" horiz-adv-x="2349" 
d="M1694 1149q257 0 409 -172.5t146 -448.5h-1016q10 -207 139 -326.5t330 -119.5q136 0 242 57.5t161 165.5h115q-67 -159 -207 -243.5t-315 -84.5q-155 0 -280 64.5t-201 181.5v-223h-95v268q-69 -135 -192.5 -213t-280.5 -78q-235 0 -384.5 165.5t-149.5 420.5
q0 254 150 420t384 166q156 0 280.5 -80t192.5 -215v272h97l-2 -229q76 119 200 185.5t277 66.5zM1694 1047q-186 0 -311.5 -116t-145.5 -300h897q-19 184 -138.5 300t-301.5 116zM664 82q198 0 329 135.5t131 345.5t-131 345.5t-329 135.5q-194 0 -316.5 -135.5
t-122.5 -345.5t122.5 -345.5t316.5 -135.5z" />
    <glyph glyph-name="ccedilla" unicode="&#xe7;" horiz-adv-x="1327" 
d="M692 80q150 0 265.5 81.5t160.5 213.5h115q-51 -180 -196.5 -287.5t-334.5 -110.5l-67 -149q38 -3 74.5 -14t70.5 -31.5t55 -55t21 -79.5q0 -88 -72.5 -135.5t-191.5 -47.5q-74 0 -123 11v69q45 -10 113 -10q83 0 132.5 29t49.5 86q0 121 -229 127l88 205
q-221 25 -364.5 187t-143.5 394q0 166 76.5 300.5t209 210t293.5 75.5q192 0 339.5 -107.5t199.5 -289.5h-115q-45 133 -160 214t-264 81q-200 0 -335.5 -138t-135.5 -346t135 -345.5t334 -137.5z" />
    <glyph glyph-name="egrave" unicode="&#xe8;" horiz-adv-x="1339" 
d="M874 1380l-59 -59l-350 330l70 69zM684 1149q257 0 409.5 -172.5t147.5 -448.5h-1016q9 -206 138 -326t329 -120q136 0 243 57.5t163 165.5h112q-67 -160 -206.5 -244t-313.5 -84q-251 0 -413 161.5t-162 420.5q0 170 73 304.5t203 210t293 75.5zM684 1047
q-185 0 -310 -116t-147 -300h899q-21 185 -140 300.5t-302 115.5z" />
    <glyph glyph-name="eacute" unicode="&#xe9;" horiz-adv-x="1339" 
d="M874 1651l-352 -328l-57 57l340 342zM684 1149q257 0 409.5 -172.5t147.5 -448.5h-1016q9 -206 138 -326t329 -120q136 0 243 57.5t163 165.5h112q-67 -160 -206.5 -244t-313.5 -84q-251 0 -413 161.5t-162 420.5q0 170 73 304.5t203 210t293 75.5zM684 1047
q-185 0 -310 -116t-147 -300h899q-21 185 -140 300.5t-302 115.5z" />
    <glyph glyph-name="ecircumflex" unicode="&#xea;" horiz-adv-x="1339" 
d="M672 1602l-275 -279l-65 63l340 343l340 -343l-66 -63zM684 1149q257 0 409.5 -172.5t147.5 -448.5h-1016q9 -206 138 -326t329 -120q136 0 243 57.5t163 165.5h112q-67 -160 -206.5 -244t-313.5 -84q-251 0 -413 161.5t-162 420.5q0 170 73 304.5t203 210t293 75.5z
M684 1047q-185 0 -310 -116t-147 -300h899q-21 185 -140 300.5t-302 115.5z" />
    <glyph glyph-name="edieresis" unicode="&#xeb;" horiz-adv-x="1339" 
d="M438 1444q-34 0 -58 23.5t-24 58.5q0 34 24 57t58 23q35 0 59.5 -23t24.5 -57q0 -35 -24.5 -58.5t-59.5 -23.5zM903 1444q-35 0 -59.5 23.5t-24.5 58.5q0 34 24.5 57t59.5 23t59.5 -23t24.5 -57q0 -35 -24.5 -58.5t-59.5 -23.5zM684 1149q257 0 409.5 -172.5
t147.5 -448.5h-1016q9 -206 138 -326t329 -120q136 0 243 57.5t163 165.5h112q-67 -160 -206.5 -244t-313.5 -84q-251 0 -413 161.5t-162 420.5q0 170 73 304.5t203 210t293 75.5zM684 1047q-185 0 -310 -116t-147 -300h899q-21 185 -140 300.5t-302 115.5z" />
    <glyph glyph-name="igrave" unicode="&#xec;" horiz-adv-x="444" 
d="M86 1720l340 -340l-59 -59l-351 330zM168 0v1126h108v-1126h-108z" />
    <glyph glyph-name="iacute" unicode="&#xed;" horiz-adv-x="444" 
d="M356 1722l70 -71l-352 -328l-58 57zM168 0v1126h108v-1126h-108z" />
    <glyph glyph-name="icircumflex" unicode="&#xee;" horiz-adv-x="444" 
d="M561 1386l-65 -63l-275 279l-274 -279l-66 63l340 343zM168 0v1126h108v-1126h-108z" />
    <glyph glyph-name="idieresis" unicode="&#xef;" horiz-adv-x="444" 
d="M-12 1606q35 0 59.5 -23t24.5 -57q0 -35 -24.5 -58.5t-59.5 -23.5q-34 0 -58 23.5t-24 58.5q0 34 24 57t58 23zM453 1606q35 0 59.5 -23t24.5 -57q0 -35 -24.5 -58.5t-59.5 -23.5t-59.5 23.5t-24.5 58.5q0 34 24.5 57t59.5 23zM168 0v1126h108v-1126h-108z" />
    <glyph glyph-name="eth" unicode="&#xf0;" horiz-adv-x="1370" 
d="M1255 1485l-176 -154q176 -233 176 -731q-1 -145 -45.5 -263.5t-120.5 -196.5t-179 -120.5t-222 -42.5q-120 0 -225.5 43t-182 118.5t-121 185.5t-44.5 239q0 246 150 399.5t380 153.5q162 0 296 -79.5t198 -225.5q-12 139 -41 245t-79 181t-113 125.5t-151 79.5
t-184.5 41t-222.5 12v104q223 0 386.5 -42.5t275.5 -145.5l176 152zM690 76q200 0 328.5 132.5t128.5 350.5q0 137 -68.5 244t-177.5 162t-235 55q-193 0 -318 -128t-125 -333q0 -216 134.5 -349.5t332.5 -133.5z" />
    <glyph glyph-name="ntilde" unicode="&#xf1;" horiz-adv-x="1271" 
d="M467 1573q-57 0 -77.5 -47.5t-20.5 -139.5h-80q0 277 176 277q47 0 83 -22.5t103 -86.5q6 -6 25.5 -25t25.5 -24.5t22 -18.5t25.5 -17t24 -8.5t29.5 -4.5q56 0 77 48.5t21 140.5h80q0 -279 -178 -279q-47 0 -84 23.5t-101 85.5q-7 7 -25.5 25t-25.5 24.5t-22 18.5t-25 17
t-24 9t-29 4zM709 1149q191 0 298 -113t107 -319v-717h-108v702q0 168 -84 255t-236 87q-193 0 -301.5 -130t-108.5 -345v-569h-108v1126h108v-264q57 134 165.5 210.5t267.5 76.5z" />
    <glyph glyph-name="ograve" unicode="&#xf2;" horiz-adv-x="1382" 
d="M555 1720l340 -340l-59 -59l-351 330zM692 1149q118 0 224.5 -44.5t184.5 -121.5t123.5 -186.5t45.5 -233.5q0 -165 -76.5 -299.5t-209 -210.5t-292.5 -76q-119 0 -225.5 44.5t-184 122t-122.5 186.5t-45 233q0 165 78 300.5t210 210.5t289 75zM692 1044
q-196 0 -331.5 -136t-135.5 -345q0 -207 135 -344t332 -137t332 137t135 344q0 208 -135.5 344.5t-331.5 136.5z" />
    <glyph glyph-name="oacute" unicode="&#xf3;" horiz-adv-x="1382" 
d="M825 1722l70 -71l-352 -328l-58 57zM692 1149q118 0 224.5 -44.5t184.5 -121.5t123.5 -186.5t45.5 -233.5q0 -165 -76.5 -299.5t-209 -210.5t-292.5 -76q-119 0 -225.5 44.5t-184 122t-122.5 186.5t-45 233q0 165 78 300.5t210 210.5t289 75zM692 1044
q-196 0 -331.5 -136t-135.5 -345q0 -207 135 -344t332 -137t332 137t135 344q0 208 -135.5 344.5t-331.5 136.5z" />
    <glyph glyph-name="ocircumflex" unicode="&#xf4;" horiz-adv-x="1382" 
d="M1030 1386l-65 -63l-275 279l-274 -279l-66 63l340 343zM692 1149q118 0 224.5 -44.5t184.5 -121.5t123.5 -186.5t45.5 -233.5q0 -165 -76.5 -299.5t-209 -210.5t-292.5 -76q-119 0 -225.5 44.5t-184 122t-122.5 186.5t-45 233q0 165 78 300.5t210 210.5t289 75z
M692 1044q-196 0 -331.5 -136t-135.5 -345q0 -207 135 -344t332 -137t332 137t135 344q0 208 -135.5 344.5t-331.5 136.5z" />
    <glyph glyph-name="otilde" unicode="&#xf5;" horiz-adv-x="1382" 
d="M956 1645h80q0 -279 -178 -279q-46 0 -83 23.5t-101 85.5q-6 6 -25.5 25t-25.5 24.5t-22 18.5t-25.5 17t-24 8.5t-29.5 4.5q-57 0 -77.5 -47.5t-20.5 -139.5h-80q0 277 176 277q48 0 84 -23t103 -86q7 -7 25.5 -25t25.5 -24.5t22 -18.5t25 -17t24 -9t29 -4q56 0 77 48.5
t21 140.5zM692 1149q118 0 224.5 -44.5t184.5 -121.5t123.5 -186.5t45.5 -233.5q0 -165 -76.5 -299.5t-209 -210.5t-292.5 -76q-119 0 -225.5 44.5t-184 122t-122.5 186.5t-45 233q0 165 78 300.5t210 210.5t289 75zM692 1044q-196 0 -331.5 -136t-135.5 -345
q0 -207 135 -344t332 -137t332 137t135 344q0 208 -135.5 344.5t-331.5 136.5z" />
    <glyph glyph-name="odieresis" unicode="&#xf6;" horiz-adv-x="1382" 
d="M457 1606q35 0 59.5 -23t24.5 -57q0 -35 -24.5 -58.5t-59.5 -23.5q-34 0 -58 23.5t-24 58.5q0 34 24 57t58 23zM922 1606q35 0 59.5 -23t24.5 -57q0 -35 -24.5 -58.5t-59.5 -23.5t-59.5 23.5t-24.5 58.5q0 34 24.5 57t59.5 23zM692 1149q118 0 224.5 -44.5t184.5 -121.5
t123.5 -186.5t45.5 -233.5q0 -165 -76.5 -299.5t-209 -210.5t-292.5 -76q-119 0 -225.5 44.5t-184 122t-122.5 186.5t-45 233q0 165 78 300.5t210 210.5t289 75zM692 1044q-196 0 -331.5 -136t-135.5 -345q0 -207 135 -344t332 -137t332 137t135 344q0 208 -135.5 344.5
t-331.5 136.5z" />
    <glyph glyph-name="divide" unicode="&#xf7;" horiz-adv-x="1411" 
d="M707 1038q37 0 61.5 -24.5t24.5 -59.5q0 -37 -24.5 -60.5t-61.5 -23.5q-39 0 -65 24t-26 60q0 35 26.5 59.5t64.5 24.5zM1219 674v-105h-1026v105h1026zM707 375q37 0 61.5 -24.5t24.5 -59.5q0 -37 -24.5 -60.5t-61.5 -23.5q-39 0 -65 24t-26 60q0 35 26.5 59.5
t64.5 24.5z" />
    <glyph glyph-name="oslash" unicode="&#xf8;" horiz-adv-x="1382" 
d="M1061 1016q98 -80 153.5 -197.5t55.5 -255.5q0 -165 -76.5 -299.5t-209 -210.5t-292.5 -76q-169 0 -313 91l-47 -68h-90l77 111q-96 80 -150 197t-54 255q0 165 78 300.5t210 210.5t289 75q165 0 309 -88l48 65h92zM225 563q0 -112 41.5 -206t116.5 -160l557 778
q-110 69 -248 69q-196 0 -331.5 -136t-135.5 -345zM692 82q197 0 332 137t135 344q0 112 -42.5 206.5t-117.5 160.5l-557 -776q110 -72 250 -72z" />
    <glyph glyph-name="ugrave" unicode="&#xf9;" horiz-adv-x="1253" 
d="M829 1380l-59 -59l-350 330l69 69zM985 1126h109v-1126h-109v264q-57 -133 -164 -210t-264 -77q-189 0 -294 114t-105 319v716h108v-702q0 -168 81.5 -255t232.5 -87q189 0 297 130t108 345v569z" />
    <glyph glyph-name="uacute" unicode="&#xfa;" horiz-adv-x="1253" 
d="M829 1651l-352 -328l-57 57l340 342zM985 1126h109v-1126h-109v264q-57 -133 -164 -210t-264 -77q-189 0 -294 114t-105 319v716h108v-702q0 -168 81.5 -255t232.5 -87q189 0 297 130t108 345v569z" />
    <glyph glyph-name="ucircumflex" unicode="&#xfb;" horiz-adv-x="1253" 
d="M625 1602l-275 -279l-65 63l340 343l340 -343l-66 -63zM985 1126h109v-1126h-109v264q-57 -133 -164 -210t-264 -77q-189 0 -294 114t-105 319v716h108v-702q0 -168 81.5 -255t232.5 -87q189 0 297 130t108 345v569z" />
    <glyph glyph-name="udieresis" unicode="&#xfc;" horiz-adv-x="1253" 
d="M391 1444q-34 0 -58 23.5t-24 58.5q0 34 24 57t58 23q35 0 59.5 -23t24.5 -57q0 -35 -24.5 -58.5t-59.5 -23.5zM856 1444q-35 0 -59.5 23.5t-24.5 58.5q0 34 24.5 57t59.5 23t59.5 -23t24.5 -57q0 -35 -24.5 -58.5t-59.5 -23.5zM985 1126h109v-1126h-109v264
q-57 -133 -164 -210t-264 -77q-189 0 -294 114t-105 319v716h108v-702q0 -168 81.5 -255t232.5 -87q189 0 297 130t108 345v569z" />
    <glyph glyph-name="yacute" unicode="&#xfd;" horiz-adv-x="1171" 
d="M791 1651l-353 -328l-57 57l340 342zM997 1126h117l-772 -1638h-119l303 641l-469 997h117l410 -876z" />
    <glyph glyph-name="thorn" unicode="&#xfe;" horiz-adv-x="1406" 
d="M760 1149q154 0 276 -75.5t189 -209.5t67 -301t-67 -301t-189 -209.5t-276 -75.5q-157 0 -281.5 79t-191.5 214v-782h-109v2089h109v-721q67 135 191.5 214t281.5 79zM743 82q194 0 317.5 135.5t123.5 345.5t-123 345.5t-318 135.5q-196 0 -327 -136.5t-131 -344.5
q0 -209 131 -345t327 -136z" />
    <glyph glyph-name="ydieresis" unicode="&#xff;" horiz-adv-x="1171" 
d="M352 1444q-34 0 -58 23.5t-24 58.5q0 34 24 57t58 23q35 0 59.5 -23t24.5 -57q0 -35 -24.5 -58.5t-59.5 -23.5zM817 1444q-35 0 -59.5 23.5t-24.5 58.5q0 34 24.5 57t59.5 23t59.5 -23t24.5 -57q0 -35 -24.5 -58.5t-59.5 -23.5zM997 1126h117l-772 -1638h-119l303 641
l-469 997h117l410 -876z" />
    <glyph glyph-name="Amacron" unicode="&#x100;" horiz-adv-x="1480" 
d="M997 1831v-86h-514v86h514zM1288 0l-194 477h-707l-194 -477h-117l592 1434h145l592 -1434h-117zM430 580h621l-312 755z" />
    <glyph glyph-name="amacron" unicode="&#x101;" horiz-adv-x="1396" 
d="M961 1577v-86h-515v86h515zM1120 1126h109v-1126h-109v268q-68 -134 -191.5 -212.5t-279.5 -78.5q-235 0 -384.5 165.5t-149.5 420.5q0 167 67.5 301t189.5 209.5t275 75.5q158 0 281.5 -79t191.5 -214v270zM664 82q196 0 327 136t131 345q0 208 -131 344.5t-327 136.5
q-194 0 -317.5 -135.5t-123.5 -345.5t123.5 -345.5t317.5 -135.5z" />
    <glyph glyph-name="Abreve" unicode="&#x102;" horiz-adv-x="1480" 
d="M739 1608q-138 0 -229.5 83.5t-91.5 219.5v26h94v-22q0 -99 62 -158t165 -59t165.5 59t62.5 158v22h94v-26q0 -135 -92.5 -219t-229.5 -84zM1288 0l-194 477h-707l-194 -477h-117l592 1434h145l592 -1434h-117zM430 580h621l-312 755z" />
    <glyph glyph-name="abreve" unicode="&#x103;" horiz-adv-x="1396" 
d="M702 1354q-138 0 -229.5 83t-91.5 220v26h94v-22q0 -99 62 -158t165 -59t165.5 59t62.5 158v22h94v-26q0 -136 -92.5 -219.5t-229.5 -83.5zM1120 1126h109v-1126h-109v268q-68 -134 -191.5 -212.5t-279.5 -78.5q-235 0 -384.5 165.5t-149.5 420.5q0 167 67.5 301
t189.5 209.5t275 75.5q158 0 281.5 -79t191.5 -214v270zM664 82q196 0 327 136t131 345q0 208 -131 344.5t-327 136.5q-194 0 -317.5 -135.5t-123.5 -345.5t123.5 -345.5t317.5 -135.5z" />
    <glyph glyph-name="Aogonek" unicode="&#x104;" horiz-adv-x="1480" 
d="M1165 -342q0 -60 37.5 -89.5t104.5 -29.5q53 0 98 10v-73q-50 -11 -113 -11q-99 0 -159 47.5t-60 135.5q0 34 13 69t29.5 62.5t55.5 70t66 69t86 81.5h-35l-194 477h-707l-194 -477h-117l592 1434h145l592 -1434q-136 -136 -188 -207t-52 -135zM430 580h621l-312 755z
" />
    <glyph glyph-name="aogonek" unicode="&#x105;" horiz-adv-x="1396" 
d="M1120 1126h109v-1126q-136 -136 -188 -207t-52 -135q0 -60 37 -89.5t104 -29.5q54 0 99 10v-73q-49 -11 -113 -11q-99 0 -159 47.5t-60 135.5q0 80 54 154t186 198h-17v268q-68 -134 -191.5 -212.5t-279.5 -78.5q-235 0 -384.5 165.5t-149.5 420.5q0 167 67.5 301
t189.5 209.5t275 75.5q158 0 281.5 -79t191.5 -214v270zM664 82q196 0 327 136t131 345q0 208 -131 344.5t-327 136.5q-194 0 -317.5 -135.5t-123.5 -345.5t123.5 -345.5t317.5 -135.5z" />
    <glyph glyph-name="Cacute" unicode="&#x106;" horiz-adv-x="1638" 
d="M952 1976l70 -71l-352 -328l-58 57zM870 -23q-156 0 -293 56t-234.5 153.5t-153.5 235.5t-56 295t56 294.5t153.5 235t234.5 153.5t293 56q232 0 413 -125t259 -338h-117q-73 164 -222 261.5t-337 97.5q-130 0 -245.5 -49t-198.5 -133t-131.5 -202t-48.5 -251t48.5 -251
t131.5 -202t198.5 -133t245.5 -49q188 0 337 97t222 261h117q-78 -213 -259 -338t-413 -125z" />
    <glyph glyph-name="cacute" unicode="&#x107;" horiz-adv-x="1327" 
d="M803 1722l69 -71l-352 -328l-57 57zM692 -23q-160 0 -292 75.5t-208.5 210t-76.5 300.5t76.5 300.5t209 210t293.5 75.5q192 0 339.5 -107.5t199.5 -289.5h-115q-45 133 -160 214t-264 81q-200 0 -335.5 -138t-135.5 -346t135 -345.5t334 -137.5q150 0 265.5 81.5
t160.5 213.5h115q-52 -182 -200.5 -290t-340.5 -108z" />
    <glyph glyph-name="Ccaron" unicode="&#x10c;" horiz-adv-x="1638" 
d="M1159 1919l-340 -340l-340 340l66 66l274 -279l275 279zM870 -23q-156 0 -293 56t-234.5 153.5t-153.5 235.5t-56 295t56 294.5t153.5 235t234.5 153.5t293 56q232 0 413 -125t259 -338h-117q-73 164 -222 261.5t-337 97.5q-130 0 -245.5 -49t-198.5 -133t-131.5 -202
t-48.5 -251t48.5 -251t131.5 -202t198.5 -133t245.5 -49q188 0 337 97t222 261h117q-78 -213 -259 -338t-413 -125z" />
    <glyph glyph-name="ccaron" unicode="&#x10d;" horiz-adv-x="1327" 
d="M1008 1663l-340 -340l-340 340l65 66l275 -279l274 279zM692 -23q-160 0 -292 75.5t-208.5 210t-76.5 300.5t76.5 300.5t209 210t293.5 75.5q192 0 339.5 -107.5t199.5 -289.5h-115q-45 133 -160 214t-264 81q-200 0 -335.5 -138t-135.5 -346t135 -345.5t334 -137.5
q150 0 265.5 81.5t160.5 213.5h115q-52 -182 -200.5 -290t-340.5 -108z" />
    <glyph glyph-name="Dcaron" unicode="&#x10e;" horiz-adv-x="1527" 
d="M1001 1919l-339 -340l-340 340l65 66l275 -279l274 279zM662 1434q207 0 375 -90.5t264 -255t96 -371.5q0 -206 -97 -370.5t-265 -255.5t-373 -91h-469v1434h469zM666 104q174 0 315.5 77.5t223.5 218t83 317.5q0 132 -48 246.5t-131.5 194.5t-198 125.5t-244.5 45.5
h-365v-1225h365z" />
    <glyph glyph-name="dcaron" unicode="&#x10f;" horiz-adv-x="1400" 
d="M1550 1528q0 -22 -16 -72t-78 -213h-78l84 215q-28 3 -46.5 22t-18.5 48q0 31 23 52.5t53 21.5t52 -19t25 -55zM1126 856v721h109v-1577h-109v270q-69 -135 -193 -214t-280 -79q-235 0 -384.5 165.5t-149.5 420.5q0 167 67.5 301t189.5 209.5t275 75.5q158 0 282 -79
t193 -214zM668 82q196 0 327 136t131 345q0 208 -131 344.5t-327 136.5q-194 0 -317.5 -135.5t-123.5 -345.5t123.5 -345.5t317.5 -135.5z" />
    <glyph glyph-name="Dcroat" unicode="&#x110;" horiz-adv-x="1527" 
d="M662 1434q207 0 375 -90.5t264 -255t96 -371.5q0 -206 -97 -370.5t-265 -255.5t-373 -91h-469v664h-160v104h160v666h469zM666 104q174 0 315.5 77.5t223.5 218t83 317.5q0 132 -48 246.5t-131.5 194.5t-198 125.5t-244.5 45.5h-365v-561h322v-104h-322v-560h365z" />
    <glyph glyph-name="dcroat" unicode="&#x111;" horiz-adv-x="1400" 
d="M1362 1411v-104h-127v-1307h-109v270q-69 -135 -193 -214t-280 -79q-235 0 -384.5 165.5t-149.5 420.5q0 167 67.5 301t189.5 209.5t275 75.5q158 0 282 -79t193 -214v451h-354v104h354v166h109v-166h127zM668 82q196 0 327 136t131 345q0 208 -131 344.5t-327 136.5
q-194 0 -317.5 -135.5t-123.5 -345.5t123.5 -345.5t317.5 -135.5z" />
    <glyph glyph-name="Emacron" unicode="&#x112;" horiz-adv-x="1173" 
d="M844 1831v-86h-514v86h514zM1077 1329h-776v-536h729v-105h-729v-584h776v-104h-884v1434h884v-105z" />
    <glyph glyph-name="emacron" unicode="&#x113;" horiz-adv-x="1339" 
d="M928 1577v-86h-514v86h514zM684 1149q257 0 409.5 -172.5t147.5 -448.5h-1016q9 -206 138 -326t329 -120q136 0 243 57.5t163 165.5h112q-67 -160 -206.5 -244t-313.5 -84q-251 0 -413 161.5t-162 420.5q0 170 73 304.5t203 210t293 75.5zM684 1047q-185 0 -310 -116
t-147 -300h899q-21 185 -140 300.5t-302 115.5z" />
    <glyph glyph-name="Edotaccent" unicode="&#x116;" horiz-adv-x="1173" 
d="M586 1700q-34 0 -58 23t-24 57q0 35 24 58.5t58 23.5q35 0 59.5 -23.5t24.5 -58.5q0 -34 -24.5 -57t-59.5 -23zM1077 1329h-776v-536h729v-105h-729v-584h776v-104h-884v1434h884v-105z" />
    <glyph glyph-name="edotaccent" unicode="&#x117;" horiz-adv-x="1339" 
d="M672 1440q-36 0 -61 25t-25 61q0 35 25.5 59.5t60.5 24.5q38 0 63 -24t25 -60q0 -37 -25 -61.5t-63 -24.5zM684 1149q257 0 409.5 -172.5t147.5 -448.5h-1016q9 -206 138 -326t329 -120q136 0 243 57.5t163 165.5h112q-67 -160 -206.5 -244t-313.5 -84q-251 0 -413 161.5
t-162 420.5q0 170 73 304.5t203 210t293 75.5zM684 1047q-185 0 -310 -116t-147 -300h899q-21 185 -140 300.5t-302 115.5z" />
    <glyph glyph-name="Eogonek" unicode="&#x118;" horiz-adv-x="1173" 
d="M838 -342q0 -60 37 -89.5t104 -29.5q53 0 98 10v-73q-50 -11 -112 -11q-99 0 -159.5 47.5t-60.5 135.5q0 34 13 69t29.5 62.5t55.5 70t66 69t86 81.5h-802v1434h884v-105h-776v-536h729v-105h-729v-584h776v-104q-135 -135 -187 -206.5t-52 -135.5z" />
    <glyph glyph-name="eogonek" unicode="&#x119;" horiz-adv-x="1339" 
d="M684 1149q257 0 409.5 -172.5t147.5 -448.5h-1016q9 -206 138 -326t329 -120q136 0 243 57.5t163 165.5h112q-50 -120 -140.5 -196.5t-209.5 -108.5h2q-135 -135 -187 -206.5t-52 -135.5q0 -60 37 -89.5t104 -29.5q53 0 98 10v-73q-50 -11 -112 -11q-99 0 -159.5 47.5
t-60.5 135.5q0 76 50.5 147t169.5 187q-50 -5 -60 -5q-251 0 -413 161.5t-162 420.5q0 170 73 304.5t203 210t293 75.5zM684 1047q-185 0 -310 -116t-147 -300h899q-21 185 -140 300.5t-302 115.5z" />
    <glyph glyph-name="Ecaron" unicode="&#x11a;" horiz-adv-x="1173" 
d="M926 1919l-340 -340l-340 340l65 66l275 -279l274 279zM1077 1329h-776v-536h729v-105h-729v-584h776v-104h-884v1434h884v-105z" />
    <glyph glyph-name="ecaron" unicode="&#x11b;" horiz-adv-x="1339" 
d="M1012 1663l-340 -340l-340 340l65 66l275 -279l274 279zM684 1149q257 0 409.5 -172.5t147.5 -448.5h-1016q9 -206 138 -326t329 -120q136 0 243 57.5t163 165.5h112q-67 -160 -206.5 -244t-313.5 -84q-251 0 -413 161.5t-162 420.5q0 170 73 304.5t203 210t293 75.5z
M684 1047q-185 0 -310 -116t-147 -300h899q-21 185 -140 300.5t-302 115.5z" />
    <glyph glyph-name="Gcommaaccent" unicode="&#x122;" horiz-adv-x="1732" 
d="M801 729h749v-729h-98v383q-58 -190 -217.5 -298t-372.5 -108q-205 0 -372.5 96t-263 265.5t-95.5 378.5q0 157 56.5 294.5t154 235t233.5 153.5t291 56q235 0 415 -124t259 -335h-117q-73 162 -222 258.5t-337 96.5q-130 0 -245.5 -49t-198.5 -133.5t-131.5 -203
t-48.5 -253.5q0 -176 80.5 -321t224 -228.5t321.5 -83.5q246 0 408 153.5t168 399.5h-641v96zM881 -154q30 0 52 -19t23 -54q2 -22 -14 -73t-78 -212h-80l86 213q-30 5 -47.5 23t-17.5 47q0 33 22 54t54 21z" />
    <glyph glyph-name="gcommaaccent" unicode="&#x123;" horiz-adv-x="1396" 
d="M690 1323q-29 0 -52 19t-24 53q-2 19 14 67t81 219h77l-88 -215q31 -3 49.5 -21.5t18.5 -47.5q0 -33 -22 -53.5t-54 -20.5zM1120 1126h109v-1114q0 -254 -139.5 -400.5t-382.5 -146.5q-199 0 -347.5 105t-195.5 287h115q40 -134 154 -212.5t272 -78.5q199 0 307 116
t108 326v264q-67 -133 -192.5 -211.5t-278.5 -78.5q-235 0 -384.5 165t-149.5 418q0 166 67.5 299.5t190 209t276.5 75.5q153 0 278.5 -79.5t192.5 -213.5v270zM664 86q196 0 327 135.5t131 343.5q0 206 -131 342.5t-327 136.5q-194 0 -317.5 -135.5t-123.5 -343.5
t123.5 -343.5t317.5 -135.5z" />
    <glyph glyph-name="Imacron" unicode="&#x12a;" horiz-adv-x="495" 
d="M504 1831v-86h-514v86h514zM195 0v1434h108v-1434h-108z" />
    <glyph glyph-name="imacron" unicode="&#x12b;" horiz-adv-x="444" 
d="M479 1577v-86h-514v86h514zM168 0v1126h108v-1126h-108z" />
    <glyph glyph-name="Iogonek" unicode="&#x12e;" horiz-adv-x="495" 
d="M63 -342q0 -60 37.5 -89.5t104.5 -29.5q53 0 98 10v-73q-49 -11 -113 -11q-99 0 -159 47.5t-60 135.5q0 34 13 69t29.5 62.5t55.5 70t66 69t86 81.5h-26v1434h108v-1434q-136 -136 -188 -207t-52 -135z" />
    <glyph glyph-name="iogonek" unicode="&#x12f;" horiz-adv-x="444" 
d="M221 1610q38 0 63 -24t25 -60q0 -37 -25 -61.5t-63 -24.5q-36 0 -61 25t-25 61q0 35 25.5 59.5t60.5 24.5zM276 0q-135 -135 -187 -206.5t-52 -135.5q0 -60 37 -89.5t104 -29.5q53 0 98 10v-73q-49 -11 -112 -11q-99 0 -159 47.5t-60 135.5q0 80 54 154.5t185 197.5h-16
v1126h108v-1126z" />
    <glyph glyph-name="dotlessi" unicode="&#x131;" horiz-adv-x="444" 
d="M168 0v1126h108v-1126h-108z" />
    <glyph glyph-name="Kcommaaccent" unicode="&#x136;" horiz-adv-x="1261" 
d="M426 729l760 -729h-144l-741 705v-705h-108v1434h108v-686l721 686h143zM645 -154q30 0 52.5 -19t23.5 -54q2 -22 -14 -73t-78 -212h-80l86 213q-30 5 -48 23t-18 47q0 33 22 54t54 21z" />
    <glyph glyph-name="kcommaaccent" unicode="&#x137;" horiz-adv-x="1165" 
d="M410 594l698 -594h-150l-671 565v-565h-109v1577h109v-965l612 514h148zM598 -154q30 0 52.5 -19t23.5 -54q2 -22 -14 -73t-78 -212h-80l86 213q-30 5 -48 23t-18 47q0 33 22 54t54 21z" />
    <glyph glyph-name="Lacute" unicode="&#x139;" horiz-adv-x="1103" 
d="M758 1905l-352 -328l-58 57l340 342zM301 104h729v-104h-837v1434h108v-1330z" />
    <glyph glyph-name="lacute" unicode="&#x13a;" horiz-adv-x="444" 
d="M356 2120l70 -72l-352 -328l-58 58zM176 0v1577h111v-1577h-111z" />
    <glyph glyph-name="Lcommaaccent" unicode="&#x13b;" horiz-adv-x="1103" 
d="M301 104h729v-104h-837v1434h108v-1330zM567 -154q30 0 52.5 -19t23.5 -54q2 -22 -14 -73t-78 -212h-80l86 213q-30 5 -47.5 23t-17.5 47q0 33 22 54t53 21z" />
    <glyph glyph-name="lcommaaccent" unicode="&#x13c;" horiz-adv-x="444" 
d="M287 1577v-1577h-111v1577h111zM311 -227q2 -22 -14 -73t-78 -212h-80l86 213q-30 5 -47.5 23t-17.5 47q0 33 22 54t54 21q30 0 52 -19t23 -54z" />
    <glyph glyph-name="Lcaron" unicode="&#x13d;" horiz-adv-x="1103" 
d="M741 1098h-77l86 213q-30 5 -48 23t-18 46q0 33 22.5 54.5t53.5 21.5q29 0 52 -19.5t24 -54.5q2 -21 -14.5 -71t-80.5 -213zM301 104h729v-104h-837v1434h108v-1330z" />
    <glyph glyph-name="lcaron" unicode="&#x13e;" horiz-adv-x="442" 
d="M602 1528q2 -20 -13.5 -68t-80.5 -217h-78l86 215q-30 3 -48.5 22t-18.5 48q0 32 23 53t54 21q29 0 51 -19t25 -55zM176 0v1577h111v-1577h-111z" />
    <glyph glyph-name="Lslash" unicode="&#x141;" horiz-adv-x="1103" 
d="M301 104h729v-104h-837v606l-154 -37v105l154 39v721h108v-695l328 80v-104l-328 -82v-529z" />
    <glyph glyph-name="lslash" unicode="&#x142;" horiz-adv-x="442" 
d="M475 797v-105l-188 -47v-645h-111v618l-199 -49v105l199 49v854h111v-827z" />
    <glyph glyph-name="Nacute" unicode="&#x143;" horiz-adv-x="1509" 
d="M958 1905l-352 -328l-57 57l340 342zM1219 1434h108v-1434h-145l-899 1303l8 -703v-600h-109v1434h144l901 -1303l-8 703v600z" />
    <glyph glyph-name="nacute" unicode="&#x144;" horiz-adv-x="1271" 
d="M840 1651l-353 -328l-57 57l340 342zM709 1149q191 0 298 -113t107 -319v-717h-108v702q0 168 -84 255t-236 87q-193 0 -301.5 -130t-108.5 -345v-569h-108v1126h108v-264q57 134 165.5 210.5t267.5 76.5z" />
    <glyph glyph-name="Ncommaaccent" unicode="&#x145;" horiz-adv-x="1509" 
d="M1219 1434h108v-1434h-145l-899 1303l8 -703v-600h-109v1434h144l901 -1303l-8 703v600zM770 -154q30 0 52.5 -19t23.5 -54q2 -22 -14 -73t-78 -212h-80l86 213q-30 5 -48 23t-18 47q0 33 22 54t54 21z" />
    <glyph glyph-name="ncommaaccent" unicode="&#x146;" horiz-adv-x="1271" 
d="M709 1149q191 0 298 -113t107 -319v-717h-108v702q0 168 -84 255t-236 87q-193 0 -301.5 -130t-108.5 -345v-569h-108v1126h108v-264q57 134 165.5 210.5t267.5 76.5zM649 -154q30 0 52.5 -19t23.5 -54q2 -22 -14 -73t-78 -212h-80l86 213q-30 5 -48 23t-18 47
q0 33 22 54t54 21z" />
    <glyph glyph-name="Ncaron" unicode="&#x147;" horiz-adv-x="1509" 
d="M1094 1919l-340 -340l-340 340l65 66l275 -279l274 279zM1219 1434h108v-1434h-145l-899 1303l8 -703v-600h-109v1434h144l901 -1303l-8 703v600z" />
    <glyph glyph-name="ncaron" unicode="&#x148;" horiz-adv-x="1271" 
d="M975 1663l-340 -340l-340 340l65 66l275 -279l274 279zM709 1149q191 0 298 -113t107 -319v-717h-108v702q0 168 -84 255t-236 87q-193 0 -301.5 -130t-108.5 -345v-569h-108v1126h108v-264q57 134 165.5 210.5t267.5 76.5z" />
    <glyph glyph-name="Eng" unicode="&#x14a;" horiz-adv-x="1509" 
d="M1219 1434h108v-1434v-84q0 -214 -104 -332.5t-291 -118.5q-79 0 -156.5 20t-130.5 46l21 92q133 -55 249 -55q152 0 228 91.5t76 260.5v80h-37l-899 1303l8 -703v-600h-109v1434h144l893 -1293v121h6l-6 572v600z" />
    <glyph glyph-name="eng" unicode="&#x14b;" horiz-adv-x="1271" 
d="M709 1149q191 0 298 -113t107 -319v-717v-84q0 -214 -104.5 -332.5t-292.5 -118.5q-79 0 -156.5 20t-130.5 46l21 92q133 -55 251 -55q151 0 227.5 91.5t76.5 260.5v293v489q0 168 -84 255t-236 87q-193 0 -301.5 -130t-108.5 -345v-569h-108v1126h108v-264
q57 134 165.5 210.5t267.5 76.5z" />
    <glyph glyph-name="Omacron" unicode="&#x14c;" horiz-adv-x="1734" 
d="M1124 1831v-86h-514v86h514zM868 1456q154 0 290.5 -56.5t234 -154.5t154.5 -235t57 -293q0 -208 -96.5 -377.5t-265.5 -266t-374 -96.5t-374 96.5t-266 266t-97 377.5q0 207 97.5 377t266.5 266t373 96zM868 1352q-130 0 -246 -48.5t-199.5 -132.5t-132 -202.5
t-48.5 -251.5t48.5 -251.5t132 -202.5t199.5 -132.5t246 -48.5q173 0 316.5 82.5t226.5 228.5t82 324q1 178 -82 324t-226.5 228.5t-316.5 82.5z" />
    <glyph glyph-name="omacron" unicode="&#x14d;" horiz-adv-x="1382" 
d="M948 1577v-86h-514v86h514zM692 1149q118 0 224.5 -44.5t184.5 -121.5t123.5 -186.5t45.5 -233.5q0 -165 -76.5 -299.5t-209 -210.5t-292.5 -76q-119 0 -225.5 44.5t-184 122t-122.5 186.5t-45 233q0 165 78 300.5t210 210.5t289 75zM692 1044q-196 0 -331.5 -136
t-135.5 -345q0 -207 135 -344t332 -137t332 137t135 344q0 208 -135.5 344.5t-331.5 136.5z" />
    <glyph glyph-name="Ohungarumlaut" unicode="&#x150;" horiz-adv-x="1734" 
d="M825 1993l76 -39l-223 -377l-64 33zM1044 1993l76 -39l-223 -377l-63 33zM868 1456q154 0 290.5 -56.5t234 -154.5t154.5 -235t57 -293q0 -208 -96.5 -377.5t-265.5 -266t-374 -96.5t-374 96.5t-266 266t-97 377.5q0 207 97.5 377t266.5 266t373 96zM868 1352
q-130 0 -246 -48.5t-199.5 -132.5t-132 -202.5t-48.5 -251.5t48.5 -251.5t132 -202.5t199.5 -132.5t246 -48.5q173 0 316.5 82.5t226.5 228.5t82 324q1 178 -82 324t-226.5 228.5t-316.5 82.5z" />
    <glyph glyph-name="ohungarumlaut" unicode="&#x151;" horiz-adv-x="1382" 
d="M649 1739l76 -39l-223 -377l-64 33zM868 1739l76 -39l-223 -377l-64 33zM692 1149q118 0 224.5 -44.5t184.5 -121.5t123.5 -186.5t45.5 -233.5q0 -165 -76.5 -299.5t-209 -210.5t-292.5 -76q-119 0 -225.5 44.5t-184 122t-122.5 186.5t-45 233q0 165 78 300.5t210 210.5
t289 75zM692 1044q-196 0 -331.5 -136t-135.5 -345q0 -207 135 -344t332 -137t332 137t135 344q0 208 -135.5 344.5t-331.5 136.5z" />
    <glyph glyph-name="OE" unicode="&#x152;" horiz-adv-x="2476" 
d="M2380 1329h-776v-536h727v-105h-727v-584h776v-104h-885v342q-91 -167 -257 -266t-370 -99q-205 0 -374 96.5t-266 266t-97 377.5q0 207 97.5 377t266.5 266t373 96t370 -98.5t257 -265.5v342h885v-105zM868 82q173 0 316.5 82.5t227 228.5t83.5 324t-83.5 324
t-227 228.5t-316.5 82.5q-130 0 -246 -48.5t-199.5 -132.5t-132 -202.5t-48.5 -251.5t48.5 -251.5t132 -202.5t199.5 -132.5t246 -48.5z" />
    <glyph glyph-name="oe" unicode="&#x153;" horiz-adv-x="2383" 
d="M1729 1149q257 0 409.5 -172.5t147.5 -448.5h-1016q9 -206 138 -326t329 -120q136 0 242.5 57.5t162.5 165.5h113q-67 -160 -206.5 -244t-313.5 -84q-183 0 -322.5 88.5t-204.5 243.5q-67 -151 -205.5 -241.5t-310.5 -90.5q-119 0 -225.5 44.5t-184 122t-122.5 186.5
t-45 233q0 165 78 300.5t210 210.5t289 75q172 0 311.5 -91.5t204.5 -244.5q65 155 203 245.5t318 90.5zM1729 1047q-185 0 -310 -116t-147 -300h899q-21 185 -140 300.5t-302 115.5zM692 82q197 0 332 136.5t135 344.5t-135.5 344.5t-331.5 136.5t-331.5 -136.5
t-135.5 -344.5q0 -207 135 -344t332 -137z" />
    <glyph glyph-name="Racute" unicode="&#x154;" horiz-adv-x="1339" 
d="M872 1905l-352 -328l-57 57l340 342zM1126 0l-493 573h-330v-573h-110v1434h542q233 0 358.5 -119t125.5 -309q0 -184 -117 -302.5t-334 -128.5l496 -575h-138zM303 1329v-657h424q188 0 285.5 94t97.5 238q0 145 -97 235t-286 90h-424z" />
    <glyph glyph-name="racute" unicode="&#x155;" horiz-adv-x="833" 
d="M621 1651l-353 -328l-57 57l340 342zM702 1149q47 0 74 -6v-109q-36 4 -71 4q-196 0 -312.5 -133t-116.5 -358v-547h-108v1126h108v-280q52 139 160 221t266 82z" />
    <glyph glyph-name="Rcommaaccent" unicode="&#x156;" horiz-adv-x="1339" 
d="M768 575l496 -575h-138l-493 573h-330v-573h-110v1434h542q233 0 358.5 -119t125.5 -309q0 -184 -117 -302.5t-334 -128.5zM303 1329v-657h424q188 0 285.5 94t97.5 238q0 145 -97 235t-286 90h-424zM684 -154q30 0 52.5 -19t23.5 -54q2 -22 -14 -73t-78 -212h-80l86 213
q-30 5 -48 23t-18 47q0 33 22 54t54 21z" />
    <glyph glyph-name="rcommaaccent" unicode="&#x157;" horiz-adv-x="833" 
d="M702 1149q47 0 74 -6v-109q-36 4 -71 4q-196 0 -312.5 -133t-116.5 -358v-547h-108v1126h108v-280q52 139 160 221t266 82zM432 -154q30 0 52.5 -19t23.5 -54q2 -22 -14 -73t-78 -212h-80l86 213q-30 5 -48 23t-18 47q0 33 22 54t54 21z" />
    <glyph glyph-name="Rcaron" unicode="&#x158;" horiz-adv-x="1339" 
d="M1008 1919l-340 -340l-340 340l65 66l275 -279l274 279zM1126 0l-493 573h-330v-573h-110v1434h542q233 0 358.5 -119t125.5 -309q0 -184 -117 -302.5t-334 -128.5l496 -575h-138zM303 1329v-657h424q188 0 285.5 94t97.5 238q0 145 -97 235t-286 90h-424z" />
    <glyph glyph-name="rcaron" unicode="&#x159;" horiz-adv-x="833" 
d="M758 1663l-340 -340l-340 340l65 66l275 -279l274 279zM702 1149q47 0 74 -6v-109q-36 4 -71 4q-196 0 -312.5 -133t-116.5 -358v-547h-108v1126h108v-280q52 139 160 221t266 82z" />
    <glyph glyph-name="Sacute" unicode="&#x15a;" horiz-adv-x="1306" 
d="M788 1976l70 -71l-352 -328l-57 57zM682 780q70 -16 116 -27t102 -27.5t91.5 -32.5t74.5 -38t62.5 -47.5t43.5 -58t29 -72.5t9 -88q0 -101 -40.5 -180.5t-111 -129.5t-162.5 -76t-200 -26q-260 0 -410.5 119t-189.5 320h109q85 -336 487 -336q189 0 299.5 79.5
t110.5 223.5q0 31 -6 56.5t-15.5 46.5t-28.5 39.5t-37.5 32.5t-51 28t-59.5 24t-72 22t-81.5 20.5t-93.5 21.5q-110 25 -181 45.5t-141.5 52t-110 68.5t-63.5 91.5t-24 125.5q0 123 67 214.5t179.5 138t253.5 46.5q225 0 365 -94.5t186 -255.5h-109q-50 120 -161.5 184
t-276.5 64q-177 0 -286 -79.5t-109 -221.5q0 -104 90 -160t346 -113z" />
    <glyph glyph-name="sacute" unicode="&#x15b;" horiz-adv-x="1150" 
d="M705 1722l69 -71l-352 -328l-57 57zM614 -23q-219 0 -360 98t-176 277h110q72 -270 424 -270q147 0 243.5 57.5t96.5 161.5q0 37 -14.5 65t-40 47.5t-67 36t-89.5 30t-112 29.5q-10 2 -15.5 3.5t-14 3.5t-15.5 4q-88 22 -146.5 39.5t-112.5 38t-86 41.5t-56 48.5
t-34 60.5t-10 75q0 153 122 239.5t314 86.5q184 0 308.5 -81.5t160.5 -229.5h-110q-37 103 -130.5 154.5t-225.5 51.5q-147 0 -238.5 -58t-91.5 -155q0 -80 69.5 -115t285.5 -91q10 -3 15 -4q67 -17 102.5 -27t87.5 -25.5t78 -27.5t61 -30.5t52 -37t34 -43.5t23.5 -55
t6.5 -66q0 -107 -62.5 -184t-162.5 -112.5t-224 -35.5z" />
    <glyph glyph-name="Scedilla" unicode="&#x15e;" horiz-adv-x="1306" 
d="M696 -23h-8l-67 -149q38 -3 74.5 -14t70.5 -31.5t55 -55t21 -79.5q0 -88 -72.5 -135.5t-191.5 -47.5q-74 0 -123 11v69q45 -10 112 -10q83 0 133 29.5t50 85.5q0 121 -230 127l88 205q-221 21 -349 136t-163 298h109q85 -336 487 -336q189 0 299.5 79.5t110.5 223.5
q0 31 -6 56.5t-15.5 46.5t-28.5 39.5t-37.5 32.5t-51 28t-59.5 24t-72 22t-81.5 20.5t-93.5 21.5q-110 25 -181 45.5t-141.5 52t-110 68.5t-63.5 91.5t-24 125.5q0 123 67 214.5t179.5 138t253.5 46.5q225 0 365 -94.5t186 -255.5h-109q-50 120 -161.5 184t-276.5 64
q-177 0 -286 -79.5t-109 -221.5q0 -104 90 -160t346 -113q70 -16 116 -27t102 -27.5t91.5 -32.5t74.5 -38t62.5 -47.5t43.5 -58t29 -72.5t9 -88q0 -101 -40.5 -180.5t-111 -129.5t-162.5 -76t-200 -26z" />
    <glyph glyph-name="scedilla" unicode="&#x15f;" horiz-adv-x="1150" 
d="M614 -23q-2 0 -5 1.5t-5 1.5l-67 -152q38 -3 74.5 -14t70.5 -31.5t55 -55t21 -79.5q0 -88 -72.5 -135.5t-191.5 -47.5q-74 0 -123 11v69q45 -10 112 -10q83 0 133 29.5t50 85.5q0 121 -230 127l88 207q-183 19 -299.5 113.5t-146.5 254.5h110q72 -270 424 -270
q147 0 243.5 57.5t96.5 161.5q0 37 -14.5 65t-40 47.5t-67 36t-89.5 30t-112 29.5q-10 2 -15.5 3.5t-14 3.5t-15.5 4q-88 22 -146.5 39.5t-112.5 38t-86 41.5t-56 48.5t-34 60.5t-10 75q0 153 122 239.5t314 86.5q184 0 308.5 -81.5t160.5 -229.5h-110q-37 103 -130.5 154.5
t-225.5 51.5q-147 0 -238.5 -58t-91.5 -155q0 -80 69.5 -115t285.5 -91q10 -3 15 -4q67 -17 102.5 -27t87.5 -25.5t78 -27.5t61 -30.5t52 -37t34 -43.5t23.5 -55t6.5 -66q0 -107 -62.5 -184t-162.5 -112.5t-224 -35.5z" />
    <glyph glyph-name="Scaron" unicode="&#x160;" horiz-adv-x="1306" 
d="M993 1919l-340 -340l-340 340l66 66l274 -279l275 279zM682 780q70 -16 116 -27t102 -27.5t91.5 -32.5t74.5 -38t62.5 -47.5t43.5 -58t29 -72.5t9 -88q0 -101 -40.5 -180.5t-111 -129.5t-162.5 -76t-200 -26q-260 0 -410.5 119t-189.5 320h109q85 -336 487 -336
q189 0 299.5 79.5t110.5 223.5q0 31 -6 56.5t-15.5 46.5t-28.5 39.5t-37.5 32.5t-51 28t-59.5 24t-72 22t-81.5 20.5t-93.5 21.5q-110 25 -181 45.5t-141.5 52t-110 68.5t-63.5 91.5t-24 125.5q0 123 67 214.5t179.5 138t253.5 46.5q225 0 365 -94.5t186 -255.5h-109
q-50 120 -161.5 184t-276.5 64q-177 0 -286 -79.5t-109 -221.5q0 -104 90 -160t346 -113z" />
    <glyph glyph-name="scaron" unicode="&#x161;" horiz-adv-x="1150" 
d="M909 1663l-340 -340l-340 340l66 66l274 -279l275 279zM614 -23q-219 0 -360 98t-176 277h110q72 -270 424 -270q147 0 243.5 57.5t96.5 161.5q0 37 -14.5 65t-40 47.5t-67 36t-89.5 30t-112 29.5q-10 2 -15.5 3.5t-14 3.5t-15.5 4q-88 22 -146.5 39.5t-112.5 38
t-86 41.5t-56 48.5t-34 60.5t-10 75q0 153 122 239.5t314 86.5q184 0 308.5 -81.5t160.5 -229.5h-110q-37 103 -130.5 154.5t-225.5 51.5q-147 0 -238.5 -58t-91.5 -155q0 -80 69.5 -115t285.5 -91q10 -3 15 -4q67 -17 102.5 -27t87.5 -25.5t78 -27.5t61 -30.5t52 -37
t34 -43.5t23.5 -55t6.5 -66q0 -107 -62.5 -184t-162.5 -112.5t-224 -35.5z" />
    <glyph glyph-name="uni0162" unicode="&#x162;" horiz-adv-x="1234" 
d="M672 0h-10l-78 -172q38 -3 74.5 -14t70.5 -31.5t55 -55t21 -79.5q0 -88 -72.5 -135.5t-191.5 -47.5q-73 0 -123 11v69q45 -10 112 -10q83 0 133 29.5t50 85.5q0 121 -230 127l97 223h-17v1329h-487v105h1083v-105h-487v-1329z" />
    <glyph glyph-name="uni0163" unicode="&#x163;" horiz-adv-x="1044" 
d="M647 -172q38 -3 74.5 -14t70.5 -31.5t55 -55t21 -79.5q0 -88 -72.5 -135.5t-191.5 -47.5q-74 0 -123 11v69q45 -10 113 -10q83 0 132.5 29t49.5 86q0 121 -229 127l88 203q-167 14 -259.5 131.5t-92.5 316.5v596h-226v102h226v283l108 25v-308h551v-102h-551v-592
q0 -169 76 -260.5t227 -91.5q117 0 250 55l21 -92q-103 -54 -250 -63z" />
    <glyph glyph-name="Tcaron" unicode="&#x164;" horiz-adv-x="1234" 
d="M956 1919l-340 -340l-340 340l66 66l274 -279l275 279zM1159 1434v-105h-487v-1329h-109v1329h-487v105h1083z" />
    <glyph glyph-name="tcaron" unicode="&#x165;" horiz-adv-x="1062" 
d="M760 1243h-78l86 215q-30 3 -48 22t-18 48q0 32 22.5 53t53.5 21q29 0 52 -19t24 -55q2 -21 -14 -70.5t-80 -214.5zM944 135l21 -92q-50 -26 -129 -46t-158 -20q-187 0 -291 118.5t-104 332.5v596h-226v102h226v283l108 25v-308h551v-102h-551v-592q0 -169 76 -260.5
t227 -91.5q117 0 250 55z" />
    <glyph glyph-name="Tbar" unicode="&#x166;" horiz-adv-x="1234" 
d="M1159 1329h-487v-561h241v-104h-241v-664h-109v664h-239v104h239v561h-487v105h1083v-105z" />
    <glyph glyph-name="tbar" unicode="&#x167;" horiz-adv-x="1044" 
d="M944 135l21 -92q-50 -26 -129 -46t-158 -20q-187 0 -291 118.5t-104 332.5v82h-226v104h226v410h-226v102h226v283l108 25v-308h551v-102h-551v-410h256v-104h-256v-78q0 -169 76 -260.5t227 -91.5q117 0 250 55z" />
    <glyph glyph-name="Umacron" unicode="&#x16a;" horiz-adv-x="1484" 
d="M999 1831v-86h-514v86h514zM1192 1434h111v-877q0 -143 -42.5 -255t-118 -182.5t-175.5 -106.5t-219 -36t-219 36t-175.5 106.5t-118 182.5t-42.5 255v877h110v-871q0 -238 123.5 -359.5t321.5 -121.5t321 121.5t123 359.5v871z" />
    <glyph glyph-name="umacron" unicode="&#x16b;" horiz-adv-x="1253" 
d="M883 1577v-86h-514v86h514zM985 1126h109v-1126h-109v264q-57 -133 -164 -210t-264 -77q-189 0 -294 114t-105 319v716h108v-702q0 -168 81.5 -255t232.5 -87q189 0 297 130t108 345v569z" />
    <glyph glyph-name="Uring" unicode="&#x16e;" horiz-adv-x="1484" 
d="M741 2054q102 0 171.5 -69t68.5 -168q1 -99 -69.5 -169.5t-170.5 -70.5q-98 0 -167.5 70t-69.5 170t68.5 168.5t168.5 68.5zM741 1978q-67 0 -113.5 -46.5t-45.5 -116.5q0 -68 46.5 -116t112.5 -48q67 0 114.5 48t47.5 116q0 70 -46.5 116.5t-115.5 46.5zM1192 1434h111
v-877q0 -143 -42.5 -255t-118 -182.5t-175.5 -106.5t-219 -36t-219 36t-175.5 106.5t-118 182.5t-42.5 255v877h110v-871q0 -238 123.5 -359.5t321.5 -121.5t321 121.5t123 359.5v871z" />
    <glyph glyph-name="uring" unicode="&#x16f;" horiz-adv-x="1253" 
d="M625 1323q-98 0 -168 70t-70 168q0 101 69 170t169 69q102 0 171 -69t68 -170q1 -98 -69 -168t-170 -70zM625 1724q-67 0 -114 -47t-46 -116q0 -69 47 -116.5t113 -47.5q68 0 114.5 47.5t46.5 116.5q0 70 -46 116.5t-115 46.5zM985 1126h109v-1126h-109v264
q-57 -133 -164 -210t-264 -77q-189 0 -294 114t-105 319v716h108v-702q0 -168 81.5 -255t232.5 -87q189 0 297 130t108 345v569z" />
    <glyph glyph-name="Uhungarumlaut" unicode="&#x170;" horiz-adv-x="1484" 
d="M700 1993l76 -39l-223 -377l-64 33zM920 1993l75 -39l-223 -377l-63 33zM1192 1434h111v-877q0 -143 -42.5 -255t-118 -182.5t-175.5 -106.5t-219 -36t-219 36t-175.5 106.5t-118 182.5t-42.5 255v877h110v-871q0 -238 123.5 -359.5t321.5 -121.5t321 121.5t123 359.5
v871z" />
    <glyph glyph-name="uhungarumlaut" unicode="&#x171;" horiz-adv-x="1253" 
d="M657 1700l-223 -377l-63 33l211 383zM653 1323l-63 33l211 383l76 -39zM985 1126h109v-1126h-109v264q-57 -133 -164 -210t-264 -77q-189 0 -294 114t-105 319v716h108v-702q0 -168 81.5 -255t232.5 -87q189 0 297 130t108 345v569z" />
    <glyph glyph-name="Uogonek" unicode="&#x172;" horiz-adv-x="1484" 
d="M1192 1434h111v-877q0 -227 -103 -369t-278 -188q-136 -136 -188 -207t-52 -135q0 -60 37 -89.5t104 -29.5q54 0 99 10v-73q-49 -11 -113 -11q-99 0 -159 47.5t-60 135.5q0 41 14.5 79t50.5 82.5t68.5 78t97.5 94.5q-62 -5 -73 -5q-119 0 -219 36t-175.5 106.5
t-118 182.5t-42.5 255v877h110v-871q0 -238 123.5 -359.5t321.5 -121.5t321 121.5t123 359.5v871z" />
    <glyph glyph-name="uogonek" unicode="&#x173;" horiz-adv-x="1253" 
d="M854 -342q0 -60 37 -89.5t104 -29.5q54 0 99 10v-73q-50 -11 -113 -11q-99 0 -159 47.5t-60 135.5q0 80 54 154.5t185 197.5h-16v264q-57 -133 -164 -210t-264 -77q-189 0 -294 114t-105 319v716h108v-702q0 -168 81.5 -255t232.5 -87q189 0 297 130t108 345v569h109
v-1126q-136 -136 -188 -207t-52 -135z" />
    <glyph glyph-name="Wcircumflex" unicode="&#x174;" horiz-adv-x="2027" 
d="M1014 1855l-275 -278l-65 65l340 340l340 -340l-66 -65zM1839 1434h113l-416 -1434h-143l-152 518l-217 780h-20l-218 -780l-149 -518h-143l-418 1434h112l201 -686l176 -635l178 635l199 686h145l199 -686l176 -637l178 637z" />
    <glyph glyph-name="wcircumflex" unicode="&#x175;" horiz-adv-x="1689" 
d="M844 1602l-275 -279l-65 63l340 343l340 -343l-66 -63zM1522 1126h110l-344 -1126h-137l-117 379l-180 629h-20l-179 -627l-116 -381h-138l-344 1126h111l108 -354l195 -661l197 661l106 354h139l109 -354l195 -657l196 657z" />
    <glyph glyph-name="Ycircumflex" unicode="&#x176;" horiz-adv-x="1343" 
d="M672 1855l-275 -278l-65 65l340 340l340 -340l-66 -65zM1268 1434l-541 -897v-537h-111v532l-540 902h125l471 -779l471 779h125z" />
    <glyph glyph-name="ycircumflex" unicode="&#x177;" horiz-adv-x="1171" 
d="M586 1602l-275 -279l-65 63l340 343l340 -343l-66 -63zM997 1126h117l-772 -1638h-119l303 641l-469 997h117l410 -876z" />
    <glyph glyph-name="Ydieresis" unicode="&#x178;" horiz-adv-x="1343" 
d="M438 1700q-34 0 -58 23t-24 57q0 35 24 58.5t58 23.5q35 0 59.5 -23.5t24.5 -58.5q0 -34 -24.5 -57t-59.5 -23zM903 1700q-35 0 -59.5 23t-24.5 57q0 35 24.5 58.5t59.5 23.5t59.5 -23.5t24.5 -58.5q0 -34 -24.5 -57t-59.5 -23zM1268 1434l-541 -897v-537h-111v532
l-540 902h125l471 -779l471 779h125z" />
    <glyph glyph-name="Zacute" unicode="&#x179;" horiz-adv-x="1216" 
d="M813 1905l-352 -328l-58 57l340 342zM229 104h891v-104h-1024v104l889 1225h-852v105h987v-105z" />
    <glyph glyph-name="zacute" unicode="&#x17a;" horiz-adv-x="1097" 
d="M754 1651l-353 -328l-57 57l340 342zM225 102l785 2v-104h-922v104l780 920l-737 -2v104h875v-104z" />
    <glyph glyph-name="Zdotaccent" unicode="&#x17b;" horiz-adv-x="1216" 
d="M608 1700q-34 0 -58 23t-24 57q0 35 24 58.5t58 23.5q35 0 59.5 -23.5t24.5 -58.5q0 -34 -24.5 -57t-59.5 -23zM229 104h891v-104h-1024v104l889 1225h-852v105h987v-105z" />
    <glyph glyph-name="zdotaccent" unicode="&#x17c;" horiz-adv-x="1097" 
d="M549 1440q-36 0 -61 25t-25 61q0 35 25.5 59.5t60.5 24.5q38 0 63 -24t25 -60q0 -37 -25 -61.5t-63 -24.5zM225 102l785 2v-104h-922v104l780 920l-737 -2v104h875v-104z" />
    <glyph glyph-name="Zcaron" unicode="&#x17d;" horiz-adv-x="1216" 
d="M948 1919l-340 -340l-340 340l66 66l274 -279l275 279zM229 104h891v-104h-1024v104l889 1225h-852v105h987v-105z" />
    <glyph glyph-name="zcaron" unicode="&#x17e;" horiz-adv-x="1097" 
d="M889 1663l-340 -340l-340 340l65 66l275 -279l274 279zM225 102l785 2v-104h-922v104l780 920l-737 -2v104h875v-104z" />
    <glyph glyph-name="uni0237" unicode="&#x237;" horiz-adv-x="444" 
d="M168 -512v1638h108v-1638h-108z" />
    <glyph glyph-name="circumflex" unicode="&#x2c6;" horiz-adv-x="1064" 
d="M872 1386l-65 -63l-275 279l-274 -279l-65 63l339 343z" />
    <glyph glyph-name="caron" unicode="&#x2c7;" horiz-adv-x="1064" 
d="M872 1663l-340 -340l-339 340l65 66l274 -279l275 279z" />
    <glyph glyph-name="breve" unicode="&#x2d8;" horiz-adv-x="1024" 
d="M834 1683v-26q0 -136 -92.5 -219.5t-229.5 -83.5q-138 0 -230 83t-92 220v26h95v-22q0 -99 62 -158t165 -59t165 59t62 158v22h95z" />
    <glyph glyph-name="dotaccent" unicode="&#x2d9;" horiz-adv-x="550" 
d="M274 1610q38 0 63 -24t25 -60q0 -37 -25 -61.5t-63 -24.5q-36 0 -61 25t-25 61q0 35 25.5 59.5t60.5 24.5z" />
    <glyph glyph-name="ring" unicode="&#x2da;" horiz-adv-x="862" 
d="M430 1800q102 0 171.5 -69t68.5 -170q1 -98 -69.5 -168t-170.5 -70q-98 0 -167.5 70t-69.5 168q0 101 68.5 170t168.5 69zM430 1724q-67 0 -114 -47t-46 -116q0 -69 47 -116.5t113 -47.5q68 0 115 47.5t47 116.5q0 70 -46.5 116.5t-115.5 46.5z" />
    <glyph glyph-name="ogonek" unicode="&#x2db;" horiz-adv-x="708" 
d="M524 -524q-49 -11 -112 -11q-99 0 -159 47.5t-60 135.5q0 81 55.5 156t193.5 206l82 -10q-135 -135 -187 -206.5t-52 -135.5q0 -60 37 -89.5t104 -29.5q53 0 98 10v-73z" />
    <glyph glyph-name="tilde" unicode="&#x2dc;" horiz-adv-x="1071" 
d="M805 1645h80q0 -279 -178 -279q-47 0 -84 23.5t-101 85.5q-7 7 -25.5 25t-25.5 24.5t-22 18.5t-25 17t-24 9t-29 4q-57 0 -78 -47.5t-21 -139.5h-79q0 277 176 277q47 0 83 -22.5t103 -86.5q6 -6 25.5 -25t25.5 -24.5t22 -18.5t25.5 -17t24 -8.5t29.5 -4.5q56 0 77 48.5
t21 140.5z" />
    <glyph glyph-name="hungarumlaut" unicode="&#x2dd;" horiz-adv-x="890" 
d="M403 1739l76 -39l-223 -377l-63 33zM623 1739l75 -39l-223 -377l-63 33z" />
    <glyph glyph-name="gravecomb" unicode="&#x300;" 
d="M-532 1720l339 -340l-59 -59l-350 330z" />
    <glyph glyph-name="acutecomb" unicode="&#x301;" 
d="M-262 1722l69 -71l-352 -328l-57 57z" />
    <glyph glyph-name="uni0302" unicode="&#x302;" 
d="M-193 1386l-65 -63l-274 279l-275 -279l-65 63l340 343z" />
    <glyph glyph-name="tildecomb" unicode="&#x303;" 
d="M-272 1645h79q0 -279 -178 -279q-46 0 -83 23.5t-101 85.5q-6 6 -25.5 25t-25.5 24.5t-22 18.5t-25.5 17t-24 8.5t-29.5 4.5q-57 0 -77.5 -47.5t-20.5 -139.5h-80q0 277 176 277q48 0 84 -23t103 -86q7 -7 25.5 -25t25.5 -24.5t22 -18.5t25 -17t24 -9t29 -4
q56 0 77.5 48.5t21.5 140.5z" />
    <glyph glyph-name="uni0304" unicode="&#x304;" 
d="M-193 1577v-86h-514v86h514z" />
    <glyph glyph-name="uni0306" unicode="&#x306;" 
d="M-190 1683v-26q0 -136 -92.5 -219.5t-229.5 -83.5q-138 0 -230 83t-92 220v26h95v-22q0 -99 62 -158t165 -59t165 59t62 158v22h95z" />
    <glyph glyph-name="uni0307" unicode="&#x307;" 
d="M-276 1610q38 0 63 -24t25 -60q0 -37 -25 -61.5t-63 -24.5q-36 0 -61 25t-25 61q0 35 25.5 59.5t60.5 24.5z" />
    <glyph glyph-name="uni0308" unicode="&#x308;" 
d="M-741 1606q35 0 59.5 -23t24.5 -57q0 -35 -24.5 -58.5t-59.5 -23.5q-34 0 -58 23.5t-24 58.5q0 34 24 57t58 23zM-276 1606q35 0 59 -23t24 -57q0 -35 -24 -58.5t-59 -23.5t-59.5 23.5t-24.5 58.5q0 34 24.5 57t59.5 23z" />
    <glyph glyph-name="uni030A" unicode="&#x30a;" 
d="M-432 1800q102 0 171 -69t68 -170q1 -98 -69 -168t-170 -70q-98 0 -168 70t-70 168q0 101 69 170t169 69zM-432 1724q-67 0 -114 -47t-46 -116q0 -69 47 -116.5t113 -47.5q68 0 115 47.5t47 116.5q0 70 -46.5 116.5t-115.5 46.5z" />
    <glyph glyph-name="uni030B" unicode="&#x30b;" 
d="M-487 1739l75 -39l-223 -377l-63 33zM-268 1739l75 -39l-223 -377l-63 33z" />
    <glyph glyph-name="uni030C" unicode="&#x30c;" 
d="M-193 1663l-339 -340l-340 340l65 66l275 -279l274 279z" />
    <glyph glyph-name="uni0312" unicode="&#x312;" 
d="M-281 1466q30 -5 48 -22.5t18 -46.5q0 -33 -22 -53.5t-54 -20.5q-29 0 -52 19t-24 53q-2 19 14 67t81 219h77z" />
    <glyph glyph-name="uni0326" unicode="&#x326;" 
d="M-193 -227q2 -22 -14 -73t-78 -212h-80l86 213q-30 5 -47.5 23t-17.5 47q0 33 22 54t54 21q30 0 52 -19t23 -54z" />
    <glyph glyph-name="uni0327" unicode="&#x327;" 
d="M-414 -172q39 -3 75.5 -14t70.5 -31t54.5 -55t20.5 -80q0 -88 -72.5 -135.5t-191.5 -47.5q-73 0 -123 11v69q45 -10 113 -10q83 0 132.5 29t49.5 86q0 121 -229 127l96 223h82z" />
    <glyph glyph-name="uni0328" unicode="&#x328;" 
d="M-193 -524q-50 -11 -112 -11q-99 0 -159 47.5t-60 135.5q0 81 55.5 155.5t194.5 206.5l81 -10q-135 -135 -187 -206.5t-52 -135.5q0 -60 37 -89.5t104 -29.5q53 0 98 10v-73z" />
    <glyph glyph-name="uni0335" unicode="&#x335;" 
d="M-193 674v-105h-589v105h589z" />
    <glyph glyph-name="uni0337" unicode="&#x337;" 
d="M-193 1126l-808 -1126h-91l807 1126h92z" />
    <glyph glyph-name="uni0338" unicode="&#x338;" 
d="M-193 1577l-788 -1577h-111l789 1577h110z" />
    <glyph glyph-name="uni0401" unicode="&#x401;" horiz-adv-x="1173" 
d="M395 1700q-34 0 -58 23t-24 57q0 35 24 58.5t58 23.5q35 0 59.5 -23.5t24.5 -58.5q0 -34 -24.5 -57t-59.5 -23zM860 1700q-35 0 -59.5 23t-24.5 57q0 35 24.5 58.5t59.5 23.5t59.5 -23.5t24.5 -58.5q0 -34 -24.5 -57t-59.5 -23zM1077 1329h-776v-536h729v-105h-729v-584
h776v-104h-884v1434h884v-105z" />
    <glyph glyph-name="uni0404" unicode="&#x404;" horiz-adv-x="1638" 
d="M866 82q188 0 337 97t222 261h117q-78 -213 -259 -338t-413 -125q-156 0 -293 56t-234.5 153.5t-153.5 235.5t-56 295t56 294.5t153.5 235t234.5 153.5t293 56q232 0 413 -125t259 -338h-117q-73 164 -222 261.5t-337 97.5q-165 0 -303 -75.5t-222 -208t-97 -296.5h712
v-104h-712q19 -253 195 -419.5t427 -166.5z" />
    <glyph glyph-name="uni0406" unicode="&#x406;" horiz-adv-x="495" 
d="M195 0v1434h108v-1434h-108z" />
    <glyph glyph-name="uni0407" unicode="&#x407;" horiz-adv-x="495" 
d="M12 1862q35 0 59.5 -23.5t24.5 -58.5q0 -34 -24.5 -57t-59.5 -23q-34 0 -58 23t-24 57q0 35 24 58.5t58 23.5zM477 1862q35 0 59.5 -23.5t24.5 -58.5q0 -34 -24.5 -57t-59.5 -23t-59.5 23t-24.5 57q0 35 24.5 58.5t59.5 23.5zM195 0v1434h108v-1434h-108z" />
    <glyph glyph-name="uni040E" unicode="&#x40e;" horiz-adv-x="1419" 
d="M1059 1937v-26q0 -135 -92.5 -219t-229.5 -84q-138 0 -229.5 83.5t-91.5 219.5v26h94v-22q0 -99 62 -158t165 -59t165.5 59t62.5 158v22h94zM1343 1434l-847 -1434h-123l313 530l-534 904h122l476 -789l471 789h122z" />
    <glyph glyph-name="uni0410" unicode="&#x410;" horiz-adv-x="1480" 
d="M1288 0l-194 477h-707l-194 -477h-117l592 1434h145l592 -1434h-117zM430 580h621l-312 755z" />
    <glyph glyph-name="uni0411" unicode="&#x411;" horiz-adv-x="1343" 
d="M776 844q234 0 352.5 -114t118.5 -306q0 -190 -123 -307t-356 -117h-575v1434h110h848v-105h-848v-485h473zM764 104q186 0 279.5 88.5t93.5 231.5q0 145 -89.5 232t-275.5 87h-469v-639h461z" />
    <glyph glyph-name="uni0412" unicode="&#x412;" horiz-adv-x="1339" 
d="M979 760q131 -36 197.5 -131t66.5 -238q0 -183 -115.5 -287t-347.5 -104h-587v1434h571q223 0 328.5 -95t105.5 -266q0 -239 -219 -313zM1090 1063q0 129 -77 197.5t-257 68.5h-455v-532h442q188 0 267.5 68.5t79.5 197.5zM778 104q189 0 272 76.5t83 216.5
q0 145 -84.5 222t-274.5 77h-473v-592h477z" />
    <glyph glyph-name="uni0413" unicode="&#x413;" horiz-adv-x="1105" 
d="M1030 1434v-105h-727v-1329h-110v1434h837z" />
    <glyph glyph-name="uni0414" unicode="&#x414;" horiz-adv-x="1677" 
d="M1397 104h205v-413h-111v309h-1307v-309h-108v413h205q45 29 74.5 106.5t54.5 229.5l163 994h824v-1330zM516 436q-40 -248 -104 -332h876v1225h-622z" />
    <glyph glyph-name="uni0415" unicode="&#x415;" horiz-adv-x="1173" 
d="M1077 1329h-776v-536h729v-105h-729v-584h776v-104h-884v1434h884v-105z" />
    <glyph glyph-name="uni0416" unicode="&#x416;" horiz-adv-x="1966" 
d="M1890 0h-143l-711 702v-702h-108v702l-711 -702h-141l727 729l-707 705h142l690 -684v684h108v-684l690 684h144l-709 -705z" />
    <glyph glyph-name="uni0417" unicode="&#x417;" horiz-adv-x="1288" 
d="M911 758q131 -35 206 -132t75 -233q0 -187 -144 -301.5t-376 -114.5q-227 0 -383 105t-193 309h111q38 -159 160 -234t305 -75q189 0 299 86t110 233q0 133 -90 214t-282 81h-236v99h178q190 0 283.5 68.5t93.5 189.5q0 138 -106.5 218.5t-274.5 80.5t-269.5 -66
t-144.5 -223h-110q86 393 526 393q212 0 351 -108.5t139 -284.5q0 -105 -60 -187t-168 -118z" />
    <glyph glyph-name="uni0418" unicode="&#x418;" horiz-adv-x="1509" 
d="M1184 1434h143v-1434h-108v600l8 703l-899 -1303h-146v1434h109v-600l-8 -703z" />
    <glyph glyph-name="uni0419" unicode="&#x419;" horiz-adv-x="1509" 
d="M754 1608q-138 0 -230 84t-92 219v26h94v-22q0 -99 62.5 -158t165.5 -59t165 59t62 158v22h94v-26q0 -135 -92 -219t-229 -84zM1184 1434h143v-1434h-108v600l8 703l-899 -1303h-146v1434h109v-600l-8 -703z" />
    <glyph glyph-name="uni041A" unicode="&#x41a;" horiz-adv-x="1261" 
d="M1186 0h-144l-741 705v-705h-108v1434h108v-686l721 686h143l-739 -705z" />
    <glyph glyph-name="uni041B" unicode="&#x41b;" horiz-adv-x="1562" 
d="M541 1434h829v-1434h-108v1329h-629l-150 -893q-42 -255 -112.5 -357t-198.5 -102q-46 0 -96 5v100l80 -2q92 0 139 75t82 285z" />
    <glyph glyph-name="uni041C" unicode="&#x41c;" horiz-adv-x="1662" 
d="M1325 1434h145v-1434h-108v1307l-531 -797h-12l-528 797v-1307h-109v1434h144l501 -750z" />
    <glyph glyph-name="uni041D" unicode="&#x41d;" horiz-adv-x="1529" 
d="M1231 1434h108v-1434h-108v690h-930v-690h-108v1434h108v-639h930v639z" />
    <glyph glyph-name="uni041E" unicode="&#x41e;" horiz-adv-x="1734" 
d="M868 1456q154 0 290.5 -56.5t234 -154.5t154.5 -235t57 -293q0 -208 -96.5 -377.5t-265.5 -266t-374 -96.5t-374 96.5t-266 266t-97 377.5q0 207 97.5 377t266.5 266t373 96zM868 1352q-130 0 -246 -48.5t-199.5 -132.5t-132 -202.5t-48.5 -251.5t48.5 -251.5t132 -202.5
t199.5 -132.5t246 -48.5q173 0 316.5 82.5t226.5 228.5t82 324q1 178 -82 324t-226.5 228.5t-316.5 82.5z" />
    <glyph glyph-name="uni041F" unicode="&#x41f;" horiz-adv-x="1529" 
d="M1339 1434v-1434h-108v1329h-930v-1329h-108v1434h108h1038z" />
    <glyph glyph-name="uni0420" unicode="&#x420;" horiz-adv-x="1374" 
d="M754 1434q118 0 212.5 -35.5t154 -97t91 -142.5t31.5 -174t-31.5 -174.5t-91 -144.5t-154 -99.5t-212.5 -36.5h-451v-530h-110v1434h561zM752 635q96 0 170.5 28.5t119.5 78t68 111t23 132.5t-23 132t-68 109t-119.5 75.5t-170.5 27.5h-449v-694h449z" />
    <glyph glyph-name="uni0421" unicode="&#x421;" horiz-adv-x="1638" 
d="M870 -23q-156 0 -293 56t-234.5 153.5t-153.5 235.5t-56 295t56 294.5t153.5 235t234.5 153.5t293 56q232 0 413 -125t259 -338h-117q-73 164 -222 261.5t-337 97.5q-130 0 -245.5 -49t-198.5 -133t-131.5 -202t-48.5 -251t48.5 -251t131.5 -202t198.5 -133t245.5 -49
q188 0 337 97t222 261h117q-78 -213 -259 -338t-413 -125z" />
    <glyph glyph-name="uni0422" unicode="&#x422;" horiz-adv-x="1234" 
d="M1159 1434v-105h-487v-1329h-109v1329h-487v105h1083z" />
    <glyph glyph-name="uni0423" unicode="&#x423;" horiz-adv-x="1419" 
d="M1343 1434l-847 -1434h-123l313 530l-534 904h122l476 -789l471 789h122z" />
    <glyph glyph-name="uni0424" unicode="&#x424;" horiz-adv-x="1853" 
d="M1149 1270q120 0 224.5 -37t182 -105t122 -170t44.5 -225q0 -165 -76 -288t-205 -185.5t-292 -62.5h-162v-197h-108v197h-164q-163 0 -291.5 62.5t-204.5 185.5t-76 288q0 164 77 287.5t205.5 186.5t289.5 63h164v164h108v-164h162zM715 299h164v866h-164
q-131 0 -234.5 -49t-166 -148.5t-62.5 -234.5q0 -204 130.5 -319t332.5 -115zM1149 299q203 0 333 114.5t130 319.5q0 203 -130.5 317.5t-332.5 114.5h-162v-866h162z" />
    <glyph glyph-name="uni0425" unicode="&#x425;" horiz-adv-x="1243" 
d="M1169 0h-131l-415 641l-418 -641h-129l479 733l-459 701h131l396 -611l397 611h131l-461 -703z" />
    <glyph glyph-name="uni0426" unicode="&#x426;" horiz-adv-x="1624" 
d="M1288 104h260v-413h-108v309h-1247v104v1330h108v-1330h879v1330h108v-1330z" />
    <glyph glyph-name="uni0427" unicode="&#x427;" horiz-adv-x="1335" 
d="M1034 1434h109v-1434h-109v571q-158 -79 -418 -79q-110 0 -197.5 27t-152.5 82t-100 145t-35 210v478h109v-469q0 -193 103.5 -282t287.5 -89q133 0 237.5 23.5t165.5 60.5v756z" />
    <glyph glyph-name="uni0428" unicode="&#x428;" horiz-adv-x="2088" 
d="M1790 1434h108v-1358v-76h-1705v104v1330h108v-1330h690v1330h109v-1330h690v1330z" />
    <glyph glyph-name="uni0429" unicode="&#x429;" horiz-adv-x="2234" 
d="M1898 104h261v-413h-109v309h-1857v104v1330h108v-1330h690v1330h109v-1330h690v1330h108v-1330z" />
    <glyph glyph-name="uni042A" unicode="&#x42a;" horiz-adv-x="1542" 
d="M938 846q235 0 354 -115t119 -307q0 -190 -122.5 -307t-356.5 -117h-565v1329h-291v105h354h47v-588h461zM930 104q186 0 279.5 88.5t93.5 231.5q0 145 -90.5 232t-276.5 87h-459v-639h453z" />
    <glyph glyph-name="uni042B" unicode="&#x42b;" horiz-adv-x="1738" 
d="M764 846q234 0 353.5 -115t119.5 -307q0 -190 -123 -307t-356 -117h-565v1434h110v-588h461zM1448 1434h108v-1434h-108v1434zM754 104q186 0 279 88.5t93 231.5q0 145 -90 232t-276 87h-457v-639h451z" />
    <glyph glyph-name="uni042C" unicode="&#x42c;" horiz-adv-x="1368" 
d="M764 846q234 0 353.5 -115t119.5 -307q0 -190 -123 -307t-356 -117h-565v1434h110v-588h461zM754 104q186 0 279 88.5t93 231.5q0 145 -90 232t-276 87h-457v-639h451z" />
    <glyph glyph-name="uni042D" unicode="&#x42d;" horiz-adv-x="1632" 
d="M776 1456q208 0 373.5 -95.5t257.5 -264t92 -379.5q0 -158 -54 -295t-148.5 -235t-229 -154t-289.5 -56q-241 0 -424.5 125t-257.5 338h117q68 -164 220 -261t345 -97q125 0 235 44.5t189.5 122.5t128.5 186t58 233h-713v104h713q-19 251 -189.5 415.5t-421.5 164.5
q-193 0 -345 -97.5t-220 -261.5h-117q72 213 255.5 338t424.5 125z" />
    <glyph glyph-name="uni042E" unicode="&#x42e;" horiz-adv-x="2209" 
d="M1346 1456q204 0 372.5 -96t265.5 -265.5t97 -377.5q0 -156 -57 -293.5t-155.5 -235.5t-235 -154.5t-290.5 -56.5q-196 0 -359.5 89t-263 246t-112.5 352h-307v-664h-108v1434h108v-668h307q9 147 70 275t158.5 219t230 143.5t279.5 52.5zM1343 82q130 0 246 48.5
t199.5 132.5t132 202.5t47.5 251.5q1 133 -47.5 251.5t-132 202.5t-199.5 132.5t-246 48.5t-245.5 -48.5t-199 -132.5t-132 -202t-49.5 -252q1 -134 49.5 -252t132 -202t199 -132.5t245.5 -48.5z" />
    <glyph glyph-name="uni042F" unicode="&#x42f;" horiz-adv-x="1339" 
d="M604 1434h543v-1434h-111v569h-348l-475 -569h-137l479 571q-208 13 -321 133t-113 300q0 191 124.5 310.5t358.5 119.5zM612 670h424v659h-424q-189 0 -286 -91.5t-97 -236.5t97 -238t286 -93z" />
    <glyph glyph-name="uni0430" unicode="&#x430;" horiz-adv-x="1396" 
d="M1120 1126h109v-1126h-109v268q-68 -134 -191.5 -212.5t-279.5 -78.5q-235 0 -384.5 165.5t-149.5 420.5q0 167 67.5 301t189.5 209.5t275 75.5q158 0 281.5 -79t191.5 -214v270zM664 82q196 0 327 136t131 345q0 208 -131 344.5t-327 136.5q-194 0 -317.5 -135.5
t-123.5 -345.5t123.5 -345.5t317.5 -135.5z" />
    <glyph glyph-name="uni0431" unicode="&#x431;" horiz-adv-x="1370" 
d="M725 1116q230 0 380 -153.5t150 -399.5q0 -129 -44 -239t-120.5 -185.5t-181.5 -118.5t-225 -43t-223 42.5t-179.5 120.5t-121 196.5t-45.5 263.5q0 158 15 285.5t48 227t78 174.5t111 129t141 89.5t175.5 56t205.5 29t239 8.5v-104q-134 0 -236.5 -8t-195.5 -28
t-160.5 -55t-123.5 -86.5t-92 -124.5t-59 -168t-32 -218q64 148 199 228.5t297 80.5zM680 76q198 0 332.5 133.5t134.5 349.5q0 205 -125 333t-317 128q-126 0 -235 -55t-178 -162t-69 -244q0 -218 129.5 -350.5t327.5 -132.5z" />
    <glyph glyph-name="uni0432" unicode="&#x432;" horiz-adv-x="1181" 
d="M864 596q115 -30 172.5 -104.5t57.5 -174.5q0 -143 -95.5 -230t-296.5 -87h-534v1126h483q387 0 387 -286q0 -169 -174 -244zM930 825q0 100 -62 155.5t-221 55.5h-371v-409h363q152 0 221.5 55.5t69.5 142.5zM700 90q283 0 283 234q0 96 -68 156.5t-221 60.5h-418v-451
h424z" />
    <glyph glyph-name="uni0433" unicode="&#x433;" horiz-adv-x="944" 
d="M887 1126v-102h-611v-1024h-108v1126h719z" />
    <glyph glyph-name="uni0434" unicode="&#x434;" horiz-adv-x="1503" 
d="M1241 102h205v-411h-109v309h-204h-967v-309h-109v411h189q57 36 96.5 136t69.5 290l96 598h733v-1024zM377 102h756v922h-533l-82 -498q-47 -313 -141 -424z" />
    <glyph glyph-name="uni0435" unicode="&#x435;" horiz-adv-x="1339" 
d="M684 1149q257 0 409.5 -172.5t147.5 -448.5h-1016q9 -206 138 -326t329 -120q136 0 243 57.5t163 165.5h112q-67 -160 -206.5 -244t-313.5 -84q-251 0 -413 161.5t-162 420.5q0 170 73 304.5t203 210t293 75.5zM684 1047q-185 0 -310 -116t-147 -300h899
q-21 185 -140 300.5t-302 115.5z" />
    <glyph glyph-name="uni0436" unicode="&#x436;" horiz-adv-x="1865" 
d="M1808 0h-147l-674 565v-565h-108v565l-674 -565h-148l699 594l-637 532h147l613 -514v514h108v-514l612 514h148l-637 -532z" />
    <glyph glyph-name="uni0437" unicode="&#x437;" horiz-adv-x="1148" 
d="M856 596q106 -30 155.5 -108.5t49.5 -176.5q0 -146 -120.5 -240t-334.5 -94q-234 0 -367.5 98t-168.5 281h108q70 -288 424 -288q173 0 261.5 70t88.5 181q0 41 -11.5 77t-38.5 71t-83.5 55.5t-136.5 20.5h-246v88h189q290 0 290 194q0 101 -80.5 167.5t-248.5 66.5
q-133 0 -231.5 -52.5t-133.5 -164.5h-110q37 148 160.5 227.5t318.5 79.5q209 0 322.5 -90t113.5 -228q0 -170 -170 -235z" />
    <glyph glyph-name="uni0438" unicode="&#x438;" horiz-adv-x="1323" 
d="M1012 1126h143v-1126h-108v612l6 394l-742 -1006h-143v1126h108v-612l-6 -393z" />
    <glyph glyph-name="uni0439" unicode="&#x439;" horiz-adv-x="1323" 
d="M662 1354q-138 0 -230 83t-92 220v26h94v-22q0 -99 62.5 -158t165.5 -59t165 59t62 158v22h94v-26q0 -136 -92 -219.5t-229 -83.5zM1012 1126h143v-1126h-108v612l6 394l-742 -1006h-143v1126h108v-612l-6 -393z" />
    <glyph glyph-name="uni043A" unicode="&#x43a;" horiz-adv-x="1155" 
d="M1098 0h-150l-672 565v-565h-108v1126h108v-514l613 514h147l-637 -532z" />
    <glyph glyph-name="uni043B" unicode="&#x43b;" horiz-adv-x="1345" 
d="M444 1126h734v-1126h-109v1024h-532l-95 -588q-40 -252 -114 -355.5t-201 -103.5q-20 0 -70 5v100q7 0 25.5 -1t26.5 -1q64 0 104 31t69 109t52 220z" />
    <glyph glyph-name="uni043C" unicode="&#x43c;" horiz-adv-x="1460" 
d="M1149 1126h143v-1126h-108v612l6 400l-457 -639h-6l-457 639l6 -400v-612h-108v1126h143l418 -587z" />
    <glyph glyph-name="uni043D" unicode="&#x43d;" horiz-adv-x="1339" 
d="M1063 1126h108v-1126h-108v526h-787v-526h-108v1126h108v-497h787v497z" />
    <glyph glyph-name="uni043E" unicode="&#x43e;" horiz-adv-x="1382" 
d="M692 1149q118 0 224.5 -44.5t184.5 -121.5t123.5 -186.5t45.5 -233.5q0 -165 -76.5 -299.5t-209 -210.5t-292.5 -76q-119 0 -225.5 44.5t-184 122t-122.5 186.5t-45 233q0 165 78 300.5t210 210.5t289 75zM692 1044q-196 0 -331.5 -136t-135.5 -345q0 -207 135 -344
t332 -137t332 137t135 344q0 208 -135.5 344.5t-331.5 136.5z" />
    <glyph glyph-name="uni043F" unicode="&#x43f;" horiz-adv-x="1333" 
d="M1165 1126v-1126h-108v1024h-781v-1024h-108v1126h108h889z" />
    <glyph glyph-name="uni0440" unicode="&#x440;" horiz-adv-x="1406" 
d="M760 1149q154 0 276 -75.5t189 -209.5t67 -301t-67 -301t-189 -209.5t-276 -75.5q-157 0 -281.5 79t-191.5 214v-782h-109v1638h109v-270q67 135 191.5 214t281.5 79zM743 82q194 0 317.5 135.5t123.5 345.5t-123 345.5t-318 135.5q-196 0 -327 -136.5t-131 -344.5
q0 -209 131 -345t327 -136z" />
    <glyph glyph-name="uni0441" unicode="&#x441;" horiz-adv-x="1327" 
d="M692 -23q-160 0 -292 75.5t-208.5 210t-76.5 300.5t76.5 300.5t209 210t293.5 75.5q192 0 339.5 -107.5t199.5 -289.5h-115q-45 133 -160 214t-264 81q-200 0 -335.5 -138t-135.5 -346t135 -345.5t334 -137.5q150 0 265.5 81.5t160.5 213.5h115q-52 -182 -200.5 -290
t-340.5 -108z" />
    <glyph glyph-name="uni0442" unicode="&#x442;" horiz-adv-x="1044" 
d="M987 1126v-102h-409v-1024h-109v1024h-412v102h521h409z" />
    <glyph glyph-name="uni0443" unicode="&#x443;" horiz-adv-x="1171" 
d="M997 1126h117l-772 -1638h-119l303 641l-469 997h117l410 -876z" />
    <glyph glyph-name="uni0444" unicode="&#x444;" horiz-adv-x="2351" 
d="M1702 1149q234 0 384 -166t150 -420q0 -255 -149.5 -420.5t-384.5 -165.5q-155 0 -279.5 78.5t-193.5 212.5v-772h-109v772q-67 -133 -191.5 -212t-279.5 -79q-235 0 -384.5 165.5t-149.5 420.5q0 167 67.5 301t189.5 209.5t275 75.5q157 0 281.5 -79t191.5 -214v721h109
v-721q69 135 193.5 214t279.5 79zM664 82q196 0 327 136t131 345q0 208 -131 344.5t-327 136.5q-194 0 -317.5 -135.5t-123.5 -345.5t123.5 -345.5t317.5 -135.5zM1688 82q194 0 317 135.5t123 345.5t-123 345.5t-317 135.5q-196 0 -327.5 -136.5t-131.5 -344.5
q0 -209 131.5 -345t327.5 -136z" />
    <glyph glyph-name="uni0445" unicode="&#x445;" horiz-adv-x="1081" 
d="M1024 0h-131l-352 494l-351 -494h-133l416 580l-391 546h131l330 -462l325 462h133l-393 -546z" />
    <glyph glyph-name="uni0446" unicode="&#x446;" horiz-adv-x="1402" 
d="M1141 102h205v-411h-109v309h-205h-823h-41v1126h108v-1024h756v1024h109v-1024z" />
    <glyph glyph-name="uni0447" unicode="&#x447;" horiz-adv-x="1191" 
d="M915 1126h109v-1126h-109v432q-69 -33 -168.5 -53.5t-199.5 -20.5q-430 0 -430 422v346h108v-327q0 -179 81 -260.5t257 -81.5q95 0 195.5 22t156.5 56v591z" />
    <glyph glyph-name="uni0448" unicode="&#x448;" horiz-adv-x="1781" 
d="M1505 1126h109v-1126h-109h-669h-625h-43v1126h108v-1024h560v1024h108v-1024h561v1024z" />
    <glyph glyph-name="uni0449" unicode="&#x449;" horiz-adv-x="1875" 
d="M1614 102h205v-411h-109v309h-205h-669h-625h-43v1126h108v-1024h560v1024h108v-1024h561v1024h109v-1024z" />
    <glyph glyph-name="uni044A" unicode="&#x44a;" horiz-adv-x="1337" 
d="M834 731q389 0 389 -358q0 -173 -99 -273t-299 -100h-503v1022h-265v104h373v-395h404zM825 104q289 0 289 269q0 59 -13 103.5t-44 81t-88.5 56t-139.5 19.5h-399v-529h395z" />
    <glyph glyph-name="uni044B" unicode="&#x44b;" horiz-adv-x="1538" 
d="M680 731q389 0 389 -358q0 -173 -98.5 -273t-298.5 -100h-504v1126h108v-395h404zM1262 1126h108v-1126h-108v1126zM672 104q289 0 289 269q0 59 -13 103.5t-44 81t-88.5 56t-139.5 19.5h-400v-529h396z" />
    <glyph glyph-name="uni044C" unicode="&#x44c;" horiz-adv-x="1183" 
d="M680 731q389 0 389 -358q0 -173 -97.5 -273t-297.5 -100h-506v1126h108v-395h404zM672 104q289 0 289 269q0 59 -12.5 103.5t-43 81t-88 56t-139.5 19.5h-402v-529h396z" />
    <glyph glyph-name="uni044D" unicode="&#x44d;" horiz-adv-x="1329" 
d="M639 1149q245 0 410 -167t165 -419t-165 -419t-410 -167q-195 0 -345.5 108t-199.5 290h115q43 -134 160 -215.5t270 -81.5q189 0 320.5 124.5t144.5 319.5h-543v90h541q-17 192 -146.5 314.5t-316.5 122.5q-154 0 -271 -82t-159 -215h-115q49 181 199.5 289t345.5 108z
" />
    <glyph glyph-name="uni044E" unicode="&#x44e;" horiz-adv-x="1816" 
d="M1124 1149q118 0 224.5 -44.5t184.5 -122t123.5 -186.5t45.5 -233q0 -165 -76.5 -299.5t-209 -210.5t-292.5 -76q-228 0 -391 151.5t-182 383.5h-275v-512h-108v1126h108v-512h275q19 232 182.5 383.5t390.5 151.5zM1124 82q130 0 237 61t169.5 171.5t62.5 248.5
q0 207 -136 344t-333 137q-127 0 -234 -61t-170 -172t-63 -248q0 -207 135 -344t332 -137z" />
    <glyph glyph-name="uni044F" unicode="&#x44f;" horiz-adv-x="1198" 
d="M498 1126h532v-1126h-108v446h-361l-366 -446h-138l379 449q-161 17 -245.5 99t-84.5 220q0 170 96 264t296 94zM512 539h410v487h-420q-83 0 -141 -19.5t-89 -56t-44 -80.5t-13 -102q0 -229 297 -229z" />
    <glyph glyph-name="uni0451" unicode="&#x451;" horiz-adv-x="1339" 
d="M438 1444q-34 0 -58 23.5t-24 58.5q0 34 24 57t58 23q35 0 59.5 -23t24.5 -57q0 -35 -24.5 -58.5t-59.5 -23.5zM903 1444q-35 0 -59.5 23.5t-24.5 58.5q0 34 24.5 57t59.5 23t59.5 -23t24.5 -57q0 -35 -24.5 -58.5t-59.5 -23.5zM684 1149q257 0 409.5 -172.5
t147.5 -448.5h-1016q9 -206 138 -326t329 -120q136 0 243 57.5t163 165.5h112q-67 -160 -206.5 -244t-313.5 -84q-251 0 -413 161.5t-162 420.5q0 170 73 304.5t203 210t293 75.5zM684 1047q-185 0 -310 -116t-147 -300h899q-21 185 -140 300.5t-302 115.5z" />
    <glyph glyph-name="uni0454" unicode="&#x454;" horiz-adv-x="1327" 
d="M692 78q151 0 266 81.5t160 215.5h115q-52 -182 -200.5 -290t-340.5 -108q-160 0 -292 75.5t-208.5 210t-76.5 300.5t76.5 300.5t209 210t293.5 75.5q192 0 339.5 -107.5t199.5 -289.5h-115q-45 134 -159.5 215.5t-264.5 81.5q-189 0 -320.5 -122.5t-148.5 -314.5h543
v-90h-543q13 -194 146 -319t321 -125z" />
    <glyph glyph-name="uni0456" unicode="&#x456;" horiz-adv-x="444" 
d="M221 1610q38 0 63 -24t25 -60q0 -37 -25 -61.5t-63 -24.5q-36 0 -61 25t-25 61q0 35 25.5 59.5t60.5 24.5zM168 0v1126h108v-1126h-108z" />
    <glyph glyph-name="uni0457" unicode="&#x457;" horiz-adv-x="444" 
d="M-12 1606q35 0 59.5 -23t24.5 -57q0 -35 -24.5 -58.5t-59.5 -23.5q-34 0 -58 23.5t-24 58.5q0 34 24 57t58 23zM453 1606q35 0 59.5 -23t24.5 -57q0 -35 -24.5 -58.5t-59.5 -23.5t-59.5 23.5t-24.5 58.5q0 34 24.5 57t59.5 23zM168 0v1126h108v-1126h-108z" />
    <glyph glyph-name="uni045E" unicode="&#x45e;" horiz-adv-x="1171" 
d="M586 1354q-138 0 -230 83t-92 220v26h94v-22q0 -99 62.5 -158t165.5 -59t165 59t62 158v22h94v-26q0 -136 -92 -219.5t-229 -83.5zM997 1126h117l-772 -1638h-119l303 641l-469 997h117l410 -876z" />
    <glyph glyph-name="uni0490" unicode="&#x490;" horiz-adv-x="1105" 
d="M1030 1577v-248h-727v-1329h-110v1434h729v143h108z" />
    <glyph glyph-name="uni0491" unicode="&#x491;" horiz-adv-x="944" 
d="M887 1278v-254h-611v-1024h-108v1126h610v152h109z" />
    <glyph glyph-name="Wgrave" unicode="&#x1e80;" horiz-adv-x="2027" 
d="M1219 1634l-60 -57l-350 328l70 71zM1839 1434h113l-416 -1434h-143l-152 518l-217 780h-20l-218 -780l-149 -518h-143l-418 1434h112l201 -686l176 -635l178 635l199 686h145l199 -686l176 -637l178 637z" />
    <glyph glyph-name="wgrave" unicode="&#x1e81;" horiz-adv-x="1689" 
d="M1049 1380l-60 -59l-350 330l70 69zM1522 1126h110l-344 -1126h-137l-117 379l-180 629h-20l-179 -627l-116 -381h-138l-344 1126h111l108 -354l195 -661l197 661l106 354h139l109 -354l195 -657l196 657z" />
    <glyph glyph-name="Wacute" unicode="&#x1e82;" horiz-adv-x="2027" 
d="M1219 1905l-353 -328l-57 57l340 342zM1839 1434h113l-416 -1434h-143l-152 518l-217 780h-20l-218 -780l-149 -518h-143l-418 1434h112l201 -686l176 -635l178 635l199 686h145l199 -686l176 -637l178 637z" />
    <glyph glyph-name="wacute" unicode="&#x1e83;" horiz-adv-x="1689" 
d="M1049 1651l-353 -328l-57 57l340 342zM1522 1126h110l-344 -1126h-137l-117 379l-180 629h-20l-179 -627l-116 -381h-138l-344 1126h111l108 -354l195 -661l197 661l106 354h139l109 -354l195 -657l196 657z" />
    <glyph glyph-name="Wdieresis" unicode="&#x1e84;" horiz-adv-x="2027" 
d="M780 1700q-34 0 -58 23t-24 57q0 35 24 58.5t58 23.5q35 0 59.5 -23.5t24.5 -58.5q0 -34 -24.5 -57t-59.5 -23zM1245 1700q-35 0 -59.5 23t-24.5 57q0 35 24.5 58.5t59.5 23.5t59.5 -23.5t24.5 -58.5q0 -34 -24.5 -57t-59.5 -23zM1839 1434h113l-416 -1434h-143l-152 518
l-217 780h-20l-218 -780l-149 -518h-143l-418 1434h112l201 -686l176 -635l178 635l199 686h145l199 -686l176 -637l178 637z" />
    <glyph glyph-name="wdieresis" unicode="&#x1e85;" horiz-adv-x="1689" 
d="M610 1444q-34 0 -58 23.5t-24 58.5q0 34 24 57t58 23q35 0 59.5 -23t24.5 -57q0 -35 -24.5 -58.5t-59.5 -23.5zM1075 1444q-35 0 -59.5 23.5t-24.5 58.5q0 34 24.5 57t59.5 23t59.5 -23t24.5 -57q0 -35 -24.5 -58.5t-59.5 -23.5zM1522 1126h110l-344 -1126h-137l-117 379
l-180 629h-20l-179 -627l-116 -381h-138l-344 1126h111l108 -354l195 -661l197 661l106 354h139l109 -354l195 -657l196 657z" />
    <glyph glyph-name="Ygrave" unicode="&#x1ef2;" horiz-adv-x="1343" 
d="M877 1634l-60 -57l-350 328l70 71zM1268 1434l-541 -897v-537h-111v532l-540 902h125l471 -779l471 779h125z" />
    <glyph glyph-name="ygrave" unicode="&#x1ef3;" horiz-adv-x="1171" 
d="M791 1380l-60 -59l-350 330l70 69zM997 1126h117l-772 -1638h-119l303 641l-469 997h117l410 -876z" />
    <glyph glyph-name="uni2009" unicode="&#x2009;" horiz-adv-x="307" 
 />
    <glyph glyph-name="endash" unicode="&#x2013;" horiz-adv-x="1304" 
d="M1112 674v-105h-919v105h919z" />
    <glyph glyph-name="emdash" unicode="&#x2014;" horiz-adv-x="1564" 
d="M1372 674v-105h-1179v105h1179z" />
    <glyph glyph-name="quoteleft" unicode="&#x2018;" horiz-adv-x="614" 
d="M299 1102q30 -6 49 -28t19 -54q0 -38 -25 -63t-61 -25q-35 0 -61 21t-27 67q-1 17 4 40t39 114.5t102 259.5h84z" />
    <glyph glyph-name="quoteright" unicode="&#x2019;" horiz-adv-x="614" 
d="M422 1366q1 -17 -4 -40t-38.5 -114.5t-100.5 -259.5h-86l124 332q-69 17 -69 84q0 38 25.5 63t62.5 25q33 0 59.5 -22t26.5 -68z" />
    <glyph glyph-name="quotesinglbase" unicode="&#x201a;" horiz-adv-x="614" 
d="M422 61q1 -17 -4 -40t-38.5 -114t-100.5 -259h-86l124 332q-31 6 -50 27.5t-19 53.5q0 38 25.5 63.5t62.5 25.5q34 0 60 -21.5t26 -67.5z" />
    <glyph glyph-name="quotedblleft" unicode="&#x201c;" horiz-adv-x="968" 
d="M338 1434h84l-123 -332q30 -6 49 -28t19 -54q0 -38 -25 -63t-61 -25q-35 0 -61 21t-27 67q-1 17 4 40t39 114.5t102 259.5zM651 1102q30 -6 49 -28t19 -54q0 -38 -24.5 -63t-61.5 -25q-34 0 -60.5 21t-27.5 67q0 18 5.5 40t39 115t100.5 259h86z" />
    <glyph glyph-name="quotedblright" unicode="&#x201d;" horiz-adv-x="968" 
d="M336 1456q33 0 59.5 -22t26.5 -68q1 -17 -4 -40t-38.5 -114.5t-100.5 -259.5h-86l124 332q-69 17 -69 84q0 38 25.5 63t62.5 25zM776 1366q1 -17 -4 -40t-39 -114.5t-102 -259.5h-86l125 332q-31 8 -49.5 29.5t-18.5 54.5q0 38 25 63t61 25q33 0 60 -22t28 -68z" />
    <glyph glyph-name="quotedblbase" unicode="&#x201e;" horiz-adv-x="968" 
d="M336 150q34 0 60 -21.5t26 -67.5q1 -17 -4 -40t-38.5 -114t-100.5 -259h-86l124 332q-31 6 -50 27.5t-19 53.5q0 38 25.5 63.5t62.5 25.5zM776 61q1 -17 -4 -40t-39 -114t-102 -259h-86l125 332q-30 6 -49 28t-19 53q0 38 25 63.5t61 25.5q33 0 60 -21.5t28 -67.5z" />
    <glyph glyph-name="dagger" unicode="&#x2020;" horiz-adv-x="1257" 
d="M684 1434v-445h381v-104h-381l-2 -1092h-109v1092h-380v104h380v445h111z" />
    <glyph glyph-name="daggerdbl" unicode="&#x2021;" horiz-adv-x="1257" 
d="M684 1434v-420h381v-105h-381l-2 -495h383v-103h-383v-518h-109v518h-380v103h380v495h-380v105h380v420h111z" />
    <glyph glyph-name="bullet" unicode="&#x2022;" horiz-adv-x="933" 
d="M467 852q117 0 195.5 -76t78.5 -190t-78.5 -190.5t-195.5 -76.5t-195.5 76.5t-78.5 190.5t78.5 190t195.5 76z" />
    <glyph glyph-name="ellipsis" unicode="&#x2026;" horiz-adv-x="1441" 
d="M279 150q37 0 62.5 -24.5t25.5 -59.5q0 -37 -25.5 -63t-62.5 -26q-36 0 -61 26t-25 63q0 35 24.5 59.5t61.5 24.5zM721 150q37 0 62.5 -24.5t25.5 -59.5q0 -37 -25.5 -63t-62.5 -26q-36 0 -61 26t-25 63q0 35 24.5 59.5t61.5 24.5zM1163 150q37 0 61.5 -24.5t24.5 -59.5
q0 -37 -25 -63t-61 -26q-37 0 -62.5 26t-25.5 63q0 35 25.5 59.5t62.5 24.5z" />
    <glyph glyph-name="perthousand" unicode="&#x2030;" horiz-adv-x="2996" 
d="M553 594q-163 0 -261.5 110t-98.5 320q0 211 98.5 321.5t261.5 110.5q164 0 263 -110.5t99 -321.5q0 -210 -99 -320t-263 -110zM1536 1434l-819 -1434h-111l819 1434h111zM553 684q122 0 192 84.5t70 255.5q0 172 -70 256t-192 84t-192 -84t-70 -256q0 -171 70 -255.5
t192 -84.5zM1589 840q164 0 263.5 -110t99.5 -320q0 -211 -99.5 -322t-263.5 -111q-163 0 -261.5 111t-98.5 322q0 210 98.5 320t261.5 110zM2443 840q163 0 262 -110t99 -320q0 -211 -99 -322t-262 -111q-164 0 -263 111t-99 322q0 210 99 320t263 110zM1589 750
q-122 0 -192 -84.5t-70 -255.5q0 -172 70 -256t192 -84t192 84t70 256q0 171 -70 255.5t-192 84.5zM2443 750q-122 0 -192 -84.5t-70 -255.5q0 -172 70 -256t192 -84t192 84t70 256q0 171 -70 255.5t-192 84.5z" />
    <glyph glyph-name="guilsinglleft" unicode="&#x2039;" horiz-adv-x="833" 
d="M567 197l-374 374l374 375l74 -76l-299 -299l299 -299z" />
    <glyph glyph-name="guilsinglright" unicode="&#x203a;" horiz-adv-x="833" 
d="M266 197l-73 75l299 299l-299 299l73 76l375 -375z" />
    <glyph glyph-name="fraction" unicode="&#x2044;" horiz-adv-x="323" 
d="M-303 0l819 1434h111l-820 -1434h-110z" />
    <glyph glyph-name="uni2070" unicode="&#x2070;" horiz-adv-x="878" 
d="M438 737q-163 0 -261.5 110t-98.5 320q0 211 98.5 321.5t261.5 110.5q165 0 264 -110.5t99 -321.5q0 -210 -99.5 -320t-263.5 -110zM438 827q122 0 192 84.5t70 255.5q0 172 -70 256t-192 84t-192 -84t-70 -256q0 -171 70 -255.5t192 -84.5z" />
    <glyph glyph-name="uni2074" unicode="&#x2074;" horiz-adv-x="864" 
d="M786 1028v-84h-151v-184h-98v184h-459v84l428 549h129v-549h151zM172 1028h365v473z" />
    <glyph glyph-name="uni2075" unicode="&#x2075;" horiz-adv-x="817" 
d="M442 1303q123 0 210 -75.5t87 -203.5q0 -124 -84.5 -205.5t-228.5 -81.5q-132 0 -228 69t-120 198h98q20 -89 87 -138t159 -49q100 0 160.5 58.5t60.5 146.5q0 87 -58 147t-157 60q-129 0 -221 -109h-92l96 457h487v-82h-422l-59 -278q93 86 225 86z" />
    <glyph glyph-name="uni2076" unicode="&#x2076;" horiz-adv-x="794" 
d="M422 1300q132 0 213.5 -80t81.5 -196q0 -120 -87 -203.5t-233 -83.5t-232.5 86.5t-86.5 208.5q0 25 3.5 48.5t14 50.5t19.5 47.5t30.5 53t36 53.5t47.5 62.5t53 66t64 78t70 85.5h104l-254 -311q67 34 156 34zM397 819q102 0 161.5 59t59.5 146t-58 145t-163 58
q-100 0 -160.5 -56t-60.5 -145q0 -87 59 -147t162 -60z" />
    <glyph glyph-name="uni2077" unicode="&#x2077;" horiz-adv-x="735" 
d="M78 1577h579v-74l-366 -743h-98l364 733h-479v84z" />
    <glyph glyph-name="uni2078" unicode="&#x2078;" horiz-adv-x="821" 
d="M580 1190q68 -20 115.5 -76t47.5 -135q0 -108 -87 -175t-246 -67q-158 0 -245 67t-87 175q0 79 48 135t116 76q-133 57 -133 182q0 100 83.5 163.5t217.5 63.5q136 0 219.5 -63.5t83.5 -163.5q0 -125 -133 -182zM410 1520q-89 0 -146 -42.5t-57 -113.5q0 -68 54.5 -107.5
t148.5 -39.5q95 0 149.5 39.5t54.5 107.5q0 71 -57 113.5t-147 42.5zM410 817q110 0 171.5 44.5t61.5 121.5q0 75 -58.5 117.5t-174.5 42.5q-115 0 -174.5 -42.5t-59.5 -117.5q0 -77 62 -121.5t172 -44.5z" />
    <glyph glyph-name="uni2079" unicode="&#x2079;" horiz-adv-x="794" 
d="M397 1599q146 0 233 -86.5t87 -207.5q0 -25 -3.5 -48.5t-14 -50.5t-19.5 -47.5t-30.5 -53t-36 -53.5t-47.5 -62.5t-53 -66t-64 -78t-70 -85.5h-105l254 311q-68 -35 -155 -35q-132 0 -213.5 79.5t-81.5 195.5q0 119 87 203.5t232 84.5zM397 1110q100 0 160.5 56t60.5 145
q0 86 -59 145.5t-162 59.5q-102 0 -161.5 -59.5t-59.5 -145.5q0 -87 58 -144t163 -57z" />
    <glyph glyph-name="Euro" unicode="&#x20ac;" horiz-adv-x="1861" 
d="M1090 82q189 0 337.5 97t221.5 261h116q-77 -213 -257.5 -338t-413.5 -125q-265 0 -461.5 153.5t-255.5 401.5h-277v91h262q-6 46 -6 94q0 49 6 92h-262v90h277q57 249 253.5 403t463.5 154q233 0 413.5 -125t257.5 -338h-116q-73 164 -221.5 261.5t-337.5 97.5
q-216 0 -379.5 -125.5t-221.5 -327.5h676v-90h-692q-6 -43 -6 -92q0 -47 6 -94h692v-91h-673q56 -201 219.5 -325.5t378.5 -124.5z" />
    <glyph glyph-name="uni2116" unicode="&#x2116;" horiz-adv-x="2572" 
d="M1952 602q-178 0 -303 124.5t-125 301.5q0 178 125.5 303t302.5 125q178 0 303 -125t125 -303t-124.5 -302t-303.5 -124zM1231 834v600h110v-1434h-147l-899 1303l8 -703v-600h-110v1434h147l899 -1303zM1952 1360q-137 0 -233.5 -97t-96.5 -235t96.5 -235t233.5 -97
t233 97t96 235t-96 235t-233 97zM1550 338v88h807v-88h-807zM1550 0v90h807v-90h-807z" />
    <glyph glyph-name="trademark" unicode="&#x2122;" horiz-adv-x="1683" 
d="M193 1503v74h499v-74h-211l2 -553h-80l-2 553h-208zM1399 1577h92v-627h-78v523l-254 -345h-4l-254 345v-523h-78v627h92l242 -330z" />
    <glyph glyph-name="oneeighth" unicode="&#x215b;" horiz-adv-x="1761" 
d="M346 616v709l-268 -100v94l317 115h49v-818h-98zM1133 1434h110l-819 -1434h-111zM1518 430q69 -21 117 -76t48 -135q0 -108 -87 -175t-246 -67q-158 0 -245 67t-87 175q0 80 47.5 135.5t116.5 75.5q-133 57 -133 182q0 101 83 164.5t218 63.5q136 0 219.5 -63t83.5 -165
q0 -124 -135 -182zM1350 760q-90 0 -146.5 -42t-56.5 -114q0 -68 54.5 -107.5t148.5 -39.5q95 0 149.5 39.5t54.5 107.5q0 72 -56.5 114t-147.5 42zM1350 57q110 0 171.5 44.5t61.5 121.5t-58.5 118.5t-174.5 41.5q-115 0 -174.5 -42t-59.5 -118q0 -77 62 -121.5t172 -44.5z
" />
    <glyph glyph-name="threeeighths" unicode="&#x215c;" horiz-adv-x="1978" 
d="M756 844q0 -106 -84.5 -178t-233.5 -72q-139 0 -238.5 69t-121.5 199h98q21 -91 90.5 -139.5t167.5 -48.5q103 0 163 47.5t60 126.5q0 74 -42.5 115t-110.5 41h-174v73h119q73 0 125.5 34.5t52.5 102.5q0 74 -55.5 118t-145.5 44q-89 0 -152 -46.5t-77 -141.5h-99
q17 129 107.5 198.5t222.5 69.5q136 0 216.5 -69t80.5 -173q0 -102 -109 -157q63 -24 101.5 -80t38.5 -133zM1350 1434h110l-819 -1434h-111zM1735 430q69 -21 117.5 -76t48.5 -135q0 -108 -87.5 -175t-246.5 -67q-158 0 -245 67t-87 175q0 80 47.5 135.5t116.5 75.5
q-133 57 -133 182q0 101 83 164.5t218 63.5q136 0 219.5 -63t83.5 -165q0 -124 -135 -182zM1567 760q-90 0 -146.5 -42t-56.5 -114q0 -68 54.5 -107.5t148.5 -39.5q95 0 150 39.5t55 107.5q0 72 -57 114t-148 42zM1567 57q110 0 171.5 44.5t61.5 121.5t-58.5 118.5
t-174.5 41.5q-115 0 -174.5 -42t-59.5 -118q0 -77 62 -121.5t172 -44.5z" />
    <glyph glyph-name="fiveeighths" unicode="&#x215d;" horiz-adv-x="1961" 
d="M739 881q0 -124 -84.5 -205.5t-228.5 -81.5q-132 0 -228 68.5t-120 197.5h98q20 -88 87 -137t159 -49q100 0 160.5 58.5t60.5 146.5q0 87 -58 146.5t-157 59.5q-130 0 -221 -108h-92l96 457h487v-82h-422l-59 -279q93 86 225 86q123 0 210 -75t87 -203zM1333 1434h111
l-819 -1434h-111zM1720 430q69 -21 117.5 -76t48.5 -135q0 -108 -87.5 -175t-246.5 -67q-158 0 -244.5 67t-86.5 175q0 80 47 135.5t116 75.5q-133 57 -133 182q0 101 83 164.5t218 63.5q136 0 219.5 -63t83.5 -165q0 -124 -135 -182zM1552 760q-90 0 -146 -42t-56 -114
q0 -68 54 -107.5t148 -39.5q95 0 150 39.5t55 107.5q0 72 -57 114t-148 42zM1552 57q110 0 172 44.5t62 121.5t-59 118.5t-175 41.5q-115 0 -174 -42t-59 -118q0 -77 61.5 -121.5t171.5 -44.5z" />
    <glyph glyph-name="seveneighths" unicode="&#x215e;" horiz-adv-x="1740" 
d="M657 1434v-74l-366 -744h-98l364 734h-479v84h579zM1112 1434h111l-820 -1434h-110zM1497 430q69 -21 117.5 -76t48.5 -135q0 -108 -87.5 -175t-246.5 -67q-158 0 -245 67t-87 175q0 80 47.5 135.5t116.5 75.5q-133 57 -133 182q0 101 83 164.5t218 63.5q136 0 219.5 -63
t83.5 -165q0 -124 -135 -182zM1329 760q-90 0 -146.5 -42t-56.5 -114q0 -68 54.5 -107.5t148.5 -39.5q95 0 150 39.5t55 107.5q0 72 -57 114t-148 42zM1329 57q110 0 172 44.5t62 121.5t-59 118.5t-175 41.5q-115 0 -174 -42t-59 -118q0 -77 61.5 -121.5t171.5 -44.5z" />
    <glyph glyph-name="arrowleft" unicode="&#x2190;" horiz-adv-x="1953" 
d="M606 360l-413 412l413 414l76 -76l-287 -283h1366v-108h-1366l287 -283z" />
    <glyph glyph-name="arrowup" unicode="&#x2191;" horiz-adv-x="1210" 
d="M551 0v1251l-283 -284l-75 75l413 414l414 -414l-78 -75l-283 284v-1251h-108z" />
    <glyph glyph-name="arrowright" unicode="&#x2192;" horiz-adv-x="1953" 
d="M1348 352l-76 76l287 283h-1366v110h1366l-287 281l76 78l413 -414z" />
    <glyph glyph-name="arrowdown" unicode="&#x2193;" horiz-adv-x="1210" 
d="M606 -14l-413 411l75 78l283 -287v1368h111v-1368l280 285l78 -76z" />
    <glyph glyph-name="arrowboth" unicode="&#x2194;" horiz-adv-x="2269" 
d="M1665 360l-76 76l285 283h-1479l287 -283l-76 -76l-413 412l413 414l76 -76l-287 -283h1479l-285 283l76 76l414 -414z" />
    <glyph glyph-name="arrowupdn" unicode="&#x2195;" horiz-adv-x="1210" 
d="M606 -96l-413 413l75 76l283 -287v1223l-283 -287l-75 76l413 414l414 -414l-78 -76l-280 287v-1223l280 287l78 -76z" />
    <glyph glyph-name="uni2196" unicode="&#x2196;" horiz-adv-x="1533" 
d="M1264 190l-967 967l4 -401h-108v583h583v-106l-401 4l966 -969z" />
    <glyph glyph-name="uni2197" unicode="&#x2197;" horiz-adv-x="1533" 
d="M268 178l-75 78l966 967l-403 -2v106h585v-584h-108l2 402z" />
    <glyph glyph-name="uni2198" unicode="&#x2198;" horiz-adv-x="1533" 
d="M756 211v108l403 -4l-966 967l77 78l965 -967l-2 402h108v-584h-585z" />
    <glyph glyph-name="uni2199" unicode="&#x2199;" horiz-adv-x="1533" 
d="M193 203v585h108l-2 -403l965 967l77 -78l-966 -967l401 2v-106h-583z" />
    <glyph glyph-name="partialdiff" unicode="&#x2202;" horiz-adv-x="1411" 
d="M836 1456q88 0 156 -28t121.5 -95.5t80 -173t25.5 -268t-35 -373.5q-41 -253 -194 -397t-378 -144q-215 0 -331.5 146.5t-81.5 372.5q34 222 180.5 343.5t351.5 121.5q127 0 229 -59t144 -181q10 127 8.5 223.5t-20.5 167.5t-45 118t-65 75.5t-80.5 40.5t-92.5 12
q-170 0 -369 -103l-20 93q205 108 416 108zM1069 492q16 97 -15.5 182t-112.5 140.5t-196 55.5q-169 0 -289.5 -99t-148.5 -279q-28 -181 60 -295.5t260 -114.5q170 0 292 113.5t150 296.5z" />
    <glyph glyph-name="emptyset" unicode="&#x2205;" horiz-adv-x="1675" 
d="M1483 1149l-205 -203q135 -157 135 -383q0 -165 -76 -299.5t-207.5 -210.5t-291.5 -76q-109 0 -208 38t-175 106l-203 -203l-59 59l202 203q-135 161 -135 383q0 124 46 233.5t124 186.5t184.5 121.5t223.5 44.5q221 0 383 -143l202 202zM371 563q0 -177 100 -307
l674 674q-126 114 -307 114q-196 0 -331.5 -136.5t-135.5 -344.5zM1305 563q0 173 -103 307l-674 -673q131 -115 310 -115q197 0 332 136.5t135 344.5z" />
    <glyph glyph-name="product" unicode="&#x220f;" horiz-adv-x="1726" 
d="M1534 1434v-105h-203v-1329h-108v1329h-721v-1329h-109v1329h-200v105h1341z" />
    <glyph glyph-name="summation" unicode="&#x2211;" horiz-adv-x="1335" 
d="M1143 1434v-105h-803l545 -590v-45l-545 -590h803v-104h-950v102l563 615l-563 614v103h950z" />
    <glyph glyph-name="minus" unicode="&#x2212;" horiz-adv-x="1411" 
d="M1219 674v-105h-1026v105h1026z" />
    <glyph glyph-name="radical" unicode="&#x221a;" horiz-adv-x="1726" 
d="M1421 1434h115l-563 -1434h-139l-402 1022h-239v104h315l397 -1009z" />
    <glyph glyph-name="infinity" unicode="&#x221e;" horiz-adv-x="1859" 
d="M1327 934q151 0 245.5 -97.5t94.5 -250.5q0 -155 -94.5 -251.5t-245.5 -96.5q-222 0 -395 260q-173 -260 -397 -260q-153 0 -247.5 97t-94.5 251t94 251t243 97q126 0 223 -71t177 -193q53 78 106 132t129 92.5t162 39.5zM532 328q108 0 190 66.5t157 187.5
q-38 60 -72 102.5t-77 81t-93.5 57.5t-108.5 19q-107 0 -173 -71t-66 -185q0 -116 65.5 -187t177.5 -71zM1327 328q110 0 177 71t67 187q0 114 -66 185t-178 71q-108 -3 -188 -70t-154 -188q80 -125 158 -190.5t184 -65.5z" />
    <glyph glyph-name="integral" unicode="&#x222b;" horiz-adv-x="1484" 
d="M1051 1599q123 0 182 -68t59 -179h-86q0 63 -33 106t-116 43q-41 0 -71.5 -13t-50.5 -35t-33.5 -57t-21 -72t-12.5 -87l-143 -1403q-16 -179 -84 -274t-207 -95q-123 0 -182 68t-59 180h83q0 -28 7 -52.5t22.5 -47t47 -36t75.5 -13.5q41 0 71.5 13t50 35t33.5 57t21 71.5
t12 87.5l144 1403q16 179 83.5 273.5t207.5 94.5z" />
    <glyph glyph-name="approxequal" unicode="&#x2248;" horiz-adv-x="1290" 
d="M874 668q-47 0 -93.5 19.5t-74.5 40t-75 60.5q-9 7 -36.5 29.5t-41 32t-37 23.5t-45.5 20t-45 6q-71 0 -109 -55.5t-38 -147.5h-86q0 136 60 212.5t163 76.5q35 0 67 -9t65.5 -30t53 -35.5t57.5 -46.5q7 -6 36 -29t41.5 -32t36.5 -23.5t46 -20t45 -5.5q71 0 108.5 55
t37.5 147h88q0 -136 -60.5 -212t-163.5 -76zM874 289q-47 0 -94 20t-74 40.5t-75 60.5q-7 6 -30.5 25.5t-33.5 27t-31 22t-35.5 20.5t-34.5 11.5t-40 5.5q-71 0 -109 -56t-38 -147h-86q0 136 60 212.5t163 76.5q35 0 66.5 -9t66.5 -31.5t52 -35.5t58 -47q7 -6 36 -29
t41.5 -32t36.5 -23.5t46 -20t45 -5.5q71 0 108.5 55.5t37.5 147.5h88q0 -136 -60.5 -212.5t-163.5 -76.5z" />
    <glyph glyph-name="notequal" unicode="&#x2260;" horiz-adv-x="1411" 
d="M924 1247l-101 -381h396v-102h-422l-74 -281h496v-100h-523l-100 -383h-111l101 383h-393v100h419l74 281h-493v102h520l100 381h111z" />
    <glyph glyph-name="lessequal" unicode="&#x2264;" horiz-adv-x="1411" 
d="M1219 1047v-97l-836 -200l836 -201v-98l-1026 256v86zM1219 289v-88h-1026v88h1026z" />
    <glyph glyph-name="greaterequal" unicode="&#x2265;" horiz-adv-x="1411" 
d="M193 1047l1026 -254v-86l-1026 -256v98l835 201l-835 200v97zM1219 289v-88h-1026v88h1026z" />
    <glyph glyph-name="lozenge" unicode="&#x25ca;" horiz-adv-x="1593" 
d="M797 1186l604 -604l-604 -605l-604 605zM797 1034l-453 -452l453 -451l452 451z" />
    <glyph glyph-name="A.001" horiz-adv-x="1480" 
d="M1288 0l-194 477h-707l-194 -477h-117l592 1434h145l592 -1434h-117zM430 580h621l-312 755z" />
    <glyph glyph-name="zero.subs" horiz-adv-x="878" 
d="M438 737q-163 0 -261.5 110t-98.5 320q0 211 98.5 321.5t261.5 110.5q165 0 264 -110.5t99 -321.5q0 -210 -99.5 -320t-263.5 -110zM438 827q122 0 192 84.5t70 255.5q0 172 -70 256t-192 84t-192 -84t-70 -256q0 -171 70 -255.5t192 -84.5z" />
    <glyph glyph-name="one.subs" horiz-adv-x="522" 
d="M395 1577h49v-817h-98v708l-268 -100v94z" />
    <glyph glyph-name="two.subs" horiz-adv-x="841" 
d="M225 844h539v-84h-686v71l297 222q153 113 204.5 170t51.5 127q0 74 -54.5 122t-146.5 48q-99 0 -159.5 -53t-75.5 -158h-101q17 137 106.5 213.5t231.5 76.5q138 0 217.5 -73.5t79.5 -177.5q0 -65 -34 -122.5t-89 -105t-157 -119.5z" />
    <glyph glyph-name="three.subs" horiz-adv-x="833" 
d="M616 1200q62 -24 101 -80.5t39 -132.5q0 -106 -84.5 -178t-233.5 -72q-138 0 -238 69.5t-122 199.5h98q21 -91 90.5 -140t167.5 -49q103 0 163 47.5t60 126.5q0 74 -42.5 115t-110.5 41h-174v74h119q73 0 125.5 34.5t52.5 102.5q0 74 -55.5 118t-145.5 44q-89 0 -152 -47
t-77 -142h-99q17 129 107.5 198.5t222.5 69.5q136 0 216.5 -68.5t80.5 -172.5t-109 -158z" />
    <glyph glyph-name="four.subs" horiz-adv-x="864" 
d="M786 1028v-84h-151v-184h-98v184h-459v84l428 549h129v-549h151zM170 1028h367v473z" />
    <glyph glyph-name="five.subs" horiz-adv-x="817" 
d="M442 1303q123 0 210 -75.5t87 -203.5q0 -124 -84.5 -205.5t-228.5 -81.5q-132 0 -228 69t-120 198h98q20 -89 87 -138t159 -49q100 0 160.5 58.5t60.5 146.5q0 87 -58 147t-157 60q-129 0 -221 -109h-92l96 457h487v-82h-422l-59 -278q93 86 225 86z" />
    <glyph glyph-name="six.subs" horiz-adv-x="794" 
d="M422 1300q132 0 213.5 -80t81.5 -196q0 -120 -87 -203.5t-233 -83.5t-232.5 86.5t-86.5 208.5q0 25 3.5 48.5t14 50.5t19.5 47.5t30.5 53t36 53.5t47.5 62.5t53 66t64 78t70 85.5h104l-254 -311q67 34 156 34zM397 819q102 0 161.5 59t59.5 146t-58 145t-163 58
q-100 0 -160.5 -56t-60.5 -145q0 -87 59 -147t162 -60z" />
    <glyph glyph-name="seven.subs" horiz-adv-x="735" 
d="M78 1577h579v-74l-366 -743h-98l362 733h-477v84z" />
    <glyph glyph-name="eight.subs" horiz-adv-x="821" 
d="M578 1190q70 -20 117.5 -75.5t47.5 -135.5q0 -108 -87 -175t-246 -67q-158 0 -245 67t-87 175q0 80 47.5 135.5t116.5 75.5q-57 24 -95 70.5t-38 111.5q0 100 83.5 163.5t217.5 63.5q136 0 219.5 -63.5t83.5 -163.5q0 -124 -135 -182zM410 1520q-89 0 -146 -42.5
t-57 -113.5q0 -68 54.5 -107.5t148.5 -39.5q95 0 149.5 39.5t54.5 107.5q0 71 -57 113.5t-147 42.5zM410 817q110 0 171.5 44.5t61.5 121.5q0 75 -58.5 117.5t-174.5 42.5q-115 0 -174.5 -42.5t-59.5 -117.5q0 -77 62 -121.5t172 -44.5z" />
    <glyph glyph-name="nine.subs" horiz-adv-x="794" 
d="M397 1599q146 0 233 -86.5t87 -207.5q0 -25 -3.5 -48.5t-14 -50.5t-19.5 -47.5t-30.5 -53t-36 -53.5t-47.5 -62.5t-53 -66t-64 -78t-70 -85.5h-105l254 311q-68 -35 -155 -35q-132 0 -213.5 79.5t-81.5 195.5q0 119 87 203.5t232 84.5zM397 1110q100 0 160.5 56t60.5 145
q0 86 -59 145.5t-162 59.5q-102 0 -161.5 -59.5t-59.5 -145.5q0 -87 58 -144t163 -57z" />
    <glyph glyph-name="zero.dnom" horiz-adv-x="878" 
d="M438 -23q-163 0 -261.5 111t-98.5 322q0 210 98.5 320t261.5 110q164 0 263.5 -110t99.5 -320q0 -211 -99.5 -322t-263.5 -111zM438 70q122 0 192 84t70 256q0 171 -70 255.5t-192 84.5t-192 -84.5t-70 -255.5q0 -172 70 -256t192 -84z" />
    <glyph glyph-name="one.dnom" horiz-adv-x="522" 
d="M395 817h49v-817h-98v711l-268 -101v92z" />
    <glyph glyph-name="two.dnom" horiz-adv-x="841" 
d="M225 84h539v-84h-686v72l297 221q153 113 204.5 170t51.5 127q0 74 -54.5 122t-146.5 48q-206 0 -235 -211h-101q17 138 107 214.5t231 76.5q138 0 217.5 -73.5t79.5 -176.5q0 -49 -16.5 -91t-56 -85t-85 -80t-122.5 -92z" />
    <glyph glyph-name="three.dnom" horiz-adv-x="833" 
d="M616 440q63 -24 101.5 -80t38.5 -133q0 -106 -84.5 -178t-233.5 -72q-138 0 -238 69.5t-122 199.5h98q21 -91 90.5 -140t167.5 -49q103 0 163 47.5t60 126.5q0 74 -42.5 115t-110.5 41h-174v74h119q73 0 125.5 34.5t52.5 102.5q0 74 -55.5 118t-145.5 44q-89 0 -152 -47
t-77 -142h-99q17 129 107.5 199t222.5 70q136 0 216.5 -68.5t80.5 -171.5q0 -106 -109 -160z" />
    <glyph glyph-name="four.dnom" horiz-adv-x="864" 
d="M786 268v-84h-151v-184h-98v184h-459v84l428 549h129v-549h151zM172 268h365v473z" />
    <glyph glyph-name="five.dnom" horiz-adv-x="817" 
d="M442 543q123 0 210 -75t87 -202q0 -125 -84.5 -207t-228.5 -82q-131 0 -227.5 69.5t-120.5 197.5h98q20 -89 87 -138t159 -49q100 0 160.5 58.5t60.5 146.5t-58 148.5t-157 60.5q-132 0 -221 -111h-92l96 457h487v-82h-422l-59 -278q90 86 225 86z" />
    <glyph glyph-name="six.dnom" horiz-adv-x="794" 
d="M422 541q132 0 213.5 -80.5t81.5 -196.5q0 -120 -87 -203.5t-233 -83.5t-232.5 86.5t-86.5 208.5q0 25 3.5 48.5t14 50.5t19.5 47.5t30.5 53t36 53.5t47.5 62.5t53 66t64 78t70 85.5h104l-254 -311q68 35 156 35zM397 61q102 0 161.5 58.5t59.5 146.5q0 86 -58.5 143.5
t-162.5 57.5q-100 0 -160.5 -56t-60.5 -145q0 -86 59 -145.5t162 -59.5z" />
    <glyph glyph-name="seven.dnom" horiz-adv-x="735" 
d="M78 817h579v-72l-366 -745h-98l364 733h-479v84z" />
    <glyph glyph-name="eight.dnom" horiz-adv-x="821" 
d="M580 430q68 -20 115.5 -76t47.5 -135q0 -108 -87 -175t-246 -67q-158 0 -245 67t-87 175q0 79 48 135t116 76q-133 57 -133 182q0 101 83 164.5t218 63.5q136 0 219.5 -63t83.5 -165q0 -125 -133 -182zM410 760q-90 0 -146.5 -42t-56.5 -114q0 -68 54.5 -107.5
t148.5 -39.5q95 0 149.5 39.5t54.5 107.5q0 72 -56.5 114t-147.5 42zM410 57q110 0 171.5 44.5t61.5 121.5t-58.5 118.5t-174.5 41.5q-115 0 -174.5 -42t-59.5 -118q0 -77 62 -121.5t172 -44.5z" />
    <glyph glyph-name="nine.dnom" horiz-adv-x="794" 
d="M397 840q146 0 233 -86.5t87 -208.5q0 -25 -3.5 -48.5t-14 -50.5t-19.5 -47.5t-30.5 -53t-36 -53.5t-47.5 -62.5t-53 -66t-64 -78t-70 -85.5h-105l254 311q-68 -35 -155 -35q-132 0 -213.5 79.5t-81.5 195.5q0 121 87 205t232 84zM397 350q100 0 160.5 56t60.5 145
q0 87 -59 147t-162 60q-102 0 -161.5 -60t-59.5 -147t58 -144t163 -57z" />
    <glyph glyph-name="zero.numr" horiz-adv-x="878" 
d="M438 594q-163 0 -261.5 110t-98.5 320q0 211 98.5 321.5t261.5 110.5q165 0 264 -110.5t99 -321.5q0 -210 -99.5 -320t-263.5 -110zM438 684q122 0 192 84.5t70 255.5q0 172 -70 256t-192 84t-192 -84t-70 -256q0 -171 70 -255.5t192 -84.5z" />
    <glyph glyph-name="one.numr" horiz-adv-x="522" 
d="M395 1434h49v-818h-98v709l-268 -100v94z" />
    <glyph glyph-name="two.numr" horiz-adv-x="841" 
d="M225 700h539v-84h-686v72l297 221q153 113 204.5 170t51.5 127q0 74 -54.5 122t-146.5 48q-99 0 -159.5 -53t-75.5 -158h-101q17 138 107 214.5t231 76.5q138 0 217.5 -74t79.5 -178q0 -93 -63.5 -166t-216.5 -180z" />
    <glyph glyph-name="three.numr" horiz-adv-x="833" 
d="M616 1057q63 -24 101.5 -80t38.5 -133q0 -106 -84.5 -178t-233.5 -72q-139 0 -238.5 69t-121.5 199h98q21 -91 90.5 -139.5t167.5 -48.5q103 0 163 47.5t60 126.5q0 74 -42.5 115t-110.5 41h-174v73h119q73 0 125.5 34.5t52.5 102.5q0 74 -55.5 118t-145.5 44
q-89 0 -152 -46.5t-77 -141.5h-99q17 129 107.5 198.5t222.5 69.5q136 0 216.5 -69t80.5 -173q0 -102 -109 -157z" />
    <glyph glyph-name="four.numr" horiz-adv-x="864" 
d="M786 885v-84h-151v-185h-98v185h-459v84l428 549h129v-549h151zM172 885h365v473z" />
    <glyph glyph-name="five.numr" horiz-adv-x="817" 
d="M442 1159q123 0 210 -75t87 -203q0 -124 -84.5 -205.5t-228.5 -81.5q-132 0 -228 68.5t-120 197.5h98q20 -88 87 -137t159 -49q100 0 160.5 58.5t60.5 146.5q0 87 -58 146.5t-157 59.5q-130 0 -221 -108h-92l96 457h487v-82h-422l-59 -279q93 86 225 86z" />
    <glyph glyph-name="six.numr" horiz-adv-x="794" 
d="M422 1157q132 0 213.5 -80t81.5 -196q0 -120 -87 -203.5t-233 -83.5t-232.5 86.5t-86.5 208.5q0 25 3.5 48.5t14 50.5t19.5 47.5t30.5 53t36 53.5t47.5 62.5t53 66t64 78t70 85.5h104l-254 -312q68 35 156 35zM397 676q102 0 161.5 59t59.5 146t-58 144.5t-163 57.5
q-100 0 -160.5 -55.5t-60.5 -144.5q0 -87 59 -147t162 -60z" />
    <glyph glyph-name="seven.numr" horiz-adv-x="735" 
d="M78 1434h579v-74l-366 -744h-98l364 734h-479v84z" />
    <glyph glyph-name="eight.numr" horiz-adv-x="821" 
d="M580 1047q68 -20 115.5 -76t47.5 -135q0 -108 -87 -175t-246 -67q-158 0 -245 67t-87 175q0 79 48 135t116 76q-133 57 -133 182q0 100 83.5 163.5t217.5 63.5q136 0 219.5 -63.5t83.5 -163.5q0 -125 -133 -182zM410 1376q-89 0 -146 -42t-57 -113q0 -68 55 -108t148 -40
q95 0 149.5 40t54.5 108q0 71 -56.5 113t-147.5 42zM410 674q110 0 171.5 44.5t61.5 121.5q0 75 -58.5 117t-174.5 42q-115 0 -174.5 -42t-59.5 -117q0 -77 62 -121.5t172 -44.5z" />
    <glyph glyph-name="nine.numr" horiz-adv-x="794" 
d="M397 1456q146 0 233 -86.5t87 -208.5q0 -25 -3.5 -48.5t-14 -50.5t-19.5 -47.5t-30.5 -53t-36 -53.5t-47.5 -62.5t-53 -66t-64 -78t-70 -85.5h-105l254 312q-68 -35 -155 -35q-132 0 -213.5 79t-81.5 195q0 119 87 204t232 85zM397 967q100 0 160.5 55.5t60.5 144.5
q0 86 -59 145.5t-162 59.5q-102 0 -161.5 -59.5t-59.5 -145.5q0 -87 58 -143.5t163 -56.5z" />
    <glyph glyph-name="uni0308.case" 
d="M-741 1862q35 0 59.5 -23.5t24.5 -58.5q0 -34 -24.5 -57t-59.5 -23q-34 0 -58 23t-24 57q0 35 24 58.5t58 23.5zM-276 1862q35 0 59 -23.5t24 -58.5q0 -34 -24 -57t-59 -23t-59.5 23t-24.5 57q0 35 24.5 58.5t59.5 23.5z" />
    <glyph glyph-name="uni0307.case" 
d="M-276 1862q35 0 59 -23.5t24 -58.5q0 -34 -24 -57t-59 -23q-34 0 -58 23t-24 57q0 35 24 58.5t58 23.5z" />
    <glyph glyph-name="gravecomb.case" 
d="M-532 1976l339 -342l-59 -57l-350 328z" />
    <glyph glyph-name="acutecomb.case" 
d="M-262 1976l69 -71l-352 -328l-57 57z" />
    <glyph glyph-name="uni030B.case" 
d="M-487 1993l75 -39l-223 -377l-63 33zM-268 1993l75 -39l-223 -377l-63 33z" />
    <glyph glyph-name="uni0302.case" 
d="M-193 1642l-65 -65l-274 278l-275 -278l-65 65l340 340z" />
    <glyph glyph-name="uni030C.case" 
d="M-193 1919l-339 -340l-340 340l65 66l275 -279l274 279z" />
    <glyph glyph-name="uni0306.case" 
d="M-190 1937v-26q0 -135 -92.5 -219t-229.5 -84q-138 0 -230 84t-92 219v26h95v-22q0 -99 62 -158t165 -59t165 59t62 158v22h95z" />
    <glyph glyph-name="uni030A.case" 
d="M-432 2054q101 0 170.5 -68.5t68.5 -168.5q1 -100 -69 -170t-170 -70q-98 0 -168 70t-70 170t69 168.5t169 68.5zM-432 1978q-67 0 -114 -47t-46 -116q0 -68 47 -116t113 -48q67 0 114.5 48t47.5 116q0 70 -46.5 116.5t-115.5 46.5z" />
    <glyph glyph-name="tildecomb.case" 
d="M-272 1894h79q0 -276 -178 -276q-47 0 -84.5 22.5t-99.5 83.5q-7 7 -25.5 25t-25.5 25t-22 19t-25 16.5t-24.5 9t-29.5 4.5q-57 0 -77.5 -47.5t-20.5 -139.5h-80q0 277 176 277q48 0 85 -23t102 -86q6 -6 22 -21.5t22 -21t19 -17t21 -16t19.5 -10.5t23 -8t24.5 -2
q56 0 77.5 48t21.5 138z" />
    <glyph glyph-name="uni0304.case" 
d="M-193 1831v-86h-514v86h514z" />
    <glyph glyph-name="uni0327.case" 
d="M-414 -172q39 -3 75.5 -14t70.5 -31t54.5 -55t20.5 -80q0 -88 -72.5 -135.5t-191.5 -47.5q-73 0 -123 11v69q45 -10 113 -10q83 0 132.5 29t49.5 86q0 121 -229 127l96 223h82z" />
    <glyph glyph-name="uni0328.case" 
d="M-193 -524q-50 -11 -112 -11q-99 0 -159 47.5t-60 135.5q0 34 13 69t29.5 62.5t55.5 70t66 69t86 81.5h81q-135 -135 -187 -206.5t-52 -135.5q0 -60 37 -89.5t104 -29.5q53 0 98 10v-73z" />
    <glyph glyph-name="newGlyph" horiz-adv-x="1228" 
 />
    <glyph glyph-name="Bitcoinsymbol" horiz-adv-x="1339" 
d="M1243 391q0 -154 -82 -253t-246 -128v-266h-100v256h-33h-309v-256h-100v256h-180v1434h180v254h100v-254h293q33 0 49 -2v256h100v-269q285 -55 285 -346q0 -245 -219 -319q130 -35 196 -129t66 -234zM1090 1063q0 130 -76.5 198t-257.5 68h-453v-538h442
q188 0 266.5 69.5t78.5 202.5zM780 104q189 0 272 76.5t83 216.5q0 293 -359 293h-473v-586h477z" />
    </font>
</defs>
</svg>
