<svg xmlns="http://www.w3.org/2000/svg" viewBox="0 0 6.61 8.03"><title>agreement</title><path d="M4.62,5.39H2.7a.38.38,0,0,1,0-.75H4.62a.38.38,0,1,1,0,.75Z" fill="#333"/><path d="M4.08,4.15H2.7a.38.38,0,0,1-.37-.38A.37.37,0,0,1,2.7,3.4H4.08a.36.36,0,0,1,.37.37A.37.37,0,0,1,4.08,4.15Z" fill="#333"/><path d="M3,2.16H2.7a.38.38,0,0,1,0-.75H3a.38.38,0,1,1,0,.75Z" fill="#333"/><path d="M4.62,2.16H4.3a.38.38,0,1,1,0-.75h.32a.38.38,0,1,1,0,.75Z" fill="#333"/><path d="M6.24,6.79H1.58a.37.37,0,0,1-.38-.37v-6A.38.38,0,0,1,1.58,0H6.24a.38.38,0,0,1,.37.38v6A.37.37,0,0,1,6.24,6.79ZM2,6H5.86V.75H2Z" fill="#333"/><path d="M5,8H.38A.37.37,0,0,1,0,7.66v-6a.38.38,0,0,1,.75,0V7.28H5a.38.38,0,0,1,.38.38A.37.37,0,0,1,5,8Z" fill="#333"/></svg>