<svg xmlns="http://www.w3.org/2000/svg" viewBox="0 0 7.64 7.64"><title>airplane</title><path d="M7.61,6.84a.24.24,0,0,1,0,.12.38.38,0,0,1-.12.28l-.28.27A.34.34,0,0,1,7,7.63H7a.41.41,0,0,1-.28-.15L4.49,4.68c-.26.23-.51.43-.73.6s-.45.32-.65.45l.16,1.34v0a.35.35,0,0,1-.1.26L3,7.53a.39.39,0,0,1-.28.11h0a.37.37,0,0,1-.28-.15l-1-1.3L.15,5.2A.43.43,0,0,1,0,4.91v0a.4.4,0,0,1,.11-.27l.14-.14a.31.31,0,0,1,.27-.11h0l1.34.16c.13-.2.27-.42.45-.65s.37-.47.6-.72L.17,1A.35.35,0,0,1,0,.69v0A.45.45,0,0,1,.13.39L.4.12A.45.45,0,0,1,.67,0H.74L.8,0l3.85,1.4L5.37.72A2.41,2.41,0,0,1,6.14.19,2,2,0,0,1,6.94,0a.68.68,0,0,1,.52.18A.42.42,0,0,1,7.6.4a1.36,1.36,0,0,1,0,.3,2.15,2.15,0,0,1-.19.8,2.22,2.22,0,0,1-.53.76L6.2,3Z" fill="#333"/></svg>