<svg xmlns="http://www.w3.org/2000/svg" viewBox="0 0 10.16 17.31"><title>arrow2</title><line x1="1.5" y1="1.5" x2="8.66" y2="8.66" fill="#fff"/><path d="M8.66,10.16A1.49,1.49,0,0,1,7.6,9.72L.44,2.56A1.5,1.5,0,0,1,2.56.44L9.72,7.6a1.51,1.51,0,0,1,0,2.12A1.53,1.53,0,0,1,8.66,10.16Z"/><line x1="8.66" y1="8.66" x2="1.5" y2="15.81" fill="#fff"/><path d="M1.5,17.31a1.47,1.47,0,0,1-1.06-.44,1.49,1.49,0,0,1,0-2.12L7.6,7.6a1.49,1.49,0,0,1,2.12,0,1.51,1.51,0,0,1,0,2.12L2.56,16.87A1.47,1.47,0,0,1,1.5,17.31Z"/></svg>