<?xml version="1.0" encoding="utf-8"?>
<!-- Generator: Adobe Illustrator 22.1.0, SVG Export Plug-In . SVG Version: 6.00 Build 0)  -->
<svg version="1.1" id="Layer_1" xmlns="http://www.w3.org/2000/svg" xmlns:xlink="http://www.w3.org/1999/xlink" x="0px" y="0px"
	 viewBox="0 0 7.4 7.3" style="enable-background:new 0 0 7.4 7.3;" xml:space="preserve">
<style type="text/css">
	.st0{fill:#333333;}
</style>
<g>
	<g>
		<path class="st0" d="M3.9,7.2c-0.1,0.1-0.3,0.1-0.4,0L0.1,3.8C0,3.7,0,3.6,0.1,3.5l0.2-0.2c0.1-0.1,0.2-0.1,0.3,0l2.9,2.9
			c0.1,0.1,0.3,0.1,0.4,0l2.9-2.9c0.1-0.1,0.2-0.1,0.3,0l0.2,0.2c0.1,0.1,0.1,0.2,0,0.3L3.9,7.2z"/>
	</g>
	<g>
		<path class="st0" d="M4.1,6.4c0,0.1-0.1,0.2-0.2,0.2H3.5c-0.1,0-0.2-0.1-0.2-0.2V0.2C3.3,0.1,3.4,0,3.5,0h0.4C4,0,4.1,0.1,4.1,0.2
			V6.4z"/>
	</g>
</g>
</svg>
