<svg width="15" height="12" viewBox="0 0 15 12" fill="none" xmlns="http://www.w3.org/2000/svg">
<path fill-rule="evenodd" clip-rule="evenodd" d="M6.71061 11.6735C6.32157 12.1053 5.68713 12.1093 5.29354 11.6825L4.2408e-07 5.94215L5.18685 0.317479C5.58043 -0.109327 6.21488 -0.105287 6.60392 0.326504C6.99296 0.758295 6.98927 1.45433 6.59569 1.88113L2.85078 5.94215L6.70239 10.1189C7.09597 10.5457 7.09965 11.2417 6.71061 11.6735Z" fill="black"/>
<path fill-rule="evenodd" clip-rule="evenodd" d="M14.5715 6C14.5715 6.55228 14.0918 7 13.5001 7L3.07151 7C2.47977 7 2.00008 6.55228 2.00008 6C2.00008 5.44772 2.47977 5 3.07151 5L13.5001 5C14.0918 5 14.5715 5.44772 14.5715 6Z" fill="black"/>
</svg>
