<svg xmlns="http://www.w3.org/2000/svg" viewBox="0 0 29.1 18.1"><title>bike</title><path d="M5.39,18.1a5.39,5.39,0,1,1,5.38-5.38A5.39,5.39,0,0,1,5.39,18.1Zm0-9.77a4.39,4.39,0,1,0,4.38,4.39A4.4,4.4,0,0,0,5.39,8.33Z"/><path d="M23.71,18.1a5.39,5.39,0,1,1,5.39-5.38A5.39,5.39,0,0,1,23.71,18.1Zm0-9.77a4.39,4.39,0,1,0,4.39,4.39A4.4,4.4,0,0,0,23.71,8.33Z"/><path d="M13.33,13.22H5.39A.51.51,0,0,1,5,12.44L9.7,5.35,7.9,1.08A.52.52,0,0,1,8.17.42a.49.49,0,0,1,.65.27l1.76,4.2H20.66a.51.51,0,0,1,.46.3.53.53,0,0,1-.11.55l-7.33,7.33A.5.5,0,0,1,13.33,13.22Zm-7-1h6.25L10.16,6.46ZM11,5.89l2.5,6,5.95-5.95Z"/><path d="M23.71,13.22a.45.45,0,0,1-.16,0l-1.16-.39a.49.49,0,0,1-.32-.35L19.21,1.85a.48.48,0,0,1,.1-.46.53.53,0,0,1,.44-.17l3.85.45a1.74,1.74,0,0,1,1.47,2,1.72,1.72,0,0,1-1.95,1.46.49.49,0,0,1-.42-.56.52.52,0,0,1,.56-.43.71.71,0,0,0,.82-.61.73.73,0,0,0-.61-.82L20.36,2.3,23,11.94l.9.3a.5.5,0,0,1-.16,1Z"/><path d="M10.88,2.22l-.15,0L7.06,1A.5.5,0,0,1,6.74.34.5.5,0,0,1,7.38,0L11,1.25a.5.5,0,0,1-.16,1Z"/></svg>