<?xml version="1.0" encoding="utf-8"?>
<!-- Generator: Adobe Illustrator 22.1.0, SVG Export Plug-In . SVG Version: 6.00 Build 0)  -->
<svg version="1.1" id="Outline_Old_Icons" xmlns="http://www.w3.org/2000/svg" xmlns:xlink="http://www.w3.org/1999/xlink" x="0px"
	 y="0px" viewBox="0 0 29.1 18.1" style="enable-background:new 0 0 29.1 18.1;" xml:space="preserve">
<g>
	<g>
		<path d="M5.4,18.1c-3,0-5.4-2.4-5.4-5.4c0-3,2.4-5.4,5.4-5.4s5.4,2.4,5.4,5.4C10.8,15.7,8.4,18.1,5.4,18.1z M5.4,8.3
			C3,8.3,1,10.3,1,12.7s2,4.4,4.4,4.4s4.4-2,4.4-4.4S7.8,8.3,5.4,8.3z"/>
	</g>
	<g>
		<path d="M23.7,18.1c-3,0-5.4-2.4-5.4-5.4c0-3,2.4-5.4,5.4-5.4c3,0,5.4,2.4,5.4,5.4C29.1,15.7,26.7,18.1,23.7,18.1z M23.7,8.3
			c-2.4,0-4.4,2-4.4,4.4s2,4.4,4.4,4.4c2.4,0,4.4-2,4.4-4.4S26.1,8.3,23.7,8.3z"/>
	</g>
	<g>
		<path d="M13.3,13.2C13.3,13.2,13.3,13.2,13.3,13.2l-7.9,0c-0.2,0-0.4-0.1-0.4-0.3s-0.1-0.4,0-0.5l4.7-7.1L7.9,1.1
			c-0.1-0.3,0-0.5,0.3-0.7c0.3-0.1,0.5,0,0.7,0.3l1.8,4.2h10.1c0.2,0,0.4,0.1,0.5,0.3s0,0.4-0.1,0.5l-7.3,7.3
			C13.6,13.2,13.5,13.2,13.3,13.2z M6.3,12.2h6.3l-2.4-5.8L6.3,12.2z M11,5.9l2.5,6l5.9-6H11z"/>
	</g>
	<g>
		<path d="M23.7,13.2c-0.1,0-0.1,0-0.2,0l-1.2-0.4c-0.2-0.1-0.3-0.2-0.3-0.3L19.2,1.9c0-0.2,0-0.3,0.1-0.5s0.3-0.2,0.4-0.2l3.9,0.4
			c1,0.1,1.6,1,1.5,2c-0.1,0.9-1,1.6-1.9,1.5c-0.3,0-0.5-0.3-0.4-0.6c0-0.3,0.3-0.5,0.6-0.4c0.4,0.1,0.8-0.2,0.8-0.6
			c0.1-0.4-0.2-0.8-0.6-0.8l-3.1-0.4l2.6,9.6l0.9,0.3c0.3,0.1,0.4,0.4,0.3,0.6C24.1,13.1,23.9,13.2,23.7,13.2z"/>
	</g>
	<g>
		<path d="M10.9,2.2c-0.1,0-0.1,0-0.2,0L7.1,1C6.8,0.9,6.7,0.6,6.7,0.3C6.8,0.1,7.1-0.1,7.4,0L11,1.2c0.3,0.1,0.4,0.4,0.3,0.6
			C11.3,2.1,11.1,2.2,10.9,2.2z"/>
	</g>
</g>
</svg>
