<svg xmlns="http://www.w3.org/2000/svg" viewBox="0 0 27.5 27.5"><title>block-cross</title><path d="M15.16,13.75,21.61,7.3A1,1,0,1,0,20.2,5.89l-6.45,6.45L7.3,5.89A1,1,0,0,0,5.89,7.3l6.45,6.45L5.89,20.2a1,1,0,0,0,0,1.41,1,1,0,0,0,1.41,0l6.45-6.45,6.45,6.45a1,1,0,0,0,1.41,0,1,1,0,0,0,0-1.41Z"/><path d="M22.83,27.5H4.67A4.67,4.67,0,0,1,0,22.83V4.67A4.67,4.67,0,0,1,4.67,0H22.83A4.67,4.67,0,0,1,27.5,4.67V22.83A4.67,4.67,0,0,1,22.83,27.5ZM4.67,2A2.68,2.68,0,0,0,2,4.67V22.83A2.68,2.68,0,0,0,4.67,25.5H22.83a2.68,2.68,0,0,0,2.67-2.67V4.67A2.68,2.68,0,0,0,22.83,2Z"/></svg>