<svg xmlns="http://www.w3.org/2000/svg" viewBox="0 0 10.38 9.13"><title>boxes</title><path d="M8.85,5.71l-1.53,1V7.87a.7.7,0,0,0,.33.6l.8.54a.74.74,0,0,0,.81,0l.8-.54a.72.72,0,0,0,.32-.6V6.73Zm0,2L7.74,7,8.85,6.2,10,7Z"/><path d="M8.47,0,6.62,1.24V2.67A.77.77,0,0,0,7,3.32L8,4a.81.81,0,0,0,.87,0L10,3.32a.77.77,0,0,0,.35-.65V1.24Zm0,2.41-1.35-.9L8.47.6l1.36.91Z"/><path d="M3.2,1.81,0,4V6.76a.73.73,0,0,0,.32.6L2.8,9a.71.71,0,0,0,.79,0L6.08,7.36a.73.73,0,0,0,.32-.6V4ZM3.2,6,.87,4.41,3.2,2.85,5.53,4.41Z"/></svg>