<?xml version="1.0" encoding="utf-8"?>
<!-- Generator: Adobe Illustrator 22.1.0, SVG Export Plug-In . SVG Version: 6.00 Build 0)  -->
<svg version="1.1" id="Layer_1" xmlns="http://www.w3.org/2000/svg" xmlns:xlink="http://www.w3.org/1999/xlink" x="0px" y="0px"
	 viewBox="0 0 20.3 15.5" style="enable-background:new 0 0 20.3 15.5;" xml:space="preserve">
<g>
	<path d="M15.4,13.7H0.2c-0.1,0-0.2,0.1-0.2,0.2v1.4c0,0.1,0.1,0.2,0.2,0.2h15.2c0.1,0,0.2-0.1,0.2-0.2v-1.4
		C15.6,13.8,15.5,13.7,15.4,13.7z"/>
	<path d="M11,6.8H0.2C0.1,6.8,0,6.9,0,7v1.4c0,0.1,0.1,0.2,0.2,0.2H11c0.1,0,0.2-0.1,0.2-0.2V7C11.2,6.9,11.1,6.8,11,6.8z"/>
	<path d="M20.1,0h-20C0.1,0,0,0.1,0,0.2v1.4c0,0.1,0.1,0.2,0.2,0.2h20c0.1,0,0.2-0.1,0.2-0.2V0.2C20.3,0.1,20.2,0,20.1,0z"/>
</g>
</svg>
