<?xml version="1.0" encoding="utf-8"?>
<!-- Generator: Adobe Illustrator 22.1.0, SVG Export Plug-In . SVG Version: 6.00 Build 0)  -->
<svg version="1.1" id="Layer_1" xmlns="http://www.w3.org/2000/svg" xmlns:xlink="http://www.w3.org/1999/xlink" x="0px" y="0px"
	 viewBox="0 0 351 185.1" style="enable-background:new 0 0 351 185.1;" xml:space="preserve">
<style type="text/css">
	.st0{fill:#C61717;}
	.st1{fill:#181C28;}
</style>
<path class="st0" d="M323.9,0H63.6C28.5,0,0,28.5,0,63.6v107.9h59.7c-0.9-2.9-1.8-5.8-1.8-9c0-16.9,13.7-30.5,30.5-30.5
	c16.9,0,30.5,13.7,30.5,30.5c0,3.2-0.9,6.1-1.8,9h137.1c-0.9-2.9-1.8-5.8-1.8-9c0-16.9,13.7-30.5,30.5-30.5
	c16.9,0,30.5,13.7,30.5,30.5c0,3.2-0.9,6.1-1.8,9H351V27.1C351,12.1,338.9,0,323.9,0z M82.5,110.5H33.3V78.5h49.2V110.5z M82.5,61.2
	H33.3V29.3h49.2V61.2z M146.4,110.5H97.2V78.5h49.2V110.5z M146.4,61.2H97.2V29.3h49.2V61.2z M210.3,110.5h-49.2V78.5h49.2V110.5z
	 M210.3,61.2h-49.2V29.3h49.2V61.2z M274.2,110.5H225V78.5h49.2V110.5z M274.2,61.2H225V29.3h49.2V61.2z M338.1,110.5h-49.2V78.5
	h49.2V110.5z M338.1,61.2h-49.2V29.3h49.2V61.2z"/>
<circle class="st1" cx="88.6" cy="164.1" r="20.9"/>
<circle class="st1" cx="283.5" cy="164.1" r="20.9"/>
</svg>
