<svg xmlns="http://www.w3.org/2000/svg" viewBox="0 0 10.54 5.56"><title>bus</title><path d="M9.73,0H1.91A1.9,1.9,0,0,0,0,1.91V5.15H1.79a1.17,1.17,0,0,1-.05-.27.92.92,0,1,1,1.83,0,.81.81,0,0,1,0,.27H7.64a.82.82,0,0,1-.06-.27.92.92,0,0,1,1.84,0,.82.82,0,0,1-.06.27h1.18V.81A.81.81,0,0,0,9.73,0ZM2.48,3.32H1v-1H2.48Zm0-1.48H1v-1H2.48ZM4.4,3.32H2.92v-1H4.4Zm0-1.48H2.92v-1H4.4ZM6.32,3.32H4.84v-1H6.32Zm0-1.48H4.84v-1H6.32ZM8.24,3.32H6.76v-1H8.24Zm0-1.48H6.76v-1H8.24Zm1.91,1.48H8.68v-1h1.47Zm0-1.48H8.68v-1h1.47Z" fill="#c61717"/><circle cx="2.66" cy="4.93" r="0.63" fill="#181c28"/><circle cx="8.52" cy="4.93" r="0.63" fill="#181c28"/></svg>