<svg xmlns="http://www.w3.org/2000/svg" viewBox="0 0 18.42 16.21"><title>calendar</title><path d="M16.82,1.6v13H1.6V1.6H16.82M18.42,0H0V16.21H18.42V0Z"/><rect y="3.64" width="18.42" height="1.6"/><path d="M4,8.39H3.21a.8.8,0,0,1,0-1.6H4a.8.8,0,0,1,0,1.6Z"/><path d="M7.78,8.39H7a.8.8,0,0,1,0-1.6h.79a.8.8,0,0,1,0,1.6Z"/><path d="M11.56,8.39h-.8a.8.8,0,0,1,0-1.6h.8a.8.8,0,0,1,0,1.6Z"/><path d="M15.33,8.39h-.79a.8.8,0,0,1,0-1.6h.79a.8.8,0,0,1,0,1.6Z"/><path d="M4,11.41H3.21a.8.8,0,0,1,0-1.6H4a.8.8,0,0,1,0,1.6Z"/><path d="M7.78,11.41H7a.8.8,0,1,1,0-1.6h.79a.8.8,0,1,1,0,1.6Z"/><path d="M11.56,11.41h-.8a.8.8,0,0,1,0-1.6h.8a.8.8,0,0,1,0,1.6Z"/><path d="M15.33,11.41h-.79a.8.8,0,0,1,0-1.6h.79a.8.8,0,1,1,0,1.6Z"/></svg>