<svg xmlns="http://www.w3.org/2000/svg" viewBox="0 0 7.5 7.5"><title>calendar2</title><path d="M6.94.9a.53.53,0,0,1,.39.16.5.5,0,0,1,.17.39V6.94a.58.58,0,0,1-.56.56H.56a.5.5,0,0,1-.39-.17A.54.54,0,0,1,0,6.94V1.45a.54.54,0,0,1,.17-.39A.53.53,0,0,1,.56.9H.75V.83a.92.92,0,0,1,0-.29A.72.72,0,0,1,1,.27a.84.84,0,0,1,.28-.2A1.4,1.4,0,0,1,1.67,0,1.38,1.38,0,0,1,2.1.07a.84.84,0,0,1,.28.2.67.67,0,0,1,.16.27,1,1,0,0,1,0,.29V.9h.23V.83A.93.93,0,0,1,2.87.54.61.61,0,0,1,3,.27a.75.75,0,0,1,.28-.2A1.33,1.33,0,0,1,3.74,0a1.29,1.29,0,0,1,.43.07.79.79,0,0,1,.29.2.69.69,0,0,1,.17.27,1,1,0,0,1,0,.29V.9h.23V.83A.93.93,0,0,1,5,.54.72.72,0,0,1,5.12.27.84.84,0,0,1,5.4.07,1.35,1.35,0,0,1,5.84,0a1.38,1.38,0,0,1,.43.07.84.84,0,0,1,.28.2.81.81,0,0,1,.16.27,1,1,0,0,1,0,.29V.9ZM2.11,2.77H.76V4H2.11Zm0,1.39H.76V5.37H2.11Zm0,1.39H.76v1.2H2.11ZM1.3,1.93c0,.18.12.27.37.27S2,2.11,2,1.93V.83Q2,.56,1.67.56c-.25,0-.37.09-.37.27Zm2.36.84H2.29V4H3.66Zm0,1.39H2.29V5.37H3.66Zm0,1.39H2.29v1.2H3.66ZM3.39,1.93a.25.25,0,0,0,.08.2.38.38,0,0,0,.27.07A.41.41,0,0,0,4,2.13a.23.23,0,0,0,.09-.2V.83A.23.23,0,0,0,4,.63.41.41,0,0,0,3.74.56a.38.38,0,0,0-.27.07.26.26,0,0,0-.08.2v1.1Zm1.81.84H3.84V4H5.2Zm0,1.39H3.84V5.37H5.2Zm0,1.39H3.84v1.2H5.2ZM6.75,2.77H5.39V4H6.75Zm0,1.39H5.39V5.37H6.75Zm0,1.39H5.39v1.2H6.75ZM5.47,1.93c0,.18.12.27.37.27s.36-.09.35-.27V.83c0-.18-.12-.27-.35-.27s-.37.09-.37.27Z" fill="#333"/></svg>