<svg version="1.1" id="Layer_1" xmlns="http://www.w3.org/2000/svg" xmlns:xlink="http://www.w3.org/1999/xlink" x="0px" y="0px"
	 viewBox="0 0 18.4 16.2" style="enable-background:new 0 0 18.4 16.2;" xml:space="preserve">
<style type="text/css">
	.st0{fill:#010101;}
</style>
<g>
	<path class="st0" d="M0,0v3.6h0v1.6h0v11h18.4v-11V3.6V0H0z M16.8,14.6H1.6V5.2h15.2V14.6z M1.6,3.6v-2h15.2v2H1.6z"/>
	<path class="st0" d="M3.2,8.4H4c0.4,0,0.8-0.4,0.8-0.8S4.4,6.8,4,6.8H3.2c-0.4,0-0.8,0.4-0.8,0.8S2.8,8.4,3.2,8.4z"/>
	<path class="st0" d="M7,8.4h0.8c0.4,0,0.8-0.4,0.8-0.8S8.2,6.8,7.8,6.8H7c-0.4,0-0.8,0.4-0.8,0.8S6.5,8.4,7,8.4z"/>
	<path class="st0" d="M10.8,8.4h0.8c0.4,0,0.8-0.4,0.8-0.8S12,6.8,11.6,6.8h-0.8c-0.4,0-0.8,0.4-0.8,0.8S10.3,8.4,10.8,8.4z"/>
	<path class="st0" d="M14.5,8.4h0.8c0.4,0,0.8-0.4,0.8-0.8s-0.4-0.8-0.8-0.8h-0.8c-0.4,0-0.8,0.4-0.8,0.8S14.1,8.4,14.5,8.4z"/>
	<path class="st0" d="M4,9.8H3.2c-0.4,0-0.8,0.4-0.8,0.8s0.4,0.8,0.8,0.8H4c0.4,0,0.8-0.4,0.8-0.8S4.4,9.8,4,9.8z"/>
	<path class="st0" d="M7,11.4h0.8c0.4,0,0.8-0.4,0.8-0.8S8.2,9.8,7.8,9.8H7c-0.4,0-0.8,0.4-0.8,0.8S6.5,11.4,7,11.4z"/>
	<path class="st0" d="M10.8,11.4h0.8c0.4,0,0.8-0.4,0.8-0.8S12,9.8,11.6,9.8h-0.8c-0.4,0-0.8,0.4-0.8,0.8S10.3,11.4,10.8,11.4z"/>
	<path class="st0" d="M14.5,11.4h0.8c0.4,0,0.8-0.4,0.8-0.8s-0.4-0.8-0.8-0.8h-0.8c-0.4,0-0.8,0.4-0.8,0.8S14.1,11.4,14.5,11.4z"/>
</g>
</svg>
