<svg xmlns="http://www.w3.org/2000/svg" viewBox="0 0 26 26"><title>call</title><path d="M17.14,21.46a3.16,3.16,0,0,1-1.77-.53A33.05,33.05,0,0,1,5.16,10.72a3.38,3.38,0,0,1,.56-4.27l.9-1a2.65,2.65,0,0,1,3.75-.14l1.56,1.57a2.62,2.62,0,0,1,0,3.62l-.1.15a30.19,30.19,0,0,0,3.63,3.61,2.62,2.62,0,0,1,3.68-.08l1.57,1.57a2.63,2.63,0,0,1-.11,3.71l-.94.93A3.51,3.51,0,0,1,17.14,21.46ZM8.62,6.59a.81.81,0,0,0-.55.23l-.9,1a1.42,1.42,0,0,0-.33,1.8,31,31,0,0,0,9.62,9.62A1.4,1.4,0,0,0,18.24,19l.94-.94a.66.66,0,0,0,.1-.88l-1.56-1.57c-.34-.33-.88.11-.94.16l-.57.58a1,1,0,0,1-1.34.06,31.7,31.7,0,0,1-5.06-5.07,1,1,0,0,1-.06-1.14l.52-.83.14-.18a.65.65,0,0,0,.11-.88L9,6.72A.46.46,0,0,0,8.62,6.59Z" fill="#0085ff"/><path d="M13,26A12.86,12.86,0,0,1,0,13,12.86,12.86,0,0,1,13,0,12.86,12.86,0,0,1,26,13a12.63,12.63,0,0,1-2.28,7.37,1,1,0,0,1-1.39.22,1,1,0,0,1-.23-1.39A10.62,10.62,0,0,0,24,13,10.88,10.88,0,0,0,13,2,10.88,10.88,0,0,0,2,13,10.88,10.88,0,0,0,13,24c2.74,0,4.56-.66,5.29-1.9a2.69,2.69,0,0,0,.2-2.2A1,1,0,0,1,20,18.55a4.22,4.22,0,0,1,.32,4C19.64,24.13,17.85,26,13,26Zm5.55-6Z" fill="#0085ff"/></svg>