<?xml version="1.0" encoding="utf-8"?>
<!-- Generator: Adobe Illustrator 22.1.0, SVG Export Plug-In . SVG Version: 6.00 Build 0)  -->
<svg version="1.1" id="Layer_1" xmlns="http://www.w3.org/2000/svg" xmlns:xlink="http://www.w3.org/1999/xlink" x="0px" y="0px"
	 viewBox="0 0 326.7 215.1" style="enable-background:new 0 0 326.7 215.1;" xml:space="preserve">
<g>
	<path d="M245.4,24.7l13.4,34h-74.6h-41.7H67.9l13.4-34h61.2h41.7H245.4 M249.6,0h-65.5h-41.7H77c-7.6,0-14.3,4.6-17.1,11.6
		L31.7,83.3h110.8h41.7H295l-28.3-71.6C264,4.6,257.2,0,249.6,0L249.6,0z"/>
	<g>
		<path d="M66,215.1H20.4c-0.1,0-0.2-0.1-0.2-0.2v-72.1c0-0.1,0.1-0.2,0.2-0.2H66c0.1,0,0.2,0.1,0.2,0.2v72.1
			C66.2,215,66.1,215.1,66,215.1z"/>
		<path d="M306.2,215.1h-45.5c-0.1,0-0.2-0.1-0.2-0.2v-72.1c0-0.1,0.1-0.2,0.2-0.2h45.5c0.1,0,0.2,0.1,0.2,0.2v72.1
			C306.4,215,306.3,215.1,306.2,215.1z"/>
	</g>
	<g>
		<path d="M29.9,76H0.2C0.1,76,0,75.9,0,75.8l0-18.7C0,57,0.1,57,0.2,57h29.7C30,57,30,57,30,57.1l0,18.7C30,75.9,30,76,29.9,76z"/>
		<path d="M326.5,76h-29.7c-0.1,0-0.2-0.1-0.2-0.2V57.1c0-0.1,0.1-0.2,0.2-0.2h29.7c0.1,0,0.2,0.1,0.2,0.2v18.7
			C326.7,75.9,326.6,76,326.5,76z"/>
	</g>
	<path d="M259.4,64H67.2c-29.7,0-54,24.3-54,54v15.3c0,29.7,24.3,54,54,54h192.2c29.7,0,54-24.3,54-54V118
		C313.4,88.3,289.1,64,259.4,64z M67.1,128.2H35.2c-7.1,0-12.9-5.8-12.9-12.9s5.8-12.9,12.9-12.9h31.9c7.1,0,12.9,5.8,12.9,12.9
		S74.2,128.2,67.1,128.2z M222.9,124.6c0,7.1-5.8,12.9-12.9,12.9h-93.3c-7.1,0-12.9-5.8-12.9-12.9v-9.4c0-7.1,5.8-12.9,12.9-12.9
		H210c7.1,0,12.9,5.8,12.9,12.9V124.6z M291.4,128.2h-31.9c-7.1,0-12.9-5.8-12.9-12.9s5.8-12.9,12.9-12.9h31.9
		c7.1,0,12.9,5.8,12.9,12.9S298.5,128.2,291.4,128.2z"/>
</g>
</svg>
