<svg xmlns="http://www.w3.org/2000/svg" viewBox="0 0 6.62 4.36"><title>car</title><path d="M5,.5l.28.69H1.38L1.65.5H5M5.06,0H1.56a.38.38,0,0,0-.35.24L.64,1.69H6L5.41.24A.38.38,0,0,0,5.06,0Z"/><rect x="0.41" y="2.89" width="0.93" height="1.47" rx="0.2" ry="0.2"/><rect x="5.28" y="2.89" width="0.93" height="1.47" rx="0.2" ry="0.2"/><rect y="1.15" width="0.61" height="0.38" rx="0.17" ry="0.17"/><rect x="6.01" y="1.15" width="0.61" height="0.38" rx="0.17" ry="0.17"/><path d="M5.26,1.3H1.36A1.09,1.09,0,0,0,.27,2.39V2.7A1.09,1.09,0,0,0,1.36,3.79h3.9A1.09,1.09,0,0,0,6.35,2.7V2.39A1.09,1.09,0,0,0,5.26,1.3ZM1.36,2.6H.71a.27.27,0,0,1,0-.53h.65a.27.27,0,0,1,0,.53Zm3.16-.07a.26.26,0,0,1-.26.26H2.37a.27.27,0,0,1-.27-.26V2.34a.27.27,0,0,1,.27-.27H4.26a.27.27,0,0,1,.26.27Zm1.39.07H5.26a.27.27,0,0,1,0-.53h.65a.27.27,0,0,1,0,.53Z"/></svg>