<svg width="23" height="15" viewBox="0 0 23 15" fill="none" xmlns="http://www.w3.org/2000/svg">
<path d="M17.2674 1.72018L18.2055 4.09404H12.9593H10.0409H4.79463L5.7327 1.72018H10.0409H12.9593H17.2674ZM17.5801 0H12.9593H10.0409H5.42001C4.89886 0 4.41245 0.309633 4.204 0.825688L2.22363 5.81422H10.0409H12.9593H20.7765L18.7961 0.825688C18.5877 0.309633 18.1013 0 17.5801 0Z" fill="black"/>
<path d="M3.96106 15.0007H2.11967C1.73749 15.0007 1.4248 14.6911 1.4248 14.3126V10.6314C1.4248 10.253 1.73749 9.94336 2.11967 9.94336H3.96106C4.34323 9.94336 4.65592 10.253 4.65592 10.6314V14.3126C4.65592 14.6911 4.34323 15.0007 3.96106 15.0007Z" fill="black"/>
<path d="M20.8815 15.0007H19.0401C18.6579 15.0007 18.3452 14.6911 18.3452 14.3126V10.6314C18.3452 10.253 18.6579 9.94336 19.0401 9.94336H20.8815C21.2636 9.94336 21.5763 10.253 21.5763 10.6314V14.3126C21.5763 14.6911 21.2636 15.0007 20.8815 15.0007Z" fill="black"/>
<path d="M1.5287 5.29877H0.590634C0.277946 5.29877 0 5.02355 0 4.71391V4.54189C0 4.23226 0.277946 3.95703 0.590634 3.95703H1.5287C1.84139 3.95703 2.11934 4.23226 2.11934 4.54189V4.71391C2.11934 5.02355 1.84139 5.29877 1.5287 5.29877Z" fill="black"/>
<path d="M22.4091 5.29877H21.471C21.1583 5.29877 20.8804 5.02355 20.8804 4.71391V4.54189C20.8804 4.23226 21.1583 3.95703 21.471 3.95703H22.4091C22.7218 3.95703 22.9997 4.23226 22.9997 4.54189V4.71391C22.9997 5.02355 22.7565 5.29877 22.4091 5.29877Z" fill="black"/>
<path d="M18.2748 4.47266H4.725C2.64041 4.47266 0.937988 6.15844 0.937988 8.22266V9.28917C0.937988 11.3534 2.64041 13.0392 4.725 13.0392H18.2748C20.3594 13.0392 22.0619 11.3534 22.0619 9.28917V8.22266C22.0619 6.15844 20.3594 4.47266 18.2748 4.47266ZM4.725 8.94513H2.46669C1.98028 8.94513 1.56337 8.53229 1.56337 8.05064C1.56337 7.56899 1.98028 7.15614 2.46669 7.15614H4.725C5.2114 7.15614 5.62832 7.56899 5.62832 8.05064C5.62832 8.53229 5.2114 8.94513 4.725 8.94513ZM15.7038 8.70431C15.7038 9.18596 15.2869 9.5988 14.8005 9.5988H8.23406C7.74766 9.5988 7.33074 9.18596 7.33074 8.70431V8.05064C7.33074 7.56899 7.74766 7.15614 8.23406 7.15614H14.8005C15.2869 7.15614 15.7038 7.56899 15.7038 8.05064V8.70431ZM20.5332 8.94513H18.2748C17.7884 8.94513 17.3715 8.53229 17.3715 8.05064C17.3715 7.56899 17.7884 7.15614 18.2748 7.15614H20.5332C21.0196 7.15614 21.4365 7.56899 21.4365 8.05064C21.4365 8.53229 21.0196 8.94513 20.5332 8.94513Z" fill="black"/>
</svg>
