<svg width="31" height="29" viewBox="0 0 31 29" fill="none" xmlns="http://www.w3.org/2000/svg">
<path d="M5.22303 29C5.07273 29 4.92242 28.9613 4.73455 28.9226C4.20848 28.6903 3.83273 28.1482 3.83273 27.5287V20.0174H1.42788C0.638788 20.0174 0 19.3591 0 18.5461V4.68491C0 2.09079 2.02909 0 4.54667 0H26.4158C28.9333 0 31 2.09079 31 4.68491V15.2937C31 17.8879 28.9709 19.9786 26.4533 19.9786H12.9636L6.31273 28.4579C6.0497 28.8064 5.63636 29 5.22303 29ZM2.81818 17.1135H5.22303C6.01212 17.1135 6.65091 17.7717 6.65091 18.5848V23.4633L11.1976 17.6943C11.4606 17.3458 11.8739 17.1522 12.2873 17.1522H26.4158C27.3927 17.1522 28.1442 16.3391 28.1442 15.3712V4.68491C28.1442 3.67824 27.3552 2.90387 26.4158 2.90387H4.54667C3.5697 2.90387 2.81818 3.71696 2.81818 4.68491V17.1135Z" fill="white"/>
</svg>
