<svg xmlns="http://www.w3.org/2000/svg" viewBox="0 0 7.48 6.79"><title>check-form</title><path d="M5.08,4.15A.4.4,0,0,1,4.79,4L3.43,2.31a.38.38,0,0,1,0-.53A.37.37,0,0,1,4,1.84l1,1.31L6.79.71a.38.38,0,0,1,.62.43L5.39,4a.43.43,0,0,1-.3.16Z" fill="#333"/><path d="M3.42,5.39H1.5a.38.38,0,0,1,0-.75H3.42a.38.38,0,1,1,0,.75Z" fill="#333"/><path d="M2.88,4.15H1.5a.37.37,0,0,1-.37-.38A.36.36,0,0,1,1.5,3.4H2.88a.37.37,0,0,1,.37.37A.38.38,0,0,1,2.88,4.15Z" fill="#333"/><path d="M5,6.79H.38A.37.37,0,0,1,0,6.42v-6A.38.38,0,0,1,.38,0H5a.38.38,0,0,1,.38.38V1.44a.38.38,0,0,1-.75,0V.75H.75V6H4.66v-1a.38.38,0,0,1,.75,0V6.42A.37.37,0,0,1,5,6.79Z" fill="#333"/></svg>