<svg xmlns="http://www.w3.org/2000/svg" viewBox="0 0 15 24"><title>childcare</title><path d="M9.5,19h-4a.52.52,0,0,1-.44-.25.54.54,0,0,1,0-.51l1.25-2.08C2.18,13.54,0,10.73,0,8,0,3.36,3.15,0,7.5,0S15,3.36,15,8c0,2.73-2.18,5.54-6.32,8.16l1.25,2.08a.54.54,0,0,1,0,.51A.52.52,0,0,1,9.5,19ZM6.38,18H8.62l-1-1.74A.47.47,0,0,1,7.5,16a.47.47,0,0,1-.07.25ZM7.5,1C3.67,1,1,3.88,1,8c0,2.42,2.22,5.1,6.26,7.57A.52.52,0,0,1,7.5,16a.52.52,0,0,1,.24-.42C11.78,13.1,14,10.42,14,8,14,3.88,11.33,1,7.5,1Z"/><path d="M11.5,24a.5.5,0,0,1-.5-.5v-2a.5.5,0,0,0-1,0,1.5,1.5,0,0,1-3,0v-3a.5.5,0,0,1,1,0v3a.5.5,0,0,0,1,0,1.5,1.5,0,0,1,3,0v2A.5.5,0,0,1,11.5,24Z"/><path d="M2.5,8A.5.5,0,0,1,2,7.5,5.51,5.51,0,0,1,7.5,2a.5.5,0,0,1,0,1A4.51,4.51,0,0,0,3,7.5.5.5,0,0,1,2.5,8Z"/></svg>