<?xml version="1.0" encoding="utf-8"?>
<!-- Generator: Adobe Illustrator 22.1.0, SVG Export Plug-In . SVG Version: 6.00 Build 0)  -->
<svg version="1.1" id="Outline_Old_Icons" xmlns="http://www.w3.org/2000/svg" xmlns:xlink="http://www.w3.org/1999/xlink" x="0px"
	 y="0px" viewBox="0 0 15 24" style="enable-background:new 0 0 15 24;" xml:space="preserve">
<g>
	<g>
		<path d="M9.5,19h-4c-0.2,0-0.3-0.1-0.4-0.3c-0.1-0.2-0.1-0.3,0-0.5l1.2-2.1C2.2,13.5,0,10.7,0,8c0-4.6,3.2-8,7.5-8S15,3.4,15,8
			c0,2.7-2.2,5.5-6.3,8.2l1.2,2.1c0.1,0.2,0.1,0.3,0,0.5C9.8,18.9,9.7,19,9.5,19z M6.4,18h2.2l-1-1.7c0-0.1-0.1-0.2-0.1-0.2
			c0,0.1,0,0.2-0.1,0.2L6.4,18z M7.5,1C3.7,1,1,3.9,1,8c0,2.4,2.2,5.1,6.3,7.6c0.2,0.1,0.2,0.3,0.2,0.4c0-0.2,0.1-0.3,0.2-0.4
			c4-2.5,6.3-5.2,6.3-7.6C14,3.9,11.3,1,7.5,1z"/>
	</g>
	<g>
		<path d="M11.5,24c-0.3,0-0.5-0.2-0.5-0.5v-2c0-0.3-0.2-0.5-0.5-0.5S10,21.2,10,21.5c0,0.8-0.7,1.5-1.5,1.5S7,22.3,7,21.5v-3
			C7,18.2,7.2,18,7.5,18S8,18.2,8,18.5v3C8,21.8,8.2,22,8.5,22S9,21.8,9,21.5c0-0.8,0.7-1.5,1.5-1.5s1.5,0.7,1.5,1.5v2
			C12,23.8,11.8,24,11.5,24z"/>
	</g>
	<g>
		<path d="M2.5,8C2.2,8,2,7.8,2,7.5C2,4.5,4.5,2,7.5,2C7.8,2,8,2.2,8,2.5S7.8,3,7.5,3C5,3,3,5,3,7.5C3,7.8,2.8,8,2.5,8z"/>
	</g>
</g>
</svg>
