<svg xmlns="http://www.w3.org/2000/svg" viewBox="0 0 24 24"><title>coffe</title><path d="M23.5,24H.5a.5.5,0,0,1-.5-.5v-3A.5.5,0,0,1,.5,20H10V11H3.5a.5.5,0,0,1-.5-.5V.5A.5.5,0,0,1,3.5,0H22a2,2,0,0,1,2,2V23.5A.5.5,0,0,1,23.5,24ZM1,23H23V2a1,1,0,0,0-1-1H4v9h6.5a.5.5,0,0,1,.5.5v10a.5.5,0,0,1-.5.5H1Z"/><path d="M19,23.5H18v-11a.5.5,0,0,1,.5-.5h5v1H19Z"/><path d="M23.5,6h-6a.5.5,0,0,1,0-1h6a.5.5,0,0,1,0,1Z"/><path d="M23.5,8h-6a.5.5,0,0,1,0-1h6a.5.5,0,0,1,0,1Z"/><path d="M23.5,10h-6a.5.5,0,0,1,0-1h6a.5.5,0,0,1,0,1Z"/><path d="M8.5,17h-4a.5.5,0,0,1-.5-.5V14a.5.5,0,0,1,.5-.5h4A.5.5,0,0,1,9,14v2.5A.5.5,0,0,1,8.5,17ZM5,16H8V14.5H5Z"/><path d="M4.5,16H.5a.5.5,0,0,1,0-1h4a.5.5,0,0,1,0,1Z"/><rect x="7" y="10.5" width="1" height="3.5"/><rect x="5" y="10.5" width="1" height="3.5"/><path d="M7,6A2,2,0,1,1,9,4,2,2,0,0,1,7,6ZM7,3A1,1,0,1,0,8,4,1,1,0,0,0,7,3Z"/><path d="M6.5,18a.5.5,0,0,1-.5-.5v-1a.5.5,0,0,1,1,0v1A.5.5,0,0,1,6.5,18Z"/></svg>