<svg xmlns="http://www.w3.org/2000/svg" viewBox="0 0 16 21"><title>display-block</title><path d="M13.5,9H2.5A2.5,2.5,0,0,1,0,6.5v-4A2.5,2.5,0,0,1,2.5,0h11A2.5,2.5,0,0,1,16,2.5v4A2.5,2.5,0,0,1,13.5,9ZM2.5,1A1.5,1.5,0,0,0,1,2.5v4A1.5,1.5,0,0,0,2.5,8h11A1.5,1.5,0,0,0,15,6.5v-4A1.5,1.5,0,0,0,13.5,1Z" fill="#0085ff"/><path d="M13.5,21H2.5A2.5,2.5,0,0,1,0,18.5v-4A2.5,2.5,0,0,1,2.5,12h11A2.5,2.5,0,0,1,16,14.5v4A2.5,2.5,0,0,1,13.5,21Zm-11-8A1.5,1.5,0,0,0,1,14.5v4A1.5,1.5,0,0,0,2.5,20h11A1.5,1.5,0,0,0,15,18.5v-4A1.5,1.5,0,0,0,13.5,13Z" fill="#0085ff"/></svg>