<svg xmlns="http://www.w3.org/2000/svg" viewBox="0 0 19.5 16"><title>display-list</title><path d="M19,1H6.5A.5.5,0,0,1,6,.5.5.5,0,0,1,6.5,0H19a.5.5,0,0,1,.5.5A.5.5,0,0,1,19,1Z" fill="#0085ff"/><path d="M19,6H6.5a.5.5,0,0,1,0-1H19a.5.5,0,0,1,0,1Z" fill="#0085ff"/><path d="M19,11H6.5a.5.5,0,0,1,0-1H19a.5.5,0,0,1,0,1Z" fill="#0085ff"/><path d="M19,16H6.5a.5.5,0,0,1,0-1H19a.5.5,0,0,1,0,1Z" fill="#0085ff"/><path d="M2.5,1H.5A.5.5,0,0,1,0,.5.5.5,0,0,1,.5,0h2A.5.5,0,0,1,3,.5.5.5,0,0,1,2.5,1Z" fill="#0085ff"/><path d="M2.5,6H.5a.5.5,0,0,1,0-1h2a.5.5,0,0,1,0,1Z" fill="#0085ff"/><path d="M2.5,11H.5a.5.5,0,0,1,0-1h2a.5.5,0,0,1,0,1Z" fill="#0085ff"/><path d="M2.5,16H.5a.5.5,0,0,1,0-1h2a.5.5,0,0,1,0,1Z" fill="#0085ff"/></svg>