<?xml version="1.0" encoding="utf-8"?>
<!-- Generator: Adobe Illustrator 22.1.0, SVG Export Plug-In . SVG Version: 6.00 Build 0)  -->
<svg version="1.1" id="Outline_Old_Icons" xmlns="http://www.w3.org/2000/svg" xmlns:xlink="http://www.w3.org/1999/xlink" x="0px"
	 y="0px" viewBox="0 0 24 24" style="enable-background:new 0 0 24 24;" xml:space="preserve">
<g>
	<g>
		<path d="M23.5,17h-23C0.2,17,0,16.8,0,16.5v-16C0,0.2,0.2,0,0.5,0h23C23.8,0,24,0.2,24,0.5v16C24,16.8,23.8,17,23.5,17z M1,16h22
			V1H1V16z"/>
	</g>
	<g>
		<path d="M11.5,24c-0.3,0-0.5-0.2-0.5-0.5v-7c0-0.3,0.2-0.5,0.5-0.5s0.5,0.2,0.5,0.5v7C12,23.8,11.8,24,11.5,24z"/>
	</g>
	<g>
		<path d="M18.5,24c-0.1,0-0.3,0-0.4-0.1l-6.6-6.6l-6.6,6.6c-0.2,0.2-0.5,0.2-0.7,0s-0.2-0.5,0-0.7l7-7c0.2-0.2,0.5-0.2,0.7,0l7,7
			c0.2,0.2,0.2,0.5,0,0.7C18.8,24,18.6,24,18.5,24z"/>
	</g>
	<g>
		<path d="M23.5,5h-23C0.2,5,0,4.8,0,4.5S0.2,4,0.5,4h23C23.8,4,24,4.2,24,4.5S23.8,5,23.5,5z"/>
	</g>
</g>
</svg>
