<svg xmlns="http://www.w3.org/2000/svg" xmlns:xlink="http://www.w3.org/1999/xlink" viewBox="0 0 5.41 6.79"><defs><clipPath id="a" transform="translate(0 0)"><rect width="5.41" height="6.79" fill="none"/></clipPath></defs><title>exclamation</title><g clip-path="url(#a)"><path d="M5,6.79H.38A.37.37,0,0,1,0,6.42v-6A.38.38,0,0,1,.38,0H5a.38.38,0,0,1,.38.38v6A.37.37,0,0,1,5,6.79ZM.75,6H4.66V.75H.75Z" transform="translate(0 0)" fill="#333"/></g><path d="M2.7,5.35A.34.34,0,0,1,2.33,5V4.93a.38.38,0,0,1,.75,0A.42.42,0,0,1,2.7,5.35Z" transform="translate(0 0)" fill="#333"/><path d="M2.7,4.15a.38.38,0,0,1-.37-.38V1.53a.38.38,0,1,1,.75,0V3.77A.38.38,0,0,1,2.7,4.15Z" transform="translate(0 0)" fill="#333"/></svg>