<svg xmlns="http://www.w3.org/2000/svg" xmlns:xlink="http://www.w3.org/1999/xlink" viewBox="0 0 8.83 5.88"><defs><clipPath id="aaa"><rect width="8.82" height="5.88" fill="none"/></clipPath></defs><title>eye</title><g clip-path="url(#aaa)"><path d="M8.72,2.55a.77.77,0,0,1,.11.39.88.88,0,0,1-.11.39,6.31,6.31,0,0,1-.87,1.09,5.59,5.59,0,0,1-1,.8,4.71,4.71,0,0,1-2.41.66,4.7,4.7,0,0,1-1.24-.17A4.57,4.57,0,0,1,2,5.21a5.65,5.65,0,0,1-1-.8A6,6,0,0,1,.12,3.33a.69.69,0,0,1,0-.78A6,6,0,0,1,1,1.47a5.65,5.65,0,0,1,1-.8A4.57,4.57,0,0,1,3.17.17,4.7,4.7,0,0,1,4.41,0,4.71,4.71,0,0,1,6.82.66a5.59,5.59,0,0,1,1,.8,6.31,6.31,0,0,1,.87,1.09M4.41,5.15A4,4,0,0,0,5.51,5a4.4,4.4,0,0,0,1-.44,4.38,4.38,0,0,0,.87-.7,5.34,5.34,0,0,0,.72-.91,5,5,0,0,0-.9-1.08,4,4,0,0,0-1.13-.75,2.12,2.12,0,0,1,.38.63,2.15,2.15,0,0,1,.14.77,2.19,2.19,0,0,1-.17.85,2.28,2.28,0,0,1-.48.71,2.1,2.1,0,0,1-.7.47,2.11,2.11,0,0,1-.86.18,2.07,2.07,0,0,1-.86-.18,2.33,2.33,0,0,1-.7-.47,2.25,2.25,0,0,1-.47-.71,2,2,0,0,1-.17-.85,2.08,2.08,0,0,1,.12-.71,2.3,2.3,0,0,1,.33-.62,4.55,4.55,0,0,0-1,.73,5,5,0,0,0-.84,1,6.34,6.34,0,0,0,.71.91,4.38,4.38,0,0,0,.87.7,4.68,4.68,0,0,0,1,.44,3.94,3.94,0,0,0,1.09.16m0-4.07a1.36,1.36,0,0,0-.56.11,1.42,1.42,0,0,0-.45.3A1.49,1.49,0,0,0,3.05,2a1.51,1.51,0,0,0-.11.56A.29.29,0,0,0,3,2.7a.28.28,0,0,0,.2.08.26.26,0,0,0,.19-.08.29.29,0,0,0,.08-.19.86.86,0,0,1,.26-.63.83.83,0,0,1,.62-.25.25.25,0,0,0,.2-.09.27.27,0,0,0,.08-.19.28.28,0,0,0-.08-.2.27.27,0,0,0-.2-.07" fill="#333"/></g></svg>