<svg xmlns="http://www.w3.org/2000/svg" viewBox="0 0 23 24"><title>f-bar</title><path d="M7.5,14.5a3,3,0,0,1-3-3,4.5,4.5,0,0,1,0-9,4.28,4.28,0,0,1,1.91.42A5.93,5.93,0,0,1,11.5,0a6,6,0,0,1,5.09,2.92A4.28,4.28,0,0,1,18.5,2.5a4.5,4.5,0,1,1-2.9,7.91,6.15,6.15,0,0,1-5.13,1.49A3,3,0,0,1,7.5,14.5Zm-3-11a3.5,3.5,0,0,0,0,7h.6a.5.5,0,0,1,.5.5,1.82,1.82,0,0,1-.08.47,2,2,0,0,0,2,2,2,2,0,0,0,2-2v-.2a.53.53,0,0,1,.18-.39.53.53,0,0,1,.42-.1,7.11,7.11,0,0,0,1.4.19,5.1,5.1,0,0,0,3.73-1.64.58.58,0,0,1,.37-.16.5.5,0,0,1,.38.17A3.41,3.41,0,0,0,18.5,10.5a3.5,3.5,0,0,0,0-7A3.14,3.14,0,0,0,16.68,4a.49.49,0,0,1-.41.06A.49.49,0,0,1,16,3.82,5,5,0,0,0,11.5,1,5,5,0,0,0,7.05,3.82a.49.49,0,0,1-.32.26A.49.49,0,0,1,6.32,4,3.14,3.14,0,0,0,4.5,3.5Z"/><path d="M20.2,19H18.3V18h1.9a1.42,1.42,0,0,0,1.4-1.5v-3A1.5,1.5,0,0,0,20.1,12H17.6V11h2.5a2.5,2.5,0,0,1,2.5,2.5v3A2.42,2.42,0,0,1,20.2,19Z"/><path d="M19,24H4a2,2,0,0,1,0-4H19a2,2,0,0,1,0,4ZM4,21a1,1,0,0,0,0,2H19a1,1,0,0,0,0-2Z"/><path d="M4.5,21H4.43A.51.51,0,0,1,4,20.43l1-7.5a.5.5,0,1,1,1,.14l-1,7.5A.51.51,0,0,1,4.5,21Z"/><path d="M18.5,21a.51.51,0,0,1-.5-.45L17,11a.5.5,0,0,1,1-.1l1,9.6a.5.5,0,0,1-.45.55Z"/><path d="M15,19a.51.51,0,0,1-.5-.45l-.5-5a.5.5,0,0,1,1-.1l.5,5a.51.51,0,0,1-.45.55Z"/><path d="M11.5,19a.5.5,0,0,1-.5-.5v-5a.5.5,0,0,1,1,0v5A.5.5,0,0,1,11.5,19Z"/><path d="M8,19H7.94a.51.51,0,0,1-.44-.56l.5-4.5a.52.52,0,0,1,.56-.44.51.51,0,0,1,.44.56l-.5,4.5A.51.51,0,0,1,8,19Z"/></svg>