<svg xmlns="http://www.w3.org/2000/svg" viewBox="0 0 23 24"><title>f-bar</title><path d="M7.5,14.5a3,3,0,0,1-3-3,4.5,4.5,0,0,1,0-9,4.42,4.42,0,0,1,1.86.41,6,6,0,0,1,10.28,0A4.42,4.42,0,0,1,18.5,2.5a4.5,4.5,0,1,1-2.94,7.91,6,6,0,0,1-5.09,1.5A3,3,0,0,1,7.5,14.5Zm-2.44-4a.51.51,0,0,1,.37.16.49.49,0,0,1,.12.45,2.18,2.18,0,0,0,0,.43,2,2,0,0,0,4,0l0-.18a.49.49,0,0,1,.18-.42.51.51,0,0,1,.46-.1,5,5,0,0,0,5.07-1.43.48.48,0,0,1,.37-.17h0a.5.5,0,0,1,.37.17A3.45,3.45,0,0,0,18.5,10.5,3.5,3.5,0,1,0,16.69,4a.51.51,0,0,1-.4,0A.53.53,0,0,1,16,3.8a5,5,0,0,0-9,0,.53.53,0,0,1-.31.26.51.51,0,0,1-.4,0A3.5,3.5,0,1,0,4.5,10.5a4.21,4.21,0,0,0,.5,0Z"/><path d="M20.14,19H18.29V18h1.85a1.43,1.43,0,0,0,1.36-1.5v-3A1.5,1.5,0,0,0,20,12H17.5V11H20a2.5,2.5,0,0,1,2.5,2.5v3A2.44,2.44,0,0,1,20.14,19Z"/><path d="M19,24H4a2,2,0,0,1,0-4H19a2,2,0,0,1,0,4ZM4,21a1,1,0,0,0,0,2H19a1,1,0,0,0,0-2Z"/><path d="M4.5,21H4.43A.51.51,0,0,1,4,20.43l1-7.5a.52.52,0,0,1,.57-.43.51.51,0,0,1,.43.57l-1,7.5A.51.51,0,0,1,4.5,21Z"/><path d="M18.5,21a.51.51,0,0,1-.5-.45l-1-9.63a.49.49,0,0,1,.45-.54.5.5,0,0,1,.55.44l1,9.63a.5.5,0,0,1-.45.55Z"/><path d="M15,19a.51.51,0,0,1-.5-.45l-.5-5a.51.51,0,0,1,.45-.55.5.5,0,0,1,.55.45l.5,5a.51.51,0,0,1-.45.55Z"/><path d="M11.5,19a.5.5,0,0,1-.5-.5v-5a.5.5,0,0,1,1,0v5A.5.5,0,0,1,11.5,19Z"/><path d="M8,19H7.94a.51.51,0,0,1-.44-.56l.5-4.5a.5.5,0,0,1,.56-.44.51.51,0,0,1,.44.56l-.5,4.5A.51.51,0,0,1,8,19Z"/></svg>