<svg xmlns="http://www.w3.org/2000/svg" viewBox="0 0 29.2 18.1"><title>f-bike</title><path d="M5.4,18.1a5.4,5.4,0,1,1,5.4-5.4A5.4,5.4,0,0,1,5.4,18.1Zm0-9.8a4.4,4.4,0,1,0,4.4,4.4A4.4,4.4,0,0,0,5.4,8.3Z"/><path d="M23.8,18.1a5.4,5.4,0,1,1,5.4-5.4A5.4,5.4,0,0,1,23.8,18.1Zm0-9.8a4.4,4.4,0,1,0,4.4,4.4A4.4,4.4,0,0,0,23.8,8.3Z"/><path d="M13.4,13.2h-8A.49.49,0,0,1,5,12.94a.51.51,0,0,1,0-.52L9.74,5.34,7.94,1.1A.5.5,0,1,1,8.86.71L10.64,4.9H20.7a.5.5,0,0,1,.46.31.49.49,0,0,1-.11.54l-7.29,7.3a.71.71,0,0,1-.17.11A.43.43,0,0,1,13.4,13.2Zm-7.06-1h6.3L10.2,6.44Zm4.72-6.3,2.51,5.92L19.49,5.9Z"/><path d="M23.8,13.2a.45.45,0,0,1-.16,0l-1.2-.4a.48.48,0,0,1-.32-.34l-2.9-10.6a.46.46,0,0,1,.1-.45.5.5,0,0,1,.43-.18l3.9.4a1.69,1.69,0,0,1,1.44,2,1.67,1.67,0,0,1-2,1.42.5.5,0,1,1,.14-1,.67.67,0,0,0,.83-.57.68.68,0,0,0-.57-.84l-3.16-.32L23,11.91l.95.31a.51.51,0,0,1,.31.64A.49.49,0,0,1,23.8,13.2Z"/><path d="M10.9,2.2l-.16,0L7.14,1A.49.49,0,0,1,6.83.34.49.49,0,0,1,7.46,0l3.6,1.2a.5.5,0,0,1-.16,1Z"/></svg>