<svg xmlns="http://www.w3.org/2000/svg" viewBox="0 0 14 24"><title>f-cafe</title><path d="M10.5,24a.5.5,0,0,1-.5-.5V.5a.5.5,0,0,1,1,0v23A.5.5,0,0,1,10.5,24Z"/><path d="M13.5,16h-3a.5.5,0,0,1,0-1H13c-.07-8.25-1.76-13.76-2.52-14A.49.49,0,0,1,10,.5.5.5,0,0,1,10.5,0C12.75,0,14,9.17,14,15.5A.5.5,0,0,1,13.5,16Z"/><path d="M3.5,9A3.5,3.5,0,0,1,0,5.5V.5A.5.5,0,0,1,.5,0,.5.5,0,0,1,1,.5v5a2.5,2.5,0,0,0,5,0V.5a.5.5,0,0,1,1,0v5A3.5,3.5,0,0,1,3.5,9Z"/><path d="M3.5,24a.5.5,0,0,1-.5-.5V.5a.5.5,0,0,1,1,0v23A.5.5,0,0,1,3.5,24Z"/></svg>