<svg xmlns="http://www.w3.org/2000/svg" viewBox="0 0 24 24"><title>f-chair</title><path d="M4.8,14a.51.51,0,0,1-.5-.43l-.9-6.1A6.89,6.89,0,0,1,4.92,2.28,6.72,6.72,0,0,1,9.9,0h4a6.58,6.58,0,0,1,5,2.28,6.16,6.16,0,0,1,1.51,5.21l-.9,6.08a.5.5,0,0,1-.56.43.51.51,0,0,1-.43-.57l.9-6.1a5.15,5.15,0,0,0-1.27-4.39A5.58,5.58,0,0,0,13.9,1h-4A5.73,5.73,0,0,0,5.67,2.94,5.85,5.85,0,0,0,4.4,7.34l.89,6.09a.5.5,0,0,1-.42.57Z"/><path d="M6.5,24a.5.5,0,0,1-.5-.5v-1a.5.5,0,0,1,1,0v1A.5.5,0,0,1,6.5,24Z"/><path d="M17.5,24a.5.5,0,0,1-.5-.5v-1a.5.5,0,0,1,1,0v1A.5.5,0,0,1,17.5,24Z"/><path d="M18.5,23H5.5A3.47,3.47,0,0,1,2,19.5v-2a.72.72,0,0,0-.49-.74A2.46,2.46,0,0,1,0,14.5,2.5,2.5,0,0,1,2.5,12a4.05,4.05,0,0,1,4,4v.73A16.54,16.54,0,0,1,12,16a16.54,16.54,0,0,1,5.5.73V16a4.05,4.05,0,0,1,4-4A2.5,2.5,0,0,1,24,14.5a2.46,2.46,0,0,1-1.5,2.26.8.8,0,0,0-.5.74v2A3.47,3.47,0,0,1,18.5,23ZM2.5,13A1.5,1.5,0,0,0,1,14.5a1.48,1.48,0,0,0,.9,1.34A1.72,1.72,0,0,1,3,17.5v2A2.45,2.45,0,0,0,5.5,22h13A2.45,2.45,0,0,0,21,19.5v-2a1.79,1.79,0,0,1,1.11-1.66A1.48,1.48,0,0,0,21.5,13a3,3,0,0,0-3,3v1.5a.5.5,0,0,1-.78.42S16.23,17,12,17s-5.71.91-5.73.92a.52.52,0,0,1-.51,0,.51.51,0,0,1-.26-.44V16A3,3,0,0,0,2.5,13Z"/><path d="M15,10.5a.57.57,0,0,1-.28-.08l-1.5-1a.51.51,0,0,1,0-.84l1.5-1a.5.5,0,1,1,.56.84L14.4,9l.88.58a.51.51,0,0,1,.14.7A.52.52,0,0,1,15,10.5Z"/><path d="M9,10.5a.52.52,0,0,1-.42-.22.51.51,0,0,1,.14-.7L9.6,9l-.88-.58a.5.5,0,1,1,.56-.84l1.5,1a.51.51,0,0,1,0,.84l-1.5,1A.57.57,0,0,1,9,10.5Z"/><path d="M12,11a2,2,0,1,1,2-2A2,2,0,0,1,12,11Zm0-3a1,1,0,1,0,1,1A1,1,0,0,0,12,8Z"/></svg>