<svg xmlns="http://www.w3.org/2000/svg" viewBox="0 0 17.4 27.9"><title>f-childcare</title><path d="M11,22.1H6.3a.51.51,0,0,1-.44-.26.47.47,0,0,1,0-.5l1.54-2.49C2.49,15.66,0,12.44,0,9.3,0,3.82,3.58,0,8.7,0s8.7,3.82,8.7,9.3c0,4.2-4.52,7.7-7.51,9.56l1.53,2.48a.47.47,0,0,1,0,.5A.51.51,0,0,1,11,22.1Zm-3.8-1h2.9L8.78,19a.47.47,0,0,1-.07-.38.56.56,0,0,1,.23-.31c2.79-1.67,7.46-5.06,7.46-9C16.4,4.41,13.23,1,8.7,1S1,4.41,1,9.3c0,2.83,2.43,5.82,7.21,8.88l.16.1a.49.49,0,0,1,.15.68Z"/><path d="M13.5,27.9a.5.5,0,0,1-.5-.5V25.1a.7.7,0,0,0-1.4,0,1.7,1.7,0,1,1-3.4,0V21.6a.5.5,0,0,1,1,0v3.5a.7.7,0,1,0,1.4,0,1.7,1.7,0,1,1,3.4,0v2.3A.5.5,0,0,1,13.5,27.9Z"/><path d="M2.8,9.2a.5.5,0,0,1-.5-.5A6.41,6.41,0,0,1,8.7,2.3a.5.5,0,0,1,0,1A5.4,5.4,0,0,0,3.3,8.7.5.5,0,0,1,2.8,9.2Z"/></svg>