<svg xmlns="http://www.w3.org/2000/svg" viewBox="0 0 24 24"><title>chair</title><path d="M5,14a.5.5,0,0,1-.49-.42L3.57,7.49A6.5,6.5,0,0,1,10,0h4a6.5,6.5,0,0,1,6.43,7.49l-.94,6.09a.5.5,0,1,1-1-.16l.93-6.09A5.5,5.5,0,0,0,14,1H10A5.5,5.5,0,0,0,4.56,7.33l.93,6.09a.49.49,0,0,1-.41.57Z"/><path d="M6.5,24a.5.5,0,0,1-.5-.5v-1a.5.5,0,0,1,1,0v1A.5.5,0,0,1,6.5,24Z"/><path d="M17.5,24a.5.5,0,0,1-.5-.5v-1a.5.5,0,0,1,1,0v1A.5.5,0,0,1,17.5,24Z"/><path d="M18.5,23H5.5A3.5,3.5,0,0,1,2,19.5v-2a.75.75,0,0,0-.46-.69A2.5,2.5,0,0,1,2.5,12a4,4,0,0,1,4,4v.73A16.54,16.54,0,0,1,12,16a16.54,16.54,0,0,1,5.5.73V16a4,4,0,0,1,4-4,2.5,2.5,0,0,1,1,4.81.74.74,0,0,0-.46.69v2A3.5,3.5,0,0,1,18.5,23ZM2.5,13a1.5,1.5,0,0,0-.58,2.89A1.73,1.73,0,0,1,3,17.5v2A2.5,2.5,0,0,0,5.5,22h13A2.5,2.5,0,0,0,21,19.5v-2a1.73,1.73,0,0,1,1.08-1.61A1.5,1.5,0,0,0,21.5,13a3,3,0,0,0-3,3v1.5a.5.5,0,0,1-.78.42S16.23,17,12,17s-5.71.91-5.73.92a.49.49,0,0,1-.51,0,.51.51,0,0,1-.26-.44V16A3,3,0,0,0,2.5,13Z"/><path d="M15,10.5a.57.57,0,0,1-.28-.08l-1.5-1a.51.51,0,0,1,0-.84l1.5-1a.5.5,0,1,1,.56.84L14.4,9l.88.58a.51.51,0,0,1,.14.7A.52.52,0,0,1,15,10.5Z"/><path d="M9,10.5a.52.52,0,0,1-.42-.22.51.51,0,0,1,.14-.7L9.6,9l-.88-.58a.5.5,0,1,1,.56-.84l1.5,1a.51.51,0,0,1,0,.84l-1.5,1A.57.57,0,0,1,9,10.5Z"/><path d="M12,11a2,2,0,1,1,2-2A2,2,0,0,1,12,11Zm0-3a1,1,0,1,0,1,1A1,1,0,0,0,12,8Z"/></svg>