<svg xmlns="http://www.w3.org/2000/svg" viewBox="0 0 15.66 30.13"><title>f-cleaning</title><path d="M12.58,30.13H3.08a3.22,3.22,0,0,1-2.35-1,2.6,2.6,0,0,1-.72-2C.45,20.86,2.4,15.63,4.14,13.24,6,10.65,5.85,6.46,5.85,6.41A.57.57,0,0,1,6,6a.51.51,0,0,1,.36-.15h3A.51.51,0,0,1,9.67,6a.57.57,0,0,1,.14.37s-.17,4.24,1.71,6.83c1.74,2.39,3.69,7.62,4.13,13.91a2.57,2.57,0,0,1-.72,2A3.22,3.22,0,0,1,12.58,30.13ZM6.86,6.89c0,1.28-.22,4.61-1.91,6.94S1.43,21.16,1,27.22a1.63,1.63,0,0,0,.46,1.23,2.21,2.21,0,0,0,1.62.68h9.5a2.21,2.21,0,0,0,1.62-.68,1.63,1.63,0,0,0,.46-1.23c-.43-6.06-2.34-11.19-3.95-13.39h0C9,11.5,8.82,8.17,8.8,6.89Z"/><path d="M9.34,5.8H6a.5.5,0,0,1-.5-.5V.5A.5.5,0,0,1,6,0H9.34a.5.5,0,0,1,.5.5V5.3A.5.5,0,0,1,9.34,5.8Zm-2.86-1H8.84V1H6.48Z"/><path d="M6,3.4H2.84a.5.5,0,0,1-.5-.5V.5a.5.5,0,0,1,.5-.5H6a.5.5,0,0,1,.5.5V2.9A.5.5,0,0,1,6,3.4Zm-2.64-1H5.48V1H3.34Z"/><path d="M1,12.27a.5.5,0,0,1-.27-.92C3.43,9.71,3.49,4.56,3.49,4.51A.5.5,0,0,1,4,4H4a.5.5,0,0,1,.49.5c0,.24-.06,5.76-3.22,7.69A.54.54,0,0,1,1,12.27Z"/><path d="M2.84,3.4l-.14,0L1.06,2.91a.51.51,0,0,1-.37-.48V1A.5.5,0,0,1,1,.57L2.68,0a.5.5,0,0,1,.63.31A.51.51,0,0,1,3,1l-1.3.43v.64L3,2.42a.5.5,0,0,1-.13,1Z"/></svg>