<svg xmlns="http://www.w3.org/2000/svg" viewBox="0 0 15.71 30.1"><title>f-cleaning</title><path d="M12.61,30.1H3.11a3.29,3.29,0,0,1-2.41-1A2.52,2.52,0,0,1,0,27.16C.44,20.79,2.38,15.6,4.11,13.3,6,10.77,5.81,6.56,5.81,6.52a.51.51,0,0,1,.13-.37A.56.56,0,0,1,6.31,6h2.9a.55.55,0,0,1,.36.15.57.57,0,0,1,.14.37s-.17,4.16,1.7,6.79,3.72,8.22,4.29,13.84A2.53,2.53,0,0,1,15,29.09,3.27,3.27,0,0,1,12.61,30.1ZM6.81,7c0,1.28-.22,4.62-1.9,6.9C3.32,16,1.42,21.09,1,27.23a1.56,1.56,0,0,0,.44,1.18,2.24,2.24,0,0,0,1.67.69h9.5a2.24,2.24,0,0,0,1.66-.69,1.52,1.52,0,0,0,.44-1.17C14.07,21,12.19,16,10.61,13.9h0A12.82,12.82,0,0,1,8.7,7Z"/><path d="M9.31,5.8H5.91a.5.5,0,0,1-.5-.5V.5a.5.5,0,0,1,.5-.5h3.4a.5.5,0,0,1,.5.5V5.3A.5.5,0,0,1,9.31,5.8Zm-2.9-1h2.4V1H6.41Z"/><path d="M5.81,3.4H2.71a.5.5,0,0,1-.5-.5V.5a.5.5,0,0,1,.5-.5h3.1a.5.5,0,0,1,.5.5V2.9A.5.5,0,0,1,5.81,3.4Zm-2.6-1h2.1V1H3.21Z"/><path d="M.91,12.3a.51.51,0,0,1-.43-.24.5.5,0,0,1,.17-.69C3.37,9.74,3.41,4.55,3.41,4.5a.5.5,0,0,1,.5-.5h0a.5.5,0,0,1,.5.5c0,.24,0,5.81-3.25,7.73A.47.47,0,0,1,.91,12.3Z"/><path d="M2.71,3.4a.32.32,0,0,1-.13,0L1,3A.48.48,0,0,1,.61,2.5V1.1A.5.5,0,0,1,.93.63L2.53,0a.5.5,0,0,1,.64.29A.5.5,0,0,1,2.88,1l-1.27.48v.66l1.22.31a.49.49,0,0,1,.36.6A.5.5,0,0,1,2.71,3.4Z"/></svg>