<svg xmlns="http://www.w3.org/2000/svg" viewBox="0 0 19 24"><title>f-disabled</title><path d="M16.5,22c-.61,0-.75-.67-1.15-2.44a11.54,11.54,0,0,0-.92-3.06c-.9.05-5.42.91-8.33,1.49a.49.49,0,0,1-.39-.08.53.53,0,0,1-.21-.35L4,6.06a.51.51,0,0,1,.44-.56A.52.52,0,0,1,5,5.94l1.43,11c1.81-.36,7.17-1.41,8.07-1.41s1.31,1.46,1.83,3.84c.12.56.28,1.29.4,1.63a13.57,13.57,0,0,0,1.61-.44.5.5,0,1,1,.32.94A10.65,10.65,0,0,1,16.5,22Z"/><path d="M5.9,24A6,6,0,0,1,0,18a6.16,6.16,0,0,1,4.8-5.94.33.33,0,0,0,.13,0,1.62,1.62,0,0,1,.42-.1l.05,1L5.27,13l-.3.08A5.18,5.18,0,0,0,1,18a5,5,0,0,0,4.9,5A5.18,5.18,0,0,0,11,18V16.45h1V18A6.13,6.13,0,0,1,5.9,24Z"/><path d="M4.23,6.46A3.23,3.23,0,1,1,7.46,3.23,3.23,3.23,0,0,1,4.23,6.46ZM4.23,1A2.23,2.23,0,1,0,6.46,3.23,2.23,2.23,0,0,0,4.23,1Z"/><path d="M5,13a.51.51,0,0,1-.49-.38.5.5,0,0,1,.37-.6l6-1.5a.5.5,0,0,1,.61.36.5.5,0,0,1-.37.6l-6,1.5A.25.25,0,0,1,5,13Z"/></svg>