<svg xmlns="http://www.w3.org/2000/svg" viewBox="0 0 19 23.9"><title>f-disabled</title><path d="M16.5,22c-.61,0-.75-.67-1.15-2.44a11.54,11.54,0,0,0-.92-3.06c-.9.05-5.42.91-8.33,1.49a.49.49,0,0,1-.39-.08.53.53,0,0,1-.21-.35L4,6.06a.5.5,0,0,1,1-.12l1.43,11c1.81-.36,7.17-1.41,8.07-1.41s1.31,1.46,1.83,3.84c.12.56.28,1.29.4,1.63a15.8,15.8,0,0,0,1.61-.44.5.5,0,1,1,.32.94A10.65,10.65,0,0,1,16.5,22Z"/><path d="M5.9,23.9a6,6,0,0,1-5.9-6A6.13,6.13,0,0,1,4.81,12L5,12a1.23,1.23,0,0,1,.41-.08v1l-.09,0A1,1,0,0,1,4.9,13,5.11,5.11,0,0,0,1,17.9a5,5,0,0,0,4.9,5,5.12,5.12,0,0,0,5.1-5V16.4h1v1.5A6.13,6.13,0,0,1,5.9,23.9Z"/><path d="M4.3,6.4A3.2,3.2,0,1,1,7.5,3.2,3.21,3.21,0,0,1,4.3,6.4ZM4.3,1A2.18,2.18,0,0,0,2.1,3.2,2.18,2.18,0,0,0,4.3,5.4,2.17,2.17,0,0,0,6.5,3.2,2.17,2.17,0,0,0,4.3,1Z"/><path d="M5,13a.49.49,0,0,1-.48-.38.48.48,0,0,1,.36-.6l6-1.5a.5.5,0,0,1,.61.36.5.5,0,0,1-.37.6L5.12,13Z"/></svg>