<svg xmlns="http://www.w3.org/2000/svg" viewBox="0 0 20 24"><title>f-fruit</title><path d="M13.5,24c-1.8,0-2.33-.34-2.79-.75A.81.81,0,0,0,10,23a.81.81,0,0,0-.71.25c-.46.41-1,.75-2.79.75C3,24,0,17.46,0,13.5,0,9.29,2.64,6,6,6a5.78,5.78,0,0,1,3.36.76,1,1,0,0,0,1.28,0A5.78,5.78,0,0,1,14,6c3.36,0,6,3.29,6,7.5C20,17.46,17,24,13.5,24ZM10,22a1.76,1.76,0,0,1,1.37.5c.26.23.56.5,2.13.5,2.6,0,5.5-5.66,5.5-9.5C19,9.86,16.8,7,14,7a4.85,4.85,0,0,0-2.86.63A2.11,2.11,0,0,1,10,8a2.11,2.11,0,0,1-1.14-.37A4.85,4.85,0,0,0,6,7C3.2,7,1,9.86,1,13.5,1,17.34,3.9,23,6.5,23c1.57,0,1.87-.27,2.13-.5A1.76,1.76,0,0,1,10,22Z"/><path d="M10,8a.5.5,0,0,1-.5-.5v-2A1.5,1.5,0,0,0,8,4H6A.5.5,0,0,1,6,3H8a2.5,2.5,0,0,1,2.5,2.5v2A.5.5,0,0,1,10,8Z"/><path d="M12,5.5a.5.5,0,0,1-.5-.5,5,5,0,0,1,5-5,.5.5,0,0,1,.5.5A5,5,0,0,1,12,5.5ZM16,1a4,4,0,0,0-3.42,3.42A4,4,0,0,0,16,1Z"/></svg>