<svg xmlns="http://www.w3.org/2000/svg" viewBox="0 0 22 27.4"><title>f-furniture</title><path d="M4.5,16.3a.5.5,0,0,1-.5-.5V5.8a.5.5,0,0,1,1,0v10A.5.5,0,0,1,4.5,16.3Z"/><path d="M17.5,16.3a.5.5,0,0,1-.5-.5V6a.5.5,0,0,1,1,0v9.8A.5.5,0,0,1,17.5,16.3Z"/><path d="M17.5,11.3H4.5a.5.5,0,0,1-.5-.5v-5a.5.5,0,0,1,.5-.5h13a.5.5,0,0,1,.5.5v5A.5.5,0,0,1,17.5,11.3ZM5,10.3H17v-4H5Z"/><path d="M19.5,19.3H2.5a.5.5,0,0,1-.42-.78l2-3a.51.51,0,0,1,.42-.22h13a.51.51,0,0,1,.42.22l2,3a.5.5,0,0,1-.42.78Zm-16.07-1H18.57l-1.34-2H4.77Z"/><path d="M2.5,19.3a.5.5,0,0,1-.5-.5v-5a.5.5,0,0,1,1,0v5A.5.5,0,0,1,2.5,19.3Z"/><path d="M4.5,14.3H.5a.5.5,0,0,1,0-1h4a.5.5,0,0,1,0,1Z"/><path d="M19.5,19.3a.5.5,0,0,1-.5-.5v-5a.5.5,0,1,1,1,0v5A.5.5,0,0,1,19.5,19.3Z"/><path d="M21.5,14.3h-4a.5.5,0,0,1,0-1h4a.5.5,0,0,1,0,1Z"/><path d="M11,24.6a.5.5,0,0,1-.5-.5V18.8a.5.5,0,0,1,1,0v5.3A.5.5,0,0,1,11,24.6Z"/><path d="M17.5,24.9H4.5a.5.5,0,0,1,0-1h13a.5.5,0,0,1,0,1Z"/><path d="M3.4,26.8a.5.5,0,0,1-.5-.5V25.1a.5.5,0,0,1,.5-.5.5.5,0,0,1,.5.5v1.2A.5.5,0,0,1,3.4,26.8Z"/><path d="M18.7,26.8a.5.5,0,0,1-.5-.5V25.1a.5.5,0,0,1,1,0v1.2A.5.5,0,0,1,18.7,26.8Z"/><path d="M11,27.4a.5.5,0,0,1-.5-.5V25.7a.5.5,0,0,1,1,0v1.2A.5.5,0,0,1,11,27.4Z"/><path d="M14.1,4.4H8a.5.5,0,0,1-.5-.5V.5A.5.5,0,0,1,8,0h6.1a.5.5,0,0,1,.5.5V3.9A.5.5,0,0,1,14.1,4.4Zm-5.6-1h5.1V1H8.5Z"/></svg>