<svg xmlns="http://www.w3.org/2000/svg" viewBox="0 0 27.7 15.91"><title>f-gym</title><path d="M8,15.91H3.7a.5.5,0,0,1-.5-.5V.51A.5.5,0,0,1,3.7,0H8a.5.5,0,0,1,.5.5v14.9A.5.5,0,0,1,8,15.91Zm-3.8-1H7.5V1H4.2Z"/><path d="M3.7,13.91H.5a.5.5,0,0,1-.5-.5V2.51A.5.5,0,0,1,.5,2H3.7a.5.5,0,0,1,.5.5v10.9A.5.5,0,0,1,3.7,13.91Zm-2.7-1H3.2V3H1Z"/><path d="M27.2,13.91H24a.5.5,0,0,1-.5-.5V2.51A.5.5,0,0,1,24,2h3.2a.5.5,0,0,1,.5.5v10.9A.5.5,0,0,1,27.2,13.91Zm-2.7-1h2.2V3H24.5Z"/><path d="M24,15.9h-4.3a.5.5,0,0,1-.5-.5V.5a.5.5,0,0,1,.5-.5H24a.5.5,0,0,1,.5.5V15.4A.5.5,0,0,1,24,15.9Zm-3.8-1h3.3V1h-3.3Z"/><path d="M19.7,10.31H8a.5.5,0,0,1-.5-.5V6.21a.5.5,0,0,1,.5-.5H19.7a.5.5,0,0,1,.5.5v3.6A.5.5,0,0,1,19.7,10.31Zm-11.2-1H19.2V6.71H8.5Z"/></svg>