<svg xmlns="http://www.w3.org/2000/svg" viewBox="0 0 16 24"><title>f-lock</title><path d="M8,24a8,8,0,1,1,8-8A8,8,0,0,1,8,24ZM8,9a7,7,0,1,0,7,7A7,7,0,0,0,8,9Z"/><path d="M13.5,10.5h-1v-5A4.46,4.46,0,0,0,8,1,4.46,4.46,0,0,0,3.5,5.5v5h-1v-5A5.45,5.45,0,0,1,8,0a5.45,5.45,0,0,1,5.5,5.5Z"/><path d="M8,20.5A4.5,4.5,0,1,1,12.5,16,4.51,4.51,0,0,1,8,20.5Zm0-8A3.5,3.5,0,1,0,11.5,16,3.5,3.5,0,0,0,8,12.5Z"/><path d="M8,13.5a.5.5,0,0,1-.5-.5V11a.5.5,0,0,1,1,0v2A.5.5,0,0,1,8,13.5Z"/><path d="M8,21.5a.5.5,0,0,1-.5-.5V19a.5.5,0,0,1,1,0v2A.5.5,0,0,1,8,21.5Z"/><path d="M13,16.5H11a.5.5,0,0,1,0-1h2a.5.5,0,0,1,0,1Z"/><path d="M5,16.5H3a.5.5,0,0,1,0-1H5a.5.5,0,0,1,0,1Z"/><circle cx="8" cy="16" r="1"/></svg>