<svg xmlns="http://www.w3.org/2000/svg" viewBox="0 0 24 24"><title>f-mail</title><path d="M20.5,17H.5a.5.5,0,0,1-.5-.5v-6A4.51,4.51,0,0,1,4.5,6h10a.5.5,0,0,1,0,1H4.5A3.5,3.5,0,0,0,1,10.5V16H20V7H18.5a.5.5,0,0,1,0-1h2a.5.5,0,0,1,.5.5v10A.5.5,0,0,1,20.5,17Z"/><path d="M11.5,24a.5.5,0,0,1-.5-.5v-7a.5.5,0,0,1,1,0v7A.5.5,0,0,1,11.5,24Z"/><path d="M16.5,10a.5.5,0,0,1-.5-.5V.5a.5.5,0,0,1,1,0v9A.5.5,0,0,1,16.5,10Z"/><path d="M16.5,4h-5a.5.5,0,0,1-.5-.5V.5a.5.5,0,0,1,.5-.5h5a.5.5,0,0,1,.5.5v3A.5.5,0,0,1,16.5,4ZM12,3h4V1H12Z"/><path d="M22.5,16h-2a.5.5,0,0,1-.5-.5v-6a.5.5,0,0,1,.5-.5h3a.46.46,0,0,1,.38.18.46.46,0,0,1,.11.4l-1,6A.5.5,0,0,1,22.5,16ZM21,15h1.08l.83-5H21Z"/></svg>