<svg xmlns="http://www.w3.org/2000/svg" viewBox="0 0 24 23"><title>f-meetings</title><path d="M5.5,12.5a.59.59,0,0,1-.22-.05A.5.5,0,0,1,5,12V9H.5A.5.5,0,0,1,0,8.5V.5A.5.5,0,0,1,.5,0h23a.5.5,0,0,1,.5.5v8a.5.5,0,0,1-.5.5H10.17L5.81,12.39A.51.51,0,0,1,5.5,12.5ZM1,8H5.5a.5.5,0,0,1,.5.5V11L9.69,8.11A.51.51,0,0,1,10,8H23V1H1Z"/><path d="M18.5,23a.46.46,0,0,1-.33-.13L13.81,19H.5a.5.5,0,0,1-.5-.5v-7A.5.5,0,0,1,.5,11H3a.5.5,0,0,1,0,1H1v6H14a.46.46,0,0,1,.33.13L18,21.39V18.5a.5.5,0,0,1,.5-.5H23V12H10.5a.5.5,0,0,1,0-1h13a.5.5,0,0,1,.5.5v7a.5.5,0,0,1-.5.5H19v3.5a.51.51,0,0,1-.3.46A.45.45,0,0,1,18.5,23Z"/></svg>