<svg xmlns="http://www.w3.org/2000/svg" viewBox="0 0 28.8 17.7"><title>f-parking</title><path d="M4.5,17.7A2.5,2.5,0,1,1,7,15.2,2.5,2.5,0,0,1,4.5,17.7Zm0-4A1.5,1.5,0,1,0,6,15.2,1.5,1.5,0,0,0,4.5,13.7Z"/><path d="M23.5,15.7h-3a.5.5,0,0,1,0-1h3a.5.5,0,0,1,0,1Z"/><path d="M18.5,17.7A2.5,2.5,0,1,1,21,15.2,2.5,2.5,0,0,1,18.5,17.7Zm0-4A1.5,1.5,0,1,0,20,15.2,1.5,1.5,0,0,0,18.5,13.7Z"/><path d="M16.5,15.7H6.5a.5.5,0,0,1,0-1h10a.5.5,0,0,1,0,1Z"/><path d="M22.5,15.7a.5.5,0,0,1-.5-.5V11.7a1,1,0,0,0-1-1H19.5a.51.51,0,0,1-.45-.28L17.19,6.7H8.31L6.45,10.42A.51.51,0,0,1,6,10.7H2a1,1,0,0,0-1,1v3H2.5a.5.5,0,0,1,0,1H.5a.5.5,0,0,1-.5-.5V11.7a2,2,0,0,1,2-2H5.69L7.55,6A.51.51,0,0,1,8,5.7h9.5A.51.51,0,0,1,18,6L19.81,9.7H21a2,2,0,0,1,2,2v3.5A.5.5,0,0,1,22.5,15.7Z"/><path d="M8.5,10.7a.54.54,0,0,1-.22,0A.51.51,0,0,1,8.05,10l1-2A.51.51,0,0,1,9.5,7.7h1a.5.5,0,1,1,0,1H9.81L9,10.42A.5.5,0,0,1,8.5,10.7Z"/><path d="M25.1,4.5h-.9a.5.5,0,0,1,0-1h.9a.6.6,0,0,0,.6-.6.61.61,0,0,0-.6-.6h-.6a.52.52,0,0,1-.8-.4V1.8a.5.5,0,0,1,.5-.5h.9a1.6,1.6,0,0,1,0,3.2Z"/><path d="M24.1,6.4a.5.5,0,0,1-.5-.5v-4a.5.5,0,0,1,.5-.5.5.5,0,0,1,.5.5v4A.5.5,0,0,1,24.1,6.4Z"/><path d="M27.4,7.8h-5A1.4,1.4,0,0,1,21,6.4v-5A1.4,1.4,0,0,1,22.4,0h5a1.4,1.4,0,0,1,1.4,1.4v5A1.4,1.4,0,0,1,27.4,7.8ZM22.4,1a.4.4,0,0,0-.4.4v5a.4.4,0,0,0,.4.4h5a.4.4,0,0,0,.4-.4v-5a.4.4,0,0,0-.4-.4Z"/></svg>