<svg xmlns="http://www.w3.org/2000/svg" viewBox="0 0 27.84 17.97"><title>f-parking</title><path d="M4.5,18A2.5,2.5,0,1,1,7,15.47,2.5,2.5,0,0,1,4.5,18Zm0-4A1.5,1.5,0,1,0,6,15.47,1.5,1.5,0,0,0,4.5,14Z"/><path d="M23.5,16h-3a.5.5,0,0,1,0-1h3a.5.5,0,0,1,0,1Z"/><path d="M18.5,18a2.5,2.5,0,1,1,2.5-2.5A2.5,2.5,0,0,1,18.5,18Zm0-4a1.5,1.5,0,1,0,1.5,1.5A1.5,1.5,0,0,0,18.5,14Z"/><path d="M16.5,16H6.5a.5.5,0,1,1,0-1h10a.5.5,0,0,1,0,1Z"/><path d="M22.5,16a.5.5,0,0,1-.5-.5V12a1,1,0,0,0-1-1H19.5a.51.51,0,0,1-.45-.28L17.19,7H8.31L6.45,10.69A.51.51,0,0,1,6,11H2a1,1,0,0,0-1,1v3H2.5a.5.5,0,0,1,0,1H.5a.5.5,0,0,1-.5-.5V12a2,2,0,0,1,2-2H5.69L7.55,6.25A.51.51,0,0,1,8,6h9.5a.51.51,0,0,1,.45.28L19.81,10H21a2,2,0,0,1,2,2v3.5A.5.5,0,0,1,22.5,16Z"/><path d="M8.5,11a.54.54,0,0,1-.22-.05.51.51,0,0,1-.23-.67l1-2A.51.51,0,0,1,9.5,8h1a.5.5,0,1,1,0,1H9.81L9,10.69A.5.5,0,0,1,8.5,11Z"/><path d="M24,4.51h-.92a.5.5,0,0,1-.5-.5.5.5,0,0,1,.5-.5H24a.58.58,0,0,0,.58-.58A.57.57,0,0,0,24,2.36H23.1l0-.45-.47-.16a.58.58,0,0,1,.49-.39H24a1.58,1.58,0,1,1,0,3.15Z"/><path d="M23.08,6.41a.5.5,0,0,1-.5-.5v-4a.5.5,0,0,1,.5-.5.5.5,0,0,1,.5.5V5.91A.5.5,0,0,1,23.08,6.41Z"/><path d="M26.45,7.77h-5a1.4,1.4,0,0,1-1.4-1.4v-5A1.4,1.4,0,0,1,21.48,0h5a1.4,1.4,0,0,1,1.39,1.4v5A1.4,1.4,0,0,1,26.45,7.77ZM21.48,1a.4.4,0,0,0-.4.4v5a.4.4,0,0,0,.4.4h5a.39.39,0,0,0,.39-.4v-5a.39.39,0,0,0-.39-.4Z"/></svg>