<svg xmlns="http://www.w3.org/2000/svg" viewBox="0 0 27.81 26.23"><title>f-pets</title><path d="M9.16,10.38a1.91,1.91,0,0,0-.68.13.93.93,0,0,1,.44.78,1,1,0,0,1-1,.94A1,1,0,0,1,7.33,12a2.11,2.11,0,0,0,0,.25,1.85,1.85,0,1,0,1.85-1.85Z"/><path d="M18,10.38a1.91,1.91,0,0,0-.68.13.93.93,0,0,1,.44.78,1,1,0,0,1-.95.94,1,1,0,0,1-.64-.25,2.11,2.11,0,0,0,0,.25A1.85,1.85,0,1,0,18,10.38Z"/><path d="M13.76,18.25h0a.5.5,0,0,1-.39-.18l-1.83-2.2a.5.5,0,0,1,.38-.82h3.67a.5.5,0,0,1,.39.82l-1.84,2.2A.46.46,0,0,1,13.76,18.25ZM13,16.05l.77.92.77-.92Z"/><path d="M3.13,8a.5.5,0,0,1-.49-.46c-.08-1-.43-6,.71-7.32A.49.49,0,0,1,4,.08a21.87,21.87,0,0,1,4.78,4.1A.5.5,0,0,1,8,4.8,21.2,21.2,0,0,0,3.91,1.21c-.47,1.25-.43,4.33-.28,6.21A.5.5,0,0,1,3.18,8Z"/><path d="M4.65,7a.51.51,0,0,1-.5-.47c0-.76,0-3.06,0-3.16a.52.52,0,0,1,.51-.49.49.49,0,0,1,.49.5s0,2.37,0,3.1A.49.49,0,0,1,4.68,7Z"/><path d="M24.36,8h0a.51.51,0,0,1-.46-.54c.15-1.88.19-5-.27-6.21a21,21,0,0,0-4.1,3.59.5.5,0,0,1-.78-.62A21.87,21.87,0,0,1,23.49.08a.49.49,0,0,1,.65.1c1.14,1.35.8,6.33.71,7.32A.5.5,0,0,1,24.36,8Z"/><path d="M22.84,7h0a.49.49,0,0,1-.47-.52c0-.73,0-3.07,0-3.1a.49.49,0,0,1,.49-.5.52.52,0,0,1,.51.49c0,.1,0,2.4,0,3.16A.51.51,0,0,1,22.84,7Z"/><path d="M13.91,26.23c-6.76,0-9.65-3.32-13.8-8.66A.51.51,0,0,1,0,17.19a.52.52,0,0,1,.21-.33C1,16.3,1.9,12.78,2.45,10.67c.24-.9.45-1.7.62-2.26a.5.5,0,0,1,.63-.32A.49.49,0,0,1,4,8.71c-.18.55-.38,1.33-.61,2.21-.77,3-1.44,5.35-2.26,6.38,3.94,5,6.58,7.89,12.75,7.93s8.8-2.89,12.74-7.93c-.81-1-1.49-3.42-2.26-6.38-.23-.88-.43-1.66-.6-2.21a.49.49,0,0,1,.32-.62.5.5,0,0,1,.63.32c.18.56.39,1.36.62,2.26.55,2.11,1.47,5.63,2.24,6.19a.52.52,0,0,1,.21.33.5.5,0,0,1-.1.38C23.55,22.91,20.66,26.19,13.91,26.23Z"/><path d="M10.33,21.57a3.83,3.83,0,0,1-3.82-3.82.51.51,0,0,1,.5-.5.5.5,0,0,1,.5.5,2.82,2.82,0,0,0,5.64,0,.5.5,0,0,1,1,0A3.82,3.82,0,0,1,10.33,21.57Z"/><path d="M17.22,21.57a3.82,3.82,0,0,1-3.81-3.82.5.5,0,0,1,.5-.5.51.51,0,0,1,.5.5,2.82,2.82,0,1,0,5.63,0,.5.5,0,0,1,1,0A3.82,3.82,0,0,1,17.22,21.57Z"/><path d="M13.76,23.25A2.51,2.51,0,0,1,11,21.07a.5.5,0,0,1,.5-.5.51.51,0,0,1,.5.5c0,.64.8,1.18,1.74,1.18s1.74-.54,1.74-1.18a.5.5,0,0,1,.5-.5.51.51,0,0,1,.5.5A2.51,2.51,0,0,1,13.76,23.25Z"/><path d="M18.38,3.23a.47.47,0,0,1-.27-.08A8.43,8.43,0,0,0,13.72,2,8.43,8.43,0,0,0,9.33,3.15a.5.5,0,1,1-.54-.84A9.27,9.27,0,0,1,13.72,1a9.27,9.27,0,0,1,4.93,1.28A.5.5,0,0,1,18.8,3,.48.48,0,0,1,18.38,3.23Z"/><path d="M8.22,9.21a.5.5,0,0,1-.2-1,8.41,8.41,0,0,1,2.27-.49.5.5,0,0,1,.54.46.5.5,0,0,1-.45.54,7.42,7.42,0,0,0-2,.41A.43.43,0,0,1,8.22,9.21Z"/><path d="M19,9.21a.43.43,0,0,1-.19,0,7.4,7.4,0,0,0-2-.41.5.5,0,0,1-.46-.54A.5.5,0,0,1,17,7.76a8.41,8.41,0,0,1,2.27.49.5.5,0,0,1,.26.66A.49.49,0,0,1,19,9.21Z"/></svg>