<svg xmlns="http://www.w3.org/2000/svg" viewBox="0 0 27.8 26.3"><title>f-pets</title><path d="M9.1,10.4a1.7,1.7,0,0,0-.7.1.81.81,0,0,1,.4.8.9.9,0,0,1-.9.9.71.71,0,0,1-.6-.3v.3a1.8,1.8,0,1,0,1.8-1.8Z"/><path d="M17.9,10.4a1.7,1.7,0,0,0-.7.1.81.81,0,0,1,.4.8.9.9,0,0,1-.9.9.71.71,0,0,1-.6-.3v.3a1.8,1.8,0,1,0,1.8-1.8Z"/><path d="M13.7,18.3a.52.52,0,0,1-.38-.17l-1.9-2.2a.49.49,0,0,1-.07-.54.5.5,0,0,1,.45-.29h3.7a.51.51,0,0,1,.39.82l-1.8,2.2a.53.53,0,0,1-.38.18Zm-.81-2.2.8.92.76-.92Z"/><path d="M3,8a.5.5,0,0,1-.5-.46c-.08-1-.46-6,.72-7.36a.49.49,0,0,1,.64-.1A21.7,21.7,0,0,1,8.69,4.19a.5.5,0,0,1-.78.62,20.22,20.22,0,0,0-4.14-3.6c-.48,1.25-.44,4.36-.27,6.25A.5.5,0,0,1,3,8Z"/><path d="M4.6,7a.5.5,0,0,1-.5-.5V3.4a.51.51,0,0,1,.5-.5.5.5,0,0,1,.5.5V6.5A.5.5,0,0,1,4.6,7Z"/><path d="M24.3,8h0a.5.5,0,0,1-.46-.54c.17-1.89.21-5-.27-6.25a20.22,20.22,0,0,0-4.14,3.6.5.5,0,0,1-.78-.62A21.7,21.7,0,0,1,23.44.08a.48.48,0,0,1,.64.1c1.18,1.39.8,6.38.72,7.36A.5.5,0,0,1,24.3,8Z"/><path d="M22.7,7a.5.5,0,0,1-.5-.5V3.4a.5.5,0,1,1,1,0V6.5A.5.5,0,0,1,22.7,7Z"/><path d="M13.91,26.3C7.1,26.3,4.23,23,.1,17.6a.53.53,0,0,1-.1-.37.5.5,0,0,1,.2-.33c.74-.55,1.69-4,2.26-6.12.25-.94.47-1.76.67-2.34a.5.5,0,1,1,.94.32c-.18.55-.4,1.35-.65,2.28-.79,2.91-1.48,5.27-2.26,6.3,3.91,5.09,6.53,8,12.74,8s8.8-2.93,12.73-8c-.83-1-1.5-3.37-2.26-6.27-.25-.94-.46-1.75-.64-2.31a.5.5,0,0,1,.94-.32c.2.59.42,1.42.67,2.38.54,2.06,1.45,5.52,2.24,6.07a.5.5,0,0,1,.11.72C24,22.41,21,26.19,13.91,26.3Z"/><path d="M10.2,21.6a3.85,3.85,0,0,1-3.8-3.8.5.5,0,0,1,.5-.5.51.51,0,0,1,.5.5,2.8,2.8,0,0,0,5.6,0,.5.5,0,0,1,.5-.5.51.51,0,0,1,.5.5A3.85,3.85,0,0,1,10.2,21.6Z"/><path d="M17.1,21.6a3.85,3.85,0,0,1-3.8-3.8.5.5,0,0,1,1,0,2.8,2.8,0,0,0,5.6,0,.5.5,0,0,1,1,0A3.85,3.85,0,0,1,17.1,21.6Z"/><path d="M13.7,23.3A2.44,2.44,0,0,1,11,21.1a.5.5,0,0,1,1,0c0,.67.75,1.2,1.7,1.2s1.7-.63,1.7-1.2a.5.5,0,1,1,1,0A2.53,2.53,0,0,1,13.7,23.3Z"/><path d="M18.3,3.3a.45.45,0,0,1-.25-.07A8.86,8.86,0,0,0,13.6,2.1,9,9,0,0,0,9.15,3.23a.5.5,0,0,1-.5-.86A10,10,0,0,1,13.6,1.1a9.75,9.75,0,0,1,5,1.27.5.5,0,0,1-.25.93Z"/><path d="M8.1,9.2a.51.51,0,0,1-.47-.32.52.52,0,0,1,.3-.65,11.86,11.86,0,0,1,2.2-.52.5.5,0,1,1,.15,1,11,11,0,0,0-2,.48Z"/><path d="M18.9,9.2a.47.47,0,0,1-.17,0,11.59,11.59,0,0,0-2-.48.49.49,0,0,1-.41-.57.49.49,0,0,1,.57-.41,12.43,12.43,0,0,1,2.2.52.52.52,0,0,1,.29.65A.51.51,0,0,1,18.9,9.2Z"/></svg>