<svg xmlns="http://www.w3.org/2000/svg" viewBox="0 0 24 23"><title>f-phone</title><path d="M14.93,19.12a2,2,0,0,1-1.13-.34,24.6,24.6,0,0,1-6.9-6.89A2.06,2.06,0,0,1,7.16,9.3l.6-.61a1.55,1.55,0,0,1,2.18,0L11,9.79A1.55,1.55,0,0,1,11,12h0l0,0a24,24,0,0,0,2.67,2.66l0,0a1.55,1.55,0,0,1,2.18,0l1.1,1.1a1.55,1.55,0,0,1,0,2.18l-.6.6A2.06,2.06,0,0,1,14.93,19.12ZM8.85,9.24a.52.52,0,0,0-.38.16l-.6.6a1.07,1.07,0,0,0-.14,1.34A23.67,23.67,0,0,0,14.35,18a1.06,1.06,0,0,0,1.33-.13l.61-.61a.52.52,0,0,0,.15-.38.54.54,0,0,0-.15-.38l-1.11-1.1a.54.54,0,0,0-.76,0l-.37.36a.49.49,0,0,1-.67,0A24.92,24.92,0,0,1,9.94,12.3a.49.49,0,0,1,0-.67l.37-.37a.54.54,0,0,0,0-.76L9.23,9.4A.51.51,0,0,0,8.85,9.24Zm1.84,2.38h0Z"/><path d="M20.5,23H9.5a.5.5,0,0,1,0-1H20V13a.5.5,0,0,1,1,0v9.5A.5.5,0,0,1,20.5,23Z"/><path d="M9.5,23h-6a.5.5,0,0,1-.5-.5v-10a.5.5,0,0,1,1,0V22H9.5a.5.5,0,0,1,0,1Z"/><path d="M23.5,12.5a.47.47,0,0,1-.35-.15L12,1.21.85,12.35a.48.48,0,0,1-.7,0,.48.48,0,0,1,0-.7L11.65.15a.48.48,0,0,1,.7,0l11.5,11.5a.48.48,0,0,1,0,.7A.47.47,0,0,1,23.5,12.5Z"/></svg>