<svg xmlns="http://www.w3.org/2000/svg" viewBox="0 0 24 23"><title>f-phone</title><path d="M14.92,19.14a2,2,0,0,1-1.1-.32,25,25,0,0,1-6.93-6.94,2.14,2.14,0,0,1,.26-2.63l.6-.6a1.58,1.58,0,0,1,2.21,0l1.1,1.1a1.59,1.59,0,0,1,0,2.2h0L11,12a28.46,28.46,0,0,0,2.69,2.69l.08-.07a1.58,1.58,0,0,1,2.21,0l1.09,1.1a1.57,1.57,0,0,1,0,2.2l-.59.6A2.39,2.39,0,0,1,14.92,19.14ZM8.85,9.2a.53.53,0,0,0-.39.15l-.61.6a1.16,1.16,0,0,0-.11,1.4A23.68,23.68,0,0,0,14.38,18a1.18,1.18,0,0,0,1.4-.16l.57-.57a.61.61,0,0,0,0-.8l-1.1-1.1a.6.6,0,0,0-.79,0l-.41.4a.48.48,0,0,1-.67,0,26.93,26.93,0,0,1-3.46-3.46.48.48,0,0,1,0-.67l.4-.4a.61.61,0,0,0,0-.8l-1.1-1.1A.55.55,0,0,0,8.85,9.2Zm1.85,2.4h0Z"/><path d="M20.5,23H9.5a.5.5,0,0,1,0-1H20V13a.5.5,0,0,1,1,0v9.5A.5.5,0,0,1,20.5,23Z"/><path d="M9.5,23h-6a.5.5,0,0,1-.5-.5v-10a.5.5,0,0,1,1,0V22H9.5a.5.5,0,0,1,0,1Z"/><path d="M23.5,12.5a.47.47,0,0,1-.35-.15L12,1.21.85,12.35a.48.48,0,0,1-.7,0,.48.48,0,0,1,0-.7L11.65.15a.48.48,0,0,1,.7,0l11.5,11.5a.48.48,0,0,1,0,.7A.47.47,0,0,1,23.5,12.5Z"/></svg>