<svg xmlns="http://www.w3.org/2000/svg" viewBox="0 0 35.3 30.74"><title>f-reception</title><path d="M32.6,30.74H2.6a.5.5,0,0,1-.5-.5V14.64a.51.51,0,0,1,.5-.5h30a.5.5,0,0,1,.5.5v15.6A.5.5,0,0,1,32.6,30.74Zm-29.5-1h29V15.14H3.1Z"/><path d="M34.8,15.14H.5a.5.5,0,0,1-.5-.5v-2.2a.5.5,0,0,1,.5-.5H34.8a.5.5,0,0,1,.5.5v2.2A.5.5,0,0,1,34.8,15.14ZM1,14.14H34.3v-1.2H1Z"/><path d="M13.39,8.26a2.2,2.2,0,0,1-2.05-1.42.49.49,0,0,1,0-.47.52.52,0,0,1,.42-.23c.53,0,.79-1.13,1-2.22.33-1.45.71-3.1,2-3.7A3.33,3.33,0,0,1,17.7.49,3.33,3.33,0,0,1,20.58.22c1.27.6,1.65,2.25,2,3.7.25,1.09.51,2.22,1,2.22a.5.5,0,0,1,.42.23.51.51,0,0,1,0,.48A2.2,2.2,0,0,1,21.5,8.13a2,2,0,0,1-1.7-1.79.5.5,0,0,1,1,0c0,.36.39.71.91.82a1.3,1.3,0,0,0,1.1-.25c-.7-.49-1-1.64-1.22-2.77s-.61-2.63-1.43-3a2.69,2.69,0,0,0-2.24.37.49.49,0,0,1-.44,0,2.7,2.7,0,0,0-2.24-.37c-.82.39-1.14,1.79-1.43,3s-.52,2.31-1.24,2.78a1.19,1.19,0,0,0,1.1.31c.45-.09.93-.43.93-.89a.5.5,0,1,1,1,0,2,2,0,0,1-1.73,1.88A2.59,2.59,0,0,1,13.39,8.26Z"/><path d="M17.6,9.24a.47.47,0,0,1-.17,0,4.67,4.67,0,0,1-2.94-2.75,1.26,1.26,0,0,1-.69-1.22A1.27,1.27,0,0,1,14.5,4l.22-.81a.5.5,0,0,1,.48-.37c1.42,0,1.64-.36,1.82-.64a1.55,1.55,0,0,1,.23-.31.48.48,0,0,1,.7,0,1.55,1.55,0,0,1,.23.31c.18.28.4.64,1.82.64a.49.49,0,0,1,.48.37l.23.81a1.28,1.28,0,0,1,.69,1.22,1.26,1.26,0,0,1-.69,1.22,4.68,4.68,0,0,1-2.93,2.75Zm-2-5.41-.2.74a.49.49,0,0,1-.48.37.37.37,0,0,0-.1.3c0,.18.06.29.09.3a.5.5,0,0,1,.5.41A3.41,3.41,0,0,0,17.6,8.2,3.41,3.41,0,0,0,19.81,6a.49.49,0,0,1,.49-.41s.1-.12.1-.3a.42.42,0,0,0-.09-.3.51.51,0,0,1-.49-.37l-.2-.74a2.63,2.63,0,0,1-2-.74A2.63,2.63,0,0,1,15.58,3.83Z"/><path d="M23.8,12.94H11.5a.5.5,0,0,1-.5-.5v-.8C11,9.75,12.86,9,14.84,8.13l1.25-.54a.49.49,0,0,1,.66.24.5.5,0,0,1-.24.67c-.43.2-.86.38-1.28.55-2,.85-3.23,1.42-3.23,2.59v.3H23.3v-.3c0-1.17-1.23-1.74-3.23-2.59-.42-.17-.85-.35-1.28-.55a.5.5,0,0,1,.42-.91l1.25.54c2,.83,3.84,1.62,3.84,3.51v.8A.5.5,0,0,1,23.8,12.94Z"/><path d="M17.7,12.94a.5.5,0,0,1-.5-.5c0-.5-.76-.91-1.49-1.31-.94-.51-2-1.09-2-2.19a.5.5,0,0,1,1,0c0,.5.76.91,1.49,1.31.94.51,2,1.09,2,2.19A.5.5,0,0,1,17.7,12.94Z"/><path d="M17.6,12.94a.5.5,0,0,1-.5-.5c0-1.1,1.07-1.68,2-2.19.73-.4,1.49-.81,1.49-1.31a.5.5,0,0,1,.5-.5.5.5,0,0,1,.5.5c0,1.1-1.07,1.68-2,2.19-.73.4-1.49.81-1.49,1.31A.5.5,0,0,1,17.6,12.94Z"/></svg>