<svg xmlns="http://www.w3.org/2000/svg" viewBox="0 0 24 21"><title>f-secure</title><path d="M15.5,8H4.5A.5.5,0,0,1,4,7.5V3A3,3,0,0,1,7,0H23.5a.52.52,0,0,1,.41.21A.48.48,0,0,1,24,.66l-1,3a.48.48,0,0,1-.33.32L16,5.88V7.5A.5.5,0,0,1,15.5,8ZM5,7H15V5.5A.5.5,0,0,1,15.36,5l6.75-1.93L22.81,1H7A2,2,0,0,0,5,3Z"/><path d="M19.5,10H7.5A2.44,2.44,0,0,1,5,7.57a.5.5,0,0,1,1,0A1.43,1.43,0,0,0,7.5,9H19V4.36a.5.5,0,1,1,1,0V9.5A.5.5,0,0,1,19.5,10Z"/><path d="M21.5,8.5A.5.5,0,0,1,21,8V6a.5.5,0,0,1,1,0V8A.5.5,0,0,1,21.5,8.5Z"/><path d="M12.5,12h-4a.5.5,0,0,1,0-1h4a.5.5,0,0,1,0,1Z"/><path d="M.5,19a.5.5,0,0,1-.1-1L10,16.09V11.5a.5.5,0,0,1,1,0v5a.5.5,0,0,1-.4.49L.6,19Z"/><path d="M.5,21a.5.5,0,0,1-.5-.5v-4A.5.5,0,0,1,.5,16a.5.5,0,0,1,.5.5v4A.5.5,0,0,1,.5,21Z"/></svg>