<svg xmlns="http://www.w3.org/2000/svg" viewBox="0 0 28 27.18"><title>f-shower</title><path d="M27.5,27.18a.5.5,0,0,1-.5-.5V12c0-5.73-4.81-8.6-7.5-8.6a.5.5,0,0,1,0-1A9.35,9.35,0,0,1,28,12V26.68A.5.5,0,0,1,27.5,27.18Z"/><path d="M19.1,11.28a.5.5,0,0,1-.33-.12l-9.5-8.3A.53.53,0,0,1,9.1,2.5a.46.46,0,0,1,.14-.36,6.72,6.72,0,0,1,9.39-.44,6.9,6.9,0,0,1,.86,9.39.51.51,0,0,1-.34.19ZM10.34,2.46,19,10a5.9,5.9,0,0,0-1-7.59A5.73,5.73,0,0,0,10.34,2.46Z"/><path d="M18.2,10.48h-.12c-6.82-1.66-8.12-7-8.17-7.18a.5.5,0,1,1,1-.22c0,.2,1.23,4.92,7.43,6.42a.51.51,0,0,1,.37.61A.5.5,0,0,1,18.2,10.48Z"/><path d="M3.2,17.51a.5.5,0,0,1-.35-.86l6.5-6.43a.5.5,0,0,1,.71,0,.49.49,0,0,1,0,.7l-6.5,6.43A.49.49,0,0,1,3.2,17.51Z"/><path d="M.5,14.18A.49.49,0,0,1,.09,14a.51.51,0,0,1,.12-.7L7.71,8a.5.5,0,1,1,.58.82l-7.5,5.3A.52.52,0,0,1,.5,14.18Z"/><path d="M7.1,20.28a.56.56,0,0,1-.27-.08.5.5,0,0,1-.15-.69l4.9-7.7a.5.5,0,0,1,.84.54l-4.9,7.7A.49.49,0,0,1,7.1,20.28Z"/><path d="M11.4,22.28a.45.45,0,0,1-.16,0,.5.5,0,0,1-.31-.64l3-8.6a.49.49,0,0,1,.63-.3.49.49,0,0,1,.31.63l-3,8.6A.49.49,0,0,1,11.4,22.28Z"/></svg>