<svg xmlns="http://www.w3.org/2000/svg" viewBox="0 0 18 28.81"><title>f-terrace</title><path d="M17.5,28.81H.5a.5.5,0,0,1-.5-.5v-21a.5.5,0,0,1,.5-.5h17a.5.5,0,0,1,.5.5v21A.5.5,0,0,1,17.5,28.81ZM1,27.81H17v-20H1Z"/><path d="M10.5,28.81h-3a.5.5,0,0,1-.5-.5v-4a.5.5,0,0,1,.5-.5h3a.5.5,0,0,1,.5.5v4A.5.5,0,0,1,10.5,28.81Zm-2.5-1h2v-3H8Z"/><path d="M10.5,22.81h-3a.5.5,0,0,1-.5-.5v-3a.5.5,0,0,1,.5-.5h3a.5.5,0,0,1,.5.5v3A.5.5,0,0,1,10.5,22.81Zm-2.5-1h2v-2H8Z"/><path d="M15.5,22.81h-3a.5.5,0,0,1-.5-.5v-3a.5.5,0,0,1,.5-.5h3a.5.5,0,0,1,.5.5v3A.5.5,0,0,1,15.5,22.81Zm-2.5-1h2v-2H13Z"/><path d="M5.5,22.81h-3a.5.5,0,0,1-.5-.5v-3a.5.5,0,0,1,.5-.5h3a.5.5,0,0,1,.5.5v3A.5.5,0,0,1,5.5,22.81Zm-2.5-1H5v-2H3Z"/><path d="M10.5,17.81h-3a.5.5,0,0,1-.5-.5v-3a.5.5,0,0,1,.5-.5h3a.5.5,0,0,1,.5.5v3A.5.5,0,0,1,10.5,17.81Zm-2.5-1h2v-2H8Z"/><path d="M15.5,17.81h-3a.5.5,0,0,1-.5-.5v-3a.5.5,0,0,1,.5-.5h3a.5.5,0,0,1,.5.5v3A.5.5,0,0,1,15.5,17.81Zm-2.5-1h2v-2H13Z"/><path d="M5.5,17.81h-3a.5.5,0,0,1-.5-.5v-3a.5.5,0,0,1,.5-.5h3a.5.5,0,0,1,.5.5v3A.5.5,0,0,1,5.5,17.81Zm-2.5-1H5v-2H3Z"/><path d="M10.5,12.81h-3a.5.5,0,0,1-.5-.5v-3a.5.5,0,0,1,.5-.5h3a.5.5,0,0,1,.5.5v3A.5.5,0,0,1,10.5,12.81Zm-2.5-1h2v-2H8Z"/><path d="M15.5,12.81h-3a.5.5,0,0,1-.5-.5v-3a.5.5,0,0,1,.5-.5h3a.5.5,0,0,1,.5.5v3A.5.5,0,0,1,15.5,12.81Zm-2.5-1h2v-2H13Z"/><path d="M5.5,12.81h-3a.5.5,0,0,1-.5-.5v-3a.5.5,0,0,1,.5-.5h3a.5.5,0,0,1,.5.5v3A.5.5,0,0,1,5.5,12.81Zm-2.5-1H5v-2H3Z"/><path d="M17.5,7.81H.5A.5.5,0,0,1,0,7.5.48.48,0,0,1,.15,7l2-2a.51.51,0,0,1,.35-.15h13a.51.51,0,0,1,.35.15l2,2A.48.48,0,0,1,18,7.5.5.5,0,0,1,17.5,7.81Zm-15.79-1H16.29l-1-1H2.71Z"/><path d="M9,3H9a.53.53,0,0,1-.36-.15l-2-2a.48.48,0,0,1,0-.7.5.5,0,0,1,.71,0L9,1.77,10.61.19a.51.51,0,0,1,.71,0,.5.5,0,0,1,0,.71L9.39,2.83A.51.51,0,0,1,9,3Z"/></svg>