<svg xmlns="http://www.w3.org/2000/svg" viewBox="0 0 18 29.1"><title>f-terrace</title><path d="M17.5,29.1H.5a.5.5,0,0,1-.5-.5V7.6a.5.5,0,0,1,.5-.5h17a.5.5,0,0,1,.5.5v21A.5.5,0,0,1,17.5,29.1ZM1,28.1H17V8.1H1Z"/><path d="M10.5,29.1h-3a.5.5,0,0,1-.5-.5v-4a.5.5,0,0,1,.5-.5h3a.5.5,0,0,1,.5.5v4A.5.5,0,0,1,10.5,29.1ZM8,28.1h2v-3H8Z"/><path d="M10.5,23.1h-3a.5.5,0,0,1-.5-.5v-3a.5.5,0,0,1,.5-.5h3a.5.5,0,0,1,.5.5v3A.5.5,0,0,1,10.5,23.1ZM8,22.1h2v-2H8Z"/><path d="M15.5,23.1h-3a.5.5,0,0,1-.5-.5v-3a.5.5,0,0,1,.5-.5h3a.5.5,0,0,1,.5.5v3A.5.5,0,0,1,15.5,23.1Zm-2.5-1h2v-2H13Z"/><path d="M5.5,23.1h-3a.5.5,0,0,1-.5-.5v-3a.5.5,0,0,1,.5-.5h3a.5.5,0,0,1,.5.5v3A.5.5,0,0,1,5.5,23.1ZM3,22.1H5v-2H3Z"/><path d="M10.5,18.1h-3a.5.5,0,0,1-.5-.5v-3a.5.5,0,0,1,.5-.5h3a.5.5,0,0,1,.5.5v3A.5.5,0,0,1,10.5,18.1ZM8,17.1h2v-2H8Z"/><path d="M15.5,18.1h-3a.5.5,0,0,1-.5-.5v-3a.5.5,0,0,1,.5-.5h3a.5.5,0,0,1,.5.5v3A.5.5,0,0,1,15.5,18.1Zm-2.5-1h2v-2H13Z"/><path d="M5.5,18.1h-3a.5.5,0,0,1-.5-.5v-3a.5.5,0,0,1,.5-.5h3a.5.5,0,0,1,.5.5v3A.5.5,0,0,1,5.5,18.1ZM3,17.1H5v-2H3Z"/><path d="M10.5,13.1h-3a.5.5,0,0,1-.5-.5v-3a.5.5,0,0,1,.5-.5h3a.5.5,0,0,1,.5.5v3A.5.5,0,0,1,10.5,13.1ZM8,12.1h2v-2H8Z"/><path d="M15.5,13.1h-3a.5.5,0,0,1-.5-.5v-3a.5.5,0,0,1,.5-.5h3a.5.5,0,0,1,.5.5v3A.5.5,0,0,1,15.5,13.1Zm-2.5-1h2v-2H13Z"/><path d="M5.5,13.1h-3a.5.5,0,0,1-.5-.5v-3a.5.5,0,0,1,.5-.5h3a.5.5,0,0,1,.5.5v3A.5.5,0,0,1,5.5,13.1ZM3,12.1H5v-2H3Z"/><path d="M17.5,8.1H.5A.5.5,0,0,1,0,7.79a.47.47,0,0,1,.11-.54l2-2A.47.47,0,0,1,2.5,5.1h13a.47.47,0,0,1,.35.15l2,2a.47.47,0,0,1,.11.54A.5.5,0,0,1,17.5,8.1ZM1.71,7.1H16.29l-1-1H2.71Z"/><path d="M9.1,3a.47.47,0,0,1-.35-.15l-2-2a.48.48,0,0,1,0-.7.5.5,0,0,1,.71,0L9.09,1.78,10.64.16a.5.5,0,1,1,.72.68l-1.9,2A.48.48,0,0,1,9.11,3Z"/></svg>