<svg xmlns="http://www.w3.org/2000/svg" viewBox="0 0 24 24"><title>f-time</title><path d="M4.5,12h-2a.5.5,0,0,1,0-1h2a.5.5,0,0,1,0,1Z"/><path d="M21.5,12h-2a.5.5,0,0,1,0-1h2a.5.5,0,0,1,0,1Z"/><path d="M12,22a.5.5,0,0,1-.5-.5v-2a.5.5,0,0,1,1,0v2A.5.5,0,0,1,12,22Z"/><path d="M12,5a.5.5,0,0,1-.5-.5v-2a.5.5,0,0,1,1,0v2A.5.5,0,0,1,12,5Z"/><path d="M5.3,19.2A.47.47,0,0,1,5,19.05a.48.48,0,0,1,0-.7L6.35,17a.49.49,0,1,1,.7.7l-1.4,1.4A.47.47,0,0,1,5.3,19.2Z"/><path d="M17.3,7.2A.47.47,0,0,1,17,7.05a.48.48,0,0,1,0-.7L18.35,5a.49.49,0,1,1,.7.7l-1.4,1.4A.47.47,0,0,1,17.3,7.2Z"/><path d="M18.7,19.2a.49.49,0,0,1-.35-.15L17,17.65a.49.49,0,1,1,.7-.7l1.4,1.4a.48.48,0,0,1,0,.7A.47.47,0,0,1,18.7,19.2Z"/><path d="M6.7,7.2a.47.47,0,0,1-.35-.15L5,5.65a.49.49,0,0,1,.7-.7l1.4,1.4a.48.48,0,0,1,0,.7A.47.47,0,0,1,6.7,7.2Z"/><path d="M12,24A12,12,0,1,1,24,12,12,12,0,0,1,12,24ZM12,1A11,11,0,1,0,23,12,11,11,0,0,0,12,1Z"/></svg>