<svg xmlns="http://www.w3.org/2000/svg" viewBox="0 0 24 24"><title>f-time</title><path d="M4.5,12h-2a.5.5,0,0,1,0-1h2a.5.5,0,0,1,0,1Z"/><path d="M21.5,12h-2a.5.5,0,0,1,0-1h2a.5.5,0,0,1,0,1Z"/><path d="M12,22a.5.5,0,0,1-.5-.5v-2a.5.5,0,0,1,1,0v2A.5.5,0,0,1,12,22Z"/><path d="M12,5a.5.5,0,0,1-.5-.5v-2a.5.5,0,0,1,1,0v2A.5.5,0,0,1,12,5Z"/><path d="M5.28,19.22a.49.49,0,0,1-.35-.15.5.5,0,0,1,0-.71L6.34,17a.5.5,0,1,1,.71.71L5.64,19.07A.51.51,0,0,1,5.28,19.22Z"/><path d="M17.3,7.2A.49.49,0,0,1,17,7.05a.5.5,0,0,1,0-.71l1.41-1.41a.5.5,0,0,1,.71.71L17.66,7.05A.51.51,0,0,1,17.3,7.2Z"/><path d="M18.72,19.22a.51.51,0,0,1-.36-.15L17,17.66a.5.5,0,0,1,.71-.71l1.41,1.41a.5.5,0,0,1,0,.71A.5.5,0,0,1,18.72,19.22Z"/><path d="M6.7,7.2a.51.51,0,0,1-.36-.15L4.93,5.64a.5.5,0,0,1,.71-.71L7.05,6.34a.5.5,0,0,1,0,.71A.5.5,0,0,1,6.7,7.2Z"/><path d="M12,24A12,12,0,1,1,24,12,12,12,0,0,1,12,24ZM12,1A11,11,0,1,0,23,12,11,11,0,0,0,12,1Z"/></svg>