<svg xmlns="http://www.w3.org/2000/svg" viewBox="0 0 24 19"><title>f-tool</title><path d="M19,10H10.45A2.45,2.45,0,0,1,8,7.55V2a2,2,0,0,1,2-2h9a5,5,0,0,1,0,10ZM10,1A1,1,0,0,0,9,2V7.55A1.45,1.45,0,0,0,10.45,9H19a4,4,0,0,0,0-8Z"/><path d="M8.5,8h-3A.5.5,0,0,1,5,7.5v-5A.5.5,0,0,1,5.5,2h3a.5.5,0,0,1,.5.5v5A.5.5,0,0,1,8.5,8ZM6,7H8V3H6Z"/><path d="M5.5,6H.5a.5.5,0,0,1,0-1h5a.5.5,0,0,1,0,1Z"/><path d="M15.92,12H13.5a.5.5,0,0,1-.5-.5v-2h1V11h1.92Z"/><path d="M13.5,10a.5.5,0,0,1-.5-.5V.5a.5.5,0,0,1,1,0v9A.5.5,0,0,1,13.5,10Z"/><path d="M18.5,19h-4a.5.5,0,0,1,0-1h4a.5.5,0,0,1,0,1Z"/><path d="M20.5,19h-3a.5.5,0,0,1-.49-.39l-2-9a.49.49,0,0,1,.1-.42A.51.51,0,0,1,15.5,9h3a.5.5,0,0,1,.49.39l2,9a.49.49,0,0,1-.1.42A.51.51,0,0,1,20.5,19Zm-2.6-1h2L18.1,10h-2Z"/></svg>