<svg xmlns="http://www.w3.org/2000/svg" viewBox="0 0 24 24"><title>f-traiding</title><path d="M23.5,24H.5a.5.5,0,0,1-.5-.5V1.5A.5.5,0,0,1,.5,1h3a.5.5,0,0,1,0,1H1V23H23V2H11.5a.5.5,0,0,1,0-1h12a.5.5,0,0,1,.5.5v22A.5.5,0,0,1,23.5,24Z"/><path d="M11.5,14a.47.47,0,0,1-.35-.15L7.5,10.21,3.85,13.85a.47.47,0,0,1-.54.11A.5.5,0,0,1,3,13.5V.5A.5.5,0,0,1,3.5,0h8a.5.5,0,0,1,.5.5v13a.5.5,0,0,1-.31.46A.43.43,0,0,1,11.5,14Zm-4-5a.47.47,0,0,1,.35.15L11,12.29V1H4V12.29L7.15,9.15A.47.47,0,0,1,7.5,9Z"/><path d="M20.5,8h-6a.5.5,0,0,1,0-1h6a.5.5,0,0,1,0,1Z"/><path d="M20.5,11h-6a.5.5,0,0,1,0-1h6a.5.5,0,0,1,0,1Z"/><path d="M20.5,14h-6a.5.5,0,0,1,0-1h6a.5.5,0,0,1,0,1Z"/><path d="M20.5,17H3.5a.5.5,0,0,1,0-1h17a.5.5,0,0,1,0,1Z"/><path d="M16.5,20H3.5a.5.5,0,0,1,0-1h13a.5.5,0,0,1,0,1Z"/></svg>