<svg xmlns="http://www.w3.org/2000/svg" viewBox="0 0 23.7 32.14"><title>f-utilities</title><path d="M16.2,30.3a.5.5,0,0,1-.5-.5v-4a.5.5,0,0,1,1,0v4A.5.5,0,0,1,16.2,30.3Z"/><path d="M16.3,19.5a.5.5,0,0,1-.5-.5V12.3A6.59,6.59,0,0,0,9.3,5.8,6.47,6.47,0,0,0,4.38,8a.5.5,0,1,1-.76-.66A7.52,7.52,0,0,1,16.8,12.3V19A.5.5,0,0,1,16.3,19.5Z"/><path d="M21.4,30.3a.5.5,0,0,1-.5-.5V25.9a.5.5,0,0,1,.5-.5.5.5,0,0,1,.5.5v3.9A.5.5,0,0,1,21.4,30.3Z"/><path d="M21.4,19.3a.5.5,0,0,1-.5-.5V12.7A11.72,11.72,0,0,0,9.2,1,11.43,11.43,0,0,0,.86,4.55a.51.51,0,0,1-.71,0,.51.51,0,0,1,0-.71A12.43,12.43,0,0,1,9.2,0,12.72,12.72,0,0,1,21.9,12.7v6.1A.5.5,0,0,1,21.4,19.3Z"/><path d="M4,8.2a.47.47,0,0,1-.35-.15L.15,4.55a.48.48,0,0,1,0-.7.48.48,0,0,1,.7,0l3.5,3.5a.48.48,0,0,1,0,.7A.47.47,0,0,1,4,8.2Z"/><path d="M22.78,32.14h-7.9a.5.5,0,0,1-.5-.5v-1.9a.5.5,0,0,1,.5-.5h7.9a.5.5,0,0,1,.5.5v1.9A.5.5,0,0,1,22.78,32.14Zm-7.4-1h6.9v-.9h-6.9Z"/><path d="M18.89,27.2a4.8,4.8,0,0,1-.76-9.54,4.8,4.8,0,0,1,1.54,9.47h0A4.11,4.11,0,0,1,18.89,27.2Zm0-8.61a4.32,4.32,0,0,0-.62.05A3.81,3.81,0,0,0,15.15,23a3.75,3.75,0,0,0,1.53,2.48,3.8,3.8,0,0,0,2.83.67h0a3.8,3.8,0,0,0,1.61-6.84A3.77,3.77,0,0,0,18.91,18.59Z"/><path d="M18.89,24.39A2,2,0,0,1,17.73,24a2,2,0,0,1-.81-1.31,2,2,0,0,1,1.66-2.29,2,2,0,0,1,1.49.35,2,2,0,0,1-.85,3.6h0A1.83,1.83,0,0,1,18.89,24.39Zm0-3-.16,0a1,1,0,0,0-.83,1.14,1,1,0,0,0,.4.66,1.05,1.05,0,0,0,.75.17h0a1,1,0,0,0,.65-.4,1,1,0,0,0,.17-.75,1,1,0,0,0-.4-.65A1,1,0,0,0,18.9,21.39Z"/><path d="M22.8,22.9H21.7a.5.5,0,1,1,0-1h1.1a.5.5,0,1,1,0,1Z"/><path d="M16.1,22.9h-1a.5.5,0,0,1,0-1h1a.5.5,0,0,1,0,1Z"/><path d="M19,26.7a.5.5,0,0,1-.5-.5v-1a.5.5,0,0,1,1,0v1A.5.5,0,0,1,19,26.7Z"/><path d="M19,20.1a.5.5,0,0,1-.5-.5v-1a.5.5,0,0,1,1,0v1A.5.5,0,0,1,19,20.1Z"/><path d="M21.6,25.6a.49.49,0,0,1-.35-.15l-.7-.7a.5.5,0,0,1,0-.71.51.51,0,0,1,.71,0l.7.71a.5.5,0,0,1,0,.7A.51.51,0,0,1,21.6,25.6Z"/><path d="M16.9,20.9a.49.49,0,0,1-.38-.18l-.6-.7a.49.49,0,0,1,.06-.7.5.5,0,0,1,.7.05l.6.7a.51.51,0,0,1-.05.71A.52.52,0,0,1,16.9,20.9Z"/><path d="M16.3,25.6a.47.47,0,0,1-.35-.15.48.48,0,0,1,0-.7l.7-.71a.5.5,0,0,1,.7,0,.5.5,0,0,1,0,.71l-.7.7A.47.47,0,0,1,16.3,25.6Z"/><path d="M21,20.9a.52.52,0,0,1-.33-.12.51.51,0,0,1-.05-.71l.6-.7a.5.5,0,0,1,.7-.05A.49.49,0,0,1,22,20l-.6.7A.49.49,0,0,1,21,20.9Z"/></svg>