<?xml version="1.0" encoding="utf-8"?>
<!-- Generator: Adobe Illustrator 22.1.0, SVG Export Plug-In . SVG Version: 6.00 Build 0)  -->
<svg version="1.1" id="Layer_1" xmlns="http://www.w3.org/2000/svg" xmlns:xlink="http://www.w3.org/1999/xlink" x="0px" y="0px"
	 viewBox="0 0 16 18.5" style="enable-background:new 0 0 16 18.5;" xml:space="preserve">
<style type="text/css">
	.st0{fill:#FFFFFF;}
</style>
<path class="st0" d="M8,0L0,4.6v9.2l8,4.6l8-4.6V4.6L8,0z M10.1,9.2H8.7v4.8h-2V9.2h-1V7.6h1v-1c0-0.7,0.2-1.3,0.5-1.6
	c0.3-0.4,0.9-0.5,1.7-0.5h1.3v1.7H9.4c-0.2,0-0.3,0-0.4,0S8.9,6.2,8.8,6.2c0,0.1-0.1,0.1-0.1,0.2c0,0.1,0,0.2,0,0.3v0.8h1.5
	L10.1,9.2z"/>
</svg>
