<svg xmlns="http://www.w3.org/2000/svg" viewBox="0 0 8.82 7.35"><title>folder</title><path d="M1.75,2.71a1,1,0,0,0-.35.06,1.34,1.34,0,0,0-.31.17,1.14,1.14,0,0,0-.25.24,1.39,1.39,0,0,0-.18.31L0,5.54v-5A.53.53,0,0,1,.16.16.53.53,0,0,1,.55,0H3.86a.53.53,0,0,1,.39.16.53.53,0,0,1,.16.39.57.57,0,0,0,.16.39A.57.57,0,0,0,5,1.1H7.08a.53.53,0,0,1,.39.16.61.61,0,0,1,.16.4V2.71Zm7.07.74L7.58,7.08a.34.34,0,0,1-.15.19.36.36,0,0,1-.23.08h-7L1.38,3.71a.32.32,0,0,1,.15-.18.43.43,0,0,1,.23-.08Z" fill="#333"/></svg>