<svg xmlns="http://www.w3.org/2000/svg" viewBox="0 0 27.69 15.91"><title>gym</title><path d="M8,15.91H3.73a.5.5,0,0,1-.5-.5V.5a.5.5,0,0,1,.5-.5H8a.5.5,0,0,1,.5.5V15.41A.5.5,0,0,1,8,15.91Zm-3.76-1H7.49V1H4.23Z"/><path d="M3.73,13.9H.5a.5.5,0,0,1-.5-.5V2.51A.5.5,0,0,1,.5,2H3.73a.51.51,0,0,1,.5.5V13.4A.5.5,0,0,1,3.73,13.9ZM1,12.9H3.23V3H1Z"/><path d="M27.19,13.9H24a.5.5,0,0,1-.5-.5V2.51A.5.5,0,0,1,24,2h3.22a.5.5,0,0,1,.5.5V13.4A.5.5,0,0,1,27.19,13.9Zm-2.72-1h2.22V3H24.47Z"/><path d="M24,15.91H19.71a.5.5,0,0,1-.5-.5V.5a.5.5,0,0,1,.5-.5H24a.5.5,0,0,1,.5.5V15.41A.5.5,0,0,1,24,15.91Zm-3.76-1h3.26V1H20.21Z"/><path d="M19.71,10.23H8a.5.5,0,0,1-.5-.5V6.18a.5.5,0,0,1,.5-.5H19.71a.51.51,0,0,1,.5.5V9.73A.5.5,0,0,1,19.71,10.23Zm-11.22-1H19.21V6.68H8.49Z"/></svg>