<svg version="1.1" id="Layer_1" xmlns="http://www.w3.org/2000/svg" xmlns:xlink="http://www.w3.org/1999/xlink" x="0px" y="0px"
	 viewBox="0 0 17.3 16.2" style="enable-background:new 0 0 17.3 16.2;" xml:space="preserve">
<style type="text/css">
	.st0{fill:#010101;}
</style>
<path class="st0" d="M12,1.6c1,0,1.9,0.4,2.6,1.1c0.7,0.7,1.1,1.6,1.1,2.7S15.3,7.3,14.6,8l-6,6l-6-6C2,7.3,1.6,6.4,1.6,5.3
	c0-1,0.4-1.9,1.1-2.7C3.4,2,4.3,1.6,5.3,1.6c0.8,0,1.7,0.3,2.3,0.8l1,0.8l1-0.8C10.3,1.9,11.1,1.6,12,1.6 M12,0
	c-1.2,0-2.3,0.4-3.3,1.1C7.7,0.4,6.5,0,5.3,0C4,0,2.6,0.5,1.6,1.6h0c-2.1,2.1-2.1,5.5,0,7.6l7.1,7.1l7.1-7.1c2.1-2.1,2.1-5.5,0-7.6
	C14.7,0.5,13.3,0,12,0L12,0z"/>
</svg>
