<?xml version="1.0" encoding="utf-8"?>
<!-- Generator: Adobe Illustrator 22.1.0, SVG Export Plug-In . SVG Version: 6.00 Build 0)  -->
<svg version="1.1" id="Layer_1" xmlns="http://www.w3.org/2000/svg" xmlns:xlink="http://www.w3.org/1999/xlink" x="0px" y="0px"
	 viewBox="0 0 87.4 77.5" style="enable-background:new 0 0 87.4 77.5;" xml:space="preserve">
<style type="text/css">
	.st0{fill:#333333;}
</style>
<path class="st0" d="M46.5,76.4c-0.8,0.7-1.8,1.1-2.8,1.1c-1.1,0-1.9-0.4-2.7-1.1L11.1,46.6c-0.1-0.1-0.8-0.7-1.9-2
	c-1.1-1.3-2.4-2.9-3.7-5c-1.4-2.1-2.6-4.4-3.7-7.1C0.6,29.9,0,27,0,24c0-4.4,0.7-8.2,2.1-11.2c1.4-3.1,3.2-5.5,5.5-7.4
	c2.3-1.9,4.8-3.2,7.6-4.1C17.9,0.4,20.8,0,23.7,0c2,0,4.1,0.3,6.1,1c2,0.7,3.9,1.6,5.6,2.6c1.7,1,3.3,2.2,4.7,3.4
	c1.4,1.2,2.6,2.3,3.6,3.3c1-1,2.2-2.1,3.7-3.3c1.5-1.2,3-2.3,4.7-3.4c1.7-1,3.5-1.9,5.5-2.6c2-0.7,4-1,6.1-1c2.8,0,5.7,0.4,8.5,1.2
	c2.8,0.8,5.3,2.2,7.6,4.1c2.2,1.9,4.1,4.4,5.5,7.4c1.4,3.1,2.1,6.8,2.1,11.2c0,3-0.6,5.9-1.7,8.6c-1.1,2.7-2.4,5.1-3.7,7.1
	c-1.4,2-2.6,3.7-3.8,5c-1.2,1.3-1.8,2-1.9,2.1L46.5,76.4L46.5,76.4z M23.7,7.8L23.7,7.8c-1.9,0-3.7,0.2-5.6,0.7
	c-1.9,0.4-3.6,1.2-5.2,2.4c-1.6,1.2-2.8,2.8-3.8,4.9c-1,2.1-1.4,4.8-1.4,8.2c0,2.2,0.5,4.3,1.3,6.4c0.9,2,1.9,3.9,3,5.5
	c1.1,1.6,2.1,2.9,3.1,3.9l1.4,1.4l27.2,27.1L70.9,41l1.4-1.4c0.9-1,1.9-2.3,3-3.9c1.1-1.6,2.1-3.4,3-5.5c0.9-2,1.3-4.2,1.3-6.3
	c0-3.4-0.5-6.1-1.4-8.2c-1-2.1-2.2-3.7-3.8-4.9c-1.6-1.2-3.3-2-5.2-2.4c-1.9-0.4-3.7-0.7-5.5-0.7c-1.7,0-3.4,0.4-5.2,1.2
	c-1.8,0.8-3.4,1.8-5,3c-1.6,1.2-2.9,2.4-4.2,3.6c-1.2,1.2-2.1,2.2-2.7,2.9c-0.8,1-1.8,1.5-3,1.5c-1.2,0-2.2-0.5-3-1.5
	c-0.6-0.7-1.5-1.7-2.7-2.9c-1.2-1.2-2.6-2.4-4.2-3.6c-1.6-1.2-3.2-2.2-5-3C27.1,8.2,25.4,7.8,23.7,7.8z"/>
</svg>
