<svg xmlns="http://www.w3.org/2000/svg" viewBox="0 0 5.41 6.79"><title>home-rules</title><path d="M5,6.79H.38A.37.37,0,0,1,0,6.42v-6A.38.38,0,0,1,.38,0H5a.38.38,0,0,1,.38.38v6A.37.37,0,0,1,5,6.79ZM.75,6H4.66V.75H.75Z" fill="#333"/><path d="M1.66,3.37a.33.33,0,0,1-.26-.11.37.37,0,0,1,0-.53L2.45,1.67a.39.39,0,0,1,.53,0L4,2.71a.4.4,0,0,1,0,.54.39.39,0,0,1-.53,0l-.78-.78-.79.79A.36.36,0,0,1,1.66,3.37Z" fill="#333"/><path d="M3.48,4.35H2A.38.38,0,1,1,2,3.6H3.48a.38.38,0,0,1,0,.75Z" fill="#333"/></svg>