<svg xmlns="http://www.w3.org/2000/svg" viewBox="0 0 8.82 7.35"><title>img</title><path d="M8.28,0a.49.49,0,0,1,.38.16.53.53,0,0,1,.16.39V6.8a.53.53,0,0,1-.16.39.49.49,0,0,1-.38.16H.55a.53.53,0,0,1-.39-.16A.53.53,0,0,1,0,6.8V.55A.53.53,0,0,1,.16.16.53.53,0,0,1,.55,0ZM8.09.74H.74V6.62H8.09ZM2.22,3a.73.73,0,0,1-.54-.22.69.69,0,0,1-.21-.51.76.76,0,0,1,.21-.54.76.76,0,0,1,.54-.21.69.69,0,0,1,.51.21A.73.73,0,0,1,3,2.22a.67.67,0,0,1-.22.51A.67.67,0,0,1,2.22,3ZM7.35,5.88H1.47v-.5L2.8,3.66l.9.74L5.39,1.83l2,2Z" fill="#333"/></svg>