<?xml version="1.0" encoding="utf-8"?>
<!-- Generator: Adobe Illustrator 22.1.0, SVG Export Plug-In . SVG Version: 6.00 Build 0)  -->
<svg version="1.1" id="Layer_1" xmlns="http://www.w3.org/2000/svg" xmlns:xlink="http://www.w3.org/1999/xlink" x="0px" y="0px"
	 viewBox="0 0 16 18.5" style="enable-background:new 0 0 16 18.5;" xml:space="preserve">
<style type="text/css">
	.st0{fill:#FFFFFF;}
</style>
<g>
	<path class="st0" d="M9.9,5.9H6.1c-0.8,0-1.5,0.7-1.5,1.5v3.8c0,0.8,0.7,1.5,1.5,1.5h3.8c0.8,0,1.5-0.7,1.5-1.5V7.4
		C11.3,6.5,10.7,5.9,9.9,5.9z M8,11.4c-1.2,0-2.1-1-2.1-2.1s1-2.1,2.1-2.1s2.1,1,2.1,2.1S9.2,11.4,8,11.4z M10.3,7.6
		C10,7.6,9.7,7.3,9.7,7s0.3-0.6,0.6-0.6s0.6,0.3,0.6,0.6S10.6,7.6,10.3,7.6z"/>
	<path class="st0" d="M8,8.1c-0.6,0-1.1,0.5-1.1,1.1s0.5,1.1,1.1,1.1s1.1-0.5,1.1-1.1S8.6,8.1,8,8.1z"/>
	<path class="st0" d="M8,0L0,4.6v9.2l8,4.6l8-4.6V4.6L8,0z M12.3,11.1c0,1.4-1.1,2.5-2.5,2.5H6.1c-1.4,0-2.5-1.1-2.5-2.5V7.4
		c0-1.4,1.1-2.5,2.5-2.5h3.8c1.4,0,2.5,1.1,2.5,2.5V11.1z"/>
</g>
</svg>
