<svg xmlns="http://www.w3.org/2000/svg" xmlns:xlink="http://www.w3.org/1999/xlink" viewBox="0 0 12.94 6.22"><defs><clipPath id="ab"><rect width="12.94" height="6.22" fill="none"/></clipPath></defs><title>key2</title><g clip-path="url(#ab)"><path d="M3.11,6.22A3.11,3.11,0,1,1,5.87,1.67h.68l.53-.37a.36.36,0,0,1,.22-.07h.43a.36.36,0,0,1,.2.06l.53.35H9l.68-.34a.34.34,0,0,1,.34,0l.74.41h.8a.34.34,0,0,1,.24.09l1.05.89a.41.41,0,0,1,.13.28.36.36,0,0,1-.12.28l-1,.88a.35.35,0,0,1-.25.1H6A3.11,3.11,0,0,1,3.11,6.22Zm0-5.47a2.36,2.36,0,1,0,2.26,3,.38.38,0,0,1,.36-.28h5.74L12,3l-.62-.53h-.75a.37.37,0,0,1-.18,0L9.8,2.05l-.58.3a.59.59,0,0,1-.17,0h-.7a.36.36,0,0,1-.2-.06L7.62,2h-.2l-.53.37a.36.36,0,0,1-.22.07h-1a.37.37,0,0,1-.34-.23A2.37,2.37,0,0,0,3.11.75Z" fill="#333"/><path d="M2.6,4.25A1.14,1.14,0,1,1,3.74,3.11,1.14,1.14,0,0,1,2.6,4.25Zm0-1.53a.39.39,0,0,0-.39.39.38.38,0,0,0,.39.39A.39.39,0,0,0,3,3.11.4.4,0,0,0,2.6,2.72Z" fill="#333"/></g></svg>