<svg xmlns="http://www.w3.org/2000/svg" viewBox="0 0 24 24"><title>kitchen</title><path d="M22.5,21H1.5a.5.5,0,0,1-.5-.5V2.5A.5.5,0,0,1,1.5,2h21a.5.5,0,0,1,.5.5v18A.5.5,0,0,1,22.5,21ZM2,20H22V3H2Z"/><path d="M23.5,24H.5a.5.5,0,0,1-.5-.5v-3A.5.5,0,0,1,.5,20h23a.5.5,0,0,1,.5.5v3A.5.5,0,0,1,23.5,24ZM1,23H23V21H1Z"/><path d="M20.5,19H3.5a.5.5,0,0,1-.5-.5V8.5A.5.5,0,0,1,3.5,8h17a.5.5,0,0,1,.5.5v10A.5.5,0,0,1,20.5,19ZM4,18H20V9H4Z"/><path d="M17.5,12H6.5a.5.5,0,0,1,0-1h11a.5.5,0,0,1,0,1Z"/><path d="M15.5,7A1.5,1.5,0,1,1,17,5.5,1.5,1.5,0,0,1,15.5,7Zm0-2a.5.5,0,1,0,.5.5A.5.5,0,0,0,15.5,5Z"/><path d="M19.5,7A1.5,1.5,0,1,1,21,5.5,1.5,1.5,0,0,1,19.5,7Zm0-2a.5.5,0,1,0,.5.5A.5.5,0,0,0,19.5,5Z"/><path d="M12.5,7h-9A.5.5,0,0,1,3,6.5v-2A.5.5,0,0,1,3.5,4h9a.5.5,0,0,1,.5.5v2A.5.5,0,0,1,12.5,7ZM4,6h8V5H4Z"/><path d="M23.5,3H.5A.5.5,0,0,1,0,2.5V.5A.5.5,0,0,1,.5,0h23a.5.5,0,0,1,.5.5v2A.5.5,0,0,1,23.5,3ZM1,2H23V1H1Z"/></svg>