<?xml version="1.0" encoding="utf-8"?>
<!-- Generator: Adobe Illustrator 22.1.0, SVG Export Plug-In . SVG Version: 6.00 Build 0)  -->
<svg version="1.1" id="Layer_1" xmlns="http://www.w3.org/2000/svg" xmlns:xlink="http://www.w3.org/1999/xlink" x="0px" y="0px"
	 viewBox="0 0 16 18.5" style="enable-background:new 0 0 16 18.5;" xml:space="preserve">
<style type="text/css">
	.st0{fill:#FFFFFF;}
</style>
<path class="st0" d="M8,0L0,4.6v9.2l8,4.6l8-4.6V4.6L8,0z M5.5,13.5H3.6V7.7h1.9V13.5z M5.4,6.6C5.2,6.8,4.9,6.9,4.6,6.9h0
	C4.2,6.9,4,6.8,3.8,6.6C3.6,6.5,3.5,6.2,3.5,5.9c0-0.3,0.1-0.5,0.3-0.7C4,5,4.3,4.9,4.6,4.9c0.3,0,0.6,0.1,0.8,0.3
	c0.2,0.2,0.3,0.4,0.3,0.7C5.7,6.2,5.6,6.5,5.4,6.6z M12.5,13.5h-1.9v-3.1c0-0.4-0.1-0.7-0.2-1c-0.2-0.2-0.4-0.3-0.7-0.3
	C9.3,9.1,9.1,9.2,9,9.3C8.8,9.4,8.7,9.6,8.6,9.8c0,0.1-0.1,0.3-0.1,0.5v3.2H6.6c0-1.6,0-2.8,0-3.8c0-1,0-1.5,0-1.7l0-0.3h1.9v0.8
	c0.1-0.1,0.2-0.2,0.2-0.3C8.8,8.1,9,8,9.1,7.9c0.1-0.1,0.3-0.2,0.5-0.3c0.2-0.1,0.4-0.1,0.7-0.1c0.7,0,1.2,0.2,1.6,0.7
	c0.4,0.4,0.6,1.1,0.6,1.9V13.5z"/>
</svg>
