<?xml version="1.0" encoding="utf-8"?>
<!-- Generator: Adobe Illustrator 22.1.0, SVG Export Plug-In . SVG Version: 6.00 Build 0)  -->
<svg version="1.1" id="Outline_Old_Icons" xmlns="http://www.w3.org/2000/svg" xmlns:xlink="http://www.w3.org/1999/xlink" x="0px"
	 y="0px" viewBox="0 0 16 24" style="enable-background:new 0 0 16 24;" xml:space="preserve">
<g>
	<g>
		<path d="M8,24c-4.4,0-8-3.6-8-8s3.6-8,8-8s8,3.6,8,8S12.4,24,8,24z M8,9c-3.9,0-7,3.1-7,7s3.1,7,7,7s7-3.1,7-7S11.9,9,8,9z"/>
	</g>
	<g>
		<path d="M13.5,10.4h-1V5.5C12.5,3,10.5,1,8,1S3.5,3,3.5,5.5v4.9h-1V5.5C2.5,2.5,5,0,8,0s5.5,2.5,5.5,5.5V10.4z"/>
	</g>
	<g>
		<path d="M8,20.5c-2.5,0-4.5-2-4.5-4.5s2-4.5,4.5-4.5s4.5,2,4.5,4.5S10.5,20.5,8,20.5z M8,12.5c-1.9,0-3.5,1.6-3.5,3.5
			s1.6,3.5,3.5,3.5s3.5-1.6,3.5-3.5S9.9,12.5,8,12.5z"/>
	</g>
	<g>
		<path d="M8,13.5c-0.3,0-0.5-0.2-0.5-0.5v-2c0-0.3,0.2-0.5,0.5-0.5s0.5,0.2,0.5,0.5v2C8.5,13.3,8.3,13.5,8,13.5z"/>
	</g>
	<g>
		<path d="M8,21.5c-0.3,0-0.5-0.2-0.5-0.5v-2c0-0.3,0.2-0.5,0.5-0.5s0.5,0.2,0.5,0.5v2C8.5,21.3,8.3,21.5,8,21.5z"/>
	</g>
	<g>
		<path d="M13,16.5h-2c-0.3,0-0.5-0.2-0.5-0.5s0.2-0.5,0.5-0.5h2c0.3,0,0.5,0.2,0.5,0.5S13.3,16.5,13,16.5z"/>
	</g>
	<g>
		<path d="M5,16.5H3c-0.3,0-0.5-0.2-0.5-0.5s0.2-0.5,0.5-0.5h2c0.3,0,0.5,0.2,0.5,0.5S5.3,16.5,5,16.5z"/>
	</g>
	<g>
		<path d="M8,17c-0.6,0-1-0.4-1-1s0.4-1,1-1s1,0.4,1,1S8.6,17,8,17z M8,16C8,16,8,16,8,16l0.5,0L8,16z"/>
	</g>
</g>
</svg>
