<svg width="36" height="38" viewBox="0 0 36 38" fill="none" xmlns="http://www.w3.org/2000/svg">
<path d="M13.6082 37.0003C13.1086 37.0003 12.6119 36.8699 12.1573 36.6118L2.21144 30.9395C0.84753 30.1597 0 28.7084 0 27.1488V11.9664C0 10.4068 0.84753 8.95543 2.21144 8.17841L15.5109 0.585822C16.8748 -0.193972 18.5699 -0.193972 19.9366 0.585822L33.2361 8.17841C34.6 8.95821 35.4475 10.4096 35.4475 11.9664V27.1516C35.4475 28.7084 34.6 30.1625 33.2361 30.9395L23.2902 36.6173C22.3922 37.1307 21.3201 37.1307 20.4221 36.6173C19.5241 36.1039 18.988 35.1882 18.988 34.1614V28.2283C18.988 28.2061 18.988 28.1811 18.988 28.1589V20.8133C18.988 19.3536 19.7822 17.9966 21.0592 17.2668L26.3099 14.3085C27.0564 13.884 27.9909 13.884 28.7459 14.3141C29.498 14.7442 29.9666 15.5462 29.9666 16.4065V22.0454C29.9666 23.6272 29.1051 25.1036 27.7187 25.8945L22.0751 29.0802V33.7868L31.6898 28.2977C32.1023 28.0618 32.3577 27.6233 32.3577 27.1516V11.9664C32.3577 11.4946 32.1023 11.0562 31.6898 10.8203L18.3931 3.22769C17.9805 2.99181 17.467 2.99181 17.0544 3.22769L3.75495 10.8203C3.34241 11.0562 3.08703 11.4946 3.08703 11.9664V27.1516C3.08703 27.6233 3.34241 28.0618 3.75495 28.2977L13.423 33.8145V29.3466C13.423 28.9803 13.2237 28.6418 12.9038 28.4586L7.68951 25.4754C6.14599 24.5957 5.4444 22.7004 5.4444 21.3128V16.3593C5.4444 15.499 5.91306 14.6971 6.66518 14.2669C7.41729 13.8368 8.35462 13.8368 9.10674 14.2669L16.3641 18.4101C17.1021 18.8319 17.3547 19.7643 16.9281 20.4942C16.5016 21.224 15.5586 21.4738 14.8205 21.052L8.52862 17.4638V21.3128C8.52862 21.9428 8.90748 22.6448 9.23022 22.8308L14.4473 25.8084C15.7186 26.5355 16.51 27.887 16.51 29.3411V34.1225C16.51 35.1604 15.9684 36.0901 15.0591 36.609C14.6045 36.8699 14.1049 37.0003 13.6082 37.0003ZM26.8796 17.4999L22.5971 19.9142C22.2799 20.0946 22.0779 20.4414 22.0779 20.8133V25.5642L26.1836 23.2443C26.613 23.0001 26.8824 22.5366 26.8824 22.0427V17.4999H26.8796ZM27.845 16.956L27.8394 16.9587C27.8422 16.9587 27.845 16.956 27.845 16.956Z" fill="#231F20"/>
</svg>
