<?xml version="1.0" encoding="utf-8"?>
<!-- Generator: Adobe Illustrator 22.1.0, SVG Export Plug-In . SVG Version: 6.00 Build 0)  -->
<svg version="1.1" id="Layer_1" xmlns="http://www.w3.org/2000/svg" xmlns:xlink="http://www.w3.org/1999/xlink" x="0px" y="0px"
	 viewBox="0 0 199.6 356.1" style="enable-background:new 0 0 199.6 356.1;" xml:space="preserve">
<style type="text/css">
	.st0{fill:#333333;}
</style>
<path class="st0" d="M18.4,352.6c-4.1,3.9-10.8,4.2-14.9,0.8s-4.7-9.9-1.3-14.4l38.4-50.4c3.4-4.5,7.7-12.5,9.6-17.8l23.2-66.1
	c1.9-5.3,3.5-14.3,3.6-19.9L79,80.6c0.1-5.6,4.6-8.9,10-7.2l8.4,2.6c5.4,1.7,10.2,7.6,10.8,13.2l9.9,100.9
	c0.5,5.6-0.7,14.4-2.8,19.7l-29.6,73.5c-2.1,5.2-7.2,12.6-11.3,16.5L18.4,352.6z"/>
<path class="st0" d="M192,354.7c-4.9,2.8-11.6,1.3-14.9-3.2L85.3,225.7c-3.3-4.5-2.5-11.3,1.7-14.9l17.8-15.4
	c4.3-3.7,10-2.7,12.8,2.2l80.7,141.7c2.8,4.9,1.1,11.2-3.8,14L192,354.7z"/>
<path class="st0" d="M19.9,192.5c-3.7,4.3-9.3,6.6-12.4,5.3c-3.2-1.4-3.8-6.7-1.5-11.8l19.6-42.8c2.3-5.1,7.7-12.4,11.9-16.1
	l38.1-33.9c4.2-3.7,10.7-3.4,14.4,0.8l11.9,13.4c3.7,4.2,3,10.3-1.6,13.5l-38.1,26.4c-4.6,3.2-11.4,9.3-15.1,13.6L19.9,192.5z"/>
<path class="st0" d="M193.8,186.9c-2.1,4.3-8,5.8-13,3.2l-34.9-18c-5-2.6-12.3-8-16.2-12l-43.3-44.5c-3.9-4-3.8-10.5,0.2-14.5
	l12.8-12.5c4-3.9,10.1-3.5,13.5,1l37,48.8c3.4,4.5,9.8,11,14.3,14.4l25.4,19.8C194.1,176.2,196,182.5,193.8,186.9z"/>
<circle class="st0" cx="95.9" cy="42.6" r="42.6"/>
</svg>
