<svg width="13" height="22" viewBox="0 0 13 22" fill="none" xmlns="http://www.w3.org/2000/svg">
<path d="M13 21.3115L7.7358 12.2674L7.38272 8.79374L8.82716 10.2646L12.1654 11.9232L12.6469 10.9531L10.0469 8.98151L6.99753 5.0697C8.12099 4.75676 8.92346 3.78663 8.92346 2.59744C8.95555 1.15789 7.7358 0 6.25926 0C4.78272 0 3.59506 1.15789 3.59506 2.59744C3.59506 3.66145 4.26914 4.56899 5.2 4.97582V5.50782L2.11852 8.19915L0.353086 11.9545L1.09136 12.2674L3.62716 9.38834L5.1358 8.35562L5.0716 11.9232L3.17778 17.1494L0 21.2489L0.930864 22L5.39259 17.9004L6.67654 14.771L11.7481 22L13 21.3115Z" fill="black"/>
</svg>
