<svg xmlns="http://www.w3.org/2000/svg" viewBox="0 0 3.9 6.96"><title>man</title><path d="M.36,6.89a.22.22,0,0,1-.29,0,.21.21,0,0,1,0-.28l.75-1A1.48,1.48,0,0,0,1,5.29L1.43,4a1.28,1.28,0,0,0,.07-.39l.05-2a.15.15,0,0,1,.19-.15l.17.06a.32.32,0,0,1,.21.25l.19,2a.82.82,0,0,1-.06.38L1.68,5.54a1,1,0,0,1-.22.32Z" fill="#333"/><path d="M3.75,6.94a.24.24,0,0,1-.29-.07L1.67,4.41a.22.22,0,0,1,0-.29l.35-.3a.16.16,0,0,1,.25,0L3.88,6.64a.2.2,0,0,1-.08.27Z" fill="#333"/><path d="M.39,3.76a.26.26,0,0,1-.24.11c-.07,0-.08-.13,0-.23L.5,2.8a1.19,1.19,0,0,1,.23-.31l.75-.67a.2.2,0,0,1,.28,0L2,2.1a.17.17,0,0,1,0,.26l-.74.52a1.29,1.29,0,0,0-.3.27Z" fill="#333"/><path d="M3.79,3.65a.18.18,0,0,1-.25.07l-.69-.35a1.43,1.43,0,0,1-.31-.24l-.85-.87a.19.19,0,0,1,0-.28l.25-.25a.19.19,0,0,1,.27,0l.72,1A1.85,1.85,0,0,0,3.21,3l.5.39A.25.25,0,0,1,3.79,3.65Z" fill="#333"/><circle cx="1.88" cy="0.83" r="0.83" fill="#333"/></svg>