<svg xmlns="http://www.w3.org/2000/svg" viewBox="0 0 24 24"><title>map</title><path d="M11.5,7A3.5,3.5,0,1,1,15,3.5,3.5,3.5,0,0,1,11.5,7Zm0-6A2.5,2.5,0,1,0,14,3.5,2.5,2.5,0,0,0,11.5,1Z"/><path d="M11.5,17.5A.5.5,0,0,1,11,17V6.5a.5.5,0,0,1,1,0V17A.5.5,0,0,1,11.5,17.5Z"/><path d="M23.5,24l-.14,0-6.88-2L7.61,24a.53.53,0,0,1-.25,0l-7-2A.5.5,0,0,1,0,21.5v-11a.49.49,0,0,1,.2-.4A.52.52,0,0,1,.64,10l6.88,2,.87-.19a.5.5,0,1,1,.22,1l-1,.22a.53.53,0,0,1-.25,0L1,11.16v10L7.52,23l8.87-2a.53.53,0,0,1,.25,0L23,22.84v-10L16.48,11l-1.87.41a.5.5,0,0,1-.6-.38.49.49,0,0,1,.38-.59l2-.45a.53.53,0,0,1,.25,0l7,2a.5.5,0,0,1,.36.48v11a.49.49,0,0,1-.2.4A.47.47,0,0,1,23.5,24Z"/><rect x="7" y="12.5" width="1" height="11"/><rect x="16" y="10.5" width="1" height="11"/><path d="M12.5,4a.5.5,0,0,1-.5-.5.5.5,0,0,0-.5-.5.5.5,0,0,1,0-1A1.5,1.5,0,0,1,13,3.5.5.5,0,0,1,12.5,4Z"/></svg>