<svg version="1.1" id="Layer_1" xmlns="http://www.w3.org/2000/svg" xmlns:xlink="http://www.w3.org/1999/xlink" x="0px" y="0px"
	 viewBox="0 0 17.9 16.4" style="enable-background:new 0 0 17.9 16.4;" xml:space="preserve">
<style type="text/css">
	.st0{fill:#010101;}
</style>
<g>
	<path class="st0" d="M11.4,0H6.6C3,0,0,3,0,6.6v0c0,3.3,2.5,6,5.6,6.5l0.9,3.4l2.6-3.3h0.1h2.2c3.6,0,6.6-3,6.6-6.6v0
		C17.9,3,15,0,11.4,0z M11.4,11.5H9.2H9.1c-0.5,0-1,0.2-1.3,0.6l-0.6,0.8l-0.1-0.3C7,12,6.5,11.6,5.9,11.5C3.4,11.1,1.6,9,1.6,6.6
		c0-2.7,2.2-5,5-5h4.8c2.7,0,5,2.2,5,5C16.3,9.3,14.1,11.5,11.4,11.5z"/>
	<path class="st0" d="M12.6,4.2H4.9C4.4,4.2,4.1,4.6,4.1,5s0.4,0.8,0.8,0.8h7.8c0.4,0,0.8-0.4,0.8-0.8S13.1,4.2,12.6,4.2z"/>
	<path class="st0" d="M9,7.5H4.9c-0.4,0-0.8,0.4-0.8,0.8s0.4,0.8,0.8,0.8H9c0.4,0,0.8-0.4,0.8-0.8S9.4,7.5,9,7.5z"/>
</g>
</svg>
