<?xml version="1.0" encoding="utf-8"?>
<!-- Generator: Adobe Illustrator 22.1.0, SVG Export Plug-In . SVG Version: 6.00 Build 0)  -->
<svg version="1.1" id="Layer_1" xmlns="http://www.w3.org/2000/svg" xmlns:xlink="http://www.w3.org/1999/xlink" x="0px" y="0px"
	 viewBox="0 0 7.3 5.9" style="enable-background:new 0 0 7.3 5.9;" xml:space="preserve">
<style type="text/css">
	.st0{fill:#333333;}
</style>
<g>
	<path class="st0" d="M3.7,5.9C2,5.9,0.7,4.6,0.7,2.9S2,0,3.7,0s2.9,1.3,2.9,2.9S5.3,5.9,3.7,5.9z M3.7,0.8c-1.2,0-2.2,1-2.2,2.2
		s1,2.2,2.2,2.2s2.2-1,2.2-2.2S4.9,0.8,3.7,0.8z"/>
	<path class="st0" d="M6.9,3.7H0.4C0.2,3.7,0,3.5,0,3.3V2.6c0-0.2,0.2-0.4,0.4-0.4h6.5c0.2,0,0.4,0.2,0.4,0.4v0.7
		C7.3,3.5,7.1,3.7,6.9,3.7z"/>
</g>
</svg>
