<svg width="17" height="19" viewBox="0 0 17 19" fill="none" xmlns="http://www.w3.org/2000/svg">
<path d="M8.5 18.9996C8.35873 18.9996 8.19391 18.9534 8.05263 18.884L0.447368 14.5616C0.16482 14.3998 0 14.1225 0 13.822V5.17721C0 4.87673 0.16482 4.57624 0.447368 4.41444L8.05263 0.0920535C8.33518 -0.069747 8.66482 -0.069747 8.94737 0.0920535L16.5526 4.41444C16.8352 4.57624 17 4.85361 17 5.17721V13.7989C17 14.0994 16.8352 14.3998 16.5526 14.5616L8.94737 18.884C8.80609 18.9534 8.64127 18.9996 8.5 18.9996ZM1.76593 13.3135L8.5 17.1273L15.2341 13.3135V5.68573L8.5 1.87186L1.76593 5.68573V13.3135Z" fill="#0085FF"/>
<path d="M12.0307 10.3547H4.967C4.47254 10.3547 4.07227 9.96173 4.07227 9.47632C4.07227 8.99092 4.47254 8.62109 4.967 8.62109H12.0307C12.5252 8.62109 12.9255 9.01404 12.9255 9.49944C12.9255 9.98484 12.5252 10.3547 12.0307 10.3547Z" fill="#0085FF"/>
</svg>
