<svg width="15" height="18" viewBox="0 0 15 18" fill="none" xmlns="http://www.w3.org/2000/svg">
<path d="M14.1667 18H0.855856C0.382883 18 0 17.6366 0 17.1876V0.812352C0 0.36342 0.382883 0 0.855856 0H14.1667C14.6396 0 15.0225 0.36342 15.0225 0.812352V17.209C15 17.6366 14.6171 18 14.1667 18ZM1.68919 16.3967H13.3108V1.60333H1.68919V16.3967Z" fill="#0085FF"/>
<path d="M3.94149 4.7458H3.69375C3.22077 4.7458 2.83789 4.38238 2.83789 3.93345C2.83789 3.48451 3.22077 3.12109 3.69375 3.12109H3.94149C4.41447 3.12109 4.79735 3.48451 4.79735 3.93345C4.79735 4.38238 4.41447 4.7458 3.94149 4.7458Z" fill="#0085FF"/>
<path d="M10.811 4.7458H6.48672C6.01374 4.7458 5.63086 4.38238 5.63086 3.93345C5.63086 3.48451 6.01374 3.12109 6.48672 3.12109H10.811C11.284 3.12109 11.6669 3.48451 11.6669 3.93345C11.6669 4.38238 11.2615 4.7458 10.811 4.7458Z" fill="#0085FF"/>
<path d="M3.94149 8.01641H3.69375C3.22077 8.01641 2.83789 7.65299 2.83789 7.20406C2.83789 6.75513 3.22077 6.41309 3.69375 6.41309H3.94149C4.41447 6.41309 4.79735 6.77651 4.79735 7.22544C4.79735 7.67437 4.41447 8.01641 3.94149 8.01641Z" fill="#0085FF"/>
<path d="M10.811 8.01641H6.48672C6.01374 8.01641 5.63086 7.65299 5.63086 7.20406C5.63086 6.75513 6.01374 6.41309 6.48672 6.41309H10.811C11.2615 6.41309 11.6444 6.77651 11.6444 7.22544C11.6444 7.67437 11.2615 8.01641 10.811 8.01641Z" fill="#0085FF"/>
<path d="M3.94149 11.3083H3.69375C3.22077 11.3083 2.83789 10.9449 2.83789 10.4959C2.83789 10.047 3.22077 9.68359 3.69375 9.68359H3.94149C4.41447 9.68359 4.79735 10.047 4.79735 10.4959C4.79735 10.9449 4.41447 11.3083 3.94149 11.3083Z" fill="#0085FF"/>
<path d="M10.811 11.3083H6.48672C6.01374 11.3083 5.63086 10.9449 5.63086 10.4959C5.63086 10.047 6.01374 9.68359 6.48672 9.68359H10.811C11.284 9.68359 11.6669 10.047 11.6669 10.4959C11.6669 10.9449 11.2615 11.3083 10.811 11.3083Z" fill="#0085FF"/>
<path d="M3.94149 14.5798H3.69375C3.22077 14.5798 2.83789 14.2164 2.83789 13.7674C2.83789 13.3185 3.22077 12.9551 3.69375 12.9551H3.94149C4.41447 12.9551 4.79735 13.3185 4.79735 13.7674C4.79735 14.2164 4.41447 14.5798 3.94149 14.5798Z" fill="#0085FF"/>
<path d="M10.811 14.5798H6.48672C6.01374 14.5798 5.63086 14.2164 5.63086 13.7674C5.63086 13.3185 6.01374 12.9551 6.48672 12.9551H10.811C11.284 12.9551 11.6669 13.3185 11.6669 13.7674C11.6669 14.2164 11.2615 14.5798 10.811 14.5798Z" fill="#0085FF"/>
</svg>
