<svg width="17" height="15" viewBox="0 0 17 15" fill="none" xmlns="http://www.w3.org/2000/svg">
<path d="M14.6552 14.9994H1.61207C0.732759 14.9994 0 14.2641 0 13.3082V1.83766C0 0.881778 0.732759 0.146484 1.61207 0.146484H10.8448C11.1379 0.146484 11.431 0.440602 11.431 0.73472C11.431 1.02884 11.1379 1.32295 10.8448 1.32295H1.61207C1.39224 1.32295 1.17241 1.54354 1.17241 1.83766V13.3082C1.17241 13.6024 1.39224 13.823 1.61207 13.823H14.6552C14.875 13.823 15.0948 13.6024 15.0948 13.3082V6.54354C15.0948 6.24943 15.3879 5.95531 15.681 5.95531C15.9741 5.95531 16.2672 6.24943 16.2672 6.54354V13.3082C16.2672 14.2641 15.5345 14.9994 14.6552 14.9994Z" fill="black"/>
<path d="M14.8008 3.01391C14.1414 3.74921 13.4819 4.41097 12.8224 5.14627C12.1629 5.80803 11.5034 6.54332 10.7707 7.20509C10.1112 7.86685 9.37843 8.52862 8.71895 9.19038C7.98619 9.85215 7.39999 10.5874 6.22757 10.808H6.1543C6.37412 9.63156 7.10688 9.04333 7.76637 8.30803C8.42585 7.57274 9.08533 6.91097 9.74481 6.24921C10.4043 5.58744 11.0638 4.85215 11.7965 4.19038C12.456 3.52862 13.1888 2.86685 13.9215 2.20509C14.1414 1.9845 14.5077 1.9845 14.7276 2.27862C15.0207 2.49921 15.0207 2.79332 14.8008 3.01391Z" fill="#0085FF"/>
<path d="M15.6084 1.98483C15.4619 1.98483 15.3153 1.91131 15.1688 1.83778C14.9489 1.61719 14.9489 1.24954 15.1688 1.02895L15.9748 0.220129C16.1946 -0.000459563 16.561 -0.000459563 16.7808 0.220129C17.0007 0.440717 17.0007 0.808364 16.7808 1.02895L15.9748 1.83778C15.9015 1.91131 15.755 1.98483 15.6084 1.98483Z" fill="#0085FF"/>
</svg>
