<svg width="26" height="28" viewBox="0 0 26 28" fill="none" xmlns="http://www.w3.org/2000/svg">
<path d="M12.9923 27.9992C12.1966 27.9992 11.3855 27.7892 10.6663 27.3843L2.31077 22.6602C0.887581 21.8653 0 20.3506 0 18.7309V9.28254C0 7.64783 0.887581 6.1481 2.32607 5.33824L10.6816 0.599091C12.1201 -0.210765 13.8952 -0.210765 15.3184 0.599091L23.6739 5.32325C25.1124 6.1331 26 7.64783 26 9.26754V18.7159C26 20.3356 25.1124 21.8503 23.6739 22.6602L15.3184 27.3843C14.5992 27.8042 13.8034 27.9992 12.9923 27.9992ZM12.9923 1.49893C12.4567 1.49893 11.9211 1.63391 11.4314 1.90386L3.09123 6.62801C2.12713 7.16792 1.53031 8.18774 1.53031 9.26754V18.7159C1.53031 19.7957 2.12713 20.8155 3.09123 21.3554L11.4467 26.0795C12.4108 26.6194 13.6045 26.6194 14.5533 26.0795L22.9088 21.3554C23.8729 20.8155 24.4697 19.7957 24.4697 18.7159V9.26754C24.4697 8.17274 23.8729 7.16792 22.9088 6.62801L14.5533 1.90386C14.0789 1.63391 13.5433 1.49893 12.9923 1.49893Z" fill="white"/>
<path d="M13.7269 12.6431H15.6092L15.395 14.6827H13.7269V20.6067H11.2325V14.6827H9.97765V12.6431H11.2172V11.4133C11.2172 10.5435 11.4314 9.88359 11.8446 9.43367C12.2578 8.98375 12.9618 8.75879 13.9259 8.75879H15.5939V10.7984H14.5533C14.3696 10.7984 14.2166 10.8134 14.0942 10.8434C13.9871 10.8884 13.8952 10.9334 13.8493 11.0234C13.8034 11.0984 13.7575 11.1884 13.7422 11.2633C13.7269 11.3533 13.7269 11.4733 13.7269 11.6233V12.6431Z" fill="white"/>
</svg>
