<svg width="18" height="17" viewBox="0 0 18 17" fill="none" xmlns="http://www.w3.org/2000/svg">
<path d="M11.95 1.6C12.95 1.6 13.9 1.99 14.6 2.69C15.3 3.39 15.69 4.34 15.69 5.34C15.69 6.35 15.3 7.29 14.6 7.99L8.65 13.94L2.69 8C1.99 7.29 1.6 6.35 1.6 5.34C1.6 4.33 1.99 3.39 2.69 2.69C3.4 1.99 4.34 1.6 5.34 1.6C6.18 1.6 7.01 1.88 7.66 2.4L8.65 3.17L9.64 2.4C10.29 1.88 11.11 1.6 11.95 1.6ZM11.95 0C10.78 0 9.61 0.38 8.64 1.14C7.68 0.38 6.51 0 5.34 0C3.97 0 2.6 0.52 1.56 1.56C-0.52 3.64 -0.52 7.05 1.56 9.13L8.65 16.22L15.74 9.13C17.82 7.05 17.82 3.64 15.74 1.56C14.69 0.52 13.32 0 11.95 0Z" fill="#D1D8DA"/>
</svg>
