<svg width="27" height="28" viewBox="0 0 27 28" fill="none" xmlns="http://www.w3.org/2000/svg">
<path d="M13.4921 27.9992C12.6657 27.9992 11.8234 27.7892 11.0765 27.3843L2.39965 22.6602C0.921719 21.8503 0 20.3506 0 18.7309V9.28254C0 7.64783 0.921719 6.1481 2.41554 5.33824L11.0924 0.599091C12.5862 -0.210765 14.4297 -0.210765 15.9235 0.599091L24.6004 5.32325C26.0942 6.1331 27.0159 7.64783 27.0159 9.26754V18.7159C27.0159 20.3356 26.0942 21.8503 24.6004 22.6602L15.9235 27.3843C15.1607 27.8042 14.3343 27.9992 13.4921 27.9992ZM13.4921 1.49893C12.9358 1.49893 12.3796 1.63391 11.8711 1.90386L3.21012 6.62801C2.20895 7.16792 1.58917 8.18774 1.58917 9.26754V18.7159C1.58917 19.7957 2.20895 20.8155 3.21012 21.3554L11.887 26.0795C12.8882 26.6194 14.1277 26.6194 15.1289 26.0795L23.8058 21.3554C24.8069 20.8155 25.4267 19.7957 25.4267 18.7159V9.26754C25.4267 8.17274 24.8069 7.16792 23.8058 6.62801L15.113 1.90386C14.6204 1.63391 14.0642 1.49893 13.4921 1.49893Z" fill="white"/>
<path d="M13.4921 20.0965C10.1071 20.0965 7.35788 17.502 7.35788 14.3075C7.35788 11.1131 10.1071 8.51855 13.4921 8.51855C16.877 8.51855 19.6263 11.1131 19.6263 14.3075C19.6422 17.487 16.877 20.0965 13.4921 20.0965ZM13.4921 10.4532C11.2513 10.4532 9.4238 12.1779 9.4238 14.2925C9.4238 16.4071 11.2513 18.1318 13.4921 18.1318C15.7328 18.1318 17.5604 16.4071 17.5604 14.2925C17.5762 12.1779 15.7487 10.4532 13.4921 10.4532Z" fill="white"/>
<path d="M19.3878 8.5335C18.8475 8.5335 18.4026 8.11357 18.4026 7.60366C18.4026 7.09375 18.8475 6.67383 19.3878 6.67383C19.9282 6.67383 20.3731 7.09375 20.3731 7.60366C20.3731 8.11357 19.9282 8.5335 19.3878 8.5335Z" fill="white"/>
</svg>
