<svg width="21" height="21" viewBox="0 0 21 21" fill="none" xmlns="http://www.w3.org/2000/svg">
<path d="M10.0568 20.2122C4.53542 20.2122 0 15.6768 0 10.0568C0 4.53542 4.53542 0 10.0568 0C15.5782 0 20.1136 4.53542 20.1136 10.0568C20.2122 15.6768 15.6768 20.2122 10.0568 20.2122ZM10.0568 1.57754C5.32419 1.57754 1.57754 5.42279 1.57754 10.0568C1.57754 14.6908 5.42279 18.5361 10.0568 18.5361C14.6908 18.5361 18.5361 14.6908 18.5361 10.0568C18.5361 5.42279 14.7894 1.57754 10.0568 1.57754Z" fill="black"/>
<path d="M10.0563 15.7761C9.66196 15.7761 9.26758 15.3817 9.26758 14.9873V7.98701C9.26758 7.59263 9.66196 7.19824 10.0563 7.19824C10.4507 7.19824 10.8451 7.49403 10.8451 7.98701V14.9873C10.8451 15.3817 10.5493 15.7761 10.0563 15.7761Z" fill="#0085FF"/>
<path d="M10.0563 5.81766C9.66196 5.81766 9.26758 5.42328 9.26758 5.02889V4.73311C9.26758 4.33872 9.66196 3.94434 10.0563 3.94434C10.4507 3.94434 10.8451 4.33872 10.8451 4.73311V5.02889C10.8451 5.52187 10.5493 5.81766 10.0563 5.81766Z" fill="#0085FF"/>
<path d="M11.8324 16.1693H8.28291C7.88853 16.1693 7.49414 15.775 7.49414 15.3806C7.49414 14.9862 7.88853 14.5918 8.28291 14.5918H11.8324C12.2268 14.5918 12.6211 14.9862 12.6211 15.3806C12.6211 15.775 12.3254 16.1693 11.8324 16.1693Z" fill="#0085FF"/>
<path d="M10.0576 8.77578H8.28291C7.88853 8.77578 7.49414 8.3814 7.49414 7.98701C7.49414 7.59263 7.88853 7.19824 8.28291 7.19824H10.0576C10.452 7.19824 10.8464 7.59263 10.8464 7.98701C10.8464 8.3814 10.5506 8.77578 10.0576 8.77578Z" fill="#0085FF"/>
</svg>
