<svg width="182" height="37" viewBox="0 0 182 37" fill="none" xmlns="http://www.w3.org/2000/svg">
<path d="M46.0613 24.1653C46.0613 23.6852 46.3054 23.2773 46.7909 22.9443C47.0519 22.7778 47.3242 22.6945 47.6048 22.6945C47.9977 22.6945 48.3709 22.8694 48.7273 23.2218C49.2886 23.7962 49.8724 24.2208 50.4813 24.4983C51.0903 24.7758 51.8228 24.9146 52.6844 24.9146C54.1437 24.8591 54.8733 24.3124 54.8733 23.2773C54.8733 22.7417 54.6264 22.3338 54.1297 22.0563C53.6329 21.7788 52.8612 21.5013 51.8144 21.2237C50.7283 20.9268 49.8443 20.6327 49.1623 20.3357C48.4804 20.0388 47.891 19.592 47.3943 18.9898C46.8976 18.3876 46.6506 17.5801 46.6506 16.5616C46.6506 15.6736 46.9088 14.9021 47.4224 14.2444C47.9359 13.5868 48.6095 13.0789 49.443 12.7182C50.2765 12.3574 51.1605 12.177 52.095 12.177C53.0492 12.177 54.0034 12.3518 54.9575 12.7043C55.9117 13.0567 56.661 13.5729 57.2026 14.2583C57.4468 14.5553 57.5675 14.8883 57.5675 15.2573C57.5675 15.6819 57.3907 16.0344 57.0343 16.3119C56.7733 16.5144 56.473 16.6171 56.1362 16.6171C55.7237 16.6171 55.3869 16.4867 55.1259 16.2286C54.7891 15.8207 54.3542 15.4988 53.8209 15.2573C53.2877 15.0159 52.6844 14.8966 52.0108 14.8966C50.588 14.8966 49.878 15.4044 49.878 16.4229C49.878 16.8308 50.0071 17.1583 50.2709 17.408C50.5319 17.6578 50.8658 17.852 51.2671 17.9908C51.6684 18.1295 52.2353 18.3016 52.965 18.5042C53.9753 18.7817 54.8172 19.0675 55.4907 19.3644C56.1643 19.6614 56.734 20.1137 57.2026 20.7242C57.6713 21.3347 57.9042 22.1395 57.9042 23.1385C57.9042 24.046 57.632 24.8369 57.0904 25.5112C56.5488 26.1856 55.85 26.699 54.9996 27.0514C54.1465 27.4038 53.2737 27.5787 52.3757 27.5787C51.1408 27.5787 49.9902 27.3761 48.9238 26.9681C47.8574 26.5602 46.9874 25.9053 46.3139 24.9978C46.1455 24.7758 46.0613 24.4983 46.0613 24.1653Z" fill="#231F20"/>
<path d="M71.9924 13.1622C73.0392 13.8199 73.8671 14.7301 74.476 15.8956C75.085 17.0611 75.3881 18.3848 75.3881 19.864C75.3881 21.3431 75.0878 22.6723 74.4901 23.8462C73.8923 25.02 73.0728 25.9358 72.0345 26.5935C70.9961 27.2512 69.8511 27.5786 68.5966 27.5786C67.6986 27.5786 66.8511 27.3983 66.0569 27.0375C65.2627 26.6768 64.6032 26.2383 64.0784 25.7194V31.1585C64.0784 31.6386 63.9184 32.041 63.6013 32.3656C63.2842 32.6903 62.88 32.8513 62.3945 32.8513C61.909 32.8513 61.5049 32.6931 61.1878 32.3795C60.8707 32.0659 60.7107 31.658 60.7107 31.1585V14.1473C60.7107 13.6672 60.8707 13.2648 61.1878 12.9402C61.5049 12.6155 61.909 12.4545 62.3945 12.4545C62.88 12.4545 63.2842 12.6155 63.6013 12.9402C63.9184 13.2648 64.0784 13.6672 64.0784 14.1473V14.2583C64.5274 13.7033 65.1532 13.2177 65.9586 12.8014C66.7641 12.3851 67.606 12.177 68.4844 12.177C69.7753 12.177 70.9456 12.5073 71.9924 13.1622ZM71.0101 23.194C71.7763 22.306 72.1608 21.196 72.1608 19.864C72.1608 18.5319 71.7819 17.4274 71.0242 16.5478C70.2665 15.6681 69.2786 15.2296 68.0634 15.2296C66.8483 15.2296 65.8548 15.6681 65.0887 16.5478C64.3225 17.4274 63.938 18.5319 63.938 19.864C63.938 21.196 64.3225 22.306 65.0887 23.194C65.8548 24.0821 66.8483 24.5261 68.0634 24.5261C69.2618 24.5261 70.244 24.0821 71.0101 23.194Z" fill="#231F20"/>
<path d="M91.5529 12.6488C91.87 12.9624 92.03 13.3703 92.03 13.8698V25.6084C92.03 26.0884 91.87 26.4908 91.5529 26.8155C91.2358 27.1402 90.8316 27.3011 90.3461 27.3011C89.8606 27.3011 89.4621 27.143 89.1534 26.8294C88.8447 26.5158 88.6819 26.1162 88.6623 25.6361C88.1936 26.1717 87.5622 26.6296 86.768 27.0098C85.9738 27.3899 85.1347 27.5787 84.2563 27.5787C82.9653 27.5787 81.7951 27.2512 80.7483 26.5935C79.7015 25.9358 78.8736 25.0256 78.2646 23.8601C77.6556 22.6945 77.3525 21.3708 77.3525 19.8917C77.3525 18.4126 77.6528 17.0833 78.2506 15.9095C78.8483 14.7356 79.6678 13.8199 80.7062 13.1622C81.7445 12.5045 82.8895 12.177 84.144 12.177C85.0421 12.177 85.884 12.338 86.6698 12.6627C87.4556 12.9873 88.1207 13.398 88.6623 13.8976V13.8698C88.6623 13.3897 88.8223 12.9873 89.1394 12.6627C89.4565 12.338 89.8606 12.177 90.3461 12.177C90.8316 12.177 91.233 12.3352 91.5529 12.6488ZM87.652 23.2079C88.4181 22.3282 88.8026 21.2237 88.8026 19.8917C88.8026 18.5597 88.4181 17.4496 87.652 16.5616C86.8859 15.6736 85.8924 15.2296 84.6772 15.2296C83.4789 15.2296 82.4967 15.6736 81.7305 16.5616C80.9644 17.4496 80.5799 18.5597 80.5799 19.8917C80.5799 21.2237 80.9588 22.3282 81.7165 23.2079C82.4742 24.0876 83.4621 24.5261 84.6772 24.5261C85.8924 24.5261 86.883 24.0876 87.652 23.2079Z" fill="#231F20"/>
<path d="M106.062 12.9124C107.036 13.4036 107.521 14.0557 107.521 14.8688C107.521 15.2768 107.401 15.632 107.156 15.9372C106.912 16.2425 106.595 16.3951 106.202 16.3951C105.902 16.3951 105.661 16.3535 105.473 16.2702C105.285 16.187 105.102 16.076 104.925 15.9372C104.749 15.7985 104.575 15.6819 104.406 15.5904C104.218 15.4988 103.943 15.4155 103.578 15.3406C103.214 15.2657 102.919 15.2296 102.694 15.2296C101.291 15.2296 100.191 15.6597 99.3968 16.52C98.6026 17.3803 98.2041 18.5042 98.2041 19.8917C98.2041 21.2237 98.6054 22.3282 99.4109 23.2079C100.216 24.0876 101.243 24.5261 102.498 24.5261C103.416 24.5261 104.098 24.4151 104.547 24.1931C104.659 24.1376 104.813 24.0404 105.01 23.9017C105.206 23.7629 105.388 23.6575 105.557 23.5826C105.725 23.5076 105.93 23.4715 106.174 23.4715C106.643 23.4715 107.011 23.6186 107.283 23.9156C107.555 24.2125 107.69 24.5899 107.69 25.0533C107.69 25.4973 107.429 25.9136 106.904 26.3021C106.379 26.6906 105.689 27.0014 104.827 27.2318C103.966 27.4621 103.051 27.5787 102.077 27.5787C100.637 27.5787 99.3688 27.2456 98.2743 26.5796C97.1798 25.9136 96.3322 24.9923 95.7345 23.8184C95.1367 22.6446 94.8364 21.3347 94.8364 19.8917C94.8364 18.3932 95.1507 17.0611 95.7766 15.8956C96.4024 14.7301 97.278 13.8199 98.4006 13.1622C99.5231 12.5045 100.794 12.177 102.217 12.177C103.806 12.177 105.088 12.424 106.062 12.9124Z" fill="#231F20"/>
<path d="M123.069 20.6132C122.732 20.8907 122.339 21.0295 121.89 21.0295H112.629C112.853 22.1201 113.367 22.9776 114.172 23.5964C114.978 24.2153 115.884 24.5261 116.895 24.5261C117.661 24.5261 118.261 24.4567 118.691 24.3179C119.12 24.1792 119.462 24.0321 119.715 23.8739C119.968 23.7158 120.142 23.6103 120.234 23.5548C120.571 23.3883 120.888 23.305 121.188 23.305C121.581 23.305 121.918 23.4438 122.199 23.7213C122.479 23.9988 122.62 24.3235 122.62 24.6926C122.62 25.1921 122.359 25.6444 121.834 26.0524C121.309 26.4769 120.607 26.8377 119.729 27.1346C118.851 27.4316 117.961 27.5787 117.063 27.5787C115.491 27.5787 114.122 27.254 112.952 26.6074C111.781 25.9608 110.881 25.0672 110.243 23.9294C109.606 22.7917 109.289 21.5096 109.289 20.086C109.289 18.4958 109.626 17.0972 110.3 15.8956C110.973 14.694 111.863 13.7727 112.966 13.1344C114.069 12.4962 115.247 12.177 116.502 12.177C117.737 12.177 118.901 12.51 119.996 13.176C121.09 13.8421 121.966 14.7384 122.62 15.8679C123.274 16.9973 123.602 18.2183 123.602 19.5309C123.582 19.975 123.405 20.3357 123.069 20.6132ZM112.657 18.2544H120.01V18.0602C119.934 17.2831 119.552 16.6171 118.859 16.0621C118.166 15.5071 117.38 15.2296 116.502 15.2296C114.33 15.2296 113.05 16.2397 112.657 18.2544Z" fill="#231F20"/>
<path d="M137.69 13.1622C138.737 13.8199 139.565 14.7301 140.174 15.8956C140.783 17.0611 141.086 18.3848 141.086 19.864C141.086 21.3431 140.785 22.6723 140.188 23.8462C139.59 25.02 138.77 25.9358 137.732 26.5935C136.694 27.2512 135.549 27.5786 134.294 27.5786C133.396 27.5786 132.549 27.3983 131.754 27.0375C130.96 26.6768 130.301 26.2383 129.776 25.7194V31.1585C129.776 31.6386 129.616 32.041 129.299 32.3656C128.982 32.6903 128.578 32.8513 128.092 32.8513C127.607 32.8513 127.202 32.6931 126.885 32.3795C126.568 32.0659 126.408 31.658 126.408 31.1585V14.1473C126.408 13.6672 126.568 13.2648 126.885 12.9402C127.202 12.6155 127.607 12.4545 128.092 12.4545C128.578 12.4545 128.982 12.6155 129.299 12.9402C129.616 13.2648 129.776 13.6672 129.776 14.1473V14.2583C130.225 13.7033 130.851 13.2177 131.656 12.8014C132.462 12.3851 133.304 12.177 134.182 12.177C135.473 12.177 136.64 12.5073 137.69 13.1622ZM136.708 23.194C137.474 22.306 137.858 21.196 137.858 19.864C137.858 18.5319 137.479 17.4274 136.722 16.5478C135.964 15.6681 134.976 15.2296 133.761 15.2296C132.546 15.2296 131.552 15.6681 130.786 16.5478C130.02 17.4274 129.636 18.5319 129.636 19.864C129.636 21.196 130.02 22.306 130.786 23.194C131.552 24.0821 132.546 24.5261 133.761 24.5261C134.956 24.5261 135.939 24.0821 136.708 23.194Z" fill="#231F20"/>
<path d="M157.304 23.8739C156.63 25.0478 155.71 25.9608 154.54 26.6074C153.369 27.254 152.084 27.5787 150.681 27.5787C149.258 27.5787 147.967 27.254 146.808 26.6074C145.649 25.9608 144.731 25.0478 144.058 23.8739C143.384 22.7001 143.047 21.3708 143.047 19.8917C143.047 18.4126 143.384 17.0833 144.058 15.9095C144.731 14.7356 145.649 13.8199 146.808 13.1622C147.967 12.5045 149.258 12.177 150.681 12.177C152.084 12.177 153.369 12.5045 154.54 13.1622C155.71 13.8199 156.63 14.7356 157.304 15.9095C157.977 17.0833 158.314 18.4126 158.314 19.8917C158.314 21.3736 157.977 22.7001 157.304 23.8739ZM154.371 17.4635C153.987 16.7503 153.473 16.2009 152.828 15.8124C152.182 15.4238 151.467 15.2296 150.681 15.2296C149.895 15.2296 149.179 15.4238 148.534 15.8124C147.888 16.2009 147.375 16.7503 146.99 17.4635C146.606 18.1767 146.415 18.9843 146.415 19.8917C146.415 20.7992 146.606 21.6039 146.99 22.306C147.375 23.0081 147.888 23.5548 148.534 23.9433C149.179 24.3318 149.895 24.5261 150.681 24.5261C151.467 24.5261 152.182 24.3318 152.828 23.9433C153.473 23.5548 153.987 23.0081 154.371 22.306C154.756 21.6039 154.946 20.7992 154.946 19.8917C154.946 18.987 154.756 18.1767 154.371 17.4635Z" fill="#231F20"/>
<path d="M174.535 23.8739C173.861 25.0478 172.941 25.9608 171.771 26.6074C170.6 27.254 169.315 27.5787 167.912 27.5787C166.489 27.5787 165.198 27.254 164.039 26.6074C162.88 25.9608 161.962 25.0478 161.289 23.8739C160.615 22.7001 160.279 21.3708 160.279 19.8917C160.279 18.4126 160.615 17.0833 161.289 15.9095C161.962 14.7356 162.88 13.8199 164.039 13.1622C165.198 12.5045 166.489 12.177 167.912 12.177C169.315 12.177 170.6 12.5045 171.771 13.1622C172.941 13.8199 173.861 14.7356 174.535 15.9095C175.209 17.0833 175.545 18.4126 175.545 19.8917C175.545 21.3736 175.209 22.7001 174.535 23.8739ZM171.602 17.4635C171.218 16.7503 170.704 16.2009 170.059 15.8124C169.413 15.4238 168.698 15.2296 167.912 15.2296C167.126 15.2296 166.411 15.4238 165.765 15.8124C165.12 16.2009 164.606 16.7503 164.222 17.4635C163.837 18.1767 163.646 18.9843 163.646 19.8917C163.646 20.7992 163.837 21.6039 164.222 22.306C164.606 23.0081 165.12 23.5548 165.765 23.9433C166.411 24.3318 167.126 24.5261 167.912 24.5261C168.698 24.5261 169.413 24.3318 170.059 23.9433C170.704 23.5548 171.218 23.0081 171.602 22.306C171.987 21.6039 172.178 20.7992 172.178 19.8917C172.178 18.987 171.987 18.1767 171.602 17.4635Z" fill="#231F20"/>
<path d="M181.509 26.8155C181.181 27.1402 180.774 27.3011 180.288 27.3011C179.819 27.3011 179.427 27.1402 179.109 26.8155C178.792 26.4908 178.632 26.0884 178.632 25.6083V8.45842C178.632 7.97833 178.795 7.57595 179.123 7.25126C179.452 6.92658 179.859 6.76562 180.344 6.76562C180.813 6.76562 181.206 6.92658 181.523 7.25126C181.84 7.57595 182 7.97833 182 8.45842V25.6083C182 26.0912 181.837 26.4936 181.509 26.8155Z" fill="#231F20"/>
<path d="M13.6082 37.0007C13.1086 37.0007 12.6119 36.8703 12.1573 36.6122L2.21144 30.9399C0.84753 30.1601 0 28.7088 0 27.1492V11.9668C0 10.4072 0.84753 8.95583 2.21144 8.17881L15.5109 0.586219C16.8748 -0.193575 18.5699 -0.193575 19.9366 0.586219L33.2361 8.17881C34.6 8.9586 35.4475 10.41 35.4475 11.9668V27.152C35.4475 28.7088 34.6 30.1629 33.2361 30.9399L23.2902 36.6177C22.3922 37.1311 21.3201 37.1311 20.4221 36.6177C19.5241 36.1043 18.988 35.1886 18.988 34.1618V28.2287C18.988 28.2065 18.988 28.1815 18.988 28.1593V20.8137C18.988 19.354 19.7822 17.997 21.0592 17.2672L26.3099 14.3089C27.0564 13.8844 27.9909 13.8844 28.7459 14.3145C29.498 14.7446 29.9666 15.5466 29.9666 16.4069V22.0458C29.9666 23.6276 29.1051 25.104 27.7187 25.8949L22.0751 29.0806V33.7872L31.6898 28.2981C32.1023 28.0622 32.3577 27.6237 32.3577 27.152V11.9668C32.3577 11.495 32.1023 11.0566 31.6898 10.8207L18.3931 3.22809C17.9805 2.9922 17.467 2.9922 17.0544 3.22809L3.75495 10.8207C3.34241 11.0566 3.08703 11.495 3.08703 11.9668V27.152C3.08703 27.6237 3.34241 28.0622 3.75495 28.2981L13.423 33.8149V29.347C13.423 28.9807 13.2237 28.6422 12.9038 28.459L7.68951 25.4758C6.14599 24.5961 5.4444 22.7007 5.4444 21.3132V16.3597C5.4444 15.4994 5.91306 14.6974 6.66518 14.2673C7.41729 13.8372 8.35462 13.8372 9.10674 14.2673L16.3641 18.4105C17.1021 18.8323 17.3547 19.7647 16.9281 20.4946C16.5016 21.2244 15.5586 21.4742 14.8205 21.0524L8.52862 17.4642V21.3132C8.52862 21.9432 8.90748 22.6452 9.23022 22.8312L14.4473 25.8088C15.7186 26.5359 16.51 27.8874 16.51 29.3415V34.1229C16.51 35.1608 15.9684 36.0905 15.0591 36.6094C14.6045 36.8703 14.1049 37.0007 13.6082 37.0007ZM26.8796 17.5003L22.5971 19.9146C22.2799 20.095 22.0779 20.4418 22.0779 20.8137V25.5646L26.1836 23.2447C26.613 23.0005 26.8824 22.537 26.8824 22.0431V17.5003H26.8796ZM27.845 16.9564L27.8394 16.9591C27.8422 16.9591 27.845 16.9564 27.845 16.9564Z" fill="#231F20"/>
</svg>
