<svg width="18" height="19" viewBox="0 0 18 19" fill="none" xmlns="http://www.w3.org/2000/svg">
<path d="M6.91014 18.9989C6.65648 18.9989 6.40424 18.932 6.17338 18.7994L1.12295 15.8868C0.43037 15.4864 0 14.7411 0 13.9402V6.14417C0 5.34333 0.43037 4.59806 1.12295 4.19907L7.87634 0.300315C8.56892 -0.100105 9.42966 -0.100105 10.1237 0.300315L16.8771 4.19907C17.5696 4.59949 18 5.34475 18 6.14417V13.9417C18 14.7411 17.5696 15.4878 16.8771 15.8868L11.8266 18.8023C11.3706 19.0659 10.8262 19.0659 10.3702 18.8023C9.91418 18.5387 9.64199 18.0684 9.64199 17.5412V14.4946C9.64199 14.4832 9.64199 14.4703 9.64199 14.4589V10.687C9.64199 9.93747 10.0453 9.24065 10.6937 8.86588L13.36 7.34685C13.7391 7.12883 14.2136 7.12883 14.5969 7.3497C14.9789 7.57057 15.2168 7.98239 15.2168 8.42414V11.3197C15.2168 12.1319 14.7794 12.89 14.0754 13.2962L11.2096 14.932V17.3488L16.0918 14.5302C16.3013 14.4091 16.431 14.1839 16.431 13.9417V6.14417C16.431 5.90192 16.3013 5.67677 16.0918 5.55565L9.33988 1.6569C9.13039 1.53577 8.86961 1.53577 8.66012 1.6569L1.90674 5.55565C1.69725 5.67677 1.56757 5.90192 1.56757 6.14417V13.9417C1.56757 14.1839 1.69725 14.4091 1.90674 14.5302L6.81609 17.3631V15.0688C6.81609 14.8807 6.71491 14.7069 6.55245 14.6128L3.90468 13.081C3.12089 12.6293 2.76463 11.656 2.76463 10.9435V8.39991C2.76463 7.95817 3.00261 7.54635 3.38453 7.32548C3.76645 7.10461 4.24242 7.10461 4.62434 7.32548L8.30956 9.45298C8.68435 9.66957 8.8126 10.1484 8.59599 10.5231C8.37938 10.8979 7.90056 11.0262 7.52577 10.8096L4.33077 8.96706V10.9435C4.33077 11.267 4.52316 11.6275 4.68704 11.723L7.33624 13.252C7.98179 13.6253 8.38366 14.3193 8.38366 15.066V17.5212C8.38366 18.0542 8.10862 18.5315 7.6469 18.798C7.41604 18.932 7.16238 18.9989 6.91014 18.9989ZM13.6493 8.98558L11.4746 10.2253C11.3136 10.3179 11.211 10.4961 11.211 10.687V13.1266L13.2959 11.9353C13.5139 11.8099 13.6507 11.5719 13.6507 11.3183V8.98558H13.6493ZM14.1395 8.70629L14.1366 8.70771C14.1381 8.70771 14.1395 8.70629 14.1395 8.70629Z" fill="#86919E"/>
</svg>
