<svg width="26" height="28" viewBox="0 0 26 28" fill="none" xmlns="http://www.w3.org/2000/svg">
<path d="M12.9923 27.9992C12.1966 27.9992 11.3855 27.7892 10.6663 27.3843L2.31077 22.6602C0.887581 21.8503 0 20.3506 0 18.7309V9.28254C0 7.64783 0.887581 6.1481 2.32607 5.33824L10.6816 0.599091C12.1201 -0.210765 13.8952 -0.210765 15.3184 0.599091L23.6739 5.32325C25.1124 6.1331 26 7.64783 26 9.26754V18.7159C26 20.3356 25.1124 21.8503 23.6739 22.6602L15.3184 27.3843C14.5992 27.8042 13.8034 27.9992 12.9923 27.9992ZM12.9923 1.49893C12.4567 1.49893 11.9211 1.63391 11.4314 1.90386L3.09123 6.62801C2.12713 7.16792 1.53031 8.18774 1.53031 9.26754V18.7159C1.53031 19.7957 2.12713 20.8155 3.09123 21.3554L11.4467 26.0795C12.4108 26.6194 13.6045 26.6194 14.5533 26.0795L22.9088 21.3554C23.8729 20.8155 24.4697 19.7957 24.4697 18.7159V9.26754C24.4697 8.17274 23.8729 7.16792 22.9088 6.62801L14.5533 1.90386C14.0789 1.63391 13.5433 1.49893 12.9923 1.49893Z" fill="white"/>
<path d="M10.5897 10.0034C10.5897 10.2883 10.4979 10.5283 10.2837 10.7232C10.0847 10.9182 9.80926 11.0232 9.4726 11.0232H9.45729C9.12062 11.0232 8.86047 10.9332 8.66153 10.7382C8.46259 10.5433 8.35547 10.3033 8.35547 10.0184C8.35547 9.7334 8.46259 9.47845 8.66153 9.29848C8.87577 9.08852 9.15123 8.99854 9.4879 8.99854C9.82457 8.99854 10.0847 9.08852 10.2837 9.28348C10.4826 9.46345 10.5897 9.71841 10.5897 10.0034ZM10.4673 11.818V17.682H8.47789V11.818H10.4673ZM17.6292 14.3226V17.682H15.6398V14.5325C15.6398 14.1126 15.5632 13.7977 15.3949 13.5577C15.2266 13.3178 14.9817 13.2128 14.6297 13.2128C14.3696 13.2128 14.1707 13.2728 13.987 13.4227C13.8187 13.5577 13.681 13.7227 13.6044 13.9327C13.5738 14.0376 13.5585 14.2026 13.5585 14.3976V17.667H11.5691C11.5691 16.0923 11.5844 14.8175 11.5844 13.8427C11.5844 12.8678 11.5844 12.2829 11.5844 12.088V11.803H13.5738V12.6579H13.5432C13.6197 12.5379 13.6963 12.4329 13.7881 12.3279C13.8799 12.238 13.987 12.133 14.1247 12.013C14.2625 11.908 14.4461 11.818 14.645 11.758C14.8593 11.6981 15.0888 11.6681 15.3337 11.6681C16.0223 11.6681 16.5732 11.893 16.9864 12.3429C17.4149 12.7929 17.6292 13.4527 17.6292 14.3226Z" fill="white"/>
</svg>
