<svg width="14" height="14" viewBox="0 0 14 14" fill="none" xmlns="http://www.w3.org/2000/svg">
<path d="M11.7143 4.85714L3.80952 12.7619L0 14L1.25714 10.1905L9.1619 2.28571L11.7143 4.85714ZM9.39048 4.20952C9.52381 4.07619 9.52381 3.94286 9.39048 3.80952C9.33333 3.75238 9.25714 3.71429 9.18095 3.71429C9.10476 3.71429 9.04762 3.75238 8.99048 3.80952L2.70476 10.0762C2.64762 10.1524 2.60952 10.2095 2.60952 10.2857C2.60952 10.3619 2.64762 10.4381 2.70476 10.4952C2.7619 10.5524 2.81905 10.5714 2.91429 10.5714C2.99048 10.5714 3.04762 10.5524 3.10476 10.4952L9.39048 4.20952ZM13.6952 1.33333C13.9048 1.54286 14.019 1.80952 14.019 2.09524C14.019 2.4 13.9048 2.64762 13.6952 2.85714L12.6095 3.9619L10.0571 1.40952L11.1429 0.32381C11.3524 0.114286 11.6 0 11.9048 0C12.2095 0 12.4571 0.114286 12.6667 0.32381L13.181 0.819048L13.6952 1.33333Z" fill="#333333"/>
</svg>
