<svg width="26" height="14" viewBox="0 0 26 14" fill="none" xmlns="http://www.w3.org/2000/svg">
<path d="M15.6061 3.85349C15.6061 5.72223 14.1477 7.20698 12.3853 7.20698C10.6229 7.20698 9.16455 5.72223 9.16455 3.85349C9.16455 1.98475 10.6229 0.5 12.3853 0.5C14.1477 0.5 15.6061 1.98475 15.6061 3.85349Z" stroke="#A3ACBA"/>
<path d="M18.1355 12.6114C18.1355 10.6767 15.561 9.10825 12.3852 9.10825C9.20938 9.10825 6.63489 10.6767 6.63489 12.6114" stroke="#A3ACBA" stroke-linecap="round" stroke-linejoin="round"/>
<path d="M7.18574 5.51424C7.18574 6.83912 6.15309 7.88298 4.91581 7.88298C3.67853 7.88298 2.64587 6.83912 2.64587 5.51424C2.64587 4.18936 3.67853 3.14551 4.91581 3.14551C6.15309 3.14551 7.18574 4.18936 7.18574 5.51424Z" stroke="#A3ACBA"/>
<path d="M0.634888 12.0341C0.634888 10.5938 2.55147 9.42615 4.9157 9.42615" stroke="#A3ACBA" stroke-linecap="round" stroke-linejoin="round"/>
<path d="M18.084 5.51424C18.084 6.83912 19.1167 7.88298 20.354 7.88298C21.5912 7.88298 22.6239 6.83912 22.6239 5.51424C22.6239 4.18936 21.5912 3.14551 20.354 3.14551C19.1167 3.14551 18.084 4.18936 18.084 5.51424Z" stroke="#A3ACBA"/>
<path d="M24.6349 12.0341C24.6349 10.5938 22.7183 9.42615 20.3541 9.42615" stroke="#A3ACBA" stroke-linecap="round" stroke-linejoin="round"/>
</svg>
