<svg xmlns="http://www.w3.org/2000/svg" viewBox="0 0 10.43 8.58"><title>photo</title><path d="M8.58,8.58H1.85A1.85,1.85,0,0,1,0,6.73V2.62A1.85,1.85,0,0,1,1.85.77H3.42a.37.37,0,0,1,.38.37.38.38,0,0,1-.38.38H1.85a1.1,1.1,0,0,0-1.1,1.1V6.73a1.1,1.1,0,0,0,1.1,1.1H8.58a1.11,1.11,0,0,0,1.1-1.1V2.62a1.1,1.1,0,0,0-1.1-1.1H7.08a.38.38,0,0,1-.38-.38A.37.37,0,0,1,7.08.77h1.5a1.85,1.85,0,0,1,1.85,1.85V6.73A1.85,1.85,0,0,1,8.58,8.58Z" fill="#333"/><path d="M5.21,7.08A2.17,2.17,0,1,1,7.38,4.91,2.17,2.17,0,0,1,5.21,7.08Zm0-3.59A1.42,1.42,0,1,0,6.63,4.91,1.42,1.42,0,0,0,5.21,3.49Z" fill="#333"/><path d="M9,2.89a.4.4,0,0,1-.4.4.4.4,0,0,1,0-.79A.4.4,0,0,1,9,2.89Z" fill="#333"/><path d="M5.26,2.28a.36.36,0,0,1-.37-.37V1.52H4.5a.38.38,0,0,1-.38-.38A.37.37,0,0,1,4.5.77h.39V.38A.37.37,0,0,1,5.26,0a.38.38,0,0,1,.38.38V.77H6a.36.36,0,0,1,.37.37A.37.37,0,0,1,6,1.52H5.64v.39A.37.37,0,0,1,5.26,2.28Z" fill="#333"/></svg>