<?xml version="1.0" encoding="utf-8"?>
<!-- Generator: Adobe Illustrator 22.1.0, SVG Export Plug-In . SVG Version: 6.00 Build 0)  -->
<svg version="1.1" id="Layer_1" xmlns="http://www.w3.org/2000/svg" xmlns:xlink="http://www.w3.org/1999/xlink" x="0px" y="0px"
	 viewBox="0 0 282.8 282.9" style="enable-background:new 0 0 282.8 282.9;" xml:space="preserve">
<style type="text/css">
	.st0{fill:#333333;}
</style>
<path class="st0" d="M281.7,253.2c0.7,1.4,1,3,1,4.6c0,3.9-1.4,7.3-4.3,10.3l-10.3,10.1c-2.7,3-6.1,4.5-10.1,4.5h-0.7
	c-4.1-0.5-7.6-2.3-10.5-5.5l-80.7-103.9c-9.7,8.5-18.8,15.9-27.2,22.4c-8.5,6.4-16.5,11.9-24,16.5l6.2,49.8v1.8
	c0,3.9-1.3,7.2-3.9,9.8l-5.5,5.5c-2.7,2.7-6.1,4-10.3,4h-0.7c-4.6-0.5-8.1-2.3-10.5-5.5l-36.3-48.2L5.5,192.5
	c-3.4-2.9-5.2-6.5-5.5-10.6v-0.7c0-3.7,1.4-7.1,4.1-10.1l5.3-5.1c2.4-3,5.7-4.4,9.9-4.3c1,0,1.6,0.1,1.8,0.4l49.7,5.7
	c4.6-7.5,10.1-15.4,16.6-23.8c6.5-8.5,13.9-17.4,22.3-26.9L6.2,36c-3.7-3-5.5-6.4-5.5-10.5v-0.7c0-3.7,1.3-7.1,4.1-10.3L14.9,4.4
	c3.2-2.7,6.5-4.1,10.1-4.1c0.7,0,1.5,0,2.4,0c0.9,0,1.7,0.3,2.4,0.7L172.2,53l26.8-26.4c8.3-8.3,17.8-14.8,28.6-19.5
	C238.2,2.4,248.1,0,257.1,0c8.5,0,15,2.2,19.4,6.5c2.3,2.1,4,4.8,5,8.2c0.9,3.3,1.4,7,1.4,11.1c0,9-2.3,18.9-6.8,29.6
	c-4.6,10.7-11.1,20.2-19.6,28.4l-26.6,26.9L281.7,253.2z"/>
</svg>
