<?xml version="1.0" encoding="utf-8"?>
<!-- Generator: Adobe Illustrator 22.1.0, SVG Export Plug-In . SVG Version: 6.00 Build 0)  -->
<svg version="1.1" id="Layer_1" xmlns="http://www.w3.org/2000/svg" xmlns:xlink="http://www.w3.org/1999/xlink" x="0px" y="0px"
	 viewBox="0 0 23.2 23.2" style="enable-background:new 0 0 23.2 23.2;" xml:space="preserve">
<style type="text/css">
	.st0{fill:#FFFFFF;}
</style>
<g>
	<g>
		<line class="st0" x1="11.6" y1="1.5" x2="11.6" y2="21.7"/>
		<path d="M11.6,23.2c-0.8,0-1.5-0.7-1.5-1.5V1.5c0-0.8,0.7-1.5,1.5-1.5s1.5,0.7,1.5,1.5v20.2C13.1,22.6,12.4,23.2,11.6,23.2z"/>
	</g>
	<g>
		<line class="st0" x1="11.6" y1="1.5" x2="11.6" y2="21.7"/>
		<path d="M11.6,23.2c-0.8,0-1.5-0.7-1.5-1.5V1.5c0-0.8,0.7-1.5,1.5-1.5s1.5,0.7,1.5,1.5v20.2C13.1,22.6,12.4,23.2,11.6,23.2z"/>
	</g>
	<g>
		<line class="st0" x1="21.7" y1="11.6" x2="1.5" y2="11.6"/>
		<path d="M21.7,13.1H1.5c-0.8,0-1.5-0.7-1.5-1.5s0.7-1.5,1.5-1.5h20.2c0.8,0,1.5,0.7,1.5,1.5S22.6,13.1,21.7,13.1z"/>
	</g>
</g>
</svg>
