<svg xmlns="http://www.w3.org/2000/svg" viewBox="0 0 8.82 7.35"><title>preview</title><path d="M7.17,4.26a2,2,0,0,0,.43.23,1.58,1.58,0,0,0,.49.1V5.88A1.39,1.39,0,0,1,8,6.45a1.7,1.7,0,0,1-.32.47,1.65,1.65,0,0,1-.46.32,1.56,1.56,0,0,1-.57.11H1.47A1.56,1.56,0,0,1,.9,7.24a1.56,1.56,0,0,1-.47-.32,1.67,1.67,0,0,1-.31-.47A1.39,1.39,0,0,1,0,5.88V1.47A1.39,1.39,0,0,1,.12.9,1.54,1.54,0,0,1,.43.43,1.54,1.54,0,0,1,.9.12,1.39,1.39,0,0,1,1.47,0H4.26a.59.59,0,0,0,0,.13.61.61,0,0,0,0,.14V.69a.91.91,0,0,0,0,.23H1.47a.55.55,0,0,0-.55.55V5.88a.57.57,0,0,0,.16.39.53.53,0,0,0,.39.16H6.62A.51.51,0,0,0,7,6.27a.54.54,0,0,0,.17-.39ZM8.82.68V3a.28.28,0,0,1-.08.2.21.21,0,0,1-.19.07H8.14a.24.24,0,0,1-.2-.08A.26.26,0,0,1,7.86,3V1.75L4.16,5.43A.26.26,0,0,1,4,5.51a.3.3,0,0,1-.2-.08l-.38-.38a.33.33,0,0,1-.08-.2.26.26,0,0,1,.08-.19L7.08,1H5.79A.22.22,0,0,1,5.6.88a.24.24,0,0,1-.08-.2V.27A.24.24,0,0,1,5.59.08.32.32,0,0,1,5.79,0H8.55a.27.27,0,0,1,.19.08.25.25,0,0,1,.08.19Z" fill="#333"/></svg>