<svg xmlns="http://www.w3.org/2000/svg" viewBox="0 0 7.64 7.65"><title>round-check</title><path d="M3.82,0A3.71,3.71,0,0,1,5.31.3a3.8,3.8,0,0,1,1.22.82,3.87,3.87,0,0,1,.82,1.21,3.78,3.78,0,0,1,.29,1.5,3.72,3.72,0,0,1-1.11,2.7,3.8,3.8,0,0,1-1.22.82,3.71,3.71,0,0,1-1.49.3,3.78,3.78,0,0,1-2.7-1.12A3.78,3.78,0,0,1,0,3.83a3.79,3.79,0,0,1,.3-1.5,3.87,3.87,0,0,1,.82-1.21A3.78,3.78,0,0,1,3.82,0m0,6.5a2.59,2.59,0,0,0,1.05-.21A2.74,2.74,0,0,0,6.29,4.87a2.58,2.58,0,0,0,.21-1,2.59,2.59,0,0,0-.21-1.05A2.74,2.74,0,0,0,4.87,1.36a2.66,2.66,0,0,0-1.05-.21,2.58,2.58,0,0,0-1,.21,2.65,2.65,0,0,0-.85.57,2.88,2.88,0,0,0-.57.85,2.59,2.59,0,0,0-.21,1.05,2.58,2.58,0,0,0,.21,1,2.88,2.88,0,0,0,.57.85,2.65,2.65,0,0,0,.85.57,2.58,2.58,0,0,0,1,.21M5.19,2.62a.22.22,0,0,1,.14-.05.19.19,0,0,1,.13.05L6,3.17a.19.19,0,0,1,0,.13.17.17,0,0,1,0,.13l-2,2a.37.37,0,0,1-.16.1.39.39,0,0,1-.18,0H3.17a.45.45,0,0,1-.18,0,.37.37,0,0,1-.16-.1L1.64,4.2a.15.15,0,0,1,0-.13.17.17,0,0,1,0-.14l.55-.54a.14.14,0,0,1,.13-.05.15.15,0,0,1,.13.05l.85.86a.19.19,0,0,0,.28,0Z" fill="#333"/></svg>