<svg xmlns="http://www.w3.org/2000/svg" viewBox="0 0 6.66 8.42"><title>rules</title><path d="M6.29,8.42H.38A.38.38,0,0,1,0,8V.38A.38.38,0,0,1,.38,0H6.29a.38.38,0,0,1,.37.38V8A.38.38,0,0,1,6.29,8.42ZM.75,7.67H5.91V.75H.75Z" fill="#333"/><path d="M1.75,2.22H1.64a.38.38,0,0,1,0-.75h.11a.38.38,0,0,1,0,.75Z" fill="#333"/><path d="M4.8,2.22H2.88a.38.38,0,1,1,0-.75H4.8a.38.38,0,0,1,0,.75Z" fill="#333"/><path d="M1.75,3.75H1.64a.36.36,0,0,1-.37-.37A.37.37,0,0,1,1.64,3h.11a.37.37,0,0,1,.37.38A.36.36,0,0,1,1.75,3.75Z" fill="#333"/><path d="M4.8,3.75H2.88a.37.37,0,0,1-.38-.37A.38.38,0,0,1,2.88,3H4.8a.38.38,0,0,1,.37.38A.37.37,0,0,1,4.8,3.75Z" fill="#333"/><path d="M1.75,5.29H1.64a.38.38,0,0,1,0-.75h.11a.38.38,0,0,1,0,.75Z" fill="#333"/><path d="M4.8,5.29H2.88a.38.38,0,1,1,0-.75H4.8a.38.38,0,0,1,0,.75Z" fill="#333"/><path d="M1.75,6.82H1.64a.36.36,0,0,1-.37-.37.37.37,0,0,1,.37-.38h.11a.37.37,0,0,1,.37.38A.36.36,0,0,1,1.75,6.82Z" fill="#333"/><path d="M4.8,6.82H2.88a.37.37,0,0,1-.38-.37.38.38,0,0,1,.38-.38H4.8a.38.38,0,0,1,.37.38A.37.37,0,0,1,4.8,6.82Z" fill="#333"/></svg>