<svg xmlns="http://www.w3.org/2000/svg" viewBox="0 0 22 22"><title>save</title><path d="M20,22H2a2,2,0,0,1-2-2V2A2,2,0,0,1,2,0H20a2,2,0,0,1,2,2V20A2,2,0,0,1,20,22ZM2,1A1,1,0,0,0,1,2V20a1,1,0,0,0,1,1H20a1,1,0,0,0,1-1V2a1,1,0,0,0-1-1Z"/><path d="M16.83,8.92H5a.5.5,0,0,1-.5-.5V.5a.5.5,0,0,1,1,0V7.92H16.33V.5a.5.5,0,0,1,.5-.5.5.5,0,0,1,.5.5V8.42A.5.5,0,0,1,16.83,8.92Z"/><path d="M8.17,6.67a.5.5,0,0,1-.5-.5V2.09a.5.5,0,0,1,.5-.5.51.51,0,0,1,.5.5V6.17A.51.51,0,0,1,8.17,6.67Z"/><path d="M19.46,20.25a.5.5,0,0,1-.5-.5V19a.5.5,0,0,1,.5-.5.5.5,0,0,1,.5.5v.79A.5.5,0,0,1,19.46,20.25Z"/></svg>