<svg xmlns="http://www.w3.org/2000/svg" viewBox="0 0 15.99 18.46"><title>inst</title><path d="M9.87,5.87H6.11A1.48,1.48,0,0,0,4.64,7.35v3.76a1.48,1.48,0,0,0,1.47,1.48H9.87a1.48,1.48,0,0,0,1.48-1.48V7.35A1.48,1.48,0,0,0,9.87,5.87ZM8,11.35a2.12,2.12,0,1,1,2.13-2.12A2.12,2.12,0,0,1,8,11.35Zm2.28-3.78A.58.58,0,1,1,10.85,7,.58.58,0,0,1,10.27,7.57Z" fill="#fff"/><path d="M8,8.11A1.12,1.12,0,1,0,9.12,9.23,1.12,1.12,0,0,0,8,8.11Z" fill="#fff"/><path d="M8,0,0,4.61v9.23l8,4.62,8-4.62V4.61Zm4.36,11.11a2.49,2.49,0,0,1-2.48,2.48H6.11a2.48,2.48,0,0,1-2.47-2.48V7.35A2.48,2.48,0,0,1,6.11,4.87H9.87a2.49,2.49,0,0,1,2.48,2.48Z" fill="#fff"/></svg>