<svg xmlns="http://www.w3.org/2000/svg" viewBox="0 0 15.99 18.46"><title>ln</title><path d="M8,0,0,4.61v9.23l8,4.62,8-4.62V4.61ZM5.54,13.53H3.6V7.72H5.54ZM5.37,6.65a1.13,1.13,0,0,1-.8.28h0a1,1,0,0,1-.77-.28,1,1,0,0,1-.3-.72.92.92,0,0,1,.31-.72,1.08,1.08,0,0,1,.78-.28,1.05,1.05,0,0,1,.78.28,1,1,0,0,1,.3.72A1,1,0,0,1,5.37,6.65Zm7.12,6.88H10.57v-3.1a1.7,1.7,0,0,0-.24-1,.85.85,0,0,0-.74-.35,1,1,0,0,0-.62.2,1.24,1.24,0,0,0-.37.51,1.19,1.19,0,0,0-.07.47v3.24H6.6c0-1.56,0-2.82,0-3.79s0-1.55,0-1.73V7.72H8.53v.83a2.78,2.78,0,0,1,.23-.31,2.56,2.56,0,0,1,.33-.31,1.73,1.73,0,0,1,.51-.25,2.36,2.36,0,0,1,.67-.09,2.07,2.07,0,0,1,1.61.66,2.8,2.8,0,0,1,.61,1.95Z" fill="#fff"/></svg>