<svg xmlns="http://www.w3.org/2000/svg" viewBox="0 0 15.99 18.46"><title>tw</title><path d="M8,0,0,4.61v9.23l8,4.62,8-4.62V4.61Zm3.92,7.35a1.63,1.63,0,0,1,0,.25,5.27,5.27,0,0,1-.23,1.51A5.2,5.2,0,0,1,11,10.57,5.82,5.82,0,0,1,9.94,11.8a4.78,4.78,0,0,1-1.52.86A5.55,5.55,0,0,1,6.53,13a5.21,5.21,0,0,1-2.9-.85,3.17,3.17,0,0,0,.45,0,3.73,3.73,0,0,0,2.35-.8A1.9,1.9,0,0,1,4.66,10l.36,0a2.14,2.14,0,0,0,.5-.06,1.86,1.86,0,0,1-1.09-.66A1.79,1.79,0,0,1,4,8.14v0a1.85,1.85,0,0,0,.86.24,1.93,1.93,0,0,1-.62-.68,1.87,1.87,0,0,1,0-1.85A5.34,5.34,0,0,0,6,7.22a5.24,5.24,0,0,0,2.17.59,2.25,2.25,0,0,1,0-.44A1.88,1.88,0,0,1,10,5.48a1.8,1.8,0,0,1,1.38.6,3.65,3.65,0,0,0,1.2-.46,1.79,1.79,0,0,1-.83,1,3.68,3.68,0,0,0,1.09-.29A4,4,0,0,1,11.91,7.35Z" fill="#fff"/></svg>