<svg width="17" height="17" viewBox="0 0 17 17" fill="none" xmlns="http://www.w3.org/2000/svg">
<path fill-rule="evenodd" clip-rule="evenodd" d="M12.0612 6.53847C12.0612 3.49141 9.58552 1.01568 6.53847 1.01568C3.49141 1.01568 1.01568 3.49141 1.01568 6.53847C1.01568 9.58552 3.49141 12.0612 6.53847 12.0612C9.58552 12.0612 12.0612 9.58552 12.0612 6.53847ZM0 6.53847C0 2.92009 2.92009 0 6.53847 0C10.0934 0 13.0769 2.92009 13.0769 6.53847C13.0769 8.18615 12.4714 9.68904 11.4702 10.8373L16.8704 16.2495C17.0432 16.4227 17.0432 16.7113 16.8704 16.8845C16.8128 16.9423 16.6976 17 16.5823 17C16.4671 17 16.3519 16.9423 16.2367 16.8845L10.8357 11.4716C9.68762 12.472 8.18537 13.0769 6.53847 13.0769C2.92009 13.0769 0 10.1568 0 6.53847Z" fill="white"/>
</svg>
