<?xml version="1.0" encoding="utf-8"?>
<!-- Generator: Adobe Illustrator 22.1.0, SVG Export Plug-In . SVG Version: 6.00 Build 0)  -->
<svg version="1.1" id="Layer_1" xmlns="http://www.w3.org/2000/svg" xmlns:xlink="http://www.w3.org/1999/xlink" x="0px" y="0px"
	 viewBox="0 0 8.1 8.3" style="enable-background:new 0 0 8.1 8.3;" xml:space="preserve">
<style type="text/css">
	.st0{fill:#333333;}
</style>
<g>
	<g>
		<g>
			<path class="st0" d="M2.9,5.9C1.3,5.9,0,4.6,0,2.9S1.3,0,2.9,0s2.9,1.3,2.9,2.9S4.6,5.9,2.9,5.9z M2.9,0.8c-1.2,0-2.2,1-2.2,2.2
				s1,2.2,2.2,2.2s2.2-1,2.2-2.2S4.1,0.8,2.9,0.8z"/>
		</g>
	</g>
	<g>
		<path class="st0" d="M6.9,8.1L4.4,5.6C4.2,5.4,4.2,5.2,4.4,5l0.5-0.5c0.2-0.2,0.4-0.2,0.6,0L8,7.1c0.2,0.2,0.2,0.4,0,0.6L7.5,8.1
			C7.4,8.3,7.1,8.3,6.9,8.1z"/>
	</g>
</g>
</svg>
