<svg xmlns="http://www.w3.org/2000/svg" viewBox="0 0 28.8 27.09"><title>shower</title><path d="M28.3,27.09a.5.5,0,0,1-.5-.5V11.88c0-5.74-4.8-8.62-7.48-8.62a.5.5,0,0,1,0-1c3,0,8.48,3.22,8.48,9.62V26.59A.5.5,0,0,1,28.3,27.09Z"/><path d="M20,11.18a.47.47,0,0,1-.32-.12L10.11,2.83a.53.53,0,0,1-.17-.35.47.47,0,0,1,.14-.37A6.8,6.8,0,0,1,20.36,11a.49.49,0,0,1-.35.19ZM11.18,2.43,19.88,10a5.81,5.81,0,0,0-8.7-7.52Z"/><path d="M19,10.39h-.11c-6.85-1.59-8.14-6.91-8.2-7.14a.5.5,0,1,1,1-.22c0,.2,1.22,4.94,7.45,6.38a.5.5,0,0,1-.12,1Z"/><path d="M12,9.61a.51.51,0,0,1-.5-.5.51.51,0,0,1,.15-.36.52.52,0,0,1,.71,0,.54.54,0,0,1,.14.36.43.43,0,0,1,0,.19.48.48,0,0,1-.46.31Z"/><path d="M4.41,16.56a.49.49,0,0,1,0-.7h0a.5.5,0,0,1,.71,0h0a.5.5,0,0,1,0,.71h0a.47.47,0,0,1-.35.14h0A.51.51,0,0,1,4.41,16.56Zm1.45-1.42a.5.5,0,0,1,0-.71h0a.49.49,0,0,1,.7,0h0a.5.5,0,0,1,0,.71h0a.54.54,0,0,1-.35.14h0A.51.51,0,0,1,5.86,15.14Zm1.45-1.42a.5.5,0,0,1,0-.71h0A.5.5,0,0,1,8,13H8a.5.5,0,0,1,0,.71H8a.5.5,0,0,1-.35.14h0A.47.47,0,0,1,7.31,13.72ZM8.75,12.3a.5.5,0,0,1,0-.71h0a.5.5,0,0,1,.71,0h0a.5.5,0,0,1,0,.71h0a.52.52,0,0,1-.35.14h0A.51.51,0,0,1,8.75,12.3Zm1.45-1.42a.5.5,0,0,1,0-.71h0a.49.49,0,0,1,.7,0h0a.49.49,0,0,1,0,.7h0a.5.5,0,0,1-.35.15h0A.51.51,0,0,1,10.2,10.88Z"/><path d="M3.32,18.14a.72.72,0,0,1-.19,0A.91.91,0,0,1,3,18a.54.54,0,0,1-.14-.36A.5.5,0,0,1,3,17.28a.53.53,0,0,1,.71,0,.51.51,0,0,1,.15.35.51.51,0,0,1-.51.51Z"/><path d="M10.44,7.67a.48.48,0,0,1-.5-.5.5.5,0,0,1,.14-.35.53.53,0,0,1,.55-.11.46.46,0,0,1,.16.11.51.51,0,0,1,.15.35.53.53,0,0,1-.15.36A.5.5,0,0,1,10.44,7.67Z"/><path d="M1.74,13.31a.51.51,0,0,1,.12-.7h0a.51.51,0,0,1,.7.12h0a.5.5,0,0,1-.12.7h0a.52.52,0,0,1-.29.09h0A.51.51,0,0,1,1.74,13.31ZM3.4,12.14a.51.51,0,0,1,.12-.7h0a.51.51,0,0,1,.7.12h0a.5.5,0,0,1-.12.7h0a.52.52,0,0,1-.29.09h0A.49.49,0,0,1,3.4,12.14ZM5.06,11a.5.5,0,0,1,.12-.7h0a.51.51,0,0,1,.7.12h0a.52.52,0,0,1-.12.7h0a.52.52,0,0,1-.29.09h0A.48.48,0,0,1,5.06,11ZM6.71,9.8a.52.52,0,0,1,.12-.7h0a.52.52,0,0,1,.7.12h0a.5.5,0,0,1-.12.7h0a.52.52,0,0,1-.29.09h0A.51.51,0,0,1,6.71,9.8ZM8.37,8.63a.5.5,0,0,1,.12-.69h0a.51.51,0,0,1,.7.11h0a.51.51,0,0,1-.12.7h0a.52.52,0,0,1-.29.09h0A.51.51,0,0,1,8.37,8.63Z"/><path d="M.5,14.69a.41.41,0,0,1-.19,0,.39.39,0,0,1-.17-.11.44.44,0,0,1-.1-.16.43.43,0,0,1,0-.19.54.54,0,0,1,.14-.36.48.48,0,0,1,.17-.1.5.5,0,0,1,.38,0,.54.54,0,0,1,.16.1.55.55,0,0,1,.15.36.65.65,0,0,1,0,.19.46.46,0,0,1-.11.16.42.42,0,0,1-.16.11A.43.43,0,0,1,.5,14.69Z"/><path d="M13.89,10.79a.51.51,0,0,1-.35-.15.47.47,0,0,1-.15-.35.41.41,0,0,1,0-.19.39.39,0,0,1,.11-.17.51.51,0,0,1,.54-.1.44.44,0,0,1,.16.1.39.39,0,0,1,.11.17.41.41,0,0,1,0,.19.47.47,0,0,1-.15.35A.51.51,0,0,1,13.89,10.79Z"/><path d="M8.2,19.28a.5.5,0,0,1-.15-.69h0a.51.51,0,0,1,.69-.16h0a.5.5,0,0,1,.15.69h0a.49.49,0,0,1-.42.24h0A.56.56,0,0,1,8.2,19.28Zm1.09-1.71a.51.51,0,0,1-.16-.69h0a.49.49,0,0,1,.69-.16h0a.5.5,0,0,1,.16.69h0a.51.51,0,0,1-.42.23h0A.5.5,0,0,1,9.29,17.57Zm1.08-1.72a.5.5,0,0,1-.15-.69h0a.5.5,0,0,1,.69-.15h0a.5.5,0,0,1,.15.69h0a.48.48,0,0,1-.42.23h0A.56.56,0,0,1,10.37,15.85Zm1.09-1.71a.49.49,0,0,1-.16-.69h0a.51.51,0,0,1,.69-.16h0a.51.51,0,0,1,.16.69h0a.52.52,0,0,1-.43.24h0A.5.5,0,0,1,11.46,14.14Zm1.08-1.72a.49.49,0,0,1-.15-.68h0a.48.48,0,0,1,.68-.16h0a.49.49,0,0,1,.16.69h0a.51.51,0,0,1-.42.23h0A.45.45,0,0,1,12.54,12.42Z"/><path d="M7.39,21.07a.51.51,0,0,1-.5-.5.43.43,0,0,1,0-.19A.36.36,0,0,1,7,20.22a.49.49,0,0,1,.54-.11.53.53,0,0,1,.27.27.43.43,0,0,1,0,.19.47.47,0,0,1-.15.35.36.36,0,0,1-.16.11A.43.43,0,0,1,7.39,21.07Z"/><path d="M15.93,11.65a.47.47,0,0,1-.35-.15.36.36,0,0,1-.11-.16.43.43,0,0,1,0-.19.47.47,0,0,1,.15-.35.5.5,0,0,1,.7,0,.5.5,0,0,1-.35.85Z"/><path d="M12.36,21.17a.5.5,0,0,1-.3-.64h0a.51.51,0,0,1,.64-.3h0a.49.49,0,0,1,.3.64h0a.5.5,0,0,1-.47.33h0A.51.51,0,0,1,12.36,21.17ZM13,19.26a.5.5,0,0,1-.3-.64h0a.5.5,0,0,1,.64-.3h0a.49.49,0,0,1,.3.64h0a.5.5,0,0,1-.47.33h0A.51.51,0,0,1,13,19.26Zm.68-1.91a.5.5,0,0,1-.3-.64h0a.5.5,0,0,1,.64-.3h0a.5.5,0,0,1,.3.64h0a.5.5,0,0,1-.47.33h0Zm.68-1.91a.5.5,0,0,1-.3-.64h0a.5.5,0,0,1,.64-.3h0a.5.5,0,0,1,.3.64h0a.51.51,0,0,1-.47.33h0A.51.51,0,0,1,14.4,15.44Zm.68-1.91a.5.5,0,0,1-.3-.64h0a.5.5,0,0,1,.64-.3h0a.5.5,0,0,1,.3.64h0a.51.51,0,0,1-.47.33h0A.51.51,0,0,1,15.08,13.53Z"/><path d="M11.85,23.11a.43.43,0,0,1-.19,0,.54.54,0,0,1-.16-.1.55.55,0,0,1-.15-.36.51.51,0,0,1,.15-.35.49.49,0,0,1,.54-.11.46.46,0,0,1,.16.11.47.47,0,0,1,.15.35.51.51,0,0,1-.15.36A.48.48,0,0,1,11.85,23.11Z"/></svg>