<?xml version="1.0" encoding="utf-8"?>
<!-- Generator: Adobe Illustrator 22.1.0, SVG Export Plug-In . SVG Version: 6.00 Build 0)  -->
<svg version="1.1" id="Outline_Old_Icons" xmlns="http://www.w3.org/2000/svg" xmlns:xlink="http://www.w3.org/1999/xlink" x="0px"
	 y="0px" viewBox="0 0 734.4 690.9" style="enable-background:new 0 0 734.4 690.9;" xml:space="preserve">
<g>
	<g>
		<path d="M721.6,690.9c-7,0-12.7-5.7-12.7-12.7V303c0-146.4-122.3-219.9-190.8-219.9c-7,0-12.7-5.7-12.7-12.7
			c0-7,5.7-12.7,12.7-12.7c77.6,0,216.3,82,216.3,245.4v375.1C734.4,685.2,728.7,690.9,721.6,690.9z"/>
	</g>
	<g>
		<path d="M509.1,285.2c-3,0-6-1.1-8.3-3.1L257.8,72.2c-2.6-2.3-4.2-5.6-4.4-9c-0.2-3.5,1.1-6.9,3.5-9.4c64-67,168.9-72,238.9-11.5
			c70,60.5,80.2,165.1,23.3,238.1c-2.2,2.8-5.4,4.5-8.8,4.8C509.9,285.2,509.5,285.2,509.1,285.2z M285.1,62.1l221.7,191.6
			c39.7-61.4,28.7-143.5-27.6-192.1C422.9,12.9,340.1,13.9,285.1,62.1z"/>
	</g>
	<g>
		<path d="M485.6,265c-0.9,0-1.9-0.1-2.9-0.3C307.9,224.1,275,88.4,273.7,82.6c-1.6-6.8,2.7-13.7,9.6-15.2
			c6.8-1.6,13.7,2.7,15.3,9.5c1.2,5.1,31.2,126.1,190,162.9c6.8,1.6,11.1,8.4,9.5,15.3C496.7,261,491.4,265,485.6,265z"/>
	</g>
	<g>
		<g>
			<path d="M306,245.1c-3.3,0-6.6-1.5-8.9-3.8c-2.3-2.3-3.8-5.6-3.8-8.9c0-3.6,1.5-6.9,3.8-9.2c1.3-1,2.6-2,4.1-2.8
				c4.6-1.8,10.5-0.8,14,2.8c2.3,2.6,3.6,5.9,3.6,9.2c0,3.3-1.3,6.4-3.6,8.9c-1.3,1.3-2.8,2-4.3,2.8
				C309.3,244.6,307.8,245.1,306,245.1z"/>
		</g>
		<g>
			<path d="M112.7,422.4c-5.1-4.8-4.9-13,0-17.8l0,0c5.1-5.1,13-4.9,18.1,0l0,0c4.8,5.1,4.8,13.3-0.3,18.1l0,0
				c-2.3,2.5-5.6,3.6-8.9,3.6l0,0C118.3,426.2,115,424.9,112.7,422.4z M149.4,386.1c-4.8-4.8-4.8-13,0.2-18.1l0,0
				c4.9-4.8,13-4.8,17.9,0.2l0,0c5.1,5.1,5.1,13,0,18.1l0,0c-2.5,2.3-5.9,3.6-8.9,3.6l0,0C155.3,390,152,388.7,149.4,386.1z
				 M186.4,349.9c-5.1-5.1-4.9-13,0-18.1l0,0c5.1-4.8,13.3-4.8,18.1,0.2l0,0c4.9,5.1,4.9,13-0.2,18.1l0,0c-2.3,2.3-5.6,3.6-8.9,3.6
				l0,0C192,353.8,188.7,352.5,186.4,349.9z M223.1,313.7c-4.9-5.1-4.9-13,0.2-18.1l0,0c5.1-4.8,13-4.8,18.1,0.2l0,0
				c4.8,5.1,4.8,13-0.2,18.1l0,0c-2.6,2.3-5.6,3.6-8.9,3.6l0,0C229,317.6,225.7,316.3,223.1,313.7z M260.1,277.5
				c-5.1-5.1-4.8-13.3,0.3-18.1l0,0c4.8-4.8,13-4.8,17.8,0.3l0,0c5.1,4.8,4.9,13,0,17.9l0,0c-2.5,2.5-5.9,3.8-8.9,3.8l0,0
				C266,281.3,262.6,280.1,260.1,277.5z"/>
		</g>
		<g>
			<path d="M84.6,462.6c-1.5,0-3.1-0.5-4.8-1c-1.5-0.8-2.8-1.8-4.1-2.8c-2.3-2.6-3.6-5.9-3.6-9.2c0-3.3,1.3-6.6,3.6-8.9
				c4.8-4.6,13.5-4.6,18.1,0c2.3,2.3,3.8,5.6,3.8,8.9c0,3.6-1.5,6.6-3.8,9.2C91.3,461.1,88.2,462.6,84.6,462.6z"/>
		</g>
	</g>
	<g>
		<g>
			<path d="M266.2,195.7c-3.3,0-6.6-1.3-9.2-3.6c-2.3-2.6-3.6-5.9-3.6-9.2c0-3.3,1.3-6.6,3.6-8.9c3.6-3.6,9.4-4.6,14-2.8
				c1.5,0.8,3.1,1.5,4.1,2.8c2.3,2.3,3.8,5.6,3.8,8.9c0,3.6-1.5,6.6-3.8,9.2C272.8,194.4,269.5,195.7,266.2,195.7z"/>
		</g>
		<g>
			<path d="M44.4,339.5c-4.1-5.9-2.5-13.8,3.1-17.8l0,0c5.9-4.1,13.8-2.6,17.9,3.1l0,0c4.1,5.9,2.8,13.8-3.1,17.9l0,0
				c-2.3,1.5-4.8,2.3-7.4,2.3l0,0C51,344.8,46.9,343.1,44.4,339.5z M86.7,309.6c-4.1-5.9-2.5-13.8,3.1-17.9l0,0
				c5.9-4.1,13.8-2.5,17.9,3.1l0,0c4.1,5.9,2.8,13.8-3.1,17.9l0,0c-2.3,1.5-4.9,2.3-7.4,2.3l0,0C93.1,315,89.2,313.2,86.7,309.6z
				 M129,279.8c-4.1-5.9-2.8-13.8,3.1-17.9l0,0c5.6-4.1,13.8-2.6,17.9,3.1l0,0c3.8,5.9,2.5,13.8-3.1,17.9l0,0
				c-2.3,1.5-4.9,2.3-7.4,2.3l0,0C135.4,285.2,131.3,283.4,129,279.8z M171.1,250c-3.8-5.9-2.6-13.8,3.1-17.9l0,0
				c5.9-3.8,13.7-2.6,17.8,3.1l0,0c4.1,5.9,2.8,13.8-3.1,17.8l0,0c-2.3,1.5-4.8,2.3-7.4,2.3l0,0C177.7,255.3,173.6,253.5,171.1,250z
				 M213.4,220.1c-4.1-5.6-2.5-13.8,3.1-17.6l0,0c5.9-4.1,13.8-2.8,17.9,2.8l0,0c4.1,5.9,2.6,13.8-3.1,17.8l0,0
				c-2.3,1.5-4.8,2.3-7.4,2.3l0,0C220.1,225.5,216,223.7,213.4,220.1z"/>
		</g>
		<g>
			<path d="M12.7,374.7c-1.8,0-3.3-0.2-4.9-1c-1.8-0.5-3.1-1.5-4.3-2.8c-1-1-2-2.6-2.5-4.1c-0.8-1.5-1-3.3-1-4.9
				c0-3.3,1.3-6.6,3.6-9.2c1.3-1,2.5-2,4.3-2.6c3.1-1.3,6.6-1.3,9.7,0c1.5,0.5,2.8,1.5,4.1,2.6c2.3,2.6,3.8,5.9,3.8,9.2
				c0,1.5-0.5,3.3-1,4.9c-0.8,1.5-1.5,3.1-2.8,4.1c-1.3,1.3-2.5,2.3-4.1,2.8C16.1,374.4,14.3,374.7,12.7,374.7z"/>
		</g>
	</g>
	<g>
		<g>
			<path d="M354.2,275.2c-3.3,0-6.6-1.5-8.9-3.8c-2.6-2.3-3.8-5.6-3.8-8.9c0-1.8,0.2-3.3,1-4.8c0.5-1.8,1.5-3.1,2.8-4.3
				c3.6-3.3,9.2-4.6,13.8-2.6c1.5,0.5,3,1.5,4.1,2.6c1.3,1.3,2.3,2.6,2.8,4.3c0.8,1.5,1,3.1,1,4.8c0,3.3-1.3,6.6-3.8,8.9
				C360.8,273.7,357.5,275.2,354.2,275.2z"/>
		</g>
		<g>
			<path d="M209.1,491.7c-5.9-3.8-7.6-11.7-3.8-17.6l0,0c3.8-5.9,11.7-7.7,17.6-4.1l0,0c5.9,3.8,7.7,11.7,3.8,17.6l0,0
				c-2.3,3.8-6.4,6.1-10.7,6.1l0,0C213.7,493.8,211.4,493,209.1,491.7z M236.9,448.1c-5.9-3.8-7.7-11.7-4.1-17.6l0,0
				c3.8-6.1,11.7-7.9,17.6-4.1l0,0c6.1,3.8,7.6,11.7,4.1,17.6l0,0c-2.5,3.8-6.6,5.9-10.7,5.9l0,0
				C241.2,449.9,238.9,449.4,236.9,448.1z M264.4,404.2c-5.9-3.8-7.6-11.5-3.8-17.6l0,0c3.6-5.9,11.5-7.6,17.6-3.8l0,0
				c5.9,3.6,7.7,11.5,3.8,17.6l0,0c-2.3,3.8-6.4,5.9-10.7,5.9l0,0C269,406.3,266.7,405.5,264.4,404.2z M292.2,360.6
				c-6.1-3.8-7.9-11.7-4.1-17.6l0,0c3.8-5.9,11.7-7.6,17.6-4.1l0,0c5.9,3.8,7.7,11.7,4.1,17.6l0,0c-2.5,3.8-6.6,6.1-11,6.1l0,0
				C296.6,362.7,294.3,361.9,292.2,360.6z M319.8,316.8c-5.9-3.6-7.7-11.5-3.8-17.3l0,0c3.6-6.1,11.5-7.9,17.3-4.1l0,0
				c6.1,3.8,7.9,11.5,4.1,17.6l0,0c-2.5,3.8-6.6,5.9-10.7,5.9l0,0C324.3,318.8,321.8,318.3,319.8,316.8z"/>
		</g>
		<g>
			<path d="M188.4,537.4c-3.3,0-6.6-1.3-8.9-3.8c-2.6-2.3-3.8-5.6-3.8-8.9c0-1.5,0.2-3.3,1-4.8c0.5-1.5,1.5-3.1,2.8-4.1
				c3.3-3.6,9.2-4.8,13.8-2.8c1.5,0.5,3,1.5,4.1,2.8c1.3,1,2.3,2.6,2.8,4.1c0.8,1.5,1,3.3,1,4.8c0,3.3-1.3,6.6-3.8,8.9
				c-1,1.3-2.5,2.3-4.1,2.8C191.7,537.1,190,537.4,188.4,537.4z"/>
		</g>
	</g>
	<g>
		<g>
			<path d="M406.2,297.2c-3.3,0-6.6-1.3-8.9-3.8c-1.3-1-2.3-2.5-2.8-4.1c-0.8-1.5-1-3.3-1-4.8c0-3.3,1.3-6.6,3.8-8.9
				c4.6-4.8,13.2-4.8,17.8,0c2.6,2.3,3.8,5.6,3.8,8.9c0,3.3-1.3,6.6-3.8,8.9C412.8,295.9,409.5,297.2,406.2,297.2z"/>
		</g>
		<g>
			<path d="M315.2,539.9c-6.6-2.3-9.9-9.7-7.6-16.3l0,0c2.3-6.4,9.7-9.9,16.3-7.7l0,0c6.6,2.3,10.2,9.7,7.7,16.3l0,0
				c-1.8,5.1-6.6,8.4-12,8.4l0,0C318,540.7,316.7,540.4,315.2,539.9z M332.5,491.2c-6.6-2.3-10-9.7-7.7-16.3l0,0
				c2.3-6.6,9.7-9.9,16.3-7.6l0,0c6.6,2.3,10.2,9.7,7.6,16.3l0,0c-1.8,5.1-6.6,8.4-12,8.4l0,0C335.3,492,334,491.7,332.5,491.2z
				 M349.8,442.5c-6.6-2.3-9.9-9.7-7.6-16.3l0,0c2.3-6.6,9.7-9.9,16.3-7.6l0,0c6.6,2.3,9.9,9.7,7.6,16.3l0,0
				c-1.8,5.1-6.6,8.4-12,8.4l0,0C352.9,443.3,351.4,443,349.8,442.5z M367.2,393.8c-6.6-2.3-9.9-9.7-7.6-16.3l0,0
				c2.3-6.6,9.7-9.9,16.3-7.7l0,0c6.6,2.3,10,9.7,7.7,16.3l0,0c-1.8,5.1-6.9,8.4-12,8.4l0,0C370,394.6,368.7,394.3,367.2,393.8z
				 M384.5,345.1c-6.6-2.3-10-9.7-7.7-16.3l0,0c2.3-6.6,9.7-9.9,16.3-7.6l0,0c6.6,2.3,9.9,9.7,7.6,16.3l0,0c-1.8,5.1-6.9,8.4-12,8.4
				l0,0C387.3,345.9,386.1,345.6,384.5,345.1z"/>
		</g>
		<g>
			<path d="M302.2,589.4c-3.3,0-6.6-1.3-8.9-3.6c-2.3-2.6-3.8-5.9-3.8-9.2c0-3.3,1.5-6.6,3.8-8.9c3.6-3.6,9.2-4.8,13.8-2.8
				c1.5,0.8,3,1.5,4.1,2.8c2.6,2.3,3.8,5.6,3.8,8.9c0,3.3-1.3,6.6-3.8,9.2c-1,1-2.5,2-4.1,2.6C305.5,589.1,304,589.4,302.2,589.4z"
				/>
		</g>
	</g>
</g>
</svg>
