<svg xmlns="http://www.w3.org/2000/svg" xmlns:xlink="http://www.w3.org/1999/xlink" viewBox="0 0 6.84 7.35"><defs><clipPath id="a"><rect width="6.84" height="7.35" fill="none"/></clipPath></defs><title>star</title><g clip-path="url(#a)"><path d="M6.61,4.6a.42.42,0,0,1,.22.27.48.48,0,0,1,0,.35l-.34.59A.45.45,0,0,1,6.16,6a.47.47,0,0,1-.35,0L4.22,5.06V6.89a.44.44,0,0,1-.46.46H3.08a.41.41,0,0,1-.32-.13.42.42,0,0,1-.13-.32V5.06L1,6A.48.48,0,0,1,.69,6a.44.44,0,0,1-.28-.22L.06,5.22a.53.53,0,0,1,0-.35A.41.41,0,0,1,.23,4.6l1.6-.92L.23,2.75A.41.41,0,0,1,0,2.48a.43.43,0,0,1,0-.35l.35-.59a.43.43,0,0,1,.28-.21.48.48,0,0,1,.35,0l1.59.92V.46A.44.44,0,0,1,2.76.13.41.41,0,0,1,3.08,0h.68a.44.44,0,0,1,.33.13.44.44,0,0,1,.13.32V2.29l1.59-.92a.53.53,0,0,1,.35,0,.45.45,0,0,1,.28.21l.33.59a.48.48,0,0,1,.05.35.41.41,0,0,1-.21.27L5,3.68Z" fill="#333"/></g></svg>