<svg xmlns="http://www.w3.org/2000/svg" viewBox="0 0 6.9 7.35"><title>star</title><path d="M6.65,4.6a.4.4,0,0,1,.22.27.53.53,0,0,1,0,.35l-.34.59A.45.45,0,0,1,6.2,6a.43.43,0,0,1-.35,0L4.26,5.06V6.89a.44.44,0,0,1-.42.46H3.12a.39.39,0,0,1-.32-.13.39.39,0,0,1-.13-.32V5.06L1,6A.55.55,0,0,1,.73,6a.44.44,0,0,1-.28-.22L.1,5.22a.53.53,0,0,1,0-.35A.41.41,0,0,1,.27,4.6l1.6-.92L.27,2.75A.39.39,0,0,1,0,2.48a.43.43,0,0,1,0-.35l.35-.59a.43.43,0,0,1,.28-.21.53.53,0,0,1,.35,0l1.59.92V.46A.45.45,0,0,1,2.8.13.39.39,0,0,1,3.12,0H3.8a.46.46,0,0,1,.33.13.46.46,0,0,1,.13.32V2.29l1.59-.92a.53.53,0,0,1,.35,0,.46.46,0,0,1,.28.21l.33.59a.48.48,0,0,1,.05.35.42.42,0,0,1-.21.27L5,3.68Z" fill="#333"/></svg>