<svg xmlns="http://www.w3.org/2000/svg" viewBox="0 0 8.65 6.37"><title>strings</title><path d="M6,.75H.38A.38.38,0,0,1,0,.38.38.38,0,0,1,.38,0H6A.38.38,0,0,1,6,.75Z" fill="#333"/><path d="M8.27,2.62H.38A.37.37,0,0,1,0,2.25a.38.38,0,0,1,.38-.38H8.27a.38.38,0,0,1,.38.38A.37.37,0,0,1,8.27,2.62Z" fill="#333"/><path d="M.82,4.5H.38a.38.38,0,1,1,0-.75H.82a.38.38,0,0,1,0,.75Z" fill="#333"/><path d="M5.8,4.5H2.11a.38.38,0,0,1,0-.75H5.8a.38.38,0,1,1,0,.75Z" fill="#333"/><path d="M.82,6.37H.38A.37.37,0,0,1,0,6a.38.38,0,0,1,.38-.38H.82A.38.38,0,0,1,1.19,6,.37.37,0,0,1,.82,6.37Z" fill="#333"/><path d="M4.77,6.37H2.11A.37.37,0,0,1,1.74,6a.38.38,0,0,1,.37-.38H4.77A.38.38,0,0,1,5.14,6,.37.37,0,0,1,4.77,6.37Z" fill="#333"/></svg>