<svg xmlns="http://www.w3.org/2000/svg" viewBox="0 0 21.45 16.51"><title>sup-chat</title><path d="M5.92,14.84a.8.8,0,0,1-.3-.06.82.82,0,0,1-.5-.74V11.87A6,6,0,0,1,5.92,0h5.2a6.06,6.06,0,0,1,6,6,6,6,0,0,1-5.93,6h-2L6.49,14.6A.82.82,0,0,1,5.92,14.84Zm0-13.24a4.37,4.37,0,0,0,0,8.73.8.8,0,0,1,.8.8v1l1.52-1.53a.81.81,0,0,1,.57-.23h2.38A4.35,4.35,0,0,0,15.52,6a4.44,4.44,0,0,0-4.4-4.36Z"/><path d="M17,16.51a.78.78,0,0,1-.57-.24L14.61,14.4H13.29a4.25,4.25,0,0,1-2.14-.54.81.81,0,0,1-.29-1.1A.8.8,0,0,1,12,12.47a2.64,2.64,0,0,0,1.34.33H15a.8.8,0,0,1,.56.24l.73.73V13.6a.8.8,0,0,1,.8-.8,2.93,2.93,0,0,0,1.24-5.53A.8.8,0,1,1,19,5.82a4.5,4.5,0,0,1,2.48,4.07,4.56,4.56,0,0,1-3.61,4.43v1.39a.81.81,0,0,1-.8.8Z"/></svg>