<svg xmlns="http://www.w3.org/2000/svg" viewBox="0 0 14.83 17.73"><title>sup-call</title><path d="M3.71,17.73H3.53a.71.71,0,0,1-.35-.13l-2.84-2a.8.8,0,0,1-.2-1.11l2-2.92a.8.8,0,0,1,1.1-.22l1.06.7a1.06,1.06,0,0,0,1.43-.19l4-5.56A1,1,0,0,0,9.54,5L8.65,4.4a.78.78,0,0,1-.24-1.13l2-2.92A.79.79,0,0,1,11.53.14l2.84,2a.86.86,0,0,1,.26.31c.21.44,1,3-3.37,9.22h0C7.21,17.29,4.47,17.73,3.71,17.73Zm-1.8-3,2,1.38C4.42,16,6.6,15.4,10,10.74s3.33-6.87,3.26-7.47L11.28,1.92,10.2,3.48l.23.15.09.06A2.6,2.6,0,0,1,11,7.23L7,12.84a2.65,2.65,0,0,1-3.59.54L3,13.12Z"/></svg>