<?xml version="1.0" encoding="utf-8"?>
<!-- Generator: Adobe Illustrator 22.1.0, SVG Export Plug-In . SVG Version: 6.00 Build 0)  -->
<svg version="1.1" id="Outline_Old_Icons" xmlns="http://www.w3.org/2000/svg" xmlns:xlink="http://www.w3.org/1999/xlink" x="0px"
	 y="0px" viewBox="0 0 24 24" style="enable-background:new 0 0 24 24;" xml:space="preserve">
<g>
	<g>
		<path d="M23.5,24h-23C0.2,24,0,23.8,0,23.5v-3C0,20.2,0.2,20,0.5,20H10v-9H3.5C3.2,11,3,10.8,3,10.5v-10C3,0.2,3.2,0,3.5,0H22
			c1.1,0,2,0.9,2,2v21.5C24,23.8,23.8,24,23.5,24z M1,23h22V2c0-0.6-0.4-1-1-1H4v9h6.5c0.3,0,0.5,0.2,0.5,0.5v10
			c0,0.3-0.2,0.5-0.5,0.5H1V23z"/>
	</g>
	<g>
		<path d="M19,23.5h-1v-11c0-0.3,0.2-0.5,0.5-0.5h5v1H19V23.5z"/>
	</g>
	<g>
		<path d="M23.5,6h-6C17.2,6,17,5.8,17,5.5S17.2,5,17.5,5h6C23.8,5,24,5.2,24,5.5S23.8,6,23.5,6z"/>
	</g>
	<g>
		<path d="M23.5,8h-6C17.2,8,17,7.8,17,7.5S17.2,7,17.5,7h6C23.8,7,24,7.2,24,7.5S23.8,8,23.5,8z"/>
	</g>
	<g>
		<path d="M23.5,10h-6C17.2,10,17,9.8,17,9.5S17.2,9,17.5,9h6C23.8,9,24,9.2,24,9.5S23.8,10,23.5,10z"/>
	</g>
	<g>
		<path d="M8.5,17h-4C4.2,17,4,16.8,4,16.5V14c0-0.3,0.2-0.5,0.5-0.5h4C8.8,13.5,9,13.7,9,14v2.5C9,16.8,8.8,17,8.5,17z M5,16h3
			v-1.5H5V16z"/>
	</g>
	<g>
		<path d="M4.5,16h-4C0.2,16,0,15.8,0,15.5S0.2,15,0.5,15h4C4.8,15,5,15.2,5,15.5S4.8,16,4.5,16z"/>
	</g>
	<g>
		<rect x="7" y="10.5" width="1" height="3.5"/>
	</g>
	<g>
		<rect x="5" y="10.5" width="1" height="3.5"/>
	</g>
	<g>
		<path d="M7,6C5.9,6,5,5.1,5,4s0.9-2,2-2s2,0.9,2,2S8.1,6,7,6z M7,3C6.4,3,6,3.4,6,4s0.4,1,1,1s1-0.4,1-1S7.6,3,7,3z"/>
	</g>
	<g>
		<path d="M6.5,18C6.2,18,6,17.8,6,17.5v-1C6,16.2,6.2,16,6.5,16S7,16.2,7,16.5v1C7,17.8,6.8,18,6.5,18z"/>
	</g>
</g>
</svg>
