<svg xmlns="http://www.w3.org/2000/svg" xmlns:xlink="http://www.w3.org/1999/xlink" viewBox="0 0 7.64 7.65"><defs><clipPath id="a"><rect width="7.64" height="7.65" fill="none"/></clipPath></defs><title>time-3h</title><g clip-path="url(#a)"><path d="M3.82,0A3.71,3.71,0,0,1,5.31.3a3.8,3.8,0,0,1,1.22.82A3.72,3.72,0,0,1,7.64,3.83a3.77,3.77,0,0,1-.29,1.49,3.87,3.87,0,0,1-.82,1.21,3.8,3.8,0,0,1-1.22.82,3.71,3.71,0,0,1-1.49.3,3.78,3.78,0,0,1-2.7-1.12A3.87,3.87,0,0,1,.3,5.32a3.88,3.88,0,0,1,0-3,3.87,3.87,0,0,1,2-2A3.74,3.74,0,0,1,3.82,0m0,6.5a2.59,2.59,0,0,0,1.05-.21,2.88,2.88,0,0,0,.85-.57,2.88,2.88,0,0,0,.57-.85,2.58,2.58,0,0,0,.21-1,2.59,2.59,0,0,0-.21-1.05,2.88,2.88,0,0,0-.57-.85,2.88,2.88,0,0,0-.85-.57,2.66,2.66,0,0,0-1.05-.21,2.58,2.58,0,0,0-1,.21,2.65,2.65,0,0,0-.85.57,2.88,2.88,0,0,0-.57.85,2.59,2.59,0,0,0-.21,1.05,2.58,2.58,0,0,0,.21,1,2.88,2.88,0,0,0,.57.85,2.65,2.65,0,0,0,.85.57,2.58,2.58,0,0,0,1,.21M5.15,3.83a.36.36,0,0,1,.27.11.37.37,0,0,1,.11.27v.38a.37.37,0,0,1-.11.27A.36.36,0,0,1,5.15,5H3.42a.36.36,0,0,1-.27-.11A.37.37,0,0,1,3,4.59V2.36a.36.36,0,0,1,.11-.26A.37.37,0,0,1,3.42,2h.39a.34.34,0,0,1,.27.12.35.35,0,0,1,.1.26V3.83Z" fill="#333"/></g></svg>