<svg xmlns="http://www.w3.org/2000/svg" viewBox="0 0 9 9"><title>time</title><path d="M8.4,2.24A4.42,4.42,0,0,1,9,4.5a4.42,4.42,0,0,1-.6,2.26A4.52,4.52,0,0,1,6.76,8.4,4.42,4.42,0,0,1,4.5,9a4.42,4.42,0,0,1-2.26-.6A4.52,4.52,0,0,1,.6,6.76,4.42,4.42,0,0,1,0,4.5,4.42,4.42,0,0,1,.6,2.24,4.6,4.6,0,0,1,2.24.6,4.42,4.42,0,0,1,4.5,0,4.42,4.42,0,0,1,6.76.6,4.6,4.6,0,0,1,8.4,2.24ZM7.26,6.1a3.07,3.07,0,0,0,.43-1.6,3.07,3.07,0,0,0-.43-1.6A3.22,3.22,0,0,0,6.1,1.74a3.19,3.19,0,0,0-3.2,0A3.22,3.22,0,0,0,1.74,2.9,3.19,3.19,0,0,0,6.1,7.26,3.15,3.15,0,0,0,7.26,6.1Zm-2-3.66V5.06a.17.17,0,0,1-.19.19H3.19A.17.17,0,0,1,3,5.06V4.69a.17.17,0,0,1,.19-.19H4.5V2.44a.22.22,0,0,1,0-.14.22.22,0,0,1,.14,0h.37a.22.22,0,0,1,.14,0A.22.22,0,0,1,5.25,2.44Z"/></svg>