<svg xmlns="http://www.w3.org/2000/svg" viewBox="0 0 12 12"><title>tooltip-marker</title><path d="M6,12a6,6,0,0,1-4.24-1.76,6,6,0,0,1,0-8.48,6,6,0,0,1,8.48,0,6,6,0,0,1,0,8.48h0A6,6,0,0,1,6,12ZM6,1A5,5,0,0,0,6,11,4.94,4.94,0,0,0,9.53,9.53h0A5,5,0,0,0,6,1Z" fill="#0085ff"/><path d="M6,9.41a.51.51,0,0,1-.5-.5V4.75a.51.51,0,0,1,.5-.5.5.5,0,0,1,.5.5V8.91A.5.5,0,0,1,6,9.41Z" fill="#0085ff"/><path d="M6,3.5A.5.5,0,0,1,5.5,3V2.82a.51.51,0,0,1,.5-.5.5.5,0,0,1,.5.5V3A.5.5,0,0,1,6,3.5Z" fill="#0085ff"/><path d="M7.06,9.64H5a.5.5,0,1,1,0-1H7.06a.5.5,0,0,1,0,1Z" fill="#0085ff"/><path d="M6,5.25H5a.5.5,0,0,1-.5-.5.5.5,0,0,1,.5-.5H6a.5.5,0,0,1,.5.5A.5.5,0,0,1,6,5.25Z" fill="#0085ff"/></svg>