<?xml version="1.0" encoding="utf-8"?>
<!-- Generator: Adobe Illustrator 22.1.0, SVG Export Plug-In . SVG Version: 6.00 Build 0)  -->
<svg version="1.1" id="Layer_1" xmlns="http://www.w3.org/2000/svg" xmlns:xlink="http://www.w3.org/1999/xlink" x="0px" y="0px"
	 viewBox="0 0 16 18.5" style="enable-background:new 0 0 16 18.5;" xml:space="preserve">
<style type="text/css">
	.st0{fill:#FFFFFF;}
</style>
<path class="st0" d="M8,0L0,4.6v9.2l8,4.6l8-4.6V4.6L8,0z M11.9,7.3c0,0.1,0,0.1,0,0.2c0,0.5-0.1,1-0.2,1.5c-0.1,0.5-0.4,1-0.7,1.5
	c-0.3,0.5-0.7,0.9-1.1,1.2c-0.4,0.4-0.9,0.6-1.5,0.9C7.8,12.9,7.2,13,6.5,13c-1.1,0-2-0.3-2.9-0.8c0.1,0,0.3,0,0.5,0
	c0.9,0,1.7-0.3,2.3-0.8c-0.4,0-0.8-0.1-1.1-0.4C5,10.7,4.8,10.4,4.7,10c0.1,0,0.2,0,0.4,0c0.2,0,0.3,0,0.5-0.1
	C5.1,9.9,4.7,9.7,4.4,9.3C4.1,9,4,8.6,4,8.1v0c0.3,0.1,0.6,0.2,0.9,0.2C4.6,8.2,4.4,8,4.2,7.7C4.1,7.4,4,7.1,4,6.8
	c0-0.3,0.1-0.7,0.3-1c0.5,0.6,1,1,1.7,1.4c0.7,0.3,1.4,0.5,2.2,0.6c0-0.1,0-0.3,0-0.4c0-0.5,0.2-1,0.6-1.3C9,5.7,9.5,5.5,10,5.5
	c0.5,0,1,0.2,1.4,0.6c0.4-0.1,0.8-0.2,1.2-0.5c-0.1,0.4-0.4,0.8-0.8,1c0.4,0,0.7-0.1,1.1-0.3C12.6,6.8,12.3,7.1,11.9,7.3z"/>
</svg>
