<svg xmlns="http://www.w3.org/2000/svg" viewBox="0 0 17.41 18.5"><title>user</title><path d="M8.71,11A5.41,5.41,0,0,1,3.4,5.5,5.41,5.41,0,0,1,8.71,0,5.41,5.41,0,0,1,14,5.5,5.41,5.41,0,0,1,8.71,11Zm0-10A4.41,4.41,0,0,0,4.4,5.5,4.41,4.41,0,0,0,8.71,10,4.42,4.42,0,0,0,13,5.5,4.42,4.42,0,0,0,8.71,1Z" fill="#525a65"/><path d="M16.91,18.5a.5.5,0,0,1-.5-.5c0-2.48-3.45-4.5-7.7-4.5S1,15.52,1,18a.5.5,0,0,1-.5.5A.5.5,0,0,1,0,18c0-3.08,3.82-5.5,8.71-5.5s8.7,2.42,8.7,5.5A.5.5,0,0,1,16.91,18.5Z" fill="#525a65"/></svg>