<svg width="12" height="12" viewBox="0 0 12 12" fill="none" xmlns="http://www.w3.org/2000/svg"><path d="M11.126 12H.874C.4 12 0 11.588 0 11.1V5.886c0-.244.104-.488.281-.656L5.407.26a.859.859 0 011.215 0l5.126 4.97a.992.992 0 01.252.656V11.1c0 .488-.4.9-.874.9z" fill="#0085FF"/><path d="M.625 5.594h0l.005-.005L5.755.619h0l.003-.003a.36.36 0 01.513 0h0l.003.002 5.11 4.955a.49.49 0 01.116.313V11.1c0 .226-.19.4-.374.4H.874C.69 11.5.5 11.326.5 11.1V5.886a.41.41 0 01.125-.292z" stroke="#1F1F1F" stroke-opacity=".28"/></svg>