<svg width="25" height="15" viewBox="0 0 25 15" fill="none" xmlns="http://www.w3.org/2000/svg"><path d="M18.015 1.901c.425-.516.325-1.244-.224-1.643s-1.322-.328-1.747.188L9.932 7.864 8.959 6.69c-.425-.516-1.223-.61-1.747-.211-.549.399-.649 1.15-.224 1.643l1.347 1.643-1.772 2.16-4.34-5.235C1.797 6.174.998 6.08.475 6.48c-.55.399-.65 1.127-.225 1.643l5.314 6.432c.025.023.075.047.1.07.05.047.075.094.125.141.025.024.075 0 .1.024.2.117.424.211.673.211.25 0 .474-.07.674-.211.025-.024.075 0 .1-.024.05-.047.075-.094.125-.14l.074-.071 10.48-12.653zM24.5.258a1.29 1.29 0 00-1.747.212l-9.43 11.408-.126-.14c-.399-.517-1.197-.658-1.746-.259-.549.376-.699 1.103-.275 1.643l1.098 1.432c.025 0 .05.024.1.047.05.047.075.117.15.164.025.024.05 0 .075.024.2.14.424.211.673.211.225 0 .45-.07.649-.188.025-.023.05 0 .075-.023.075-.047.1-.094.15-.164.05-.024.074-.047.124-.07L24.75 1.901A1.145 1.145 0 0024.5.257z" fill="#0085FF"/></svg>