<svg width="19" height="11" viewBox="0 0 19 11" fill="none" xmlns="http://www.w3.org/2000/svg"><g clip-path="url(#clip0)" fill="#00D5B5"><path d="M13.693 1.393c.322-.379.246-.912-.17-1.205-.418-.293-1.006-.241-1.328.138l-4.646 5.44-.74-.861a1.008 1.008 0 00-1.327-.155c-.417.292-.493.843-.17 1.205L6.336 7.16 4.989 8.743l-3.3-3.838A1.008 1.008 0 00.364 4.75c-.418.292-.494.826-.171 1.205L4.23 10.67c.019.018.057.035.076.052.038.034.057.069.094.103.02.018.057 0 .076.018.152.086.323.155.512.155a.89.89 0 00.512-.155c.02-.018.057 0 .076-.018.038-.034.057-.069.095-.103l.057-.052 7.964-9.278zM18.62.19c-.417-.294-1.005-.225-1.327.154L10.125 8.71l-.094-.103a1.008 1.008 0 00-1.328-.19c-.417.276-.53.81-.208 1.206l.834 1.05c.019 0 .038.017.076.034.038.034.057.086.114.12.019.018.038 0 .056.018a.889.889 0 00.512.155c.171 0 .342-.052.494-.138.018-.017.037 0 .056-.017.057-.035.076-.07.114-.12.038-.018.057-.035.095-.052l7.964-9.279c.303-.379.228-.912-.19-1.205z"/></g><defs><clipPath id="clip0"><path fill="#fff" d="M0 0h19v11H0z"/></clipPath></defs></svg>