<svg width="20" height="17" viewBox="0 0 20 17" fill="none" xmlns="http://www.w3.org/2000/svg"><path d="M9.684 1.16c.015 0 .03 0 .044.008l3.496 1.051a2.523 2.523 0 001.363.015l2.734-.747c.015-.007.03-.007.044-.007.058 0 .138.043.145.137l.703 12.968c.008.072-.043.13-.108.152l-3.735.929c-.015 0-.03 0-.037-.008l-3.981-1.088a2.52 2.52 0 00-1.305 0l-3.983 1.088h-.072l-3.699-.928c-.087-.007-.13-.065-.13-.138l.703-12.967a.147.147 0 01.145-.138c.015 0 .03 0 .044.007l2.734.747a2.6 2.6 0 001.356-.022l3.496-1.051c.014-.008.029-.008.043-.008zm0-1.16c-.13 0-.253.022-.377.058L5.812 1.102a1.331 1.331 0 01-.718.015L2.351.37a1.143 1.143 0 00-.34-.05C1.336.32.748.848.705 1.56L.002 14.526c-.036.624.385 1.19.987 1.342l3.698.928c.102.029.21.036.32.036.116 0 .232-.014.34-.043l3.982-1.088a1.374 1.374 0 01.682 0l3.981 1.088a1.374 1.374 0 00.66.007l3.7-.928a1.3 1.3 0 00.986-1.342l-.675-12.968A1.31 1.31 0 0017.358.32c-.116 0-.232.015-.349.044l-2.734.747a1.373 1.373 0 01-.34.043 1.36 1.36 0 01-.378-.058L10.062.044A2.226 2.226 0 009.684 0z" fill="#0085FF"/><path d="M9.685 5.548a1.83 1.83 0 011.827 1.828c0 1.225-1.008 2.582-1.82 3.445C8.88 9.943 7.85 8.565 7.85 7.376c0-1.008.827-1.828 1.835-1.828zm0-1.16a2.988 2.988 0 00-2.988 2.988c0 2.524 2.988 5.055 2.988 5.055s2.988-2.466 2.988-5.055a2.984 2.984 0 00-2.988-2.988z" fill="#0085FF"/></svg>