<svg width="26" height="14" viewBox="0 0 26 14" fill="none" xmlns="http://www.w3.org/2000/svg"><path d="M15.97 3.853c0 1.87-1.458 3.354-3.22 3.354-1.762 0-3.22-1.485-3.22-3.354C9.53 1.985 10.987.5 12.75.5c1.762 0 3.22 1.485 3.22 3.353z" stroke="#A3ACBA"/><path d="M18.5 12.612c0-1.935-2.574-3.504-5.75-3.504S7 10.677 7 12.612" stroke="#A3ACBA" stroke-linecap="round" stroke-linejoin="round"/><path d="M7.55 5.514c0 1.325-1.032 2.369-2.27 2.369-1.237 0-2.27-1.044-2.27-2.369 0-1.325 1.033-2.368 2.27-2.368 1.238 0 2.27 1.043 2.27 2.368z" stroke="#A3ACBA"/><path d="M1 12.034c0-1.44 1.917-2.608 4.28-2.608" stroke="#A3ACBA" stroke-linecap="round" stroke-linejoin="round"/><path d="M18.45 5.514c0 1.325 1.032 2.369 2.27 2.369 1.237 0 2.27-1.044 2.27-2.369 0-1.325-1.033-2.368-2.27-2.368-1.238 0-2.27 1.043-2.27 2.368z" stroke="#A3ACBA"/><path d="M25 12.034c0-1.44-1.917-2.608-4.28-2.608" stroke="#A3ACBA" stroke-linecap="round" stroke-linejoin="round"/></svg>