<svg width="16" height="14" viewBox="0 0 16 14" fill="none" xmlns="http://www.w3.org/2000/svg"><path d="M15.145 5.262h-.92C13.5 2.238 11.003 0 8 0 4.997 0 2.499 2.238 1.797 5.262h-.92c-.482 0-.877.428-.877.952v1.572c0 .524.395.952.877.952h.92C2.5 11.762 5.02 14 8.022 14c3.003 0 5.501-2.238 6.225-5.262h.92c.482 0 .877-.428.877-.952V6.214c-.044-.524-.417-.952-.899-.952zM8 1.786c2.082 0 3.836 1.452 4.493 3.476H3.507C4.164 3.238 5.917 1.786 8 1.786zm0 10.428c-2.082 0-3.836-1.476-4.493-3.5h9.008c-.658 2.024-2.433 3.5-4.515 3.5z" fill="#0085FF"/><path d="M13.738 5.378l.092.384h1.315c.148 0 .364.146.399.476v1.548c0 .287-.209.452-.377.452h-1.315l-.092.384c-.678 2.834-3.002 4.878-5.738 4.878-2.74 0-5.081-2.046-5.738-4.875l-.09-.387H.878C.709 8.238.5 8.073.5 7.786V6.214c0-.287.209-.452.377-.452h1.318l.09-.387C2.94 2.544 5.262.5 8 .5c2.737 0 5.06 2.044 5.738 4.878zm-1.245.384h.688l-.212-.655C12.255 2.91 10.33 1.286 8 1.286c-2.33 0-4.255 1.624-4.969 3.821l-.212.655h9.674zM3.507 8.214h-.688l.212.655c.713 2.194 2.635 3.845 4.969 3.845 2.332 0 4.277-1.648 4.99-3.845l.213-.655H3.507z" stroke="#1F1F1F" stroke-opacity=".28"/></svg>