<svg width="16" height="9" viewBox="0 0 16 9" fill="none" xmlns="http://www.w3.org/2000/svg"><path d="M9.524 2.57c0 .982-.764 1.748-1.67 1.748-.907 0-1.671-.766-1.671-1.748S6.947.822 7.853.822c.907 0 1.67.766 1.67 1.748z" stroke="#A3ACBA"/><path d="M11.206 7.679c0-1.13-1.501-2.044-3.354-2.044-1.853 0-3.354.915-3.354 2.044" stroke="#A3ACBA" stroke-linecap="round" stroke-linejoin="round"/><path d="M4.612 3.538c0 .665-.516 1.174-1.116 1.174-.6 0-1.116-.509-1.116-1.174 0-.664.516-1.173 1.116-1.173.6 0 1.116.509 1.116 1.173z" stroke="#A3ACBA"/><path d="M1 7.341c0-.84 1.118-1.52 2.497-1.52" stroke="#A3ACBA" stroke-linecap="round" stroke-linejoin="round"/><path d="M11.385 3.539c0 .664.515 1.173 1.115 1.173s1.116-.509 1.116-1.173c0-.665-.516-1.174-1.116-1.174-.6 0-1.115.509-1.115 1.174z" stroke="#A3ACBA"/><path d="M14.996 7.342c0-.84-1.118-1.521-2.497-1.521" stroke="#A3ACBA" stroke-linecap="round" stroke-linejoin="round"/></svg>