<svg id="Layer_1" xmlns="http://www.w3.org/2000/svg" viewBox="0 0 885.3 1000"><style>.st0{fill:#f1eff3}.st1{opacity:.19;fill:#bab8c7}.st2{fill:#1d439c}.st3{fill:#6a9ece}.st4{fill:#bddbf3}.st5{fill:#fff}.st6{fill:#83aedc}.st7{fill:#203b71}.st8{fill:#f2759c}.st9{fill:#61a4d9}.st10{fill:#4e99cd}.st11{fill:#81b9e0}.st12{fill:#2782b5}.st13{fill:#2f3082}.st14{fill:#4161ad}.st15{fill:#4770b7}.st16{fill:#fac5c9}.st17{fill:#f2759b}.st18{fill:#ed2f66}</style><path class="st0" d="M521.2 581.9l-10.2-1.7s-3.5-78.5-11.8-102.3c0 0-113.1-2.7-129.8-86.1 0 0 87.4-26.7 130.1 73.6 0 0-4-75.9-22.4-148.8 0 0-85.2 13.6-96.4-60.8 0 0 52-23.6 90.5 23.1 0 0-11.3-58.3-24.6-88.3 0 0-64.4 9-82.6-54.9 0 0 47.2-5.6 76.4 28.8l-22-61.9S366.8 60.9 382.2-.1c0 0 58.4 26.7 43.4 95.9l21.1 67.1s10.4-62.7 55.8-62.4c0 0 .3 77.1-47 88 0 0 21.2 61.7 26.8 106.5 0 0-1.3-81.7 67-92.7 0 0 19 64.1-60.5 106.4 0 0 14.1 67.7 19.1 152.7 0 0-14.4-81.2 65.1-123.5 0 0 42.4 70.6-59.6 143.2.1.1 8.9 47.3 7.8 100.8z"/><path class="st1" d="M713.9 760.2l-9.4-5.5s26.2-79 27-105.7c0 0-110.9-45.4-95.9-134.2 0 0 96.6 6.7 100.9 122 0 0 24.8-76.6 34.1-155.7 0 0-89.5-18.8-72.4-96.6 0 0 60.3-3.7 80.8 57.1 0 0 10.9-61.9 9-96.7 0 0-67.1-15.4-60.9-85.6 0 0 48.8 12.3 64.7 57.4l1.6-69.6s-35.3-60.8 3-115.3c0 0 47.7 48.5 6.7 111.3l-4.4 74.4s34-58.1 78.8-40.6c0 0-28.9 76.4-79.7 69.3 0 0-2.4 69.1-13.7 115.6 0 0 29.6-81.3 101.3-66.5 0 0-5.4 70.6-100.1 82.4 0 0-11.7 72.3-38.8 158.4 0 0 16.4-85.8 111.1-97.6 0 0 15.2 85.9-113.1 119.2-.1 0-9.3 49.9-30.6 102.5zM230 771.4l9.2-7.1s-37-77.6-41.1-105c0 0 109.9-63.3 83.3-152.7 0 0-99.7 21.2-90 140.8 0 0-35.2-75.3-54.7-155.6 0 0 90.8-32.6 63.5-110.4 0 0-63.3 5.1-77.1 70.8 0 0-19-62.3-21.3-98.4 0 0 68-25.9 52.9-97.3 0 0-49.3 19.9-60.3 68.8l-10.3-71.5s29.2-67.9-17.4-118.5c0 0-43.7 57.1 6.7 115.8l13.8 76.1S44.6 272.3.1 297c0 0 39.5 74.5 91.6 59.7 0 0 11 70.9 28.6 117.2 0 0-40.9-79.5-113.7-53.6 0 0 14.3 72 114.4 70.2 0 0 21.1 72.9 60 157.6 0 0-27.7-86.1-127.8-84.3 0 0-5.3 90.9 132.6 106.2-.1.1 15.6 50.2 44.2 101.4z"/><path class="st2" d="M729.7 191.8h-.3c-5.8 0-10.8 3.8-12.5 9.1-.3 1.1-.6 2.2-.6 3.3v92.9c0 7.3 5.9 13.2 13.2 13.2 7.3 0 13.2-5.9 13.2-13.2V205c-.1-7.2-5.9-13-13-13.2z"/><path class="st3" d="M307.2 224.1h538.2v729.6H307.2z"/><path class="st4" d="M845.4 953.6H307.2l538.2-729.5z"/><path class="st4" d="M703.4 878H301.7c0 28.1 23 51 51 51h401.8c-28.1.1-51.1-22.9-51.1-51z"/><path class="st5" d="M353.3 254.4V878h350.2c0 28.1 23 51 51 51 28.1 0 51-23 51-51V254.4H353.3zm378.7 552c0 3.3-2.7 6-6 6H558c-3.3 0-6-2.7-6-6s2.7-6 6-6h167.9c3.4 0 6.1 2.7 6.1 6zm55.6-530.7v-.7.7z"/><path class="st4" d="M558 800.4c-3.3 0-6 2.7-6 6s2.7 6 6 6h167.9c3.3 0 6-2.7 6-6s-2.7-6-6-6H558z"/><path class="st6" d="M450.5 449.2c-4.5 0-8.1 3.1-8.1 6.9s3.6 6.9 8.1 6.9H684c4.5 0 8.1-3.1 8.1-6.9s-3.6-6.9-8.1-6.9H450.5zm0 323.2c-4.5 0-8.1 3.1-8.1 6.9 0 3.8 3.6 6.9 8.1 6.9H684c4.5 0 8.1-3.1 8.1-6.9 0-3.8-3.6-6.9-8.1-6.9H450.5zm-4.6-244.2H683c3 0 5.7-1.4 7.2-3.4 1.1-1.2 1.9-2.7 1.9-4.4 0-3.8-3.6-6.9-8.1-6.9h-.1c-.3 0-.6-.1-.9-.1H445.9c-4.7 0-8.6 3.3-8.6 7.4 0 4.1 3.8 7.4 8.6 7.4zm0 26.2H683c4.7 0 8.6-3.3 8.6-7.4s-3.9-7.4-8.6-7.4H445.9c-4.7 0-8.6 3.3-8.6 7.4s3.8 7.4 8.6 7.4zm0 33.7H683c2.6 0 4.9-1 6.5-2.6 1.6-1.3 2.6-3.1 2.6-5.1 0-3.4-2.9-6.2-6.7-6.8-.8-.2-1.6-.3-2.4-.3H445.9c-4.7 0-8.6 3.3-8.6 7.4s3.8 7.4 8.6 7.4zm0-242.7H683c3 0 5.7-1.4 7.2-3.4 1.1-1.2 1.9-2.7 1.9-4.4 0-3.8-3.6-6.9-8.1-6.9h-.1c-.3 0-.6-.1-.9-.1H445.9c-4.7 0-8.6 3.3-8.6 7.4 0 4.1 3.8 7.4 8.6 7.4zm0 26.2H683c4.7 0 8.6-3.3 8.6-7.4s-3.9-7.4-8.6-7.4H445.9c-4.7 0-8.6 3.3-8.6 7.4s3.8 7.4 8.6 7.4zm-2.6 33.7h166.3c1.8 0 3.4-1 4.5-2.6 1.1-1.3 1.8-3.1 1.8-5.1 0-3.4-2-6.2-4.7-6.8-.5-.2-1.1-.3-1.7-.3H443.3c-3.3 0-6 3.3-6 7.4 0 4.1 2.7 7.4 6 7.4zm2.6 218.9H683c3.6 0 6.6-1.9 7.9-4.6.7-1 1.1-2.2 1.1-3.5 0-3.8-3.6-6.9-8.1-6.9H492v.2h-26.3v-.2h-15.1c-.6 0-1.2.1-1.8.2H446c-4.7 0-8.6 3.3-8.6 7.4-.1 4.1 3.7 7.4 8.5 7.4zm0 101.7h2.6c.7.2 1.4.3 2.1.3h91.7c-.2-.1-.3-.2-.5-.3H683c4.7 0 8.6-3.3 8.6-7.4 0-4.1-3.9-7.4-8.6-7.4H445.9c-4.7 0-8.6 3.3-8.6 7.4 0 4.1 3.8 7.4 8.6 7.4zm0 27.9H683c4.7 0 8.6-3.3 8.6-7.4s-3.9-7.4-8.6-7.4H445.9c-4.7 0-8.6 3.3-8.6 7.4s3.8 7.4 8.6 7.4z"/><path class="st5" d="M579.1 157.2c2.1 0 3.8-1.7 3.8-3.8s-1.7-3.8-3.8-3.8c-2.1 0-3.8 1.7-3.8 3.8s1.7 3.8 3.8 3.8z"/><path class="st7" d="M929.7 822c.1-.1.1-.2.2-.2l-.2.2z"/><path class="st8" d="M743.8 369.9c-2.4 0-4.6-1.2-6-3.1l-13.6-19.1c-2.4-3.3-1.6-8 1.7-10.4 3.3-2.4 8-1.6 10.4 1.7l6.6 9.3 20.3-38.5c1.9-3.6 6.4-5 10-3.1 3.6 1.9 5 6.4 3.1 10L750.4 366c-1.2 2.3-3.5 3.8-6.1 3.9h-.5zm0 199.2c-2.4 0-4.6-1.2-6-3.1l-13.6-19.1c-2.4-3.3-1.6-8 1.7-10.4 3.3-2.4 8-1.6 10.4 1.7l6.6 9.3 20.3-38.5c1.9-3.6 6.4-5 10-3.1 3.6 1.9 5 6.4 3.1 10L750.4 565c-1.2 2.3-3.5 3.8-6.1 3.9-.1.2-.3.2-.5.2zm0 195.1c-2.4 0-4.6-1.2-6-3.1L724.2 742c-2.4-3.3-1.6-8 1.7-10.4 3.3-2.4 8-1.6 10.4 1.7l6.6 9.3 20.3-38.5c1.9-3.6 6.4-5 10-3.1 3.6 1.9 5 6.4 3.1 10l-25.9 49.1c-1.2 2.3-3.5 3.8-6.1 3.9-.1.2-.3.2-.5.2z"/><path class="st4" d="M703 223.8h19.3v59.3H703z"/><path class="st9" d="M716.8 200.9H451.2v3.3h265c.1-1.1.3-2.2.6-3.3zm-265.6 18.3h265v31.9h-265zm211-72.7H518.7v45.3h143.5v-45.3zm-71.4 38.9c-7.1 0-12.9-5.8-12.9-12.9 0-7.1 5.8-12.9 12.9-12.9 7.1 0 12.9 5.8 12.9 12.9 0 7.1-5.8 12.9-12.9 12.9z"/><path class="st10" d="M729.4 191.8h.3v-.1H451.2v9.2h265.6c1.8-5.3 6.8-9.1 12.6-9.1zM716.2 205v-.7h-265v15h265V205z"/><path class="st11" d="M722.5 283.2l-.1-.1h-.4c-3.2 0-5.8-2.6-5.8-5.8v-26.1h-265v18.3c3.8.4 7.7.6 11.6.7v7.3c0 2.9-2.2 5.3-5 5.7h264.7z"/><path class="st12" d="M451.2 269.5v8c0 .2 0 .3.1.5l-.1-8.5zm5.8 13.8h.4c.1 0 .3 0 .4-.1h-1.9c.3 0 .7.1 1.1.1z"/><path class="st11" d="M462.8 277.5v-7.3c-3.9-.1-7.7-.2-11.6-.7v8.5c.2 2.6 2.2 4.7 4.7 5.2h1.9c2.8-.4 5-2.8 5-5.7z"/><path class="st6" d="M380.7 338c0-4.8 3.9-8.7 8.7-8.7 4.8 0 8.7 3.9 8.7 8.7 0 4.8-3.9 8.7-8.7 8.7-4.7.1-8.7-3.8-8.7-8.7zm0 183.8c0-4.8 3.9-8.7 8.7-8.7 4.8 0 8.7 3.9 8.7 8.7 0 4.8-3.9 8.7-8.7 8.7-4.7 0-8.7-3.9-8.7-8.7z"/><circle class="st6" cx="389.5" cy="716.1" r="8.7"/><path class="st13" d="M119.4 969.8s-11.9 22.2-11 26.7c.9 4.4 27.3 3.5 27.3 3.5s-3.1-21.3-7.5-27.7c-2.6-3.8-.9-9.9 1-14.2l-9-1.2-.8 12.9zm48.1-3.7l-8.8 9.9-.8 5.9s58.6 5.4 62.2 4.1c3.6-1.4-.8-8.1-.8-8.1L178 966.1l1.1-9.8-11.8-.4.2 10.2z"/><path class="st14" d="M228.5 672c-10 20.4-24.3 39-35 59-1.9 2.1-8.4 16.1-15.3 35.3.3 9.6.6 20.8-.6 34.6l-17.2 154.7 6.9.2 11.8.4 16.7.5s45.4-259.1 42.8-287c-.1-1.6-.3-2.6-.4-3.4-.2 3.1-.3 4.8-.3 4.8s-3.6.5-9.4.9z"/><path class="st15" d="M228.5 672c-25.4 2.1-94.9 7.7-102.4 7.2l-23.8 275.3 17.9 2.3 9 1.2 10.4 1.4s9.6-86.7 26.4-153.4c3.6-14.1 7.9-27.9 12.2-39.6 6.9-19.3 13.5-33.3 15.3-35.3 10.7-20.1 25-38.6 35-59.1z"/><path class="st16" d="M316 415.8c-2.5-1.4-19.1 21.9-19.1 21.9l-2.1-5.1c-2.9-11.2-9.6-4.2-9.6-4.2s7.1 17.3 7.9 22.9c.4 2.4.5 6.3.5 9.9.6-1 1.1-1.5 1.6-1.5l13.9 8.7c6-7.4 14.3-18.7 16.9-27.4 4.2-14-7.5-23.8-10-25.2z"/><path class="st17" d="M293.7 461.1c-6.5 10.2-22 70-22 70-13.7-28-62.4-78.9-62.4-78.9l.4 2.2s24.4 30.5 28.2 82.9c.5 6.4.8 13 1.1 19.6 13.2 14.6 33.1 36.5 34.1 37.2 37.5 25.6 36.2-125.5 36.2-125.5l-.2-.1-13.9-8.7c-.4-.2-.9.4-1.5 1.3z"/><path class="st18" d="M134.4 604.6l49.7-20.9 2 6.7.3-.1c-3.3-34-9.3-98-8.5-106.4-.4.2-.9.5-1.4.7 0 0-5 15.7-16.9 7.7-12.5-8.4-25.2-17-23.9-27.5.1-1.1.3-2 .5-2.9-.9-.8-1.5-1.3-1.5-1.3l-14.4 12.7c7.1 7.9 9.3 79.6 14.1 131.3z"/><path class="st18" d="M209.7 454.3l-9.8-1.6v8.6c0 .6-.1 1.2-.2 2 0 6.4.1 15 .1 17.1 0 7.8-16.7 3.2-19.9 2.3-.4.3-.9.6-1.4.9 2.2 5.9 10.8 56.5 16.8 93.2 3.2-5.4 6.4-10.3 7.5-9.8 2.2 1-4.1 14.3-4.1 14.3s27.5-3.5 27.5 3.1 8.1 18.2-19.7 22.4c-2.3.3-4.3.6-6.3.9.6 4.1 1 6.7 1 7.2 0 8.5-3.4 28.1-2.8 23.2.5-3.7-5.4-17-8.3-23.3-10 8.7-45.9 38.5-66.8 37.3.8 16.2 1.5 26.8 2.1 27.1.1 0 .3.1.7.1 7.6.4 77-5.1 102.4-7.2 5.8-.5 9.3-.8 9.3-.8s.1-1.7.3-4.8c.8-15.1 3-62.9.9-109.6-.3-6.6-.7-13.1-1.1-19.6-3.9-52.5-28.2-82.9-28.2-83z"/><path class="st17" d="M159.7 492.4c11.9 8 16.9-7.7 16.9-7.7-.9-.4-1.7-.7-2.6-1.1-.5 0-1 .1-1.5.1-5.7 0-10.9-2-15-5.3-13.5-4.5-14.6-16.3-14.7-18.2-.7-1.4-.9-2.5-.9-3.2 0 0-3.9-2-5.7 5.1-.2.8-.4 1.8-.5 2.9-1.2 10.4 11.5 19 24 27.4zm30.5-16.7c-2.9 3.2-6.5 5.5-10.7 6.8.1 0 .2.1.4.1 3.2.9 19.9 5.5 19.9-2.3 0-2.1-.1-10.7-.1-17.1-.5 3.6-2.8 8.9-9.5 12.5z"/><path class="st5" d="M178.3 483c-.1 0-.2.3-.3.9-.8 8.4 5.2 72.4 8.5 106.4l1.7-.6s3.6-6.8 7.2-12.9c-6-36.7-14.6-87.3-16.8-93.2-.1-.4-.3-.6-.3-.6zm14.6 129.4s-1 .9-2.7 2.4c2.9 6.4 8.7 19.6 8.3 23.3-.6 4.9 2.8-14.8 2.8-23.2 0-.5-.4-3-1-7.2-3.2.4-6 .8-8.5 1.1l1.1 3.6z"/><path class="st16" d="M186.5 590.3l-.3.1 5.6 18.5c2.5-.3 5.3-.7 8.5-1.1 2-.3 4-.6 6.3-.9 27.8-4.2 19.7-15.7 19.7-22.4 0-6.6-27.5-3.1-27.5-3.1s6.2-13.3 4.1-14.3c-1-.5-4.3 4.4-7.5 9.8-3.7 6.2-7.2 12.9-7.2 12.9l-1.7.5zm3.7-114.6c-4.6 2.5-11.1 4.3-20.7 4.3-4.8 0-8.7-.7-12-1.8 4.1 3.3 9.4 5.3 15 5.3.5 0 1 0 1.5-.1 1.9-.1 3.8-.4 5.5-1 4.2-1.1 7.9-3.5 10.7-6.7zm19.3-88.5c0 .7 0 1.6-.1 2.4.1-.9.1-1.7.1-2.4zm-63.7 38.3c0 11.5 4.2 11 4.2 11s5.2-.5 5.7-6.7 5.5-7.5 5.5-7.5h19.9c7.5 0 7 13.2 10.7 13.2 3.7 0 4.5-6 4.5-10 0-2.9 1.9-4.4 2.9-4.9h-.1v-26.1c-2.2-2.2-4.1-5-5.5-8.3-.1-.2-.1-.4-.2-.6-4.5 0-12.6-13.3-15.9-9.8-3.2 3.4-7.9 0-21.3 0-8.5 0-8.9 25.8-11.6 22.7v23.2c1.4 1.5 1.2 3.8 1.2 3.8zm-11.2-35.9c0-.8-.1-1.7-.1-2.4.1.7.1 1.6.1 2.4zm8.3 31.1c-.4-.5-.6-1.1-.8-1.9h-2.4s-.6-3.6-1.3-8.9c-1.4 3.6-.2 14.7 4.4 17.7 0 0 .1 0 .1.1v-7zm62-11.8c-.5-.2-.9-.1-1.2 0-.8 6.6-1.5 11.6-1.5 11.6h-.8c-.4.6-.9 1-1.4 1.2v6.7c.4-.2.9-.5 1.4-.8 5.2-3.5 6.1-17.8 3.5-18.7z"/><path class="st13" d="M157.5 478.3c3.2 1.1 7.2 1.8 12 1.8 9.6 0 16.2-1.8 20.7-4.3 6.7-3.7 8.9-8.9 9.5-12.4.1-.7.2-1.4.2-2v-31.1c5.2-.3 9.2-5.2 9.1-11.1l.4-29.4v-.2c0-.8.1-1.6.1-2.4v-2.9h-.1c-.4-7.4-2.9-14.3-7-20-3.5-8.5-10-16.6-21.4-16.6-3.5 0-6.4.4-8.8 1h-.2c-20.1 0-36.4 15.8-37.4 35.6h-.1v2.9c0 .8 0 1.6.1 2.4v.1l.4 29.5c-.1 5.4 3.3 9.9 7.8 10.9v30c.2 1.8 1.2 13.7 14.7 18.2zm-12.9-79.8c6.6-1.4 10.5-1.7 19-1.7 13.5 0 15.4-5.8 18.7-9.2 3.2-3.4 6.7-2 11.1-2 .1.2.1.4.2.6 1.4 3.3 3.3 6.1 5.5 8.3v26.1h.1c-1 .6-2.9 2-2.9 4.9 0 4-.7 10-4.5 10-3.7 0-3.2-13.2-10.7-13.2h-19.9s-5 1.2-5.5 7.5c-.5 6.2-5.7 6.7-5.7 6.7s-4.2.5-4.2-11c0 0 .1-2.3-1.2-3.8v-23.2zm56.7 29.1c-.5.3-1 .6-1.4.8v-6.7c.5-.2 1-.6 1.4-1.2h.8s.7-5 1.5-11.6c.3-.2.7-.2 1.2 0 2.7.9 1.8 15.2-3.5 18.7zm-58.6 0c-4.6-3-5.8-14.1-4.4-17.7.6 5.3 1.3 8.9 1.3 8.9h2.4c.2.8.4 1.4.8 1.9v7s0-.1-.1-.1z"/><path class="st17" d="M190.2 614.8c1.7-1.5 2.7-2.4 2.7-2.4l-1.1-3.6-5.6-18.5-2-6.7-49.7 20.9c-4.8-51.7-7-123.4-14-131.2-.7-.8-1.5-.9-2.3-.3-61.9 47-23.2 147.7-6.3 172.9 2.7 4.1 6.7 5.9 11.5 6.2 20.9 1.2 56.7-28.5 66.8-37.3z"/></svg>