<svg xmlns="http://www.w3.org/2000/svg" xmlns:xlink="http://www.w3.org/1999/xlink" viewBox="0 0 4236.42 3495.4"><defs><linearGradient id="a" x1="154.58" y1="781.77" x2="103.63" y2="574.47" gradientUnits="userSpaceOnUse"><stop offset="0" stop-color="#0290d3"/><stop offset="1" stop-color="#fff"/></linearGradient><linearGradient id="c" x1="205.86" y1="1159.28" x2="162.49" y2="982.8" xlink:href="#a"/><linearGradient id="d" x1="539.44" y1="802.76" x2="477.9" y2="552.36" xlink:href="#a"/><linearGradient id="e" x1="3218.93" y1="2308.77" x2="3167.98" y2="2101.47" xlink:href="#a"/><linearGradient id="f" x1="3270.21" y1="2686.28" x2="3226.83" y2="2509.8" xlink:href="#a"/><linearGradient id="g" x1="3603.78" y1="2329.76" x2="3542.24" y2="2079.37" xlink:href="#a"/><clipPath id="b"><path d="M852.28 2762.67l-2.9-1020.89C849.91 1929 973 2116 1218.8 2258.84l2.89 1020.89c-245.83-142.86-368.88-329.82-369.41-517.06z" fill="#ff5a00"/></clipPath></defs><g style="isolation:isolate"><path d="M852.28 2762.67l-2.9-1020.89C849.91 1929 973 2116 1218.8 2258.84l2.89 1020.89c-245.83-142.86-368.88-329.82-369.41-517.06z" fill="#ff5a00"/><g clip-path="url(#b)"><path d="M1218.8 2258.84l2.89 1020.89c-245.83-142.86-368.88-329.82-369.41-517.06l-2.9-1020.89C849.91 1929 973 2116 1218.8 2258.84" fill="#ff5a00"/></g><path fill="#ff7100" d="M2360.31 1014.48l2.89 1020.89-142.83 431.36-2.9-1020.89 142.84-431.36z"/><path d="M1610.48 2748q.13-1.87.3-3.75t.36-3.51c.14-1.24.29-2.49.46-3.74s.32-2.33.5-3.5.39-2.49.61-3.73.42-2.35.65-3.51.5-2.45.76-3.67.52-2.34.8-3.52.6-2.43.92-3.65.61-2.34.94-3.51.7-2.43 1.07-3.64.71-2.34 1.09-3.5.81-2.42 1.23-3.63.8-2.31 1.23-3.46.95-2.54 1.45-3.8.88-2.25 1.34-3.38 1.08-2.53 1.63-3.79 1-2.23 1.48-3.35 1.19-2.52 1.8-3.79c.53-1.1 1.06-2.21 1.61-3.31.64-1.27 1.31-2.53 2-3.79.57-1.08 1.13-2.15 1.72-3.23q1.36-2.46 2.81-4.9c.47-.81.92-1.63 1.41-2.44 1.41-2.34 2.86-4.68 4.37-7l.18-.28q2.37-3.63 4.91-7.23c.54-.77 1.11-1.53 1.66-2.3 1.18-1.63 2.36-3.25 3.58-4.87 1.4-1.85 2.82-3.69 4.29-5.53l.82-1c1.39-1.73 2.81-3.44 4.26-5.15l1-1.16c1.63-1.91 3.31-3.82 5-5.71l1.12-1.22c1.56-1.71 3.16-3.41 4.78-5.1l.81-.85q2.73-2.82 5.57-5.61l1.33-1.3c1.29-1.25 2.61-2.5 3.93-3.74 1-1 2.09-2 3.16-3s2.41-2.17 3.62-3.26 2.17-1.93 3.28-2.89 2.53-2.16 3.8-3.24 2.25-1.9 3.39-2.84c1.31-1.08 2.64-2.14 4-3.21l3.51-2.79c1.37-1.07 2.76-2.12 4.15-3.18 1.21-.91 2.4-1.83 3.62-2.74 1.43-1 2.89-2.1 4.34-3.15 1.24-.89 2.46-1.79 3.71-2.67 1.5-1.06 3-2.1 4.57-3.15 1.26-.86 2.5-1.73 3.77-2.58 1.59-1.07 3.21-2.12 4.83-3.17 1.27-.82 2.51-1.66 3.8-2.47 1.92-1.23 3.88-2.44 5.84-3.65 1-.6 2-1.22 3-1.82q4.47-2.72 9.07-5.38c4.25-2.45 8.56-4.83 12.91-7.18 1.42-.77 2.87-1.51 4.3-2.26 3-1.57 5.94-3.12 9-4.64 1.7-.86 3.43-1.69 5.15-2.54q4.21-2.07 8.48-4.07c1.8-.85 3.62-1.69 5.44-2.52q4.28-1.95 8.61-3.85c1.8-.79 3.61-1.58 5.43-2.35 3.07-1.31 6.16-2.58 9.27-3.84 1.65-.67 3.29-1.36 5-2q5.88-2.32 11.86-4.54c.87-.33 1.71-.66 2.58-1q7.28-2.68 14.68-5.2c1.43-.49 2.87-.95 4.31-1.42 3.53-1.18 7.07-2.35 10.64-3.47q4.95-1.58 10-3.07l2.2-.67q6.34-1.87 12.77-3.64l3.57-1c3.16-.85 6.32-1.69 9.5-2.5l4.41-1.11c3.08-.77 6.17-1.51 9.27-2.25l4-.95q6.57-1.52 13.2-2.93h.13c4.38-.93 8.78-1.81 13.19-2.67l4.17-.78q4.27-.81 8.56-1.57c2.88-.51 5.78-1 8.67-1.48 2.26-.37 4.52-.75 6.78-1.11 2.95-.46 5.91-.9 8.87-1.34 2.23-.32 4.45-.66 6.68-1 3-.43 6.11-.82 9.17-1.21 2.16-.27 4.31-.56 6.47-.81 3.25-.39 6.52-.74 9.79-1.1 2-.21 4-.45 6-.65 1.82-.18 3.65-.34 5.47-.51 3-.29 6.09-.58 9.15-.83 2-.17 4-.31 6-.47 2.88-.22 5.75-.44 8.63-.63 2.1-.14 4.21-.26 6.31-.39q4.2-.26 8.4-.47c2.15-.11 4.3-.2 6.44-.29q4.29-.19 8.58-.33c1.84-.07 3.69-.12 5.54-.17q4.53-.12 9.06-.2l5.34-.08h14.33q7.13 0 14.26.19h1.49q6.3.15 12.62.38l4.62.19c3.19.14 6.39.29 9.58.46l5.12.29c3.11.18 6.23.38 9.34.6 1.63.11 3.26.22 4.89.35 3.25.24 6.49.52 9.74.8 1.54.13 3.09.25 4.63.39q7.11.66 14.21 1.42l-2.9-1020.89q-7.08-.77-14.2-1.41c-1.55-.15-3.11-.27-4.66-.4-2.48-.22-5-.45-7.44-.64l-2.27-.16-4.91-.35q-4.65-.33-9.32-.6l-5.13-.29q-4.78-.26-9.58-.45l-4.62-.2q-6.33-.24-12.68-.38h-1.62q-7-.15-14.08-.17h-14.34c-1.78 0-3.55.06-5.32.09q-4.55.08-9.07.19l-5.56.17c-1.25 0-2.51.06-3.77.11-1.6.06-3.2.15-4.79.22-2.15.09-4.29.18-6.43.29-2.81.14-5.61.3-8.42.47l-6.3.39c-2.88.19-5.75.41-8.62.63-2 .16-4 .3-6.05.47q-4.56.39-9.12.83c-1.83.17-3.66.33-5.48.51l-1 .09c-1.68.17-3.35.38-5 .56-3.27.36-6.54.71-9.8 1.1-2.16.26-4.32.54-6.48.82-3 .39-6.1.78-9.15 1.2-2.24.31-4.47.64-6.7 1-3 .43-5.9.87-8.84 1.33-2.28.36-4.54.74-6.81 1.11-2.88.48-5.77 1-8.64 1.48l-3 .51c-1.88.34-3.75.71-5.63 1.06l-4.13.78q-6.66 1.29-13.26 2.68h-.07c-4.42.94-8.82 1.93-13.21 2.93l-4 1q-4.63 1.1-9.26 2.25l-4.43 1.12q-4.75 1.22-9.48 2.49l-3.58 1q-6.42 1.77-12.78 3.64l-2.2.67c-2.77.83-5.54 1.66-8.28 2.52l-1.68.55q-5.37 1.69-10.67 3.48c-1.43.47-2.86.93-4.28 1.41q-7.39 2.52-14.69 5.2l-2.56 1c-4 1.49-7.95 3-11.88 4.56-1.66.65-3.3 1.34-5 2-3.11 1.26-6.21 2.53-9.28 3.84-1.82.77-3.62 1.56-5.43 2.36q-4.33 1.89-8.6 3.84c-1.83.83-3.64 1.67-5.45 2.52-2.85 1.33-5.67 2.7-8.48 4.08-1.72.84-3.44 1.68-5.14 2.53-3 1.52-6 3.08-9 4.65-1.42.75-2.87 1.48-4.28 2.25-4.36 2.35-8.67 4.73-12.91 7.19q-4.6 2.65-9.08 5.37c-1 .61-2 1.23-3 1.84-1.77 1.09-3.55 2.17-5.29 3.28l-.53.34c-1.3.83-2.56 1.67-3.83 2.5-1.61 1-3.22 2.09-4.8 3.14-1.28.86-2.53 1.74-3.79 2.6-1.53 1-3 2.09-4.55 3.14-1.26.89-2.48 1.78-3.72 2.67-1.45 1-2.91 2.1-4.33 3.16-1.23.9-2.42 1.82-3.63 2.74-1.38 1.05-2.78 2.1-4.14 3.17-1.19.93-2.35 1.86-3.51 2.8-1.34 1.06-2.67 2.13-4 3.2-1.15.94-2.27 1.89-3.39 2.84q-1.92 1.62-3.8 3.24c-1.11 1-2.19 1.93-3.28 2.9s-2.43 2.16-3.62 3.25-2.12 2-3.16 3c-.73.68-1.48 1.36-2.19 2s-1.16 1.13-1.75 1.7l-1.32 1.3q-2.85 2.79-5.58 5.61l-.8.85q-2.45 2.54-4.78 5.1l-1.12 1.22q-2.57 2.85-5 5.7c-.33.39-.65.78-1 1.17q-2.16 2.56-4.25 5.15c-.28.33-.56.67-.83 1a238.04 238.04 0 00-3.74 4.79c-.19.24-.36.49-.55.73a301.4 301.4 0 00-3.57 4.87c-.55.77-1.13 1.53-1.67 2.3q-2.54 3.6-4.91 7.23l-.17.28q-2.27 3.49-4.37 7c-.49.81-.94 1.63-1.42 2.44-1 1.63-1.9 3.26-2.8 4.91-.15.26-.31.52-.45.79-.44.8-.84 1.62-1.27 2.43-.67 1.26-1.34 2.52-2 3.79-.56 1.1-1.08 2.21-1.62 3.31-.6 1.26-1.21 2.53-1.79 3.79s-1 2.23-1.49 3.35-1.1 2.53-1.62 3.8-.9 2.24-1.34 3.37-1 2.53-1.46 3.8c-.16.45-.35.89-.51 1.34-.25.7-.47 1.41-.72 2.12a171.91 171.91 0 00-2.31 7.13c-.35 1.17-.73 2.42-1.07 3.64s-.64 2.34-1 3.51-.62 2.44-.92 3.66-.54 2.34-.79 3.51-.52 2.44-.76 3.67c-.11.52-.23 1-.33 1.55s-.21 1.31-.32 2c-.22 1.24-.43 2.49-.62 3.73s-.34 2.34-.5 3.5-.32 2.5-.46 3.74-.25 2.34-.35 3.51-.22 2.5-.3 3.75-.15 2.34-.21 3.51-.11 2.49-.14 3.74c0 .62-.06 1.23-.07 1.84v3.42l2.9 1020.8c0-1.75 0-3.51.09-5.26 0-1.25.08-2.5.14-3.74s.17-2.34.25-3.5z" fill="#ff5a00"/><path fill="#ff7100" d="M1756.37 1948.47l2.9 1020.89-537.58 310.37-2.89-1020.89 537.57-310.37z"/><path d="M1224.68 1217.45c309.43-178.65 737.28-246.3 1135.63-203l-142.84 431.36c-160.9-17.5-333.74 9.81-458.73 82-201.21 116.16-202.25 304.49-2.37 420.65l-537.57 310.38C724 1971.27 726.59 1505 1224.68 1217.45z" fill="#ff8d00"/><path fill="#a81b2c" d="M3299.57 1629.31l2.42 850.74-702.42 166.3-2.41-850.74 702.41-166.3z"/><path d="M2597.16 1795.61c-24.87-35.52-62.09-68.81-111.7-97.64-4.21-2.45-8.5-4.82-12.82-7.17l-3-1.63c-4.28-2.28-8.61-4.54-13-6.72l-1.55-.76c-4-2-8.12-4-12.23-5.86l-3-1.39q-6.72-3.07-13.57-6l-2.48-1q-6.12-2.58-12.35-5c-.92-.37-1.83-.74-2.75-1.09l-1.61-.65c-3-1.14-6-2.22-8.95-3.33-1.79-.66-3.57-1.35-5.38-2q-7-2.51-14.06-4.86l-1.88-.65q-8-2.65-16.2-5.13c-1.7-.52-3.42-1-5.12-1.5-3.37-1-6.72-2-10.11-2.94l-1.36-.37-3.89-1q-5.93-1.61-11.92-3.13l-5.1-1.27q-5.9-1.44-11.84-2.8c-1.41-.32-2.82-.66-4.24-1q-7.58-1.69-15.21-3.24l-.8-.16-2.36-.46q-6.87-1.35-13.79-2.59l-4.38-.77c-5-.87-10.07-1.71-15.13-2.49l-1-.17q-6.48-1-13-1.88c-1.12-.16-2.25-.29-3.37-.44l-3.66-.47c-5.43-.7-10.88-1.37-16.34-2l2.41 850.74c5.46.59 10.9 1.26 16.33 1.95l3.68.48c5.47.73 10.93 1.49 16.37 2.32l1 .17c5.06.78 10.09 1.62 15.11 2.49 1.47.25 2.94.51 4.4.78q6.9 1.23 13.75 2.58l2.4.46q8 1.62 16 3.39l4.26 1q5.94 1.36 11.83 2.8l5.09 1.27q6 1.51 11.91 3.12c1.3.36 2.61.7 3.91 1.05 3.83 1.07 7.63 2.19 11.43 3.31 1.71.5 3.45 1 5.15 1.5q8.16 2.48 16.21 5.13l1.88.65q7.07 2.37 14 4.86c1.83.65 3.62 1.35 5.43 2 3.52 1.3 7 2.6 10.52 3.95l2.76 1.1q6.21 2.46 12.34 5l2.49 1q6.84 2.92 13.56 6l3 1.39q6.18 2.86 12.23 5.86l1.56.76c4.38 2.18 8.71 4.44 13 6.72l3 1.63c4.32 2.35 8.61 4.72 12.83 7.17 49.61 28.83 86.82 62.12 111.69 97.64z" fill="#821522"/><path d="M2360.81 1184.63c242.87 26.42 474.78 94.06 662.21 203 122.83 71.38 215 153.77 276.55 241.69l-702.41 166.31c-24.87-35.52-62.09-68.81-111.7-97.64-75.7-44-169.4-71.32-267.5-82z" fill="#e5485b"/><path d="M2637.18 2757.57l-1.69-595.52c-.1-37.85-12.61-75.68-37.52-111.25l1.69 595.51c15.57 22.24 26.29 45.36 32.17 68.8a176.2 176.2 0 015.35 42.46z" fill="#4d0143"/><path fill="#4a0140" d="M2669.42 2827.26l1.69 595.52-326.32-395.67-1.69-595.51 326.32 395.66z"/><path d="M3389.18 2826.89c.27-1.71.53-3.41.79-5.11.19-1.29.4-2.57.59-3.86.25-1.75.47-3.5.7-5.26.16-1.23.34-2.47.49-3.71.23-1.86.42-3.73.62-5.59.13-1.13.27-2.25.38-3.38.22-2.21.41-4.43.6-6.64.07-.78.15-1.56.22-2.34.24-3 .44-6 .62-9 0-.67.06-1.35.1-2 .13-2.32.25-4.64.34-7 0-1.09.06-2.18.09-3.27.06-1.91.13-3.81.16-5.71v-.23q.07-4.21.06-8.43l-1.68-595.52q0 4.34-.07 8.66c0 1.9-.1 3.81-.16 5.71 0 1.09-.05 2.18-.09 3.27-.09 2.33-.21 4.65-.34 7 0 .68-.06 1.35-.1 2q-.26 4.5-.62 9c-.06.78-.15 1.56-.21 2.34-.19 2.21-.38 4.43-.61 6.64-.11 1.13-.25 2.25-.37 3.38-.21 1.86-.4 3.73-.63 5.59-.15 1.24-.33 2.48-.49 3.72-.23 1.75-.45 3.5-.7 5.25-.19 1.3-.4 2.6-.6 3.9-.26 1.68-.5 3.37-.78 5.06-.22 1.33-.47 2.67-.7 4-.28 1.65-.56 3.3-.87 4.95-.26 1.41-.55 2.81-.82 4.21-.3 1.56-.6 3.13-.92 4.69-.3 1.41-.61 2.83-.92 4.24s-.66 3.09-1 4.64-.67 2.83-1 4.25-.73 3.09-1.12 4.63-.72 2.83-1.09 4.24-.79 3.08-1.21 4.63-.79 2.83-1.19 4.25-.85 3.06-1.3 4.59-.85 2.84-1.28 4.26-.92 3.06-1.4 4.58-.91 2.84-1.37 4.26-1 3-1.49 4.56-1 2.85-1.47 4.27-1 3-1.58 4.53-1 2.73-1.5 4.09q-.88 2.42-1.78 4.83c-.52 1.37-1.06 2.74-1.6 4.11-.62 1.59-1.23 3.17-1.87 4.76-.56 1.38-1.13 2.77-1.7 4.15q-1 2.36-2 4.71c-.59 1.39-1.2 2.77-1.8 4.16-.68 1.56-1.36 3.12-2.06 4.68-.62 1.39-1.25 2.77-1.89 4.16-.71 1.56-1.42 3.11-2.15 4.66-.65 1.39-1.32 2.77-2 4.16s-1.49 3.09-2.26 4.63-1.37 2.77-2.07 4.16q-1.17 2.31-2.35 4.62-1.08 2.07-2.17 4.14c-.81 1.53-1.62 3.07-2.45 4.6-.72 1.33-1.44 2.66-2.18 4-1 1.78-2 3.55-3 5.32-.71 1.27-1.43 2.54-2.16 3.8-1 1.81-2.1 3.62-3.16 5.42-.72 1.22-1.43 2.43-2.16 3.64-1.16 1.94-2.35 3.86-3.53 5.79l-2 3.23c-1.51 2.41-3.06 4.82-4.61 7.23-.38.58-.74 1.16-1.11 1.74q-2.93 4.47-5.94 8.93c-.57.85-1.16 1.69-1.74 2.54-1.46 2.12-2.92 4.25-4.41 6.37-.79 1.12-1.6 2.24-2.4 3.36-1.31 1.84-2.62 3.67-4 5.51-.88 1.21-1.78 2.42-2.68 3.63q-1.93 2.61-3.9 5.22l-2.59 3.39q-2.67 3.48-5.39 6.93l-2.32 2.94c-2.56 3.21-5.15 6.41-7.8 9.61l-.23.28q-3.86 4.65-7.85 9.27l-2.54 2.94q-3 3.4-6 6.79l-2.77 3.1q-3.39 3.75-6.86 7.49l-1.84 2q-4.38 4.68-8.88 9.34c-.78.8-1.57 1.59-2.34 2.39q-3.43 3.51-6.93 7l-3.09 3.06q-3.4 3.36-6.88 6.71l-3 2.86c-1.21 1.16-2.44 2.31-3.66 3.46-1.49 1.4-3 2.81-4.49 4.21-1.24 1.16-2.51 2.31-3.77 3.47q-2.25 2.07-4.54 4.14l-3.89 3.49q-2.28 2-4.6 4.08l-4 3.48-4.69 4.05-4.07 3.46c-1.59 1.34-3.18 2.69-4.79 4l-4.13 3.43-4.89 4-4.23 3.42q-2.47 2-5 4c-1.43 1.13-2.85 2.26-4.29 3.38-1.69 1.33-3.4 2.65-5.11 4l-4.34 3.34-5.25 4c-1.45 1.09-2.9 2.19-4.37 3.28-1.79 1.33-3.61 2.66-5.42 4l-4.37 3.2a358.98 358.98 0 01-5.62 4q-2.17 1.56-4.36 3.11c-1.95 1.38-3.91 2.74-5.87 4.11l-4.27 3c-2.08 1.43-4.18 2.85-6.27 4.27l-4.06 2.76c-2.36 1.58-4.74 3.16-7.12 4.73-1.13.74-2.24 1.49-3.37 2.24q-5.31 3.47-10.69 6.91l-3.12 2c-2.65 1.68-5.3 3.37-8 5-1.75 1.09-3.53 2.17-5.29 3.25l-6 3.7c-2 1.23-4.08 2.44-6.12 3.67l-5.35 3.21q-5.79 3.42-11.66 6.81-9.19 5.31-18.51 10.47c-2 1.12-4.07 2.22-6.1 3.33q-6.35 3.48-12.74 6.9c-2.4 1.28-4.83 2.55-7.25 3.82q-5.94 3.12-11.94 6.2-3.79 1.93-7.6 3.86-6 3-12.07 6c-2.5 1.22-5 2.45-7.49 3.66q-6.48 3.14-13 6.21c-2.23 1.05-4.45 2.11-6.69 3.15q-8.64 4-17.37 7.93l-2.51 1.14q-10 4.45-20.12 8.79c-2 .88-4.12 1.73-6.18 2.6q-7.09 3-14.22 5.95c-2.56 1.05-5.14 2.08-7.71 3.12q-6.48 2.63-13 5.2c-2.72 1.07-5.45 2.14-8.18 3.19-4.3 1.67-8.61 3.31-12.93 4.95l-8.15 3.05q-6.83 2.53-13.69 5l-7.46 2.69q-8.46 3-17 5.91l-4.3 1.49q-10.67 3.61-21.44 7.11c-2 .65-4 1.28-6 1.92q-7.58 2.43-15.2 4.8c-5.51 1.72-11.06 3.38-16.61 5-2.72.82-5.42 1.65-8.15 2.45q-12.42 3.66-24.94 7.14l1.69 595.52q12.53-3.48 24.94-7.14c2.73-.8 5.43-1.64 8.15-2.45q8.33-2.49 16.61-5l2.51-.76c4.25-1.32 8.46-2.69 12.69-4 2-.64 4-1.27 6-1.92q10.77-3.49 21.44-7.11c1.45-.5 2.88-1 4.32-1.5q8.51-2.91 16.95-5.9c2.5-.89 5-1.8 7.46-2.69q6.87-2.47 13.69-5c2.73-1 5.44-2 8.16-3.06q6.48-2.45 12.93-4.94l8.18-3.19q6.53-2.57 13-5.19c2.57-1 5.15-2.08 7.71-3.13q7.13-2.94 14.2-5.94c2.07-.87 4.15-1.73 6.21-2.62q10.11-4.32 20.11-8.78c.84-.38 1.67-.77 2.51-1.14q8.73-3.91 17.37-7.93c2.24-1 4.46-2.1 6.69-3.16q6.52-3.08 13-6.2c2.5-1.21 5-2.44 7.49-3.67q6.06-3 12.06-6c2.55-1.28 5.08-2.57 7.61-3.86q6-3.08 11.94-6.2 3.63-1.91 7.25-3.82 6.4-3.42 12.74-6.9c2-1.11 4.07-2.21 6.09-3.33q9.33-5.18 18.51-10.47 5.88-3.39 11.67-6.82l1.09-.65q11-6.53 21.67-13.17c1.84-1.15 3.66-2.31 5.49-3.47l5.62-3.54q5.37-3.43 10.66-6.9l3.42-2.27c2.37-1.56 4.74-3.13 7.08-4.7l4.06-2.76c2.09-1.42 4.19-2.84 6.26-4.27l4.28-3c2-1.37 3.93-2.74 5.87-4.11l4.35-3.11c1.88-1.34 3.76-2.68 5.62-4 1.47-1.06 2.93-2.14 4.39-3.21 1.81-1.32 3.62-2.65 5.41-4 1.47-1.09 2.92-2.19 4.37-3.28l5.25-4 4.35-3.35c1.7-1.32 3.41-2.63 5.09-3.95l4.3-3.39c1.67-1.32 3.33-2.65 5-4l4.23-3.42 4.88-4 4.15-3.44 4.77-4q2.06-1.73 4.08-3.47 2.35-2 4.68-4l4-3.49c1.54-1.35 3.06-2.71 4.58-4.07 1.31-1.16 2.61-2.33 3.9-3.49l4.54-4.14 3.78-3.48 4.48-4.21 3.65-3.44 1.05-1c.65-.62 1.28-1.25 1.92-1.87q3.48-3.35 6.88-6.71l3.08-3.06q3.51-3.51 6.95-7l2.32-2.36q4.5-4.66 8.89-9.35c.62-.67 1.22-1.34 1.84-2 2.31-2.5 4.61-5 6.87-7.5l2.75-3.08q3-3.4 6-6.81c.84-1 1.69-1.95 2.53-2.92q4-4.63 7.85-9.29a3.11 3.11 0 00.23-.28c2.65-3.19 5.24-6.4 7.8-9.61.78-1 1.54-1.95 2.31-2.92q2.73-3.47 5.4-6.94l1.37-1.77 1.21-1.62c1.32-1.74 2.62-3.49 3.92-5.23l2.67-3.62c1.34-1.84 2.66-3.69 4-5.53.79-1.12 1.59-2.23 2.38-3.34 1.49-2.13 2.95-4.25 4.41-6.38.58-.85 1.17-1.68 1.74-2.53q3-4.45 5.93-8.93c.38-.58.74-1.16 1.11-1.73 1.56-2.41 3.11-4.83 4.62-7.25.67-1.07 1.32-2.14 2-3.21 1.19-1.93 2.38-3.86 3.54-5.8l2.14-3.62c1.08-1.82 2.14-3.63 3.19-5.45l2.15-3.78q1.5-2.66 3-5.33c.35-.64.72-1.28 1.07-1.92s.74-1.38 1.11-2.07l2.45-4.6q1.1-2.07 2.16-4.15c.8-1.53 1.58-3.08 2.36-4.62q1.05-2.07 2.07-4.14 1.14-2.33 2.26-4.65c.66-1.38 1.33-2.77 2-4.15.73-1.55 1.44-3.11 2.15-4.66.64-1.39 1.27-2.77 1.89-4.16.7-1.56 1.38-3.13 2.06-4.69.6-1.38 1.2-2.76 1.79-4.14.67-1.58 1.32-3.16 2-4.74.57-1.38 1.14-2.75 1.69-4.13.64-1.59 1.26-3.18 1.88-4.77.54-1.37 1.07-2.73 1.59-4.1.61-1.62 1.21-3.23 1.8-4.85.39-1.05.79-2.1 1.17-3.15.11-.31.21-.61.32-.91.54-1.52 1.06-3 1.58-4.56s1-2.83 1.47-4.25 1-3 1.48-4.54.93-2.86 1.38-4.29.93-3 1.39-4.56.87-2.84 1.29-4.27.87-3.06 1.3-4.59.8-2.84 1.19-4.26.8-3.06 1.2-4.6.75-2.84 1.1-4.26.75-3.09 1.11-4.63.69-2.83 1-4.25.68-3.1 1-4.65.62-2.82.91-4.23c.33-1.57.62-3.13.93-4.7.24-1.23.5-2.45.73-3.68l.09-.52c.31-1.66.59-3.33.88-5 .39-1.42.67-2.74.85-4.05z" fill="#68015a"/><path d="M2598 2050.8l702.42-166.31c186.46 266.33 92.05 583.5-282.4 799.69-104.58 60.38-222.67 108.07-348.57 143.08L2343.1 2431.6c50.86-14.15 98.58-33.39 140.82-57.78 151.26-87.33 189.37-215.44 114.08-323.02z" fill="#99138c"/><path d="M2367 3481.37c2.83-.32 5.67-.65 8.5-1 4.69-.55 9.38-1.13 14.06-1.71 2.75-.35 5.5-.69 8.24-1.05q7.62-1 15.22-2c2.28-.31 4.57-.61 6.85-.93q11-1.53 21.91-3.18l1.79-.28q10-1.53 20-3.15c2.41-.39 4.82-.8 7.22-1.2 4.88-.81 9.75-1.62 14.61-2.47 2.75-.47 5.49-1 8.23-1.45 2.44-.43 4.88-.85 7.32-1.29 1.94-.35 3.88-.73 5.82-1.09q5.07-.93 10.13-1.89 6.2-1.18 12.37-2.39l10-2c4.14-.83 8.27-1.69 12.39-2.55 3.3-.69 6.59-1.37 9.88-2.08 4.17-.89 8.33-1.81 12.49-2.72l9.68-2.15c4.24-1 8.46-1.95 12.68-2.94 3.12-.73 6.23-1.44 9.33-2.18q6.61-1.59 13.19-3.23c2.9-.71 5.8-1.41 8.69-2.14q7.3-1.84 14.57-3.75c2.38-.62 4.78-1.23 7.15-1.86q10.83-2.86 21.6-5.85l-1-340.3q-10.76 3-21.59 5.86c-2.38.63-4.77 1.23-7.16 1.85-4.85 1.26-9.7 2.53-14.57 3.76-2.88.72-5.79 1.42-8.69 2.14-4.39 1.08-8.78 2.17-13.18 3.22-3.1.74-6.22 1.46-9.33 2.19-4.22 1-8.45 2-12.69 2.93-3.22.73-6.45 1.44-9.67 2.15q-6.24 1.38-12.49 2.73l-9.88 2.08q-6.2 1.29-12.4 2.55l-10 2q-6.18 1.22-12.37 2.39l-10.12 1.9q-6.57 1.2-13.15 2.38l-8.22 1.45c-4.86.84-9.74 1.66-14.61 2.47l-7.22 1.19q-10 1.62-20 3.15l-1.81.28q-10.93 1.65-21.91 3.18l-6.84.94-15.22 2-8.25 1q-7 .89-14 1.71l-8.53 1c-4.74.54-9.47 1.06-14.22 1.57l-8.1.87q-10.47 1.08-20.95 2.08l-1.29.11q-10 .95-20.14 1.77c-2.06.18-4.13.34-6.19.51q-8.38.68-16.77 1.29l-5.17.38q-10.65.75-21.32 1.4l-4.49.26q-8.67.51-17.34.95l-6.32.31q-9.24.45-18.5.81l-3.19.13-3.92.13q-12.72.46-25.46.77l-8.82.19q-10.93.22-21.87.34c-2.63 0-5.26.07-7.89.09q-14.46.11-28.93 0h-4.52q-12.35-.09-24.67-.33l-9.11-.2q-10.12-.24-20.25-.57l-8.51-.28q-14.08-.51-28.15-1.19h-.7q-13.71-.68-27.4-1.55l-8.62-.57q-10-.66-20.07-1.42l-9.11-.7q-11.18-.88-22.33-1.9l-5.83-.52q-13.92-1.29-27.8-2.77c-2.38-.25-4.75-.53-7.13-.79q-10.5-1.16-21-2.4l-9.12-1.12q-10.12-1.26-20.22-2.61l-7.82-1.05q-14.14-2-28.24-4.09c-1.67-.25-3.33-.53-5-.79q-11.73-1.82-23.4-3.76c-2.88-.48-5.75-1-8.62-1.46q-10.77-1.83-21.49-3.8c-2.35-.43-4.7-.84-7-1.28q-13.89-2.58-27.7-5.35-10-2-19.94-4.11l-4.66-1q-8.09-1.74-16.14-3.53l-6.14-1.39q-8.52-1.93-17-3.94l-3.5-.82q-10.08-2.41-20.1-4.93l-5.33-1.36q-7.65-1.93-15.28-4l-5.94-1.56q-9.32-2.49-18.58-5.06l-1.38-.38q-10.5-2.94-20.9-6c-2.11-.62-4.19-1.26-6.29-1.88q-7.25-2.15-14.46-4.34l-7.84-2.44q-6.4-2-12.79-4-4.17-1.34-8.32-2.7c-4.07-1.33-8.14-2.66-12.19-4l-8.42-2.84q-6-2.07-12.05-4.16l-8.25-2.9q-6.16-2.2-12.3-4.44c-2.58-.95-5.17-1.88-7.74-2.83q-6.74-2.51-13.42-5.06l-6.41-2.44c-1.87-.72-3.71-1.47-5.58-2.19q-9.11-3.57-18.13-7.21c-2.68-1.09-5.33-2.19-8-3.29q-7.85-3.22-15.61-6.53c-2.71-1.16-5.42-2.31-8.12-3.48q-8.22-3.55-16.36-7.22c-2.18-1-4.39-1.94-6.57-2.93q-11.28-5.13-22.42-10.41c-1.13-.53-2.24-1.09-3.36-1.63q-9.45-4.52-18.78-9.16c-2.43-1.21-4.84-2.44-7.26-3.66q-7.44-3.78-14.83-7.62c-2.56-1.33-5.12-2.68-7.67-4q-7.48-4-14.86-8c-2.24-1.22-4.48-2.43-6.7-3.66q-10.58-5.88-21-11.9l1 340.3q10.38 6 21 11.89c2.22 1.24 4.47 2.45 6.71 3.67q7.38 4 14.85 8c2.55 1.36 5.11 2.7 7.68 4q7.36 3.85 14.81 7.6c2.43 1.23 4.84 2.46 7.28 3.68q9.32 4.64 18.75 9.15l3.38 1.64q11.13 5.3 22.43 10.41c2.18 1 4.38 1.95 6.57 2.93q8.14 3.64 16.36 7.22l8.12 3.47q7.76 3.32 15.6 6.54c2.66 1.1 5.32 2.2 8 3.28q9 3.66 18.11 7.2c1.48.58 2.93 1.18 4.4 1.75l1.22.46c2.11.82 4.24 1.61 6.35 2.42 4.48 1.7 9 3.41 13.47 5.08 2.56.95 5.14 1.88 7.71 2.81q6.15 2.25 12.34 4.46 4.1 1.45 8.21 2.88 6 2.11 12.1 4.18l8.37 2.83q6.1 2 12.24 4 4.14 1.36 8.29 2.69c4.25 1.37 8.52 2.7 12.8 4 2.61.82 5.21 1.64 7.83 2.44 4.81 1.48 9.64 2.91 14.47 4.35 2.09.62 4.18 1.26 6.28 1.87q10.27 3 20.61 5.9l.29.08 1.4.39q9.25 2.57 18.57 5l5.92 1.57q7.65 2 15.33 4l5.28 1.34q10 2.52 20.12 4.93l3.49.82q8.49 2 17 3.95l6.16 1.38q8 1.8 16.1 3.53l4.69 1q9.3 2 18.65 3.87l1.28.24q13.82 2.77 27.7 5.36c2.35.44 4.7.85 7 1.28q10.71 1.95 21.47 3.8l8.64 1.46q11.65 2 23.36 3.76l5 .79q14.07 2.14 28.23 4.09l2.25.32c1.85.26 3.72.47 5.57.72q10.1 1.36 20.22 2.62c3 .38 6.07.75 9.11 1.11q10.47 1.26 21 2.4l7.14.8q13.88 1.47 27.8 2.77c1.94.18 3.88.34 5.83.51q11.14 1 22.32 1.91c1.3.1 2.6.23 3.9.33l5.21.37q10 .75 20.08 1.42c2.87.19 5.74.39 8.62.57q13.68.85 27.39 1.55h.71c9.37.47 18.75.85 28.14 1.19 2.84.11 5.67.19 8.51.28q10.13.33 20.27.57c1.71 0 3.42.11 5.14.15h3.94q12.36.24 24.73.34l4.47.05q14.46.09 28.94 0l7.9-.08q10.92-.12 21.84-.34l8.84-.19q12.73-.31 25.45-.77l3-.09h.89l3.18-.13q9.26-.37 18.5-.81l6.33-.32q8.66-.43 17.3-.94l4.54-.26q10.66-.65 21.31-1.4l5.18-.39q8.37-.6 16.73-1.28l6.24-.51q10.07-.84 20.11-1.77l1.29-.12q8.81-.82 17.6-1.72c1.12-.11 2.23-.24 3.35-.36l8.1-.86q7.2-.69 14.3-1.51z" fill="#29004d"/><path d="M1758.29 2629.07c157.92 91.78 394 111 585.43 57.78L2670 3082.52c-473.83 131.81-1058.34 84.12-1449.31-143.09z" fill="#5f1ca5"/><path d="M1939.54 0C1526.78-1 1113 89.7 797 272.13q-38.55 22.25-73.94 45.62v744.61q35.42-23.36 73.94-45.62c316-182.42 729.77-273.11 1142.53-272.12z" fill="#9fe7ed" opacity=".28"/><path d="M950 460.62c-4.47 2.19-7.52 5.94-7.75 9.54 0 20.94 0 20.94.59 21.94 1.51 2.41 7.11 1.7 11.51-2.56 3.21-3.11 3.38-5.68 3.44-6.52 0-20.56 0-20.56-.16-21-1-2.88-4.55-2.78-7.63-1.39m28.4-12.48c-4.58 2.14-7.66 5.83-7.87 9.42 0 21.05 0 21.05.58 21.95 1.93 2.84 8.26 1.3 12.31-3 2.68-2.82 2.83-5.11 2.88-5.86 0-20.56 0-20.56-.17-21-1-2.9-4.62-2.85-7.73-1.52m28.76-11.99c-4.63 2.06-7.77 5.72-8 9.32 0 21 0 21 .62 21.94 2 2.86 8.36 1.44 12.46-2.76 2.72-2.8 2.86-5.08 2.91-5.83 0-20.52 0-20.52-.15-21-1-2.93-4.68-2.94-7.83-1.66M868.81 616.2c-7.12 4-12 10.53-12.33 16.56V634c.37 5.58 5.22 7 12.34 3.52 47.09-22.71 110.43-51.9 158.68-72 .83-.35 1.92-.86 2.72-1.27.1 0 10.2-5.27 10.8-14-.41 6-5.59 11.89-13.52 15.29-36.3 15.48-84.88 35.79-120.52 52.73-.75.36-1.77.76-2.55 1.05-.09 0-9.52 3.4-10.08-4.87v-1.25c.38-6 5.06-12.11 12.22-16.08l-37.76 19.08" fill="#9fe7ed"/><path d="M907 596.92c-8.86 4.79-12.33 11.55-12.63 16.28v1.16c.38 5.68 5.22 7.14 12.63 3.82 36-16.16 83.9-38 120.52-52.73.84-.34 1.92-.86 2.72-1.27.1 0 10.2-5.27 10.8-14V549c-.42-5.69-5.73-7.58-13.53-4.82-36.3 15.48-85 35.6-120.52 52.74m-33.76-16.12c7-3.29 12-1.79 12.33 3.72v1.19c-.39 6-5.16 12.36-12.47 16.44l-4.28 2.24c-7.13 3.44-12 2.05-12.3-3.54.34 5.59 5.17 7 12.3 3.54 47.09-22.71 110.43-51.91 158.68-72 .83-.35 1.91-.86 2.72-1.27.1-.05 10.24-5.29 10.8-14v-1.17c-.29-4.33-4-8.19-13.49-4.83-46.73 19.88-108.69 47.31-154.29 69.68m-4.38-30.8c-7.14 4-12 10.55-12.33 16.58v1.19c.37 5.57 5.2 6.94 12.31 3.51 47.09-22.71 110.44-51.9 158.7-72 .83-.35 1.91-.86 2.71-1.27.11-.05 10.22-5.28 10.77-14v-1.21c-.29-4.33-4-8.19-13.5-4.84-48.08 20.52-112.44 47.61-158.66 72M1098.24 251c17.1 46.59 17.1 46.59 31.56 86.17l26.57-26.34c64.69 28.5 131.58 58 250.88 119.28 56.34-10 113.55-18 171.28-23.94 47.72 36.05 76.52 57.81 136.73 105.6l52.22-27.66c-66.28-53.59-85.47-68.85-156.73-123.42-59.37 5.3-118.27 12.76-176.31 22.37-51.68-26.81-129.78-67.33-234.5-114.25l32.5-30.36c-40.3 3.27-94 7.87-134.2 12.55M1530 526.52q-57.86 7.14-114.79 17l-.37 132.07q56.86-9.9 114.79-17l.37-132.08m204.76 11.33q-58.83 2.26-117.28 7.3l-.3 104.3q58.41-5 117.28-7.3l.3-104.3m-374.53-66.71q-56.28 11.26-111.14 25.3l-.61 214.84q54.81-14 111.14-25.3l.61-214.84M1196.17 436q-54 15.4-106.09 33.57l-.82 289.63q52-18.16 106.09-33.57l.82-289.63m-156.98 265.21q-51 19.54-99.66 41.85l-.21 76.39q48.58-22.31 99.65-41.84l.22-76.4" fill="#9fe7ed"/><path d="M1772.18 641q-18.87.43-37.72 1.16-58.83 2.26-117.28 7.3-44 3.79-87.51 9.16-57.87 7.13-114.79 17-27.78 4.85-55.26 10.34-56.28 11.26-111.14 25.3-26.76 6.86-53.13 14.37-54 15.4-106.09 33.57-25.4 8.87-50.29 18.4-51 19.53-99.65 41.84Q907.58 834 877 849.78v5.25c255.78-131.71 573.56-201.31 895.21-208.8V641m-67.72-475.45q-30.73 1.56-61.35 3.9c7.4-.32 10.41 4.43 7 8-1.56 1.61-3.91 2.59-7 2.93q-41.27 3.13-82.22 7.66 71.31-7.87 143.56-11.56c7.42-.62 10.5-5.74 7.08-8.87-.58-.52-2.77-2.22-7-2.07" fill="#9fe7ed"/><path d="M1643.14 169.45q-71.87 5.48-142.75 15.13c-7.69 1.31-10.5 7.15-6.46 9.84 1.53 1 3.69 1.38 6.43 1.1q30.15-4.11 60.53-7.47 40.93-4.52 82.22-7.66c7.36-.8 10.41-6 7-9a9.83 9.83 0 00-7-1.9m-82.25 28.7q-30.37 3.34-60.53 7.47c-7.69 1.3-10.5 7.15-6.46 9.83 1.53 1 3.69 1.39 6.43 1.11q70.79-9.66 142.75-15.14-41.27 3.15-82.22 7.67c-7.3.56-10.3-4.06-6.91-7.75a11.32 11.32 0 016.94-3.19" fill="#9fe7ed"/><path d="M1704.43 186.62q-72.17 3.69-143.57 11.57c-7.34 1.06-10.36 6.36-7 9.3.87.75 2.91 1.95 6.93 1.64q40.93-4.53 82.22-7.67 30.6-2.33 61.34-3.9c7.42-.62 10.5-5.73 7.08-8.87a10.23 10.23 0 00-7-2.07m-3.82 23.38q-66 3.48-131.34 10.45c-11.18 1.57-15.24 9.89-9.35 13.92 3.36 2.3 7.84 2 9.31 1.86q65.28-7 131.34-10.45c11-.93 15.21-8.24 10.18-12.8-1.32-1.2-4.39-3.18-10.14-3M1537.69 224q-16.92 2-33.75 4.3c-11.13 1.88-15.17 10.3-9.3 14.18 3.34 2.2 7.79 1.75 9.25 1.6q16.84-2.26 33.75-4.3c11.35-1.74 15.32-10 9.35-14-1.6-1.09-4.51-2.28-9.3-1.78m161.7 9.37q-83.28 4.41-165.5 14.42c-11.54 1.8-16.3 10.24-10.94 14.83 2.41 2.07 6.07 2.9 10.89 2.47q82.08-10 165.5-14.42c12-1 16.48-8.91 11.15-14-.86-.83-4.2-3.51-11.1-3.25M1501.23 252c-5.42.92-9.1 3.84-9.39 7.44v5c.49 6.51 12.4 6.27 17.09 1.1a5.42 5.42 0 001.61-3.64v-5c-.34-4.48-5.76-5.38-9.32-4.9" fill="#9fe7ed"/><path d="M2007 283c296.84-29.36 594.44 7.14 821.67 116.4q27.72 13.33 53.18 27.68v535.5q-25.47-14.33-53.18-27.67C2601.48 825.68 2303.88 789.17 2007 818.54z" fill="#9fe7ed" opacity=".28"/><path d="M2714.67 105.79c184.52 28.9 388.81 104 559.77 222.33q21.79 15.09 42.08 30.58v368.44q-20.28-17.21-42.08-34.16c-171-132.88-375.27-225.41-559.79-270zm982.68 210.62l-2.35 830.34c321.68 185.73 482.36 429.54 481.67 673l2.33-830.37c.71-243.44-160-487.25-481.65-672.97zm464.48 1139.42l-.43 151.11zm-6.39-552.44v13.24zm-10.82-54.64v13.23zm-6.55 219.25a223.92 223.92 0 01-3 33.77 253.5 253.5 0 003-33.77zm-34.9-236.4c7.15 21.65 11.68 40.13 14.25 50.64-17.21-.08-25.22-.12-44.33.32 16.19-.39 23.83-.45 44.33-.32-3.81-15.51-8.42-32.74-14.25-50.6zm-62.63-11.73c-3.73-34-6.77-61.46-9.21-83.29 2.73 24.25 5.67 51.06 9.21 83.33zm-.05-.17c-15.92-51.71-23.7-77-37.19-116.76 11.29 33.26 19.92 60.37 37.19 116.8zm-17.7-158.09c-8.72-7.55-16.18-12.5-22.45-15.69 10.21 5.14 18.74 12.52 22.45 15.73zm2.73 140.54c-8.28-24.59-16.81-48.58-29.9-84.21 12.31 33.48 20.47 56.16 29.9 84.25zm-141.65-272.5v-5.71 5.71zm-30.38-58.93q3.9 3 7.76 6-3.86-3-7.76-6zm-42.88 680.5v-11.43zM3853.14 596q14.16 11 27.72 22.1-13.56-11.1-27.72-22.1zm48.39 52.79Q3887 636.27 3871.72 624q15.29 12.3 29.81 24.83v-13.26zm.06-21.32v-13.24zm11.26-73v-13.24q-14.11-12.51-29-24.8 14.87 12.3 29 24.8zm.06-21.3V519.9zm26.9 166.22l1.9-2.54-23.1-35.53 23.1 35.53zm12.85-81.89c5.33 12.09 10.62 24.21 15 34.64-4.51-10.4-9.74-22.54-15-34.66zm2.91-.49c5.29 12.09 10.55 24.2 14.92 34.64-4.49-10.4-9.69-22.54-14.92-34.65zm69.26 721l.43-151.12zm-47.64-411.78c12.88 30.47 33.81 73.25 56.36 111.88a882 882 0 01-56.36-111.94zm35.8-41.12c12.33-.71 25.24-1.36 38.77-1.86-4.24-13.31-8-25-11.4-35.7 3.43 10.68 7.19 22.44 11.4 35.7-11.76.45-24.24 1-38.76 1.8zm38.68-59.12c1.62 16.51 3.41 34.93 5.53 57.07-2.07-21.48-3.79-39.4-5.53-57.13zm31.3-45a305.94 305.94 0 00-19.62-34.99 290.53 290.53 0 0119.65 34.9zm42.56 140.41c-13.6-.2-32.27-.47-60 .3 19.47-.7 39.64-.87 60-.39zM4102 1126.81c-.74-.5-1.53-1.06-2.38-1.71 6.84 4.92 13.08 7.24 18.41 6.23-4.46 1.03-9.76-.33-16.03-4.52zm73.71 586.19c-4.49-69.09-22-138-52.47-205.31 30.49 67.33 48 136.2 52.47 205.29z" fill="#9fe7ed" opacity=".28"/><ellipse cx="2122.16" cy="2026.23" rx="1890.38" ry="1091.41" fill="#fff" opacity=".36" style="mix-blend-mode:overlay"/><path d="M3463.2 1246.1l19.55 10.84c6.36 3.57 14.27 7.8 23.38 13.25l14.74 8.65c5.24 3.09 10.86 6.31 16.63 10l18.34 11.34c3.2 2 6.52 4 9.82 6.13l10.13 6.61c6.88 4.53 14.09 9.16 21.48 14.12l22.75 15.69 5.93 4.09 5.91 4.31 12.11 8.8c4.09 3 8.27 6 12.44 9.1l12.57 9.64 12.9 9.9c4.34 3.37 8.6 6.93 13 10.45l13.25 10.76c2.25 1.79 4.44 3.68 6.64 5.58l6.65 5.72a1173.13 1173.13 0 01109.15 106.06l13.43 15.44 6.77 7.81c2.26 2.62 4.39 5.36 6.6 8.05l13.24 16.33c4.34 5.56 8.57 11.25 12.9 16.92l6.49 8.56 6.25 8.8 6.27 8.87 3.15 4.45c1 1.48 2.12 3 3.1 4.49l12.1 18.38 3 4.63c1 1.55 1.94 3.15 2.91 4.73l5.8 9.51 5.81 9.56c1 1.59 1.91 3.22 2.82 4.86l2.75 4.91 5.51 9.86 2.77 4.94c.92 1.65 1.86 3.29 2.7 5q5.19 10.13 10.42 20.31c1.8 3.37 3.36 6.86 5 10.33l4.88 10.44a743.28 743.28 0 0133.64 87.23 680.46 680.46 0 0130.44 188.94A714.24 714.24 0 014034 2117l-1.46 12q-1 6-1.93 11.9c-1.31 7.93-2.48 15.89-4.19 23.72q-1.2 5.9-2.39 11.78c-.79 3.93-1.55 7.86-2.56 11.73q-2.85 11.66-5.7 23.26c-16.66 61.51-40.95 120-71.42 172.22l-5.69 9.78c-1 1.62-1.88 3.26-2.86 4.86l-3 4.76c-4 6.35-8 12.63-12 18.88-1 1.58-2.05 3.08-3.09 4.61s-2.09 3.05-3.13 4.57l-6.26 9.08-6.27 9c-2.17 2.93-4.35 5.84-6.51 8.75-4.33 5.8-8.61 11.61-13 17.26s-9 11.1-13.39 16.61c-2.23 2.74-4.4 5.52-6.7 8.17l-6.87 7.93c-4.58 5.26-9.08 10.51-13.64 15.66-18.57 20.25-37.07 39.49-55.89 57.07l-13.95 13.09-14.1 12.42-6.94 6.11c-2.32 2-4.56 4.09-6.93 6l-13.89 11.5c-2.29 1.89-4.58 3.77-6.84 5.65s-4.53 3.73-6.84 5.49l-13.56 10.57c-4.51 3.45-8.9 7-13.36 10.25l-13.28 9.66-13 9.37c-4.31 3-8.62 5.9-12.83 8.79l-12.47 8.51-6.12 4.12-6.12 3.91-23.5 14.95c-7.65 4.67-15.1 9-22.21 13.3l-10.49 6.18c-3.42 2-6.86 3.85-10.16 5.71-6.63 3.71-13 7.19-19 10.48s-11.77 6.31-17.22 9.09l-15.28 7.81c-9.46 4.89-17.72 8.65-24.36 11.79s-11.75 5.47-15.2 7l-5.23 2.38-3-5.19 4.59-3.44c3-2.27 7.53-5.61 13.42-9.91l9.86-7.19c3.66-2.58 7.54-5.56 11.75-8.75l13.61-10.18c4.83-3.64 10-7.38 15.36-11.59s11-8.54 16.93-13.07c3-2.29 6-4.56 9.08-7l9.34-7.49c6.36-5.09 13-10.3 19.84-15.84l21-17.36 5.46-4.51 5.44-4.72 11.16-9.58c3.76-3.25 7.62-6.49 11.45-9.87l11.53-10.39 11.86-10.61c4-3.59 7.89-7.37 11.91-11.11l12.16-11.36c2.07-1.89 4.07-3.87 6.09-5.87l6.09-6a1315.41 1315.41 0 0099.54-108.2q6-7.64 12.15-15.37l6.14-7.75c1-1.28 2-2.64 3-4l3-4 12-16 11.68-16.53 5.9-8.32 5.64-8.54c3.75-5.73 7.67-11.38 11.4-17.18s7.28-11.76 11-17.64l2.79-4.42c.91-1.49 1.76-3 2.64-4.52q2.64-4.51 5.28-9.07t5.36-9.08c.92-1.5 1.76-3 2.59-4.6l2.53-4.64 5.07-9.32 2.58-4.66c.86-1.55 1.73-3.1 2.5-4.7 3.21-6.34 6.39-12.72 9.67-19.09 1.69-3.16 3.14-6.43 4.66-9.68s3-6.51 4.55-9.77a744.07 744.07 0 0032-81.14c17.91-55.89 28.58-115.24 29.63-175.11a624.45 624.45 0 00-5.25-89.53 670.4 670.4 0 00-17.56-87.58 730.75 730.75 0 00-28.86-83.49q-2.11-5.05-4.25-10.09c-1.42-3.35-2.77-6.73-4.37-10l-9.18-19.71c-.74-1.65-1.57-3.25-2.39-4.86l-2.47-4.81q-2.45-4.81-4.9-9.61l-2.45-4.79c-.81-1.61-1.62-3.2-2.52-4.75l-5.21-9.37q-2.58-4.68-5.17-9.34c-.87-1.55-1.7-3.11-2.6-4.64s-1.82-3-2.74-4.56l-10.88-18.13c-.88-1.52-1.87-3-2.81-4.45s-1.91-2.94-2.86-4.41l-5.68-8.78q-2.85-4.38-5.67-8.74l-5.92-8.5c-4-5.65-7.82-11.32-11.79-16.87l-12.16-16.33c-2-2.69-4-5.44-6.06-8.07l-6.24-7.87-12.41-15.52a1150.15 1150.15 0 00-102.06-108.35l-6.29-5.91c-2.08-2-4.15-3.92-6.28-5.78q-6.35-5.64-12.54-11.18c-4.14-3.67-8.17-7.38-12.28-10.9l-12.23-10.37-11.92-10.08c-4-3.27-8-6.42-11.84-9.57l-11.52-9.27-5.64-4.54-5.66-4.33-21.74-16.66c-7.06-5.26-14-10.19-20.57-15l-9.7-7.07c-3.17-2.31-6.35-4.44-9.41-6.59l-17.6-12.22c-5.54-3.92-10.92-7.39-15.95-10.73l-14.15-9.34c-8.72-5.88-16.44-10.55-22.58-14.47l-18.9-11.93z" fill="#fff" opacity=".83"/><path d="M3463.2 510l19.55 10.84c6.36 3.56 14.27 7.79 23.38 13.25l14.74 8.65c5.24 3.09 10.86 6.3 16.63 10l18.34 11.26c3.2 2 6.52 4 9.82 6.12l10.13 6.61c6.88 4.53 14.09 9.17 21.48 14.12l22.75 15.7 5.93 4.09 5.91 4.3 12.11 8.81c4.09 3 8.27 6 12.44 9.09l12.57 9.64 12.9 9.91c4.34 3.36 8.6 6.92 13 10.44l13.25 10.76c2.25 1.8 4.44 3.69 6.64 5.59l6.65 5.72a1173 1173 0 01109.15 106l13.43 15.54 6.77 7.81c2.26 2.62 4.39 5.36 6.6 8l13.24 16.32c4.34 5.56 8.57 11.25 12.9 16.93l6.49 8.55 6.25 8.81 6.27 8.86 3.15 4.45c1 1.49 2.12 3 3.1 4.5l12.1 18.38 3 4.62c1 1.56 1.94 3.16 2.91 4.73q2.89 4.75 5.8 9.51c1.93 3.19 3.87 6.37 5.81 9.57 1 1.59 1.91 3.22 2.82 4.86l2.75 4.91 5.51 9.85 2.77 4.94c.92 1.65 1.86 3.3 2.7 5l10.42 20.3c1.8 3.37 3.36 6.87 5 10.34l4.88 10.43a744.64 744.64 0 0133.64 87.23 680.52 680.52 0 0130.44 188.94 714.15 714.15 0 01-5.38 96.56l-1.46 12q-1 6-1.93 11.91c-1.31 7.93-2.48 15.88-4.19 23.71q-1.2 5.89-2.39 11.79c-.79 3.92-1.55 7.86-2.56 11.72q-2.85 11.65-5.7 23.26c-16.66 61.51-40.95 120-71.42 172.22l-5.69 9.78c-1 1.63-1.88 3.27-2.86 4.87s-2 3.17-3 4.76c-4 6.35-8 12.62-12 18.87-1 1.58-2.05 3.09-3.09 4.62l-3.13 4.56-6.26 9.09-6.27 9-6.51 8.74c-4.33 5.81-8.61 11.61-13 17.26l-13.39 16.61c-2.23 2.74-4.4 5.52-6.7 8.18l-6.87 7.93c-4.58 5.25-9.08 10.51-13.64 15.65-18.57 20.26-37.07 39.5-55.89 57.07l-13.95 13.1L3758 1870l-6.94 6.12c-2.32 2-4.56 4.08-6.93 6l-13.89 11.5-6.84 5.64c-2.27 1.87-4.53 3.74-6.84 5.5l-13.56 10.58c-4.51 3.45-8.9 7-13.36 10.25l-13.28 9.66-13 9.36c-4.31 3-8.62 5.9-12.83 8.8l-12.47 8.5-6.06 4.09-6.12 3.91-23.5 15c-7.65 4.68-15.1 9-22.21 13.3l-10.49 6.19c-3.42 2-6.86 3.84-10.16 5.71-6.63 3.7-13 7.18-19 10.48s-11.77 6.31-17.22 9.09l-15.28 7.81c-9.46 4.88-17.72 8.65-24.36 11.78s-11.75 5.48-15.2 7.05l-5.23 2.38-3-5.2 4.59-3.44c3-2.26 7.53-5.6 13.42-9.91l9.86-7.18c3.66-2.58 7.54-5.57 11.75-8.75l13.61-10.19c4.83-3.64 10-7.37 15.36-11.59s11-8.53 16.93-13.07c3-2.28 6-4.56 9.08-7l9.34-7.49c6.36-5.08 13-10.29 19.84-15.83l21-17.37 5.46-4.51 5.44-4.72 11.16-9.58c3.76-3.24 7.62-6.49 11.45-9.87l11.53-10.39 11.86-10.61c4-3.59 7.89-7.36 11.91-11.1l12.16-11.37c2.07-1.88 4.07-3.87 6.09-5.86l6.09-6a1315.61 1315.61 0 0099.54-108.21q6-7.64 12.15-15.37l6.14-7.75c1-1.28 2-2.63 3-4l3-4q6-8 12-16.05l11.68-16.53 5.9-8.32c1.87-2.84 3.76-5.68 5.64-8.54 3.75-5.72 7.67-11.37 11.4-17.18s7.28-11.76 11-17.64l2.79-4.42c.91-1.48 1.76-3 2.64-4.51l5.28-9.07q2.69-4.53 5.36-9.08c.92-1.5 1.76-3 2.59-4.6l2.53-4.65q2.54-4.65 5.07-9.32l2.58-4.66c.86-1.55 1.73-3.1 2.5-4.7 3.21-6.34 6.39-12.72 9.67-19.08 1.69-3.16 3.14-6.44 4.66-9.68l4.55-9.77a745 745 0 0032-81.15c17.91-55.88 28.58-115.24 29.63-175.11a624.31 624.31 0 00-5.25-89.52 670.88 670.88 0 00-17.56-87.59 731.42 731.42 0 00-28.86-83.49c-1.41-3.36-2.83-6.73-4.25-10.08s-2.77-6.74-4.37-10l-9.18-19.7c-.74-1.65-1.57-3.26-2.39-4.86l-2.47-4.82q-2.45-4.82-4.9-9.61l-2.45-4.79c-.81-1.6-1.62-3.19-2.52-4.75-1.74-3.12-3.47-6.25-5.21-9.36s-3.45-6.23-5.17-9.34c-.87-1.55-1.7-3.12-2.6-4.65s-1.82-3-2.74-4.55q-5.46-9.12-10.88-18.14c-.88-1.52-1.87-3-2.81-4.44l-2.86-4.41-5.68-8.78-5.67-8.74-5.92-8.51c-4-5.65-7.82-11.32-11.79-16.87L3833.66 841c-2-2.7-4-5.44-6.06-8.08l-6.24-7.86-12.36-15.58a1148.93 1148.93 0 00-102.06-108.35l-6.29-5.91c-2.08-2-4.15-3.92-6.28-5.78l-12.54-11.18c-4.14-3.67-8.17-7.39-12.28-10.91L3657.32 657l-11.92-10.11c-4-3.28-8-6.42-11.84-9.57L3622 628l-5.64-4.54-5.66-4.32-21.7-16.6c-7.06-5.26-14-10.2-20.57-15l-9.7-7.07c-3.17-2.31-6.35-4.44-9.41-6.59l-17.6-12.21c-5.54-3.93-10.92-7.4-15.95-10.73l-14.15-9.35c-8.72-5.88-16.44-10.54-22.58-14.47l-18.9-11.93z" fill="#9fe7ed" opacity=".83"/><g opacity=".28"><path d="M579.28 515.17l-18.91 11.93c-6.14 3.93-13.85 8.59-22.58 14.47l-14.15 9.35c-5 3.33-10.41 6.8-15.95 10.73l-17.59 12.21c-3.07 2.15-6.25 4.28-9.41 6.59l-9.7 7.07c-6.59 4.82-13.51 9.76-20.58 15l-21.74 16.62-5.67 4.34-5.62 4.52-11.53 9.28c-3.89 3.15-7.87 6.29-11.83 9.57L382.09 657q-6 5.13-12.23 10.37c-4.1 3.52-8.13 7.24-12.28 10.91l-12.53 11.18c-2.14 1.86-4.21 3.81-6.29 5.78l-6.28 5.91a1147.63 1147.63 0 00-102.06 108.33l-12.37 15.58-6.23 7.86c-2.08 2.64-4 5.38-6.06 8.08l-12.17 16.32c-4 5.55-7.83 11.22-11.78 16.87l-5.92 8.51q-2.83 4.35-5.67 8.74l-5.69 8.78-2.85 4.4c-1 1.48-1.93 2.93-2.81 4.45L148 927.21l-2.74 4.55c-.89 1.53-1.73 3.1-2.59 4.65l-5.18 9.34-5.21 9.36c-.89 1.56-1.71 3.15-2.52 4.75l-2.44 4.79-4.91 9.61-2.46 4.82c-.82 1.6-1.66 3.21-2.4 4.86l-9.18 19.7c-1.59 3.27-2.94 6.65-4.37 10l-4.25 10.08a733.37 733.37 0 00-28.86 83.49 670.88 670.88 0 00-17.56 87.59 624.31 624.31 0 00-5.25 89.52c1.06 59.87 11.72 119.23 29.64 175.11a745 745 0 0032 81.15q2.28 4.89 4.55 9.77c1.53 3.24 3 6.52 4.66 9.68 3.28 6.36 6.46 12.74 9.67 19.08.78 1.6 1.65 3.15 2.51 4.7l2.57 4.66 5.08 9.32 2.52 4.65c.83 1.55 1.68 3.1 2.59 4.6l5.36 9.08 5.28 9.07c.89 1.5 1.74 3 2.65 4.51l2.79 4.42c3.72 5.88 7.36 11.78 11 17.64s7.65 11.46 11.4 17.18l5.65 8.54 5.89 8.32 11.68 16.53 12 16.05q1.48 2 3 4c1 1.33 1.94 2.68 3 4l6.13 7.75 12.15 15.37a1317.38 1317.38 0 0099.54 108.21q3.06 3 6.1 6c2 2 4 4 6.09 5.86q6.13 5.76 12.16 11.37c4 3.74 7.92 7.51 11.91 11.1l11.85 10.61L401 1913c3.83 3.38 7.69 6.63 11.46 9.87s7.49 6.44 11.16 9.58l5.43 4.72 5.47 4.51 21 17.37c6.8 5.54 13.47 10.75 19.84 15.83l9.34 7.5c3 2.44 6.12 4.72 9.07 7q8.91 6.81 16.94 13.07c5.32 4.22 10.53 7.95 15.35 11.59l13.61 10.19c4.21 3.18 8.1 6.17 11.75 8.75l9.86 7.18c5.89 4.31 10.4 7.65 13.43 9.91l4.59 3.44-3 5.2-5.3-2.41c-3.45-1.57-8.56-3.93-15.21-7.05s-14.9-6.9-24.35-11.78l-15.29-7.81c-5.44-2.78-11.23-5.74-17.22-9.09s-12.37-6.78-19-10.48c-3.31-1.87-6.74-3.7-10.17-5.71l-10.48-6.19c-7.11-4.26-14.57-8.62-22.22-13.3l-23.49-15-6.13-3.91-6.11-4.12-12.48-8.5c-4.21-2.9-8.52-5.78-12.82-8.8l-13-9.36-13.28-9.66c-4.45-3.3-8.84-6.8-13.35-10.25l-13.62-10.58c-2.32-1.76-4.57-3.63-6.84-5.5l-6.84-5.64-13.9-11.5c-2.36-1.91-4.61-4-6.92-6l-6.95-6.12-14.06-12.43-14-13.1c-18.81-17.57-37.32-36.81-55.89-57.07-4.55-5.14-9.06-10.4-13.63-15.65l-6.88-7.93c-2.29-2.66-4.46-5.44-6.69-8.18l-13.3-16.59c-4.39-5.65-8.67-11.45-13-17.26l-6.51-8.74-6.27-9-6.25-9.09-3.14-4.56c-1-1.53-2.11-3-3.08-4.62-4-6.25-8-12.52-12-18.87-1-1.59-2-3.17-3-4.76s-1.91-3.24-2.86-4.87l-5.7-9.78c-30.47-52.25-54.76-110.71-71.41-172.22Q20.83 1463.66 18 1452c-1-3.86-1.76-7.8-2.56-11.72s-1.59-7.86-2.38-11.79c-1.72-7.83-2.88-15.78-4.2-23.71l-1.92-11.91-1.47-12a715.78 715.78 0 01-5.38-96.56 680.53 680.53 0 0130.45-188.94 742.88 742.88 0 0133.64-87.23q2.44-5.22 4.88-10.43c1.63-3.47 3.19-7 5-10.34l10.42-20.3c.84-1.7 1.78-3.35 2.71-5l2.76-4.94 5.52-9.85 2.75-4.91c.91-1.64 1.82-3.27 2.82-4.86l5.81-9.57c1.93-3.17 3.87-6.34 5.79-9.51 1-1.57 1.91-3.17 2.91-4.73s2-3.08 3-4.62l12.1-18.38c1-1.54 2.06-3 3.11-4.5l3.15-4.45q3.14-4.44 6.27-8.86l6.25-8.81 6.48-8.55c4.33-5.68 8.57-11.37 12.9-16.93s8.86-10.91 13.24-16.32c2.21-2.69 4.35-5.43 6.6-8l6.78-7.81L208.85 791A1174.2 1174.2 0 01318 684.94l6.66-5.72c2.2-1.9 4.39-3.79 6.64-5.59l13.25-10.76c4.38-3.52 8.65-7.08 13-10.44l12.9-9.91 12.55-9.64c4.17-3.12 8.36-6.1 12.45-9.09l12.1-8.81 5.92-4.3 5.93-4.09 22.74-15.7c7.39-4.95 14.6-9.59 21.48-14.12l10.13-6.61c3.31-2.15 6.63-4.12 9.83-6.12l18.34-11.34c5.76-3.65 11.38-6.86 16.62-10l14.74-8.65c9.11-5.46 17-9.69 23.39-13.25l19.55-10.8z" fill="#9fe7ed" opacity=".83"/></g><g opacity=".28"><path d="M787 1251.27l-18.91 11.93c-6.14 3.92-13.85 8.59-22.58 14.47l-14.15 9.33c-5 3.34-10.41 6.81-16 10.73L697.82 1310c-3.07 2.15-6.25 4.28-9.41 6.59s-6.4 4.66-9.7 7.07c-6.59 4.82-13.51 9.75-20.58 15l-21.74 16.62c-1.87 1.43-3.75 2.88-5.66 4.33l-5.63 4.54-11.53 9.27c-3.89 3.15-7.87 6.3-11.83 9.57l-11.93 10.12-12.23 10.37c-4.11 3.52-8.13 7.23-12.28 10.9l-12.53 11.18c-2.14 1.86-4.21 3.82-6.29 5.78l-6.28 5.91a1148.86 1148.86 0 00-102.06 108.35l-12.37 15.58-6.23 7.87c-2.08 2.63-4 5.38-6.06 8.07l-12.17 16.33c-4 5.55-7.83 11.22-11.78 16.87l-5.92 8.5-5.67 8.74-5.69 8.78-2.85 4.41c-.95 1.47-1.93 2.93-2.81 4.45l-10.89 18.1q-1.36 2.28-2.74 4.56c-.89 1.53-1.73 3.09-2.6 4.64l-5.17 9.34-5.21 9.37c-.89 1.55-1.71 3.14-2.52 4.75l-2.44 4.79-4.91 9.61-2.46 4.81c-.82 1.61-1.66 3.21-2.4 4.86l-9.18 19.71c-1.59 3.27-2.94 6.65-4.37 10s-2.83 6.72-4.25 10.09a730.75 730.75 0 00-28.86 83.49A670.4 670.4 0 00261 1930.9a624.45 624.45 0 00-5.25 89.53c1.06 59.87 11.72 119.22 29.64 175.11a744 744 0 0032 81.14l4.55 9.77c1.53 3.25 3 6.52 4.66 9.68 3.28 6.37 6.46 12.75 9.67 19.09.78 1.6 1.65 3.15 2.51 4.7l2.57 4.66 5.08 9.32 2.52 4.64c.83 1.56 1.68 3.1 2.59 4.6l5.36 9.08q2.64 4.55 5.28 9.07c.89 1.51 1.74 3 2.65 4.52l2.79 4.42c3.72 5.88 7.36 11.77 11 17.64s7.65 11.45 11.4 17.18l5.65 8.54 5.89 8.32 11.68 16.53 12 16 3 4c1 1.32 1.94 2.68 3 4l6.13 7.75 12.15 15.37A1317.18 1317.18 0 00549 2593.75l6.09 6c2 2 4 4 6.1 5.87l12.19 11.38c4 3.74 7.92 7.52 11.91 11.11l11.85 10.61 11.53 10.39c3.83 3.38 7.69 6.62 11.45 9.87l11.17 9.58 5.43 4.72 5.47 4.51 21 17.36c6.8 5.54 13.47 10.75 19.84 15.84l9.34 7.49c3 2.45 6.12 4.72 9.07 7 5.94 4.53 11.58 8.91 16.94 13.07s10.53 7.95 15.35 11.59l13.61 10.18c4.21 3.19 8.1 6.17 11.75 8.75l9.86 7.19c5.89 4.3 10.4 7.64 13.43 9.91l4.59 3.44-3 5.19-5.23-2.38c-3.45-1.57-8.56-3.92-15.21-7s-14.9-6.9-24.35-11.79l-15.29-7.81c-5.44-2.78-11.23-5.73-17.22-9.09s-12.37-6.77-19-10.48c-3.31-1.86-6.74-3.7-10.17-5.71l-10.5-6.25c-7.11-4.27-14.57-8.63-22.22-13.3L621.31 2706l-6.13-3.91-6.12-4.12-12.47-8.51c-4.21-2.89-8.52-5.77-12.82-8.79s-8.58-6.21-13-9.37l-13.28-9.66c-4.45-3.3-8.84-6.8-13.35-10.25l-13.63-10.58c-2.31-1.76-4.56-3.62-6.83-5.49l-6.85-5.65-13.83-11.46c-2.36-1.9-4.61-4-6.92-6l-6.95-6.11-14.06-12.44-14-13.09c-18.82-17.58-37.32-36.82-55.89-57.07-4.55-5.15-9.06-10.4-13.64-15.66l-6.87-7.93c-2.29-2.65-4.46-5.43-6.69-8.17l-13.4-16.61c-4.39-5.65-8.67-11.46-13-17.26l-6.51-8.75-6.27-9-6.26-9.08-3.13-4.57c-1-1.53-2.11-3-3.08-4.61-4-6.25-8-12.53-12-18.88l-3-4.76c-1-1.6-1.9-3.24-2.85-4.86-1.9-3.25-3.79-6.52-5.7-9.78-30.47-52.26-54.76-110.71-71.42-172.22q-2.83-11.61-5.7-23.26c-1-3.87-1.76-7.8-2.56-11.73s-1.59-7.85-2.38-11.78c-1.72-7.83-2.88-15.79-4.2-23.72l-1.92-11.9-1.47-12a715.87 715.87 0 01-5.38-96.56 680.47 680.47 0 0130.45-188.94 739.77 739.77 0 0133.64-87.23q2.44-5.23 4.88-10.44c1.63-3.47 3.19-7 5-10.33l10.42-20.31c.84-1.7 1.78-3.34 2.7-5l2.77-4.94q2.76-4.95 5.52-9.86l2.75-4.91c.91-1.64 1.82-3.27 2.81-4.86 2-3.19 3.88-6.38 5.82-9.56l5.79-9.51c1-1.58 1.91-3.18 2.91-4.73s2-3.09 3-4.63l12.1-18.38c1-1.54 2.06-3 3.11-4.49l3.15-4.45q3.14-4.45 6.27-8.87l6.25-8.8 6.48-8.56c4.33-5.67 8.57-11.36 12.9-16.92l13.24-16.33c2.21-2.69 4.35-5.43 6.6-8.05l6.78-7.81 13.42-15.44A1174.37 1174.37 0 01525.72 1421l6.66-5.72c2.2-1.9 4.39-3.79 6.64-5.58l13.25-10.7c4.38-3.52 8.65-7.08 13-10.45l12.9-9.9 12.56-9.64c4.17-3.12 8.36-6.11 12.45-9.1l12.1-8.8 5.92-4.31 5.93-4.09 22.73-15.71c7.39-5 14.6-9.59 21.48-14.12l10.13-6.61c3.31-2.15 6.63-4.13 9.83-6.13l18.33-11.34c5.77-3.64 11.39-6.86 16.63-10l14.74-8.65c9.11-5.45 17-9.68 23.39-13.25l19.55-10.84z" fill="#9fe7ed" opacity=".83"/></g><path d="M3419.59 2653.11C3229 2763.9 3017.72 2855.58 2793 2928.17l-1.61 566.66c211.68-68.36 411.36-153.66 593.13-255.9q16.84-9.48 33.5-19.15c493.85-287 766-653.62 816.84-1028.75l.09-32.26.07-27 1.44-507.44c-50.88 375.17-323.02 741.79-816.87 1028.78zm561.27-410.5c26.06 7.93 44.84 13.75 60.33 18.66-16.58-5.24-35.12-10.93-60.33-18.66-5.82 20.4-12.76 44.13-19.76 67.86 6.9-23.75 13.83-47.47 19.76-67.86zm-40.16 136.76c-19.29 17.29-42.78 36.56-66.38 55.45 23.3-19.24 46.48-38.88 66.38-55.45zm-129.28 105.35c-8.55 18.78-18.77 40.57-29.06 62.33 10.19-21.81 20.31-43.65 29.06-62.33zm-58.48 124.41c-25 30.41-55.1 65.24-85.48 99.7 30.16-34.64 60.03-69.66 85.48-99.7zm-170.39 194.64c-42.5 72.09-77 127.92-110 179.24 37.94-59.36 69.62-112.01 110-179.24zM3448.3 3092.1c34.41-25.49 68.74-51.44 98.17-73.38-28.82 22.74-63.47 48.28-98.17 73.38zm38.34-63.65c28.38-30.48 64-70 121.49-133.82-52.13 60.37-76.26 87.81-121.49 133.82zm146.88-103.7c31.1-34.47 61.93-69.35 88.19-99.24-25.82 30.28-56.87 64.95-88.19 99.24zm41.54-130.49c23.43-35.79 46.64-71.77 66.35-102.68-19.53 31.03-42.83 66.95-66.35 102.68zm77.1-30.8c10.47-21.65 20.88-43.31 29.88-61.85-8.8 18.64-19.31 40.25-29.88 61.85zm24.36-150.64c12.23-27.78 24.37-55.61 34.76-79.46 18.26 17.39 27 25.77 39.94 38.63-9.14-8.93-20.91-20.27-39.94-38.63-10.28 23.91-22.47 51.71-34.76 79.46zm70.62 39.44c24.14-19 48.17-38.45 68.78-54.84-20.03 17.12-44.36 36.17-68.78 54.84zm89.86-123.13c7.27-23.84 14.48-47.68 20.69-68.12-6.09 20.47-13.36 44.3-20.69 68.12zm3.7-68.08c14.24-42.79 27-83.36 48.12-150.36 24.67 6.85 43.84 12.32 60.18 17.08-20.13-5.82-40.34-11.5-60.18-17.08-21.25 68.05-34.72 110.31-48.11 150.36zm78.32-15.11c13.2-3.79 29.11-8.68 54.52-16.5-23.21 7.72-34.14 11.22-54.54 16.5zm126.52-157.54c13.73-33.81 29-76.45 53.57-145-20.21 65.85-30.18 95.81-53.56 145zm6.06-72.11c17.79-46.35 34.62-93.21 48-133.6-13.16 40.46-30.1 87.31-47.99 133.6zm14-112.38c12.81-47.26 24.09-97.66 42.72-180.85-17.1 82.22-28.12 130.14-42.7 180.85zm52.09-185.71c-2.44 25.19-4.93 48.69-7.88 75.09 3.19-28.42 5.68-52.29 7.9-75.09zm7.58 13.36c-3.45 31.81-7.86 68.88-12.47 105.93 4.55-37 8.89-74.13 12.47-105.93 2.18 78.11 3.59 139.56 4.73 189.34-.47-21.26-2.22-96.13-4.71-189.34zm5.91-172c-2.89 36.82-5.32 66.93-7.56 93.17 2.25-26.65 4.61-56.1 7.56-93.17zm-10.81 58c4-37.3 7.83-74.65 10.95-106.66-2.97 32.1-6.85 69.39-10.93 106.69z" fill="#9fe7ed" opacity=".28"/><path d="M2897.64 2956.48c135.82-46.27 266.37-99.65 390.05-160.15l-.1 36.13c-123.68 60.5-254.23 113.88-390.05 160.15l.1-36.13m-.18 60.52q111.91-38.13 218.79-82.69l-.1 36.13q-106.74 44.57-218.79 82.69l.1-36.13" fill="#fff"/><path d="M3954.65 2354.73c58.66 18 81.26 25 126.82 40.75 57.24-170.58 67.56-201.31 100.66-360.31 7.59-63.56 17-148.39 23-212.12L4204 2239.1c-61.73 363.82-332.24 717.69-811.9 996.44q-31.14 18.09-63 35.5 31.84-17.41 63-35.5c479.66-278.75 750.17-632.62 811.9-996.44l1.05-367.42c-10.53 131.87-13.35 167.32-31.65 323.13-26.2 79.4-65.94 183.79-99.89 260.2-29.28-8.86-56.94-17.24-110.84-32.2-40.79 129.51-50.49 160.29-99.75 299.22-43.29-43.5-46.83-47.06-77.8-76.55-20.73 47.56-48.41 111-69.87 158.22-39.17 61.44-92.16 142.9-133.28 203.05-145.26 161.17-150.97 167.46-252.91 264.25 82-120.81 136.19-200.63 227.29-355.15 52-57.58 121.09-134.7 170.39-194.64 17.59-37.3 41.39-86.87 58.47-124.41 39.11-31.2 92-72 129.28-105.35 12.14-41 28.43-95.64 40.16-136.76" fill="#4fc7db"/><path d="M4205 1871.68l-1 367.42c-61.73 363.82-332.24 717.69-811.9 996.44q-31.14 18.09-63 35.5 31.84-17.41 63-35.5c479.66-278.75 750.17-632.62 811.9-996.44-1.16-50.84-2.6-114.11-4.87-195.42-7.16 63.64-17.39 148.43-26.17 211.87-59.72 166.62-64.6 180.23-125.57 286-62.4 19.21-67.49 20.77-115.85 31.58-12.44 41-28.92 95.59-41.77 136.41-39.85 31.67-92.42 74.69-133.89 104.18-18 37.2-41.78 87-60.33 123.91-51.64 58.79-121 136.84-175.24 193.21-57 42.51-132.46 100.09-191.2 140.2 156.92-154.72 166.32-164 252.86-264.29 40.78-60.38 94.46-141.39 133.28-203.05 21.19-47.37 49.41-110.54 69.87-158.22 46.84 45.18 49.65 47.88 77.8 76.55 45.19-128.41 55.93-158.93 99.75-299.22 36.62 10.29 74.5 20.92 110.84 32.2 33.57-76.58 74.1-180.66 99.89-260.2 15.28-131.57 19.38-166.93 31.65-323.13" fill="#99dcf7"/><path d="M3931.49 2573.13c72.54-17.55 76.88-18.6 115.85-31.58 86.64-166.2 91.83-176.15 125.57-286 8.53-63.48 19.26-148.2 26.17-211.87 2.94 110.09 4.85 194.61 4.87 195.42-61.73 363.82-332.24 717.69-811.9 996.44q-31.14 18.09-63 35.5c57.69-41.6 135.36-96.15 191.2-140.2 53.48-57.14 124.46-133.67 175.24-193.21 18.15-37.15 42.69-86.52 60.33-123.91 40.48-30.84 95.19-71.12 133.89-104.18 12.62-40.89 29.56-95.39 41.77-136.41" fill="#e3effe"/><path d="M303.76 1054.66l-.52-.2v783.67h.4c-8.18 193.64 114.73 388.59 369 536.37v-822.25c-57.83-33.61-108.86-69.65-153.1-107.57-137.3-117.68-209.19-253.37-215.78-390.02z" fill="#9fe7ed" opacity=".28"/><path d="M2292.41 2616.25l5.51-.64q4.56-.54 9.11-1.11l5.34-.68c3.29-.42 6.57-.86 9.86-1.31l4.44-.61c4.73-.66 9.47-1.35 14.19-2.06l1.16-.18q6.51-1 13-2l4.68-.78c3.15-.52 6.31-1.05 9.46-1.6 1.78-.3 3.55-.62 5.33-.93 1.58-.29 3.17-.55 4.74-.84l3.78-.71 6.56-1.22 8-1.55 6.51-1.3c2.68-.54 5.35-1.09 8-1.65l6.4-1.34c2.7-.58 5.39-1.18 8.09-1.77 2.09-.46 4.18-.92 6.27-1.4 2.74-.62 5.48-1.26 8.22-1.9 2-.47 4-.93 6-1.41 2.86-.68 5.7-1.39 8.54-2.09l5.64-1.39c3.15-.79 6.29-1.61 9.43-2.43 1.55-.4 3.1-.79 4.64-1.2q7-1.86 14-3.8l-.63-625.72q-7 2-14 3.8c-1.54.41-3.09.8-4.63 1.2-3.14.82-6.29 1.64-9.44 2.43l-5.63 1.39c-2.85.7-5.69 1.41-8.54 2.09-2 .48-4 .94-6.05 1.41l-8.22 1.91-6.27 1.39c-2.69.59-5.38 1.19-8.09 1.77l-6.4 1.34q-4 .84-8 1.65l-6.51 1.3-8 1.55-6.56 1.22c-2.83.53-5.67 1-8.52 1.55l-5.32.93q-4.72.82-9.47 1.6l-4.68.78q-6.47 1-13 2l-1.18.18q-7.08 1.08-14.19 2.06l-4.43.61c-3.29.45-6.57.89-9.86 1.31l-5.35.68-9.09 1.11-5.53.64q-4.61.53-9.21 1l-5.25.56c-4.52.47-9.05.93-13.58 1.35l-.83.08q-6.51.6-13 1.14c-1.33.12-2.67.22-4 .33q-5.43.43-10.87.84l-3.34.24q-6.9.5-13.82.91l-2.91.17q-5.61.33-11.23.61l-4.1.21q-6 .29-12 .52l-2.07.09-2.54.08q-8.23.3-16.49.5l-5.72.12q-7.08.15-14.17.22c-1.7 0-3.4 0-5.11.06q-9.36.06-18.74 0h-2.93q-8-.06-16-.22c-2 0-3.93-.08-5.9-.13q-6.55-.15-13.12-.36l-5.51-.19q-9.12-.33-18.24-.77h-.45q-8.88-.45-17.75-1l-5.59-.37q-6.49-.43-13-.92l-5.9-.46c-4.83-.38-9.65-.8-14.47-1.23l-3.78-.33q-9-.84-18-1.8l-4.62-.51q-6.8-.75-13.58-1.56c-2-.23-3.94-.48-5.9-.72q-6.57-.81-13.1-1.7l-5.07-.67q-9.16-1.27-18.3-2.65c-1.08-.17-2.16-.35-3.24-.51q-7.59-1.18-15.16-2.44l-5.58-1q-7-1.18-13.93-2.46c-1.52-.28-3-.54-4.56-.83q-9-1.66-17.95-3.47-6.47-1.29-12.91-2.66l-3-.65q-5.25-1.12-10.46-2.29l-4-.9q-5.52-1.26-11-2.56l-2.26-.53q-6.54-1.56-13-3.19l-3.45-.88q-5-1.26-9.9-2.56l-3.85-1q-6-1.62-12-3.28l-.89-.25q-6.81-1.89-13.55-3.87l-4.07-1.21q-4.7-1.4-9.37-2.82l-5.08-1.58q-4.15-1.29-8.28-2.61l-5.39-1.75-7.9-2.6-5.46-1.85c-2.61-.89-5.21-1.78-7.8-2.69l-5.35-1.88q-4-1.43-8-2.88c-1.67-.61-3.35-1.21-5-1.83-2.91-1.08-5.81-2.18-8.7-3.28-1.38-.53-2.77-1-4.15-1.58-1.21-.46-2.41-.95-3.61-1.42q-5.91-2.31-11.75-4.67c-1.73-.7-3.46-1.42-5.18-2.13-3.38-1.39-6.76-2.8-10.11-4.23l-5.26-2.25q-5.32-2.31-10.6-4.68l-4.26-1.9q-7.31-3.32-14.53-6.74l-2.17-1.06q-6.12-2.93-12.17-5.94c-1.57-.78-3.13-1.58-4.7-2.37q-4.83-2.45-9.61-4.93-2.49-1.3-5-2.62-4.85-2.57-9.63-5.19c-1.45-.79-2.9-1.57-4.34-2.37q-6.86-3.81-13.6-7.71l.63 625.72q6.73 3.91 13.59 7.71c1.44.8 2.9 1.58 4.35 2.37q4.79 2.63 9.62 5.19l5 2.62q4.77 2.49 9.6 4.93c1.57.79 3.13 1.59 4.71 2.37q6 3 12.15 5.94l2.19 1.06q7.22 3.42 14.53 6.74c1.41.64 2.84 1.27 4.26 1.9 3.52 1.58 7 3.14 10.59 4.68l5.27 2.25q5 2.15 10.1 4.23c1.73.71 3.45 1.43 5.18 2.13q5.84 2.37 11.74 4.67c1 .37 1.89.76 2.85 1.13l.78.3 4.12 1.56q4.35 1.67 8.73 3.29c1.66.62 3.33 1.22 5 1.83 2.66 1 5.32 1.93 8 2.88 1.76.63 3.54 1.25 5.32 1.87 2.6.91 5.21 1.82 7.83 2.71l5.43 1.83c2.63.88 5.28 1.75 7.93 2.62l5.37 1.74c2.75.88 5.52 1.75 8.29 2.61l5.08 1.58q4.66 1.43 9.37 2.81l4.07 1.22q6.64 1.95 13.35 3.82l.19.05.9.25c4 1.12 8 2.2 12 3.28l3.83 1q5 1.3 9.94 2.57l3.42.87q6.5 1.62 13 3.19l2.27.53q5.49 1.31 11 2.56l4 .9c3.48.77 7 1.54 10.44 2.28l3 .66q6 1.28 12.09 2.5l.83.16q8.94 1.8 17.94 3.47c1.52.29 3 .55 4.57.83q6.95 1.28 13.91 2.46l5.6.95q7.56 1.26 15.14 2.43l3.26.52q9.12 1.38 18.29 2.65c.49.06 1 .14 1.47.21l3.6.46q6.54.89 13.1 1.7l5.91.72q6.78.81 13.57 1.56l4.63.51q9 1 18 1.8l3.78.33c4.81.43 9.63.85 14.46 1.23l2.53.22c1.12.08 2.25.15 3.37.24q6.49.48 13 .92l5.58.37q8.88.54 17.75 1h.46q9.11.45 18.23.77l5.52.18q6.56.22 13.13.37l3.33.1h2.55q8 .17 16 .22h2.9q9.38.06 18.75 0c1.71 0 3.41 0 5.12-.06q7.08-.07 14.15-.22l5.73-.12q8.23-.21 16.49-.5l2-.06h.58l2.06-.09q6-.24 12-.52l4.1-.21q5.59-.28 11.21-.61l2.94-.17q6.9-.42 13.8-.91l3.36-.24c3.61-.27 7.23-.55 10.84-.84l4-.33q6.52-.54 13-1.14l.84-.08q5.7-.54 11.4-1.11l2.17-.24 5.25-.56q4.73-.41 9.33-.94z" fill="#fff" opacity=".28"/><path d="M2630.86 434.22c11.89 8.6 15.64 31.25 7.87 33.8-10.29 3.38-23.89-24.47-16.35-33.47 2-2.37 5.15-2.5 8.48-.33m31.86 23.3c10.69 9.64 14.16 32.52 7.23 34.37-9.22 2.44-21.55-26.49-14.83-34.79 1.8-2.22 4.57-2.06 7.6.42m-67.09-43.69c13.06 7.57 17.06 30 8.49 33.26-10.94 4.16-25.46-20.39-18.5-31.28 2.14-3.35 5.88-4.09 10-2m-305.12 56.3q26.74-.32 52.44.76l.53 9.73q-25.68-1.07-52.44-.75l-.53-9.74m27.37 15.7q13.1.17 25.92.72l.53 9.73q-12.83-.54-25.92-.72l-.53-9.73M2607.44 537a385.61 385.61 0 0139.47 24l.53 9.69a386.7 386.7 0 00-39.47-24l-.53-9.69m21.13 27.18q9.88 6 19.2 12.49l.53 9.73q-9.33-6.46-19.19-12.48l-.54-9.74m12.84 63.22q14.41 9.38 27.56 19.82l.53 9.73q-13.14-10.44-27.56-19.82l-.53-9.73m-10.91 8.3a365.79 365.79 0 0139.32 27.18l.54 9.73a367.79 367.79 0 00-39.36-27.18l-.54-9.73M2269.93 547q34.44-1.2 67.21-.18l.53 9.69q-32.76-1-67.21.18l-.53-9.69m25.6 15.07q21.57-.26 42.46.4l.54 9.73q-20.9-.65-42.47-.39l-.53-9.74m198.84-28.5c30.05 8.31 52.41 24.87 74.77 55.39-34.16 23.62-40.31 27.87-72 50.61-12.47-55.41-12.47-55.41-24.65-108.81a96.25 96.25 0 0121.85 2.81m87.66 76.24c41.47 80.08 34.84 171.6-41 174.87-10.7.47-66.89-.12-122.63-57 41-30.82 92-69.18 163.61-117.88m-165.72-60.09c36.95 44.37 43.61 52.37 75 94.14-37.95 27.81-47 34.42-87.87 65.52-39.38-56.94-34.21-121.09 12.86-159.66m-46.35-50.06l30.44 31.38-2.6 2.17-30.48-31.24 2.64-2.31m253.25 130.77l1.42 4.38-25.35 6.29-1.5-4.31 25.43-6.36m-28.33-84.63l1.49 4.36-26.89 7.71-1.57-4.29 26.97-7.78m-240.92 25.18l22.02 11.63-1.6 3.08-22.06-11.59 1.64-3.12m97.6-68.19c8.1 32.94 13.45 54.69 25.13 103.07-33.48-47.3-37.78-53.38-66.17-90.25 7.18-5 20.13-11.35 41-12.82" fill="#e3effe"/><path d="M3186.58 453.69q9.87 10.43 19.1 21.13l2.93 54.77q-9.22-10.71-19.1-21.13l-2.93-54.77m-35.66-69.46q10.86 9.93 21.12 20.16l4.88 91.15q-10.26-10.23-21.12-20.17l-4.88-91.14m-35.2-.39q11.81 9.44 23 19.17l3.21 60.06q-11.23-9.74-23-19.16l-3.21-60.07m-38.84-10.61q12.7 8.89 24.87 18.12l2.18 40.89q-12.15-9.23-24.87-18.13l-2.18-40.88m-46.22-93.55q13.56 8.35 26.6 17.05l5.74 106.38q-13-8.7-26.6-17.06l-5.69-106.37M2928 264.09c4.59 6.08 10.7 14.19 15.29 20.26-5.16 6.14-3.47 17 4.39 28.31l-10.28 10.66c-19-23.79-22.73-47.6-9.4-59.23m23.65-3.31l3.2 20.51a16.31 16.31 0 00-5.81-.17l-15.15-20.26c5.6-1.86 10.91-1.88 17.76-.08m44.98 42.56c15 32.31 3.56 54.76-23.51 46.19-13.72-4.35-24.52-14.54-28.07-17.89l10.2-10.68c15.44 13.34 30.39 10.76 29.1-5a34.14 34.14 0 00-2.49-9.57l14.77-3m-36.35-39.19l.17.08c8.33 4.45 19.37 11.81 30.9 29.41l-14.9 3.15a44.94 44.94 0 00-13-12.11l-3.21-20.53m-133.65-43.54q40 14.21 77.66 30.59l.36 6.74Q2867 241.6 2827 227.4l-.36-6.74m-30.29 6.52q56.58 18.45 108.81 41.19l.23 4.25q-52.12-22.69-108.82-41.19l-.22-4.25m.59 11.1q56.59 18.47 108.82 41.2l.23 4.29q-52.12-22.69-108.82-41.2l-.23-4.29m.6 11.11q56.58 18.45 108.81 41.19l.23 4.29q-52.12-22.69-108.82-41.19l-.22-4.29" fill="#fff"/><path fill="#3791d3" d="M3761.89 1037.05l1.76 616.75-37.33 4.05-1.76-616.75 37.33-4.05z"/><path d="M3724.56 1041.1c-39.73-127.46-144.52-243.48-302.9-335.53-24.25-14.09-49.7-27.31-75.88-40-8.53-4.12-17.55-7.81-26.26-11.78-18.2-8.19-36.52-16.28-55.52-23.79-3.66-1.46-7-3.18-10.7-4.6-12.26-4.75-25-9-37.59-13.47-7.14-2.53-14.11-5.22-21.35-7.66-24.2-8.13-48.84-15.83-74.09-22.89l-3.62-1 1.76 616.76c26.54 7.33 52.4 15.38 77.78 23.92 7 2.34 13.78 5 20.71 7.41 16.64 5.89 33 12 49.13 18.39 18.82 7.48 37 15.5 55.05 23.67 8.79 4 17.88 7.74 26.47 11.87 26.19 12.64 51.64 25.86 75.9 40 158.38 92 263.17 208.06 302.9 335.52z" fill="#fff"/><path d="M3133.12 560.55c116.81 32.35 223.21 76 315.35 129.55 163.9 95.24 272.05 215.17 313.42 346.95l-37.33 4c-39.73-127.46-144.52-243.48-302.9-335.53-89.27-51.86-192.07-94-305-125.22z" fill="#81b8ea"/><path fill="#b65100" d="M3344.19 1006.18l19.62-8.29-149.86-3.29-19.64 8.3 149.88 3.28z"/><path d="M3240.29 787.52c-35.93 21-58.24 69.76-56.87 137.74a345.77 345.77 0 0010.89 77.64l149.88 3.28z" fill="#ffd300"/><path fill="#bd9c00" d="M3344.19 1006.18l19.62-8.29-103.89-218.67-19.63 8.29 103.9 218.67z"/><path d="M3339.89 790.84c-38-19.16-72.65-19-99.6-3.32l103.9 218.66-149.88-3.28c24 94.28 84.49 183.55 154.19 218.63 88.79 44.7 158.85-15.46 156.47-134.4s-76.29-251.59-165.08-296.29z" fill="#ff8f00"/><path d="M3268.46 774.86h.11l.87-.37c.72-.32 1.44-.6 2.16-.87l.65-.26c.53-.2 1.07-.41 1.6-.59l.67-.24c.68-.24 1.38-.46 2.09-.69h.12l.55-.17 2-.59.93-.24 1.64-.44 1.07-.24 1.52-.35c.38-.08.77-.17 1.18-.24l1.44-.28a.93.93 0 01.22 0c.33-.07.67-.11 1-.16s1-.17 1.46-.24l1.24-.17c.48-.07 1-.13 1.45-.18s.84-.1 1.26-.15 1-.1 1.46-.15l1.29-.09c.48 0 1-.08 1.46-.09a2.85 2.85 0 01.41 0h.87l1.55-.05h4.15l1.58.05h1.32c.44 0 1.06.06 1.59.09h1.3l1.83.15 1.22.13 2 .22c.37.06.76.1 1.13.15.78.09 1.59.22 2.38.35l.7.09c1 .19 2.09.37 3.13.58a.13.13 0 01.09 0c.81.14 1.62.31 2.46.49l.57.13 2.6.59.26.08c.81.2 1.65.4 2.46.63l.53.14c.87.24 1.74.48 2.61.74l.52.17c.83.24 1.66.5 2.49.76a2.29 2.29 0 00.28.09.38.38 0 00.13 0l2.62.88.75.28 2.07.74.87.33c.74.28 1.5.57 2.24.87l.57.22c.92.37 1.85.76 2.77 1.16l.74.3 2.12.94c.3.13.59.28.91.41l2.18 1c.22.12.44.21.66.32l.23.11c.92.44 1.84.89 2.77 1.37 1.14.57 2.29 1.16 3.43 1.77l.43.22 3.25 1.77.57.34 3.18 1.84c.18.1.37.21.53.32 1.09.64 2.16 1.29 3.24 2l.37.23c1.08.68 2.17 1.36 3.26 2.08a.49.49 0 00.15.1c1.11.72 2.2 1.46 3.27 2.19l.48.32c1.06.72 2.09 1.44 3.12 2.18.21.15.39.27.58.42 1 .72 2.06 1.48 3.08 2.24.08.05.13.11.2.15l.67.49c.35.28.7.54 1.07.82l1 .72 1.05.83c.34.24.65.5 1 .74l1.08.85c.31.26.62.5.94.75s.7.58 1.07.85l.94.78q.53.45 1.05.87l.95.79 1.05.89c.31.26.63.52.92.79l1.07.91c.3.28.61.53.91.79s.72.63 1.07.94.61.54.91.82l1 .94.9.81c.36.34.71.65 1.08 1s.59.54.88.81.7.67 1.07 1l.85.83c.37.35.76.7 1.11 1.06l.83.77 1.22 1.18c.22.24.46.47.69.69.59.57 1.16 1.14 1.73 1.72.06 0 .11.12.19.18l1.88 1.9c.2.22.43.45.63.65.42.44.85.87 1.25 1.31 0 0 .06.06.1.07a.45.45 0 00.13.15c1.14 1.2 2.31 2.42 3.45 3.66a1.17 1.17 0 00.19.2l3.37 3.7a1.93 1.93 0 00.17.21c1.13 1.27 2.25 2.55 3.38 3.84a1.75 1.75 0 01.16.2c1.13 1.3 2.24 2.59 3.35 3.92a1.75 1.75 0 01.16.2c1.11 1.31 2.2 2.66 3.29 4l.17.2c1.09 1.35 2.18 2.72 3.25 4.09l.15.2 3.21 4.16.15.2 3.18 4.25v.05a.5.5 0 01.07.08c1.25 1.72 2.51 3.47 3.75 5.21.11.16.22.31.31.46 1.24 1.77 2.48 3.53 3.7 5.34l.07.11c1.24 1.81 2.44 3.64 3.64 5.48.11.15.2.32.31.47 1.17 1.77 2.31 3.56 3.44 5.37l.13.2s.06.1.07.13c.93 1.46 1.83 2.94 2.74 4.42a4 4 0 00.26.42c.88 1.48 1.77 3 2.65 4.45.1.15.17.3.26.45q1.3 2.24 2.61 4.51c.07.14.16.29.24.44.87 1.49 1.72 3 2.55 4.54 0 .11.11.21.16.3s.06.11.1.16c.72 1.32 1.44 2.65 2.14 4 .13.24.26.48.37.72.7 1.31 1.4 2.62 2.08 3.93.12.22.23.45.36.67.68 1.36 1.38 2.71 2.07 4.08.05.13.12.26.18.39.68 1.36 1.37 2.73 2 4.12a1 1 0 01.13.22v.11c.61 1.25 1.24 2.55 1.85 3.82.11.28.24.54.36.8.6 1.27 1.19 2.53 1.78 3.8l.27.65c.58 1.22 1.13 2.46 1.69 3.69l.16.39c.59 1.31 1.15 2.62 1.72 3.94l.19.4.16.39c.54 1.26 1.07 2.51 1.59 3.77.07.18.15.35.22.53.48 1.15 1 2.31 1.42 3.48.11.24.21.48.3.7.5 1.25 1 2.51 1.49 3.78a7.34 7.34 0 01.32.82c.48 1.22 1 2.44 1.42 3.67 0 .06.06.13.08.21s0 0 0 .05c.48 1.26.95 2.53 1.43 3.81.09.29.2.57.31.86.46 1.26.92 2.54 1.37 3.81 0 .13.09.26.13.41q.63 1.77 1.23 3.54c.1.28.19.54.28.82q.64 1.88 1.26 3.78a2 2 0 00.09.26 3.82 3.82 0 01.15.48c.39 1.15.76 2.31 1.13 3.47.05.21.12.41.18.61.41 1.3.81 2.57 1.2 3.86.09.28.17.58.26.85.39 1.32.77 2.63 1.16 3.94.39 1.31.76 2.64 1.13 4 0 .15.09.29.13.44s.07.26.11.39c.37 1.33.72 2.66 1.07 4 .06.2.11.4.17.61.33 1.25.64 2.51 1 3.77 0 .18.1.38.13.57.36 1.35.67 2.68 1 4 .06.27.13.55.21.83.31 1.36.62 2.73.94 4.1a.12.12 0 000 .07.69.69 0 000 .2c.34 1.46.65 2.9 1 4.36a4.91 4.91 0 01.1.5c.31 1.44.61 2.9.9 4.34 0 .26.09.52.15.8q.42 2.13.81 4.26c0 .24.08.48.13.72.28 1.5.54 3 .78 4.46v.1c.61 3.6 1.16 7.18 1.64 10.78v.21c.22 1.73.44 3.47.64 5.21l.06.33c.2 1.72.39 3.42.57 5.12v.29a.65.65 0 010 .2c.11 1 .2 1.92.29 2.88v.15c.1 1 .19 2.05.28 3.07 0 .29 0 .59.07.9.06.71.11 1.43.17 2.13 0 .37 0 .76.08 1.13 0 .64.07 1.27.12 1.92 0 .4.06.79.08 1.2 0 .61.07 1.23.09 1.84 0 .41.05.82.07 1.22 0 .63.06 1.26.1 1.89v1.14c0 .69.06 1.37.08 2v1c0 1 .06 2 .08 3v14.03c0 .54 0 1.14-.05 1.7l-.06 1.6c0 .56-.05 1.11-.07 1.68s-.06 1.06-.1 1.57-.05 1.11-.09 1.67 0 1-.09 1.57-.09 1.09-.13 1.64l-.11 1.55c-.04.55-.09 1.09-.13 1.63s-.09 1-.13 1.53-.11 1.07-.16 1.59-.1 1-.15 1.53-.13 1.06-.19 1.57-.11 1-.16 1.52-.13 1-.21 1.57-.13 1-.18 1.47-.15 1-.2 1.56-.15 1-.23 1.46-.14 1-.22 1.53-.14 1-.22 1.46-.18 1-.26 1.49-.16 1-.24 1.44-.18 1-.28 1.48-.16 1-.25 1.43-.19 1-.3 1.45-.18 1-.28 1.41-.2 1-.29 1.46-.2.92-.3 1.36l-.33 1.44c-.11.45-.2.91-.31 1.37s-.23.94-.35 1.41-.21.9-.32 1.34-.24.93-.37 1.39-.24.89-.35 1.33-.24.9-.37 1.37-.24.88-.37 1.31l-.39 1.35c-.13.42-.25.86-.38 1.29s-.28.89-.41 1.33-.28.85-.41 1.27-.29.87-.42 1.32-.28.83-.43 1.25-.29.85-.44 1.28-.28.83-.42 1.23-.32.85-.48 1.28-.28.81-.43 1.2-.33.85-.5 1.25-.29.82-.46 1.21-.31.81-.5 1.21-.31.8-.48 1.19-.33.79-.5 1.2-.33.77-.5 1.16-.35.8-.53 1.18l-.5 1.15c-.19.39-.37.78-.55 1.16s-.36.74-.52 1.11-.37.78-.57 1.15-.36.73-.54 1.1-.39.74-.57 1.13-.37.7-.56 1.07-.4.72-.61 1.09-.37.72-.57 1.07-.39.71-.59 1.06-.39.72-.59 1-.43.7-.61 1-.41.69-.63 1-.41.68-.63 1-.4.69-.61 1-.44.66-.64 1-.43.66-.65 1-.44.66-.66 1-.43.65-.65 1-.46.63-.68 1l-.67 1c-.22.31-.46.62-.68.94s-.47.61-.69.92-.46.61-.7.91-.46.61-.7.9l-.72.89c-.24.29-.46.59-.7.89s-.48.57-.74.86l-.72.87c-.24.28-.5.56-.74.83l-.74.85-.76.81-.76.84-.75.77c-.26.28-.52.56-.78.82s-.51.51-.77.75-.52.54-.8.8-.52.5-.79.74-.52.51-.8.75-.53.5-.79.74l-.81.72-.82.7-.83.72c-.27.23-.55.45-.83.67s-.55.48-.85.7l-.83.65c-.28.22-.57.46-.85.66s-.57.45-.87.65-.57.42-.85.65l-.88.61-.87.6c-.28.21-.57.39-.87.6l-.89.59-.9.57-.89.55c-.31.21-.61.37-.92.56s-.59.37-.89.53-.63.35-.94.54l-.91.5c-.31.18-.64.35-1 .53l-.86.47c-.35.18-.7.35-1.06.51s-.55.28-.83.43-.77.37-1.16.53-.5.24-.74.35c-.65.3-1.29.58-1.94.85l-19.62 8.32c.65-.28 1.28-.58 1.93-.85l.59-.28c.44-.2.88-.41 1.31-.63.24-.11.48-.22.72-.35s.77-.39 1.16-.59.48-.26.72-.37l1.15-.61c.24-.15.5-.28.74-.42l1.09-.61c.25-.17.51-.32.75-.47l1.06-.62a8.93 8.93 0 01.77-.48c.33-.23.68-.45 1-.67l.75-.5c.34-.22.67-.44 1-.68s.52-.35.76-.54.66-.46 1-.68l.73-.55c.34-.24.65-.49 1-.72s.52-.41.78-.6l.92-.73.76-.61c.3-.24.61-.5.91-.76s.5-.43.74-.63l.9-.78.74-.66.89-.81.72-.67.86-.83.71-.7c.29-.28.57-.57.87-.85s.46-.48.7-.72.55-.59.83-.87.46-.52.68-.76.56-.59.81-.88l.71-.78c.26-.31.51-.61.79-.91s.44-.53.67-.79.53-.63.79-.94.42-.54.65-.81.51-.65.77-1l.65-.84c.24-.33.5-.66.76-1s.42-.58.62-.87.5-.67.74-1 .43-.59.63-.89.48-.68.72-1 .41-.61.61-.93.46-.68.7-1 .41-.63.59-.94.47-.71.69-1.06.41-.64.59-1 .44-.72.66-1.07.39-.66.6-1 .42-.72.62-1.09.39-.66.57-1 .43-.74.63-1.11l.56-1 .61-1.12.55-1.06.59-1.14.52-1.07q.3-.58.57-1.17c.19-.37.35-.74.52-1.1s.39-.78.55-1.19.34-.75.5-1.12.37-.8.56-1.2.31-.76.48-1.15.35-.79.51-1.22.32-.77.48-1.16.34-.82.5-1.24.32-.78.47-1.18l.47-1.26.45-1.2.46-1.27.44-1.24.45-1.29c.12-.43.27-.84.4-1.26s.3-.87.43-1.31.28-.85.4-1.28.28-.86.41-1.31l.39-1.31.39-1.33c.13-.44.25-.89.37-1.33s.25-.9.37-1.35l.36-1.35c.11-.46.23-.92.36-1.36s.22-.93.33-1.37.22-.92.33-1.4.22-.91.33-1.39l.32-1.4c.11-.48.2-1 .29-1.41s.21-.94.3-1.42.2-1 .29-1.44.19-.94.28-1.42.19-1 .28-1.46.16-1 .26-1.44.16-1 .25-1.48.17-1 .25-1.46.14-1 .22-1.5.16-1 .24-1.49.13-1 .2-1.52.15-1 .2-1.49.15-1 .21-1.54.13-1 .18-1.51.13-1 .19-1.57.11-1 .16-1.52.11-1.05.17-1.58.09-1 .15-1.54.09-1.07.13-1.6.09-1 .13-1.54.09-1.09.12-1.64l.12-1.57c0-.54.07-1.09.11-1.63s0-1 .09-1.59.05-1.1.07-1.66.06-1.07.08-1.59 0-1.12.05-1.7.06-1.07.06-1.6v-14.02c0-1 0-2-.07-3v-.93c0-.7-.06-1.4-.07-2.1l-.06-1.11c0-.65-.05-1.29-.09-1.94l-.06-1.16c0-.63-.07-1.26-.11-1.91 0-.38 0-.77-.07-1.16 0-.65-.08-1.29-.13-1.94 0-.37-.06-.74-.07-1.11-.06-.72-.12-1.42-.17-2.14 0-.3 0-.61-.07-.91-.08-1-.17-2-.26-3v-.24c-.07-1-.17-1.87-.26-2.79 0-.19 0-.35-.05-.52-.19-1.7-.37-3.4-.58-5.1v-.33c-.21-1.74-.43-3.49-.67-5.23v-.17c-.5-3.6-1.05-7.18-1.64-10.78v-.17c-.24-1.48-.5-2.95-.77-4.45 0-.22-.08-.46-.13-.7-.26-1.43-.54-2.87-.82-4.29-.05-.26-.09-.52-.14-.77-.3-1.46-.58-2.9-.89-4.34 0-.17-.07-.36-.11-.52-.32-1.44-.61-2.88-.94-4.31a1.8 1.8 0 00-.08-.35c-.29-1.35-.63-2.69-.94-4.06-.05-.28-.13-.56-.2-.85-.32-1.33-.65-2.68-1-4-.06-.2-.11-.41-.15-.59-.31-1.26-.65-2.49-1-3.75a5.21 5.21 0 00-.15-.63c-.37-1.33-.72-2.66-1.09-4-.07-.29-.16-.57-.24-.87-.37-1.31-.74-2.62-1.1-3.93a.79.79 0 000-.09c-.37-1.3-.76-2.59-1.15-3.86-.07-.3-.16-.58-.25-.87-.39-1.29-.78-2.57-1.19-3.86-.07-.19-.13-.39-.18-.57-.37-1.19-.76-2.37-1.15-3.55-.07-.22-.14-.45-.22-.67-.41-1.27-.85-2.55-1.27-3.82-.1-.28-.17-.54-.26-.79l-1.24-3.57c-.06-.13-.09-.26-.15-.39-.44-1.27-.9-2.55-1.36-3.82-.12-.28-.21-.57-.32-.87-.46-1.27-.94-2.53-1.42-3.8 0-.08-.06-.17-.08-.24-.47-1.24-1-2.48-1.44-3.72-.09-.26-.2-.51-.29-.79-.5-1.26-1-2.53-1.52-3.79-.09-.22-.18-.44-.27-.68l-1.44-3.49c-.08-.19-.13-.35-.21-.52-.53-1.26-1.07-2.51-1.59-3.77-.12-.28-.24-.55-.37-.81-.55-1.31-1.12-2.62-1.69-3.92-.06-.13-.12-.26-.19-.38-.55-1.24-1.11-2.5-1.68-3.74l-.28-.61c-.57-1.27-1.18-2.55-1.77-3.82-.11-.26-.24-.52-.37-.77-.59-1.28-1.22-2.57-1.85-3.85a1.61 1.61 0 00-.15-.33c-.66-1.37-1.34-2.73-2-4.1l-.2-.39q-1-2.05-2.07-4.08a7.24 7.24 0 01-.35-.68q-1-2-2.07-3.94c-.13-.24-.26-.46-.37-.7-.72-1.31-1.42-2.64-2.14-3.95-.09-.15-.19-.32-.26-.47l-2.55-4.56c-.09-.15-.16-.28-.26-.42q-1.28-2.28-2.6-4.53c-.09-.15-.17-.28-.24-.41-.89-1.51-1.77-3-2.68-4.48a4.11 4.11 0 01-.24-.39c-.91-1.5-1.83-3-2.75-4.45-.06-.11-.13-.21-.19-.3-1.12-1.83-2.29-3.62-3.45-5.41-.09-.15-.2-.3-.3-.44-1.2-1.85-2.42-3.7-3.66-5.51a.23.23 0 00-.07-.11c-1.2-1.79-2.44-3.56-3.67-5.32l-.34-.46c-1.23-1.76-2.49-3.49-3.75-5.21a.43.43 0 00-.09-.13c-1.05-1.44-2.12-2.86-3.19-4.29l-.12-.16c-1.07-1.41-2.14-2.81-3.23-4.19l-.13-.17c-1.09-1.39-2.18-2.75-3.29-4.12a.88.88 0 00-.12-.17l-3.33-4-.13-.17c-1.13-1.33-2.25-2.66-3.38-4l-.13-.17q-1.69-2-3.42-3.88a.87.87 0 00-.12-.14c-1.15-1.28-2.29-2.55-3.46-3.79 0-.06-.11-.11-.15-.17-1.16-1.24-2.31-2.47-3.49-3.69a2 2 0 01-.18-.21c-.43-.44-.85-.86-1.26-1.29l-.63-.65-1.9-1.92a.12.12 0 01-.05-.05c-.61-.61-1.24-1.24-1.87-1.85l-.57-.57-1.33-1.29c-.26-.23-.48-.47-.72-.69l-1.22-1.16c-.26-.24-.52-.48-.78-.74l-1.16-1.07-.82-.76c-.36-.35-.75-.68-1.12-1s-.57-.52-.85-.76-.74-.68-1.13-1-.55-.5-.85-.75-.74-.65-1.11-1-.59-.5-.86-.76-.74-.63-1.11-1l-.89-.74-1.11-.94-.88-.74-1.11-.91-.89-.73c-.39-.3-.76-.61-1.13-.91l-.88-.7c-.39-.32-.76-.61-1.15-.91l-.88-.68c-.37-.3-.76-.59-1.15-.89s-.59-.46-.87-.66-.79-.61-1.18-.89-.5-.39-.76-.57c-1-.78-2.09-1.53-3.14-2.29-.16-.13-.35-.24-.51-.37-1.06-.76-2.11-1.5-3.16-2.22-.15-.09-.3-.18-.45-.29-1.09-.74-2.2-1.48-3.3-2.2l-.11-.09q-1.66-1.08-3.33-2.13a2.9 2.9 0 01-.33-.2c-1.07-.67-2.16-1.33-3.25-2a4.46 4.46 0 01-.52-.31c-1.07-.63-2.14-1.24-3.21-1.85l-.54-.31c-1.09-.61-2.18-1.2-3.27-1.78-.13-.07-.28-.14-.41-.22-1.14-.61-2.29-1.2-3.43-1.79s-2-1-3-1.46l-.69-.33c-.72-.33-1.46-.69-2.18-1-.29-.15-.61-.28-.9-.42-.7-.32-1.41-.63-2.11-.93-.26-.11-.5-.22-.74-.31-.92-.41-1.86-.78-2.79-1.15-.18-.09-.38-.16-.57-.24l-2.23-.87-.87-.31c-.68-.26-1.39-.52-2.07-.76l-.74-.25-2.75-.93c-.09 0-.2 0-.3-.09-.83-.28-1.64-.54-2.47-.78a5 5 0 00-.52-.14c-.89-.26-1.75-.52-2.62-.76l-.52-.13-2.47-.65-.24-.05c-.89-.22-1.76-.41-2.63-.61l-.57-.13c-.85-.19-1.7-.35-2.55-.52-1-.2-2.07-.39-3.12-.55l-.68-.11-2.41-.36-1.09-.12c-.66-.1-1.33-.17-2-.24l-1.2-.12-1.85-.16-1.29-.08-1.57-.09-1.33-.05h-7.3l-1.25.06-1.48.11c-.43 0-.85.06-1.28.09s-1 .09-1.47.15-.84.07-1.26.13-1 .13-1.48.18l-1.2.17-1.49.26c-.39 0-.78.13-1.19.18l-1.47.3c-.39.07-.78.15-1.15.24-.52.09-1 .22-1.51.33l-1.09.26c-.54.13-1.06.28-1.58.41l-1 .27c-.61.17-1.2.35-1.81.54-.24.07-.48.13-.74.22a.25.25 0 00-.11 0c-.7.22-1.41.46-2.11.7l-.64.22-1.63.61-.65.24c-.72.28-1.44.57-2.14.87z" fill="#ff5600"/><path d="M3623.49 1077.91c13.84 12.14 17.57 30 8.64 29.59-3.37-.18-6.83-2.89-8.49-4.17-48.1-38.74-48.1-38.74-50.31-41.39-10-11.88-10.81-23.18-4.52-24.09 3.75-.53 8 2.55 9.77 3.88l44.91 36.18" fill="#e95a59"/><path d="M3623.79 1123.94c13.8 12.12 17.5 30 8.57 29.52-3.37-.19-6.83-2.9-8.5-4.2-48.13-38.76-48.13-38.76-50.34-41.4-9.95-11.86-10.77-23.13-4.48-24 3.75-.54 8 2.56 9.76 3.88 13.51 10.89 31.62 24.81 45 36.24" fill="#a3d2d1"/><path d="M3624 1169.9c13.79 12.09 17.48 30 8.55 29.51-3.37-.18-6.83-2.9-8.49-4.2-48.07-38.68-48.07-38.68-50.31-41.34-10-11.91-10.81-23.2-4.5-24.11 3.75-.52 8 2.58 9.77 3.9 13.48 10.86 31.6 24.8 45 36.24" fill="#fcd558"/><path d="M2989.35 1051.89s93.26-22.37 115.29-36.13 105.13-44.4 105.13-44.4l6.19 15.49s-84 50.93-101.44 61.26-103.69 43-103.69 43z" fill="#c21a2c"/><path d="M2979.07 1265.12s-3.72 117.58 20.27 163.31c0 34 12.2 136.45 22.3 179.13l28.44-4.67v-308.13z" fill="#1a2444"/><path d="M3038.91 1294.76l23.89 128.53s-4.88 126 4.08 209.54l27.36.26s25.86-169.72 27.09-208.62-9.84-156-9.84-156z" fill="#1a2444"/><path d="M3066.66 1631.37s48.06-16.29 51.46-17.37 10.34-1.23 11.11 5.87-18.06 19.14-22.07 21-13.74 2.93-13.74 2.93l.15 5.14s-18.67 6-23.76 2.93-3.15-20.5-3.15-20.5zm-45.04-34.37s37-12.55 39.64-13.38 8-.95 8.56 4.52-13.91 14.75-17 16.18-10.59 2.26-10.59 2.26l.12 4s-14.38 4.65-18.31 2.27-2.42-15.85-2.42-15.85z" fill="#1a2444"/><path d="M3060.22 964s14.78 22.26 14.28 42.53c-1.66 7.31-14.45 19.76-25.08 20.59s-39.87-30.06-38.54-34.71 49.34-28.41 49.34-28.41z" fill="#fcd3b7"/><path d="M3047.21 1072.57a18.12 18.12 0 01-23-11.14l-9.07-26.13a18.12 18.12 0 0111.14-23 18.11 18.11 0 0123 11.14l9.07 26.13a18.12 18.12 0 01-11.14 23zM3129 1285s9.38 6.5 11.13 10.63-3 4.6-3 4.6 1.87 5.15.87 8.4-8.75 8.38-12.75 9.88-5.5-.51-6.25-2.51-4.88-20.11-6.5-23.12z" fill="#fcd3b7"/><path d="M2989.21 1039.13c8.15-13.56 67.66 7.4 97.3 31.17 18.21 25.62 23.2 35.3 13.48 74.94-3.44 14-9 47.9-13.93 76.31s31.89 39.87 25.1 64.57-22.79 24.18-62.46 21.12c-37.51-2.9-71.53-24.21-71.53-24.21s1.23-41.37 19.14-61.13-34.58-137.08-7.1-182.77z" fill="#c21a2c"/><path d="M3086.51 1070.3s12.76 70.71 12.67 105.29 29.68 111.62 29.68 111.62l-16.5 7.88s-41.68-65.78-52.79-94.8-11.21-101-11.21-118.32 21.86-25.58 38.15-11.67z" fill="#c21a2c"/><path d="M3048.59 983.22s17.61-12.46 17.61-22.76-10.8-35.21-36-31.73-54.82 28.41-51.08 54.49-45.35 46-50.58 96.85 27.9 63.31 54.81 50.18 56.49-12.81 39.54-45.37-9.89-45 3.53-46.27 33.68-2.65 30.19-17.1-20.1-20.35-14.95-23.84 7.81 1.66 7.81 1.66l2.82-2s-7.46-11.18-3.7-14.11z" fill="#251302"/><path d="M3050.08 1125.05s5.65 62.66 9.27 73 41.71 74.23 41.71 74.23-51.73-54.8-52.7-69.66 1.72-77.57 1.72-77.57zm40.74-28.74l7.29 57.47 2.95-13.11-10.24-44.36z" fill="#a81127"/><path d="M3209.77 971.36s12.21-9.8 14.11-11.18 31.83-8.95 33-8.26.17 5.12-12.56 9.7c0 0 3.27 2.17 1.89 4.75 0 0 1.9 5.51-.51 6.89 0 0 .51 4.13-4.65 6.19s-18.92 3.27-18.92 3.27l-6.2 4.13z" fill="#fcd3b7"/><path d="M2779.84 759.22s20.29-16.84 27.19-23.52 7.12 3.45 1.3 8.63-13.6 14.89-13.6 14.89 1.7 6.43 3.59 6.9c.76.2 2.59-1.78 2.59-1.78s6.15 1.3 5 4-17.48 9.31-17.48 9.31l-7.29 4.37-14.48-9.87z" fill="#ffb29e"/><path d="M2794.76 754.23s7.91 2.39 9.25 5.1c1.46 2.93-2.53 10.19-2.53 10.19l-13.55-2.52zm-247.35 18.1l2.28-15.81 28.46-19.45 15.52 20.74-5.16 23.65-11.12 10.13-27.35-2.92-2.63-16.34z" fill="#ffb29e"/><path d="M2597.42 704.21l6.81 15.29c.54 1.2-.2 43.17-.34 45s-4.45 4.08-4.45 4.08-14.86 4.84-29-26.21 9.56-47.37 26.98-38.16z" fill="#ffb29e"/><path d="M2549.14 760.35s14.17 1.83 19.78-.35 7.87-11.55 8-14.5-2.15-7.72 4.45-9.86 7 10.37 7 10.37l3.91-.62s-1-16.28.36-18.65 5.57-14.54 6.6-18.37 6.62-8.58 3-13.54-24.44-19.48-49.27-6.32c-19.38 10.25-26.07 30.59-20.86 42.26s16.37 23.82 17.03 29.58z" fill="#251302"/><path d="M2467.81 977.09c-5.87 14.94-3.74 50.7 3.2 68.32s7.47 22.41 7.47 22.41v314.39h30.43s25.09-167.6 27.75-200.16 15.74-170.39 15.74-170.39z" fill="#1a2444"/><path d="M2631.84 1021.83c6.93 24.82-7.37 177.3-10.57 200.52s-13.94 181.06-13.94 181.06l-27.23-4s-15.51-145.72-15.5-180.15-19-143.64-19-143.64l6.83-69.19z" fill="#1a2444"/><path d="M2605 786.08s-53.63-7.11-83.1-12.08c-16.46.44-33.17 14.19-40.17 24.55s.44 116.67.44 116.67l-15.47 69.7s76.93 50.13 165.18 36.91c0 0-4.57-67.68-6.08-82.55S2645 838.65 2643.27 827s-25.52-34.77-38.27-40.92z" fill="#c21a2c"/><path d="M2530.23 1084.88c-7.48-6.4-11.21-19.75-11.21-19.75 7.47 7.47 27.19 12.28 27.19 12.28-3.77 40.28-8.13 87.33-9.55 104.64-2.29 28-21.24 156.36-26.43 191.33 7.14-88.75 20-288.5 20-288.5z" fill="#121b30"/><path d="M2541.43 1090.35l11.75-13.61s-4.67 2.08-21.29-4z" fill="#121b30"/><path d="M2605 786.08s-12.36-10.1-15-11.41l-43.07-7.22-5 9.73z" fill="#fff"/><path d="M2579.58 1395.05v13.57L2591 1412l10.1-5.27 25.36-3.2 16.15-16s-1.23-3.25-2.91-4-31 3.37-31 3.37zm-100.88-20.15v13.57l11.44 3.37 10.1-5.28 25.36-3.2 16.16-16s-1.24-3.26-2.92-4-31 3.36-31 3.36z" fill="#1a2444"/><path d="M2606.94 787.12s26.26 9.24 30.51 13.49 64.6 35.27 64.6 35.27l68.85-68.43 14.53 14.62s-48.22 88.93-70.33 102.12S2590.48 845 2590.48 845z" fill="#c21a2c"/><path d="M1590.21 1468c-15.63 30 5.9 108.39 96.6 158.35 2.31 20.76 54.7 155.39 54.7 155.39l40-15.38s-33.17-160.76-36.25-178.44-46.12-150.67-46.12-150.67z" fill="#1a2444"/><path d="M1685.9 1504.06s103 39.21 143 46.13c0 0-6.8 41.76 29.1 180.44l40.12-10.15s-1.58-173.37-14.65-212.57-174.1-70.65-174.1-70.65l-67.61 27.6z" fill="#1a2444"/><path d="M1737.12 1238.6c-1.13-9.28-107-4.86-150.55 38.19s-23 76.7-23 76.7l26.65 65.6-4.42 56s77.08 19.24 123.71-34.57c0 0 4.08-60.89 4.6-78.83s33.26-39.04 23.01-123.09z" fill="#c21a2c"/><path d="M1568.86 1296.4s-16.69 15.24-10.39 56 10.94 104.88 15.56 112.56 131.44 50.24 131.44 50.24l17.42-21.27s-98.16-56.21-99.69-60.82.76-96.86-4.62-126.06-49.72-10.65-49.72-10.65zm164.75-59.99c19.48 5.63 38.8 70.16 50.76 129.61 7.76 11 101.49 79.46 101.49 79.46l-21.53 13.83s-108.75-40.11-131.83-81.47c-8.49-15.23-49.62-92.75-49.62-92.75 1.54-24.09 50.73-48.68 50.73-48.68z" fill="#c21a2c"/><path d="M1690.35 1258.18l-3.56-32.25-40.74-19.22-13.6 54s33.31 23.6 57.9-2.53z" fill="#f27968"/><path d="M1694.79 1178.32s5.11 34-1.26 55c-1.89 4.88-8.36 8.35-8.36 8.35s-31.84 2-41.93-12-11-22.54-11-22.54-5.67-29.17 3.47-40.83 56.29-10.84 59.08 12.02z" fill="#ffb288"/><path d="M1633.94 1196.45s-5-12.46-15-4.1-1.26 17 .79 18.76 17.21 6.3 17.21 6.3z" fill="#ffb288"/><path d="M1697.71 1177.13s-12.3 13.95-47.06 7.33c-5.91-.24-9.77 5.51-7.73 12.45l1.42 6.53-5.36.88-8-12.32-7.58.34s-3.79-4.89-3.31-19.39 1.78-23.17 16.89-28.53 39.54-.79 43.64 0 18.43 15.42 17.09 32.71z" fill="#4e0711"/><path fill="#43478b" d="M1737.31 1505.78l115.53 41.56 108.64-89.71-117.13-32.67-107.04 80.82z"/><path fill="#fff" d="M1935.48 1463.15l-88.57-24.71-84.05 63.46 87.55 31.49 85.07-70.24z"/><path d="M1721.88 1493.83s24.32-6.6 28.32-7.88c0 0 6.44 7.55-2.42 11.09l-7.43 3s6.73 4.63 11.23 7.51 22.75 16.62 23.28 20.3-8.3 2.22-21.16-7.76c0 0 1.61 4.82-1.78 5.7a6.12 6.12 0 01-3.61 5s-4.49 7.09-11.07 6.6-31.77-22.19-31.77-22.19z" fill="#ffb288"/><path d="M1751.1 1770.21l-8 20.8a122.41 122.41 0 00-.24 12.25l6.92 13.07a63.14 63.14 0 0014.22 35c13.58 16.15 39.2 16.15 46.12 4.62s-15.75-44.2-17.29-48.82-11.79-41.51-11.79-41.51zm143-58.21c1 2.82 7.69 6.67 7.69 6.67s38.76 16 48.94 25c12 10.56 13.13 35.12-18.39 29.48s-38.92-14.5-43.78-16.81l-17.52 3.08-14.6-7.34 2-30.33z" fill="#1a2444"/><path d="M1852.12 1481l-33.28 6.91c-4.16-7-1.46-15 8.17-20.57 13.47-7.77 35.29-7.77 48.75 0s13.47 20.38 0 28.15c-9.79 5.65-24 7.17-36.22 4.6z" fill="#c21a2c"/><path d="M1836.89 1501.63a43.19 43.19 0 01-12.52-4.6 22.14 22.14 0 01-8.18-7.59l33.28-6.91z" fill="#f4c224"/><path fill="#ffb29e" d="M1226.61 842.71l-6.34 36.35h27.92l-3.02-44.99-18.56 8.64zm-87.8 379.64s10.08 82.37 10.08 96.65 31.94 185.73 31.94 197.5l24.58-1.66s5.67-150.46-5.26-184.08c.85-33.61 10.09-69.75 4.21-108.41s-65.55 0-65.55 0zm87.8 7.56s2.12 86.58 3.8 99.18 32.87 178 32.87 178l23.87-4.16c-2.54-170.12-3.19-161.31-8-178.9-1.68-28.58 32.78-86.57 26-110.1s-78.54 15.98-78.54 15.98z"/><path d="M1167.38 882s-14.7 2.95-19.32 14.71-31.53 96.64-33.63 101.69-47.43-47.09-47.43-47.09l-16.39 10.09s44.11 78.57 65.13 85.72 54.63-74.79 58.42-87.82 17.17-69.76-6.78-77.3z" fill="#c21a2c"/><path d="M1154.36 942.49c-1.69-1.68-42.86-22.7-42.86-22.7l-6.84 15.76 45.07 39.71z" fill="#c21a2c"/><path d="M1111.5 919.79s-10.62-11.66-12.83-12.92-11-.63-12 0l-5 3.15s-16.07-6.62-19.54-8.82-6.93 2.52-2.52 5.67 15.45 7.25 17.65 8.19 1.58 4.73 0 4.73l-10.4-6.61s-4.09.94-.63 6.61a21.18 21.18 0 009.45 8.52c1.89.94 15.76 4.41 25.54 4.72l3.46 2.52z" fill="#f78381"/><path d="M1204.63 1525.25c-3.48 1.66-30.46 14.34-43.11 15.37-8.2.67-11-3.85-11.93-7.54 10.58-3.23 22.88-6.67 25.14-8.1-3.56 2.25-32.2 9.47-39.35 13.12-7.38 3.74-3.61 12.6 3.81 13.18s30.76-.6 30.76-.6 25.77 1.32 30-4.22 4.68-21.21 4.68-21.21z" fill="#c21a2c"/><path d="M1161.52 1540.62c12.65-1 39.63-13.71 43.11-15.37l1.35-17.86-22.64-4.44s.22 18.15-8.33 21.82a1.52 1.52 0 01-.22.18h-.06c-2.26 1.43-14.56 4.87-25.14 8.1.95 3.72 3.73 8.24 11.93 7.57z" fill="#ffb29e"/><path d="M1286 1517.93c-3.48 1.65-30.47 14.33-43.11 15.36-8.2.67-11-3.85-11.93-7.54 10.58-3.23 22.88-6.67 25.14-8.1-3.56 2.25-32.2 9.47-39.35 13.12-7.38 3.75-3.61 12.6 3.81 13.18s30.76-.6 30.76-.6 25.77 1.32 30-4.21 4.68-21.21 4.68-21.21z" fill="#c21a2c"/><path d="M1242.91 1533.29c12.64-1 39.63-13.71 43.11-15.36l1.35-17.87-22.64-4.44s.22 18.16-8.33 21.82a2.53 2.53 0 01-.22.19h-.06c-2.26 1.43-14.56 4.87-25.14 8.1.95 3.71 3.73 8.27 11.93 7.56z" fill="#ffb29e"/><path d="M1207.06 871.87s-26.45 4.43-39.68 10.11-8.83 75.63-3.78 101.48 11.34 55.47 6.3 77.53-54.84 147.49-45.38 179.64c22.69 18.27 129.84 45.38 204.85-6.3 4.41-49.8-19.54-133.63-41.6-162s-.63-70.28 1.89-81.47 28.71-29.82 29.34-67-13-38.72-18.63-41.23-93.31-10.76-93.31-10.76z" fill="#c21a2c"/><path d="M1214.82 785.49a130.34 130.34 0 00-8.55 30.27c-2.94 18 2.65 33.56 5.11 36.31 3.85 4.29 28.33 16.94 39.35-17.6s-35.91-48.98-35.91-48.98z" fill="#ffb29e"/><path d="M1217.29 778.26c-5 12-7.08 27.19 4.18 40.78s17 20 17.61 35.16-50.45 53.41-33.91 96 42.26 49.6 69.44 30.13 44.08-44.84 36.74-75-13.6-52.19-8.82-70.55.74-61-27.92-73.12-54.44 9.73-57.32 16.6z" fill="#4e0711"/><path d="M1117.72 934.55c.73 1 .07 1.92-1.49 2l-61.09 3.95a5.24 5.24 0 01-4.15-1.64l-52-71.36c-.72-1-.06-1.91 1.49-2l61.09-4a5.24 5.24 0 014.15 1.64z" fill="#364c96"/><path fill="#fff" d="M1106.31 924.87l-58.4 3.79-41.39-56.84 58.39-3.79 41.4 56.84z"/><path d="M1054.26 895.39l-14.21-10.63c-5.74 2.1-7.56 6.73-3.87 11.81 4.73 6.48 16.64 11.22 26.64 10.57s14.24-6.43 9.52-12.92a23.28 23.28 0 00-8.36-6.6z" fill="#c21a2c"/><path d="M1063.86 886.1a36.93 36.93 0 00-18.26-4 20 20 0 00-5.66 1.12l14.21 10.62z" fill="#364c96"/><path d="M1085.22 932.29c.61.83.06 1.57-1.22 1.65l-3.16.21a4.36 4.36 0 01-3.43-1.35c-.6-.83-.06-1.58 1.23-1.66l3.17-.21a4.27 4.27 0 013.41 1.36z" fill="#fff"/><path d="M1028.39 900.63s-1.26 13.49 0 22.94 8.83 27.42 11.35 29.95 8.82 7.56 8.82 7.56l15.13-7.76s-8.2-29.05-9.14-35.23-6.62-6.17-6.93-3-1.86 12-1.86 12-8.86-.87-17.37-26.46z" fill="#f78381"/><path fill="#4e0711" d="M2246.59 1824.49l-.73 35.34-2.73 3.25.75-17.34 2.71-21.25z"/><path d="M2122.29 2087.74c-12.33 16.51-19.5 56.31-6 77.79s-.82 89.17-.82 89.17-23.73 46.81-56.75 159l25.72 18.49s72.44-131.39 85.17-157.65 56.57-173.47 56.57-173.47z" fill="#1a2444"/><path d="M2251.1 2091.35s7.69 106 4.5 137.86-183 78.1-183 78.1l-2.58-23s73.38-51.65 114.65-50.38c8.05-7.13 4.87-130.5 4.87-130.5z" fill="#1a2444"/><path d="M2122.29 2087.74s11.34 19.7 44.77 23.87 90.73-23.28 90.73-23.28l-4.18-34s4.36-20.32 8.92-43.81c5.58-28.69 11.49-62.12 10.18-69-.54-2.84-1.49-6.57-2.65-10.67a340.76 340.76 0 00-4.42-14.25c-3.14-9.42-6.37-17.81-7.7-19.58a.94.94 0 00-.2-.23c-13.08-12.14-68 2.34-68 2.34l-50 18.75-13.48 9.61 24.11 106z" fill="#c11a2c"/><path d="M2262 1915.63l35.48 67.09 72 81.81-16.87 12.83s-95.35-62.25-112.86-91.7z" fill="#c11a2c"/><path d="M2224.66 1885.08v30.55c0 7.36-8.95 12.73-18.21 10.94s-14.92-13.43-15.51-21.79 0-30.74 0-30.74z" fill="#f17968"/><path d="M2243.64 1848.87c-.19 3.07-.51 15.44-.51 15.44s-4 15.85-7.8 23.66c0 0-4.6 12.74-8.57 14.2l-11.86-.51-20.9-16.92v-9.85l1.53-42.34h49.38z" fill="#ffb187"/><path d="M2148 1914.74s22.4 21.58 20 45.46 4 79.58 4 79.58l67.65 51.57-13.47 14.49s-74.6-34.31-87.74-49.43-30.44-101.41-14.5-129.49c2.29-4.04 24.06-12.18 24.06-12.18z" fill="#c11a2c"/><path d="M2244.62 1845.8c1.58-1.53 2-21.31 2-21.31s-38.44-20.18-58.66 0c-5.66 5.65-8.74 42.15-8.74 42.15l11.47 18 3.3.06.37-19.61 3.26.58-1.7-16.67 3.58-6.65z" fill="#4e0711"/><path d="M2196.6 1866.47s-7.92-7.28-9.5-1.74 3 13.6 3 13.6l6.46 2.57z" fill="#ffb187"/><path fill="#111a30" d="M2200.89 2179.08l19.2-57.64-22.5 93.48 3.3-35.84z"/><path d="M2061.61 2407.65l-11.61 19.79 7.89 6.35 10.64 3.56 3.81 7.65s19.16 12.65 21.74 14.07c6.74 3.76 11.81-3.43 12.5-6.16.32-1.25-28.29-34.44-28.29-34.44zm13.09-126.51l-19.51 12.38 4.34 9.15 8 7.84.1 8.54s11.74 19.73 13.43 22.13c4.44 6.31 12.13 2.05 13.95-.11.83-1-10.48-43.32-10.48-43.32z" fill="#1a2444"/><path d="M2239.68 2091.35l4.77 2.82s16.34.88 19.45 2 5 3.88 0 4.86a33.61 33.61 0 01-10.56 0s12.7 11.27 16 14.77 5.7 13-10.5-1.55c0 0 11 10.3 7.68 12.82S2255 2117 2255 2117s8.41 10.76 5.83 13.34c-1.56 1.56-11.08-10.49-11.08-10.49s7.87 12.5 5.05 11.92-11.57-8.75-14.48-15.16a47.51 47.51 0 00-5.25-8.75l-6.39-4.64z" fill="#ffb187"/><path fill="#9e1a2c" d="M2234.93 2087.74l-62.9-47.96-4.14-77.72 15.3 72.55 45.45 3.84-42.49 2.08 48.78 47.21z"/><path d="M2207.43 2096.9c-23-11.23-60.06-30.26-69-40.49-12.66-14.58-29.2-95.29-16.11-126.23-2.23 131.97 59.68 146 85.11 166.72zm51.15-181.27l8 59.14-4 35.73 9.21 6 7.19-68.82-8.8-16.64-.07-.24-4.42-14.25c-3.14-9.42-6.37-17.81-7.7-19.58z" fill="#9e1a2c"/><path fill="#fff" d="M2429.63 2043.84l-172.05 99.34 117.24 67.69 172.06-99.33-117.25-67.7z"/><path fill="#4e5c88" d="M2546.88 2111.54l-154.59 89.26-76.09-43.94 154.59-89.25 76.09 43.93z"/><path d="M2367.09 2064.53l4.32 3.5s16.07 3.29 19 4.91 4.44 4.59-.71 4.8a33.59 33.59 0 01-10.48-1.56s10.94 13 13.71 17 3.73 13.73-10.19-3.09c0 0 9.38 11.82 5.73 13.83s-10-11.71-10-11.71 6.76 11.89 3.83 14.06c-1.78 1.31-9.46-12-9.46-12s6 13.53 3.27 12.54-10.19-10.37-12.14-17.15a47.53 47.53 0 00-3.92-9.43l-5.66-5.54z" fill="#ffb187"/><path fill="#4e5c88" opacity=".3" d="M2356.15 2127.36l46.08-26.6-25.85-14.93-46.08 26.61 25.85 14.92z"/><path fill="#fffdff" opacity=".5" d="M2419.48 2022.02l124.67-71.99v-95.95l-124.67 71.98v95.96z"/><path fill="#fffdff" opacity=".5" d="M2425.78 2025.31l124.68-71.98v-95.96l-124.68 71.98v95.96z"/><path fill="#a8ccf4" d="M2546.88 1976.15l-172.05 99.34v135.38l172.05-99.33v-135.39z"/><path d="M198.1 520c20.24-11.69 36.86-2.23 36.92 21l.45 157.86c.07 23.25-16.44 51.84-36.68 63.52L61.42 841.66c-20.23 11.68-36.84 2.22-36.91-21l-.45-157.86c-.06-23.28 16.44-51.86 36.68-63.55z" opacity=".55" fill="url(#a)" style="mix-blend-mode:overlay"/><path d="M242.91 936.38c17.24-10 31.38-1.89 31.43 17.9l.38 134.39c.06 19.79-14 44.13-31.22 54.08l-116.95 67.52c-17.22 9.94-31.36 1.88-31.42-17.91L94.75 1058c-.06-19.79 14-44.13 31.22-54.07z" opacity=".55" fill="url(#c)" style="mix-blend-mode:overlay"/><path d="M592 486.51c24.45-14.12 44.52-2.68 44.6 25.4l.54 190.67c.08 28.08-19.86 62.61-44.31 76.72l-165.92 95.8c-24.43 14.11-44.5 2.67-44.58-25.41L381.79 659c-.08-28.08 19.86-62.61 44.29-76.72z" opacity=".55" fill="url(#d)" style="mix-blend-mode:overlay"/><path d="M3262.44 2047c20.25-11.69 36.86-2.22 36.93 21l.44 157.85c.07 23.25-16.43 51.84-36.68 63.53l-137.36 79.3c-20.24 11.68-36.85 2.22-36.91-21l-.45-157.86c-.07-23.25 16.44-51.83 36.67-63.51z" opacity=".55" fill="url(#e)" style="mix-blend-mode:overlay"/><path d="M3307.26 2463.38c17.23-10 31.37-1.89 31.43 17.91l.38 134.38c.06 19.8-14 44.13-31.23 54.08l-116.94 67.52c-17.23 9.94-31.37 1.88-31.43-17.91l-.38-134.38c-.05-19.8 14-44.13 31.22-54.08z" opacity=".55" fill="url(#f)" style="mix-blend-mode:overlay"/><path d="M3656.34 2013.51c24.46-14.11 44.52-2.68 44.6 25.4l.54 190.67c.08 28.08-19.85 62.61-44.31 76.73l-165.91 95.79c-24.44 14.11-44.5 2.67-44.58-25.41l-.55-190.66c-.07-28.09 19.86-62.61 44.3-76.72z" opacity=".55" fill="url(#g)" style="mix-blend-mode:overlay"/></g></svg>