<svg xmlns="http://www.w3.org/2000/svg"><defs><clipPath id="a"><path d="M0 0h15.41v6.41H0z"/></clipPath><clipPath id="a"><path d="M0 0h5.41v6.79H0z"/></clipPath><clipPath id="a"><path d="M0 0h8.82v5.88H0z"/></clipPath><clipPath id="a"><path d="M0 0h12.94v6.22H0z"/></clipPath><clipPath id="a"><path d="M0 0h10.92v10.92H0z"/></clipPath><clipPath id="a"><path d="M0 0h7.64v7.65H0z"/></clipPath><clipPath id="clip0"/></defs><symbol id="icon_agreement" viewBox="0 0 6.61 8.03"><path d="M4.62 5.39H2.7a.38.38 0 0 1 0-.75h1.92a.38.38 0 1 1 0 .75zm-.54-1.24H2.7a.38.38 0 0 1-.37-.38.37.37 0 0 1 .37-.37h1.38a.36.36 0 0 1 .37.37.37.37 0 0 1-.37.38zM3 2.16h-.3a.38.38 0 0 1 0-.75H3a.38.38 0 1 1 0 .75zm1.62 0H4.3a.38.38 0 1 1 0-.75h.32a.38.38 0 1 1 0 .75z"/><path d="M6.24 6.79H1.58a.37.37 0 0 1-.38-.37v-6A.38.38 0 0 1 1.58 0h4.66a.38.38 0 0 1 .37.38v6a.37.37 0 0 1-.37.41zM2 6h3.86V.75H2z"/><path d="M5 8H.38A.37.37 0 0 1 0 7.66v-6a.38.38 0 0 1 .75 0v5.62H5a.38.38 0 0 1 .38.38A.37.37 0 0 1 5 8z"/></symbol><symbol id="icon_airplane" viewBox="0 0 7.64 7.64"><path d="M7.61 6.84a.24.24 0 0 1 0 .12.38.38 0 0 1-.12.28l-.28.27a.34.34 0 0 1-.21.12.41.41 0 0 1-.28-.15l-2.23-2.8c-.26.23-.51.43-.73.6s-.45.32-.65.45l.16 1.34a.35.35 0 0 1-.1.26l-.17.2a.39.39 0 0 1-.28.11.37.37 0 0 1-.28-.15l-1-1.3L.15 5.2A.43.43 0 0 1 0 4.91a.4.4 0 0 1 .11-.27l.14-.14a.31.31 0 0 1 .27-.11l1.34.16c.13-.2.27-.42.45-.65s.37-.47.6-.72L.17 1A.35.35 0 0 1 0 .69a.45.45 0 0 1 .13-.3L.4.12A.45.45 0 0 1 .67 0H.8l3.85 1.4.72-.68a2.41 2.41 0 0 1 .77-.53 2 2 0 0 1 .8-.19.68.68 0 0 1 .52.18.42.42 0 0 1 .14.22 1.36 1.36 0 0 1 0 .3 2.15 2.15 0 0 1-.19.8 2.22 2.22 0 0 1-.53.76L6.2 3z"/></symbol><symbol id="icon_arrow" viewBox="0 0 13.29 15.99"><path d="M6 15.79l.07.05h1.05l.08-.06h.06l.08-.06 5.47-5.48a1.17 1.17 0 0 0-1.65-1.65L7.81 12V1.17A1.16 1.16 0 0 0 7.3.2a1.14 1.14 0 0 0-.66-.2 1.16 1.16 0 0 0-.82.34 1.18 1.18 0 0 0-.34.83V12L2 8.52a1.17 1.17 0 0 0-1.66 0 1.21 1.21 0 0 0-.34.83 1.14 1.14 0 0 0 .34.82l5.48 5.48.07.06z"/></symbol><symbol id="icon_arrow2" viewBox="0 0 10.16 17.31"><path d="M1.5 1.5l7.16 7.16m0 1.5a1.49 1.49 0 0 1-1.06-.44L.44 2.56A1.5 1.5 0 0 1 2.56.44L9.72 7.6a1.51 1.51 0 0 1 0 2.12 1.53 1.53 0 0 1-1.06.44zm0-1.5L1.5 15.81"/><path d="M1.5 17.31a1.47 1.47 0 0 1-1.06-.44 1.49 1.49 0 0 1 0-2.12L7.6 7.6a1.49 1.49 0 0 1 2.12 0 1.51 1.51 0 0 1 0 2.12l-7.16 7.15a1.47 1.47 0 0 1-1.06.44z"/></symbol><symbol id="icon_arrow3" viewBox="0 0 7.4 7.28"><path d="M3.48.09a.31.31 0 0 1 .44 0l3.42 3.42a.19.19 0 0 1 0 .28L7.09 4a.19.19 0 0 1-.28 0L3.92 1.15a.31.31 0 0 0-.44 0L.59 4.05a.21.21 0 0 1-.28 0L.06 3.8a.19.19 0 0 1 0-.28z"/><rect x="3.33" y=".72" width=".75" height="6.55" rx=".2" ry=".2"/></symbol><symbol id="icon_arrow4" viewBox="0 0 15.41 6.41"><g clip-path="url(#a)"><path d="M11.22 6.41a.48.48 0 0 1-.39-.18.5.5 0 0 1 .08-.71l2.88-2.28-3-2.35a.49.49 0 0 1-.08-.7.49.49 0 0 1 .7-.08l4 3.13-3.88 3.07a.5.5 0 0 1-.31.1z"/><path d="M14 3.77H.5a.5.5 0 0 1 0-1H14a.5.5 0 0 1 0 1z"/></g></symbol><symbol id="icon_back" viewBox="0 0 15 26"><path d="M.642 14.59l10.574 10.746a2.177 2.177 0 0 0 3.13 0c.857-.886.872-2.312 0-3.182l-9.008-9.156 9.009-9.156c.87-.885.87-2.311 0-3.182A2.21 2.21 0 0 0 12.78 0a2.21 2.21 0 0 0-1.565.66L.642 11.407c-.856.886-.856 2.312 0 3.182z"/></symbol><symbol id="icon_bike" viewBox="0 0 29.1 18.1"><path d="M5.39 18.1a5.39 5.39 0 1 1 5.38-5.38 5.39 5.39 0 0 1-5.38 5.38zm0-9.77a4.39 4.39 0 1 0 4.38 4.39 4.4 4.4 0 0 0-4.38-4.39zm18.32 9.77a5.39 5.39 0 1 1 5.39-5.38 5.39 5.39 0 0 1-5.39 5.38zm0-9.77a4.39 4.39 0 1 0 4.39 4.39 4.4 4.4 0 0 0-4.39-4.39z"/><path d="M13.33 13.22H5.39a.51.51 0 0 1-.39-.78l4.7-7.09-1.8-4.27a.52.52 0 0 1 .27-.66.49.49 0 0 1 .65.27l1.76 4.2h10.08a.51.51 0 0 1 .46.3.53.53 0 0 1-.11.55l-7.33 7.33a.5.5 0 0 1-.35.15zm-7-1h6.25l-2.42-5.76zM11 5.89l2.5 6 5.95-5.95z"/><path d="M23.71 13.22a.45.45 0 0 1-.16 0l-1.16-.39a.49.49 0 0 1-.32-.35L19.21 1.85a.48.48 0 0 1 .1-.46.53.53 0 0 1 .44-.17l3.85.45a1.74 1.74 0 0 1 1.47 2 1.72 1.72 0 0 1-1.95 1.46.49.49 0 0 1-.42-.56.52.52 0 0 1 .56-.43.71.71 0 0 0 .82-.61.73.73 0 0 0-.61-.82l-3.11-.41L23 11.94l.9.3a.5.5 0 0 1-.16 1zm-12.83-11h-.15L7.06 1a.5.5 0 0 1-.32-.66.5.5 0 0 1 .64-.34L11 1.25a.5.5 0 0 1-.16 1z"/></symbol><symbol id="icon_block-cross" viewBox="0 0 27.5 27.5"><path d="M15.16 13.75l6.45-6.45a1 1 0 1 0-1.41-1.41l-6.45 6.45L7.3 5.89A1 1 0 0 0 5.89 7.3l6.45 6.45-6.45 6.45a1 1 0 0 0 0 1.41 1 1 0 0 0 1.41 0l6.45-6.45 6.45 6.45a1 1 0 0 0 1.41 0 1 1 0 0 0 0-1.41z"/><path d="M22.83 27.5H4.67A4.67 4.67 0 0 1 0 22.83V4.67A4.67 4.67 0 0 1 4.67 0h18.16a4.67 4.67 0 0 1 4.67 4.67v18.16a4.67 4.67 0 0 1-4.67 4.67zM4.67 2A2.68 2.68 0 0 0 2 4.67v18.16a2.68 2.68 0 0 0 2.67 2.67h18.16a2.68 2.68 0 0 0 2.67-2.67V4.67A2.68 2.68 0 0 0 22.83 2z"/></symbol><symbol id="icon_boxes" viewBox="0 0 10.38 9.13"><path d="M8.85 5.71l-1.53 1v1.16a.7.7 0 0 0 .33.6l.8.54a.74.74 0 0 0 .81 0l.8-.54a.72.72 0 0 0 .32-.6V6.73zm0 2L7.74 7l1.11-.8L10 7zM8.47 0L6.62 1.24v1.43a.77.77 0 0 0 .38.65L8 4a.81.81 0 0 0 .87 0L10 3.32a.77.77 0 0 0 .35-.65V1.24zm0 2.41l-1.35-.9L8.47.6l1.36.91zm-5.27-.6L0 4v2.76a.73.73 0 0 0 .32.6L2.8 9a.71.71 0 0 0 .79 0l2.49-1.64a.73.73 0 0 0 .32-.6V4zM3.2 6L.87 4.41 3.2 2.85l2.33 1.56z"/></symbol><symbol id="icon_breafcase" viewBox="0 0 10.5 9"><path d="M10.5 2.44v2.25H0V2.44a.87.87 0 0 1 .28-.66.87.87 0 0 1 .66-.28H3V.56A.55.55 0 0 1 3.56 0h3.38a.55.55 0 0 1 .56.56v.94h2.06a.87.87 0 0 1 .66.28.87.87 0 0 1 .28.66zm0 2.81v2.81a1 1 0 0 1-.94.94H.94a.87.87 0 0 1-.66-.28.87.87 0 0 1-.28-.66V5.25h3.94v.94a.38.38 0 0 0 .37.37h1.88a.38.38 0 0 0 .37-.37v-.94zM3.75 1.5h3V.75h-3zM6 5.25V6H4.5v-.75z"/></symbol><symbol id="icon_burger" viewBox="0 0 20.34 15.5"><rect y="13.67" width="15.58" height="1.83" rx=".19" ry=".19"/><rect y="6.83" width="11.18" height="1.83" rx=".19" ry=".19"/><rect width="20.34" height="1.83" rx=".19" ry=".19"/></symbol><symbol id="icon_bus" viewBox="0 0 10.54 5.56"><path d="M9.73 0H1.91A1.9 1.9 0 0 0 0 1.91v3.24h1.79a1.17 1.17 0 0 1-.05-.27.92.92 0 1 1 1.83 0 .81.81 0 0 1 0 .27h4.07a.82.82 0 0 1-.06-.27.92.92 0 0 1 1.84 0 .82.82 0 0 1-.06.27h1.18V.81A.81.81 0 0 0 9.73 0zM2.48 3.32H1v-1h1.48zm0-1.48H1v-1h1.48zM4.4 3.32H2.92v-1H4.4zm0-1.48H2.92v-1H4.4zm1.92 1.48H4.84v-1h1.48zm0-1.48H4.84v-1h1.48zm1.92 1.48H6.76v-1h1.48zm0-1.48H6.76v-1h1.48zm1.91 1.48H8.68v-1h1.47zm0-1.48H8.68v-1h1.47z"/><circle cx="2.66" cy="4.93" r=".63"/><circle cx="8.52" cy="4.93" r=".63"/></symbol><symbol id="icon_calendar" viewBox="0 0 18.4 16.2"><path class="st0" d="M0 0v16.2h18.4V0H0zm16.8 14.6H1.6V5.2h15.2v9.4zM1.6 3.6v-2h15.2v2H1.6z"/><path class="st0" d="M3.2 8.4H4c.4 0 .8-.4.8-.8s-.4-.8-.8-.8h-.8c-.4 0-.8.4-.8.8s.4.8.8.8zm3.8 0h.8c.4 0 .8-.4.8-.8s-.4-.8-.8-.8H7c-.4 0-.8.4-.8.8s.3.8.8.8zm3.8 0h.8c.4 0 .8-.4.8-.8s-.4-.8-.8-.8h-.8c-.4 0-.8.4-.8.8s.3.8.8.8zm3.7 0h.8c.4 0 .8-.4.8-.8s-.4-.8-.8-.8h-.8c-.4 0-.8.4-.8.8s.4.8.8.8zM4 9.8h-.8c-.4 0-.8.4-.8.8s.4.8.8.8H4c.4 0 .8-.4.8-.8s-.4-.8-.8-.8zm3 1.6h.8c.4 0 .8-.4.8-.8s-.4-.8-.8-.8H7c-.4 0-.8.4-.8.8s.3.8.8.8zm3.8 0h.8c.4 0 .8-.4.8-.8s-.4-.8-.8-.8h-.8c-.4 0-.8.4-.8.8s.3.8.8.8zm3.7 0h.8c.4 0 .8-.4.8-.8s-.4-.8-.8-.8h-.8c-.4 0-.8.4-.8.8s.4.8.8.8z"/></symbol><symbol id="icon_calendar2" viewBox="0 0 7.5 7.5"><path d="M6.94.9a.53.53 0 0 1 .39.16.5.5 0 0 1 .17.39v5.49a.58.58 0 0 1-.56.56H.56a.5.5 0 0 1-.39-.17.54.54 0 0 1-.17-.39V1.45a.54.54 0 0 1 .17-.39A.53.53 0 0 1 .56.9h.19V.83a.92.92 0 0 1 0-.29A.72.72 0 0 1 1 .27a.84.84 0 0 1 .28-.2A1.4 1.4 0 0 1 1.67 0a1.38 1.38 0 0 1 .43.07.84.84 0 0 1 .28.2.67.67 0 0 1 .16.27 1 1 0 0 1 0 .29V.9h.23V.83a.93.93 0 0 1 .1-.29A.61.61 0 0 1 3 .27a.75.75 0 0 1 .28-.2A1.33 1.33 0 0 1 3.74 0a1.29 1.29 0 0 1 .43.07.79.79 0 0 1 .29.2.69.69 0 0 1 .17.27 1 1 0 0 1 0 .29V.9h.23V.83A.93.93 0 0 1 5 .54a.72.72 0 0 1 .12-.27.84.84 0 0 1 .28-.2A1.35 1.35 0 0 1 5.84 0a1.38 1.38 0 0 1 .43.07.84.84 0 0 1 .28.2.81.81 0 0 1 .16.27 1 1 0 0 1 0 .29V.9zM2.11 2.77H.76V4h1.35zm0 1.39H.76v1.21h1.35zm0 1.39H.76v1.2h1.35zM1.3 1.93c0 .18.12.27.37.27S2 2.11 2 1.93V.83q0-.27-.33-.27c-.25 0-.37.09-.37.27zm2.36.84H2.29V4h1.37zm0 1.39H2.29v1.21h1.37zm0 1.39H2.29v1.2h1.37zm-.27-3.62a.25.25 0 0 0 .08.2.38.38 0 0 0 .27.07.41.41 0 0 0 .26-.07.23.23 0 0 0 .09-.2V.83A.23.23 0 0 0 4 .63a.41.41 0 0 0-.26-.07.38.38 0 0 0-.27.07.26.26 0 0 0-.08.2v1.1zm1.81.84H3.84V4H5.2zm0 1.39H3.84v1.21H5.2zm0 1.39H3.84v1.2H5.2zm1.55-2.78H5.39V4h1.36zm0 1.39H5.39v1.21h1.36zm0 1.39H5.39v1.2h1.36zM5.47 1.93c0 .18.12.27.37.27s.36-.09.35-.27V.83c0-.18-.12-.27-.35-.27s-.37.09-.37.27z"/></symbol><symbol id="icon_car" viewBox="0 0 6.62 4.36"><path d="M5 .5l.28.69h-3.9L1.65.5H5m.06-.5h-3.5a.38.38 0 0 0-.35.24L.64 1.69H6L5.41.24A.38.38 0 0 0 5.06 0z"/><rect x=".41" y="2.89" width=".93" height="1.47" rx=".2" ry=".2"/><rect x="5.28" y="2.89" width=".93" height="1.47" rx=".2" ry=".2"/><rect y="1.15" width=".61" height=".38" rx=".17" ry=".17"/><rect x="6.01" y="1.15" width=".61" height=".38" rx=".17" ry=".17"/><path d="M5.26 1.3h-3.9A1.09 1.09 0 0 0 .27 2.39v.31a1.09 1.09 0 0 0 1.09 1.09h3.9A1.09 1.09 0 0 0 6.35 2.7v-.31A1.09 1.09 0 0 0 5.26 1.3zm-3.9 1.3H.71a.27.27 0 0 1 0-.53h.65a.27.27 0 0 1 0 .53zm3.16-.07a.26.26 0 0 1-.26.26H2.37a.27.27 0 0 1-.27-.26v-.19a.27.27 0 0 1 .27-.27h1.89a.27.27 0 0 1 .26.27zm1.39.07h-.65a.27.27 0 0 1 0-.53h.65a.27.27 0 0 1 0 .53z"/></symbol><symbol id="icon_card" viewBox="0 0 11.25 9"><path d="M10.31 0a.87.87 0 0 1 .69.28.87.87 0 0 1 .28.66v7.12a1 1 0 0 1-.94.94H.94a.87.87 0 0 1-.66-.28.87.87 0 0 1-.28-.66V.94A.87.87 0 0 1 .28.28.87.87 0 0 1 .94 0zM.94.75A.19.19 0 0 0 .81.8a.2.2 0 0 0-.06.14v1.31h9.75V.94a.2.2 0 0 0-.06-.14.19.19 0 0 0-.13-.05zm9.37 7.5a.21.21 0 0 0 .19-.19V4.5H.75v3.56a.16.16 0 0 0 .06.13.16.16 0 0 0 .13.06zM1.5 7.5v-.75H3v.75zm2.25 0v-.75H6v.75z"/></symbol><symbol id="icon_chat-arrow" viewBox="0 0 14.54 14"><path d="M0 0l.98 5.48L7.81 7 .98 8.52 0 14l14.54-7L0 0z"/></symbol><symbol id="icon_chat" viewBox="0 0 31 29"><path d="M5.223 29c-.15 0-.3-.039-.488-.077a1.531 1.531 0 0 1-.902-1.394v-7.512H1.428c-.79 0-1.428-.658-1.428-1.47V4.684C0 2.09 2.03 0 4.547 0h21.869C28.933 0 31 2.09 31 4.685v10.609c0 2.594-2.03 4.685-4.547 4.685h-13.49l-6.65 8.479a1.374 1.374 0 0 1-1.09.542zM2.818 17.113h2.405c.79 0 1.428.659 1.428 1.472v4.878l4.547-5.769a1.374 1.374 0 0 1 1.09-.542h14.128c.977 0 1.728-.813 1.728-1.78V4.684c0-1.007-.789-1.781-1.728-1.781H4.546c-.976 0-1.728.813-1.728 1.78v12.43z"/></symbol><symbol id="icon_check-form" viewBox="0 0 7.48 6.79"><path d="M5.08 4.15A.4.4 0 0 1 4.79 4L3.43 2.31a.38.38 0 0 1 0-.53.37.37 0 0 1 .57.06l1 1.31L6.79.71a.38.38 0 0 1 .62.43L5.39 4a.43.43 0 0 1-.3.16zM3.42 5.39H1.5a.38.38 0 0 1 0-.75h1.92a.38.38 0 1 1 0 .75zm-.54-1.24H1.5a.37.37 0 0 1-.37-.38.36.36 0 0 1 .37-.37h1.38a.37.37 0 0 1 .37.37.38.38 0 0 1-.37.38z"/><path d="M5 6.79H.38A.37.37 0 0 1 0 6.42v-6A.38.38 0 0 1 .38 0H5a.38.38 0 0 1 .38.38v1.06a.38.38 0 0 1-.75 0V.75H.75V6h3.91V5a.38.38 0 0 1 .75 0v1.42a.37.37 0 0 1-.41.37z"/></symbol><symbol id="icon_check" viewBox="0 0 15.12 13.88"><path d="M5.17 13.88L.31 8.4a1.2 1.2 0 0 1 .25-1.82 1.58 1.58 0 0 1 2.05.21l2.46 2.78 7.41-9a1.57 1.57 0 0 1 2-.29 1.21 1.21 0 0 1 .32 1.82L5.17 13.88z"/></symbol><symbol id="icon_check2" viewBox="0 0 10.83 10.95"><path d="M9.83 1L4.24 9.95m0 1.05a1 1 0 0 1-.53-.15 1 1 0 0 1-.32-1.38L9 .47a1 1 0 0 1 1.7 1.06l-5.59 9a1 1 0 0 1-.87.47zm0-1.05L1 5.24"/><path d="M4.24 11a1 1 0 0 1-.82-.43L.18 5.81a1 1 0 0 1 1.64-1.14l3.24 4.71a1 1 0 0 1-.25 1.4 1.08 1.08 0 0 1-.57.22z"/></symbol><symbol id="icon_check3" viewBox="0 0 20 15"><path fill-rule="evenodd" clip-rule="evenodd" d="M19.55.465c.606.614.6 1.603-.015 2.209L7.03 15 .465 8.53A1.561 1.561 0 1 1 2.66 6.304l4.37 4.308L17.34.45a1.563 1.563 0 0 1 2.21.015z"/></symbol><symbol id="icon_childcare" viewBox="0 0 15 24"><path d="M9.5 19h-4a.52.52 0 0 1-.44-.25.54.54 0 0 1 0-.51l1.25-2.08C2.18 13.54 0 10.73 0 8c0-4.64 3.15-8 7.5-8S15 3.36 15 8c0 2.73-2.18 5.54-6.32 8.16l1.25 2.08a.54.54 0 0 1 0 .51.52.52 0 0 1-.43.25zm-3.12-1h2.24l-1-1.74A.47.47 0 0 1 7.5 16a.47.47 0 0 1-.07.25zM7.5 1C3.67 1 1 3.88 1 8c0 2.42 2.22 5.1 6.26 7.57a.52.52 0 0 1 .24.43.52.52 0 0 1 .24-.42C11.78 13.1 14 10.42 14 8c0-4.12-2.67-7-6.5-7z"/><path d="M11.5 24a.5.5 0 0 1-.5-.5v-2a.5.5 0 0 0-1 0 1.5 1.5 0 0 1-3 0v-3a.5.5 0 0 1 1 0v3a.5.5 0 0 0 1 0 1.5 1.5 0 0 1 3 0v2a.5.5 0 0 1-.5.5zm-9-16a.5.5 0 0 1-.5-.5A5.51 5.51 0 0 1 7.5 2a.5.5 0 0 1 0 1A4.51 4.51 0 0 0 3 7.5a.5.5 0 0 1-.5.5z"/></symbol><symbol id="icon_clock" viewBox="0 0 7.64 7.65"><path d="M3.82 0a3.71 3.71 0 0 1 1.49.3 3.8 3.8 0 0 1 1.22.82 3.72 3.72 0 0 1 1.11 2.71 3.77 3.77 0 0 1-.29 1.49 3.87 3.87 0 0 1-.82 1.21 3.8 3.8 0 0 1-1.22.82 3.71 3.71 0 0 1-1.49.3 3.78 3.78 0 0 1-2.7-1.12A3.87 3.87 0 0 1 .3 5.32a3.88 3.88 0 0 1 0-3 3.87 3.87 0 0 1 2-2A3.74 3.74 0 0 1 3.82 0m0 6.5a2.59 2.59 0 0 0 1.05-.21 2.88 2.88 0 0 0 .85-.57 2.88 2.88 0 0 0 .57-.85 2.58 2.58 0 0 0 .21-1 2.59 2.59 0 0 0-.21-1.05 2.88 2.88 0 0 0-.57-.85 2.88 2.88 0 0 0-.85-.57 2.66 2.66 0 0 0-1.05-.21 2.58 2.58 0 0 0-1 .21 2.65 2.65 0 0 0-.85.57 2.88 2.88 0 0 0-.57.85 2.59 2.59 0 0 0-.21 1.05 2.58 2.58 0 0 0 .21 1 2.88 2.88 0 0 0 .57.85 2.65 2.65 0 0 0 .85.57 2.58 2.58 0 0 0 1 .21m1.33-2.67a.36.36 0 0 1 .27.11.37.37 0 0 1 .11.27v.38a.37.37 0 0 1-.11.27.36.36 0 0 1-.27.14H3.42a.36.36 0 0 1-.27-.11.37.37 0 0 1-.15-.3V2.36a.36.36 0 0 1 .11-.26.37.37 0 0 1 .31-.1h.39a.34.34 0 0 1 .27.12.35.35 0 0 1 .1.26v1.45z"/></symbol><symbol id="icon_coffe" viewBox="0 0 24 24"><path d="M23.5 24H.5a.5.5 0 0 1-.5-.5v-3a.5.5 0 0 1 .5-.5H10v-9H3.5a.5.5 0 0 1-.5-.5V.5a.5.5 0 0 1 .5-.5H22a2 2 0 0 1 2 2v21.5a.5.5 0 0 1-.5.5zM1 23h22V2a1 1 0 0 0-1-1H4v9h6.5a.5.5 0 0 1 .5.5v10a.5.5 0 0 1-.5.5H1z"/><path d="M19 23.5h-1v-11a.5.5 0 0 1 .5-.5h5v1H19zM23.5 6h-6a.5.5 0 0 1 0-1h6a.5.5 0 0 1 0 1zm0 2h-6a.5.5 0 0 1 0-1h6a.5.5 0 0 1 0 1zm0 2h-6a.5.5 0 0 1 0-1h6a.5.5 0 0 1 0 1zm-15 7h-4a.5.5 0 0 1-.5-.5V14a.5.5 0 0 1 .5-.5h4a.5.5 0 0 1 .5.5v2.5a.5.5 0 0 1-.5.5zM5 16h3v-1.5H5z"/><path d="M4.5 16h-4a.5.5 0 0 1 0-1h4a.5.5 0 0 1 0 1zM7 10.5h1V14H7zm-2 0h1V14H5zM7 6a2 2 0 1 1 2-2 2 2 0 0 1-2 2zm0-3a1 1 0 1 0 1 1 1 1 0 0 0-1-1zm-.5 15a.5.5 0 0 1-.5-.5v-1a.5.5 0 0 1 1 0v1a.5.5 0 0 1-.5.5z"/></symbol><symbol id="icon_cross" viewBox="0 0 15.36 15.36"><path transform="rotate(135 7.684 7.682)" d="M-2.43 6.94H17.8v1.49H-2.43z"/><path transform="rotate(45 7.679 7.68)" d="M-2.43 6.94H17.8v1.49H-2.43z"/></symbol><symbol id="icon_document" viewBox="0 0 5.88 7.35"><path d="M3.31 0a.88.88 0 0 1 .34.08.9.9 0 0 1 .29.18l1.68 1.68a1 1 0 0 1 .19.29.86.86 0 0 1 .07.34V7a.38.38 0 0 1-.1.27.37.37 0 0 1-.26.1H.37a.35.35 0 0 1-.26-.1A.39.39 0 0 1 0 7V.36A.34.34 0 0 1 .11.11.36.36 0 0 1 .37 0zm1.84 3.3H3a.33.33 0 0 1-.25-.1.39.39 0 0 1-.11-.27V.74H.74v5.88h4.41zM1.28 4H4.6v.5H1.28zm0 1.29H4.6v.55H1.28zm3.87-2.72v-.12L3.42.79h-.06v1.78z"/></symbol><symbol id="icon_download" viewBox="0 0 7.4 7.28"><path d="M3.92 7.19a.31.31 0 0 1-.44 0L.06 3.77a.19.19 0 0 1 0-.28l.25-.25a.19.19 0 0 1 .28 0l2.89 2.89a.31.31 0 0 0 .44 0l2.89-2.9a.19.19 0 0 1 .28 0l.25.25a.19.19 0 0 1 0 .28z"/><rect x="3.32" width=".75" height="6.55" rx=".2" ry=".2"/></symbol><symbol id="icon_exclamation" viewBox="0 0 5.41 6.79"><g clip-path="url(#a)"><path d="M5 6.79H.38A.37.37 0 0 1 0 6.42v-6A.38.38 0 0 1 .38 0H5a.38.38 0 0 1 .38.38v6a.37.37 0 0 1-.38.41zM.75 6h3.91V.75H.75z"/></g><path d="M2.7 5.35A.34.34 0 0 1 2.33 5v-.07a.38.38 0 0 1 .75 0 .42.42 0 0 1-.38.42zm0-1.2a.38.38 0 0 1-.37-.38V1.53a.38.38 0 1 1 .75 0v2.24a.38.38 0 0 1-.38.38z"/></symbol><symbol id="icon_eye" viewBox="0 0 8.83 5.88"><g clip-path="url(#a)"><path d="M8.72 2.55a.77.77 0 0 1 .11.39.88.88 0 0 1-.11.39 6.31 6.31 0 0 1-.87 1.09 5.59 5.59 0 0 1-1 .8 4.71 4.71 0 0 1-2.41.66 4.7 4.7 0 0 1-1.24-.17 4.57 4.57 0 0 1-1.2-.5 5.65 5.65 0 0 1-1-.8 6 6 0 0 1-.88-1.08.69.69 0 0 1 0-.78A6 6 0 0 1 1 1.47a5.65 5.65 0 0 1 1-.8 4.57 4.57 0 0 1 1.17-.5A4.7 4.7 0 0 1 4.41 0a4.71 4.71 0 0 1 2.41.66 5.59 5.59 0 0 1 1 .8 6.31 6.31 0 0 1 .87 1.09m-4.28 2.6A4 4 0 0 0 5.51 5a4.4 4.4 0 0 0 1-.44 4.38 4.38 0 0 0 .87-.7 5.34 5.34 0 0 0 .72-.91 5 5 0 0 0-.9-1.08 4 4 0 0 0-1.13-.75 2.12 2.12 0 0 1 .38.63 2.15 2.15 0 0 1 .14.77 2.19 2.19 0 0 1-.17.85 2.28 2.28 0 0 1-.48.71 2.1 2.1 0 0 1-.7.47 2.11 2.11 0 0 1-.86.18 2.07 2.07 0 0 1-.86-.18 2.33 2.33 0 0 1-.7-.47 2.25 2.25 0 0 1-.47-.71 2 2 0 0 1-.17-.85 2.08 2.08 0 0 1 .12-.71 2.3 2.3 0 0 1 .33-.62 4.55 4.55 0 0 0-1 .73 5 5 0 0 0-.84 1 6.34 6.34 0 0 0 .71.91 4.38 4.38 0 0 0 .87.7 4.68 4.68 0 0 0 1 .44 3.94 3.94 0 0 0 1.09.16m0-4.07a1.36 1.36 0 0 0-.56.11 1.42 1.42 0 0 0-.45.3 1.49 1.49 0 0 0-.4.53 1.51 1.51 0 0 0-.11.56.29.29 0 0 0 .06.14.28.28 0 0 0 .2.08.26.26 0 0 0 .19-.08.29.29 0 0 0 .08-.19.86.86 0 0 1 .26-.63.83.83 0 0 1 .62-.25.25.25 0 0 0 .2-.09.27.27 0 0 0 .08-.19.28.28 0 0 0-.08-.2.27.27 0 0 0-.2-.07"/></g></symbol><symbol id="icon_f-bar" viewBox="0 0 23 24"><path d="M7.5 14.5a3 3 0 0 1-3-3 4.5 4.5 0 0 1 0-9 4.42 4.42 0 0 1 1.86.41 6 6 0 0 1 10.28 0 4.42 4.42 0 0 1 1.86-.41 4.5 4.5 0 1 1-2.94 7.91 6 6 0 0 1-5.09 1.5A3 3 0 0 1 7.5 14.5zm-2.44-4a.51.51 0 0 1 .37.16.49.49 0 0 1 .12.45 2.18 2.18 0 0 0 0 .43 2 2 0 0 0 4 0v-.18a.49.49 0 0 1 .18-.42.51.51 0 0 1 .46-.1 5 5 0 0 0 5.07-1.43.48.48 0 0 1 .37-.17.5.5 0 0 1 .37.17 3.45 3.45 0 0 0 2.5 1.09A3.5 3.5 0 1 0 16.69 4a.51.51 0 0 1-.4 0 .53.53 0 0 1-.29-.2 5 5 0 0 0-9 0 .53.53 0 0 1-.31.26.51.51 0 0 1-.4 0A3.5 3.5 0 1 0 4.5 10.5a4.21 4.21 0 0 0 .5 0z"/><path d="M20.14 19h-1.85v-1h1.85a1.43 1.43 0 0 0 1.36-1.5v-3A1.5 1.5 0 0 0 20 12h-2.5v-1H20a2.5 2.5 0 0 1 2.5 2.5v3a2.44 2.44 0 0 1-2.36 2.5zM19 24H4a2 2 0 0 1 0-4h15a2 2 0 0 1 0 4zM4 21a1 1 0 0 0 0 2h15a1 1 0 0 0 0-2z"/><path d="M4.5 21h-.07a.51.51 0 0 1-.43-.57l1-7.5a.52.52 0 0 1 .57-.43.51.51 0 0 1 .43.57l-1 7.5a.51.51 0 0 1-.5.43zm14 0a.51.51 0 0 1-.5-.45l-1-9.63a.49.49 0 0 1 .45-.54.5.5 0 0 1 .55.44l1 9.63a.5.5 0 0 1-.45.55zM15 19a.51.51 0 0 1-.5-.45l-.5-5a.51.51 0 0 1 .45-.55.5.5 0 0 1 .55.45l.5 5a.51.51 0 0 1-.45.55zm-3.5 0a.5.5 0 0 1-.5-.5v-5a.5.5 0 0 1 1 0v5a.5.5 0 0 1-.5.5zM8 19h-.06a.51.51 0 0 1-.44-.56l.5-4.5a.5.5 0 0 1 .56-.44.51.51 0 0 1 .44.56l-.5 4.5A.51.51 0 0 1 8 19z"/></symbol><symbol id="icon_f-cafe" viewBox="0 0 14 24"><path d="M10.5 24a.5.5 0 0 1-.5-.5V.5a.5.5 0 0 1 1 0v23a.5.5 0 0 1-.5.5z"/><path d="M13.5 16h-3a.5.5 0 0 1 0-1H13c-.07-8.25-1.76-13.76-2.52-14A.49.49 0 0 1 10 .5a.5.5 0 0 1 .5-.5C12.75 0 14 9.17 14 15.5a.5.5 0 0 1-.5.5zm-10-7A3.5 3.5 0 0 1 0 5.5v-5A.5.5 0 0 1 .5 0a.5.5 0 0 1 .5.5v5a2.5 2.5 0 0 0 5 0v-5a.5.5 0 0 1 1 0v5A3.5 3.5 0 0 1 3.5 9z"/><path d="M3.5 24a.5.5 0 0 1-.5-.5V.5a.5.5 0 0 1 1 0v23a.5.5 0 0 1-.5.5z"/></symbol><symbol id="icon_f-chair" viewBox="0 0 24 24"><path d="M5 14a.5.5 0 0 1-.49-.42l-.94-6.09A6.5 6.5 0 0 1 10 0h4a6.5 6.5 0 0 1 6.43 7.49l-.94 6.09a.5.5 0 1 1-1-.16l.93-6.09A5.5 5.5 0 0 0 14 1h-4a5.5 5.5 0 0 0-5.44 6.33l.93 6.09a.49.49 0 0 1-.41.57zm1.5 10a.5.5 0 0 1-.5-.5v-1a.5.5 0 0 1 1 0v1a.5.5 0 0 1-.5.5zm11 0a.5.5 0 0 1-.5-.5v-1a.5.5 0 0 1 1 0v1a.5.5 0 0 1-.5.5z"/><path d="M18.5 23h-13A3.5 3.5 0 0 1 2 19.5v-2a.75.75 0 0 0-.46-.69A2.5 2.5 0 0 1 2.5 12a4 4 0 0 1 4 4v.73A16.54 16.54 0 0 1 12 16a16.54 16.54 0 0 1 5.5.73V16a4 4 0 0 1 4-4 2.5 2.5 0 0 1 1 4.81.74.74 0 0 0-.46.69v2A3.5 3.5 0 0 1 18.5 23zm-16-10a1.5 1.5 0 0 0-.58 2.89A1.73 1.73 0 0 1 3 17.5v2A2.5 2.5 0 0 0 5.5 22h13a2.5 2.5 0 0 0 2.5-2.5v-2a1.73 1.73 0 0 1 1.08-1.61A1.5 1.5 0 0 0 21.5 13a3 3 0 0 0-3 3v1.5a.5.5 0 0 1-.78.42S16.23 17 12 17s-5.71.91-5.73.92a.49.49 0 0 1-.51 0 .51.51 0 0 1-.26-.44V16a3 3 0 0 0-3-3zM15 10.5a.57.57 0 0 1-.28-.08l-1.5-1a.51.51 0 0 1 0-.84l1.5-1a.5.5 0 1 1 .56.84L14.4 9l.88.58a.51.51 0 0 1 .14.7.52.52 0 0 1-.42.22zm-6 0a.52.52 0 0 1-.42-.22.51.51 0 0 1 .14-.7L9.6 9l-.88-.58a.5.5 0 1 1 .56-.84l1.5 1a.51.51 0 0 1 0 .84l-1.5 1a.57.57 0 0 1-.28.08z"/><path d="M12 11a2 2 0 1 1 2-2 2 2 0 0 1-2 2zm0-3a1 1 0 1 0 1 1 1 1 0 0 0-1-1z"/></symbol><symbol id="icon_f-cleaning" viewBox="0 0 15.66 30.13"><path d="M12.58 30.13h-9.5a3.22 3.22 0 0 1-2.35-1 2.6 2.6 0 0 1-.72-2c.44-6.27 2.39-11.5 4.13-13.89C6 10.65 5.85 6.46 5.85 6.41A.57.57 0 0 1 6 6a.51.51 0 0 1 .36-.15h3a.51.51 0 0 1 .31.15.57.57 0 0 1 .14.37s-.17 4.24 1.71 6.83c1.74 2.39 3.69 7.62 4.13 13.91a2.57 2.57 0 0 1-.72 2 3.22 3.22 0 0 1-2.35 1.02zM6.86 6.89c0 1.28-.22 4.61-1.91 6.94S1.43 21.16 1 27.22a1.63 1.63 0 0 0 .46 1.23 2.21 2.21 0 0 0 1.62.68h9.5a2.21 2.21 0 0 0 1.62-.68 1.63 1.63 0 0 0 .46-1.23c-.43-6.06-2.34-11.19-3.95-13.39C9 11.5 8.82 8.17 8.8 6.89zM9.34 5.8H6a.5.5 0 0 1-.5-.5V.5A.5.5 0 0 1 6 0h3.34a.5.5 0 0 1 .5.5v4.8a.5.5 0 0 1-.5.5zm-2.86-1h2.36V1H6.48z"/><path d="M6 3.4H2.84a.5.5 0 0 1-.5-.5V.5a.5.5 0 0 1 .5-.5H6a.5.5 0 0 1 .5.5v2.4a.5.5 0 0 1-.5.5zm-2.64-1h2.12V1H3.34zM1 12.27a.5.5 0 0 1-.27-.92c2.7-1.64 2.76-6.79 2.76-6.84A.5.5 0 0 1 4 4a.5.5 0 0 1 .49.5c0 .24-.06 5.76-3.22 7.69a.54.54 0 0 1-.27.08z"/><path d="M2.84 3.4H2.7l-1.64-.49a.51.51 0 0 1-.37-.48V1A.5.5 0 0 1 1 .57L2.68 0a.5.5 0 0 1 .63.31A.51.51 0 0 1 3 1l-1.3.43v.64l1.3.35a.5.5 0 0 1-.13 1z"/></symbol><symbol id="icon_f-disabled" viewBox="0 0 19 24"><path d="M16.5 22c-.61 0-.75-.67-1.15-2.44a11.54 11.54 0 0 0-.92-3.06c-.9.05-5.42.91-8.33 1.49a.49.49 0 0 1-.39-.08.53.53 0 0 1-.21-.35L4 6.06a.51.51 0 0 1 .44-.56.52.52 0 0 1 .56.44l1.43 11c1.81-.36 7.17-1.41 8.07-1.41s1.31 1.46 1.83 3.84c.12.56.28 1.29.4 1.63a13.57 13.57 0 0 0 1.61-.44.5.5 0 1 1 .32.94 10.65 10.65 0 0 1-2.16.5z"/><path d="M5.9 24A6 6 0 0 1 0 18a6.16 6.16 0 0 1 4.8-5.94.33.33 0 0 0 .13 0 1.62 1.62 0 0 1 .42-.1l.05 1-.13.04-.3.08A5.18 5.18 0 0 0 1 18a5 5 0 0 0 4.9 5 5.18 5.18 0 0 0 5.1-5v-1.55h1V18a6.13 6.13 0 0 1-6.1 6zM4.23 6.46a3.23 3.23 0 1 1 3.23-3.23 3.23 3.23 0 0 1-3.23 3.23zm0-5.46a2.23 2.23 0 1 0 2.23 2.23A2.23 2.23 0 0 0 4.23 1z"/><path d="M5 13a.51.51 0 0 1-.49-.38.5.5 0 0 1 .37-.6l6-1.5a.5.5 0 0 1 .61.36.5.5 0 0 1-.37.6l-6 1.5A.25.25 0 0 1 5 13z"/></symbol><symbol id="icon_f-fruit" viewBox="0 0 20 24"><path d="M13.5 24c-1.8 0-2.33-.34-2.79-.75A.81.81 0 0 0 10 23a.81.81 0 0 0-.71.25c-.46.41-1 .75-2.79.75C3 24 0 17.46 0 13.5 0 9.29 2.64 6 6 6a5.78 5.78 0 0 1 3.36.76 1 1 0 0 0 1.28 0A5.78 5.78 0 0 1 14 6c3.36 0 6 3.29 6 7.5 0 3.96-3 10.5-6.5 10.5zM10 22a1.76 1.76 0 0 1 1.37.5c.26.23.56.5 2.13.5 2.6 0 5.5-5.66 5.5-9.5C19 9.86 16.8 7 14 7a4.85 4.85 0 0 0-2.86.63A2.11 2.11 0 0 1 10 8a2.11 2.11 0 0 1-1.14-.37A4.85 4.85 0 0 0 6 7c-2.8 0-5 2.86-5 6.5C1 17.34 3.9 23 6.5 23c1.57 0 1.87-.27 2.13-.5A1.76 1.76 0 0 1 10 22z"/><path d="M10 8a.5.5 0 0 1-.5-.5v-2A1.5 1.5 0 0 0 8 4H6a.5.5 0 0 1 0-1h2a2.5 2.5 0 0 1 2.5 2.5v2a.5.5 0 0 1-.5.5zm2-2.5a.5.5 0 0 1-.5-.5 5 5 0 0 1 5-5 .5.5 0 0 1 .5.5 5 5 0 0 1-5 5zM16 1a4 4 0 0 0-3.42 3.42A4 4 0 0 0 16 1z"/></symbol><symbol id="icon_f-furniture" viewBox="0 0 22 27.35"><path d="M4.5 16.25a.5.5 0 0 1-.5-.5v-10a.5.5 0 0 1 1 0v10a.5.5 0 0 1-.5.5zm13 0a.5.5 0 0 1-.5-.5V6a.5.5 0 0 1 1 0v9.75a.5.5 0 0 1-.5.5z"/><path d="M17.5 11.25h-13a.5.5 0 0 1-.5-.5v-5a.5.5 0 0 1 .5-.5h13a.5.5 0 0 1 .5.5v5a.5.5 0 0 1-.5.5zm-12.5-1h12v-4H5zm14.5 9h-17a.5.5 0 0 1-.42-.78l2-3a.51.51 0 0 1 .42-.22h13a.51.51 0 0 1 .42.22l2 3a.5.5 0 0 1-.42.78zm-16.07-1h15.14l-1.34-2H4.77z"/><path d="M2.5 19.25a.5.5 0 0 1-.5-.5v-5a.5.5 0 0 1 1 0v5a.5.5 0 0 1-.5.5z"/><path d="M4.5 14.25h-4a.5.5 0 0 1 0-1h4a.5.5 0 0 1 0 1zm15 5a.5.5 0 0 1-.5-.5v-5a.5.5 0 0 1 1 0v5a.5.5 0 0 1-.5.5z"/><path d="M21.5 14.25h-4a.5.5 0 0 1 0-1h4a.5.5 0 0 1 0 1zM11 24.58a.5.5 0 0 1-.5-.5v-5.33a.5.5 0 0 1 1 0v5.33a.5.5 0 0 1-.5.5z"/><path d="M17.49 24.92h-13a.5.5 0 0 1-.5-.5.5.5 0 0 1 .5-.5h13a.5.5 0 0 1 .5.5.5.5 0 0 1-.5.5zM3.35 26.77a.5.5 0 0 1-.5-.5V25.1a.51.51 0 0 1 .5-.5.5.5 0 0 1 .5.5v1.17a.5.5 0 0 1-.5.5zm15.28 0a.5.5 0 0 1-.5-.5V25.1a.5.5 0 0 1 .5-.5.51.51 0 0 1 .5.5v1.17a.5.5 0 0 1-.5.5zm-7.63.58a.5.5 0 0 1-.5-.5v-1.16a.5.5 0 0 1 1 0v1.16a.5.5 0 0 1-.5.5zm3.05-22.98H7.93a.5.5 0 0 1-.5-.5V.5a.5.5 0 0 1 .5-.5h6.12a.5.5 0 0 1 .5.5v3.37a.5.5 0 0 1-.5.5zm-5.62-1h5.12V1H8.43z"/></symbol><symbol id="icon_f-mail" viewBox="0 0 24 24"><path d="M20.5 17H.5a.5.5 0 0 1-.5-.5v-6A4.51 4.51 0 0 1 4.5 6h10a.5.5 0 0 1 0 1h-10A3.5 3.5 0 0 0 1 10.5V16h19V7h-1.5a.5.5 0 0 1 0-1h2a.5.5 0 0 1 .5.5v10a.5.5 0 0 1-.5.5z"/><path d="M11.5 24a.5.5 0 0 1-.5-.5v-7a.5.5 0 0 1 1 0v7a.5.5 0 0 1-.5.5zm5-14a.5.5 0 0 1-.5-.5v-9a.5.5 0 0 1 1 0v9a.5.5 0 0 1-.5.5z"/><path d="M16.5 4h-5a.5.5 0 0 1-.5-.5v-3a.5.5 0 0 1 .5-.5h5a.5.5 0 0 1 .5.5v3a.5.5 0 0 1-.5.5zM12 3h4V1h-4zm10.5 13h-2a.5.5 0 0 1-.5-.5v-6a.5.5 0 0 1 .5-.5h3a.46.46 0 0 1 .38.18.46.46 0 0 1 .11.4l-1 6a.5.5 0 0 1-.49.42zM21 15h1.08l.83-5H21z"/></symbol><symbol id="icon_f-meetings" viewBox="0 0 24 23"><path d="M5.5 12.5a.59.59 0 0 1-.22-.05A.5.5 0 0 1 5 12V9H.5a.5.5 0 0 1-.5-.5v-8A.5.5 0 0 1 .5 0h23a.5.5 0 0 1 .5.5v8a.5.5 0 0 1-.5.5H10.17l-4.36 3.39a.51.51 0 0 1-.31.11zM1 8h4.5a.5.5 0 0 1 .5.5V11l3.69-2.89A.51.51 0 0 1 10 8h13V1H1z"/><path d="M18.5 23a.46.46 0 0 1-.33-.13L13.81 19H.5a.5.5 0 0 1-.5-.5v-7a.5.5 0 0 1 .5-.5H3a.5.5 0 0 1 0 1H1v6h13a.46.46 0 0 1 .33.13L18 21.39V18.5a.5.5 0 0 1 .5-.5H23v-6H10.5a.5.5 0 0 1 0-1h13a.5.5 0 0 1 .5.5v7a.5.5 0 0 1-.5.5H19v3.5a.51.51 0 0 1-.3.46.45.45 0 0 1-.2.04z"/></symbol><symbol id="icon_f-parking" viewBox="0 0 27.84 17.97"><path d="M4.5 18A2.5 2.5 0 1 1 7 15.47 2.5 2.5 0 0 1 4.5 18zm0-4A1.5 1.5 0 1 0 6 15.47 1.5 1.5 0 0 0 4.5 14zm19 2h-3a.5.5 0 0 1 0-1h3a.5.5 0 0 1 0 1z"/><path d="M18.5 18a2.5 2.5 0 1 1 2.5-2.5 2.5 2.5 0 0 1-2.5 2.5zm0-4a1.5 1.5 0 1 0 1.5 1.5 1.5 1.5 0 0 0-1.5-1.5z"/><path d="M16.5 16h-10a.5.5 0 1 1 0-1h10a.5.5 0 0 1 0 1z"/><path d="M22.5 16a.5.5 0 0 1-.5-.5V12a1 1 0 0 0-1-1h-1.5a.51.51 0 0 1-.45-.28L17.19 7H8.31l-1.86 3.69A.51.51 0 0 1 6 11H2a1 1 0 0 0-1 1v3h1.5a.5.5 0 0 1 0 1h-2a.5.5 0 0 1-.5-.5V12a2 2 0 0 1 2-2h3.69l1.86-3.75A.51.51 0 0 1 8 6h9.5a.51.51 0 0 1 .45.28L19.81 10H21a2 2 0 0 1 2 2v3.5a.5.5 0 0 1-.5.5z"/><path d="M8.5 11a.54.54 0 0 1-.22-.05.51.51 0 0 1-.23-.67l1-2A.51.51 0 0 1 9.5 8h1a.5.5 0 1 1 0 1h-.69L9 10.69a.5.5 0 0 1-.5.31zM24 4.51h-.92a.5.5 0 0 1-.5-.5.5.5 0 0 1 .5-.5H24a.58.58 0 0 0 .58-.58.57.57 0 0 0-.58-.57h-.9v-.45l-.47-.16a.58.58 0 0 1 .49-.39H24a1.58 1.58 0 1 1 0 3.15z"/><path d="M23.08 6.41a.5.5 0 0 1-.5-.5v-4a.5.5 0 0 1 .5-.5.5.5 0 0 1 .5.5v4a.5.5 0 0 1-.5.5z"/><path d="M26.45 7.77h-5a1.4 1.4 0 0 1-1.4-1.4v-5A1.4 1.4 0 0 1 21.48 0h5a1.4 1.4 0 0 1 1.39 1.4v5a1.4 1.4 0 0 1-1.42 1.37zM21.48 1a.4.4 0 0 0-.4.4v5a.4.4 0 0 0 .4.4h5a.39.39 0 0 0 .39-.4v-5a.39.39 0 0 0-.39-.4z"/></symbol><symbol id="icon_f-pets" viewBox="0 0 27.81 26.23"><path d="M9.16 10.38a1.91 1.91 0 0 0-.68.13.93.93 0 0 1 .44.78 1 1 0 0 1-1 .94 1 1 0 0 1-.59-.23 2.11 2.11 0 0 0 0 .25 1.85 1.85 0 1 0 1.85-1.85zm8.84 0a1.91 1.91 0 0 0-.68.13.93.93 0 0 1 .44.78 1 1 0 0 1-.95.94 1 1 0 0 1-.64-.25 2.11 2.11 0 0 0 0 .25A1.85 1.85 0 1 0 18 10.38zm-4.24 7.87a.5.5 0 0 1-.39-.18l-1.83-2.2a.5.5 0 0 1 .38-.82h3.67a.5.5 0 0 1 .39.82l-1.84 2.2a.46.46 0 0 1-.38.18zm-.76-2.2l.77.92.77-.92zM3.13 8a.5.5 0 0 1-.49-.46c-.08-1-.43-6 .71-7.32A.49.49 0 0 1 4 .08a21.87 21.87 0 0 1 4.78 4.1.5.5 0 0 1-.78.62 21.2 21.2 0 0 0-4.09-3.59c-.47 1.25-.43 4.33-.28 6.21a.5.5 0 0 1-.45.58z"/><path d="M4.65 7a.51.51 0 0 1-.5-.47V3.37a.52.52 0 0 1 .51-.49.49.49 0 0 1 .49.5v3.1a.49.49 0 0 1-.47.52zm19.71 1a.51.51 0 0 1-.46-.54c.15-1.88.19-5-.27-6.21a21 21 0 0 0-4.1 3.59.5.5 0 0 1-.78-.62A21.87 21.87 0 0 1 23.49.08a.49.49 0 0 1 .65.1c1.14 1.35.8 6.33.71 7.32a.5.5 0 0 1-.49.5z"/><path d="M22.84 7a.49.49 0 0 1-.47-.52v-3.1a.49.49 0 0 1 .49-.5.52.52 0 0 1 .51.49v3.16a.51.51 0 0 1-.53.47zm-8.93 19.23c-6.76 0-9.65-3.32-13.8-8.66a.51.51 0 0 1-.11-.38.52.52 0 0 1 .21-.33c.79-.56 1.69-4.08 2.24-6.19.24-.9.45-1.7.62-2.26a.5.5 0 0 1 .63-.32.49.49 0 0 1 .3.62c-.18.55-.38 1.33-.61 2.21-.77 3-1.44 5.35-2.26 6.38 3.94 5 6.58 7.89 12.75 7.93s8.8-2.89 12.74-7.93c-.81-1-1.49-3.42-2.26-6.38-.23-.88-.43-1.66-.6-2.21a.49.49 0 0 1 .32-.62.5.5 0 0 1 .63.32c.18.56.39 1.36.62 2.26.55 2.11 1.47 5.63 2.24 6.19a.52.52 0 0 1 .21.33.5.5 0 0 1-.1.38c-4.13 5.34-7.02 8.62-13.77 8.66z"/><path d="M10.33 21.57a3.83 3.83 0 0 1-3.82-3.82.51.51 0 0 1 .5-.5.5.5 0 0 1 .5.5 2.82 2.82 0 0 0 5.64 0 .5.5 0 0 1 1 0 3.82 3.82 0 0 1-3.82 3.82z"/><path d="M17.22 21.57a3.82 3.82 0 0 1-3.81-3.82.5.5 0 0 1 .5-.5.51.51 0 0 1 .5.5 2.82 2.82 0 1 0 5.63 0 .5.5 0 0 1 1 0 3.82 3.82 0 0 1-3.82 3.82z"/><path d="M13.76 23.25A2.51 2.51 0 0 1 11 21.07a.5.5 0 0 1 .5-.5.51.51 0 0 1 .5.5c0 .64.8 1.18 1.74 1.18s1.74-.54 1.74-1.18a.5.5 0 0 1 .5-.5.51.51 0 0 1 .5.5 2.51 2.51 0 0 1-2.72 2.18zm4.62-20.02a.47.47 0 0 1-.27-.08A8.43 8.43 0 0 0 13.72 2a8.43 8.43 0 0 0-4.39 1.15.5.5 0 1 1-.54-.84A9.27 9.27 0 0 1 13.72 1a9.27 9.27 0 0 1 4.93 1.28.5.5 0 0 1 .15.72.48.48 0 0 1-.42.23zM8.22 9.21a.5.5 0 0 1-.2-1 8.41 8.41 0 0 1 2.27-.49.5.5 0 0 1 .54.46.5.5 0 0 1-.45.54 7.42 7.42 0 0 0-2 .41.43.43 0 0 1-.16.08zm10.78 0a.43.43 0 0 1-.19 0 7.4 7.4 0 0 0-2-.41.5.5 0 0 1-.46-.54.5.5 0 0 1 .65-.5 8.41 8.41 0 0 1 2.27.49.5.5 0 0 1 .26.66.49.49 0 0 1-.53.3z"/></symbol><symbol id="icon_f-phone" viewBox="0 0 24 23"><path d="M14.93 19.12a2 2 0 0 1-1.13-.34 24.6 24.6 0 0 1-6.9-6.89 2.06 2.06 0 0 1 .26-2.59l.6-.61a1.55 1.55 0 0 1 2.18 0L11 9.79A1.55 1.55 0 0 1 11 12a24 24 0 0 0 2.67 2.66 1.55 1.55 0 0 1 2.18 0l1.1 1.1a1.55 1.55 0 0 1 0 2.18l-.6.6a2.06 2.06 0 0 1-1.42.58zM8.85 9.24a.52.52 0 0 0-.38.16l-.6.6a1.07 1.07 0 0 0-.14 1.34A23.67 23.67 0 0 0 14.35 18a1.06 1.06 0 0 0 1.33-.13l.61-.61a.52.52 0 0 0 .15-.38.54.54 0 0 0-.15-.38l-1.11-1.1a.54.54 0 0 0-.76 0l-.37.36a.49.49 0 0 1-.67 0 24.92 24.92 0 0 1-3.44-3.46.49.49 0 0 1 0-.67l.37-.37a.54.54 0 0 0 0-.76L9.23 9.4a.51.51 0 0 0-.38-.16zm1.84 2.38z"/><path d="M20.5 23h-11a.5.5 0 0 1 0-1H20v-9a.5.5 0 0 1 1 0v9.5a.5.5 0 0 1-.5.5z"/><path d="M9.5 23h-6a.5.5 0 0 1-.5-.5v-10a.5.5 0 0 1 1 0V22h5.5a.5.5 0 0 1 0 1z"/><path d="M23.5 12.5a.47.47 0 0 1-.35-.15L12 1.21.85 12.35a.48.48 0 0 1-.7 0 .48.48 0 0 1 0-.7L11.65.15a.48.48 0 0 1 .7 0l11.5 11.5a.48.48 0 0 1 0 .7.47.47 0 0 1-.35.15z"/></symbol><symbol id="icon_f-print" viewBox="0 0 24 22"><path d="M21.5 17h-3a.5.5 0 0 1 0-1h3a1.5 1.5 0 0 0 1.5-1.5v-6A1.5 1.5 0 0 0 21.5 7h-19A1.5 1.5 0 0 0 1 8.5v6A1.5 1.5 0 0 0 2.5 16h3a.5.5 0 0 1 0 1h-3A2.5 2.5 0 0 1 0 14.5v-6A2.5 2.5 0 0 1 2.5 6h19A2.5 2.5 0 0 1 24 8.5v6a2.5 2.5 0 0 1-2.5 2.5zm-3-12a.5.5 0 0 1-.5-.5v-.79L15.29 1H6v3.5a.5.5 0 0 1-1 0v-4a.5.5 0 0 1 .5-.5h10a.47.47 0 0 1 .35.15l3 3a.47.47 0 0 1 .15.35v1a.5.5 0 0 1-.5.5z"/><path d="M18.5 22h-13a.5.5 0 0 1-.5-.5v-8a.5.5 0 0 1 .5-.5h13a.5.5 0 0 1 .5.5v8a.5.5 0 0 1-.5.5zM6 21h12v-7H6zM3.5 11A1.5 1.5 0 1 1 5 9.5 1.5 1.5 0 0 1 3.5 11zm0-2a.5.5 0 1 0 .5.5.5.5 0 0 0-.5-.5z"/><path d="M16.5 16h-9a.5.5 0 0 1 0-1h9a.5.5 0 0 1 0 1zm0 2h-9a.5.5 0 0 1 0-1h9a.5.5 0 0 1 0 1zm0 2h-9a.5.5 0 0 1 0-1h9a.5.5 0 0 1 0 1zm2-16h-3a.5.5 0 0 1-.5-.5v-3a.5.5 0 0 1 1 0V3h2.5a.5.5 0 0 1 0 1z"/></symbol><symbol id="icon_f-reception" viewBox="0 0 35.33 30.84"><path d="M32.67 30.84h-30a.5.5 0 0 1-.5-.5V14.76a.5.5 0 0 1 .5-.5h30a.5.5 0 0 1 .5.5v15.58a.51.51 0 0 1-.5.5zm-29.5-1h29V15.26h-29z"/><path d="M34.83 15.26H.5a.5.5 0 0 1-.5-.5v-2.22A.5.5 0 0 1 .5 12h34.33a.5.5 0 0 1 .5.5v2.22a.5.5 0 0 1-.5.54zM1 14.26h33.33V13H1zm12.36-6a2.2 2.2 0 0 1-2-1.41.49.49 0 0 1 0-.47.5.5 0 0 1 .42-.23c.54 0 .8-1.13 1.05-2.24.34-1.45.72-3.1 2-3.69a3.29 3.29 0 0 1 2.85.26 3.29 3.29 0 0 1 2.84-.26c1.26.59 1.64 2.24 2 3.7.25 1.1.52 2.23 1.05 2.23a.5.5 0 0 1 .42.23.49.49 0 0 1 0 .47 2.18 2.18 0 0 1-2.52 1.36 2 2 0 0 1-1.7-1.82.5.5 0 0 1 .5-.5.5.5 0 0 1 .5.5c0 .37.38.73.9.84a1.24 1.24 0 0 0 1.09-.3c-.72-.48-1-1.65-1.26-2.79s-.6-2.63-1.43-3a2.63 2.63 0 0 0-2.2.36.51.51 0 0 1-.45 0 2.63 2.63 0 0 0-2.2-.36c-.82.39-1.15 1.79-1.43 3s-.54 2.31-1.26 2.79a1.27 1.27 0 0 0 1.1.3c.51-.11.9-.47.9-.84a.5.5 0 0 1 1 0 2 2 0 0 1-1.7 1.82 2.72 2.72 0 0 1-.47.05z"/><path d="M17.67 9.29h-.16a4.43 4.43 0 0 1-2.94-2.74 1.27 1.27 0 0 1-.68-1.21 1.25 1.25 0 0 1 .69-1.22l.19-.78a.51.51 0 0 1 .49-.38c1.46 0 1.69-.38 1.84-.63a1.76 1.76 0 0 1 .21-.33.5.5 0 0 1 .69 0 1.76 1.76 0 0 1 .21.29c.15.25.38.63 1.84.63a.51.51 0 0 1 .49.38l.19.78a1.25 1.25 0 0 1 .69 1.22 1.27 1.27 0 0 1-.68 1.21 4.43 4.43 0 0 1-2.94 2.74zm-2-5.36l-.17.7A.5.5 0 0 1 15 5a.38.38 0 0 0-.1.31.42.42 0 0 0 .09.3.5.5 0 0 1 .5.42 3.29 3.29 0 0 0 2.19 2.22A3.3 3.3 0 0 0 19.85 6a.49.49 0 0 1 .49-.42.37.37 0 0 0 .1-.3.44.44 0 0 0-.09-.28.5.5 0 0 1-.49-.38l-.18-.7a2.67 2.67 0 0 1-2-.71 2.69 2.69 0 0 1-2.03.72z"/><path d="M23.82 13H11.51a.5.5 0 0 1-.5-.5v-.8c0-1.92 2-2.74 4-3.6l1.1-.47a.49.49 0 0 1 .66.25.5.5 0 0 1-.25.66l-1.12.48c-2.09.92-3.4 1.53-3.4 2.72V12h11.32v-.3c0-1.19-1.3-1.8-3.42-2.68l-1.11-.48a.5.5 0 1 1 .4-.91l1.1.46c2.07.87 4 1.69 4 3.61v.8a.5.5 0 0 1-.47.5z"/><path d="M17.67 13a.5.5 0 0 1-.5-.5c0-.5-.75-.91-1.48-1.3-.94-.5-2-1.08-2-2.18a.5.5 0 0 1 .5-.5.5.5 0 0 1 .5.5c0 .51.75.91 1.47 1.3.94.51 2 1.08 2 2.18a.5.5 0 0 1-.49.5z"/><path d="M17.67 13a.5.5 0 0 1-.5-.5c0-1.1 1.06-1.67 2-2.18.72-.39 1.48-.79 1.48-1.3a.5.5 0 0 1 .5-.5.5.5 0 0 1 .5.5c0 1.1-1.07 1.68-2 2.18-.72.39-1.47.8-1.47 1.3a.5.5 0 0 1-.51.5z"/></symbol><symbol id="icon_f-secure" viewBox="0 0 24 21"><path d="M15.5 8h-11a.5.5 0 0 1-.5-.5V3a3 3 0 0 1 3-3h16.5a.52.52 0 0 1 .41.21.48.48 0 0 1 .09.45l-1 3a.48.48 0 0 1-.33.32L16 5.88V7.5a.5.5 0 0 1-.5.5zM5 7h10V5.5a.5.5 0 0 1 .36-.5l6.75-1.93.7-2.07H7a2 2 0 0 0-2 2z"/><path d="M19.5 10h-12A2.44 2.44 0 0 1 5 7.57a.5.5 0 0 1 1 0A1.43 1.43 0 0 0 7.5 9H19V4.36a.5.5 0 1 1 1 0V9.5a.5.5 0 0 1-.5.5zm2-1.5A.5.5 0 0 1 21 8V6a.5.5 0 0 1 1 0v2a.5.5 0 0 1-.5.5zm-9 3.5h-4a.5.5 0 0 1 0-1h4a.5.5 0 0 1 0 1z"/><path d="M.5 19a.5.5 0 0 1-.1-1l9.6-1.91V11.5a.5.5 0 0 1 1 0v5a.5.5 0 0 1-.4.49L.6 19z"/><path d="M.5 21a.5.5 0 0 1-.5-.5v-4a.5.5 0 0 1 .5-.5.5.5 0 0 1 .5.5v4a.5.5 0 0 1-.5.5z"/></symbol><symbol id="icon_f-terrace" viewBox="0 0 18 28.81"><path d="M17.5 28.81H.5a.5.5 0 0 1-.5-.5v-21a.5.5 0 0 1 .5-.5h17a.5.5 0 0 1 .5.5v21a.5.5 0 0 1-.5.5zm-16.5-1h16v-20H1z"/><path d="M10.5 28.81h-3a.5.5 0 0 1-.5-.5v-4a.5.5 0 0 1 .5-.5h3a.5.5 0 0 1 .5.5v4a.5.5 0 0 1-.5.5zm-2.5-1h2v-3H8zm2.5-5h-3a.5.5 0 0 1-.5-.5v-3a.5.5 0 0 1 .5-.5h3a.5.5 0 0 1 .5.5v3a.5.5 0 0 1-.5.5zm-2.5-1h2v-2H8zm7.5 1h-3a.5.5 0 0 1-.5-.5v-3a.5.5 0 0 1 .5-.5h3a.5.5 0 0 1 .5.5v3a.5.5 0 0 1-.5.5zm-2.5-1h2v-2h-2zm-7.5 1h-3a.5.5 0 0 1-.5-.5v-3a.5.5 0 0 1 .5-.5h3a.5.5 0 0 1 .5.5v3a.5.5 0 0 1-.5.5zm-2.5-1h2v-2H3zm7.5-4h-3a.5.5 0 0 1-.5-.5v-3a.5.5 0 0 1 .5-.5h3a.5.5 0 0 1 .5.5v3a.5.5 0 0 1-.5.5zm-2.5-1h2v-2H8zm7.5 1h-3a.5.5 0 0 1-.5-.5v-3a.5.5 0 0 1 .5-.5h3a.5.5 0 0 1 .5.5v3a.5.5 0 0 1-.5.5zm-2.5-1h2v-2h-2zm-7.5 1h-3a.5.5 0 0 1-.5-.5v-3a.5.5 0 0 1 .5-.5h3a.5.5 0 0 1 .5.5v3a.5.5 0 0 1-.5.5zm-2.5-1h2v-2H3zm7.5-4h-3a.5.5 0 0 1-.5-.5v-3a.5.5 0 0 1 .5-.5h3a.5.5 0 0 1 .5.5v3a.5.5 0 0 1-.5.5zm-2.5-1h2v-2H8zm7.5 1h-3a.5.5 0 0 1-.5-.5v-3a.5.5 0 0 1 .5-.5h3a.5.5 0 0 1 .5.5v3a.5.5 0 0 1-.5.5zm-2.5-1h2v-2h-2zm-7.5 1h-3a.5.5 0 0 1-.5-.5v-3a.5.5 0 0 1 .5-.5h3a.5.5 0 0 1 .5.5v3a.5.5 0 0 1-.5.5zm-2.5-1h2v-2H3zm14.5-4H.5A.5.5 0 0 1 0 7.5.48.48 0 0 1 .15 7l2-2a.51.51 0 0 1 .35-.15h13a.51.51 0 0 1 .35.15l2 2a.48.48 0 0 1 .15.5.5.5 0 0 1-.5.31zm-15.79-1h14.58l-1-1H2.71zM9 3a.53.53 0 0 1-.36-.15l-2-2a.48.48 0 0 1 0-.7.5.5 0 0 1 .71 0L9 1.77 10.61.19a.51.51 0 0 1 .71 0 .5.5 0 0 1 0 .71L9.39 2.83A.51.51 0 0 1 9 3z"/></symbol><symbol id="icon_f-time" viewBox="0 0 24 24"><path d="M4.5 12h-2a.5.5 0 0 1 0-1h2a.5.5 0 0 1 0 1zm17 0h-2a.5.5 0 0 1 0-1h2a.5.5 0 0 1 0 1zM12 22a.5.5 0 0 1-.5-.5v-2a.5.5 0 0 1 1 0v2a.5.5 0 0 1-.5.5zm0-17a.5.5 0 0 1-.5-.5v-2a.5.5 0 0 1 1 0v2a.5.5 0 0 1-.5.5zM5.28 19.22a.49.49 0 0 1-.35-.15.5.5 0 0 1 0-.71L6.34 17a.5.5 0 1 1 .71.71l-1.41 1.36a.51.51 0 0 1-.36.15zM17.3 7.2a.49.49 0 0 1-.3-.15.5.5 0 0 1 0-.71l1.41-1.41a.5.5 0 0 1 .71.71l-1.46 1.41a.51.51 0 0 1-.36.15zm1.42 12.02a.51.51 0 0 1-.36-.15L17 17.66a.5.5 0 0 1 .71-.71l1.41 1.41a.5.5 0 0 1 0 .71.5.5 0 0 1-.4.15zM6.7 7.2a.51.51 0 0 1-.36-.15L4.93 5.64a.5.5 0 0 1 .71-.71l1.41 1.41a.5.5 0 0 1 0 .71.5.5 0 0 1-.35.15z"/><path d="M12 24a12 12 0 1 1 12-12 12 12 0 0 1-12 12zm0-23a11 11 0 1 0 11 11A11 11 0 0 0 12 1z"/></symbol><symbol id="icon_f-tool" viewBox="0 0 24 19"><path d="M19 10h-8.55A2.45 2.45 0 0 1 8 7.55V2a2 2 0 0 1 2-2h9a5 5 0 0 1 0 10zm-9-9a1 1 0 0 0-1 1v5.55A1.45 1.45 0 0 0 10.45 9H19a4 4 0 0 0 0-8z"/><path d="M8.5 8h-3a.5.5 0 0 1-.5-.5v-5a.5.5 0 0 1 .5-.5h3a.5.5 0 0 1 .5.5v5a.5.5 0 0 1-.5.5zM6 7h2V3H6z"/><path d="M5.5 6h-5a.5.5 0 0 1 0-1h5a.5.5 0 0 1 0 1zm10.42 6H13.5a.5.5 0 0 1-.5-.5v-2h1V11h1.92z"/><path d="M13.5 10a.5.5 0 0 1-.5-.5v-9a.5.5 0 0 1 1 0v9a.5.5 0 0 1-.5.5zm5 9h-4a.5.5 0 0 1 0-1h4a.5.5 0 0 1 0 1z"/><path d="M20.5 19h-3a.5.5 0 0 1-.49-.39l-2-9a.49.49 0 0 1 .1-.42.51.51 0 0 1 .39-.19h3a.5.5 0 0 1 .49.39l2 9a.49.49 0 0 1-.1.42.51.51 0 0 1-.39.19zm-2.6-1h2l-1.8-8h-2z"/></symbol><symbol id="icon_f-traiding" viewBox="0 0 24 24"><path d="M23.5 24H.5a.5.5 0 0 1-.5-.5v-22A.5.5 0 0 1 .5 1h3a.5.5 0 0 1 0 1H1v21h22V2H11.5a.5.5 0 0 1 0-1h12a.5.5 0 0 1 .5.5v22a.5.5 0 0 1-.5.5z"/><path d="M11.5 14a.47.47 0 0 1-.35-.15L7.5 10.21l-3.65 3.64a.47.47 0 0 1-.54.11.5.5 0 0 1-.31-.46V.5a.5.5 0 0 1 .5-.5h8a.5.5 0 0 1 .5.5v13a.5.5 0 0 1-.31.46.43.43 0 0 1-.19.04zm-4-5a.47.47 0 0 1 .35.15L11 12.29V1H4v11.29l3.15-3.14A.47.47 0 0 1 7.5 9zm13-1h-6a.5.5 0 0 1 0-1h6a.5.5 0 0 1 0 1zm0 3h-6a.5.5 0 0 1 0-1h6a.5.5 0 0 1 0 1zm0 3h-6a.5.5 0 0 1 0-1h6a.5.5 0 0 1 0 1zm0 3h-17a.5.5 0 0 1 0-1h17a.5.5 0 0 1 0 1zm-4 3h-13a.5.5 0 0 1 0-1h13a.5.5 0 0 1 0 1z"/></symbol><symbol id="icon_f-utilities" viewBox="0 0 23.65 32.19"><path d="M16.25 30.25a.5.5 0 0 1-.5-.5v-4a.5.5 0 0 1 .5-.5.5.5 0 0 1 .5.5v4a.5.5 0 0 1-.5.5zm0-10.72a.5.5 0 0 1-.5-.5v-6.77A6.49 6.49 0 0 0 4.34 8a.51.51 0 0 1-.71.05.49.49 0 0 1 0-.7 7.49 7.49 0 0 1 13.17 4.9V19a.5.5 0 0 1-.55.53zm5.18 10.72a.5.5 0 0 1-.5-.5v-3.83a.5.5 0 0 1 .5-.5.5.5 0 0 1 .5.5v3.83a.5.5 0 0 1-.5.5z"/><path d="M21.43 19.33a.5.5 0 0 1-.5-.5v-6.14A11.67 11.67 0 0 0 .86 4.57a.5.5 0 1 1-.72-.7 12.67 12.67 0 0 1 21.79 8.82v6.14a.5.5 0 0 1-.5.5z"/><path d="M4 8.19A.5.5 0 0 1 3.61 8L.15 4.58a.5.5 0 0 1 0-.71.5.5 0 0 1 .71 0l3.46 3.46a.51.51 0 0 1 0 .71.51.51 0 0 1-.32.15zm18.78 24H14.9a.51.51 0 0 1-.5-.5v-1.94a.5.5 0 0 1 .5-.5h7.88a.5.5 0 0 1 .5.5v1.94a.51.51 0 0 1-.5.5zm-7.38-1h6.88v-.94H15.4zm3.47-4a4.78 4.78 0 1 1 4.78-4.78 4.79 4.79 0 0 1-4.78 4.78zm0-8.56a3.78 3.78 0 1 0 3.78 3.78 3.79 3.79 0 0 0-3.78-3.78z"/><path d="M18.87 24.44a2 2 0 1 1 2-2 2 2 0 0 1-2 2zm0-3.06a1 1 0 1 0 1 1 1 1 0 0 0-1-1zm3.89 1.54h-1a.5.5 0 0 1-.5-.5.5.5 0 0 1 .5-.5h1a.5.5 0 0 1 .5.5.5.5 0 0 1-.5.5zm-6.68 0h-.94a.5.5 0 0 1-.5-.5.51.51 0 0 1 .5-.5h.94a.5.5 0 0 1 .5.5.5.5 0 0 1-.5.5zM19 26.73a.5.5 0 0 1-.5-.5v-1a.5.5 0 0 1 .5-.5.5.5 0 0 1 .5.5v1a.5.5 0 0 1-.5.5zm0-6.68a.5.5 0 0 1-.5-.5v-.94a.51.51 0 0 1 .5-.5.5.5 0 0 1 .5.5v.94a.5.5 0 0 1-.5.5zm2.65 5.57a.51.51 0 0 1-.36-.15l-.74-.74a.5.5 0 0 1 .71-.71l.74.74a.5.5 0 0 1 0 .71.49.49 0 0 1-.35.15zm-4.73-4.73a.52.52 0 0 1-.35-.14l-.66-.67a.49.49 0 1 1 .7-.7l.67.66a.51.51 0 0 1 0 .71.54.54 0 0 1-.36.14zm-.66 4.73a.47.47 0 0 1-.35-.15.5.5 0 0 1 0-.71l.74-.74a.5.5 0 0 1 .7 0 .5.5 0 0 1 0 .71l-.74.74a.47.47 0 0 1-.35.15zM21 20.89a.54.54 0 0 1-.36-.14.51.51 0 0 1 0-.71l.66-.66a.5.5 0 0 1 .71 0 .48.48 0 0 1 0 .7l-.66.67a.54.54 0 0 1-.35.14z"/></symbol><symbol id="icon_f-wifi" viewBox="0 0 24 24"><path d="M15 24h-1A14 14 0 0 0 0 10V9a15 15 0 0 1 15 15z"/><path d="M24 24h-1A23 23 0 0 0 0 1V0a24 24 0 0 1 24 24zM3 24a3 3 0 1 1 3-3 3 3 0 0 1-3 3zm0-5a2 2 0 1 0 2 2 2 2 0 0 0-2-2z"/></symbol><symbol id="icon_fb-symbol" viewBox="0 0 4.5 9.66"><path d="M3 3.16h1.5l-.18 1.67H3v4.83H1V4.83H0V3.16h1v-1A2.27 2.27 0 0 1 1.5.55 2.16 2.16 0 0 1 3.16 0h1.33v1.66h-.83a1.66 1.66 0 0 0-.37 0 .33.33 0 0 0-.2.14A.56.56 0 0 0 3 2a2.07 2.07 0 0 0 0 .29z"/></symbol><symbol id="icon_folder" viewBox="0 0 8.82 7.35"><path d="M1.75 2.71a1 1 0 0 0-.35.06 1.34 1.34 0 0 0-.31.17 1.14 1.14 0 0 0-.25.24 1.39 1.39 0 0 0-.18.31L0 5.54v-5A.53.53 0 0 1 .16.16.53.53 0 0 1 .55 0h3.31a.53.53 0 0 1 .39.16.53.53 0 0 1 .16.39.57.57 0 0 0 .16.39.57.57 0 0 0 .43.16h2.08a.53.53 0 0 1 .39.16.61.61 0 0 1 .16.4v1.05zm7.07.74L7.58 7.08a.34.34 0 0 1-.15.19.36.36 0 0 1-.23.08h-7l1.18-3.64a.32.32 0 0 1 .15-.18.43.43 0 0 1 .23-.08z"/></symbol><symbol id="icon_full-heart" viewBox="0 0 17.29 16.21"><path d="M12 0a5.33 5.33 0 0 0-3.3 1.14 5.36 5.36 0 0 0-7.09.42 5.37 5.37 0 0 0 0 7.57l7.09 7.08 7.08-7.08A5.35 5.35 0 0 0 12 0z"/></symbol><symbol id="icon_google" viewBox="0 0 364.45 371.86"><path d="M125.15 10.18a188.36 188.36 0 0 1 125.3 1.1 180.76 180.76 0 0 1 59.9 37.1c-5.8 6.3-12.1 12.2-18.1 18.3l-34.2 34.2A101.31 101.31 0 0 0 218 77.28a109.81 109.81 0 0 0-54.6-2.2 111.15 111.15 0 0 0-55.6 30.9 115.41 115.41 0 0 0-27 43.9c-20.3-15.8-40.6-31.5-61-47.3 21.45-43 60.05-76.9 105.35-92.4z"/><path d="M3.65 149.18a185.51 185.51 0 0 1 16.2-46.8c20.3 15.8 40.6 31.5 61 47.3a112.2 112.2 0 0 0 0 72.4Q50.4 245.78 20 269.38a185.08 185.08 0 0 1-16.35-120.2zm182.35 1.9h175c5.8 32.7 4.5 66.8-4.7 98.8-8.5 29.3-24.6 56.5-47.1 77.2l-59.1-45.9a87.61 87.61 0 0 0 37.2-57.5H185.85q.15-36.3.15-72.6z"/><path d="M19.75 269.48q30.45-23.55 60.9-47.3a115.59 115.59 0 0 0 42.6 57.1 110.81 110.81 0 0 0 41.4 17.9c14.6 3 29.7 2.6 44.4.1a106.55 106.55 0 0 0 41-16.2l59.1 45.9c-21.3 19.7-48 33.1-76.2 39.6-31.2 7.1-64.2 7.3-95.2-1a183.79 183.79 0 0 1-67.6-34.1 187.26 187.26 0 0 1-50.4-62z"/></symbol><symbol id="icon_gym" viewBox="0 0 27.69 15.91"><path d="M8 15.91H3.73a.5.5 0 0 1-.5-.5V.5a.5.5 0 0 1 .5-.5H8a.5.5 0 0 1 .5.5v14.91a.5.5 0 0 1-.5.5zm-3.76-1h3.25V1H4.23z"/><path d="M3.73 13.9H.5a.5.5 0 0 1-.5-.5V2.51A.5.5 0 0 1 .5 2h3.23a.51.51 0 0 1 .5.5v10.9a.5.5 0 0 1-.5.5zM1 12.9h2.23V3H1zm26.19 1H24a.5.5 0 0 1-.5-.5V2.51A.5.5 0 0 1 24 2h3.22a.5.5 0 0 1 .5.5v10.9a.5.5 0 0 1-.53.5zm-2.72-1h2.22V3h-2.22z"/><path d="M24 15.91h-4.29a.5.5 0 0 1-.5-.5V.5a.5.5 0 0 1 .5-.5H24a.5.5 0 0 1 .5.5v14.91a.5.5 0 0 1-.5.5zm-3.76-1h3.26V1h-3.29z"/><path d="M19.71 10.23H8a.5.5 0 0 1-.5-.5V6.18a.5.5 0 0 1 .5-.5h11.71a.51.51 0 0 1 .5.5v3.55a.5.5 0 0 1-.5.5zm-11.22-1h10.72V6.68H8.49z"/></symbol><symbol id="icon_heart" viewBox="0 0 17.3 16.2"><path class="st0" d="M12 1.6c1 0 1.9.4 2.6 1.1.7.7 1.1 1.6 1.1 2.7s-.4 1.9-1.1 2.6l-6 6-6-6c-.6-.7-1-1.6-1-2.7 0-1 .4-1.9 1.1-2.7.7-.6 1.6-1 2.6-1 .8 0 1.7.3 2.3.8l1 .8 1-.8c.7-.5 1.5-.8 2.4-.8M12 0c-1.2 0-2.3.4-3.3 1.1C7.7.4 6.5 0 5.3 0 4 0 2.6.5 1.6 1.6c-2.1 2.1-2.1 5.5 0 7.6l7.1 7.1 7.1-7.1c2.1-2.1 2.1-5.5 0-7.6C14.7.5 13.3 0 12 0z"/></symbol><symbol id="icon_home-rules" viewBox="0 0 5.41 6.79"><path d="M5 6.79H.38A.37.37 0 0 1 0 6.42v-6A.38.38 0 0 1 .38 0H5a.38.38 0 0 1 .38.38v6a.37.37 0 0 1-.38.41zM.75 6h3.91V.75H.75z"/><path d="M1.66 3.37a.33.33 0 0 1-.26-.11.37.37 0 0 1 0-.53l1.05-1.06a.39.39 0 0 1 .53 0L4 2.71a.4.4 0 0 1 0 .54.39.39 0 0 1-.53 0l-.78-.78-.79.79a.36.36 0 0 1-.24.11zm1.82.98H2a.38.38 0 1 1 0-.75h1.48a.38.38 0 0 1 0 .75z"/></symbol><symbol id="icon_img" viewBox="0 0 8.82 7.35"><path d="M8.28 0a.49.49 0 0 1 .38.16.53.53 0 0 1 .16.39V6.8a.53.53 0 0 1-.16.39.49.49 0 0 1-.38.16H.55a.53.53 0 0 1-.39-.16A.53.53 0 0 1 0 6.8V.55A.53.53 0 0 1 .16.16.53.53 0 0 1 .55 0zm-.19.74H.74v5.88h7.35zM2.22 3a.73.73 0 0 1-.54-.22.69.69 0 0 1-.21-.51.76.76 0 0 1 .21-.54.76.76 0 0 1 .54-.21.69.69 0 0 1 .51.21.73.73 0 0 1 .27.49.67.67 0 0 1-.22.51.67.67 0 0 1-.56.27zm5.13 2.88H1.47v-.5L2.8 3.66l.9.74 1.69-2.57 2 2z"/></symbol><symbol id="icon_info" viewBox="0 0 14.1 14.1"><path d="M7.05 14.1a7.05 7.05 0 1 1 7.05-7 7.05 7.05 0 0 1-7.05 7zm0-12.5a5.45 5.45 0 1 0 5.45 5.45A5.45 5.45 0 0 0 7.05 1.6z"/><path d="M7.05 11.08a.8.8 0 0 1-.8-.8V6.41a.8.8 0 1 1 1.6 0v3.87a.8.8 0 0 1-.8.8zm0-6a.8.8 0 0 1-.8-.8v-.59a.8.8 0 1 1 1.6 0v.59a.8.8 0 0 1-.8.8z"/></symbol><symbol id="icon_info2" viewBox="0 0 15.38 15.38"><path d="M9.71 11.22c0 .13 0 .16-.17.16h-3c-.14 0-.16 0-.16-.16v-.77c0-.13 0-.17.16-.17h.76V6.64h-.79c-.14 0-.17 0-.17-.17V5.7c0-.13 0-.16.17-.16h2.11c.14 0 .16 0 .16.16v4.58h.76c.14 0 .17 0 .17.17zM8 4.77a1 1 0 0 1-1-1 1 1 0 1 1 1 1z"/><path d="M7.69 0a7.69 7.69 0 1 0 7.69 7.69A7.69 7.69 0 0 0 7.69 0zm0 14.26a6.57 6.57 0 1 1 6.57-6.57 6.58 6.58 0 0 1-6.57 6.57z"/></symbol><symbol id="icon_key" viewBox="0 0 13.98 13.97"><path d="M12.85 1.13a3.85 3.85 0 0 0-6.35 4L.78 10.86 0 13.2l2.34.8.66-.8 2.26-.78v-1.56l.86-.78.82.78 1.6-1.56-.76-.78 1-1a3.84 3.84 0 0 0 4-6.34zm-1.46 2.43a.69.69 0 1 1 0-1 .68.68 0 0 1 0 1z"/></symbol><symbol id="icon_key2" viewBox="0 0 12.94 6.22"><g clip-path="url(#a)"><path d="M3.11 6.22a3.11 3.11 0 1 1 2.76-4.55h.68l.53-.37a.36.36 0 0 1 .22-.07h.43a.36.36 0 0 1 .2.06l.53.35H9l.68-.34a.34.34 0 0 1 .34 0l.74.41h.8a.34.34 0 0 1 .24.09l1.05.89a.41.41 0 0 1 .13.28.36.36 0 0 1-.12.28l-1 .88a.35.35 0 0 1-.25.1H6a3.11 3.11 0 0 1-2.89 1.99zm0-5.47a2.36 2.36 0 1 0 2.26 3 .38.38 0 0 1 .36-.28h5.74L12 3l-.62-.53h-.75a.37.37 0 0 1-.18 0l-.65-.42-.58.3a.59.59 0 0 1-.17 0h-.7a.36.36 0 0 1-.2-.06L7.62 2h-.2l-.53.37a.36.36 0 0 1-.22.07h-1a.37.37 0 0 1-.34-.23A2.37 2.37 0 0 0 3.11.75z"/><path d="M2.6 4.25a1.14 1.14 0 1 1 1.14-1.14A1.14 1.14 0 0 1 2.6 4.25zm0-1.53a.39.39 0 0 0-.39.39.38.38 0 0 0 .39.39.39.39 0 0 0 .4-.39.4.4 0 0 0-.4-.39z"/></g></symbol><symbol id="icon_kitchen" viewBox="0 0 24 24"><path d="M22.5 21h-21a.5.5 0 0 1-.5-.5v-18a.5.5 0 0 1 .5-.5h21a.5.5 0 0 1 .5.5v18a.5.5 0 0 1-.5.5zM2 20h20V3H2z"/><path d="M23.5 24H.5a.5.5 0 0 1-.5-.5v-3a.5.5 0 0 1 .5-.5h23a.5.5 0 0 1 .5.5v3a.5.5 0 0 1-.5.5zM1 23h22v-2H1zm19.5-4h-17a.5.5 0 0 1-.5-.5v-10a.5.5 0 0 1 .5-.5h17a.5.5 0 0 1 .5.5v10a.5.5 0 0 1-.5.5zM4 18h16V9H4z"/><path d="M17.5 12h-11a.5.5 0 0 1 0-1h11a.5.5 0 0 1 0 1zm-2-5A1.5 1.5 0 1 1 17 5.5 1.5 1.5 0 0 1 15.5 7zm0-2a.5.5 0 1 0 .5.5.5.5 0 0 0-.5-.5zm4 2A1.5 1.5 0 1 1 21 5.5 1.5 1.5 0 0 1 19.5 7zm0-2a.5.5 0 1 0 .5.5.5.5 0 0 0-.5-.5zm-7 2h-9a.5.5 0 0 1-.5-.5v-2a.5.5 0 0 1 .5-.5h9a.5.5 0 0 1 .5.5v2a.5.5 0 0 1-.5.5zM4 6h8V5H4zm19.5-3H.5a.5.5 0 0 1-.5-.5v-2A.5.5 0 0 1 .5 0h23a.5.5 0 0 1 .5.5v2a.5.5 0 0 1-.5.5zM1 2h22V1H1z"/></symbol><symbol id="icon_location" viewBox="0 0 5.14 8.59"><path d="M2.57 8.59a.39.39 0 0 1-.34-.21l-.36-.77C.82 5.45 0 3.74 0 2.57a2.57 2.57 0 0 1 5.14 0c0 1.14-.79 2.79-1.79 4.88l-.44.92a.38.38 0 0 1-.34.22zm0-7.84A1.83 1.83 0 0 0 .75 2.57c0 1 .83 2.72 1.79 4.72v.06l.1-.22C3.6 5.2 4.39 3.54 4.39 2.57A1.82 1.82 0 0 0 2.57.75zm0 2.7a1.07 1.07 0 1 1 1.07-1.07 1.07 1.07 0 0 1-1.07 1.07zm0-1.38a.32.32 0 1 0 0 .63.32.32 0 1 0 0-.63z"/></symbol><symbol id="icon_location2" viewBox="0 0 8.83 15.76"><path d="M4.42 0A4.42 4.42 0 0 0 0 4.42C0 6.85 2.12 11 4.42 15.76 6.7 10.93 8.83 6.85 8.83 4.42A4.42 4.42 0 0 0 4.42 0zm0 5.43A1.4 1.4 0 1 1 5.81 4a1.4 1.4 0 0 1-1.39 1.43z"/></symbol><symbol id="icon_lock" viewBox="0 0 16 24"><path d="M8 24a8 8 0 1 1 8-8 8 8 0 0 1-8 8zM8 9a7 7 0 1 0 7 7 7 7 0 0 0-7-7z"/><path d="M13.5 10.44h-1V5.5a4.5 4.5 0 0 0-9 0v4.92h-1V5.5a5.5 5.5 0 0 1 11 0zM8 20.5a4.5 4.5 0 1 1 4.5-4.5A4.51 4.51 0 0 1 8 20.5zm0-8a3.5 3.5 0 1 0 3.5 3.5A3.5 3.5 0 0 0 8 12.5z"/><path d="M8 13.5a.5.5 0 0 1-.5-.5v-2a.5.5 0 0 1 1 0v2a.5.5 0 0 1-.5.5zm0 8a.5.5 0 0 1-.5-.5v-2a.5.5 0 0 1 1 0v2a.5.5 0 0 1-.5.5zm5-5h-2a.5.5 0 0 1 0-1h2a.5.5 0 0 1 0 1zm-8 0H3a.5.5 0 0 1 0-1h2a.5.5 0 0 1 0 1zm3 .5a1 1 0 1 1 1-1 1 1 0 0 1-1 1zm0-1z"/></symbol><symbol id="icon_logo-short" viewBox="0 0 261.45 298.68"><path d="M236.44 89.9V212L162 255.35v-33.42l61.79-36.22V96.25L137 146.91v151.77l124.44-72.28V75.46zM162 161.31l36.79-21.67v31.68L162 193zM0 75.46v151l124.41 72.04v-91l-61.79-36.2v-31.63l61.79 36.15v-28.91L37.62 96.22v89.49l61.79 36.2v33.29L25 212V89.9z"/><path d="M.01 75.47l25 14.44 105.72-61.04 105.72 61.04 25-14.44L130.73 0 .01 75.47z"/></symbol><symbol id="icon_long-arrow" viewBox="0 0 76.6 7.4"><path d="M76.51 3.48a.31.31 0 0 1 0 .44l-3.42 3.42a.19.19 0 0 1-.28 0l-.25-.25a.19.19 0 0 1 0-.28l2.89-2.89a.31.31 0 0 0 0-.44L72.55.59a.19.19 0 0 1 0-.28l.25-.25a.19.19 0 0 1 .28 0z"/><rect y="3.33" width="75.88" height=".75" rx=".2" ry=".2"/></symbol><symbol id="icon_loupe" viewBox="0 0 8.09 8.25"><path d="M2.94 5.88a2.94 2.94 0 1 1 2.94-2.94 2.94 2.94 0 0 1-2.94 2.94zm0-5.13a2.19 2.19 0 1 0 2.19 2.19A2.19 2.19 0 0 0 2.94.75z"/><rect x="3.96" y="5.61" width="4.43" height="1.45" rx=".4" ry=".4" transform="rotate(45 6.175 6.338)"/></symbol><symbol id="icon_man" viewBox="0 0 3.9 6.96"><path d="M.36 6.89a.22.22 0 0 1-.29 0 .21.21 0 0 1 0-.28l.75-1A1.48 1.48 0 0 0 1 5.29L1.43 4a1.28 1.28 0 0 0 .07-.39l.05-2a.15.15 0 0 1 .19-.15l.17.06a.32.32 0 0 1 .21.25l.19 2a.82.82 0 0 1-.06.38l-.57 1.39a1 1 0 0 1-.22.32z"/><path d="M3.75 6.94a.24.24 0 0 1-.29-.07L1.67 4.41a.22.22 0 0 1 0-.29l.35-.3a.16.16 0 0 1 .25 0l1.61 2.82a.2.2 0 0 1-.08.27zM.39 3.76a.26.26 0 0 1-.24.11c-.07 0-.08-.13 0-.23L.5 2.8a1.19 1.19 0 0 1 .23-.31l.75-.67a.2.2 0 0 1 .28 0L2 2.1a.17.17 0 0 1 0 .26l-.74.52a1.29 1.29 0 0 0-.3.27z"/><path d="M3.79 3.65a.18.18 0 0 1-.25.07l-.69-.35a1.43 1.43 0 0 1-.31-.24l-.85-.87a.19.19 0 0 1 0-.28l.25-.25a.19.19 0 0 1 .27 0l.72 1a1.85 1.85 0 0 0 .28.27l.5.39a.25.25 0 0 1 .08.26z"/><circle cx="1.88" cy=".83" r=".83"/></symbol><symbol id="icon_map" viewBox="0 0 24 24"><path d="M11.5 7A3.5 3.5 0 1 1 15 3.5 3.5 3.5 0 0 1 11.5 7zm0-6A2.5 2.5 0 1 0 14 3.5 2.5 2.5 0 0 0 11.5 1z"/><path d="M11.5 17.5a.5.5 0 0 1-.5-.5V6.5a.5.5 0 0 1 1 0V17a.5.5 0 0 1-.5.5z"/><path d="M23.5 24h-.14l-6.88-2-8.87 2a.53.53 0 0 1-.25 0l-7-2a.5.5 0 0 1-.36-.5v-11a.49.49 0 0 1 .2-.4.52.52 0 0 1 .44-.1l6.88 2 .87-.19a.5.5 0 1 1 .22 1l-1 .22a.53.53 0 0 1-.25 0L1 11.16v10L7.52 23l8.87-2a.53.53 0 0 1 .25 0L23 22.84v-10L16.48 11l-1.87.41a.5.5 0 0 1-.6-.38.49.49 0 0 1 .38-.59l2-.45a.53.53 0 0 1 .25 0l7 2a.5.5 0 0 1 .36.48v11a.49.49 0 0 1-.2.4.47.47 0 0 1-.3.13z"/><path d="M7 12.5h1v11H7zm9-2h1v11h-1zM12.5 4a.5.5 0 0 1-.5-.5.5.5 0 0 0-.5-.5.5.5 0 0 1 0-1A1.5 1.5 0 0 1 13 3.5a.5.5 0 0 1-.5.5z"/></symbol><symbol id="icon_message" viewBox="0 0 17.9 16.4"><path class="st0" d="M11.4 0H6.6C3 0 0 3 0 6.6c0 3.3 2.5 6 5.6 6.5l.9 3.4 2.6-3.3h2.3c3.6 0 6.6-3 6.6-6.6C17.9 3 15 0 11.4 0zm0 11.5H9.1c-.5 0-1 .2-1.3.6l-.6.8-.1-.3c-.1-.6-.6-1-1.2-1.1-2.5-.4-4.3-2.5-4.3-4.9 0-2.7 2.2-5 5-5h4.8c2.7 0 5 2.2 5 5-.1 2.7-2.3 4.9-5 4.9z"/><path class="st0" d="M12.6 4.2H4.9c-.5 0-.8.4-.8.8s.4.8.8.8h7.8c.4 0 .8-.4.8-.8s-.4-.8-.9-.8zM9 7.5H4.9c-.4 0-.8.4-.8.8s.4.8.8.8H9c.4 0 .8-.4.8-.8s-.4-.8-.8-.8z"/></symbol><symbol id="icon_metro" viewBox="0 0 7.3 5.88"><path d="M3.65 5.88a2.94 2.94 0 1 1 2.94-2.94 2.94 2.94 0 0 1-2.94 2.94zm0-5.13a2.19 2.19 0 1 0 2.19 2.19A2.2 2.2 0 0 0 3.65.75z"/><rect y="2.21" width="7.3" height="1.45" rx=".4" ry=".4"/></symbol><symbol id="icon_pan" viewBox="0 0 7.35 7.35"><path d="M6.15 2.55L2 6.7l-2 .65.66-2 4.15-4.14zm-1.22-.34a.13.13 0 0 0 0-.21.16.16 0 0 0-.11 0 .11.11 0 0 0-.09 0L1.42 5.29a.18.18 0 0 0 0 .11.16.16 0 0 0 0 .11.14.14 0 0 0 .11 0 .13.13 0 0 0 .1 0zM7.19.7a.57.57 0 0 1 .16.41.54.54 0 0 1-.16.4l-.57.57L5.28.74l.57-.57a.54.54 0 0 1 .4-.17.56.56 0 0 1 .4.17l.27.26.27.27z"/></symbol><symbol id="icon_photo" viewBox="0 0 10.43 8.58"><path d="M8.58 8.58H1.85A1.85 1.85 0 0 1 0 6.73V2.62A1.85 1.85 0 0 1 1.85.77h1.57a.37.37 0 0 1 .38.37.38.38 0 0 1-.38.38H1.85a1.1 1.1 0 0 0-1.1 1.1v4.11a1.1 1.1 0 0 0 1.1 1.1h6.73a1.11 1.11 0 0 0 1.1-1.1V2.62a1.1 1.1 0 0 0-1.1-1.1h-1.5a.38.38 0 0 1-.38-.38.37.37 0 0 1 .38-.37h1.5a1.85 1.85 0 0 1 1.85 1.85v4.11a1.85 1.85 0 0 1-1.85 1.85z"/><path d="M5.21 7.08a2.17 2.17 0 1 1 2.17-2.17 2.17 2.17 0 0 1-2.17 2.17zm0-3.59a1.42 1.42 0 1 0 1.42 1.42 1.42 1.42 0 0 0-1.42-1.42zM9 2.89a.4.4 0 0 1-.4.4.4.4 0 0 1 0-.79.4.4 0 0 1 .4.39zm-3.74-.61a.36.36 0 0 1-.37-.37v-.39H4.5a.38.38 0 0 1-.38-.38.37.37 0 0 1 .38-.37h.39V.38A.37.37 0 0 1 5.26 0a.38.38 0 0 1 .38.38v.39H6a.36.36 0 0 1 .37.37.37.37 0 0 1-.37.38h-.36v.39a.37.37 0 0 1-.38.37z"/></symbol><symbol id="icon_plus-thin" viewBox="0 0 10.92 10.92"><g clip-path="url(#a)"><path d="M10.42 5H6V.5a.5.5 0 1 0-1 0V5H.5a.5.5 0 0 0 0 1H5v4.46a.5.5 0 0 0 1 0V6h4.46a.5.5 0 0 0 0-1"/></g></symbol><symbol id="icon_plus" viewBox="0 0 23.24 23.24"><path d="M11.62 1.5v20.24m0-20.24v20.24m10.12-10.12H1.5m10.12 11.62a1.5 1.5 0 0 1-1.5-1.5v-8.62H1.5a1.5 1.5 0 0 1 0-3h8.62V1.5a1.5 1.5 0 0 1 3 0v8.62h8.62a1.5 1.5 0 0 1 0 3h-8.62v8.62a1.5 1.5 0 0 1-1.5 1.5z"/></symbol><symbol id="icon_preview" viewBox="0 0 8.82 7.35"><path d="M7.17 4.26a2 2 0 0 0 .43.23 1.58 1.58 0 0 0 .49.1v1.29a1.39 1.39 0 0 1-.09.57 1.7 1.7 0 0 1-.32.47 1.65 1.65 0 0 1-.46.32 1.56 1.56 0 0 1-.57.11H1.47a1.56 1.56 0 0 1-.57-.11 1.56 1.56 0 0 1-.47-.32 1.67 1.67 0 0 1-.31-.47A1.39 1.39 0 0 1 0 5.88V1.47A1.39 1.39 0 0 1 .12.9 1.54 1.54 0 0 1 .43.43 1.54 1.54 0 0 1 .9.12 1.39 1.39 0 0 1 1.47 0h2.79a.59.59 0 0 0 0 .13.61.61 0 0 0 0 .14v.42a.91.91 0 0 0 0 .23H1.47a.55.55 0 0 0-.55.55v4.41a.57.57 0 0 0 .16.39.53.53 0 0 0 .39.16h5.15A.51.51 0 0 0 7 6.27a.54.54 0 0 0 .17-.39zM8.82.68V3a.28.28 0 0 1-.08.2.21.21 0 0 1-.19.07h-.41a.24.24 0 0 1-.2-.08.26.26 0 0 1-.08-.19V1.75l-3.7 3.68a.26.26 0 0 1-.16.08.3.3 0 0 1-.2-.08l-.38-.38a.33.33 0 0 1-.08-.2.26.26 0 0 1 .08-.19L7.08 1H5.79A.22.22 0 0 1 5.6.88a.24.24 0 0 1-.08-.2V.27a.24.24 0 0 1 .07-.19.32.32 0 0 1 .2-.08h2.76a.27.27 0 0 1 .19.08.25.25 0 0 1 .08.19z"/></symbol><symbol id="icon_refresh" viewBox="0 0 612.035 612.035"><path d="M323.128 56.236l5.646-9.57 40.17-40.169C271.247-13.921 165.482 13.786 89.65 89.646-16.421 195.717-28.355 360.261 53.875 479.49L10.98 522.386l137.7 19.667-19.667-137.7-34.968 34.967c-60.978-96.724-49.322-226.078 34.94-310.34 53.244-53.243 124.486-77.501 194.143-72.744zm258.264 13.743l-137.7-19.667 19.668 137.7 38.25-38.25c78.726 98.31 72.521 242.186-18.583 333.317-61.116 61.117-145.989 84.039-224.882 68.739l-45.65 45.649c105.654 33.799 226.05 8.791 309.895-75.054 112.858-112.858 119.146-291.979 18.805-412.209l40.197-40.225z"/></symbol><symbol id="icon_round-angle-down" viewBox="0 0 11 9"><path d="M11 4L0 0v9c3.83-5.67 11-5 11-5z"/></symbol><symbol id="icon_round-angle" viewBox="0 0 11 9"><path d="M0 0v9l11-4s-7.17.67-11-5z"/></symbol><symbol id="icon_round-check" viewBox="0 0 7.64 7.65"><path d="M3.82 0a3.71 3.71 0 0 1 1.49.3 3.8 3.8 0 0 1 1.22.82 3.87 3.87 0 0 1 .82 1.21 3.78 3.78 0 0 1 .29 1.5 3.72 3.72 0 0 1-1.11 2.7 3.8 3.8 0 0 1-1.22.82 3.71 3.71 0 0 1-1.49.3 3.78 3.78 0 0 1-2.7-1.12A3.78 3.78 0 0 1 0 3.83a3.79 3.79 0 0 1 .3-1.5 3.87 3.87 0 0 1 .82-1.21A3.78 3.78 0 0 1 3.82 0m0 6.5a2.59 2.59 0 0 0 1.05-.21 2.74 2.74 0 0 0 1.42-1.42 2.58 2.58 0 0 0 .21-1 2.59 2.59 0 0 0-.21-1.05 2.74 2.74 0 0 0-1.42-1.46 2.66 2.66 0 0 0-1.05-.21 2.58 2.58 0 0 0-1 .21 2.65 2.65 0 0 0-.85.57 2.88 2.88 0 0 0-.57.85 2.59 2.59 0 0 0-.21 1.05 2.58 2.58 0 0 0 .21 1 2.88 2.88 0 0 0 .57.85 2.65 2.65 0 0 0 .85.57 2.58 2.58 0 0 0 1 .21m1.37-3.84a.22.22 0 0 1 .14-.05.19.19 0 0 1 .13.05l.54.55a.19.19 0 0 1 0 .13.17.17 0 0 1 0 .13l-2 2a.37.37 0 0 1-.16.1.39.39 0 0 1-.18 0h-.49a.45.45 0 0 1-.18 0 .37.37 0 0 1-.16-.1L1.64 4.2a.15.15 0 0 1 0-.13.17.17 0 0 1 0-.14l.55-.54a.14.14 0 0 1 .13-.05.15.15 0 0 1 .13.05l.85.86a.19.19 0 0 0 .28 0z"/></symbol><symbol id="icon_round-cross" viewBox="0 0 14.73 14.73"><path transform="rotate(135 7.366 7.362)" d="M2.3 6.99h10.13v.75H2.3z"/><path transform="rotate(45 7.362 7.36)" d="M2.3 6.99h10.13v.75H2.3z"/><path d="M7.37 14.73a7.37 7.37 0 1 1 7.36-7.36 7.37 7.37 0 0 1-7.36 7.36zM7.37 1a6.37 6.37 0 1 0 6.36 6.37A6.38 6.38 0 0 0 7.37 1z"/></symbol><symbol id="icon_rules" viewBox="0 0 6.66 8.42"><path d="M6.29 8.42H.38A.38.38 0 0 1 0 8V.38A.38.38 0 0 1 .38 0h5.91a.38.38 0 0 1 .37.38V8a.38.38 0 0 1-.37.42zM.75 7.67h5.16V.75H.75z"/><path d="M1.75 2.22h-.11a.38.38 0 0 1 0-.75h.11a.38.38 0 0 1 0 .75zm3.05 0H2.88a.38.38 0 1 1 0-.75H4.8a.38.38 0 0 1 0 .75zM1.75 3.75h-.11a.36.36 0 0 1-.37-.37.37.37 0 0 1 .37-.38h.11a.37.37 0 0 1 .37.38.36.36 0 0 1-.37.37zm3.05 0H2.88a.37.37 0 0 1-.38-.37.38.38 0 0 1 .38-.38H4.8a.38.38 0 0 1 .37.38.37.37 0 0 1-.37.37zM1.75 5.29h-.11a.38.38 0 0 1 0-.75h.11a.38.38 0 0 1 0 .75zm3.05 0H2.88a.38.38 0 1 1 0-.75H4.8a.38.38 0 0 1 0 .75zM1.75 6.82h-.11a.36.36 0 0 1-.37-.37.37.37 0 0 1 .37-.38h.11a.37.37 0 0 1 .37.38.36.36 0 0 1-.37.37zm3.05 0H2.88a.37.37 0 0 1-.38-.37.38.38 0 0 1 .38-.38H4.8a.38.38 0 0 1 .37.38.37.37 0 0 1-.37.37z"/></symbol><symbol id="icon_save" viewBox="0 0 22 22"><path d="M20 22H2a2 2 0 0 1-2-2V2a2 2 0 0 1 2-2h18a2 2 0 0 1 2 2v18a2 2 0 0 1-2 2zM2 1a1 1 0 0 0-1 1v18a1 1 0 0 0 1 1h18a1 1 0 0 0 1-1V2a1 1 0 0 0-1-1z"/><path d="M16.83 8.92H5a.5.5 0 0 1-.5-.5V.5a.5.5 0 0 1 1 0v7.42h10.83V.5a.5.5 0 0 1 .5-.5.5.5 0 0 1 .5.5v7.92a.5.5 0 0 1-.5.5z"/><path d="M8.17 6.67a.5.5 0 0 1-.5-.5V2.09a.5.5 0 0 1 .5-.5.51.51 0 0 1 .5.5v4.08a.51.51 0 0 1-.5.5zm11.29 13.58a.5.5 0 0 1-.5-.5V19a.5.5 0 0 1 .5-.5.5.5 0 0 1 .5.5v.79a.5.5 0 0 1-.5.46z"/></symbol><symbol id="icon_sc-fb" viewBox="0 0 15.99 18.46"><path d="M8 0L0 4.61v9.23l8 4.62 8-4.62V4.61zm2.08 9.23H8.74v4.83h-2V9.23h-1V7.57h1v-1A2.32 2.32 0 0 1 7.24 5a2.16 2.16 0 0 1 1.66-.6h1.33v1.67H9.4a1.9 1.9 0 0 0-.4.03.43.43 0 0 0-.2.14.53.53 0 0 0-.07.2 1.19 1.19 0 0 0 0 .29v.84h1.5z"/></symbol><symbol id="icon_sc-inst" viewBox="0 0 15.99 18.46"><path d="M9.87 5.87H6.11a1.48 1.48 0 0 0-1.47 1.48v3.76a1.48 1.48 0 0 0 1.47 1.48h3.76a1.48 1.48 0 0 0 1.48-1.48V7.35a1.48 1.48 0 0 0-1.48-1.48zM8 11.35a2.12 2.12 0 1 1 2.13-2.12A2.12 2.12 0 0 1 8 11.35zm2.28-3.78a.58.58 0 1 1 .57-.57.58.58 0 0 1-.58.57z"/><path d="M8 8.11a1.12 1.12 0 1 0 1.12 1.12A1.12 1.12 0 0 0 8 8.11z"/><path d="M8 0L0 4.61v9.23l8 4.62 8-4.62V4.61zm4.36 11.11a2.49 2.49 0 0 1-2.48 2.48H6.11a2.48 2.48 0 0 1-2.47-2.48V7.35a2.48 2.48 0 0 1 2.47-2.48h3.76a2.49 2.49 0 0 1 2.48 2.48z"/></symbol><symbol id="icon_sc-ln" viewBox="0 0 15.99 18.46"><path d="M8 0L0 4.61v9.23l8 4.62 8-4.62V4.61zM5.54 13.53H3.6V7.72h1.94zm-.17-6.88a1.13 1.13 0 0 1-.8.28 1 1 0 0 1-.77-.28 1 1 0 0 1-.3-.72.92.92 0 0 1 .31-.72 1.08 1.08 0 0 1 .78-.28 1.05 1.05 0 0 1 .78.28 1 1 0 0 1 .3.72 1 1 0 0 1-.3.72zm7.12 6.88h-1.92v-3.1a1.7 1.7 0 0 0-.24-1 .85.85 0 0 0-.74-.35 1 1 0 0 0-.62.2 1.24 1.24 0 0 0-.37.51 1.19 1.19 0 0 0-.07.47v3.24H6.6V7.72h1.93v.83a2.78 2.78 0 0 1 .23-.31 2.56 2.56 0 0 1 .33-.31 1.73 1.73 0 0 1 .51-.25 2.36 2.36 0 0 1 .67-.09 2.07 2.07 0 0 1 1.61.66 2.8 2.8 0 0 1 .61 1.95z"/></symbol><symbol id="icon_sc-tw" viewBox="0 0 15.99 18.46"><path d="M8 0L0 4.61v9.23l8 4.62 8-4.62V4.61zm3.92 7.35a1.63 1.63 0 0 1 0 .25 5.27 5.27 0 0 1-.23 1.51 5.2 5.2 0 0 1-.69 1.46 5.82 5.82 0 0 1-1.06 1.23 4.78 4.78 0 0 1-1.52.86 5.55 5.55 0 0 1-1.89.34 5.21 5.21 0 0 1-2.9-.85 3.17 3.17 0 0 0 .45 0 3.73 3.73 0 0 0 2.35-.8A1.9 1.9 0 0 1 4.66 10h.36a2.14 2.14 0 0 0 .5-.06 1.86 1.86 0 0 1-1.09-.66A1.79 1.79 0 0 1 4 8.14a1.85 1.85 0 0 0 .86.24 1.93 1.93 0 0 1-.62-.68 1.87 1.87 0 0 1 0-1.85A5.34 5.34 0 0 0 6 7.22a5.24 5.24 0 0 0 2.17.59 2.25 2.25 0 0 1 0-.44A1.88 1.88 0 0 1 10 5.48a1.8 1.8 0 0 1 1.38.6 3.65 3.65 0 0 0 1.2-.46 1.79 1.79 0 0 1-.83 1 3.68 3.68 0 0 0 1.09-.29 4 4 0 0 1-.93 1.02z"/></symbol><symbol id="icon_select-arrow" viewBox="0 0 16.31 9.16"><path d="M15.31 1L8.16 8.16m0 1a1 1 0 0 1-.71-.3 1 1 0 0 1 0-1.41L14.61.29a1 1 0 0 1 1.39 0 1 1 0 0 1 0 1.42L8.86 8.86a1 1 0 0 1-.7.3zm0-1L1 1"/><path d="M8.16 9.16a1 1 0 0 1-.71-.3L.29 1.71A1 1 0 0 1 1.71.29l7.15 7.16a1 1 0 0 1 0 1.41 1 1 0 0 1-.7.3z"/></symbol><symbol id="icon_shower" viewBox="0 0 28.8 27.09"><path d="M28.3 27.09a.5.5 0 0 1-.5-.5V11.88c0-5.74-4.8-8.62-7.48-8.62a.5.5 0 0 1 0-1c3 0 8.48 3.22 8.48 9.62v14.71a.5.5 0 0 1-.5.5z"/><path d="M20 11.18a.47.47 0 0 1-.32-.12l-9.57-8.23a.53.53 0 0 1-.17-.35.47.47 0 0 1 .14-.37A6.8 6.8 0 0 1 20.36 11a.49.49 0 0 1-.35.19zm-8.82-8.75l8.7 7.57a5.81 5.81 0 0 0-8.7-7.52z"/><path d="M19 10.39h-.11c-6.85-1.59-8.14-6.91-8.2-7.14a.5.5 0 1 1 1-.22c0 .2 1.22 4.94 7.45 6.38a.5.5 0 0 1-.12 1zm-7-.78a.51.51 0 0 1-.5-.5.51.51 0 0 1 .15-.36.52.52 0 0 1 .71 0 .54.54 0 0 1 .14.36.43.43 0 0 1 0 .19.48.48 0 0 1-.46.31zm-7.59 6.95a.49.49 0 0 1 0-.7.5.5 0 0 1 .71 0 .5.5 0 0 1 0 .71.47.47 0 0 1-.35.14.51.51 0 0 1-.36-.15zm1.45-1.42a.5.5 0 0 1 0-.71.49.49 0 0 1 .7 0 .5.5 0 0 1 0 .71.54.54 0 0 1-.35.14.51.51 0 0 1-.35-.14zm1.45-1.42a.5.5 0 0 1 0-.71A.5.5 0 0 1 8 13a.5.5 0 0 1 0 .71.5.5 0 0 1-.35.14.47.47 0 0 1-.34-.13zm1.44-1.42a.5.5 0 0 1 0-.71.5.5 0 0 1 .71 0 .5.5 0 0 1 0 .71.52.52 0 0 1-.35.14.51.51 0 0 1-.36-.14zm1.45-1.42a.5.5 0 0 1 0-.71.49.49 0 0 1 .7 0 .49.49 0 0 1 0 .7.5.5 0 0 1-.35.15.51.51 0 0 1-.35-.14zm-6.88 7.26a.72.72 0 0 1-.19 0A.91.91 0 0 1 3 18a.54.54 0 0 1-.14-.36.5.5 0 0 1 .14-.36.53.53 0 0 1 .71 0 .51.51 0 0 1 .15.35.51.51 0 0 1-.51.51zm7.12-10.47a.48.48 0 0 1-.5-.5.5.5 0 0 1 .14-.35.53.53 0 0 1 .55-.11.46.46 0 0 1 .16.11.51.51 0 0 1 .15.35.53.53 0 0 1-.15.36.5.5 0 0 1-.35.14zm-8.7 5.64a.51.51 0 0 1 .12-.7.51.51 0 0 1 .7.12.5.5 0 0 1-.12.7.52.52 0 0 1-.29.09.51.51 0 0 1-.41-.21zm1.66-1.17a.51.51 0 0 1 .12-.7.51.51 0 0 1 .7.12.5.5 0 0 1-.12.7.52.52 0 0 1-.29.09.49.49 0 0 1-.41-.21zM5.06 11a.5.5 0 0 1 .12-.7.51.51 0 0 1 .7.12.52.52 0 0 1-.12.7.52.52 0 0 1-.29.09.48.48 0 0 1-.41-.21zm1.65-1.2a.52.52 0 0 1 .12-.7.52.52 0 0 1 .7.12.5.5 0 0 1-.12.7.52.52 0 0 1-.29.09.51.51 0 0 1-.41-.21zm1.66-1.17a.5.5 0 0 1 .12-.69.51.51 0 0 1 .7.11.51.51 0 0 1-.12.7.52.52 0 0 1-.29.09.51.51 0 0 1-.41-.21zM.5 14.69a.41.41 0 0 1-.19 0 .39.39 0 0 1-.17-.11.44.44 0 0 1-.1-.16.43.43 0 0 1 0-.19.54.54 0 0 1 .14-.36.48.48 0 0 1 .17-.1.5.5 0 0 1 .38 0 .54.54 0 0 1 .16.1.55.55 0 0 1 .15.36.65.65 0 0 1 0 .19.46.46 0 0 1-.11.16.42.42 0 0 1-.16.11.43.43 0 0 1-.27 0zm13.39-3.9a.51.51 0 0 1-.35-.15.47.47 0 0 1-.15-.35.41.41 0 0 1 0-.19.39.39 0 0 1 .11-.17.51.51 0 0 1 .54-.1.44.44 0 0 1 .16.1.39.39 0 0 1 .11.17.41.41 0 0 1 0 .19.47.47 0 0 1-.15.35.51.51 0 0 1-.27.15zM8.2 19.28a.5.5 0 0 1-.15-.69.51.51 0 0 1 .69-.16.5.5 0 0 1 .15.69.49.49 0 0 1-.42.24.56.56 0 0 1-.27-.08zm1.09-1.71a.51.51 0 0 1-.16-.69.49.49 0 0 1 .69-.16.5.5 0 0 1 .16.69.51.51 0 0 1-.42.23.5.5 0 0 1-.27-.07zm1.08-1.72a.5.5 0 0 1-.15-.69.5.5 0 0 1 .69-.15.5.5 0 0 1 .15.69.48.48 0 0 1-.42.23.56.56 0 0 1-.27-.08zm1.09-1.71a.49.49 0 0 1-.16-.69.51.51 0 0 1 .69-.16.51.51 0 0 1 .16.69.52.52 0 0 1-.43.24.5.5 0 0 1-.26-.08zm1.08-1.72a.49.49 0 0 1-.15-.68.48.48 0 0 1 .68-.16.49.49 0 0 1 .16.69.51.51 0 0 1-.42.23.45.45 0 0 1-.27-.08zm-5.15 8.65a.51.51 0 0 1-.5-.5.43.43 0 0 1 0-.19.36.36 0 0 1 .11-.16.49.49 0 0 1 .54-.11.53.53 0 0 1 .27.27.43.43 0 0 1 0 .19.47.47 0 0 1-.15.35.36.36 0 0 1-.16.11.43.43 0 0 1-.11.04zm8.54-9.42a.47.47 0 0 1-.35-.15.36.36 0 0 1-.11-.16.43.43 0 0 1 0-.19.47.47 0 0 1 .15-.35.5.5 0 0 1 .7 0 .5.5 0 0 1-.35.85zm-3.57 9.52a.5.5 0 0 1-.3-.64.51.51 0 0 1 .64-.3.49.49 0 0 1 .3.64.5.5 0 0 1-.47.33.51.51 0 0 1-.17-.03zm.64-1.91a.5.5 0 0 1-.3-.64.5.5 0 0 1 .64-.3.49.49 0 0 1 .3.64.5.5 0 0 1-.47.33.51.51 0 0 1-.17-.03zm.68-1.91a.5.5 0 0 1-.3-.64.5.5 0 0 1 .64-.3.5.5 0 0 1 .3.64.5.5 0 0 1-.47.33zm.68-1.91a.5.5 0 0 1-.3-.64.5.5 0 0 1 .64-.3.5.5 0 0 1 .3.64.51.51 0 0 1-.47.33.51.51 0 0 1-.13-.03zm.68-1.91a.5.5 0 0 1-.3-.64.5.5 0 0 1 .64-.3.5.5 0 0 1 .3.64.51.51 0 0 1-.47.33.51.51 0 0 1-.13-.03zm-3.19 9.58a.43.43 0 0 1-.19 0 .54.54 0 0 1-.16-.1.55.55 0 0 1-.15-.36.51.51 0 0 1 .15-.35.49.49 0 0 1 .54-.11.46.46 0 0 1 .16.11.47.47 0 0 1 .15.35.51.51 0 0 1-.15.36.48.48 0 0 1-.35.1z"/></symbol><symbol id="icon_slider-arrow-bold" viewBox="0 0 9.96 22.68"><path d="M1 1l7.96 10.34m.04 1a1 1 0 0 1-.83-.34L.21 1.61A1 1 0 0 1 1.79.39l8 10.34A1 1 0 0 1 9 12.34zm-.04-1L1 21.68"/><path d="M1 22.68a1 1 0 0 1-.61-.2 1 1 0 0 1-.18-1.41l8-10.34A1 1 0 0 1 9.75 12l-8 10.34a1 1 0 0 1-.75.34z"/></symbol><symbol id="icon_slider-arrow" viewBox="0 0 8.46 21.18"><path d="M.25.25l7.96 10.34m0 .25a.25.25 0 0 1-.2-.1L.05.4A.25.25 0 0 1 .1.05.25.25 0 0 1 .45.1l8 10.34a.25.25 0 0 1-.05.35.25.25 0 0 1-.19.05zm0-.25L.25 20.93"/><path d="M.25 21.18a.21.21 0 0 1-.15-.05.25.25 0 0 1 0-.35L8 10.44a.25.25 0 1 1 .4.3l-8 10.34a.23.23 0 0 1-.15.1z"/></symbol><symbol id="icon_stand" viewBox="0 0 24 24"><path d="M23.5 17H.5a.5.5 0 0 1-.5-.5V.5A.5.5 0 0 1 .5 0h23a.5.5 0 0 1 .5.5v16a.5.5 0 0 1-.5.5zM1 16h22V1H1z"/><path d="M11.5 24a.5.5 0 0 1-.5-.5v-7a.5.5 0 0 1 1 0v7a.5.5 0 0 1-.5.5z"/><path d="M18.5 24a.47.47 0 0 1-.35-.15l-6.65-6.64-6.65 6.64a.49.49 0 0 1-.7-.7l7-7a.48.48 0 0 1 .7 0l7 7a.48.48 0 0 1 0 .7.47.47 0 0 1-.35.15zm5-19H.5a.5.5 0 0 1 0-1h23a.5.5 0 0 1 0 1z"/></symbol><symbol id="icon_star" viewBox="0 0 6.9 7.35"><path d="M6.65 4.6a.4.4 0 0 1 .22.27.53.53 0 0 1 0 .35l-.34.59A.45.45 0 0 1 6.2 6a.43.43 0 0 1-.35 0l-1.59-.94v1.83a.44.44 0 0 1-.42.46h-.72a.39.39 0 0 1-.32-.13.39.39 0 0 1-.13-.32V5.06L1 6a.55.55 0 0 1-.27 0 .44.44 0 0 1-.28-.22L.1 5.22a.53.53 0 0 1 0-.35.41.41 0 0 1 .17-.27l1.6-.92-1.6-.93A.39.39 0 0 1 0 2.48a.43.43 0 0 1 0-.35l.35-.59a.43.43 0 0 1 .28-.21.53.53 0 0 1 .35 0l1.59.92V.46A.45.45 0 0 1 2.8.13.39.39 0 0 1 3.12 0h.68a.46.46 0 0 1 .33.13.46.46 0 0 1 .13.32v1.84l1.59-.92a.53.53 0 0 1 .35 0 .46.46 0 0 1 .28.21l.33.59a.48.48 0 0 1 .05.35.42.42 0 0 1-.21.27L5 3.68z"/></symbol><symbol id="icon_strings" viewBox="0 0 8.65 6.37"><path d="M6 .75H.38A.38.38 0 0 1 0 .38.38.38 0 0 1 .38 0H6a.38.38 0 0 1 0 .75zm2.27 1.87H.38A.37.37 0 0 1 0 2.25a.38.38 0 0 1 .38-.38h7.89a.38.38 0 0 1 .38.38.37.37 0 0 1-.38.37zM.82 4.5H.38a.38.38 0 1 1 0-.75h.44a.38.38 0 0 1 0 .75zm4.98 0H2.11a.38.38 0 0 1 0-.75H5.8a.38.38 0 1 1 0 .75zM.82 6.37H.38A.37.37 0 0 1 0 6a.38.38 0 0 1 .38-.38h.44a.38.38 0 0 1 .37.38.37.37 0 0 1-.37.37zm3.95 0H2.11A.37.37 0 0 1 1.74 6a.38.38 0 0 1 .37-.38h2.66a.38.38 0 0 1 .37.38.37.37 0 0 1-.37.37z"/></symbol><symbol id="icon_time-3h" viewBox="0 0 7.64 7.65"><g clip-path="url(#a)"><path d="M3.82 0a3.71 3.71 0 0 1 1.49.3 3.8 3.8 0 0 1 1.22.82 3.72 3.72 0 0 1 1.11 2.71 3.77 3.77 0 0 1-.29 1.49 3.87 3.87 0 0 1-.82 1.21 3.8 3.8 0 0 1-1.22.82 3.71 3.71 0 0 1-1.49.3 3.78 3.78 0 0 1-2.7-1.12A3.87 3.87 0 0 1 .3 5.32a3.88 3.88 0 0 1 0-3 3.87 3.87 0 0 1 2-2A3.74 3.74 0 0 1 3.82 0m0 6.5a2.59 2.59 0 0 0 1.05-.21 2.88 2.88 0 0 0 .85-.57 2.88 2.88 0 0 0 .57-.85 2.58 2.58 0 0 0 .21-1 2.59 2.59 0 0 0-.21-1.05 2.88 2.88 0 0 0-.57-.85 2.88 2.88 0 0 0-.85-.57 2.66 2.66 0 0 0-1.05-.21 2.58 2.58 0 0 0-1 .21 2.65 2.65 0 0 0-.85.57 2.88 2.88 0 0 0-.57.85 2.59 2.59 0 0 0-.21 1.05 2.58 2.58 0 0 0 .21 1 2.88 2.88 0 0 0 .57.85 2.65 2.65 0 0 0 .85.57 2.58 2.58 0 0 0 1 .21m1.33-2.67a.36.36 0 0 1 .27.11.37.37 0 0 1 .11.27v.38a.37.37 0 0 1-.11.27.36.36 0 0 1-.27.14H3.42a.36.36 0 0 1-.27-.11.37.37 0 0 1-.15-.3V2.36a.36.36 0 0 1 .11-.26.37.37 0 0 1 .31-.1h.39a.34.34 0 0 1 .27.12.35.35 0 0 1 .1.26v1.45z"/></g></symbol><symbol id="icon_time" viewBox="0 0 9 9"><path d="M8.4 2.24A4.42 4.42 0 0 1 9 4.5a4.42 4.42 0 0 1-.6 2.26A4.52 4.52 0 0 1 6.76 8.4 4.42 4.42 0 0 1 4.5 9a4.42 4.42 0 0 1-2.26-.6A4.52 4.52 0 0 1 .6 6.76 4.42 4.42 0 0 1 0 4.5a4.42 4.42 0 0 1 .6-2.26A4.6 4.6 0 0 1 2.24.6 4.42 4.42 0 0 1 4.5 0a4.42 4.42 0 0 1 2.26.6A4.6 4.6 0 0 1 8.4 2.24zM7.26 6.1a3.07 3.07 0 0 0 .43-1.6 3.07 3.07 0 0 0-.43-1.6A3.22 3.22 0 0 0 6.1 1.74a3.19 3.19 0 0 0-3.2 0A3.22 3.22 0 0 0 1.74 2.9 3.19 3.19 0 0 0 6.1 7.26 3.15 3.15 0 0 0 7.26 6.1zm-2-3.66v2.62a.17.17 0 0 1-.19.19H3.19A.17.17 0 0 1 3 5.06v-.37a.17.17 0 0 1 .19-.19H4.5V2.44a.22.22 0 0 1 0-.14.22.22 0 0 1 .14 0h.37a.22.22 0 0 1 .14 0 .22.22 0 0 1 .1.14z"/></symbol><symbol id="icon_user" viewBox="0 0 17.41 18.5"><path d="M8.71 11A5.41 5.41 0 0 1 3.4 5.5 5.41 5.41 0 0 1 8.71 0 5.41 5.41 0 0 1 14 5.5 5.41 5.41 0 0 1 8.71 11zm0-10A4.41 4.41 0 0 0 4.4 5.5 4.41 4.41 0 0 0 8.71 10 4.42 4.42 0 0 0 13 5.5 4.42 4.42 0 0 0 8.71 1zm8.2 17.5a.5.5 0 0 1-.5-.5c0-2.48-3.45-4.5-7.7-4.5S1 15.52 1 18a.5.5 0 0 1-.5.5.5.5 0 0 1-.5-.5c0-3.08 3.82-5.5 8.71-5.5s8.7 2.42 8.7 5.5a.5.5 0 0 1-.5.5z"/></symbol><symbol id="icon_warning-stroke" viewBox="0 0 14 12"><g clip-path="url(#clip0)"><path d="M13.442 12H.558a.542.542 0 0 1-.483-.28.57.57 0 0 1 0-.56L6.51.25c.196-.338.784-.338.98 0l6.435 10.91a.535.535 0 0 1 0 .56.56.56 0 0 1-.483.28zM1.537 10.895h10.926L7.008 1.637l-5.47 9.258z"/><path d="M7.008 10.305c-.317 0-.573-.192-.573-.487v-.132c0-.31.256-.56.573-.56.316 0 .572.25.572.56 0 .31-.271.619-.572.619zm0-1.769a.566.566 0 0 1-.573-.56V4.673c0-.31.256-.56.573-.56.316 0 .572.25.572.56v3.303a.586.586 0 0 1-.572.56z"/></g><path d="M.5.5h13v11H.5z"/></symbol><symbol id="icon_warning" viewBox="0 0 14.53 13.97"><path d="M14.32 12.13l-2.11-4-1.89-3.5L8.21.73c-.52-1-1.37-1-1.89 0L4.21 4.65 2.32 8.19.21 12.13A1.15 1.15 0 0 0 1.26 14h12a1.15 1.15 0 0 0 1.06-1.87zM8.26 12h-2v-2h2zm0-3h-2V5h2z"/></symbol></svg>