<svg xmlns="http://www.w3.org/2000/svg"><symbol id="icon_arrow" viewBox="0 0 16.3 9.2"><path class="st0" d="M15.3 1L8.2 8.2m0 0L1 1"/></symbol><symbol id="icon_arrow2" viewBox="0 0 42.3 109.1"><path class="st0" d="M.3.3l41.8 54.3m0 0L.3 108.9"/></symbol><symbol id="icon_arrow3" viewBox="0 0 7.4 7.3"><path class="st0" d="M3.9 7.2c-.1.1-.3.1-.4 0L.1 3.8c-.1-.1-.1-.2 0-.3l.2-.2c.1-.1.2-.1.3 0l2.9 2.9c.1.1.3.1.4 0l2.9-2.9c.1-.1.2-.1.3 0l.2.2c.1.1.1.2 0 .3L3.9 7.2z"/><path class="st0" d="M4.1 6.4c0 .1-.1.2-.2.2h-.4c-.1 0-.2-.1-.2-.2V.2c0-.1.1-.2.2-.2h.4c.1 0 .2.1.2.2v6.2z"/></symbol><symbol id="icon_bike_storage" viewBox="0 0 29.1 18.1"><path d="M5.4 18.1c-3 0-5.4-2.4-5.4-5.4 0-3 2.4-5.4 5.4-5.4s5.4 2.4 5.4 5.4c0 3-2.4 5.4-5.4 5.4zm0-9.8C3 8.3 1 10.3 1 12.7s2 4.4 4.4 4.4 4.4-2 4.4-4.4-2-4.4-4.4-4.4zm18.3 9.8c-3 0-5.4-2.4-5.4-5.4 0-3 2.4-5.4 5.4-5.4 3 0 5.4 2.4 5.4 5.4 0 3-2.4 5.4-5.4 5.4zm0-9.8c-2.4 0-4.4 2-4.4 4.4s2 4.4 4.4 4.4c2.4 0 4.4-2 4.4-4.4s-2-4.4-4.4-4.4z"/><path d="M13.3 13.2H5.4c-.2 0-.4-.1-.4-.3s-.1-.4 0-.5l4.7-7.1-1.8-4.2c-.1-.3 0-.5.3-.7.3-.1.5 0 .7.3l1.8 4.2h10.1c.2 0 .4.1.5.3s0 .4-.1.5L13.9 13c-.3.2-.4.2-.6.2zm-7-1h6.3l-2.4-5.8-3.9 5.8zM11 5.9l2.5 6 5.9-6H11z"/><path d="M23.7 13.2h-.2l-1.2-.4c-.2-.1-.3-.2-.3-.3L19.2 1.9c0-.2 0-.3.1-.5s.3-.2.4-.2l3.9.4c1 .1 1.6 1 1.5 2-.1.9-1 1.6-1.9 1.5-.3 0-.5-.3-.4-.6 0-.3.3-.5.6-.4.4.1.8-.2.8-.6.1-.4-.2-.8-.6-.8l-3.1-.4 2.6 9.6.9.3c.3.1.4.4.3.6-.2.3-.4.4-.6.4zm-12.8-11h-.2L7.1 1C6.8.9 6.7.6 6.7.3c.1-.2.4-.4.7-.3L11 1.2c.3.1.4.4.3.6 0 .3-.2.4-.4.4z"/></symbol><symbol id="icon_burger" viewBox="0 0 20.3 15.5"><path d="M15.4 13.7H.2c-.1 0-.2.1-.2.2v1.4c0 .1.1.2.2.2h15.2c.1 0 .2-.1.2-.2v-1.4c0-.1-.1-.2-.2-.2zM11 6.8H.2c-.1 0-.2.1-.2.2v1.4c0 .1.1.2.2.2H11c.1 0 .2-.1.2-.2V7c0-.1-.1-.2-.2-.2zM20.1 0H.1S0 .1 0 .2v1.4c0 .1.1.2.2.2h20c.1 0 .2-.1.2-.2V.2c-.1-.1-.2-.2-.3-.2z"/></symbol><symbol id="icon_bus" viewBox="0 0 351 185.1"><path class="st0" d="M323.9 0H63.6C28.5 0 0 28.5 0 63.6v107.9h59.7c-.9-2.9-1.8-5.8-1.8-9 0-16.9 13.7-30.5 30.5-30.5 16.9 0 30.5 13.7 30.5 30.5 0 3.2-.9 6.1-1.8 9h137.1c-.9-2.9-1.8-5.8-1.8-9 0-16.9 13.7-30.5 30.5-30.5 16.9 0 30.5 13.7 30.5 30.5 0 3.2-.9 6.1-1.8 9H351V27.1c0-15-12.1-27.1-27.1-27.1zM82.5 110.5H33.3v-32h49.2v32zm0-49.3H33.3V29.3h49.2v31.9zm63.9 49.3H97.2v-32h49.2v32zm0-49.3H97.2V29.3h49.2v31.9zm63.9 49.3h-49.2v-32h49.2v32zm0-49.3h-49.2V29.3h49.2v31.9zm63.9 49.3H225v-32h49.2v32zm0-49.3H225V29.3h49.2v31.9zm63.9 49.3h-49.2v-32h49.2v32zm0-49.3h-49.2V29.3h49.2v31.9z"/><circle class="st1" cx="88.6" cy="164.1" r="20.9"/><circle class="st1" cx="283.5" cy="164.1" r="20.9"/></symbol><symbol id="icon_car" viewBox="0 0 326.7 215.1"><path d="M245.4 24.7l13.4 34H67.9l13.4-34h164.1M249.6 0H77c-7.6 0-14.3 4.6-17.1 11.6L31.7 83.3H295l-28.3-71.6C264 4.6 257.2 0 249.6 0zM66 215.1H20.4c-.1 0-.2-.1-.2-.2v-72.1c0-.1.1-.2.2-.2H66c.1 0 .2.1.2.2v72.1c0 .1-.1.2-.2.2zm240.2 0h-45.5c-.1 0-.2-.1-.2-.2v-72.1c0-.1.1-.2.2-.2h45.5c.1 0 .2.1.2.2v72.1c0 .1-.1.2-.2.2zM29.9 76H.2c-.1 0-.2-.1-.2-.2V57.1c0-.1.1-.1.2-.1h29.7c.1 0 .1 0 .1.1v18.7c0 .1 0 .2-.1.2zm296.6 0h-29.7c-.1 0-.2-.1-.2-.2V57.1c0-.1.1-.2.2-.2h29.7c.1 0 .2.1.2.2v18.7c0 .1-.1.2-.2.2z"/><path d="M259.4 64H67.2c-29.7 0-54 24.3-54 54v15.3c0 29.7 24.3 54 54 54h192.2c29.7 0 54-24.3 54-54V118c0-29.7-24.3-54-54-54zM67.1 128.2H35.2c-7.1 0-12.9-5.8-12.9-12.9s5.8-12.9 12.9-12.9h31.9c7.1 0 12.9 5.8 12.9 12.9s-5.8 12.9-12.9 12.9zm155.8-3.6c0 7.1-5.8 12.9-12.9 12.9h-93.3c-7.1 0-12.9-5.8-12.9-12.9v-9.4c0-7.1 5.8-12.9 12.9-12.9H210c7.1 0 12.9 5.8 12.9 12.9v9.4zm68.5 3.6h-31.9c-7.1 0-12.9-5.8-12.9-12.9s5.8-12.9 12.9-12.9h31.9c7.1 0 12.9 5.8 12.9 12.9s-5.8 12.9-12.9 12.9z"/></symbol><symbol id="icon_childcare" viewBox="0 0 15 24"><path d="M9.5 19h-4c-.2 0-.3-.1-.4-.3-.1-.2-.1-.3 0-.5l1.2-2.1C2.2 13.5 0 10.7 0 8c0-4.6 3.2-8 7.5-8S15 3.4 15 8c0 2.7-2.2 5.5-6.3 8.2l1.2 2.1c.1.2.1.3 0 .5-.1.1-.2.2-.4.2zm-3.1-1h2.2l-1-1.7c0-.1-.1-.2-.1-.2 0 .1 0 .2-.1.2l-1 1.7zM7.5 1C3.7 1 1 3.9 1 8c0 2.4 2.2 5.1 6.3 7.6.2.1.2.3.2.4 0-.2.1-.3.2-.4 4-2.5 6.3-5.2 6.3-7.6 0-4.1-2.7-7-6.5-7z"/><path d="M11.5 24c-.3 0-.5-.2-.5-.5v-2c0-.3-.2-.5-.5-.5s-.5.2-.5.5c0 .8-.7 1.5-1.5 1.5S7 22.3 7 21.5v-3c0-.3.2-.5.5-.5s.5.2.5.5v3c0 .3.2.5.5.5s.5-.2.5-.5c0-.8.7-1.5 1.5-1.5s1.5.7 1.5 1.5v2c0 .3-.2.5-.5.5zm-9-16c-.3 0-.5-.2-.5-.5C2 4.5 4.5 2 7.5 2c.3 0 .5.2.5.5s-.2.5-.5.5C5 3 3 5 3 7.5c0 .3-.2.5-.5.5z"/></symbol><symbol id="icon_close" viewBox="0 0 14.7 14.7"><path transform="rotate(134.999 7.365 7.365)" d="M2.3 7h10.1v.7H2.3z"/><path transform="rotate(45.001 7.365 7.365)" d="M2.3 7h10.1v.7H2.3z"/><circle class="st0" cx="7.4" cy="7.4" r="6.9"/></symbol><symbol id="icon_event_space" viewBox="0 0 24 24"><path d="M23.5 17H.5c-.3 0-.5-.2-.5-.5V.5C0 .2.2 0 .5 0h23c.3 0 .5.2.5.5v16c0 .3-.2.5-.5.5zM1 16h22V1H1v15z"/><path d="M11.5 24c-.3 0-.5-.2-.5-.5v-7c0-.3.2-.5.5-.5s.5.2.5.5v7c0 .3-.2.5-.5.5z"/><path d="M18.5 24c-.1 0-.3 0-.4-.1l-6.6-6.6-6.6 6.6c-.2.2-.5.2-.7 0s-.2-.5 0-.7l7-7c.2-.2.5-.2.7 0l7 7c.2.2.2.5 0 .7-.1.1-.3.1-.4.1zm5-19H.5C.2 5 0 4.8 0 4.5S.2 4 .5 4h23c.3 0 .5.2.5.5s-.2.5-.5.5z"/></symbol><symbol id="icon_facebook" viewBox="0 0 16 18.5"><path class="st0" d="M8 0L0 4.6v9.2l8 4.6 8-4.6V4.6L8 0zm2.1 9.2H8.7V14h-2V9.2h-1V7.6h1v-1c0-.7.2-1.3.5-1.6.3-.4.9-.5 1.7-.5h1.3v1.7H8.8c0 .1-.1.1-.1.2v1.1h1.5l-.1 1.7z"/></symbol><symbol id="icon_gym" viewBox="0 0 27.7 15.9"><path d="M8 15.9H3.7c-.3 0-.5-.2-.5-.5V.5c0-.3.2-.5.5-.5H8c.3 0 .5.2.5.5v14.9c0 .3-.2.5-.5.5zm-3.8-1h3.3V1H4.2v13.9z"/><path d="M3.7 13.9H.5c-.3 0-.5-.2-.5-.5V2.5c0-.3.2-.5.5-.5h3.2c.3 0 .5.2.5.5v10.9c0 .3-.2.5-.5.5zm-2.7-1h2.2V3H1v9.9zm26.2 1H24c-.3 0-.5-.2-.5-.5V2.5c0-.3.2-.5.5-.5h3.2c.3 0 .5.2.5.5v10.9c0 .3-.2.5-.5.5zm-2.7-1h2.2V3h-2.2v9.9z"/><path d="M24 15.9h-4.3c-.3 0-.5-.2-.5-.5V.5c0-.3.2-.5.5-.5H24c.3 0 .5.2.5.5v14.9c0 .3-.3.5-.5.5zm-3.8-1h3.3V1h-3.3v13.9z"/><path d="M19.7 10.2H8c-.3 0-.5-.2-.5-.5V6.2c0-.3.2-.5.5-.5h11.7c.3 0 .5.2.5.5v3.6c0 .2-.2.4-.5.4zm-11.2-1h10.7V6.7H8.5v2.5z"/></symbol><symbol id="icon_heart" viewBox="0 0 87.4 77.5"><path class="st0" d="M46.5 76.4c-.8.7-1.8 1.1-2.8 1.1-1.1 0-1.9-.4-2.7-1.1L11.1 46.6c-.1-.1-.8-.7-1.9-2-1.1-1.3-2.4-2.9-3.7-5-1.4-2.1-2.6-4.4-3.7-7.1C.6 29.9 0 27 0 24c0-4.4.7-8.2 2.1-11.2 1.4-3.1 3.2-5.5 5.5-7.4 2.3-1.9 4.8-3.2 7.6-4.1C17.9.4 20.8 0 23.7 0c2 0 4.1.3 6.1 1s3.9 1.6 5.6 2.6c1.7 1 3.3 2.2 4.7 3.4 1.4 1.2 2.6 2.3 3.6 3.3 1-1 2.2-2.1 3.7-3.3 1.5-1.2 3-2.3 4.7-3.4 1.7-1 3.5-1.9 5.5-2.6 2-.7 4-1 6.1-1 2.8 0 5.7.4 8.5 1.2 2.8.8 5.3 2.2 7.6 4.1 2.2 1.9 4.1 4.4 5.5 7.4 1.4 3.1 2.1 6.8 2.1 11.2 0 3-.6 5.9-1.7 8.6-1.1 2.7-2.4 5.1-3.7 7.1-1.4 2-2.6 3.7-3.8 5-1.2 1.3-1.8 2-1.9 2.1L46.5 76.4zM23.7 7.8c-1.9 0-3.7.2-5.6.7-1.9.4-3.6 1.2-5.2 2.4s-2.8 2.8-3.8 4.9c-1 2.1-1.4 4.8-1.4 8.2 0 2.2.5 4.3 1.3 6.4.9 2 1.9 3.9 3 5.5s2.1 2.9 3.1 3.9l1.4 1.4 27.2 27.1L70.9 41l1.4-1.4c.9-1 1.9-2.3 3-3.9s2.1-3.4 3-5.5c.9-2 1.3-4.2 1.3-6.3 0-3.4-.5-6.1-1.4-8.2-1-2.1-2.2-3.7-3.8-4.9-1.6-1.2-3.3-2-5.2-2.4-1.9-.4-3.7-.7-5.5-.7-1.7 0-3.4.4-5.2 1.2-1.8.8-3.4 1.8-5 3s-2.9 2.4-4.2 3.6c-1.2 1.2-2.1 2.2-2.7 2.9-.8 1-1.8 1.5-3 1.5s-2.2-.5-3-1.5c-.6-.7-1.5-1.7-2.7-2.9-1.2-1.2-2.6-2.4-4.2-3.6-1.6-1.2-3.2-2.2-5-3-1.6-.7-3.3-1.1-5-1.1z"/></symbol><symbol id="icon_instagram" viewBox="0 0 16 18.5"><path class="st0" d="M9.9 5.9H6.1c-.8 0-1.5.7-1.5 1.5v3.8c0 .8.7 1.5 1.5 1.5h3.8c.8 0 1.5-.7 1.5-1.5V7.4c-.1-.9-.7-1.5-1.5-1.5zM8 11.4c-1.2 0-2.1-1-2.1-2.1s1-2.1 2.1-2.1 2.1 1 2.1 2.1-.9 2.1-2.1 2.1zm2.3-3.8c-.3 0-.6-.3-.6-.6s.3-.6.6-.6.6.3.6.6-.3.6-.6.6z"/><path class="st0" d="M8 8.1c-.6 0-1.1.5-1.1 1.1s.5 1.1 1.1 1.1 1.1-.5 1.1-1.1S8.6 8.1 8 8.1z"/><path class="st0" d="M8 0L0 4.6v9.2l8 4.6 8-4.6V4.6L8 0zm4.3 11.1c0 1.4-1.1 2.5-2.5 2.5H6.1c-1.4 0-2.5-1.1-2.5-2.5V7.4c0-1.4 1.1-2.5 2.5-2.5h3.8c1.4 0 2.5 1.1 2.5 2.5v3.7z"/></symbol><symbol id="icon_kitchen" viewBox="0 0 24 24"><path d="M22.5 21h-21c-.3 0-.5-.2-.5-.5v-18c0-.3.2-.5.5-.5h21c.3 0 .5.2.5.5v18c0 .3-.2.5-.5.5zM2 20h20V3H2v17z"/><path d="M23.5 24H.5c-.3 0-.5-.2-.5-.5v-3c0-.3.2-.5.5-.5h23c.3 0 .5.2.5.5v3c0 .3-.2.5-.5.5zM1 23h22v-2H1v2zm19.5-4h-17c-.3 0-.5-.2-.5-.5v-10c0-.3.2-.5.5-.5h17c.3 0 .5.2.5.5v10c0 .3-.2.5-.5.5zM4 18h16V9H4v9z"/><path d="M17.5 12h-11c-.3 0-.5-.2-.5-.5s.2-.5.5-.5h11c.3 0 .5.2.5.5s-.2.5-.5.5zm-2-5c-.8 0-1.5-.7-1.5-1.5S14.7 4 15.5 4s1.5.7 1.5 1.5S16.3 7 15.5 7zm0-2c-.3 0-.5.2-.5.5s.2.5.5.5.5-.2.5-.5-.2-.5-.5-.5zm4 2c-.8 0-1.5-.7-1.5-1.5S18.7 4 19.5 4s1.5.7 1.5 1.5S20.3 7 19.5 7zm0-2c-.3 0-.5.2-.5.5s.2.5.5.5.5-.2.5-.5-.2-.5-.5-.5zm-7 2h-9c-.3 0-.5-.2-.5-.5v-2c0-.3.2-.5.5-.5h9c.3 0 .5.2.5.5v2c0 .3-.2.5-.5.5zM4 6h8V5H4v1zm19.5-3H.5C.2 3 0 2.8 0 2.5v-2C0 .2.2 0 .5 0h23c.3 0 .5.2.5.5v2c0 .3-.2.5-.5.5zM1 2h22V1H1v1z"/></symbol><symbol id="icon_linkedin" viewBox="0 0 16 18.5"><path class="st0" d="M8 0L0 4.6v9.2l8 4.6 8-4.6V4.6L8 0zM5.5 13.5H3.6V7.7h1.9v5.8zm-.1-6.9c-.2.2-.5.3-.8.3-.4 0-.6-.1-.8-.3-.2-.1-.3-.4-.3-.7 0-.3.1-.5.3-.7.2-.2.5-.3.8-.3.3 0 .6.1.8.3.2.2.3.4.3.7 0 .3-.1.6-.3.7zm7.1 6.9h-1.9v-3.1c0-.4-.1-.7-.2-1-.2-.2-.4-.3-.7-.3-.4 0-.6.1-.7.2-.2.1-.3.3-.4.5 0 .1-.1.3-.1.5v3.2H6.6V7.7h1.9v.8c.1-.1.2-.2.2-.3.1-.1.3-.2.4-.3.1-.1.3-.2.5-.3.2-.1.4-.1.7-.1.7 0 1.2.2 1.6.7.4.4.6 1.1.6 1.9v3.4z"/></symbol><symbol id="icon_lockers" viewBox="0 0 16 24"><path d="M8 24c-4.4 0-8-3.6-8-8s3.6-8 8-8 8 3.6 8 8-3.6 8-8 8zM8 9c-3.9 0-7 3.1-7 7s3.1 7 7 7 7-3.1 7-7-3.1-7-7-7z"/><path d="M13.5 10.4h-1V5.5C12.5 3 10.5 1 8 1S3.5 3 3.5 5.5v4.9h-1V5.5C2.5 2.5 5 0 8 0s5.5 2.5 5.5 5.5v4.9zM8 20.5c-2.5 0-4.5-2-4.5-4.5s2-4.5 4.5-4.5 4.5 2 4.5 4.5-2 4.5-4.5 4.5zm0-8c-1.9 0-3.5 1.6-3.5 3.5s1.6 3.5 3.5 3.5 3.5-1.6 3.5-3.5-1.6-3.5-3.5-3.5z"/><path d="M8 13.5c-.3 0-.5-.2-.5-.5v-2c0-.3.2-.5.5-.5s.5.2.5.5v2c0 .3-.2.5-.5.5zm0 8c-.3 0-.5-.2-.5-.5v-2c0-.3.2-.5.5-.5s.5.2.5.5v2c0 .3-.2.5-.5.5zm5-5h-2c-.3 0-.5-.2-.5-.5s.2-.5.5-.5h2c.3 0 .5.2.5.5s-.2.5-.5.5zm-8 0H3c-.3 0-.5-.2-.5-.5s.2-.5.5-.5h2c.3 0 .5.2.5.5s-.2.5-.5.5zm3 .5c-.6 0-1-.4-1-1s.4-1 1-1 1 .4 1 1-.4 1-1 1zm0-1h.5H8z"/></symbol><symbol id="icon_logo" viewBox="0 0 261.4 298.7"><linearGradient id="SVGID_1_" gradientUnits="userSpaceOnUse" x1="161.167" y1="130.628" x2="236.924" y2="242.941"><stop offset=".25"/><stop offset="1"/></linearGradient><path class="st0" d="M236.4 89.9V212L162 255.3v-33.4l61.8-36.2V96.2L137 146.9v151.8l124.4-72.3V75.5l-25 14.4zM162 161.3l36.8-21.7v31.7L162 193v-31.7z"/><linearGradient id="SVGID_2_" gradientUnits="userSpaceOnUse" x1="93.81" y1="119.207" x2="30.602" y2="254.758"><stop offset=".25"/><stop offset="1"/></linearGradient><path class="st1" d="M0 75.5v150.9l124.4 72.1v-90.9l-61.8-36.2v-31.7l61.8 36.2V147L37.6 96.2v89.5l61.8 36.2v33.3L25 212V89.9L0 75.5z"/><linearGradient id="SVGID_3_" gradientUnits="userSpaceOnUse" x1="128.095" y1=".092" x2="131.36" y2="93.576"><stop offset=".25"/><stop offset="1"/></linearGradient><path class="st2" d="M0 75.5l25 14.4 105.7-61 105.7 61 25-14.4L130.7 0z"/></symbol><symbol id="icon_logo2" viewBox="0 0 552.4 102.5"><path d="M0 69.4l9.2-12.9c5.6 5.8 14.3 10.7 25.2 10.7 9.3 0 13.8-4.3 13.8-8.8 0-14-45.7-4.4-45.7-34.3C2.5 10.9 13.9 0 32.6 0c12.6 0 23.1 3.8 30.9 11.1l-9.4 12.4c-6.4-6-15-8.7-23.1-8.7-7.3 0-11.3 3.2-11.3 8 0 12.6 45.6 4.2 45.6 33.8C65.3 71 55 82 33.6 82 18.3 82 7.4 76.9 0 69.4zm88.5 3.8v29.3H73.4V23.1h15.1v7.3c4.4-5.6 10.7-8.7 17.7-8.7 14.8 0 25.5 10.9 25.5 30.1S121 82 106.3 82c-6.8 0-13.1-2.9-17.8-8.8zM116 51.8c0-9.9-5.8-16.7-14.5-16.7-4.9 0-10.5 2.9-13 6.5V62c2.5 3.6 8.1 6.5 13 6.5 8.7 0 14.5-6.7 14.5-16.7zm58.3 28.8v-6c-3.9 4.6-10.7 7.4-18.2 7.4-9.2 0-20-6.2-20-19 0-13.4 10.8-18.6 20-18.6 7.6 0 14.4 2.5 18.2 7v-7.7c0-5.8-5-9.6-12.6-9.6-6.2 0-11.9 2.3-16.8 6.8l-5.7-10.1c7-6.2 16.1-9 25.1-9 13.1 0 25.1 5.2 25.1 21.8v37.1h-15.1zm0-13.8v-7.1c-2.5-3.3-7.3-5-12.1-5-6 0-10.8 3.1-10.8 8.7 0 5.4 4.9 8.4 10.8 8.4 4.9 0 9.6-1.7 12.1-5zm23.5-15c0-17.6 12.7-30.1 30.5-30.1 11.8 0 18.9 5.1 22.7 10.4l-9.9 9.3c-2.7-4-6.9-6.2-12.1-6.2-9.2 0-15.6 6.7-15.6 16.7s6.4 16.8 15.6 16.8c5.2 0 9.4-2.4 12.1-6.2l9.9 9.2c-3.8 5.2-11 10.3-22.8 10.3-17.7 0-30.4-12.5-30.4-30.2zm56.4 0c0-16.7 12.3-30.1 29.8-30.1 17.1 0 28.8 12.9 28.8 31.7v3.3H270c1 7.3 6.8 13.3 16.5 13.3 4.9 0 11.7-2.1 15.4-5.7l6.7 9.8c-5.7 5.2-14.8 8-23.7 8-17.5-.1-30.7-11.9-30.7-30.3zm29.7-18.1c-9.4 0-13.4 7-14.2 12.7H298c-.3-5.5-4.1-12.7-14.1-12.7zm71.4 39.5v29.3h-15.1V23.1h15.1v7.3c4.4-5.6 10.7-8.7 17.7-8.7 14.8 0 25.5 10.9 25.5 30.1S387.8 82 373 82c-6.7 0-13.1-2.9-17.7-8.8zm27.5-21.4c0-9.9-5.8-16.7-14.5-16.7-4.9 0-10.5 2.9-13 6.5V62c2.5 3.6 8.1 6.5 13 6.5 8.7 0 14.5-6.7 14.5-16.7zm20.1 0c0-16.3 11.4-30.1 30.3-30.1 19 0 30.5 13.8 30.5 30.1 0 16.4-11.4 30.2-30.5 30.2-18.9 0-30.3-13.8-30.3-30.2zm45.1 0c0-8.9-5.4-16.7-14.8-16.7s-14.6 7.7-14.6 16.7 5.2 16.8 14.6 16.8S448 60.8 448 51.8zm20.2 0c0-16.3 11.4-30.1 30.3-30.1 19 0 30.5 13.8 30.5 30.1 0 16.4-11.4 30.2-30.5 30.2-18.8 0-30.3-13.8-30.3-30.2zm45.1 0c0-8.9-5.4-16.7-14.8-16.7s-14.6 7.7-14.6 16.7 5.2 16.8 14.6 16.8 14.8-7.8 14.8-16.8zm23.9 28.8V1.2h15.1v79.4h-15.1z"/></symbol><symbol id="icon_man" viewBox="0 0 199.6 356.1"><path class="st0" d="M18.4 352.6c-4.1 3.9-10.8 4.2-14.9.8s-4.7-9.9-1.3-14.4l38.4-50.4c3.4-4.5 7.7-12.5 9.6-17.8l23.2-66.1c1.9-5.3 3.5-14.3 3.6-19.9l2-104.2c.1-5.6 4.6-8.9 10-7.2l8.4 2.6c5.4 1.7 10.2 7.6 10.8 13.2l9.9 100.9c.5 5.6-.7 14.4-2.8 19.7l-29.6 73.5c-2.1 5.2-7.2 12.6-11.3 16.5l-56 52.8z"/><path class="st0" d="M192 354.7c-4.9 2.8-11.6 1.3-14.9-3.2L85.3 225.7c-3.3-4.5-2.5-11.3 1.7-14.9l17.8-15.4c4.3-3.7 10-2.7 12.8 2.2l80.7 141.7c2.8 4.9 1.1 11.2-3.8 14l-2.5 1.4zM19.9 192.5c-3.7 4.3-9.3 6.6-12.4 5.3-3.2-1.4-3.8-6.7-1.5-11.8l19.6-42.8c2.3-5.1 7.7-12.4 11.9-16.1l38.1-33.9c4.2-3.7 10.7-3.4 14.4.8l11.9 13.4c3.7 4.2 3 10.3-1.6 13.5l-38.1 26.4c-4.6 3.2-11.4 9.3-15.1 13.6l-27.2 31.6z"/><path class="st0" d="M193.8 186.9c-2.1 4.3-8 5.8-13 3.2l-34.9-18c-5-2.6-12.3-8-16.2-12l-43.3-44.5c-3.9-4-3.8-10.5.2-14.5l12.8-12.5c4-3.9 10.1-3.5 13.5 1l37 48.8c3.4 4.5 9.8 11 14.3 14.4l25.4 19.8c4.5 3.6 6.4 9.9 4.2 14.3z"/><circle class="st0" cx="95.9" cy="42.6" r="42.6"/></symbol><symbol id="icon_marker-icon" viewBox="0 0 9.5 16.5"><path d="M4.8 0C2.9 0 0 1 0 5.2c0 2.1 3.8 9.3 4.8 11.3 1-2.1 4.8-9.3 4.8-11.3C9.5 1 6.7 0 4.8 0z"/></symbol><symbol id="icon_metro" viewBox="0 0 7.3 5.9"><path class="st0" d="M3.7 5.9c-1.7 0-3-1.3-3-3S2 0 3.7 0s2.9 1.3 2.9 2.9-1.3 3-2.9 3zm0-5.1C2.5.8 1.5 1.8 1.5 3s1 2.2 2.2 2.2 2.2-1 2.2-2.2S4.9.8 3.7.8z"/><path class="st0" d="M6.9 3.7H.4c-.2 0-.4-.2-.4-.4v-.7c0-.2.2-.4.4-.4h6.5c.2 0 .4.2.4.4v.7c0 .2-.2.4-.4.4z"/></symbol><symbol id="icon_minus" viewBox="0 0 23.2 3"><path class="st0" d="M21.7 1.5H1.5"/><path d="M21.7 3H1.5C.7 3 0 2.3 0 1.5S.7 0 1.5 0h20.2c.8 0 1.5.7 1.5 1.5S22.6 3 21.7 3z"/></symbol><symbol id="icon_plane" viewBox="0 0 282.8 282.9"><path class="st0" d="M281.7 253.2c.7 1.4 1 3 1 4.6 0 3.9-1.4 7.3-4.3 10.3l-10.3 10.1c-2.7 3-6.1 4.5-10.1 4.5h-.7c-4.1-.5-7.6-2.3-10.5-5.5l-80.7-103.9c-9.7 8.5-18.8 15.9-27.2 22.4-8.5 6.4-16.5 11.9-24 16.5l6.2 49.8v1.8c0 3.9-1.3 7.2-3.9 9.8l-5.5 5.5c-2.7 2.7-6.1 4-10.3 4h-.7c-4.6-.5-8.1-2.3-10.5-5.5l-36.3-48.2-48.4-36.9C2.1 189.6.3 186 0 181.9v-.7c0-3.7 1.4-7.1 4.1-10.1l5.3-5.1c2.4-3 5.7-4.4 9.9-4.3 1 0 1.6.1 1.8.4l49.7 5.7c4.6-7.5 10.1-15.4 16.6-23.8 6.5-8.5 13.9-17.4 22.3-26.9L6.2 36C2.5 33 .7 29.6.7 25.5v-.7c0-3.7 1.3-7.1 4.1-10.3L14.9 4.4C18.1 1.7 21.4.3 25 .3h2.4c.9 0 1.7.3 2.4.7l142.4 52L199 26.6c8.3-8.3 17.8-14.8 28.6-19.5C238.2 2.4 248.1 0 257.1 0c8.5 0 15 2.2 19.4 6.5 2.3 2.1 4 4.8 5 8.2.9 3.3 1.4 7 1.4 11.1 0 9-2.3 18.9-6.8 29.6-4.6 10.7-11.1 20.2-19.6 28.4l-26.6 26.9 51.8 142.5z"/></symbol><symbol id="icon_plus" viewBox="0 0 23.2 23.2"><path class="st0" d="M11.6 1.5v20.2"/><path d="M11.6 23.2c-.8 0-1.5-.7-1.5-1.5V1.5c0-.8.7-1.5 1.5-1.5s1.5.7 1.5 1.5v20.2c0 .9-.7 1.5-1.5 1.5z"/><path class="st0" d="M11.6 1.5v20.2"/><path d="M11.6 23.2c-.8 0-1.5-.7-1.5-1.5V1.5c0-.8.7-1.5 1.5-1.5s1.5.7 1.5 1.5v20.2c0 .9-.7 1.5-1.5 1.5z"/><path class="st0" d="M21.7 11.6H1.5"/><path d="M21.7 13.1H1.5c-.8 0-1.5-.7-1.5-1.5s.7-1.5 1.5-1.5h20.2c.8 0 1.5.7 1.5 1.5s-.6 1.5-1.5 1.5z"/></symbol><symbol id="icon_refresh" viewBox="0 0 612.035 612.035"><path d="M323.128 56.236l5.646-9.57 40.17-40.169C271.247-13.921 165.482 13.786 89.65 89.646-16.421 195.717-28.355 360.261 53.875 479.49L10.98 522.386l137.7 19.667-19.667-137.7-34.968 34.967c-60.978-96.724-49.322-226.078 34.94-310.34 53.244-53.243 124.486-77.501 194.143-72.744zm258.264 13.743l-137.7-19.667 19.668 137.7 38.25-38.25c78.726 98.31 72.521 242.186-18.583 333.317-61.116 61.117-145.989 84.039-224.882 68.739l-45.65 45.649c105.654 33.799 226.05 8.791 309.895-75.054 112.858-112.858 119.146-291.979 18.805-412.209l40.197-40.225z"/></symbol><symbol id="icon_search" viewBox="0 0 8.1 8.3"><path class="st0" d="M2.9 5.9C1.3 5.9 0 4.6 0 2.9S1.3 0 2.9 0s2.9 1.3 2.9 2.9-1.2 3-2.9 3zm0-5.1C1.7.8.7 1.8.7 3s1 2.2 2.2 2.2 2.2-1 2.2-2.2S4.1.8 2.9.8z"/><path class="st0" d="M6.9 8.1L4.4 5.6c-.2-.2-.2-.4 0-.6l.5-.5c.2-.2.4-.2.6 0L8 7.1c.2.2.2.4 0 .6l-.5.4c-.1.2-.4.2-.6 0z"/></symbol><symbol id="icon_showers" viewBox="0 0 734.4 690.9"><path d="M721.6 690.9c-7 0-12.7-5.7-12.7-12.7V303c0-146.4-122.3-219.9-190.8-219.9-7 0-12.7-5.7-12.7-12.7 0-7 5.7-12.7 12.7-12.7 77.6 0 216.3 82 216.3 245.4v375.1c0 7-5.7 12.7-12.8 12.7z"/><path d="M509.1 285.2c-3 0-6-1.1-8.3-3.1l-243-209.9c-2.6-2.3-4.2-5.6-4.4-9-.2-3.5 1.1-6.9 3.5-9.4 64-67 168.9-72 238.9-11.5s80.2 165.1 23.3 238.1c-2.2 2.8-5.4 4.5-8.8 4.8h-1.2zm-224-223.1l221.7 191.6c39.7-61.4 28.7-143.5-27.6-192.1-56.3-48.7-139.1-47.7-194.1.5z"/><path d="M485.6 265c-.9 0-1.9-.1-2.9-.3C307.9 224.1 275 88.4 273.7 82.6c-1.6-6.8 2.7-13.7 9.6-15.2 6.8-1.6 13.7 2.7 15.3 9.5 1.2 5.1 31.2 126.1 190 162.9 6.8 1.6 11.1 8.4 9.5 15.3-1.4 5.9-6.7 9.9-12.5 9.9zM306 245.1c-3.3 0-6.6-1.5-8.9-3.8-2.3-2.3-3.8-5.6-3.8-8.9 0-3.6 1.5-6.9 3.8-9.2 1.3-1 2.6-2 4.1-2.8 4.6-1.8 10.5-.8 14 2.8 2.3 2.6 3.6 5.9 3.6 9.2 0 3.3-1.3 6.4-3.6 8.9-1.3 1.3-2.8 2-4.3 2.8-1.6.5-3.1 1-4.9 1zM112.7 422.4c-5.1-4.8-4.9-13 0-17.8 5.1-5.1 13-4.9 18.1 0 4.8 5.1 4.8 13.3-.3 18.1-2.3 2.5-5.6 3.6-8.9 3.6-3.3-.1-6.6-1.4-8.9-3.9zm36.7-36.3c-4.8-4.8-4.8-13 .2-18.1 4.9-4.8 13-4.8 17.9.2 5.1 5.1 5.1 13 0 18.1-2.5 2.3-5.9 3.6-8.9 3.6-3.3.1-6.6-1.2-9.2-3.8zm37-36.2c-5.1-5.1-4.9-13 0-18.1 5.1-4.8 13.3-4.8 18.1.2 4.9 5.1 4.9 13-.2 18.1-2.3 2.3-5.6 3.6-8.9 3.6-3.4.1-6.7-1.2-9-3.8zm36.7-36.2c-4.9-5.1-4.9-13 .2-18.1 5.1-4.8 13-4.8 18.1.2 4.8 5.1 4.8 13-.2 18.1-2.6 2.3-5.6 3.6-8.9 3.6-3.3.1-6.6-1.2-9.2-3.8zm37-36.2c-5.1-5.1-4.8-13.3.3-18.1 4.8-4.8 13-4.8 17.8.3 5.1 4.8 4.9 13 0 17.9-2.5 2.5-5.9 3.8-8.9 3.8-3.3-.1-6.7-1.3-9.2-3.9zM84.6 462.6c-1.5 0-3.1-.5-4.8-1-1.5-.8-2.8-1.8-4.1-2.8-2.3-2.6-3.6-5.9-3.6-9.2 0-3.3 1.3-6.6 3.6-8.9 4.8-4.6 13.5-4.6 18.1 0 2.3 2.3 3.8 5.6 3.8 8.9 0 3.6-1.5 6.6-3.8 9.2-2.5 2.3-5.6 3.8-9.2 3.8zm181.6-266.9c-3.3 0-6.6-1.3-9.2-3.6-2.3-2.6-3.6-5.9-3.6-9.2 0-3.3 1.3-6.6 3.6-8.9 3.6-3.6 9.4-4.6 14-2.8 1.5.8 3.1 1.5 4.1 2.8 2.3 2.3 3.8 5.6 3.8 8.9 0 3.6-1.5 6.6-3.8 9.2-2.3 2.3-5.6 3.6-8.9 3.6zM44.4 339.5c-4.1-5.9-2.5-13.8 3.1-17.8 5.9-4.1 13.8-2.6 17.9 3.1 4.1 5.9 2.8 13.8-3.1 17.9-2.3 1.5-4.8 2.3-7.4 2.3-3.9-.2-8-1.9-10.5-5.5zm42.3-29.9c-4.1-5.9-2.5-13.8 3.1-17.9 5.9-4.1 13.8-2.5 17.9 3.1 4.1 5.9 2.8 13.8-3.1 17.9-2.3 1.5-4.9 2.3-7.4 2.3-4.1 0-8-1.8-10.5-5.4zm42.3-29.8c-4.1-5.9-2.8-13.8 3.1-17.9 5.6-4.1 13.8-2.6 17.9 3.1 3.8 5.9 2.5 13.8-3.1 17.9-2.3 1.5-4.9 2.3-7.4 2.3-4.1 0-8.2-1.8-10.5-5.4zm42.1-29.8c-3.8-5.9-2.6-13.8 3.1-17.9 5.9-3.8 13.7-2.6 17.8 3.1 4.1 5.9 2.8 13.8-3.1 17.8-2.3 1.5-4.8 2.3-7.4 2.3-3.8 0-7.9-1.8-10.4-5.3zm42.3-29.9c-4.1-5.6-2.5-13.8 3.1-17.6 5.9-4.1 13.8-2.8 17.9 2.8 4.1 5.9 2.6 13.8-3.1 17.8-2.3 1.5-4.8 2.3-7.4 2.3-3.8.1-7.9-1.7-10.5-5.3zM12.7 374.7c-1.8 0-3.3-.2-4.9-1-1.8-.5-3.1-1.5-4.3-2.8-1-1-2-2.6-2.5-4.1-.8-1.5-1-3.3-1-4.9 0-3.3 1.3-6.6 3.6-9.2 1.3-1 2.5-2 4.3-2.6 3.1-1.3 6.6-1.3 9.7 0 1.5.5 2.8 1.5 4.1 2.6 2.3 2.6 3.8 5.9 3.8 9.2 0 1.5-.5 3.3-1 4.9-.8 1.5-1.5 3.1-2.8 4.1-1.3 1.3-2.5 2.3-4.1 2.8-1.5.7-3.3 1-4.9 1zm341.5-99.5c-3.3 0-6.6-1.5-8.9-3.8-2.6-2.3-3.8-5.6-3.8-8.9 0-1.8.2-3.3 1-4.8.5-1.8 1.5-3.1 2.8-4.3 3.6-3.3 9.2-4.6 13.8-2.6 1.5.5 3 1.5 4.1 2.6 1.3 1.3 2.3 2.6 2.8 4.3.8 1.5 1 3.1 1 4.8 0 3.3-1.3 6.6-3.8 8.9-2.4 2.3-5.7 3.8-9 3.8zM209.1 491.7c-5.9-3.8-7.6-11.7-3.8-17.6 3.8-5.9 11.7-7.7 17.6-4.1 5.9 3.8 7.7 11.7 3.8 17.6-2.3 3.8-6.4 6.1-10.7 6.1-2.3.1-4.6-.7-6.9-2zm27.8-43.6c-5.9-3.8-7.7-11.7-4.1-17.6 3.8-6.1 11.7-7.9 17.6-4.1 6.1 3.8 7.6 11.7 4.1 17.6-2.5 3.8-6.6 5.9-10.7 5.9-2.6 0-4.9-.5-6.9-1.8zm27.5-43.9c-5.9-3.8-7.6-11.5-3.8-17.6 3.6-5.9 11.5-7.6 17.6-3.8 5.9 3.6 7.7 11.5 3.8 17.6-2.3 3.8-6.4 5.9-10.7 5.9-2.3 0-4.6-.8-6.9-2.1zm27.8-43.6c-6.1-3.8-7.9-11.7-4.1-17.6 3.8-5.9 11.7-7.6 17.6-4.1 5.9 3.8 7.7 11.7 4.1 17.6-2.5 3.8-6.6 6.1-11 6.1-2.2.1-4.5-.7-6.6-2zm27.6-43.8c-5.9-3.6-7.7-11.5-3.8-17.3 3.6-6.1 11.5-7.9 17.3-4.1 6.1 3.8 7.9 11.5 4.1 17.6-2.5 3.8-6.6 5.9-10.7 5.9-2.4-.1-4.9-.6-6.9-2.1zM188.4 537.4c-3.3 0-6.6-1.3-8.9-3.8-2.6-2.3-3.8-5.6-3.8-8.9 0-1.5.2-3.3 1-4.8.5-1.5 1.5-3.1 2.8-4.1 3.3-3.6 9.2-4.8 13.8-2.8 1.5.5 3 1.5 4.1 2.8 1.3 1 2.3 2.6 2.8 4.1.8 1.5 1 3.3 1 4.8 0 3.3-1.3 6.6-3.8 8.9-1 1.3-2.5 2.3-4.1 2.8-1.6.7-3.3 1-4.9 1zm217.8-240.2c-3.3 0-6.6-1.3-8.9-3.8-1.3-1-2.3-2.5-2.8-4.1-.8-1.5-1-3.3-1-4.8 0-3.3 1.3-6.6 3.8-8.9 4.6-4.8 13.2-4.8 17.8 0 2.6 2.3 3.8 5.6 3.8 8.9 0 3.3-1.3 6.6-3.8 8.9-2.3 2.5-5.6 3.8-8.9 3.8zm-91 242.7c-6.6-2.3-9.9-9.7-7.6-16.3 2.3-6.4 9.7-9.9 16.3-7.7 6.6 2.3 10.2 9.7 7.7 16.3-1.8 5.1-6.6 8.4-12 8.4-1.6.1-2.9-.2-4.4-.7zm17.3-48.7c-6.6-2.3-10-9.7-7.7-16.3 2.3-6.6 9.7-9.9 16.3-7.6 6.6 2.3 10.2 9.7 7.6 16.3-1.8 5.1-6.6 8.4-12 8.4-1.4 0-2.7-.3-4.2-.8zm17.3-48.7c-6.6-2.3-9.9-9.7-7.6-16.3 2.3-6.6 9.7-9.9 16.3-7.6 6.6 2.3 9.9 9.7 7.6 16.3-1.8 5.1-6.6 8.4-12 8.4-1.2 0-2.7-.3-4.3-.8zm17.4-48.7c-6.6-2.3-9.9-9.7-7.6-16.3 2.3-6.6 9.7-9.9 16.3-7.7 6.6 2.3 10 9.7 7.7 16.3-1.8 5.1-6.9 8.4-12 8.4-1.6.1-2.9-.2-4.4-.7zm17.3-48.7c-6.6-2.3-10-9.7-7.7-16.3 2.3-6.6 9.7-9.9 16.3-7.6 6.6 2.3 9.9 9.7 7.6 16.3-1.8 5.1-6.9 8.4-12 8.4-1.4 0-2.6-.3-4.2-.8zm-82.3 244.3c-3.3 0-6.6-1.3-8.9-3.6-2.3-2.6-3.8-5.9-3.8-9.2 0-3.3 1.5-6.6 3.8-8.9 3.6-3.6 9.2-4.8 13.8-2.8 1.5.8 3 1.5 4.1 2.8 2.6 2.3 3.8 5.6 3.8 8.9 0 3.3-1.3 6.6-3.8 9.2-1 1-2.5 2-4.1 2.6-1.6.7-3.1 1-4.9 1z"/></symbol><symbol id="icon_star" viewBox="0 0 39 37"><path fill-rule="evenodd" d="M19.5 2.501l5.603 10.056 11.395 2.166-7.933 8.382 1.44 11.394L19.5 29.623 8.995 34.499l1.439-11.394-7.932-8.382 11.395-2.166L19.5 2.501"/></symbol><symbol id="icon_tea_coffe" viewBox="0 0 24 24"><path d="M23.5 24H.5c-.3 0-.5-.2-.5-.5v-3c0-.3.2-.5.5-.5H10v-9H3.5c-.3 0-.5-.2-.5-.5V.5c0-.3.2-.5.5-.5H22c1.1 0 2 .9 2 2v21.5c0 .3-.2.5-.5.5zM1 23h22V2c0-.6-.4-1-1-1H4v9h6.5c.3 0 .5.2.5.5v10c0 .3-.2.5-.5.5H1v2z"/><path d="M19 23.5h-1v-11c0-.3.2-.5.5-.5h5v1H19v10.5zM23.5 6h-6c-.3 0-.5-.2-.5-.5s.2-.5.5-.5h6c.3 0 .5.2.5.5s-.2.5-.5.5zm0 2h-6c-.3 0-.5-.2-.5-.5s.2-.5.5-.5h6c.3 0 .5.2.5.5s-.2.5-.5.5zm0 2h-6c-.3 0-.5-.2-.5-.5s.2-.5.5-.5h6c.3 0 .5.2.5.5s-.2.5-.5.5zm-15 7h-4c-.3 0-.5-.2-.5-.5V14c0-.3.2-.5.5-.5h4c.3 0 .5.2.5.5v2.5c0 .3-.2.5-.5.5zM5 16h3v-1.5H5V16z"/><path d="M4.5 16h-4c-.3 0-.5-.2-.5-.5s.2-.5.5-.5h4c.3 0 .5.2.5.5s-.2.5-.5.5zM7 10.5h1V14H7zm-2 0h1V14H5zM7 6c-1.1 0-2-.9-2-2s.9-2 2-2 2 .9 2 2-.9 2-2 2zm0-3c-.6 0-1 .4-1 1s.4 1 1 1 1-.4 1-1-.4-1-1-1zm-.5 15c-.3 0-.5-.2-.5-.5v-1c0-.3.2-.5.5-.5s.5.2.5.5v1c0 .3-.2.5-.5.5z"/></symbol><symbol id="icon_twitter" viewBox="0 0 16 18.5"><path class="st0" d="M8 0L0 4.6v9.2l8 4.6 8-4.6V4.6L8 0zm3.9 7.3v.2c0 .5-.1 1-.2 1.5s-.4 1-.7 1.5c-.3.5-.7.9-1.1 1.2-.4.4-.9.6-1.5.9-.6.3-1.2.4-1.9.4-1.1 0-2-.3-2.9-.8h.5c.9 0 1.7-.3 2.3-.8-.4 0-.8-.1-1.1-.4-.3-.3-.5-.6-.6-1h.4c.2 0 .3 0 .5-.1-.5 0-.9-.2-1.2-.6C4.1 9 4 8.6 4 8.1c.3.1.6.2.9.2-.3-.1-.5-.3-.7-.6-.1-.3-.2-.6-.2-.9 0-.3.1-.7.3-1 .5.6 1 1 1.7 1.4.7.3 1.4.5 2.2.6v-.4c0-.5.2-1 .6-1.3.2-.4.7-.6 1.2-.6s1 .2 1.4.6c.4-.1.8-.2 1.2-.5-.1.4-.4.8-.8 1 .4 0 .7-.1 1.1-.3-.3.5-.6.8-1 1z"/></symbol></svg>