<svg xmlns="http://www.w3.org/2000/svg" viewBox="0 0 7015.14 4312.6"><defs><linearGradient id="a" x1="3726.63" y1="508.12" x2="3748.77" y2="477.32" gradientUnits="userSpaceOnUse"><stop offset="0" stop-color="#fede80"/><stop offset="1" stop-color="#ed5f21"/></linearGradient><linearGradient id="b" x1="22208.23" y1="1429.17" x2="22271.73" y2="1401.1" gradientTransform="translate(-17361.82 1182.19)" gradientUnits="userSpaceOnUse"><stop offset="0" stop-color="#fede80"/><stop offset="1" stop-color="#ed9e48"/></linearGradient></defs><path d="M3766.1 1045.41s-84.26-178.79 1120.59 96.09 1542.4 668.39 1169.42 876.19l425.47-51.31 70-388.91-1710.24-653.16L3700.78 816l-84.15 183.33z" fill="#85d0e5"/><path d="M6862.62 1913.8c1-118.76-61.18-212.08-61.18-212.08l-55.33 50.52L6766 1887l-195.1 105.8s-15.21 143.49 65.78 242.07c-470 358.21-1879.28 952-5940 1735.6-433 92.58-638.93 120.81-639 120.82L0 4312.6c.07 0 206-28.24 639-120.81 4989.58-962.9 5976-1639.12 6135.65-1943.89 78.24-131.18 90.15-257.4 87.97-334.1z" fill="#85d0e5"/><path fill="#47b1c9" d="M6056.1 748.3v73.77l722.49 192.85-.8-115.87L6056.1 748.3z"/><path d="M3762.76 911.08c-142.36 67.64-57.73 193.24 445.84 196.45 281.15-5.26 531.39-23.5 752.36-49-530.88-143.82-1046.81-219.39-1198.2-147.45z" fill="none"/><path d="M5365.25 999.36c-121.41 22-256.4 42.18-404.29 59.22 116.33 31.53 233.34 66.3 347.43 103.56q182.29-27.63 371.29-65-149.25-49.07-314.43-97.78z" fill="#cb1f20"/><path d="M5365.25 999.36c-121.41 22-256.4 42.18-404.29 59.22 116.33 31.53 233.34 66.3 347.43 103.56q182.29-27.63 371.29-65-149.25-49.07-314.43-97.78z" fill="#cb1f20"/><path fill="#fff" d="M7015.14 562.26L6056.1 748.3l721.69 150.75 237.35-336.79z"/><path d="M3199.83 989.65s-30.11 117.31 30.49 203.68C3306.7 1302.19 4294.2 1638.57 6594 965l-4.21-107-1854.56 253.74-1005.54 14.44-279.05-158.77zm3815.31-427.39v118.28l-236.55 334.38-.8-115.87 237.35-336.79z" fill="#85d0e5"/><path fill="#111b33" d="M6729.06 775.79l16.74-21.9-22.15-8.22-15.2 29.57 20.61.55z"/><path d="M6665.2 6.75a67.73 67.73 0 0113.37 30c3 17.82.29 38.32-9.81 43.07L6651.71 81l1.31 33-42.77-4.75 8-90s20.81-22.01 46.95-12.5z" fill="#fede80"/><path d="M6609.65 76S6596 32 6597.7 13.28c12-22.27 79.75-9.8 79.75-9.8.6 11.29-14.33 20.94-14.33 20.94s-12 15-12.33 22.58l-.07 2.49-2.79.66s-3.78-6.79-8.13-1.44 2.68 12.36 3 12.36-10.69 11.88-15 16.67-18.15-1.74-18.15-1.74z" fill="#4e0711"/><path fill="#111b33" d="M6476.15 742.94l16.59-17.9-17.46-7.75-16.3 15.08 17.17 10.57z"/><path d="M6686.29 332.74S6702.22 470 6707 510.13c2.7 22.58 22 265.66 22 265.66l-21.62-.8s-61.91-213.31-70.64-261.33c-6.1-33.54-46.6-217.4-46.6-217.4z" fill="#1a2444"/><path d="M6613.81 315.76s-48.84 182-52.37 204.46-85.28 222.72-85.28 222.72l-21.63-.8s52.18-207.52 56.55-261.65c9.28-115.06 28.36-199.47 28.36-199.47z" fill="#1a2444"/><path d="M6676.68 98.08l-76.2-8.37s-23.85 26.16-29.16 36.88c-13.35 27-19.11 93-22.73 118.26-4.29 29.85-30.83 95.68-30.83 95.68l149.6 30.53 31.43-27.65 11.13-237.52z" fill="#c21a2c"/><path fill="#fbfcff" d="M6471.29 343.11l-2.11 6.77-23.38-6.63 3.63-9.75 21.86 9.61z"/><path d="M6452.17 342.2a1.67 1.67 0 10-2.35-.17 1.66 1.66 0 002.35.17z" fill="#8c2729"/><path fill="#ffc77e" d="M6449.59 343.97l-11.45 26.42 13.09 14.71 6.12-4.1-3.4-18.74 8.29-14.83-12.65-3.46z"/><path fill="#ffc77e" d="M6462.24 347.43l2 11.56-5.89 8.78-4.07 1.05-1.4-4.41 5.06-4.08-2.09-4.28 6.39-8.62z"/><path fill="#c21a2c" d="M6614.09 169.23l-13.58-79.48-89.44 107.42-61.41 145.44 15.78 5.39 77.06-123.47 71.59-55.3zm67.3-67.79s106.15-15.5 123.68-17.25c42-8.06 136.54-46.6 136.54-46.6l8.33 18.84s-99.42 62.85-141.42 74.35c-12.19 3.34-150.62 25.2-150.62 25.2z"/><path d="M6531.16 359.42s79.89 58.06 106.08 51.66l13.53-43.66-116.12-23.72z" fill="#1a2444"/><path d="M6502.2 479.25c-13.93 54.23-47.67 262.89-47.67 262.89l21.63.8s81.74-200.27 85.28-222.72c1.87-11.88 21.34-73.19 30.88-124.15-7.34-.71-26 .87-69.13-22.84a1008.38 1008.38 0 01-20.99 106.02z" fill="#111b35"/><path d="M6650.25 91.71s-.86 1.17-2.69 3.23c-25.81 29-225.76 248.36-384.45 273.36 0 0 23.28-55.88-12.81-79.16s-205.46 78.58-206.34 4.94c-1.34-113.56-140-95.16-140-95.16s251.45-32.6 399.29-53.55 297.24-55.62 297.24-55.62z" fill="#c21a2c"/><path d="M6217.12 368.88s271.32-82.76 433.13-277.17c0 0-190.37 277-306.24 297-67.51 11.6-126.89-19.83-126.89-19.83z" fill="#d34a71"/><path d="M6648.14 95.46l-96.26 123.76s-3.27 27.39-4.15 30.77c0 0-2.31 23.48-30 90.54 0 0 65-60.41 82.65-121.53 14.33-49.5 47.76-123.54 47.76-123.54z" fill="#600c18" opacity=".3"/><path d="M6617.7 90.43h-3.64c-84.58 58.56-556.37 178.65-572.14 182.66a119.49 119.49 0 012 21c.66 55.67 97.63 11 160.51-4 172.36-66.4 411.98-198.95 413.27-199.66z" fill="#66081f" opacity=".36"/><path d="M6650.25 91.71s3.15 3.16 3.65 3.9l-5.87-.68z" fill="#b20b24"/><path d="M6943.62 42.26S6946 33.6 6948.5 32s16.39-10.87 17.34-11.81c0 0 5 3.93 1.1 7.87 0 0 9.69-7 15.68-8.27 0 0 2.28 1 .86 2.92 0 0 4.31-2.31 5.1-.37s-2.21 3.83-3.52 5c0 0 4 1.21.21 4.46 0 0 1.47 2.68-1.79 4.57s-14.91 11.82-23.21 14.34a87.47 87.47 0 01-11.48 3z" fill="#fede80"/><path fill="#111b35" opacity=".35" d="M6707.44 774.99l29.85 115.6 40.5 8.46-31.99-145.16-38.36 21.1z"/><path d="M5308.39 1162.14l371.29-65s1.83-.4 5.16-1c318.05-63.49 647-148.73 974.27-259.58l-433-85s-280 142.74-860.85 247.86q-121.31-35.8-250.54-71.44C4369 745.09 3406.73 620 3209.48 966.41c-135.3 237.59 849.13 385.15 2098.91 195.73zM3762.76 911.08c151.39-71.94 667.32 3.63 1198.2 147.5-221 25.45-471.21 43.69-752.36 49-503.6-3.25-588.2-128.86-445.84-196.5zm3099.86 1001.06c.37-118-61.18-210.42-61.18-210.42l-.43.4c-106.63-184.73-440.28-365.69-940.6-543.33-100.7 23-263.91 55.51-351.34 72.64 443.84 162.09 802.53 356.42 829.29 527.22C6427.21 2325.57 38.89 3554.84 38.89 3554.84l22.45 535.64c.07 0 206-28.23 639-120.81C6454.12 2859.3 6884.68 2130.08 6862.62 1912.14z" fill="#fff"/><path d="M5860.41 1158.79l-350.89 72.8-168.61 31.11s72.7 23.26 96.77 31.51c30.5 10.45 121.5 43.28 121.5 43.28l40.17-72.18 271.95-102.64z" fill="#111b35" opacity=".36"/><path fill="#fede80" d="M3569.13 695.65l8.81 21.9 11.67-12.85-3.07-18.77-17.41 9.72z"/><path d="M4085.82 622.36s26.44-14.9 83.89-112.27c-33.52-35.15-72.81 26.65-72.81 26.65z" fill="#2e4172"/><path d="M3940.45 477.09s125 94.3 153.6 127.87C4123 585.67 4174.77 508.52 4173 501s-127.53-122.5-140.39-126.79-81.09 79.66-92.16 102.88z" fill="#1a2444"/><path d="M3940.45 477.09s-8.1 13.81-5.48 24.52 138.12 118.83 145.74 122.16 16.19-21.9 16.19-21.9-132.9-118.35-156.45-124.78z" fill="#0c1428"/><path d="M3936.41 486.29c15.66 13.65 121.45 105.82 152.23 132.81.15-.21.3-.43.44-.65-23.48-23.28-94.22-91.32-152.58-132.42z" fill="#1a2444"/><path d="M3976.89 510.19s-8.7 6.43-8.94 9 3.34 5.72 5.72 4.53 8.57-8.45 8.57-8.45-3.45-4.61-5.35-5.08zm79.05 70.01s-8.69 6.43-8.93 9 3.34 5.71 5.72 4.52 8.57-8.45 8.57-8.45-3.45-4.6-5.36-5.07z" fill="#e52944"/><path d="M3990.56 530.42s-18.34 6.19-12.39 16.67S4002 577.82 4012 580.2s14.29-18.11 14.29-18.11" fill="none" stroke="#2e4172" stroke-linecap="round" stroke-linejoin="round" stroke-width="5"/><path d="M3975 609.56s7.08-10.21 13.11-15.2 17.41-16.26 18.46-20.43-1.78-4.65-1.78-4.65 1.31-5.8-.62-7.19-3-.78-3-.78.62-4.95-.93-5.8-4.95-.47-4.95-.47-1.08-2.16-2.48-2.55-4.18 1.47-4.18 1.47 2.17-5.34-1.54-6.35c0 0-7 7.28-8.44 8.67s-6.73 13.16-8.12 16.25.07 15.09-1.94 19.66-5.34 5.11-5.34 5.11z" fill="#fede80"/><path d="M3739.76 486.93c-4.25-3-13.82-20.44-20.13-23.21l-34.77 61.07L3738 534l24.92-27.73L3775 495a21.56 21.56 0 01-5.82 1.81c-11.02 1.87-23.13-5.41-29.42-9.88z" fill="url(#a)"/><path d="M3608 824.57s74.3 83.82 226.7 114.3c0 0 37.9 116.47 111.25 211.72l29.72-8.83s-60-199.08-78.1-241-206.23-172.44-206.23-172.44z" fill="#1a2444"/><path d="M3628.47 712.17s-80 81-129.55 181.93l-86.68-91-27.62 28.1s45.72 132.4 103.83 181.93 232.41-233.33 232.41-233.33-9.52-59.06-92.39-67.63z" fill="#1a2444"/><path d="M3730.2 558.39s16.93 104.39 135.88 163.35c22.27 12.17 38.31-3.86 38.31-3.86l74.44-111-16-10.53s-71.48 43.07-88 56.43c-16.48-17.37-45.34-118.45-88.55-133.59s-56.08 39.2-56.08 39.2zm-48.3-64.34s-143.15 24.35-163.35 29.7-17.82 34.45-17.82 34.45l68.4 137.45 18.57-10.36s-20.83-95.1-18.57-108.76L3681.9 595z" fill="#c21a2c"/><path d="M3768.74 690.63S3749.47 755 3728.68 774c0 0-37-1.9-71.92-23.81z" fill="#fff"/><path d="M3688.84 494.91s78.41 13.37 98.9 24.06c0 0 27.63 28.51 31.19 43.66s-35.64 108.7-50.79 146.12-106.92 41-128.3 77.52c0 0-50.79-24.06-75.73-73.95 0 0 64.15-48.12 73.06-65.94s-6.24-105.14 10.69-131.86 40.98-19.61 40.98-19.61z" fill="#c21a2c"/><path d="M3782 480.82c2.95-17.71 7.57-28.91 2.54-50-3.29-13.83-59.36-12-71.4 2.8 0 0 1.21 22.24 1.52 32.87.1 3.44 4.23-1.66 6.63.59 5 4.71 4.26 16 7.27 20.27 4.44 6.31 19.9 16.57 30.94 18.42a21.37 21.37 0 006.08.24c7.72-.96 13.42-7.42 16.42-25.19z" fill="#fede80"/><path d="M3737.08 403.16c-51.28 4.63-20.59 71-20.59 71l3.4-.27c1.91-3.78 7.65-12.67 7.65-12.67-.77-.93-1.89-4-1.53-8.17.26-3 2-5.06 6.85-4.43 3.52.46 5.21 5.59 6.3 9.44 2.65-.52 4.73-1.5 4.84-2.82-.54-5.71-1.7-13.77-1.83-14.88 0-.1-24.29-2-24.24-2.15s66.21 1.38 68.3-2.22c3.07-26.24-14.98-35.92-49.15-32.83z" fill="#4e0711"/><path d="M3685.58 494.3a239.45 239.45 0 0124.82-.25c10.36.67 44.11 8.89 63.13 19.5 0 0-63.67-8.22-88.67-19.33" fill="#c21a2c"/><path d="M3949.42 1154.67s.42 9.26 3.46 12.83c0 0 6.25-1.51 7.68-1.78l.8-4.11a16 16 0 014.82-.89c2.41 0 23.4 1.16 29.74-5 0 0 .81-1.24-.52-1.67-2.55-.82-45.98.62-45.98.62zM3403 796.49s-5.1-7.74-9.54-9.25c0 0-4.59 4.48-5.68 5.44l1.42 3.94a16.09 16.09 0 01-3.69 3.22c-2.07 1.23-20.68 10.93-23 19.45 0 0-.06 1.47 1.3 1.16 2.62-.59 39.19-23.96 39.19-23.96z" fill="#1a2444"/><path d="M3786.57 663.3s-54.51-41.19-46.32-97.36m-58.35-71.89s-58.63 8.64-42.23 97.07M3720.86 774s11.74 17.68-59.46 94.44m-92.27-291.91s-16.8-.39-38.29-28.92m344.05 105.17s11.62 12.39 11.62 37.85" fill="none" stroke="#fff" stroke-miterlimit="10"/><path fill="#8e0e21" d="M4537.9 2566.68l44.34 19.03.88-9.28-45.22-9.75z"/><path d="M4534.36 2333.21s-21.56 8.83-74.57 77.5c22.17 30 58-13.35 58-13.35z" fill="#2e4172"/><path d="M4631.22 2457.68s-86.22-83.72-104.78-112c-23.87 11.93-70.66 65.75-70 71.63s85.43 105.44 94.82 109.93 69.32-52.94 79.96-69.56z" fill="#1a2444"/><path d="M4631.22 2457.68s7.48-9.75 6.51-18.16-93.86-103.64-99.35-106.9-14.41 15.14-14.41 15.14 89.91 102.78 107.25 109.92z" fill="#0c1428"/><path d="M4635.17 2451.05c-10.62-11.88-82.4-92.14-103.27-115.62-.13.14-.27.29-.4.45 15.66 20 63.05 78.51 103.58 115.37z" fill="#1a2444"/><path d="M4606.63 2429s7.23-4.07 7.66-6-2-4.67-3.92-4-7.33 5.62-7.33 5.62 2.18 3.84 3.59 4.38zm-53.54-60.84s7.23-4.07 7.66-6-2-4.67-3.92-4-7.33 5.62-7.33 5.62 2.19 3.84 3.59 4.38z" fill="#e52944"/><path d="M4586.11 2370.89a5.13 5.13 0 01.9.27c8.14 3 19.9 20.84 23.33 29.13a7 7 0 01-.16 6.26c-2.7 5.08-11.41 6.91-11.78 7a1.28 1.28 0 01-.51-2.5c2.19-.45 8.27-2.35 10-5.69a4.55 4.55 0 000-4.09c-3.69-8.92-15.19-25.22-21.86-27.72a3.82 3.82 0 00-3.1.16c-3.82 1.81-7 8.9-7.85 11.49a1.27 1.27 0 11-2.41-.83c.14-.42 3.6-10.33 9.17-13a6.36 6.36 0 014.27-.48z" fill="#2e4172"/><path d="M4623.94 2350.5s-8.38 7.34-14.71 10.36-18.65 10.32-20.48 13.73.52 4.44.52 4.44-2.41 4.77-1 6.41 2.44 1.34 2.44 1.34-1.63 4.18-.47 5.27 4.19 1.5 4.19 1.5.46 2.13 1.58 2.77 3.94-.36 3.94-.36-3.05 4.18-.05 5.88c0 0 7.7-4.79 9.21-5.69s8.73-10 10.61-12.37 3.26-13.18 6-16.71 5.75-3.27 5.75-3.27zm294.6 151.85s10-5 16.84-6.32 20.66-5.29 23.28-8.13.61-4.43.61-4.43 3.54-4 2.63-5.94-2-1.91-2-1.91 2.62-3.64 1.78-5-3.68-2.51-3.68-2.51.09-2.17-.83-3.08-3.91-.65-3.91-.65 4-3.27 1.54-5.67c0 0-8.66 2.69-10.35 3.19s-11 7.46-13.39 9.3-6.47 11.93-10 14.66-6.38 1.72-6.38 1.72z" fill="#fede80"/><path d="M4886.27 2273.55c-3.77-2.28-9.84-9-15.33-10.93l-18.47 44.38 31.1 11.5 18.48-28.58 10.29-10.11c-1.4.81-20.48-2.89-26.07-6.26z" fill="url(#b)"/><path d="M4917.42 2283.38c5.51-14.13 11.26-22.59 10.76-40.92-.34-12-45.87-20.43-58.4-10.24 0 0-1.76 27-.16 29.28 3.34 4.76.75 14 2.5 18 2.59 6 13.59 17.14 22.4 20.59a18 18 0 005 1.24c6.56.59 12.38-3.77 17.9-17.95z" fill="#fede80"/><path d="M4930.56 2231.69c-4.15-6-14.35-7.27-44.86-14.67-35.16-8.52-22.6 65.21-22.6 65.21l15.79 5.33c8.61-8.51 15.49-16.65 15.49-16.65a7.42 7.42 0 01-.82-2.82s-.38-3.86.22-4.94c.89-1.61 2.38-2.13 6.53-1.78 1.49.38 2.22 3.31 2.46 6.68l3.88 1c1.78-4.84 3.2-15.18 3.28-16.12.06-.08 10.25-.54 10.3-.62s6.1 2.73 8.45.11c1.12-5.42 3.85-16.08 1.88-20.73z" fill="#4e0711"/><path d="M4614.25 2572.07s38.93 135.23 115.05 115.18 242.32-79.95 272.32-91.13c0 0 167.91-16.69 203.15-45.59l-1.39-20.31-506.88.49z" fill="#1a2444"/><path d="M4752.27 2640.08s-84.84 191.61-129.83 233.45-86.38 36.71-86.38 36.71l-215.71-186.9 33.29-29.64s168.41 95.56 190.27 98.61 42.14-249.07 42.14-249.07 116.64 5.66 166.22 96.84z" fill="#1a2444"/><path d="M4933 2348.44s-66.54 79.4-87.93 99.87-57 101.17-57 101.17-141.41 52.27-250.19 17.2c78.12-99.62 140.11-249.73 182-270.84s161.12-38.41 213.12 52.6z" fill="#c21a2c"/><path d="M4776.63 2480.56s83.76 19.12 144.81.87l5 17.89s-.86 26.27-135.86 29.85z" fill="#c21a2c"/><path d="M4675.8 2346.48l-20.49 33.38s93-37 130.65-36.17 117.55 39.51 117.55 39.51L4827 2294s-113.77-3.47-151.2 52.48z" fill="#8e0e21"/><path d="M4932.31 2324.54s-56.11-64.52-126.72-74.86-191.84 105.12-191.84 105.12l10.59 14.24s116.07-52.43 153.25-64.1 113.81 92.32 113.81 92.32 53.44-34.07 40.91-72.72z" fill="#c21a2c"/><path d="M4343.12 2688.22s-11.12-12-19.3-13.4c0 0-6.72 9.16-8.35 11.15l3.6 6.46a28.31 28.31 0 01-5.5 6.69c-3.26 2.74-32.95 25-34.49 40.56 0 0 .31 2.59 2.6 1.66 4.39-1.79 61.44-53.12 61.44-53.12zm864.45-137.99s8.42 1.64 12.29-.32c0 0 0-5.94.08-7.29l-3.52-1.61a14.82 14.82 0 01.26-4.53c.52-2.16 6.17-20.77 2-27.8 0 0-.93-1-1.61.11-1.29 2.11-9.5 41.44-9.5 41.44z" fill="#1a2444"/><path d="M4816.54 2528.12c.86-4.73 5.66-27.41 19.31-39.55-5.94-.38-11.62-.88-17-1.44s-20.72 27.82-21.29 41.81c6.65-.22 12.99-.49 18.98-.82z" fill="#8e0e21"/><path fill="#111b35" opacity=".35" d="M6454.53 742.14l-22.29 167.12 55.2-16.97 5.3-167.25-38.21 17.1z"/></svg>