<svg xmlns="http://www.w3.org/2000/svg" viewBox="0 0 30.02 22"><title>save-success</title><path d="M17.5 21.5H2A1.51 1.51 0 0 1 .5 20V2A1.51 1.51 0 0 1 2 .5h18A1.5 1.5 0 0 1 21.5 2v12.5" fill="none" stroke="#000" stroke-linecap="round" stroke-linejoin="round"/><path fill="none" stroke="#000" stroke-linecap="round" stroke-linejoin="round" d="M4.5.5v8h12v-8m-9 2v4"/><path d="M21.45 22l-4.17-4.73a1 1 0 0 1 .21-1.58 1.36 1.36 0 0 1 1.77.19l2.12 2.4 6.36-7.81a1.36 1.36 0 0 1 1.76-.25 1.06 1.06 0 0 1 .28 1.57L21.45 22z" fill="#75cda5"/></svg>