<?xml version="1.0" encoding="utf-8"?>
<!-- Generator: Adobe Illustrator 23.0.1, SVG Export Plug-In . SVG Version: 6.00 Build 0)  -->
<svg version="1.1" id="Layer_1" xmlns="http://www.w3.org/2000/svg" xmlns:xlink="http://www.w3.org/1999/xlink" x="0px" y="0px"
	 viewBox="0 0 885.3 1000" style="enable-background:new 0 0 885.3 1000;" xml:space="preserve">
<style type="text/css">
	.st0{fill:#F1EFF3;}
	.st1{opacity:0.19;fill:#BAB8C7;}
	.st2{fill:#1D439C;}
	.st3{fill:#6A9ECE;}
	.st4{fill:#BDDBF3;}
	.st5{fill:#FFFFFF;}
	.st6{fill:#83AEDC;}
	.st7{fill:#203B71;}
	.st8{fill:#F2759C;}
	.st9{fill:#61A4D9;}
	.st10{fill:#4E99CD;}
	.st11{fill:#81B9E0;}
	.st12{fill:#2782B5;}
	.st13{fill:#2F3082;}
	.st14{fill:#4161AD;}
	.st15{fill:#4770B7;}
	.st16{fill:#FAC5C9;}
	.st17{fill:#F2759B;}
	.st18{fill:#ED2F66;}
</style>
<path class="st0" d="M521.2,581.9l-10.2-1.7c0,0-3.5-78.5-11.8-102.3c0,0-113.1-2.7-129.8-86.1c0,0,87.4-26.7,130.1,73.6
	c0,0-4-75.9-22.4-148.8c0,0-85.2,13.6-96.4-60.8c0,0,52-23.6,90.5,23.1c0,0-11.3-58.3-24.6-88.3c0,0-64.4,9-82.6-54.9
	c0,0,47.2-5.6,76.4,28.8l-22-61.9c0,0-51.6-41.7-36.2-102.7c0,0,58.4,26.7,43.4,95.9l21.1,67.1c0,0,10.4-62.7,55.8-62.4
	c0,0,0.3,77.1-47,88c0,0,21.2,61.7,26.8,106.5c0,0-1.3-81.7,67-92.7c0,0,19,64.1-60.5,106.4c0,0,14.1,67.7,19.1,152.7
	c0,0-14.4-81.2,65.1-123.5c0,0,42.4,70.6-59.6,143.2C513.5,481.2,522.3,528.4,521.2,581.9z"/>
<path class="st1" d="M713.9,760.2l-9.4-5.5c0,0,26.2-79,27-105.7c0,0-110.9-45.4-95.9-134.2c0,0,96.6,6.7,100.9,122
	c0,0,24.8-76.6,34.1-155.7c0,0-89.5-18.8-72.4-96.6c0,0,60.3-3.7,80.8,57.1c0,0,10.9-61.9,9-96.7c0,0-67.1-15.4-60.9-85.6
	c0,0,48.8,12.3,64.7,57.4l1.6-69.6c0,0-35.3-60.8,3-115.3c0,0,47.7,48.5,6.7,111.3l-4.4,74.4c0,0,34-58.1,78.8-40.6
	c0,0-28.9,76.4-79.7,69.3c0,0-2.4,69.1-13.7,115.6c0,0,29.6-81.3,101.3-66.5c0,0-5.4,70.6-100.1,82.4c0,0-11.7,72.3-38.8,158.4
	c0,0,16.4-85.8,111.1-97.6c0,0,15.2,85.9-113.1,119.2C744.4,657.7,735.2,707.6,713.9,760.2z"/>
<path class="st1" d="M230,771.4l9.2-7.1c0,0-37-77.6-41.1-105c0,0,109.9-63.3,83.3-152.7c0,0-99.7,21.2-90,140.8
	c0,0-35.2-75.3-54.7-155.6c0,0,90.8-32.6,63.5-110.4c0,0-63.3,5.1-77.1,70.8c0,0-19-62.3-21.3-98.4c0,0,68-25.9,52.9-97.3
	c0,0-49.3,19.9-60.3,68.8l-10.3-71.5c0,0,29.2-67.9-17.4-118.5c0,0-43.7,57.1,6.7,115.8l13.8,76.1c0,0-42.6-54.9-87.1-30.2
	c0,0,39.5,74.5,91.6,59.7c0,0,11,70.9,28.6,117.2c0,0-40.9-79.5-113.7-53.6c0,0,14.3,72,114.4,70.2c0,0,21.1,72.9,60,157.6
	c0,0-27.7-86.1-127.8-84.3c0,0-5.3,90.9,132.6,106.2C185.7,670.1,201.4,720.2,230,771.4z"/>
<g>
	<path class="st2" d="M729.7,191.8c-0.1,0-0.2,0-0.3,0c-5.8,0-10.8,3.8-12.5,9.1c-0.3,1.1-0.6,2.2-0.6,3.3c0,0.2,0,0.5,0,0.7v14.3
		v31.9v32v14c0,7.3,5.9,13.2,13.2,13.2c7.3,0,13.2-5.9,13.2-13.2V205C742.6,197.8,736.8,192,729.7,191.8z"/>
	<rect x="307.2" y="224.1" class="st3" width="538.2" height="729.6"/>
	<polygon class="st4" points="845.4,953.6 307.2,953.6 845.4,224.1 	"/>
	<g>
		<g>
			<path class="st4" d="M703.4,878H353.3h-51.6c0,28.1,23,51,51,51h0.6h401.2C726.4,929.1,703.4,906.1,703.4,878z"/>
			<path class="st5" d="M353.3,254.4V878h350.2c0,28.1,23,51,51,51c28.1,0,51-23,51-51V675.6V540.7v-34.1V488v-78.1V254.4H353.3z
				 M732,806.4c0,3.3-2.7,6-6,6H558c-3.3,0-6-2.7-6-6c0-3.3,2.7-6,6-6h167.9C729.3,800.4,732,803.1,732,806.4z M787.6,275.7V275
				c0,0.1,0,0.2,0,0.4C787.6,275.4,787.6,275.6,787.6,275.7z"/>
			<path class="st4" d="M558,800.4c-3.3,0-6,2.7-6,6c0,3.3,2.7,6,6,6h167.9c3.3,0,6-2.7,6-6c0-3.3-2.7-6-6-6H558z"/>
			<path class="st6" d="M450.5,449.2c-4.5,0-8.1,3.1-8.1,6.9s3.6,6.9,8.1,6.9h129H684c4.5,0,8.1-3.1,8.1-6.9s-3.6-6.9-8.1-6.9H579.5
				H450.5z"/>
			<path class="st6" d="M450.5,772.4c-4.5,0-8.1,3.1-8.1,6.9c0,3.8,3.6,6.9,8.1,6.9h129H684c4.5,0,8.1-3.1,8.1-6.9
				c0-3.8-3.6-6.9-8.1-6.9H579.5H450.5z"/>
			<path class="st6" d="M445.9,528.2h130.3H683c3,0,5.7-1.4,7.2-3.4c1.1-1.2,1.9-2.7,1.9-4.4c0-3.8-3.6-6.9-8.1-6.9h-0.1
				c-0.3,0-0.6-0.1-0.9-0.1H576.1H445.9c-4.7,0-8.6,3.3-8.6,7.4C437.3,524.9,441.1,528.2,445.9,528.2z"/>
			<path class="st6" d="M445.9,554.4h130.3H683c4.7,0,8.6-3.3,8.6-7.4s-3.9-7.4-8.6-7.4H576.1H445.9c-4.7,0-8.6,3.3-8.6,7.4
				S441.1,554.4,445.9,554.4z"/>
			<path class="st6" d="M445.9,588.1h130.3H683c2.6,0,4.9-1,6.5-2.6c1.6-1.3,2.6-3.1,2.6-5.1c0-3.4-2.9-6.2-6.7-6.8
				c-0.8-0.2-1.6-0.3-2.4-0.3H576.1H445.9c-4.7,0-8.6,3.3-8.6,7.4S441.1,588.1,445.9,588.1z"/>
			<path class="st6" d="M445.9,345.4H683c3,0,5.7-1.4,7.2-3.4c1.1-1.2,1.9-2.7,1.9-4.4c0-3.8-3.6-6.9-8.1-6.9h-0.1
				c-0.3,0-0.6-0.1-0.9-0.1H445.9c-4.7,0-8.6,3.3-8.6,7.4C437.3,342.1,441.1,345.4,445.9,345.4z"/>
			<path class="st6" d="M445.9,371.6H683c4.7,0,8.6-3.3,8.6-7.4s-3.9-7.4-8.6-7.4H445.9c-4.7,0-8.6,3.3-8.6,7.4
				S441.1,371.6,445.9,371.6z"/>
			<path class="st6" d="M443.3,405.3h166.3c1.8,0,3.4-1,4.5-2.6c1.1-1.3,1.8-3.1,1.8-5.1c0-3.4-2-6.2-4.7-6.8
				c-0.5-0.2-1.1-0.3-1.7-0.3H443.3c-3.3,0-6,3.3-6,7.4C437.3,402,440,405.3,443.3,405.3z"/>
			<path class="st6" d="M445.9,624.2h130.3H683c3.6,0,6.6-1.9,7.9-4.6c0.7-1,1.1-2.2,1.1-3.5c0-3.8-3.6-6.9-8.1-6.9h-74.5h-19.1
				h-10.9H492c0,0.1,0,0.1,0,0.2h-26.3c0-0.1,0-0.1,0-0.2h-15.1c-0.6,0-1.2,0.1-1.8,0.2h-2.8c-4.7,0-8.6,3.3-8.6,7.4
				C437.3,620.9,441.1,624.2,445.9,624.2z"/>
			<path class="st6" d="M445.9,725.9h2.6c0.7,0.2,1.4,0.3,2.1,0.3h91.7c-0.2-0.1-0.3-0.2-0.5-0.3h34.4h1.9h67.7H683
				c4.7,0,8.6-3.3,8.6-7.4c0-4.1-3.9-7.4-8.6-7.4H576.1H445.9c-4.7,0-8.6,3.3-8.6,7.4C437.3,722.6,441.1,725.9,445.9,725.9z"/>
			<path class="st6" d="M445.9,753.8h130.3H683c4.7,0,8.6-3.3,8.6-7.4s-3.9-7.4-8.6-7.4H576.1H445.9c-4.7,0-8.6,3.3-8.6,7.4
				S441.1,753.8,445.9,753.8z"/>
		</g>
		<path class="st5" d="M579.1,157.2c2.1,0,3.8-1.7,3.8-3.8s-1.7-3.8-3.8-3.8c-2.1,0-3.8,1.7-3.8,3.8S577,157.2,579.1,157.2z"/>
		<path class="st7" d="M929.7,822C929.7,822,929.7,822,929.7,822c0.1-0.1,0.1-0.2,0.2-0.2C929.8,821.9,929.7,822,929.7,822z"/>
		<g>
			<path class="st8" d="M743.8,369.9c-2.4,0-4.6-1.2-6-3.1l-13.6-19.1c-2.4-3.3-1.6-8,1.7-10.4c3.3-2.4,8-1.6,10.4,1.7l6.6,9.3
				l20.3-38.5c1.9-3.6,6.4-5,10-3.1c3.6,1.9,5,6.4,3.1,10L750.4,366c-1.2,2.3-3.5,3.8-6.1,3.9C744.2,369.9,744,369.9,743.8,369.9z"
				/>
		</g>
		<g>
			<path class="st8" d="M743.8,569.1c-2.4,0-4.6-1.2-6-3.1l-13.6-19.1c-2.4-3.3-1.6-8,1.7-10.4c3.3-2.4,8-1.6,10.4,1.7l6.6,9.3
				l20.3-38.5c1.9-3.6,6.4-5,10-3.1c3.6,1.9,5,6.4,3.1,10l-25.9,49.1c-1.2,2.3-3.5,3.8-6.1,3.9C744.2,569.1,744,569.1,743.8,569.1z"
				/>
		</g>
		<g>
			<path class="st8" d="M743.8,764.2c-2.4,0-4.6-1.2-6-3.1L724.2,742c-2.4-3.3-1.6-8,1.7-10.4c3.3-2.4,8-1.6,10.4,1.7l6.6,9.3
				l20.3-38.5c1.9-3.6,6.4-5,10-3.1c3.6,1.9,5,6.4,3.1,10l-25.9,49.1c-1.2,2.3-3.5,3.8-6.1,3.9C744.2,764.2,744,764.2,743.8,764.2z"
				/>
		</g>
	</g>
	<rect x="703" y="223.8" class="st4" width="19.3" height="59.3"/>
	<g>
		<path class="st9" d="M716.8,200.9H451.2v3.3h265C716.3,203.1,716.5,202,716.8,200.9z"/>
		<rect x="451.2" y="219.2" class="st9" width="265" height="31.9"/>
		<path class="st9" d="M662.2,146.5H518.7v45.3h143.5V146.5z M590.8,185.4c-7.1,0-12.9-5.8-12.9-12.9c0-7.1,5.8-12.9,12.9-12.9
			c7.1,0,12.9,5.8,12.9,12.9C603.7,179.6,597.9,185.4,590.8,185.4z"/>
		<path class="st10" d="M729.4,191.8c0.1,0,0.2,0,0.3,0v-0.1h-67.5H518.7h-67.5v9.2h265.6C718.6,195.6,723.6,191.8,729.4,191.8z"/>
		<path class="st10" d="M716.2,205c0-0.2,0-0.5,0-0.7h-265v15h265V205z"/>
	</g>
	<g>
		<g>
			<path class="st11" d="M722.5,283.2l-0.1-0.1c-0.1,0-0.3,0-0.4,0c-3.2,0-5.8-2.6-5.8-5.8v-2.7v-3.4v-14.1v-5.9h-265v18.3
				c3.8,0.4,7.7,0.6,11.6,0.7v7.3c0,2.9-2.2,5.3-5,5.7H714H722.5z"/>
			<path class="st12" d="M451.2,269.5v8c0,0.2,0,0.3,0.1,0.5L451.2,269.5C451.2,269.5,451.2,269.5,451.2,269.5z"/>
			<path class="st12" d="M457,283.3c0.1,0,0.3,0,0.4,0c0.1,0,0.3,0,0.4-0.1h-1.9C456.2,283.2,456.6,283.3,457,283.3z"/>
			<path class="st11" d="M462.8,277.5v-7.3c-3.9-0.1-7.7-0.2-11.6-0.7v8.5c0.2,2.6,2.2,4.7,4.7,5.2h1.9
				C460.6,282.8,462.8,280.4,462.8,277.5z"/>
		</g>
	</g>
	<path class="st6" d="M380.7,338c0-4.8,3.9-8.7,8.7-8.7c4.8,0,8.7,3.9,8.7,8.7c0,4.8-3.9,8.7-8.7,8.7
		C384.7,346.8,380.7,342.9,380.7,338z"/>
	<path class="st6" d="M380.7,521.8c0-4.8,3.9-8.7,8.7-8.7c4.8,0,8.7,3.9,8.7,8.7c0,4.8-3.9,8.7-8.7,8.7
		C384.7,530.5,380.7,526.6,380.7,521.8z"/>
	<circle class="st6" cx="389.5" cy="716.1" r="8.7"/>
</g>
<g>
	<path class="st13" d="M119.4,969.8c0,0-11.9,22.2-11,26.7c0.9,4.4,27.3,3.5,27.3,3.5s-3.1-21.3-7.5-27.7c-2.6-3.8-0.9-9.9,1-14.2
		l-9-1.2L119.4,969.8z"/>
	<path class="st13" d="M167.5,966.1l-8.8,9.9l-0.8,5.9c0,0,58.6,5.4,62.2,4.1c3.6-1.4-0.8-8.1-0.8-8.1L178,966.1l1.1-9.8l-11.8-0.4
		L167.5,966.1z"/>
	<path class="st14" d="M228.5,672c-10,20.4-24.3,39-35,59c-1.9,2.1-8.4,16.1-15.3,35.3c0.3,9.6,0.6,20.8-0.6,34.6l-17.2,154.7
		l6.9,0.2l11.8,0.4l16.7,0.5c0,0,45.4-259.1,42.8-287c-0.1-1.6-0.3-2.6-0.4-3.4c-0.2,3.1-0.3,4.8-0.3,4.8S234.3,671.6,228.5,672z"/>
	<path class="st15" d="M228.5,672c-25.4,2.1-94.9,7.7-102.4,7.2l-23.8,275.3l17.9,2.3l9,1.2l10.4,1.4c0,0,9.6-86.7,26.4-153.4
		c3.6-14.1,7.9-27.9,12.2-39.6c6.9-19.3,13.5-33.3,15.3-35.3C204.2,711,218.5,692.5,228.5,672z"/>
	<path class="st16" d="M316,415.8c-2.5-1.4-19.1,21.9-19.1,21.9l-2.1-5.1c-2.9-11.2-9.6-4.2-9.6-4.2s7.1,17.3,7.9,22.9
		c0.4,2.4,0.5,6.3,0.5,9.9c0.6-1,1.1-1.5,1.6-1.5l13.9,8.7c6-7.4,14.3-18.7,16.9-27.4C330.2,427,318.5,417.2,316,415.8z"/>
	<path class="st17" d="M293.7,461.1c-6.5,10.2-22,70-22,70c-13.7-28-62.4-78.9-62.4-78.9l0.4,2.2c0,0,24.4,30.5,28.2,82.9
		c0.5,6.4,0.8,13,1.1,19.6c13.2,14.6,33.1,36.5,34.1,37.2c37.5,25.6,36.2-125.5,36.2-125.5l-0.2-0.1l-13.9-8.7
		C294.8,459.6,294.3,460.2,293.7,461.1z"/>
	<path class="st18" d="M134.4,604.6l49.7-20.9l2,6.7l0.3-0.1c-3.3-34-9.3-98-8.5-106.4c-0.4,0.2-0.9,0.5-1.4,0.7
		c0,0-5,15.7-16.9,7.7c-12.5-8.4-25.2-17-23.9-27.5c0.1-1.1,0.3-2,0.5-2.9c-0.9-0.8-1.5-1.3-1.5-1.3l-14.4,12.7
		C127.4,481.2,129.6,552.9,134.4,604.6z"/>
	<path class="st18" d="M209.7,454.3L209.7,454.3l-9.8-1.6c0,4.1,0,7.4,0,8.6c0,0.6-0.1,1.2-0.2,2c0,6.4,0.1,15,0.1,17.1
		c0,7.8-16.7,3.2-19.9,2.3c-0.4,0.3-0.9,0.6-1.4,0.9c2.2,5.9,10.8,56.5,16.8,93.2c3.2-5.4,6.4-10.3,7.5-9.8c2.2,1-4.1,14.3-4.1,14.3
		s27.5-3.5,27.5,3.1c0,6.6,8.1,18.2-19.7,22.4c-2.3,0.3-4.3,0.6-6.3,0.9c0.6,4.1,1,6.7,1,7.2c0,8.5-3.4,28.1-2.8,23.2
		c0.5-3.7-5.4-17-8.3-23.3c-10,8.7-45.9,38.5-66.8,37.3c0.8,16.2,1.5,26.8,2.1,27.1c0.1,0,0.3,0.1,0.7,0.1c7.6,0.4,77-5.1,102.4-7.2
		c5.8-0.5,9.3-0.8,9.3-0.8s0.1-1.7,0.3-4.8c0.8-15.1,3-62.9,0.9-109.6c-0.3-6.6-0.7-13.1-1.1-19.6
		C234,484.8,209.7,454.4,209.7,454.3z"/>
	<path class="st17" d="M159.7,492.4c11.9,8,16.9-7.7,16.9-7.7l0,0c-0.9-0.4-1.7-0.7-2.6-1.1c-0.5,0-1,0.1-1.5,0.1h0
		c-5.7,0-10.9-2-15-5.3c-13.5-4.5-14.6-16.3-14.7-18.2c-0.7-1.4-0.9-2.5-0.9-3.2c0,0-3.9-2-5.7,5.1c-0.2,0.8-0.4,1.8-0.5,2.9
		C134.5,475.4,147.2,484,159.7,492.4z"/>
	<path class="st17" d="M190.2,475.7c-2.9,3.2-6.5,5.5-10.7,6.8c0.1,0,0.2,0.1,0.4,0.1c3.2,0.9,19.9,5.5,19.9-2.3
		c0-2.1-0.1-10.7-0.1-17.1C199.2,466.8,196.9,472.1,190.2,475.7z"/>
	<path class="st5" d="M178.3,483c-0.1,0-0.2,0.3-0.3,0.9c-0.8,8.4,5.2,72.4,8.5,106.4l1.7-0.6c0,0,3.6-6.8,7.2-12.9
		c-6-36.7-14.6-87.3-16.8-93.2C178.5,483.2,178.3,483,178.3,483z"/>
	<path class="st5" d="M192.9,612.4c0,0-1,0.9-2.7,2.4c2.9,6.4,8.7,19.6,8.3,23.3c-0.6,4.9,2.8-14.8,2.8-23.2c0-0.5-0.4-3-1-7.2
		c-3.2,0.4-6,0.8-8.5,1.1L192.9,612.4z"/>
	<path class="st16" d="M186.5,590.3l-0.3,0.1l5.6,18.5c2.5-0.3,5.3-0.7,8.5-1.1c2-0.3,4-0.6,6.3-0.9c27.8-4.2,19.7-15.7,19.7-22.4
		c0-6.6-27.5-3.1-27.5-3.1s6.2-13.3,4.1-14.3c-1-0.5-4.3,4.4-7.5,9.8c-3.7,6.2-7.2,12.9-7.2,12.9L186.5,590.3z"/>
	<path class="st16" d="M190.2,475.7c-4.6,2.5-11.1,4.3-20.7,4.3c-4.8,0-8.7-0.7-12-1.8c4.1,3.3,9.4,5.3,15,5.3h0c0.5,0,1,0,1.5-0.1
		c1.9-0.1,3.8-0.4,5.5-1C183.7,481.3,187.4,478.9,190.2,475.7z"/>
	<path class="st16" d="M209.5,387.2c0,0.7,0,1.6-0.1,2.4C209.5,388.7,209.5,387.9,209.5,387.2z"/>
	<path class="st16" d="M145.8,425.5c0,11.5,4.2,11,4.2,11s5.2-0.5,5.7-6.7c0.5-6.2,5.5-7.5,5.5-7.5s12.5,0,19.9,0
		c7.5,0,7,13.2,10.7,13.2c3.7,0,4.5-6,4.5-10c0-2.9,1.9-4.4,2.9-4.9h-0.1c0,0,0-20.6,0-25.5c0-0.2,0-0.4,0-0.6
		c-2.2-2.2-4.1-5-5.5-8.3c-0.1-0.2-0.1-0.4-0.2-0.6c0,0,0,0,0,0c-4.5,0-12.6-13.3-15.9-9.8c-3.2,3.4-7.9,0-21.3,0
		c-8.5,0-8.9,25.8-11.6,22.7v23.2C146,423.2,145.8,425.5,145.8,425.5z"/>
	<path class="st16" d="M134.6,389.6c0-0.8-0.1-1.7-0.1-2.4C134.6,387.9,134.6,388.8,134.6,389.6z"/>
	<path class="st16" d="M142.9,420.7c-0.4-0.5-0.6-1.1-0.8-1.9h-2.4c0,0-0.6-3.6-1.3-8.9c-1.4,3.6-0.2,14.7,4.4,17.7
		c0,0,0.1,0,0.1,0.1V420.7z"/>
	<path class="st16" d="M204.9,408.9c-0.5-0.2-0.9-0.1-1.2,0c-0.8,6.6-1.5,11.6-1.5,11.6h-0.8c-0.4,0.6-0.9,1-1.4,1.2
		c0,1.4,0,3.8,0,6.7c0.4-0.2,0.9-0.5,1.4-0.8C206.6,424.1,207.5,409.8,204.9,408.9z"/>
	<path class="st13" d="M157.5,478.3c3.2,1.1,7.2,1.8,12,1.8c9.6,0,16.2-1.8,20.7-4.3c6.7-3.7,8.9-8.9,9.5-12.4
		c0.1-0.7,0.2-1.4,0.2-2c0-1.3,0-4.5,0-8.6c0-6.6,0-15.6,0-22.5c5.2-0.3,9.2-5.2,9.1-11.1l0.4-29.4c0-0.1,0-0.2,0-0.2
		c0-0.8,0.1-1.6,0.1-2.4c0-0.2,0-0.5,0-0.7c0-0.1,0-0.2,0-0.3c0-0.1,0-0.3,0-0.4l0-1.5l-0.1,0c-0.4-7.4-2.9-14.3-7-20
		c-3.5-8.5-10-16.6-21.4-16.6c-3.5,0-6.4,0.4-8.8,1c-0.1,0-0.1,0-0.2,0c-20.1,0-36.4,15.8-37.4,35.6l-0.1,0l0,1.5c0,0.1,0,0.3,0,0.4
		c0,0.1,0,0.2,0,0.3c0,0.2,0,0.4,0,0.7c0,0.8,0,1.6,0.1,2.4c0,0,0,0.1,0,0.1l0.4,29.5c-0.1,5.4,3.3,9.9,7.8,10.9v29.7
		c0,0,0,0.1,0,0.3C143,461.9,144,473.8,157.5,478.3z M144.6,398.5c6.6-1.4,10.5-1.7,19-1.7c13.5,0,15.4-5.8,18.7-9.2
		c3.2-3.4,6.7-2,11.1-2c0,0,0,0,0,0c0.1,0.2,0.1,0.4,0.2,0.6c1.4,3.3,3.3,6.1,5.5,8.3c0,0.2,0,0.4,0,0.6c0,4.9,0,25.5,0,25.5h0.1
		c-1,0.6-2.9,2-2.9,4.9c0,4-0.7,10-4.5,10c-3.7,0-3.2-13.2-10.7-13.2c-7.5,0-19.9,0-19.9,0s-5,1.2-5.5,7.5c-0.5,6.2-5.7,6.7-5.7,6.7
		s-4.2,0.5-4.2-11c0,0,0.1-2.3-1.2-3.8V398.5z M201.3,427.6c-0.5,0.3-1,0.6-1.4,0.8c0-2.9,0-5.3,0-6.7c0.5-0.2,1-0.6,1.4-1.2h0.8
		c0,0,0.7-5,1.5-11.6c0.3-0.2,0.7-0.2,1.2,0C207.5,409.8,206.6,424.1,201.3,427.6z M142.7,427.6c-4.6-3-5.8-14.1-4.4-17.7
		c0.6,5.3,1.3,8.9,1.3,8.9h2.4c0.2,0.8,0.4,1.4,0.8,1.9v7C142.8,427.7,142.8,427.6,142.7,427.6z"/>
	<path class="st17" d="M190.2,614.8c1.7-1.5,2.7-2.4,2.7-2.4l-1.1-3.6l-5.6-18.5l-2-6.7l-49.7,20.9c-4.8-51.7-7-123.4-14-131.2
		c-0.7-0.8-1.5-0.9-2.3-0.3C56.3,520,95,620.7,111.9,645.9c2.7,4.1,6.7,5.9,11.5,6.2C144.3,653.3,180.1,623.6,190.2,614.8z"/>
</g>
</svg>
