<svg xmlns="http://www.w3.org/2000/svg" viewBox="0 0 364.45 371.86"><title>google</title><path d="M125.15,10.18a188.36,188.36,0,0,1,125.3,1.1,180.76,180.76,0,0,1,59.9,37.1c-5.8,6.3-12.1,12.2-18.1,18.3l-34.2,34.2A101.31,101.31,0,0,0,218,77.28a109.81,109.81,0,0,0-54.6-2.2,111.15,111.15,0,0,0-55.6,30.9,115.41,115.41,0,0,0-27,43.9c-20.3-15.8-40.6-31.5-61-47.3C41.25,59.58,79.85,25.68,125.15,10.18Z" fill="#ea4335"/><path d="M3.65,149.18a185.51,185.51,0,0,1,16.2-46.8c20.3,15.8,40.6,31.5,61,47.3a112.2,112.2,0,0,0,0,72.4Q50.4,245.78,20,269.38A185.08,185.08,0,0,1,3.65,149.18Z" fill="#fbbc05"/><path d="M186,151.08H361c5.8,32.7,4.5,66.8-4.7,98.8-8.5,29.3-24.6,56.5-47.1,77.2l-59.1-45.9a87.61,87.61,0,0,0,37.2-57.5H185.85Q186,187.38,186,151.08Z" fill="#4285f4"/><path d="M19.75,269.48q30.45-23.55,60.9-47.3a115.59,115.59,0,0,0,42.6,57.1,110.81,110.81,0,0,0,41.4,17.9c14.6,3,29.7,2.6,44.4.1a106.55,106.55,0,0,0,41-16.2l59.1,45.9c-21.3,19.7-48,33.1-76.2,39.6-31.2,7.1-64.2,7.3-95.2-1a183.79,183.79,0,0,1-67.6-34.1A187.26,187.26,0,0,1,19.75,269.48Z" fill="#34a853"/></svg>