<svg width="281" height="98" viewBox="0 0 281 98" fill="none" xmlns="http://www.w3.org/2000/svg">
<path d="M77.4708 29.4968V69.5546L53.0887 83.7851V72.8181L73.3335 60.9351V31.5788L44.8972 48.2036V98L85.6623 74.286V24.7603L77.4708 29.4968ZM53.0887 52.9298L65.142 45.8197V56.2142L53.0887 63.3346V52.9298Z" fill="url(#paint0_linear)"/>
<path d="M0 24.7603V74.286L40.7651 97.9427V71.1942V68.0972L20.5151 56.2142V45.8249L40.7599 57.6872V48.2036L12.3236 31.5736V60.9351L32.5684 72.8129V83.7383L8.18628 69.5546V29.4968L0 24.7603Z" fill="url(#paint1_linear)"/>
<path d="M106.406 59.941L109.41 55.7249C111.245 57.6404 114.088 59.2383 117.675 59.2383C120.715 59.2383 122.197 57.8329 122.197 56.3495C122.197 51.7431 107.222 54.9025 107.222 45.1067C107.222 40.7709 110.965 37.1794 117.087 37.1794C121.22 37.1794 124.65 38.4286 127.223 40.8125L124.141 44.8725C122.036 42.9206 119.229 42.0201 116.578 42.0201C114.198 42.0201 112.872 43.0767 112.872 44.6382C112.872 48.7762 127.805 46.0071 127.805 55.7249C127.805 60.4875 124.411 64.079 117.394 64.079C112.41 64.079 108.823 62.4029 106.406 59.941Z" fill="#415A65"/>
<path d="M135.414 61.1902V70.7934H130.461V44.7528H135.414V47.1366C136.859 45.2993 138.923 44.2843 141.225 44.2843C146.059 44.2843 149.567 47.8758 149.567 54.1634C149.567 60.4511 146.059 64.079 141.225 64.079C139.001 64.079 136.932 63.1421 135.414 61.1902ZM144.422 54.1634C144.422 50.9207 142.509 48.6982 139.666 48.6982C138.065 48.6982 136.236 49.6351 135.414 50.8478V57.5259C136.236 58.697 138.065 59.6755 139.666 59.6755C142.509 59.6703 144.422 57.4426 144.422 54.1634Z" fill="#415A65"/>
<path d="M163.523 63.6105V61.6586C162.234 63.1837 160.015 64.079 157.556 64.079C154.552 64.079 151.007 62.049 151.007 57.833C151.007 53.4191 154.557 51.7431 157.556 51.7431C160.051 51.7431 162.276 52.5655 163.523 54.0489V51.5089C163.523 49.5934 161.886 48.3442 159.391 48.3442C157.364 48.3442 155.493 49.0885 153.892 50.572L152.021 47.2512C154.323 45.2212 157.286 44.2843 160.248 44.2843C164.537 44.2843 168.476 46.002 168.476 51.4308V63.6105H163.523ZM163.523 59.0822V56.7399C162.702 55.6469 161.142 55.1003 159.547 55.1003C157.598 55.1003 155.997 56.1153 155.997 57.9527C155.997 59.712 157.598 60.7269 159.547 60.7269C161.148 60.7217 162.707 60.1752 163.523 59.0822Z" fill="#415A65"/>
<path d="M171.205 54.1634C171.205 48.3858 175.379 44.2843 181.185 44.2843C185.047 44.2843 187.386 45.9655 188.633 47.6832L185.395 50.7281C184.496 49.4008 183.134 48.6982 181.419 48.6982C178.414 48.6982 176.309 50.8843 176.309 54.1634C176.309 57.4426 178.414 59.6703 181.419 59.6703C183.134 59.6703 184.501 58.8896 185.395 57.6404L188.633 60.6489C187.386 62.4082 185.047 64.0842 181.185 64.0842C175.379 64.079 171.205 59.9826 171.205 54.1634Z" fill="#415A65"/>
<path d="M189.683 54.1634C189.683 48.6982 193.701 44.2843 199.428 44.2843C205.042 44.2843 208.862 48.5004 208.862 54.6683V55.7614H194.865C195.177 58.1453 197.089 60.1336 200.286 60.1336C201.887 60.1336 204.106 59.4309 205.317 58.2598L207.5 61.4609C205.629 63.1785 202.667 64.079 199.74 64.079C194.012 64.079 189.683 60.2169 189.683 54.1634ZM199.434 48.2297C196.351 48.2297 195.026 50.5355 194.792 52.4093H204.07C203.956 50.6084 202.708 48.2297 199.434 48.2297Z" fill="#415A65"/>
<path d="M216.43 61.1902V70.7934H211.477V44.7528H216.43V47.1366C217.875 45.2993 219.938 44.2843 222.241 44.2843C227.075 44.2843 230.583 47.8758 230.583 54.1634C230.583 60.4511 227.075 64.079 222.241 64.079C220.021 64.079 217.953 63.1421 216.43 61.1902ZM225.437 54.1634C225.437 50.9207 223.525 48.6982 220.682 48.6982C219.081 48.6982 217.251 49.6351 216.43 50.8478V57.5259C217.251 58.697 219.081 59.6755 220.682 59.6755C223.53 59.6703 225.437 57.4426 225.437 54.1634Z" fill="#415A65"/>
<path d="M232.028 54.1634C232.028 48.8127 235.77 44.2843 241.971 44.2843C248.208 44.2843 251.951 48.8127 251.951 54.1634C251.951 59.5506 248.208 64.079 241.971 64.079C235.77 64.079 232.028 59.5506 232.028 54.1634ZM246.805 54.1634C246.805 51.233 245.048 48.6982 241.971 48.6982C238.889 48.6982 237.174 51.2382 237.174 54.1634C237.174 57.1303 238.889 59.6703 241.971 59.6703C245.048 59.6703 246.805 57.1303 246.805 54.1634Z" fill="#415A65"/>
<path d="M253.432 54.1634C253.432 48.8127 257.174 44.2843 263.375 44.2843C269.612 44.2843 273.354 48.8127 273.354 54.1634C273.354 59.5506 269.612 64.079 263.375 64.079C257.174 64.079 253.432 59.5506 253.432 54.1634ZM268.209 54.1634C268.209 51.233 266.452 48.6982 263.375 48.6982C260.293 48.6982 258.578 51.2382 258.578 54.1634C258.578 57.1303 260.293 59.6703 263.375 59.6703C266.457 59.6703 268.209 57.1303 268.209 54.1634Z" fill="#415A65"/>
<path d="M276.047 63.6105V37.5698H281V63.6157H276.047V63.6105Z" fill="#415A65"/>
<path d="M0 24.7655L8.19148 29.4968L42.8338 9.47313L77.4708 29.4968L85.6623 24.7655L42.8338 0L0 24.7655Z" fill="url(#paint2_linear)"/>
<defs>
<linearGradient id="paint0_linear" x1="52.8056" y1="42.8602" x2="77.6751" y2="79.6785" gradientUnits="userSpaceOnUse">
<stop offset="0.25" stop-color="#008199"/>
<stop offset="1" stop-color="#0DE1AA"/>
</linearGradient>
<linearGradient id="paint1_linear" x1="30.7364" y1="39.113" x2="9.97828" y2="83.5659" gradientUnits="userSpaceOnUse">
<stop offset="0.25" stop-color="#008199"/>
<stop offset="1" stop-color="#0DE1AA"/>
</linearGradient>
<linearGradient id="paint2_linear" x1="41.9697" y1="0.030137" x2="43.0424" y2="30.7029" gradientUnits="userSpaceOnUse">
<stop offset="0.25" stop-color="#008199"/>
<stop offset="1" stop-color="#0DE1AA"/>
</linearGradient>
</defs>
</svg>
