<svg xmlns="http://www.w3.org/2000/svg" xmlns:xlink="http://www.w3.org/1999/xlink" viewBox="0 0 171.5 53.69"><defs><linearGradient id="a" x1="28.97" y1="23.48" x2="42.59" y2="43.67" gradientUnits="userSpaceOnUse"><stop offset="0.25" stop-color="#008199"/><stop offset="1" stop-color="#0de1aa"/></linearGradient><linearGradient id="b" x1="16.86" y1="21.43" x2="5.5" y2="45.8" xlink:href="#a"/><linearGradient id="c" x1="23.03" y1="0.02" x2="23.61" y2="16.82" xlink:href="#a"/></defs><title>logo</title><path d="M42.5,16.16v22L29.13,45.9v-6l11.11-6.51V17.3L24.63,26.41V53.69L47,40.7V13.57ZM29.13,29l6.61-3.9v5.7l-6.61,3.9Z" fill="url(#a)"/><path d="M0,13.57V40.7l22.37,13V37.31L11.26,30.8V25.11l11.11,6.5v-5.2L6.76,17.3V33.38l11.11,6.51v6L4.49,38.11V16.16Z" fill="url(#b)"/><polygon points="0 13.57 4.5 16.16 23.5 5.19 42.51 16.16 47 13.57 23.5 0 0 13.57" fill="url(#c)"/><path d="M58.5,33.36l1.87-2.63a7.16,7.16,0,0,0,5.17,2.19c1.89,0,2.82-.88,2.82-1.8,0-2.87-9.35-.9-9.35-7,0-2.71,2.34-4.95,6.16-4.95a9,9,0,0,1,6.33,2.27L69.58,24a7,7,0,0,0-4.73-1.78c-1.48,0-2.31.66-2.31,1.63,0,2.59,9.33.86,9.33,6.92,0,3-2.12,5.21-6.5,5.21A9.28,9.28,0,0,1,58.5,33.36Z" fill="#415a65"/><path d="M76.61,34.14v6H73.52V23.89h3.09v1.48a4.55,4.55,0,0,1,3.63-1.77c3,0,5.21,2.24,5.21,6.16s-2.19,6.18-5.21,6.18A4.51,4.51,0,0,1,76.61,34.14Zm5.63-4.38c0-2-1.2-3.41-3-3.41a3.46,3.46,0,0,0-2.66,1.34v4.16a3.55,3.55,0,0,0,2.66,1.34C81,33.19,82.24,31.8,82.24,29.76Z" fill="#415a65"/><path d="M94.16,35.65V34.43a4.85,4.85,0,0,1-3.72,1.51A3.92,3.92,0,0,1,86.35,32c0-2.75,2.22-3.79,4.09-3.79a4.82,4.82,0,0,1,3.72,1.43V28.1c0-1.19-1-2-2.58-2a4.94,4.94,0,0,0-3.43,1.39L87,25.45a7.71,7.71,0,0,1,5.14-1.85c2.68,0,5.14,1.07,5.14,4.45v7.6Zm0-2.83V31.36a3.09,3.09,0,0,0-2.48-1c-1.22,0-2.21.63-2.21,1.78s1,1.73,2.21,1.73A3.09,3.09,0,0,0,94.16,32.82Z" fill="#415a65"/><path d="M99,29.76a6,6,0,0,1,6.23-6.16,5.47,5.47,0,0,1,4.65,2.11l-2,1.9a2.84,2.84,0,0,0-2.48-1.26,3.14,3.14,0,0,0-3.19,3.41,3.16,3.16,0,0,0,3.19,3.43,3,3,0,0,0,2.48-1.27l2,1.88a5.43,5.43,0,0,1-4.65,2.14A6,6,0,0,1,99,29.76Z" fill="#415a65"/><path d="M110.5,29.76a6,6,0,0,1,6.09-6.16c3.5,0,5.89,2.63,5.89,6.47v.68h-8.74a3.16,3.16,0,0,0,3.38,2.73,5,5,0,0,0,3.14-1.17l1.37,2a7.34,7.34,0,0,1-4.85,1.63A6,6,0,0,1,110.5,29.76Zm6.09-3.71a2.82,2.82,0,0,0-2.9,2.61h5.79A2.72,2.72,0,0,0,116.59,26.05Z" fill="#415a65"/><path d="M131.19,34.14v6h-3.1V23.89h3.1v1.48a4.54,4.54,0,0,1,3.62-1.77c3,0,5.21,2.24,5.21,6.16s-2.19,6.18-5.21,6.18A4.51,4.51,0,0,1,131.19,34.14Zm5.62-4.38c0-2-1.19-3.41-3-3.41a3.44,3.44,0,0,0-2.65,1.34v4.16a3.53,3.53,0,0,0,2.65,1.34C135.62,33.19,136.81,31.8,136.81,29.76Z" fill="#415a65"/><path d="M140.92,29.76a6.22,6.22,0,0,1,12.44,0,6.22,6.22,0,0,1-12.44,0Zm9.23,0c0-1.83-1.09-3.41-3-3.41s-3,1.58-3,3.41,1.07,3.43,3,3.43S150.15,31.61,150.15,29.76Z" fill="#415a65"/><path d="M154.29,29.76a6.22,6.22,0,0,1,12.44,0,6.22,6.22,0,0,1-12.44,0Zm9.23,0c0-1.83-1.1-3.41-3-3.41s-3,1.58-3,3.41,1.07,3.43,3,3.43S163.52,31.61,163.52,29.76Z" fill="#415a65"/><path d="M168.41,35.65V19.41h3.09V35.65Z" fill="#415a65"/></svg>