<svg xmlns="http://www.w3.org/2000/svg" viewBox="0 0 26.78 24.06"><title>picture-messages</title><rect x="10.22" width="16.56" height="10.56" rx="4.89" ry="4.89" fill="#edc35d"/><path d="M14.5,2.56H4.5a4,4,0,0,0-4,4v4a4,4,0,0,0,4,4H6v4l4-4h4.5a4,4,0,0,0,4-4v-4A4,4,0,0,0,14.5,2.56Z" fill="none" stroke="#040706" stroke-linecap="round" stroke-linejoin="round"/><path d="M11.5,18.06a2.5,2.5,0,0,0,2.5,2.5h2.5l3,3v-3H21a2.5,2.5,0,0,0,2.5-2.5v-2a2.5,2.5,0,0,0-2.5-2.5" fill="none" stroke="#040706" stroke-linecap="round" stroke-linejoin="round"/></svg>