<svg xmlns="http://www.w3.org/2000/svg" viewBox="0 0 25.11 25.44"><title>picture-plant</title><path d="M3.06,2.9h9.76a3.05,3.05,0,0,1,2.69,4.51l-4.88,9a3.06,3.06,0,0,1-5.37,0l-4.89-9A3.05,3.05,0,0,1,3.06,2.9Z" fill="#83c2b1"/><rect x="6.44" y="11.72" width="18.17" height="2.93" fill="none" stroke="#040706" stroke-linejoin="round"/><polygon points="21.23 24.94 9.82 24.94 7.94 14.65 23.11 14.65 21.23 24.94" fill="none" stroke="#040706" stroke-linejoin="round"/><path d="M14.7,11.56a5.91,5.91,0,0,1-1.21-4.41c.37-2.58,1.87-5.31,2-6.65,2.2,6.09,3.12,7.59,1.79,11.22A23.78,23.78,0,0,1,14.7,11.56Z" fill="none" stroke="#040706" stroke-linejoin="round"/><path d="M10.82,11.72A5,5,0,0,1,9.65,8.17c.09-2.27,0-4.47,0-4.47s3.14,2.24,3.78,4" fill="none" stroke="#040706" stroke-linejoin="round"/><path d="M17.86,8.45A16.2,16.2,0,0,1,19,5.5a3.84,3.84,0,0,0,.62-1.37s1.8,4.37.42,7.59" fill="none" stroke="#040706" stroke-linejoin="round"/><path d="M11.33,7.71a6.84,6.84,0,0,0,.56,2.18" fill="none" stroke="#040706" stroke-linecap="round" stroke-linejoin="round"/><path d="M15.52,5.28a15.87,15.87,0,0,1,.12,3.52" fill="none" stroke="#040706" stroke-linecap="round" stroke-linejoin="round"/></svg>