<svg xmlns="http://www.w3.org/2000/svg" viewBox="0 0 33.37 21.26"><title>picture-payments</title><rect x="13.87" y="1.76" width="17.74" height="17.74" rx="4.62" ry="4.62" transform="translate(-0.86 19.19) rotate(-45)" fill="#83c2b1"/><polyline points="25.61 6.81 19.06 11.18 13.6 11.18" fill="none" stroke="#040706" stroke-linecap="round" stroke-linejoin="round"/><polyline points="25.61 8.99 19.06 13.36 13.6 13.36" fill="none" stroke="#040706" stroke-linecap="round" stroke-linejoin="round"/><polyline points="25.61 11.18 19.06 15.54 13.6 15.54" fill="none" stroke="#040706" stroke-linecap="round" stroke-linejoin="round"/><polyline points="25.61 13.36 19.06 17.73 13.6 17.73" fill="none" stroke="#040706" stroke-linecap="round" stroke-linejoin="round"/><polygon points="13.6 18.82 5.96 18.82 5.96 8.45 12.51 3.53 20.15 3.53 13.6 8.45 13.6 18.82" fill="none" stroke="#040706" stroke-linecap="round" stroke-linejoin="round"/><line x1="5.96" y1="11.18" x2="0.5" y2="11.18" fill="none" stroke="#040706" stroke-linecap="round" stroke-linejoin="round"/><line x1="5.96" y1="13.36" x2="0.5" y2="13.36" fill="none" stroke="#040706" stroke-linecap="round" stroke-linejoin="round"/><line x1="5.96" y1="15.54" x2="0.5" y2="15.54" fill="none" stroke="#040706" stroke-linecap="round" stroke-linejoin="round"/><line x1="5.96" y1="17.73" x2="0.5" y2="17.73" fill="none" stroke="#040706" stroke-linecap="round" stroke-linejoin="round"/><polyline points="18.52 4.63 25.61 4.63 19.06 8.99 13.6 8.99" fill="none" stroke="#040706" stroke-linejoin="round"/><polyline points="5.96 8.99 0.5 8.99 7.05 4.63 10.87 4.63" fill="none" stroke="#040706" stroke-linejoin="round"/><line x1="9.78" y1="16.09" x2="9.78" y2="17.18" fill="none" stroke="#040706" stroke-linecap="round" stroke-linejoin="round"/><line x1="9.78" y1="8.45" x2="9.78" y2="9.54" fill="none" stroke="#040706" stroke-linecap="round" stroke-linejoin="round"/><path d="M8.14,14.45a1.64,1.64,0,1,0,1.64-1.64,1.64,1.64,0,1,1,1.64-1.63" fill="none" stroke="#040706" stroke-linecap="round" stroke-linejoin="round"/></svg>