<svg xmlns="http://www.w3.org/2000/svg" xmlns:xlink="http://www.w3.org/1999/xlink" viewBox="0 0 2979.37 3711.84"><defs><filter id="b" x="2211.53" y="-10034.4" width="155.21" height="32766" filterUnits="userSpaceOnUse" color-interpolation-filters="sRGB"><feFlood flood-color="#fff" result="bg"/><feBlend in="SourceGraphic" in2="bg"/></filter><mask id="a" x="2211.53" y="-10034.4" width="155.21" height="32766" maskUnits="userSpaceOnUse"><g filter="url(#b)"/></mask><linearGradient id="c" x1="2817.36" y1="1756.64" x2="2972.57" y2="1756.64" gradientTransform="matrix(-1, 0, 0, 1, 5184.1, 0)" gradientUnits="userSpaceOnUse"><stop offset="0" stop-color="#fff"/><stop offset="1"/></linearGradient><linearGradient id="d" x1="1230.1" y1="2034.25" x2="1255.12" y2="2034.25" gradientUnits="userSpaceOnUse"><stop offset="0" stop-color="#325199"/><stop offset="1" stop-color="#2b4485"/></linearGradient><linearGradient id="e" x1="1230.1" y1="1646.26" x2="1811.19" y2="1646.26" xlink:href="#d"/><linearGradient id="f" x1="1259.09" y1="2385.79" x2="1653.57" y2="2385.79" xlink:href="#d"/><linearGradient id="g" x1="1653.52" y1="2335.67" x2="2204.44" y2="2335.67" xlink:href="#d"/><linearGradient id="h" x1="665.86" y1="1459.59" x2="578.27" y2="1176.79" gradientUnits="userSpaceOnUse"><stop offset="0" stop-color="#0290d3"/><stop offset="1" stop-color="#fff"/></linearGradient><linearGradient id="i" x1="528.02" y1="2150.47" x2="440.43" y2="1867.67" xlink:href="#h"/><linearGradient id="j" x1="1923.37" y1="1255.56" x2="1835.77" y2="972.76" xlink:href="#h"/><linearGradient id="k" x1="1864.04" y1="343.03" x2="1776.44" y2="60.23" xlink:href="#h"/><linearGradient id="l" x1="302.93" y1="699.17" x2="215.33" y2="416.37" xlink:href="#h"/><linearGradient id="m" x1="1040.88" y1="793.54" x2="953.29" y2="510.74" xlink:href="#h"/><filter id="o" x="2211.53" y="1694.74" width="155.21" height="123.81" filterUnits="userSpaceOnUse" color-interpolation-filters="sRGB"><feFlood flood-color="#fff" result="bg"/><feBlend in="SourceGraphic" in2="bg"/></filter><mask id="n" x="2211.53" y="1694.74" width="155.21" height="123.81" maskUnits="userSpaceOnUse"><g mask="url(#a)" filter="url(#o)"><path d="M2259.58,1694.74l107.16,66-135.1,57.81C2197.14,1780.12,2207.4,1729.91,2259.58,1694.74Z" fill="url(#c)" style="mix-blend-mode:multiply"/></g></mask><linearGradient id="p" x1="2817.36" y1="1756.64" x2="2972.57" y2="1756.64" gradientTransform="matrix(-1, 0, 0, 1, 5184.1, 0)" gradientUnits="userSpaceOnUse"><stop offset="0" stop-color="#fff"/><stop offset="1" stop-color="#fff"/></linearGradient><linearGradient id="q" x1="2809" y1="1792.27" x2="2968.34" y2="1792.27" gradientTransform="matrix(-1, 0, 0, 1, 5184.1, 0)" gradientUnits="userSpaceOnUse"><stop offset="0" stop-color="#fff"/><stop offset="1" stop-color="#e84378"/></linearGradient><clipPath id="s"><path d="M2551.55,1827.67l-3-50.8c0,.45,0,.89,0,1.35l3.06,50.79C2551.61,1828.57,2551.58,1828.12,2551.55,1827.67Z" fill="none"/></clipPath><clipPath id="t"><path d="M2519.6,1862l1.82,30.48c20.81-19.36,31-41.64,30.12-63.47l-1.84-30.47C2550.57,1820.34,2540.42,1842.62,2519.6,1862Z" fill="none"/></clipPath><linearGradient id="u" x1="1230.03" y1="2355.07" x2="1230.03" y2="2274.25" gradientTransform="translate(-190.92)" gradientUnits="userSpaceOnUse"><stop offset="0" stop-color="#f8ff3f"/><stop offset="1" stop-color="#fff"/></linearGradient><linearGradient id="v" x1="1179.36" y1="2435.01" x2="1179.36" y2="2310.6" xlink:href="#u"/><linearGradient id="w" x1="1128.71" y1="2502.38" x2="1128.71" y2="2418.63" xlink:href="#u"/><linearGradient id="x" x1="1078.07" y1="2551.48" x2="1078.07" y2="2509.39" xlink:href="#u"/><clipPath id="y"><path d="M1070.32,1969.86l22.19-.93q-16.26,55-37.15,107c-31.34,77.81-70.43,150.28-116.19,215.39-49.84,70.93-96.52,117.43-124.67,142.45l-22.2.93c28.16-25,74.83-71.53,124.67-142.44,45.76-65.11,84.85-137.59,116.19-215.4Q1054.05,2024.93,1070.32,1969.86Z" fill="none"/></clipPath></defs><title>tenant-slider-3</title><g style="isolation:isolate"><ellipse cx="2582.1" cy="3508.51" rx="282.39" ry="102.79" fill="#163160" opacity="0.25"/><polygon points="2796.07 2711.2 1112.96 3682.94 163.04 3134.51 1846.15 2162.76 2796.07 2711.2" fill="#163160" opacity="0.25"/><polygon points="1256.99 3573.63 1229.8 2892.41 1316.92 2889.08 1286.95 3574.47 1256.99 3573.63" fill="#c43947"/><polygon points="1305.87 3205.38 1309.48 3102.16 1236.48 3102.16 1239.76 3205.38 1305.87 3205.38" fill="#fff"/><polygon points="559.46 3121.04 532.27 2439.82 619.39 2436.49 589.42 3121.87 559.46 3121.04" fill="#c43947"/><polygon points="608.34 2752.78 611.95 2649.57 538.95 2649.57 542.23 2752.78 608.34 2752.78" fill="#fff"/><polygon points="2799.36 2653.44 2772.18 1972.22 2859.29 1968.89 2829.33 2654.28 2799.36 2653.44" fill="#c43947"/><polygon points="2848.25 2285.19 2851.86 2181.97 2778.86 2181.97 2782.14 2285.19 2848.25 2285.19" fill="#fff"/><g style="isolation:isolate"><polygon points="2971.97 1934.53 2972.16 2004.46 1263.07 2991.2 1262.88 2921.28 2971.97 1934.53" fill="#85c4e0"/><polygon points="1262.88 2921.28 1263.07 2991.2 446.87 2516.88 446.67 2446.95 1262.88 2921.28" fill="#85c4e0"/><polygon points="2155.76 1460.2 2971.97 1934.53 1262.88 2921.28 446.67 2446.95 2155.76 1460.2" fill="#fff"/></g><path d="M1252.74,2257l-1.24-438.26-21.4-12.43,1.24,438.25c0,2.55.92,4.36,2.38,5.21l21.4,12.44C1253.66,2261.35,1252.75,2259.54,1252.74,2257Z" fill="url(#d)"/><path d="M1789.79,1473.78l-551.58,318.46a9.06,9.06,0,0,0-.77.49c-.08,0-.16.12-.24.18s-.35.25-.51.38l-.28.23-.46.4-.27.26-.17.15-.18.19-.54.58-.17.18s-.09.11-.14.17l-.32.39a2.43,2.43,0,0,0-.2.25l-.17.22-.22.31-.16.21c-.08.12-.16.25-.25.37l-.16.24-.06.09c-.15.23-.29.46-.42.7l0,0-.08.15-.28.5-.12.23-.12.25a1.51,1.51,0,0,0-.11.22c-.09.18-.17.36-.26.55a.61.61,0,0,1,0,.12l0,0-.3.73s0,.08,0,.13a2,2,0,0,0-.1.26l-.14.38c0,.09,0,.18-.08.27s-.07.23-.1.35,0,.14-.07.21l-.09.36c0,.14-.07.28-.1.42s0,.1,0,.15,0,.2-.05.3-.08.43-.11.64l0,.19s0,.11,0,.16a11.4,11.4,0,0,0-.09,1.42l21.4,12.43a13.69,13.69,0,0,1,.09-1.41c0-.12,0-.23,0-.35s.07-.43.11-.64l.09-.45c0-.14.07-.28.1-.42s.1-.39.16-.58.07-.22.1-.34.15-.43.22-.65.07-.18.1-.27c.11-.3.23-.6.36-.89a.61.61,0,0,0,.05-.12c.12-.26.24-.52.37-.78l.12-.24.4-.74s0-.09.08-.14c.17-.28.34-.56.52-.84l.15-.23.41-.58a3.55,3.55,0,0,1,.23-.31l.36-.47.32-.39.32-.36c.17-.19.35-.39.54-.57l.34-.35.27-.25.46-.4.28-.23.51-.39.24-.17c.26-.18.52-.35.78-.5l551.57-318.45Z" fill="url(#e)"/><path d="M1819.35,1490.88c0-5.14-3.69-7.24-8.16-4.66l-551.57,318.45c-4.48,2.59-8.14,8.92-8.12,14.06l1,361.35,567.86-327.85Z" fill="#16254a"/><path d="M1260.91,2261.64l551.57-318.45c4.48-2.58,8.13-8.91,8.11-14l-.21-76.91-567.86,327.85.22,76.91C1252.76,2262.13,1256.43,2264.23,1260.91,2261.64Z" fill="#16254a"/><path d="M1803.19,1928.62l-1-417.32-533.32,307.91a2.2,2.2,0,0,0-.15.26l1,417.15Z" fill="#fff"/><g opacity="0.35"><path d="M1284.61,1829.94l517.64-298.85-.06-19.16-533.32,307.92c0,.08-.11.17-.15.25l1,417.41,15.69-9.06-.94-398.25Z" fill="#8698b5"/></g><path d="M1653.52,2487.84c-.35.2-.73.38-1.12.56l-.32.13c-.32.14-.66.26-1,.37l-.26.09-.5.14-.51.14-.52.11-.52.1c-.42.08-.85.14-1.28.18l-.39,0c-.26,0-.53,0-.8.06h-1.13l-.52,0-.59,0-.53-.05-.57-.06-.51-.07-.61-.1-.47-.1-.7-.17-.4-.11c-.42-.12-.83-.25-1.23-.4l-.59-.25-.31-.14c-.29-.14-.58-.29-.85-.44L1262.42,2270c-2.21-1.28-3.32-3-3.33-4.66l.05,16.5c0,1.69,1.11,3.38,3.32,4.67h0l374.88,217.85c.27.16.55.31.85.45l.3.13.56.24h0c.39.15.8.29,1.23.41l.12,0,.28.07.7.16.22.06.25,0,.61.1.28,0,.23,0a5.51,5.51,0,0,0,.57.06l.31,0h.22l.58,0h.33a1.34,1.34,0,0,0,.2,0h1.13l.8-.05.31,0h.07c.44-.05.87-.11,1.29-.19h.08l.43-.09.52-.11.52-.14.5-.14.09,0,.17-.07c.34-.11.67-.23,1-.36l.32-.14c.39-.17.76-.36,1.12-.56Z" fill="url(#f)"/><path d="M1810,1944.48c4.48-2.59,11.79-2.58,16.23,0l374.88,217.85c4.45,2.59,4.42,6.82-.06,9.41l-547.5,316.1c-4.48,2.58-11.78,2.58-16.23,0L1262.42,2270c-4.45-2.58-4.43-6.81,0-9.4Z" fill="#9e9e9e"/><path d="M1645.26,2472.56l-356.59-207.23,529.27-305.57h.29L2174.82,2167l-529.26,305.56h-.3Z" fill="#fff"/><g style="isolation:isolate"><polygon points="1873.71 2012.59 1873.72 2014.24 1841.88 2032.62 1841.88 2030.97 1873.71 2012.59" fill="#c5c5c5"/><polygon points="1841.88 2030.97 1841.88 2032.62 1810.25 2014.24 1810.25 2012.59 1841.88 2030.97" fill="#888"/><polygon points="1842.08 1994.21 1873.71 2012.59 1841.88 2030.97 1810.25 2012.59 1842.08 1994.21" fill="#a39f9f"/></g><g style="isolation:isolate"><polygon points="1832.78 2036.23 1832.78 2037.88 1800.94 2056.26 1800.94 2054.61 1832.78 2036.23" fill="#c5c5c5"/><polygon points="1800.94 2054.61 1800.94 2056.26 1769.32 2037.88 1769.31 2036.23 1800.94 2054.61" fill="#888"/><polygon points="1801.15 2017.85 1832.78 2036.23 1800.94 2054.61 1769.31 2036.23 1801.15 2017.85" fill="#a39f9f"/></g><g style="isolation:isolate"><polygon points="1791.85 2059.86 1791.85 2061.51 1760.02 2079.89 1760.01 2078.24 1791.85 2059.86" fill="#c5c5c5"/><polygon points="1760.01 2078.24 1760.02 2079.89 1728.39 2061.51 1728.38 2059.86 1760.01 2078.24" fill="#888"/><polygon points="1760.22 2041.48 1791.85 2059.86 1760.01 2078.24 1728.38 2059.86 1760.22 2041.48" fill="#a39f9f"/></g><g style="isolation:isolate"><polygon points="1750.92 2083.49 1750.92 2085.14 1719.09 2103.52 1719.08 2101.87 1750.92 2083.49" fill="#c5c5c5"/><polygon points="1719.08 2101.87 1719.09 2103.52 1687.46 2085.14 1687.45 2083.49 1719.08 2101.87" fill="#888"/><polygon points="1719.29 2065.11 1750.92 2083.49 1719.08 2101.87 1687.45 2083.49 1719.29 2065.11" fill="#a39f9f"/></g><g style="isolation:isolate"><polygon points="1709.98 2107.12 1709.99 2108.77 1678.15 2127.15 1678.15 2125.5 1709.98 2107.12" fill="#c5c5c5"/><polygon points="1678.15 2125.5 1678.15 2127.15 1646.52 2108.77 1646.52 2107.12 1678.15 2125.5" fill="#888"/><polygon points="1678.35 2088.74 1709.98 2107.12 1678.15 2125.5 1646.52 2107.12 1678.35 2088.74" fill="#a39f9f"/></g><g style="isolation:isolate"><polygon points="1669.05 2130.75 1669.06 2132.4 1637.22 2150.78 1637.22 2149.13 1669.05 2130.75" fill="#c5c5c5"/><polygon points="1637.22 2149.13 1637.22 2150.78 1605.59 2132.4 1605.59 2130.75 1637.22 2149.13" fill="#888"/><polygon points="1637.42 2112.37 1669.05 2130.75 1637.22 2149.13 1605.59 2130.75 1637.42 2112.37" fill="#a39f9f"/></g><g style="isolation:isolate"><polygon points="1628.13 2154.38 1628.13 2156.03 1596.29 2174.41 1596.29 2172.76 1628.13 2154.38" fill="#c5c5c5"/><polygon points="1596.29 2172.76 1596.29 2174.41 1564.66 2156.03 1564.66 2154.38 1596.29 2172.76" fill="#888"/><polygon points="1596.5 2136 1628.13 2154.38 1596.29 2172.76 1564.66 2154.38 1596.5 2136" fill="#a39f9f"/></g><g style="isolation:isolate"><polygon points="1587.19 2178.01 1587.19 2179.66 1555.36 2198.05 1555.35 2196.39 1587.19 2178.01" fill="#c5c5c5"/><polygon points="1555.35 2196.39 1555.36 2198.05 1523.73 2179.66 1523.73 2178.01 1555.35 2196.39" fill="#888"/><polygon points="1555.56 2159.64 1587.19 2178.01 1555.35 2196.39 1523.73 2178.01 1555.56 2159.64" fill="#a39f9f"/></g><g style="isolation:isolate"><polygon points="1546.26 2201.65 1546.27 2203.3 1514.43 2221.68 1514.42 2220.03 1546.26 2201.65" fill="#c5c5c5"/><polygon points="1514.42 2220.03 1514.43 2221.68 1482.8 2203.3 1482.8 2201.64 1514.42 2220.03" fill="#888"/><polygon points="1514.63 2183.26 1546.26 2201.65 1514.42 2220.03 1482.8 2201.64 1514.63 2183.26" fill="#a39f9f"/></g><g style="isolation:isolate"><polygon points="1505.33 2225.28 1505.34 2226.93 1473.5 2245.31 1473.5 2243.66 1505.33 2225.28" fill="#c5c5c5"/><polygon points="1473.5 2243.66 1473.5 2245.31 1441.87 2226.93 1441.87 2225.28 1473.5 2243.66" fill="#888"/><polygon points="1473.7 2206.89 1505.33 2225.28 1473.5 2243.66 1441.87 2225.28 1473.7 2206.89" fill="#a39f9f"/></g><g style="isolation:isolate"><polygon points="1464.4 2248.91 1464.4 2250.56 1432.57 2268.94 1432.56 2267.29 1464.4 2248.91" fill="#c5c5c5"/><polygon points="1432.56 2267.29 1432.57 2268.94 1400.94 2250.56 1400.93 2248.91 1432.56 2267.29" fill="#888"/><polygon points="1432.77 2230.53 1464.4 2248.91 1432.56 2267.29 1400.93 2248.91 1432.77 2230.53" fill="#a39f9f"/></g><g style="isolation:isolate"><polygon points="1423.47 2272.54 1423.47 2274.19 1391.64 2292.57 1391.63 2290.92 1423.47 2272.54" fill="#c5c5c5"/><polygon points="1391.63 2290.92 1391.64 2292.57 1360.01 2274.19 1360 2272.54 1391.63 2290.92" fill="#888"/><polygon points="1391.84 2254.16 1423.47 2272.54 1391.63 2290.92 1360 2272.54 1391.84 2254.16" fill="#a39f9f"/></g><g style="isolation:isolate"><polygon points="1917.23 2037.88 1917.24 2039.53 1885.4 2057.91 1885.4 2056.26 1917.23 2037.88" fill="#c5c5c5"/><polygon points="1885.4 2056.26 1885.4 2057.91 1853.77 2039.53 1853.77 2037.88 1885.4 2056.26" fill="#888"/><polygon points="1885.6 2019.5 1917.23 2037.88 1885.4 2056.26 1853.77 2037.88 1885.6 2019.5" fill="#a39f9f"/></g><g style="isolation:isolate"><polygon points="1876.3 2061.52 1876.3 2063.17 1844.46 2081.55 1844.46 2079.9 1876.3 2061.52" fill="#c5c5c5"/><polygon points="1844.46 2079.9 1844.46 2081.55 1812.84 2063.17 1812.83 2061.52 1844.46 2079.9" fill="#888"/><polygon points="1844.67 2043.14 1876.3 2061.52 1844.46 2079.9 1812.83 2061.52 1844.67 2043.14" fill="#a39f9f"/></g><g style="isolation:isolate"><polygon points="1835.37 2085.15 1835.37 2086.8 1803.54 2105.18 1803.53 2103.53 1835.37 2085.15" fill="#c5c5c5"/><polygon points="1803.53 2103.53 1803.54 2105.18 1771.91 2086.8 1771.9 2085.15 1803.53 2103.53" fill="#888"/><polygon points="1803.74 2066.77 1835.37 2085.15 1803.53 2103.53 1771.9 2085.15 1803.74 2066.77" fill="#a39f9f"/></g><g style="isolation:isolate"><polygon points="1794.44 2108.78 1794.44 2110.43 1762.61 2128.81 1762.6 2127.16 1794.44 2108.78" fill="#c5c5c5"/><polygon points="1762.6 2127.16 1762.61 2128.81 1730.98 2110.43 1730.97 2108.78 1762.6 2127.16" fill="#888"/><polygon points="1762.81 2090.4 1794.44 2108.78 1762.6 2127.16 1730.97 2108.78 1762.81 2090.4" fill="#a39f9f"/></g><g style="isolation:isolate"><polygon points="1753.5 2132.41 1753.51 2134.06 1721.67 2152.44 1721.67 2150.79 1753.5 2132.41" fill="#c5c5c5"/><polygon points="1721.67 2150.79 1721.67 2152.44 1690.04 2134.06 1690.04 2132.41 1721.67 2150.79" fill="#888"/><polygon points="1721.87 2114.03 1753.5 2132.41 1721.67 2150.79 1690.04 2132.41 1721.87 2114.03" fill="#a39f9f"/></g><g style="isolation:isolate"><polygon points="1712.57 2156.04 1712.58 2157.69 1680.74 2176.07 1680.74 2174.42 1712.57 2156.04" fill="#c5c5c5"/><polygon points="1680.74 2174.42 1680.74 2176.07 1649.11 2157.69 1649.11 2156.04 1680.74 2174.42" fill="#888"/><polygon points="1680.94 2137.66 1712.57 2156.04 1680.74 2174.42 1649.11 2156.04 1680.94 2137.66" fill="#a39f9f"/></g><g style="isolation:isolate"><polygon points="1671.64 2179.67 1671.65 2181.32 1639.81 2199.7 1639.81 2198.05 1671.64 2179.67" fill="#c5c5c5"/><polygon points="1639.81 2198.05 1639.81 2199.7 1608.18 2181.32 1608.18 2179.67 1639.81 2198.05" fill="#888"/><polygon points="1640.02 2161.29 1671.64 2179.67 1639.81 2198.05 1608.18 2179.67 1640.02 2161.29" fill="#a39f9f"/></g><g style="isolation:isolate"><polygon points="1630.71 2203.31 1630.71 2204.96 1598.88 2223.34 1598.88 2221.69 1630.71 2203.31" fill="#c5c5c5"/><polygon points="1598.88 2221.69 1598.88 2223.34 1567.25 2204.96 1567.24 2203.31 1598.88 2221.69" fill="#888"/><polygon points="1599.08 2184.93 1630.71 2203.31 1598.88 2221.69 1567.24 2203.31 1599.08 2184.93" fill="#a39f9f"/></g><g style="isolation:isolate"><polygon points="1589.78 2226.94 1589.79 2228.59 1557.95 2246.97 1557.94 2245.32 1589.78 2226.94" fill="#c5c5c5"/><polygon points="1557.94 2245.32 1557.95 2246.97 1526.32 2228.59 1526.32 2226.94 1557.94 2245.32" fill="#888"/><polygon points="1558.15 2208.55 1589.78 2226.94 1557.94 2245.32 1526.32 2226.94 1558.15 2208.55" fill="#a39f9f"/></g><g style="isolation:isolate"><polygon points="1548.85 2250.57 1548.86 2252.22 1517.02 2270.6 1517.02 2268.95 1548.85 2250.57" fill="#c5c5c5"/><polygon points="1517.02 2268.95 1517.02 2270.6 1485.39 2252.22 1485.39 2250.57 1517.02 2268.95" fill="#888"/><polygon points="1517.22 2232.19 1548.85 2250.57 1517.02 2268.95 1485.39 2250.57 1517.22 2232.19" fill="#a39f9f"/></g><g style="isolation:isolate"><polygon points="1507.92 2274.2 1507.92 2275.85 1476.09 2294.23 1476.08 2292.58 1507.92 2274.2" fill="#c5c5c5"/><polygon points="1476.08 2292.58 1476.09 2294.23 1444.46 2275.85 1444.45 2274.2 1476.08 2292.58" fill="#888"/><polygon points="1476.29 2255.82 1507.92 2274.2 1476.08 2292.58 1444.45 2274.2 1476.29 2255.82" fill="#a39f9f"/></g><g style="isolation:isolate"><polygon points="1466.99 2297.83 1466.99 2299.48 1435.16 2317.86 1435.15 2316.21 1466.99 2297.83" fill="#c5c5c5"/><polygon points="1435.15 2316.21 1435.16 2317.86 1403.53 2299.48 1403.52 2297.83 1435.15 2316.21" fill="#888"/><polygon points="1435.36 2279.45 1466.99 2297.83 1435.15 2316.21 1403.52 2297.83 1435.36 2279.45" fill="#a39f9f"/></g><g style="isolation:isolate"><polygon points="1960.75 2063.17 1960.76 2064.82 1928.92 2083.2 1928.92 2081.55 1960.75 2063.17" fill="#c5c5c5"/><polygon points="1928.92 2081.55 1928.92 2083.2 1897.29 2064.82 1897.29 2063.17 1928.92 2081.55" fill="#888"/><polygon points="1929.12 2044.79 1960.75 2063.17 1928.92 2081.55 1897.29 2063.17 1929.12 2044.79" fill="#a39f9f"/></g><g style="isolation:isolate"><polygon points="1919.82 2086.81 1919.82 2088.46 1887.98 2106.84 1887.98 2105.19 1919.82 2086.81" fill="#c5c5c5"/><polygon points="1887.98 2105.19 1887.98 2106.84 1856.36 2088.46 1856.35 2086.81 1887.98 2105.19" fill="#888"/><polygon points="1888.19 2068.43 1919.82 2086.81 1887.98 2105.19 1856.35 2086.81 1888.19 2068.43" fill="#a39f9f"/></g><g style="isolation:isolate"><polygon points="1878.89 2110.44 1878.89 2112.09 1847.06 2130.47 1847.05 2128.82 1878.89 2110.44" fill="#c5c5c5"/><polygon points="1847.05 2128.82 1847.06 2130.47 1815.43 2112.09 1815.42 2110.44 1847.05 2128.82" fill="#888"/><polygon points="1847.26 2092.06 1878.89 2110.44 1847.05 2128.82 1815.42 2110.44 1847.26 2092.06" fill="#a39f9f"/></g><g style="isolation:isolate"><polygon points="1837.96 2134.07 1837.96 2135.72 1806.13 2154.1 1806.12 2152.45 1837.96 2134.07" fill="#c5c5c5"/><polygon points="1806.12 2152.45 1806.13 2154.1 1774.5 2135.72 1774.49 2134.07 1806.12 2152.45" fill="#888"/><polygon points="1806.33 2115.69 1837.96 2134.07 1806.12 2152.45 1774.49 2134.07 1806.33 2115.69" fill="#a39f9f"/></g><g style="isolation:isolate"><polygon points="1797.02 2157.7 1797.03 2159.35 1765.19 2177.73 1765.19 2176.08 1797.02 2157.7" fill="#c5c5c5"/><polygon points="1765.19 2176.08 1765.19 2177.73 1733.56 2159.35 1733.56 2157.7 1765.19 2176.08" fill="#888"/><polygon points="1765.39 2139.32 1797.02 2157.7 1765.19 2176.08 1733.56 2157.7 1765.39 2139.32" fill="#a39f9f"/></g><g style="isolation:isolate"><polygon points="1756.1 2181.33 1756.1 2182.98 1724.26 2201.36 1724.26 2199.71 1756.1 2181.33" fill="#c5c5c5"/><polygon points="1724.26 2199.71 1724.26 2201.36 1692.63 2182.98 1692.63 2181.33 1724.26 2199.71" fill="#888"/><polygon points="1724.46 2162.95 1756.1 2181.33 1724.26 2199.71 1692.63 2181.33 1724.46 2162.95" fill="#a39f9f"/></g><g style="isolation:isolate"><polygon points="1715.16 2204.96 1715.17 2206.61 1683.33 2224.99 1683.33 2223.34 1715.16 2204.96" fill="#c5c5c5"/><polygon points="1683.33 2223.34 1683.33 2224.99 1651.7 2206.61 1651.7 2204.96 1683.33 2223.34" fill="#888"/><polygon points="1683.54 2186.58 1715.16 2204.96 1683.33 2223.34 1651.7 2204.96 1683.54 2186.58" fill="#a39f9f"/></g><g style="isolation:isolate"><polygon points="1674.23 2228.6 1674.23 2230.25 1642.4 2248.63 1642.39 2246.98 1674.23 2228.6" fill="#c5c5c5"/><polygon points="1642.39 2246.98 1642.4 2248.63 1610.77 2230.25 1610.77 2228.6 1642.39 2246.98" fill="#888"/><polygon points="1642.6 2210.22 1674.23 2228.6 1642.39 2246.98 1610.77 2228.6 1642.6 2210.22" fill="#a39f9f"/></g><g style="isolation:isolate"><polygon points="1633.3 2252.23 1633.31 2253.88 1601.47 2272.26 1601.47 2270.61 1633.3 2252.23" fill="#c5c5c5"/><polygon points="1601.47 2270.61 1601.47 2272.26 1569.84 2253.88 1569.84 2252.23 1601.47 2270.61" fill="#888"/><polygon points="1601.67 2233.85 1633.3 2252.23 1601.47 2270.61 1569.84 2252.23 1601.67 2233.85" fill="#a39f9f"/></g><g style="isolation:isolate"><polygon points="1592.37 2275.86 1592.38 2277.51 1560.54 2295.89 1560.54 2294.24 1592.37 2275.86" fill="#c5c5c5"/><polygon points="1560.54 2294.24 1560.54 2295.89 1528.91 2277.51 1528.91 2275.86 1560.54 2294.24" fill="#888"/><polygon points="1560.74 2257.48 1592.37 2275.86 1560.54 2294.24 1528.91 2275.86 1560.74 2257.48" fill="#a39f9f"/></g><g style="isolation:isolate"><polygon points="1551.44 2299.49 1551.44 2301.14 1519.61 2319.52 1519.6 2317.87 1551.44 2299.49" fill="#c5c5c5"/><polygon points="1519.6 2317.87 1519.61 2319.52 1487.98 2301.14 1487.97 2299.49 1519.6 2317.87" fill="#888"/><polygon points="1519.81 2281.11 1551.44 2299.49 1519.6 2317.87 1487.97 2299.49 1519.81 2281.11" fill="#a39f9f"/></g><g style="isolation:isolate"><polygon points="1510.51 2323.12 1510.51 2324.77 1478.68 2343.15 1478.67 2341.5 1510.51 2323.12" fill="#c5c5c5"/><polygon points="1478.67 2341.5 1478.68 2343.15 1447.05 2324.77 1447.04 2323.12 1478.67 2341.5" fill="#888"/><polygon points="1478.88 2304.74 1510.51 2323.12 1478.67 2341.5 1447.04 2323.12 1478.88 2304.74" fill="#a39f9f"/></g><g style="isolation:isolate"><polygon points="2004.27 2088.47 2004.28 2090.12 1972.44 2108.5 1972.44 2106.85 2004.27 2088.47" fill="#c5c5c5"/><polygon points="1972.44 2106.85 1972.44 2108.5 1940.81 2090.11 1940.81 2088.47 1972.44 2106.85" fill="#888"/><polygon points="1972.64 2070.08 2004.27 2088.47 1972.44 2106.85 1940.81 2088.47 1972.64 2070.08" fill="#a39f9f"/></g><g style="isolation:isolate"><polygon points="1963.34 2112.1 1963.34 2113.75 1931.51 2132.13 1931.5 2130.48 1963.34 2112.1" fill="#c5c5c5"/><polygon points="1931.5 2130.48 1931.51 2132.13 1899.88 2113.75 1899.87 2112.1 1931.5 2130.48" fill="#888"/><polygon points="1931.71 2093.72 1963.34 2112.1 1931.5 2130.48 1899.87 2112.1 1931.71 2093.72" fill="#a39f9f"/></g><g style="isolation:isolate"><polygon points="1922.41 2135.73 1922.41 2137.38 1890.58 2155.76 1890.57 2154.11 1922.41 2135.73" fill="#c5c5c5"/><polygon points="1890.57 2154.11 1890.58 2155.76 1858.95 2137.38 1858.94 2135.73 1890.57 2154.11" fill="#888"/><polygon points="1890.78 2117.35 1922.41 2135.73 1890.57 2154.11 1858.94 2135.73 1890.78 2117.35" fill="#a39f9f"/></g><g style="isolation:isolate"><polygon points="1881.48 2159.36 1881.48 2161.01 1849.65 2179.39 1849.64 2177.74 1881.48 2159.36" fill="#c5c5c5"/><polygon points="1849.64 2177.74 1849.65 2179.39 1818.02 2161.01 1818.01 2159.36 1849.64 2177.74" fill="#888"/><polygon points="1849.85 2140.98 1881.48 2159.36 1849.64 2177.74 1818.01 2159.36 1849.85 2140.98" fill="#a39f9f"/></g><g style="isolation:isolate"><polygon points="1840.54 2182.99 1840.55 2184.64 1808.71 2203.02 1808.71 2201.37 1840.54 2182.99" fill="#c5c5c5"/><polygon points="1808.71 2201.37 1808.71 2203.02 1777.08 2184.64 1777.08 2182.99 1808.71 2201.37" fill="#888"/><polygon points="1808.91 2164.61 1840.54 2182.99 1808.71 2201.37 1777.08 2182.99 1808.91 2164.61" fill="#a39f9f"/></g><g style="isolation:isolate"><polygon points="1799.61 2206.62 1799.62 2208.28 1767.78 2226.66 1767.78 2225 1799.61 2206.62" fill="#c5c5c5"/><polygon points="1767.78 2225 1767.78 2226.66 1736.15 2208.28 1736.15 2206.62 1767.78 2225" fill="#888"/><polygon points="1767.99 2188.24 1799.61 2206.62 1767.78 2225 1736.15 2206.62 1767.99 2188.24" fill="#a39f9f"/></g><g style="isolation:isolate"><polygon points="1758.69 2230.25 1758.69 2231.91 1726.86 2250.28 1726.85 2248.64 1758.69 2230.25" fill="#c5c5c5"/><polygon points="1726.85 2248.64 1726.86 2250.28 1695.22 2231.9 1695.22 2230.25 1726.85 2248.64" fill="#888"/><polygon points="1727.06 2211.87 1758.69 2230.25 1726.85 2248.64 1695.22 2230.25 1727.06 2211.87" fill="#a39f9f"/></g><g style="isolation:isolate"><polygon points="1717.75 2253.89 1717.76 2255.54 1685.92 2273.92 1685.91 2272.27 1717.75 2253.89" fill="#c5c5c5"/><polygon points="1685.91 2272.27 1685.92 2273.92 1654.29 2255.54 1654.29 2253.89 1685.91 2272.27" fill="#888"/><polygon points="1686.12 2235.51 1717.75 2253.89 1685.91 2272.27 1654.29 2253.89 1686.12 2235.51" fill="#a39f9f"/></g><g style="isolation:isolate"><polygon points="1676.82 2277.52 1676.83 2279.17 1644.99 2297.55 1644.98 2295.9 1676.82 2277.52" fill="#c5c5c5"/><polygon points="1644.98 2295.9 1644.99 2297.55 1613.36 2279.17 1613.36 2277.52 1644.98 2295.9" fill="#888"/><polygon points="1645.19 2259.14 1676.82 2277.52 1644.98 2295.9 1613.36 2277.52 1645.19 2259.14" fill="#a39f9f"/></g><g style="isolation:isolate"><polygon points="1635.89 2301.15 1635.9 2302.8 1604.06 2321.18 1604.06 2319.53 1635.89 2301.15" fill="#c5c5c5"/><polygon points="1604.06 2319.53 1604.06 2321.18 1572.43 2302.8 1572.43 2301.15 1604.06 2319.53" fill="#888"/><polygon points="1604.26 2282.77 1635.89 2301.15 1604.06 2319.53 1572.43 2301.15 1604.26 2282.77" fill="#a39f9f"/></g><g style="isolation:isolate"><polygon points="1594.96 2324.78 1594.96 2326.43 1563.13 2344.81 1563.12 2343.16 1594.96 2324.78" fill="#c5c5c5"/><polygon points="1563.12 2343.16 1563.13 2344.81 1531.5 2326.43 1531.49 2324.78 1563.12 2343.16" fill="#888"/><polygon points="1563.33 2306.4 1594.96 2324.78 1563.12 2343.16 1531.49 2324.78 1563.33 2306.4" fill="#a39f9f"/></g><g style="isolation:isolate"><polygon points="1554.03 2348.41 1554.03 2350.06 1522.2 2368.44 1522.19 2366.79 1554.03 2348.41" fill="#c5c5c5"/><polygon points="1522.19 2366.79 1522.2 2368.44 1490.57 2350.06 1490.56 2348.41 1522.19 2366.79" fill="#888"/><polygon points="1522.4 2330.03 1554.03 2348.41 1522.19 2366.79 1490.56 2348.41 1522.4 2330.03" fill="#a39f9f"/></g><path d="M1980.87,2255l-182.36,105.29a3.21,3.21,0,0,1-2.87.12l-114.24-66c-.74-.42-.64-1.17.2-1.66L1864,2187.53a3.18,3.18,0,0,1,2.87-.12l114.24,66C1981.82,2253.79,1981.72,2254.53,1980.87,2255Z" fill="#a39f9f"/><path d="M2204.4,2167c0,.11,0,.22,0,.33s0,.24,0,.36-.05.2-.08.3a3.37,3.37,0,0,1-.09.34c0,.1-.08.19-.12.29a3.73,3.73,0,0,1-.16.35l-.15.25a4.81,4.81,0,0,1-.27.41l-.18.22a4.87,4.87,0,0,1-.43.49l-.25.24a3.47,3.47,0,0,1-.29.25l-.36.29-.34.24-.6.38h0l-547.5,316.1,0,16.5,547.34-316h0l.16-.09h0l.07,0,.18-.1h0l.13-.07.21-.15.35-.24.35-.28c.11-.09.21-.17.3-.26l.13-.11.12-.13c.15-.16.3-.32.43-.48a1.49,1.49,0,0,0,.12-.14.47.47,0,0,0,.06-.09c.1-.13.18-.27.27-.41a1.88,1.88,0,0,1,.12-.18s0,0,0-.06.11-.24.16-.36.07-.15.1-.23,0,0,0,0l.09-.34c0-.09.05-.18.07-.26v0c0-.12,0-.24,0-.35a2.28,2.28,0,0,0,0-.26v-.08Z" fill="url(#g)"/><path d="M1350.31,1865c0-5.33,3.74-11.8,8.35-14.47s8.36-.5,8.36,4.83-3.74,11.8-8.36,14.46S1350.31,1870.37,1350.31,1865Z" fill="#ff473d"/><path d="M1377.67,1849.24c0-5.32,3.74-11.8,8.36-14.46s8.35-.51,8.35,4.82-3.74,11.8-8.35,14.47S1377.67,1854.57,1377.67,1849.24Z" fill="#64a1e0"/><path d="M1404.88,1833.53c0-5.32,3.74-11.8,8.35-14.46s8.36-.51,8.36,4.82-3.74,11.8-8.36,14.47S1404.88,1838.86,1404.88,1833.53Z" fill="#95c464"/><path d="M1729.4,1658.56l-287.55,166c-2.51,1.44-4.56-.11-4.56-3.45v-9.88c0-3.34,2-7.26,4.56-8.71l287.55-166c2.5-1.45,4.56.1,4.56,3.45v9.87C1734,1653.2,1731.9,1657.12,1729.4,1658.56Z" fill="#6fbbc4"/><polygon points="1481.18 1992.87 1473.24 1997.45 1473.24 1944.81 1481.18 1940.23 1481.18 1992.87" fill="#71bdc4"/><polygon points="1493.22 1985.92 1485.28 1990.51 1485.28 1956.2 1493.22 1951.61 1493.22 1985.92" fill="#586172"/><polygon points="1505.26 1978.97 1497.32 1983.56 1497.32 1882.56 1505.26 1877.97 1505.26 1978.97" fill="#eb8658"/><polygon points="1529.21 1965.14 1521.27 1969.73 1521.27 1883.81 1529.21 1879.23 1529.21 1965.14" fill="#71bdc4"/><polygon points="1541.25 1958.19 1533.31 1962.78 1533.31 1884.55 1541.25 1879.97 1541.25 1958.19" fill="#586172"/><polygon points="1553.28 1951.24 1545.34 1955.83 1545.34 1854.83 1553.28 1850.25 1553.28 1951.24" fill="#eb8658"/><polygon points="1577.62 1937.2 1569.68 1941.78 1569.68 1855.87 1577.62 1851.28 1577.62 1937.2" fill="#71bdc4"/><polygon points="1589.65 1930.25 1581.71 1934.83 1581.71 1860.74 1589.65 1856.16 1589.65 1930.25" fill="#586172"/><polygon points="1601.69 1923.3 1593.75 1927.88 1593.75 1888.77 1601.69 1884.18 1601.69 1923.3" fill="#eb8658"/><polygon points="1625.9 1909.32 1617.96 1913.91 1617.96 1798.86 1625.9 1794.28 1625.9 1909.32" fill="#71bdc4"/><polygon points="1637.93 1902.37 1629.99 1906.96 1629.99 1832.87 1637.93 1828.29 1637.93 1902.37" fill="#586172"/><polygon points="1649.97 1895.42 1642.03 1900.01 1642.03 1754.99 1649.97 1750.41 1649.97 1895.42" fill="#eb8658"/><polygon points="1674.3 1881.37 1666.36 1885.96 1666.36 1805.83 1674.3 1801.25 1674.3 1881.37" fill="#71bdc4"/><polygon points="1686.34 1874.42 1678.4 1879.01 1678.4 1827.41 1686.34 1822.83 1686.34 1874.42" fill="#586172"/><polygon points="1698.38 1867.47 1690.44 1872.06 1690.44 1771.06 1698.38 1766.47 1698.38 1867.47" fill="#eb8658"/><polygon points="1719.04 1855.55 1711.1 1860.13 1711.1 1745.08 1719.04 1740.5 1719.04 1855.55" fill="#71bdc4"/><polygon points="1727.11 1850.89 1723.14 1853.18 1723.14 1702.25 1727.11 1699.96 1727.11 1850.89" fill="#586172"/><polygon points="1743.12 1841.64 1735.18 1846.23 1735.18 1701.21 1743.12 1696.63 1743.12 1841.64" fill="#eb8658"/><polygon points="1743.12 1868.11 1473.24 2023.92 1473.24 2015.64 1743.12 1859.83 1743.12 1868.11" fill="#898989"/><polygon points="1743.12 1877.87 1473.24 2033.68 1473.24 2029.54 1743.12 1873.73 1743.12 1877.87" fill="#898989"/><polygon points="1743.12 1887.44 1473.24 2043.25 1473.24 2039.11 1743.12 1883.3 1743.12 1887.44" fill="#898989"/><polygon points="1605.11 1976.68 1473.24 2052.81 1473.24 2048.67 1605.11 1972.54 1605.11 1976.68" fill="#898989"/><path d="M1388.52,1911.47c-27,15.58-48.85,53.46-48.85,84.6l48.85-28.2Z" fill="#dc4511"/><path d="M1339.67,1996.07c0,31.16,21.88,43.78,48.85,28.21v-56.41Z" fill="#e95a59"/><path d="M1388.52,1911.47v56.4l48.85-28.2C1437.37,1908.53,1415.5,1895.9,1388.52,1911.47Z" fill="#e95a59"/><path d="M1388.52,2024.28c27-15.58,48.85-53.46,48.85-84.61l-48.85,28.2Z" fill="#e95a59"/><path d="M1388.52,1945.32c-10.79,6.23-19.53,21.38-19.53,33.83l19.53-11.28Z" fill="#fcd558"/><path d="M1388.52,1932.91v35l30.28-17.48C1418.8,1931.09,1405.25,1923.26,1388.52,1932.91Z" fill="#a3d2d1"/><path d="M1388.52,1967.87V2010c20.16-11.64,36.5-39.94,36.5-63.22Z" fill="#fcd558"/><path d="M1405.06,2038.3a13.83,13.83,0,0,1-6.24,10.81L1378.23,2061c-3.45,2-6.24.38-6.24-3.6h0a13.76,13.76,0,0,1,6.24-10.81l20.59-11.89c3.44-2,6.24-.38,6.24,3.61Z" fill="#e95a59"/><path d="M1405.06,2064.38a13.81,13.81,0,0,1-6.24,10.81l-20.59,11.89c-3.45,2-6.25.38-6.24-3.6h0a13.79,13.79,0,0,1,6.24-10.81l20.59-11.89c3.44-2,6.24-.38,6.24,3.6Z" fill="#a3d2d1"/><path d="M1405.06,2090.47a13.81,13.81,0,0,1-6.24,10.81l-20.59,11.89c-3.45,2-6.24.38-6.25-3.6h0a13.84,13.84,0,0,1,6.25-10.82l20.59-11.88c3.44-2,6.24-.38,6.24,3.6Z" fill="#fcd558"/><polygon points="2059.8 2765.18 2296.84 2824.3 2293.15 2798.4 2059.8 2765.18" fill="#0c203d"/><path d="M1788.28,2459l-14-10.91s-18.48-43.73-25.36-51.32-17.9-10.88-16.36,3.56,10,28.69,10,28.69-50-26.22-64.94-32.64-49.28-5.93,15.2,27.38c0,0-45.12-22.28-50.49-11.45s45,24,45,24-44.25-15-50.48-6.06c-3.76,5.37,45.88,22.41,45.88,22.41s-49.6-12.22-45-5,40.46,25,64.82,28.22a199.61,199.61,0,0,1,34.45,7.84l21.7,14Z" fill="#ffb187"/><path d="M2203.34,2231.69,2186.9,2225s-47.13,5.75-57.14,3.56-18.34-10.11-5.06-16,29.88-5.57,29.88-5.57-47.65-30.34-60.64-40.08-29.68-39.78,31.32-.44c0,0-41.79-28-35.07-38.09s43.24,27.09,43.24,27.09-35-30.92-30.39-40.76c2.78-5.93,42.27,28.63,42.27,28.63s-35.28-36.92-26.7-36.5,40.54,22.22,60.95,35.91a155.79,155.79,0,0,1,26.62,23.25l16.05,20.85Z" fill="#ffb187"/><path d="M2521.27,2254.84s-258.19-59.76-302-71.85l-15.94,48.7s205.73,129.21,279.51,140S2521.27,2254.84,2521.27,2254.84Z" fill="#d32d2d"/><polygon points="2372.2 2159.86 2388.02 2271.92 2504.85 2237.05 2464.83 2116.98 2372.2 2159.86" fill="#ffb288"/><path d="M2398.73,2672.85s-213-25.64-252.41-25.64-78.88,31.56-92.68,67.05,155.78,605.38,155.78,605.38l65.08-17.74s-41.42-394.39-45.36-435.8,303.68,144,303.68,144Z" fill="#163160"/><path d="M2351.4,2243s-69,51.27-82.82,63.1-33.52,138-21.69,211,55.21,313.53,57.18,374.66c0,0,232.69,106.49,378.62-19.72,0,0-2-431.85-29.58-536.36s-59.16-136.06-86.77-142S2444.08,2203.53,2351.4,2243Z" fill="#d32d2d"/><path d="M2273.52,2301.54s-47.67,34.77-96.31,58.43-167.36,142.44-201.54,158.22c-60.47-19.72-199.06-68.24-199.06-68.24s-23.66,31.9-30.23,39.78c0,0,176.09,109.42,231.31,121.25s241.17-74.36,295.6-109.78C2345.33,2454.32,2353.71,2414.6,2273.52,2301.54Z" fill="#d32d2d"/><path d="M2682.69,2872l-313.53-24.19c-117.58-44.65-346.53-88.29-420-109.91-100.57-29.58-165.64,69-165.64,94.66s222.82,638.9,222.82,638.9l71-27.6s-73.14-433.88-87-463.46l447.47,158c147.55,58,225.81-75.12,245.52-126.39S2682.69,2872,2682.69,2872Z" fill="#163160"/><path d="M2341.79,2037.24s-11.71,52.69-12.77,66.53,27.68,70.26,39.39,75.58c11.17,0,57.48-13.31,72.38-27.15s-4.26-138.91-4.26-138.91L2390.76,2001Z" fill="#ffb288"/><path d="M2333.28,2047.88s25-3.72,33.53-8c0,0-10.65,46.84-3.19,57.48,0,0,9-20.76,19.16-7.45s-1.6,28.21-1.6,28.21,17,36.73,35.13,38.32,65.46,1.6,65.46,1.6-2.66-26.08,2.13-37.26,33-80.9,3.73-113.9-60.68-38.32-97.93-27.15S2315.18,2016.48,2333.28,2047.88Z" fill="#6d3131"/><path d="M2076.44,3450.85s-90.91,53.74-100.06,58.32c0,0,.13,11.42,20.14,6.1,18.06-4.8,44.91-15.25,44.91-15.25l20.17-12.19,3.65,6c6.29-2.77,18.77-11.28,18.77-15.94C2084,3471.9,2076.44,3450.85,2076.44,3450.85Z" fill="#163160"/><path d="M2278.37,3319.93s-103.66,20.9-113.81,22.22c0,0-3.63,10.81,17,12.34,18.67,1.39,47.5.32,47.5.32l23.09-4.88,1.47,6.87c6.86-.55,21.45-4.48,23-8.88C2278.62,3342.25,2278.37,3319.93,2278.37,3319.93Z" fill="#163160"/><path d="M2594.21,3678.43a33.41,33.41,0,1,1,33.4,33.41A33.4,33.4,0,0,1,2594.21,3678.43Z" fill="#151e28"/><path d="M2249.88,3449.12a33.41,33.41,0,1,1,33.41,33.41A33.4,33.4,0,0,1,2249.88,3449.12Z" fill="#151e28"/><path d="M2874.15,3466.48a33.41,33.41,0,1,1,33.41,33.41A33.4,33.4,0,0,1,2874.15,3466.48Z" fill="#151e28"/><polygon points="2942.61 2435.09 2546.51 2663.78 2583.26 2685 2979.37 2456.31 2942.61 2435.09" fill="#efba41"/><path d="M2284.77,3454.71a12.57,12.57,0,0,1-11.37-17.91c.5-1.08,12.77-26.73,42.36-45.12,27.33-17,226.23-79.6,248.82-86.68a12.57,12.57,0,0,1,7.52,24c-87.49,27.43-224.43,72.45-243.07,84-23,14.27-32.78,34.24-32.87,34.44A12.58,12.58,0,0,1,2284.77,3454.71Z" fill="#47576e"/><path d="M2626.93,3675.09a12.57,12.57,0,0,1-12.57-12.5c-.94-182.75-31.29-343.32-31.6-344.92a12.57,12.57,0,1,1,24.69-4.73c.31,1.62,31.09,164.35,32.05,349.52a12.56,12.56,0,0,1-12.5,12.63Z" fill="#47576e"/><path d="M2922.1,3454.53l-25.13-.68v.26c0-1.17-1-28.8-48-52.33-54.52-27.26-235.76-88.42-237.58-89a12.57,12.57,0,1,1,8-23.82c7.52,2.53,184.73,62.33,240.81,90.36C2922.56,3410.49,2922.15,3452.75,2922.1,3454.53Z" fill="#47576e"/><polygon points="2619.59 3280.82 2158.51 3014.62 2222.41 2977.73 2683.49 3243.93 2619.59 3280.82" fill="#fedd8b"/><polygon points="2158.51 3014.62 2158.51 3103.6 2570.7 3350.82 2570.7 3250.27 2158.51 3014.62" fill="#efba41"/><polygon points="2546.51 2663.78 2466.83 2985.45 2518.91 3332.67 2566.89 3359.53 2513.12 2985.45 2583.26 2685 2546.51 2663.78" fill="#ffd765"/><polygon points="2979.37 2456.31 2908.57 2798.33 2966.44 3132.05 2566.89 3359.53 2513.12 2985.45 2583.26 2685 2979.37 2456.31" fill="#ed8843"/><path d="M1644.13,527.15c.74-.36,1.47-.69,2.2-1l.82-.35c.66-.27,1.32-.52,2-.75l.63-.23c.85-.29,1.7-.55,2.54-.78.56-.16,1.11-.29,1.66-.41.17,0,.33-.09.5-.12.71-.16,1.42-.29,2.12-.39a31.23,31.23,0,0,1,3.14-.32l.63,0c.93,0,1.85,0,2.75,0l.42,0c.74,0,1.46.14,2.18.25l.66.11c.81.15,1.6.33,2.37.55h0c.75.22,1.48.49,2.2.78l.61.26c.59.26,1.18.55,1.75.86l.57.3-54.74-31.82-.26-.14c-.1-.06-.21-.1-.31-.15-.57-.31-1.15-.6-1.75-.86-.12-.05-.22-.12-.33-.16l-.28-.1a22.9,22.9,0,0,0-2.2-.78h0c-.77-.22-1.56-.4-2.37-.55-.1,0-.19-.05-.29-.06l-.37-.05c-.71-.11-1.44-.2-2.18-.25l-.31,0h-.11c-.9-.05-1.81-.05-2.75,0h-.28l-.35,0a31.23,31.23,0,0,0-3.14.32h0c-.69.11-1.39.24-2.09.39-.17,0-.33.08-.5.12-.52.11-1,.23-1.56.37l-.1,0c-.84.23-1.69.49-2.54.78l-.62.23c-.66.23-1.31.48-2,.75l-.29.11c-.18.08-.35.17-.53.24-.73.32-1.46.65-2.2,1-.28.14-.57.27-.85.42-1,.49-2,1-3,1.59l-176.3,101.79c-1.24.71-2.47,1.49-3.68,2.31l-.64.42c-1.16.79-2.31,1.63-3.45,2.51l-.66.51c-1.16.92-2.31,1.86-3.43,2.85l-.24.21c-1.09,1-2.17,2-3.23,3l-.34.32-.22.23c-.75.75-1.5,1.51-2.23,2.29l-.18.18c-.79.85-1.57,1.71-2.34,2.59l-.18.2-.24.29c-1.2,1.4-2.38,2.82-3.52,4.29l-.09.11-.23.3c-.91,1.19-1.79,2.39-2.66,3.62l-.27.37-.13.18c-.82,1.18-1.62,2.38-2.4,3.59l-.22.33c-.11.17-.21.35-.32.53-.64,1-1.25,2-1.86,3l-.28.47a1.62,1.62,0,0,0-.1.18c-.68,1.16-1.34,2.34-2,3.53l-.16.29c-.11.2-.2.4-.3.59-.5.95-1,1.9-1.45,2.86-.1.2-.21.4-.3.6s-.11.23-.16.34c-.58,1.21-1.14,2.42-1.67,3.64l-.06.14-.18.43c-.46,1.09-.91,2.18-1.34,3.28-.07.18-.15.36-.22.55s-.1.28-.16.42c-.49,1.31-1,2.62-1.4,3.93l0,.12-.09.31c-.44,1.34-.85,2.67-1.22,4-.05.17-.11.34-.16.5a2.44,2.44,0,0,1-.06.26c-.43,1.58-.81,3.15-1.16,4.72,0,.15-.07.29-.1.43s-.07.38-.11.58c-.13.61-.25,1.23-.36,1.84-.07.43-.15.85-.22,1.27-.11.64-.2,1.28-.29,1.91,0,.31-.1.61-.14.91,0,.07,0,.14,0,.21-.17,1.35-.3,2.69-.4,4,0,.29,0,.58-.05.86-.08,1.37-.13,2.72-.13,4.06l.58,202.6c0,14.83,5.32,25.29,13.81,30.22l54.74,31.81c-8.49-4.93-13.77-15.39-13.82-30.22l-.57-202.6c0-1.34,0-2.69.13-4.05,0-.29,0-.58,0-.87.1-1.33.23-2.67.4-4,0-.37.1-.75.16-1.12.09-.63.18-1.27.28-1.9.08-.43.15-.86.23-1.29q.16-.91.36-1.83c.06-.33.14-.67.21-1,.35-1.57.73-3.14,1.16-4.72.07-.25.14-.5.22-.76.37-1.33.78-2.67,1.22-4,.05-.14.09-.28.13-.42.44-1.32.92-2.63,1.41-3.94.13-.32.25-.65.38-1,.43-1.1.87-2.19,1.34-3.28l.24-.57c.53-1.22,1.09-2.43,1.67-3.64.15-.31.3-.62.46-.93.47-1,1-1.92,1.45-2.87.15-.29.3-.59.46-.88.63-1.19,1.29-2.36,2-3.53.12-.22.26-.43.38-.65.61-1,1.22-2,1.86-3l.54-.86c.78-1.21,1.58-2.41,2.4-3.59l.4-.55c.86-1.23,1.75-2.43,2.66-3.62.11-.13.21-.27.31-.41,1.15-1.47,2.32-2.89,3.53-4.29l.42-.49c.77-.88,1.55-1.74,2.34-2.59l.17-.18c.74-.78,1.49-1.54,2.24-2.29.18-.19.37-.36.56-.55,1.06-1,2.14-2,3.23-3l.23-.21c1.13-1,2.28-1.93,3.44-2.85l.66-.51c1.14-.88,2.29-1.72,3.45-2.51l.63-.42c1.22-.81,2.45-1.6,3.69-2.31l176.3-101.79c1-.58,2-1.1,3-1.59C1643.56,527.42,1643.85,527.29,1644.13,527.15Z" fill="#5353c9"/><path d="M1640.31,529.16c26-15,47.31-2.85,47.39,27l.57,202.6c.09,29.84-21.09,66.53-47.08,81.53l-176.3,101.79c-26,15-47.29,2.85-47.38-27l-.57-202.6c-.08-29.84,21.1-66.53,47.07-81.52Z" fill="#8183f7"/><path d="M1554.67,636.52c-48.67,28.1-88.13,96.44-88.13,152.63s39.46,79,88.13,50.88,88.12-96.43,88.12-152.63l-88.12,50.88Z" fill="#fff"/><path d="M1568.83,609.26V711L1657,660.14C1657,603.94,1617.5,581.16,1568.83,609.26Z" fill="#fff"/><path d="M281.93,922.7c.74-.35,1.47-.69,2.2-1l.82-.35c.66-.27,1.32-.52,2-.75l.63-.24c.85-.29,1.7-.55,2.53-.78.57-.15,1.12-.28,1.67-.41l.49-.12q1.08-.22,2.13-.39c1.06-.16,2.11-.25,3.13-.31l.64,0c.93,0,1.85,0,2.75,0l.42,0c.74.06,1.46.15,2.18.26l.66.11a23.31,23.31,0,0,1,2.37.55h0c.75.22,1.48.49,2.2.78l.6.25c.6.27,1.19.55,1.76.86l.57.3L257,889.68l-.26-.15c-.1-.06-.21-.09-.31-.15-.57-.31-1.16-.6-1.76-.86l-.32-.16-.28-.09c-.72-.29-1.45-.56-2.2-.78h0a22.7,22.7,0,0,0-2.37-.55l-.29-.07-.37,0c-.72-.11-1.44-.2-2.18-.26-.11,0-.21,0-.32,0h-.1c-.9-.06-1.82-.06-2.75,0h-.28l-.35,0a31.17,31.17,0,0,0-3.14.31h0c-.69.11-1.39.24-2.09.39l-.5.12c-.52.12-1,.24-1.56.38l-.1,0c-.84.23-1.69.49-2.54.78l-.62.23c-.66.24-1.32.48-2,.76l-.3.11-.52.24c-.73.31-1.46.65-2.2,1l-.86.42c-1,.5-2,1-3,1.59L47.07,994.69c-1.24.72-2.47,1.5-3.69,2.31l-.63.43c-1.16.79-2.31,1.63-3.45,2.5l-.66.52c-1.16.91-2.31,1.85-3.44,2.84l-.23.22c-1.09,1-2.17,2-3.23,3l-.34.31-.22.23c-.76.75-1.5,1.51-2.23,2.29l-.18.19c-.8.84-1.57,1.71-2.34,2.59l-.18.2a3.36,3.36,0,0,0-.24.29c-1.21,1.39-2.38,2.82-3.53,4.29l-.08.1-.23.31c-.91,1.18-1.8,2.39-2.66,3.61-.09.13-.19.25-.27.37a2.14,2.14,0,0,0-.13.19c-.82,1.17-1.62,2.37-2.4,3.58-.07.12-.15.22-.22.34l-.33.52c-.63,1-1.25,2-1.85,3l-.28.47a1.62,1.62,0,0,0-.1.18c-.68,1.17-1.34,2.35-2,3.54l-.17.29-.29.58c-.5,1-1,1.91-1.45,2.87-.1.2-.21.39-.3.59s-.11.23-.16.34c-.58,1.21-1.14,2.43-1.67,3.65l-.06.13-.18.44c-.47,1.09-.91,2.18-1.34,3.27-.07.19-.15.37-.22.55s-.1.29-.16.43c-.49,1.31-1,2.62-1.41,3.93a.49.49,0,0,1,0,.11l-.09.32c-.44,1.33-.85,2.66-1.22,4-.05.17-.11.33-.16.5l-.06.25c-.43,1.58-.82,3.16-1.16,4.73,0,.14-.07.28-.1.43s-.07.38-.11.57c-.13.62-.25,1.23-.36,1.84-.08.43-.16.86-.23,1.28-.1.64-.19,1.27-.28,1.91-.05.3-.1.6-.14.9,0,.08,0,.15,0,.22-.17,1.35-.3,2.69-.4,4,0,.29,0,.57,0,.86-.08,1.36-.13,2.72-.13,4.06l.57,202.6c.05,14.82,5.33,25.28,13.82,30.22l54.74,31.81c-8.49-4.94-13.77-15.4-13.82-30.22L54.74,1108c0-1.34,0-2.7.13-4.06,0-.29,0-.57.05-.86.1-1.33.23-2.67.4-4,0-.37.1-.75.16-1.13.09-.63.18-1.26.28-1.9.07-.43.15-.85.23-1.28.11-.61.23-1.22.35-1.83.07-.34.15-.68.22-1,.34-1.57.73-3.15,1.16-4.73l.21-.75c.38-1.34.79-2.67,1.23-4,0-.14.09-.28.13-.42.44-1.31.92-2.62,1.41-3.93l.38-1c.43-1.09.87-2.18,1.34-3.27l.24-.57c.53-1.22,1.09-2.44,1.67-3.64l.45-.94c.47-1,1-1.92,1.46-2.86.15-.3.3-.59.46-.88.63-1.19,1.29-2.37,2-3.53l.39-.66c.6-1,1.22-2,1.85-3,.18-.28.36-.57.55-.85.78-1.22,1.58-2.41,2.4-3.59l.4-.56c.86-1.22,1.75-2.43,2.66-3.61l.31-.41c1.15-1.47,2.32-2.9,3.53-4.29.14-.16.27-.33.42-.49.77-.88,1.54-1.75,2.34-2.59l.17-.19c.74-.78,1.48-1.54,2.24-2.29l.56-.54q1.59-1.56,3.23-3l.23-.22c1.13-1,2.28-1.93,3.44-2.84l.66-.52c1.14-.87,2.29-1.71,3.45-2.51l.63-.42c1.22-.81,2.44-1.59,3.69-2.31l176.3-101.79c1-.57,2-1.09,3-1.59Z" fill="#94159e"/><path d="M278.11,924.71c26-15,47.3-2.85,47.39,27l.57,202.61c.09,29.84-21.09,66.53-47.08,81.53l-176.3,101.79c-26,15-47.29,2.84-47.38-27L54.74,1108c-.09-29.84,21.1-66.53,47.07-81.53Z" fill="#ce29d3"/><path d="M245.51,1101.22c0,15.88-5.56,33.47-14.54,49.09l24.76,28.41c20.76-32,34.24-69.5,34.24-103.17,0-25.18-7.69-43.64-20.1-54.94l-32.23,54.29C242.56,1081,245.51,1089.84,245.51,1101.22Z" fill="#fff"/><path d="M224,1066.27l32.16-54.18c-11.59-4.62-25.33-5.12-40.71-.06l-4.87,54.57A31.73,31.73,0,0,1,224,1066.27Z" fill="#fff"/><path d="M195.49,1187.85c-27.62,16-50,3-50-28.87a88.09,88.09,0,0,1,4.71-26.88l-36-9.65c-8.13,20.82-13.13,42.2-13.13,62.2,0,60.25,42.29,84.67,94.47,54.54,15.92-9.19,30.68-22.68,43.84-38.3l-24.78-28.43A85.8,85.8,0,0,1,195.49,1187.85Z" fill="#fff"/><path d="M190.93,1075.51l4.88-54.65c-.1.06-.21.08-.32.15-27.74,16-52.44,44.33-69.73,76.3l36.13,9.67C169.71,1094.22,179.78,1083.13,190.93,1075.51Z" fill="#fff"/><path d="M2107.25,505.88c.74-.36,1.47-.69,2.2-1l.82-.35c.66-.27,1.32-.52,2-.75l.63-.23c.85-.29,1.7-.55,2.53-.78.56-.16,1.12-.29,1.67-.41l.49-.12q1.08-.24,2.13-.39a31,31,0,0,1,3.13-.32l.64,0c.93,0,1.85,0,2.75,0l.42,0c.74.05,1.46.14,2.18.25l.66.11c.8.15,1.6.33,2.37.55h0c.75.22,1.48.49,2.2.78l.6.26c.6.26,1.19.55,1.76.86l.57.29-54.74-31.81-.26-.15-.31-.14a19.08,19.08,0,0,0-1.76-.86c-.11-.05-.21-.12-.32-.16l-.28-.1c-.72-.29-1.45-.56-2.2-.78h0c-.77-.22-1.57-.4-2.37-.55-.1,0-.19-.05-.29-.06l-.37-.05c-.72-.11-1.44-.2-2.18-.25l-.32,0h-.1c-.9-.05-1.82-.05-2.75,0h-.28c-.12,0-.24,0-.35,0a31.23,31.23,0,0,0-3.14.32h0c-.69.11-1.39.23-2.09.39-.17,0-.34.08-.5.12-.52.11-1,.23-1.56.37l-.1,0c-.84.23-1.69.49-2.54.78l-.62.23q-1,.35-2,.75l-.3.11-.52.24c-.73.31-1.46.65-2.2,1l-.86.42c-1,.49-2,1-3,1.59l-176.3,101.79c-1.24.71-2.47,1.49-3.69,2.31l-.63.42c-1.17.79-2.31,1.63-3.45,2.51l-.66.51c-1.16.92-2.31,1.86-3.44,2.85l-.23.21c-1.09,1-2.17,2-3.23,3l-.34.32a2.39,2.39,0,0,0-.22.23c-.76.75-1.5,1.51-2.24,2.29l-.17.18c-.8.85-1.57,1.71-2.34,2.59l-.18.2c-.09.09-.16.2-.24.29-1.21,1.4-2.38,2.82-3.53,4.29a.39.39,0,0,1-.08.1l-.23.31c-.91,1.19-1.8,2.39-2.66,3.62-.09.12-.19.24-.27.36l-.13.19c-.82,1.18-1.62,2.38-2.4,3.59l-.22.33c-.12.17-.22.35-.33.53-.63,1-1.25,2-1.85,3l-.28.47a1.62,1.62,0,0,0-.1.18c-.68,1.16-1.34,2.34-2,3.53l-.17.29-.29.59c-.5.95-1,1.9-1.46,2.86-.09.2-.2.4-.29.6s-.11.23-.16.34c-.58,1.21-1.14,2.42-1.67,3.64l-.06.14-.18.43c-.47,1.09-.91,2.18-1.34,3.28-.07.18-.15.36-.22.55s-.1.28-.16.42c-.49,1.31-1,2.62-1.41,3.93a.56.56,0,0,1,0,.12l-.09.31c-.44,1.33-.85,2.67-1.23,4,0,.17-.1.34-.15.5l-.06.26c-.43,1.57-.82,3.15-1.16,4.72,0,.15-.07.29-.1.43s-.07.38-.11.58c-.13.61-.25,1.23-.36,1.84-.08.42-.16.85-.23,1.27-.1.64-.19,1.28-.28,1.91,0,.3-.1.61-.14.91,0,.07,0,.14,0,.21-.17,1.35-.3,2.69-.4,4,0,.29,0,.58,0,.86-.08,1.37-.13,2.72-.13,4.06l.57,202.6c0,14.83,5.33,25.29,13.82,30.22L1894.45,924c-8.49-4.93-13.78-15.39-13.82-30.22l-.57-202.6c0-1.34,0-2.69.13-4.05,0-.29,0-.58,0-.87.1-1.33.23-2.67.4-4,0-.37.1-.75.15-1.12.09-.64.19-1.27.29-1.9.07-.43.15-.86.23-1.29.11-.61.23-1.22.35-1.83.07-.33.15-.67.22-1,.34-1.57.73-3.15,1.16-4.72l.21-.76c.38-1.33.79-2.67,1.23-4,0-.13.08-.27.13-.41.44-1.32.92-2.63,1.41-3.94.13-.32.25-.65.38-1,.43-1.1.87-2.19,1.34-3.28l.24-.57c.53-1.22,1.09-2.43,1.67-3.64l.45-.94c.47-1,1-1.91,1.46-2.86.15-.29.3-.59.46-.88.63-1.19,1.29-2.37,2-3.53l.39-.65c.6-1,1.22-2,1.85-3,.18-.29.36-.58.55-.86.78-1.21,1.58-2.41,2.4-3.59l.39-.55c.87-1.23,1.76-2.43,2.67-3.62.11-.13.21-.27.31-.41,1.14-1.47,2.32-2.89,3.53-4.29.14-.16.27-.33.42-.49.76-.88,1.54-1.74,2.33-2.59l.18-.18c.74-.78,1.48-1.54,2.24-2.29.18-.19.37-.36.56-.55,1.06-1,2.13-2,3.23-3l.23-.21c1.13-1,2.28-1.93,3.44-2.85l.66-.51c1.14-.88,2.28-1.72,3.45-2.51l.63-.42c1.22-.81,2.44-1.6,3.69-2.31l176.3-101.79c1-.58,2-1.1,3-1.59Z" fill="#e57f23"/><path d="M2103.43,507.89c26-15,47.3-2.85,47.39,27l.57,202.6c.09,29.84-21.1,66.53-47.08,81.53L1928,920.8c-26,15-47.29,2.84-47.38-27l-.57-202.6c-.09-29.84,21.1-66.53,47.07-81.52Z" fill="#fcc454"/><path d="M2022.76,813.71c-55.65,32.13-100.92,6-100.92-58.26s45.27-142.67,100.92-174.8v21.29c-45.48,26.26-82.48,90.34-82.48,142.86s37,73.88,82.48,47.62,82.47-90.35,82.47-142.86l18.45-10.65C2123.68,703.17,2078.4,781.58,2022.76,813.71Z" fill="#fff"/><path d="M2022.76,771.12v-21.3c25.13-14.51,45.59-49.93,45.59-79s-20.46-40.84-45.59-26.32-45.6,49.93-45.6,79l-18.44,10.65c0-40.77,28.73-90.52,64-110.91s64-3.8,64,37S2058.06,750.73,2022.76,771.12Z" fill="#fff"/><path d="M710.68,1156.53c23.77-13.72,43.26-2.61,43.34,24.68l.53,185.29c.07,27.29-19.3,60.85-43.06,74.57l-161.24,93.09c-23.75,13.71-43.25,2.6-43.33-24.69l-.52-185.29c-.08-27.29,19.29-60.85,43-74.56Z" opacity="0.55" fill="url(#h)"/><path d="M572.84,1847.41c23.77-13.72,43.27-2.6,43.34,24.69l.53,185.29c.08,27.29-19.3,60.84-43.06,74.56L412.41,2225c-23.75,13.71-43.25,2.6-43.32-24.69l-.53-185.29c-.08-27.29,19.3-60.84,43.05-74.56Z" opacity="0.55" fill="url(#i)"/><path d="M1968.19,952.51c23.76-13.72,43.26-2.61,43.34,24.68l.52,185.29c.08,27.29-19.29,60.84-43,74.56l-161.24,93.09c-23.75,13.72-43.25,2.6-43.33-24.69l-.52-185.29c-.08-27.29,19.29-60.84,43-74.55Z" opacity="0.55" fill="url(#j)"/><path d="M1908.86,40c23.76-13.72,43.26-2.6,43.34,24.69l.52,185.29c.08,27.29-19.29,60.84-43.06,74.56L1748.43,417.6c-23.75,13.71-43.25,2.6-43.33-24.69l-.53-185.29c-.07-27.29,19.3-60.84,43-74.56Z" opacity="0.55" fill="url(#k)"/><path d="M347.75,396.12c23.76-13.72,43.26-2.61,43.34,24.68l.52,185.29c.08,27.29-19.29,60.84-43.05,74.56L187.32,773.74c-23.75,13.72-43.25,2.6-43.33-24.69l-.52-185.29c-.08-27.29,19.29-60.84,43-74.55Z" opacity="0.55" fill="url(#l)"/><path d="M1085.7,490.48c23.77-13.72,43.27-2.61,43.34,24.68l.53,185.29c.08,27.29-19.3,60.85-43.06,74.57L925.27,868.11c-23.75,13.71-43.25,2.6-43.32-24.69l-.53-185.29c-.08-27.29,19.3-60.85,43.05-74.56Z" opacity="0.55" fill="url(#m)"/><path d="M274.43,1451.92c.71-.34,1.41-.66,2.11-1l.78-.34c.64-.26,1.26-.49,1.89-.71l.6-.23c.81-.27,1.62-.52,2.42-.74.54-.15,1.07-.28,1.59-.4l.48-.11c.68-.15,1.35-.27,2-.37a28.74,28.74,0,0,1,3-.3l.61,0c.89,0,1.77,0,2.63,0l.4,0c.71,0,1.4.14,2.08.25l.63.1c.77.14,1.53.31,2.27.52l0,0a20.85,20.85,0,0,1,2.1.74l.58.24c.57.26,1.13.53,1.68.83l.54.28-52.32-30.41a2,2,0,0,1-.25-.14l-.29-.14c-.55-.3-1.11-.57-1.68-.82l-.32-.16-.26-.09a22,22,0,0,0-2.11-.74h0c-.74-.22-1.5-.38-2.27-.53l-.28-.06-.35,0c-.68-.11-1.38-.19-2.08-.24l-.31,0h-.09c-.86,0-1.74,0-2.63,0h-.27l-.34,0a28.74,28.74,0,0,0-3,.3h0c-.66.1-1.33.23-2,.37l-.47.12c-.5.11-1,.22-1.49.36l-.1,0q-1.2.33-2.43.75c-.19.06-.4.15-.59.22q-.94.33-1.89.72l-.28.1-.5.23c-.7.3-1.4.62-2.11,1l-.82.4c-.93.48-1.88,1-2.83,1.52l-168.52,97.3c-1.19.69-2.36,1.43-3.52,2.21l-.61.41c-1.11.75-2.21,1.55-3.3,2.39l-.63.5q-1.66,1.3-3.28,2.71l-.23.21c-1,.92-2.07,1.88-3.08,2.87l-.33.31-.21.22c-.72.71-1.43,1.44-2.14,2.19l-.17.17c-.75.81-1.5,1.64-2.23,2.48l-.18.19-.22.28c-1.15,1.33-2.28,2.69-3.37,4.1a.39.39,0,0,0-.08.1c-.08.09-.14.19-.22.29q-1.3,1.7-2.55,3.46l-.26.35a1.77,1.77,0,0,1-.12.17c-.78,1.13-1.55,2.27-2.29,3.43l-.22.32-.3.5c-.61,1-1.2,1.93-1.77,2.9l-.28.45-.09.17c-.65,1.12-1.28,2.24-1.88,3.38-.05.09-.11.18-.16.28s-.19.37-.28.56c-.48.91-.94,1.82-1.39,2.74-.09.19-.2.37-.29.56l-.15.33q-.82,1.74-1.59,3.48l-.06.13-.17.42c-.45,1-.87,2.08-1.28,3.13l-.22.52c0,.14-.09.28-.14.41-.48,1.25-.93,2.5-1.35,3.76,0,0,0,.07,0,.11l-.09.3c-.42,1.27-.81,2.55-1.17,3.82,0,.16-.1.32-.15.48s0,.16,0,.24c-.42,1.51-.78,3-1.11,4.52,0,.14-.07.27-.1.41s-.07.37-.11.55c-.12.59-.23,1.18-.34,1.76-.07.41-.15.82-.22,1.22-.1.61-.18,1.22-.27,1.83,0,.28-.09.57-.13.86,0,.07,0,.14,0,.2-.17,1.29-.29,2.58-.38,3.85,0,.27,0,.55,0,.82-.08,1.3-.13,2.6-.12,3.88l.55,193.66c0,14.17,5.09,24.17,13.2,28.88L71,1851.61c-8.11-4.71-13.16-14.71-13.2-28.88l-.55-193.66c0-1.28,0-2.58.12-3.88,0-.28,0-.55,0-.83.1-1.27.22-2.55.38-3.84l.15-1.07c.09-.61.18-1.21.28-1.82.07-.41.14-.82.22-1.23.1-.58.21-1.16.33-1.75l.21-1c.33-1.51.7-3,1.11-4.52.06-.24.14-.48.2-.72.37-1.28.75-2.56,1.17-3.83,0-.13.09-.27.13-.4.42-1.26.88-2.51,1.35-3.76l.36-.93c.41-1,.84-2.09,1.28-3.13.08-.19.15-.37.23-.55q.76-1.75,1.59-3.48c.15-.3.3-.6.44-.9.45-.91.91-1.83,1.39-2.73.15-.28.29-.57.44-.84.61-1.14,1.23-2.27,1.88-3.38l.37-.62c.58-1,1.17-1.94,1.77-2.9l.52-.82c.75-1.16,1.51-2.3,2.3-3.43.12-.18.25-.35.38-.53.82-1.17,1.67-2.32,2.54-3.45l.3-.4c1.09-1.4,2.22-2.76,3.37-4.1l.4-.47c.74-.84,1.48-1.66,2.24-2.47l.17-.18Q86,1564,87.07,1563l.54-.52q1.52-1.49,3.09-2.88l.22-.2c1.08-.95,2.18-1.85,3.28-2.72l.64-.49c1.08-.84,2.18-1.64,3.29-2.4l.61-.4c1.16-.78,2.33-1.53,3.52-2.21l168.52-97.3c1-.55,1.9-1,2.84-1.52Z" fill="#e57f23"/><path d="M270.78,1453.84c24.84-14.34,45.22-2.72,45.3,25.8l.55,193.66c.08,28.53-20.17,63.6-45,77.94l-168.53,97.3c-24.82,14.33-45.2,2.71-45.28-25.81l-.55-193.66c-.08-28.53,20.17-63.6,45-77.93Z" fill="#fcc454"/><path d="M651.16,697.13c.74-.36,1.47-.7,2.2-1l.82-.35c.66-.27,1.32-.52,2-.75l.63-.23c.85-.3,1.7-.56,2.54-.78.56-.16,1.11-.29,1.66-.42.17,0,.33-.08.5-.12.71-.15,1.42-.28,2.12-.39,1.06-.16,2.11-.25,3.14-.31l.63,0c.93,0,1.85,0,2.75,0l.42,0c.74.05,1.46.14,2.18.25l.66.11c.81.15,1.6.33,2.37.55h0c.75.22,1.48.49,2.2.78l.61.26c.59.26,1.18.54,1.75.85.19.11.38.2.57.3L626.18,664.1l-.26-.15c-.1-.05-.21-.09-.31-.15-.57-.31-1.15-.59-1.75-.86-.12,0-.22-.11-.33-.15l-.28-.1a22.9,22.9,0,0,0-2.2-.78h0a22.7,22.7,0,0,0-2.37-.55l-.29-.07-.37,0c-.71-.11-1.44-.2-2.18-.25l-.31,0h-.11c-.9-.05-1.81-.06-2.75,0h-.28l-.35,0c-1,.06-2.08.15-3.14.31h0c-.69.1-1.39.23-2.09.38-.17,0-.33.09-.5.12-.52.12-1,.24-1.56.38l-.1,0c-.84.23-1.69.49-2.54.79l-.62.23c-.66.23-1.31.48-2,.75l-.3.11-.52.24c-.73.31-1.46.65-2.2,1l-.85.41c-1,.5-2,1-3,1.6L416.3,769.11c-1.24.72-2.47,1.5-3.68,2.31l-.64.43c-1.16.79-2.31,1.63-3.45,2.5l-.66.52c-1.16.91-2.31,1.86-3.43,2.85l-.24.21q-1.63,1.46-3.23,3l-.34.32-.22.23c-.75.74-1.5,1.51-2.23,2.28L398,784c-.79.84-1.57,1.71-2.34,2.59l-.18.2-.24.29q-1.82,2.09-3.52,4.29l-.09.1-.23.31c-.91,1.18-1.79,2.39-2.66,3.62l-.27.36c-.05.06-.08.13-.13.19-.82,1.18-1.62,2.37-2.4,3.59l-.22.33c-.11.17-.21.35-.32.53-.64,1-1.25,2-1.86,3l-.28.46a1.74,1.74,0,0,0-.1.19c-.68,1.16-1.34,2.34-2,3.53l-.16.29c-.11.19-.2.39-.3.59-.5.95-1,1.9-1.45,2.86-.1.2-.21.39-.3.59s-.11.23-.16.35c-.58,1.2-1.14,2.42-1.67,3.64l-.06.14-.18.43c-.46,1.09-.91,2.18-1.34,3.27-.07.19-.15.37-.22.55s-.1.29-.16.43c-.49,1.31-1,2.62-1.4,3.93a1.17,1.17,0,0,1-.05.11l-.09.32c-.44,1.33-.85,2.67-1.22,4-.05.17-.11.33-.16.5a1.83,1.83,0,0,1-.06.25c-.43,1.58-.81,3.16-1.16,4.73,0,.14-.07.29-.1.43s-.07.38-.11.57c-.13.62-.25,1.23-.36,1.85-.07.42-.15.85-.22,1.27-.11.64-.2,1.28-.29,1.91-.05.3-.1.61-.14.91,0,.07,0,.14,0,.21-.17,1.35-.3,2.69-.4,4,0,.29,0,.57-.05.86-.08,1.36-.13,2.72-.13,4.06l.58,202.6c0,14.83,5.32,25.28,13.81,30.22l54.74,31.81c-8.49-4.94-13.77-15.39-13.82-30.22L424,882.45c0-1.34,0-2.69.13-4.06,0-.28,0-.57,0-.86.1-1.33.23-2.67.4-4,.05-.37.1-.75.16-1.12.09-.64.18-1.27.28-1.91.07-.42.15-.85.23-1.28q.16-.91.36-1.83c.06-.34.14-.67.21-1,.34-1.57.73-3.15,1.16-4.72.07-.26.14-.51.22-.76.37-1.34.78-2.67,1.22-4,.05-.14.09-.28.13-.41.44-1.32.92-2.63,1.41-3.94.13-.32.25-.65.38-1,.43-1.1.87-2.19,1.34-3.28l.24-.57c.53-1.22,1.09-2.43,1.67-3.64.15-.32.3-.63.46-.94.47-1,1-1.91,1.45-2.86.15-.3.3-.59.46-.88.63-1.19,1.29-2.37,2-3.53.12-.22.26-.44.38-.65.61-1,1.22-2,1.86-3l.54-.85c.78-1.21,1.58-2.41,2.4-3.59.13-.19.27-.37.4-.55q1.29-1.84,2.66-3.62c.11-.13.21-.27.31-.41,1.15-1.47,2.32-2.9,3.53-4.29l.42-.49c.77-.88,1.54-1.75,2.34-2.59l.17-.18c.74-.78,1.49-1.55,2.24-2.29.18-.19.37-.37.56-.55,1.06-1,2.14-2,3.23-3l.23-.21q1.69-1.49,3.44-2.85l.66-.52c1.14-.87,2.29-1.71,3.45-2.5l.63-.42c1.22-.82,2.45-1.6,3.69-2.31l176.3-101.79c1-.58,2-1.1,3-1.6Z" fill="#1ea58b"/><path d="M647.34,699.14c26-15,47.31-2.86,47.39,27l.57,202.6c.09,29.84-21.09,66.53-47.08,81.53l-176.3,101.79c-26,15-47.29,2.84-47.38-27L424,882.45c-.08-29.84,21.1-66.53,47.07-81.52Z" fill="#27e0c0"/><ellipse cx="590.61" cy="832.61" rx="32.6" ry="18.82" transform="translate(-425.75 927.78) rotate(-60)" fill="#fff"/><path d="M590.61,879.61c-27.25,15.73-49.35,54-49.35,85.47l98.7-57C640,876.63,617.87,863.87,590.61,879.61Z" fill="#fff"/><path d="M492.63,889.18c0-14.71,10.33-32.58,23.06-39.94s23-1.39,23,13.31-10.32,32.58-23,39.94S492.63,903.88,492.63,889.18Z" fill="#fff"/><path d="M515.69,922.87c-27.26,15.73-49.35,54-49.35,85.47l98.7-57C565,919.89,542.94,907.13,515.69,922.87Z" fill="#fff"/><ellipse cx="643.57" cy="917.87" rx="44.7" ry="25.81" transform="translate(-473.12 1016.27) rotate(-60)" fill="#fff"/><path d="M660.71,913.67l-34.28,19.79c-2.35,1.36-4.27-.09-4.27-3.22h0c0-3.14,1.92-6.81,4.27-8.16l34.28-19.79c2.35-1.36,4.27.09,4.27,3.22h0C665,908.64,663.06,912.32,660.71,913.67Z" fill="#27e0c0"/><path d="M648.49,896.42v37.21c0,3.37-2.07,7.31-4.59,8.77l-.69.39c-2.52,1.46-4.58-.1-4.58-3.46V902.12c0-3.37,2.07-7.31,4.59-8.77l.69-.39C646.43,891.5,648.49,893.06,648.49,896.42Z" fill="#27e0c0"/><path d="M1600.08,1177.54c.73-.36,1.47-.69,2.2-1l.82-.36c.66-.27,1.32-.51,2-.75l.63-.23c.85-.29,1.7-.55,2.53-.78.56-.16,1.12-.29,1.67-.41l.49-.12c.72-.16,1.42-.28,2.12-.39a31.53,31.53,0,0,1,3.14-.32l.64,0c.93,0,1.85,0,2.75,0l.42,0c.74.06,1.46.14,2.18.26.22,0,.44.06.66.11a23.28,23.28,0,0,1,2.37.54h0c.75.22,1.48.49,2.2.78l.6.26c.6.26,1.19.55,1.76.86.19.1.38.19.56.3l-54.73-31.81-.27-.15a2.8,2.8,0,0,0-.3-.15c-.57-.31-1.16-.6-1.76-.86l-.32-.16-.28-.1c-.72-.29-1.45-.56-2.2-.78h0c-.77-.22-1.57-.4-2.37-.55-.1,0-.19,0-.29-.06l-.37,0c-.72-.11-1.44-.19-2.18-.25l-.32,0h-.1c-.9,0-1.82,0-2.75,0h-.28l-.36,0a31.53,31.53,0,0,0-3.14.32h0c-.69.11-1.38.24-2.09.39l-.49.12c-.52.12-1,.23-1.56.38l-.11,0c-.83.23-1.68.49-2.53.78l-.63.23c-.65.23-1.31.48-2,.75l-.3.11-.52.24c-.73.32-1.46.65-2.2,1l-.86.42c-1,.49-2,1-3,1.59l-176.3,101.79c-1.25.71-2.47,1.49-3.69,2.31l-.64.42c-1.16.79-2.31,1.63-3.44,2.51l-.66.51c-1.16.92-2.31,1.86-3.44,2.85l-.23.21c-1.1,1-2.17,2-3.23,3l-.34.32-.23.23c-.75.75-1.49,1.51-2.23,2.29l-.18.18c-.79.85-1.57,1.71-2.33,2.59l-.19.2a3.36,3.36,0,0,1-.24.29c-1.2,1.4-2.38,2.82-3.52,4.29l-.08.11-.23.3c-.91,1.19-1.8,2.39-2.67,3.62-.08.12-.18.24-.27.37l-.12.18c-.82,1.18-1.62,2.38-2.4,3.59l-.23.33c-.11.18-.21.36-.32.53-.63,1-1.25,2-1.85,3l-.28.47-.11.18c-.67,1.17-1.33,2.34-2,3.53l-.17.29c-.1.2-.19.4-.3.59-.49,1-1,1.9-1.45,2.87-.09.19-.2.39-.3.59l-.15.34c-.58,1.21-1.14,2.42-1.67,3.64l-.06.14c-.07.14-.12.29-.18.43-.47,1.09-.91,2.18-1.34,3.28-.07.18-.15.36-.22.55s-.1.28-.16.43c-.49,1.3-1,2.61-1.41,3.93,0,0,0,.07,0,.11s-.06.21-.1.31c-.43,1.34-.84,2.67-1.22,4,0,.17-.1.34-.15.51l-.06.25c-.43,1.58-.82,3.15-1.16,4.72,0,.15-.08.29-.11.43s-.07.39-.11.58c-.12.61-.24,1.23-.35,1.84-.08.43-.16.85-.23,1.28-.1.63-.2,1.27-.29,1.91,0,.3-.09.6-.13.9a1.49,1.49,0,0,0,0,.21c-.18,1.35-.3,2.69-.4,4,0,.28,0,.57,0,.85-.08,1.37-.14,2.72-.13,4.06l.57,202.61c0,14.82,5.33,25.28,13.82,30.21l54.74,31.81c-8.49-4.93-13.78-15.39-13.82-30.21l-.57-202.61c0-1.33,0-2.69.13-4,0-.29,0-.58,0-.87.09-1.33.22-2.67.39-4,0-.38.11-.75.16-1.13.09-.63.18-1.27.29-1.9.07-.43.15-.86.23-1.28.11-.61.23-1.23.35-1.84.07-.33.15-.67.22-1,.34-1.57.72-3.14,1.16-4.72l.21-.75c.38-1.34.79-2.68,1.23-4,0-.14.08-.28.13-.42.44-1.32.91-2.63,1.41-3.94.12-.32.25-.64.38-1,.43-1.09.87-2.19,1.34-3.28.08-.19.15-.38.24-.57.53-1.22,1.09-2.43,1.66-3.64l.46-.93c.47-1,1-1.92,1.45-2.87.16-.29.31-.59.46-.88.64-1.19,1.29-2.36,2-3.53l.39-.65c.6-1,1.22-2,1.85-3l.54-.86c.78-1.21,1.58-2.41,2.41-3.59l.39-.55c.87-1.23,1.76-2.43,2.67-3.62l.31-.41c1.14-1.46,2.32-2.89,3.52-4.29l.42-.49c.77-.88,1.55-1.74,2.34-2.59l.18-.18c.74-.78,1.48-1.54,2.24-2.29.18-.19.37-.36.56-.54,1.06-1,2.13-2.05,3.23-3l.23-.21c1.13-1,2.28-1.93,3.44-2.84l.66-.52c1.13-.88,2.28-1.72,3.45-2.51l.63-.42c1.22-.81,2.44-1.59,3.68-2.31l176.31-101.79c1-.58,2-1.1,3-1.59Z" fill="#b71d1d"/><path d="M1596.26,1179.55c26-15,47.3-2.85,47.39,27l.57,202.6c.09,29.84-21.1,66.53-47.08,81.53l-176.3,101.79c-26,15-47.29,2.85-47.38-27l-.57-202.61c-.09-29.84,21.09-66.53,47.06-81.52Z" fill="#e23737"/><path d="M1500.54,1267.62v-19.75l20-11.53v19.75q48.46-20.28,56.08,30.18l-30.42,27.44q-5.7-27.42-25.66-22.5v61.46q61.77-17,60.83,34-3.81,60.38-60.83,99.86v23l-20,11.52v-23q-53.24,24.15-64.62-31.82l30.41-27.44q4.74,39,34.21,26.34v-71.33q-60.82,17.58-58-29.08Q1445.42,1307.13,1500.54,1267.62Zm-1,91.63v-57.06q-25.65,19.21-26.61,45Q1473,1363.64,1499.59,1359.25Zm20.91,29.63v65.84q29.45-20.28,30.41-51.57Q1553.76,1379.56,1520.5,1388.88Z" fill="#fff"/><path d="M1193.89,929.89c.74-.36,1.48-.69,2.2-1l.83-.35c.66-.27,1.31-.52,2-.75l.62-.23c.86-.29,1.7-.55,2.54-.78.56-.16,1.12-.29,1.67-.41l.49-.12c.71-.16,1.42-.29,2.12-.39a31.53,31.53,0,0,1,3.14-.32l.64,0c.93,0,1.85,0,2.75,0l.42,0c.73.05,1.46.14,2.17.25l.66.11c.81.15,1.61.33,2.38.55h0a23.1,23.1,0,0,1,2.21.78l.6.26c.6.26,1.19.55,1.76.86l.56.29-54.74-31.81-.26-.14-.3-.15c-.57-.31-1.16-.6-1.76-.86a3.36,3.36,0,0,0-.33-.16l-.27-.1a23.1,23.1,0,0,0-2.21-.78h0c-.77-.22-1.57-.4-2.38-.55l-.28-.06-.38,0c-.71-.11-1.43-.2-2.17-.25l-.32,0h-.1c-.9-.05-1.82-.05-2.75,0a2.61,2.61,0,0,0-.28,0l-.36,0a31.53,31.53,0,0,0-3.14.32h0c-.69.11-1.38.24-2.09.39l-.49.12c-.52.11-1,.23-1.56.37l-.11,0c-.84.23-1.68.49-2.54.78l-.62.23c-.65.23-1.31.48-2,.75l-.3.11-.52.24c-.73.32-1.47.65-2.2,1l-.86.42c-1,.49-2,1-3,1.59L959,1001.88c-1.24.71-2.46,1.49-3.68,2.31l-.64.42c-1.16.79-2.31,1.63-3.44,2.51l-.66.51c-1.16.92-2.31,1.86-3.44,2.85l-.23.21c-1.1,1-2.17,2-3.23,3l-.34.32-.23.23c-.75.75-1.49,1.51-2.23,2.29l-.18.18c-.79.85-1.57,1.71-2.34,2.59l-.18.2-.24.29c-1.2,1.4-2.38,2.82-3.52,4.29l-.08.1-.23.31c-.91,1.19-1.8,2.39-2.67,3.62l-.27.36-.12.19c-.83,1.18-1.62,2.38-2.41,3.59l-.22.33c-.11.17-.21.35-.32.53-.63,1-1.25,2-1.85,3-.09.16-.19.31-.29.47a1.62,1.62,0,0,1-.1.18c-.68,1.16-1.33,2.34-2,3.53l-.16.29c-.1.2-.19.4-.3.59-.49,1-1,1.9-1.45,2.86l-.3.6c-.05.11-.1.23-.16.34-.57,1.21-1.13,2.42-1.66,3.64l-.07.14c-.06.14-.11.29-.17.43-.47,1.09-.91,2.18-1.34,3.28-.07.18-.16.36-.23.55l-.15.42q-.75,2-1.41,3.93l0,.12c0,.1-.06.21-.1.31-.44,1.34-.84,2.67-1.22,4,0,.17-.11.34-.15.5l-.06.26c-.44,1.57-.82,3.15-1.16,4.72,0,.15-.08.29-.11.43s-.07.38-.11.58c-.12.61-.24,1.23-.35,1.84-.08.42-.16.85-.23,1.27-.11.64-.2,1.28-.29,1.91,0,.31-.1.61-.13.91l0,.21q-.25,2-.39,4c0,.29,0,.58,0,.86-.08,1.37-.14,2.72-.13,4.06l.57,202.6c0,14.83,5.33,25.29,13.81,30.22L981.09,1348c-8.49-4.93-13.77-15.39-13.81-30.22l-.58-202.6c0-1.34,0-2.69.13-4l.06-.87q.14-2,.39-4c.05-.37.11-.75.16-1.12.09-.63.18-1.27.29-1.9.07-.43.15-.86.23-1.29.11-.61.22-1.22.35-1.83.07-.33.14-.67.22-1,.34-1.57.72-3.14,1.16-4.72.06-.25.14-.5.21-.76.38-1.33.78-2.67,1.22-4l.14-.42c.44-1.32.91-2.63,1.41-3.94.12-.32.25-.65.38-1,.42-1.1.87-2.19,1.34-3.28.08-.19.15-.38.24-.57.53-1.22,1.09-2.43,1.66-3.64.15-.31.31-.62.46-.94.47-1,1-1.91,1.45-2.86.16-.29.31-.59.46-.88.64-1.19,1.29-2.36,2-3.53l.39-.65c.6-1,1.22-2,1.85-3l.54-.86c.78-1.21,1.58-2.41,2.41-3.59l.39-.55c.87-1.23,1.76-2.43,2.67-3.62l.31-.41c1.14-1.47,2.32-2.89,3.52-4.29l.42-.49c.77-.88,1.55-1.74,2.34-2.59l.18-.18c.73-.78,1.48-1.54,2.23-2.29.19-.19.38-.36.56-.55,1.07-1,2.14-2,3.23-3l.24-.21c1.13-1,2.28-1.93,3.43-2.85l.66-.51c1.14-.88,2.29-1.72,3.45-2.51l.64-.42c1.21-.81,2.44-1.6,3.68-2.31L1190.08,931.9c1-.58,2-1.1,3-1.59Z" fill="#b71d1d"/><path d="M1190.08,931.9c26-15,47.3-2.85,47.38,27l.58,202.6c.08,29.84-21.1,66.53-47.08,81.53l-176.31,101.79c-26,15-47.29,2.85-47.37-27l-.58-202.6c-.08-29.84,21.1-66.53,47.07-81.52Z" fill="#e23737"/><polygon points="1196.78 1117.84 1222.3 1079.22 1190.76 1052.48 1095.22 1113.32 1054.9 1077.45 1029.09 1115.82 1079.93 1161.04 1175.76 1100.02 1196.78 1117.84" fill="#fff"/><polygon points="1077.41 1059.3 1014.3 1065.46 1023.14 1138.59 1077.41 1059.3" fill="#fff"/><polygon points="1181.58 1200.42 1211.8 1182.97 1211.8 1118.01 1181.58 1135.46 1181.58 1200.42" fill="#fff"/><polygon points="1129.33 1230.59 1159.55 1213.14 1159.55 1127.39 1129.33 1144.84 1129.33 1230.59" fill="#fff"/><polygon points="1077.07 1260.76 1107.3 1243.31 1107.3 1163.88 1077.07 1181.33 1077.07 1260.76" fill="#fff"/><polygon points="1024.82 1290.92 1055.05 1273.47 1055.05 1153.59 1024.82 1171.04 1024.82 1290.92" fill="#fff"/><path d="M933.88,151.94c.73-.35,1.47-.69,2.19-1l.83-.36c.66-.27,1.32-.51,2-.75l.63-.23c.85-.29,1.69-.55,2.53-.78.56-.15,1.12-.28,1.67-.41l.49-.12c.72-.15,1.42-.28,2.12-.39a31.46,31.46,0,0,1,3.14-.31l.64,0c.93,0,1.85,0,2.75,0l.42,0c.74.06,1.46.14,2.17.26l.66.11a22.89,22.89,0,0,1,2.38.55h0a23,23,0,0,1,2.21.77l.6.26c.6.26,1.19.55,1.76.86.19.1.38.19.56.3l-54.74-31.81-.26-.15a2.8,2.8,0,0,0-.3-.15c-.57-.31-1.16-.6-1.76-.86l-.32-.16-.28-.1c-.72-.29-1.45-.55-2.2-.77h0c-.77-.22-1.57-.39-2.37-.54l-.29-.07-.37,0c-.72-.12-1.44-.2-2.18-.26-.11,0-.21,0-.32,0h-.1c-.9-.05-1.82-.05-2.75,0a2.61,2.61,0,0,1-.28,0l-.36,0a31.46,31.46,0,0,0-3.14.31h0c-.69.11-1.38.24-2.09.39l-.49.12c-.52.12-1,.24-1.56.38l-.11,0c-.83.23-1.68.49-2.53.78l-.63.23c-.65.24-1.31.48-2,.75l-.3.12-.52.24c-.73.31-1.46.64-2.2,1l-.86.42c-1,.5-2,1-3,1.59L699,223.93c-1.24.72-2.46,1.5-3.68,2.31l-.64.42c-1.16.8-2.31,1.63-3.44,2.51l-.66.52c-1.16.91-2.31,1.85-3.44,2.84l-.23.22c-1.1,1-2.17,2-3.23,3l-.34.32c-.08.08-.15.16-.23.23-.75.75-1.49,1.51-2.23,2.29l-.18.19c-.79.84-1.57,1.71-2.34,2.58a1.71,1.71,0,0,1-.18.2c-.08.1-.15.2-.24.3-1.2,1.39-2.38,2.82-3.52,4.29a.39.39,0,0,0-.08.1l-.23.31c-.91,1.18-1.8,2.39-2.67,3.61-.08.13-.18.24-.27.37l-.12.19c-.82,1.17-1.62,2.37-2.4,3.58a4,4,0,0,0-.23.34l-.32.52c-.63,1-1.25,2-1.85,3-.09.16-.19.31-.29.47a1.62,1.62,0,0,1-.1.18c-.67,1.17-1.33,2.35-2,3.53l-.16.3c-.1.19-.19.39-.3.58-.49.95-1,1.91-1.45,2.87-.09.2-.2.39-.3.59l-.15.34c-.58,1.21-1.14,2.42-1.67,3.65l-.06.13c-.07.15-.12.29-.18.44-.47,1.08-.91,2.18-1.34,3.27-.07.18-.15.37-.23.55s-.09.29-.15.43c-.49,1.3-1,2.62-1.41,3.93,0,0,0,.07,0,.11s-.06.21-.1.32c-.43,1.33-.84,2.66-1.22,4,0,.16-.1.33-.15.5l-.06.25c-.44,1.58-.82,3.15-1.16,4.73,0,.14-.08.28-.11.43s-.07.38-.11.57c-.12.62-.24,1.23-.35,1.84-.08.43-.16.85-.23,1.28-.11.64-.2,1.27-.29,1.91,0,.3-.09.6-.13.9a1.49,1.49,0,0,0,0,.21c-.18,1.35-.3,2.7-.4,4,0,.28,0,.57,0,.86-.08,1.36-.14,2.72-.13,4.05l.57,202.61c0,14.82,5.33,25.28,13.82,30.21l54.73,31.81c-8.49-4.93-13.77-15.39-13.81-30.21l-.57-202.6c0-1.34,0-2.7.13-4.06,0-.29,0-.58,0-.86q.14-2,.39-4c0-.38.11-.75.16-1.13.09-.63.18-1.26.29-1.9.07-.43.15-.85.23-1.28.11-.61.23-1.22.35-1.83.07-.34.14-.68.22-1,.34-1.58.72-3.15,1.16-4.73l.21-.75c.38-1.34.79-2.68,1.23-4,0-.14.08-.28.13-.42q.66-2,1.41-3.93c.12-.33.25-.65.38-1,.42-1.09.87-2.18,1.34-3.27.08-.19.15-.38.24-.57.53-1.22,1.09-2.44,1.66-3.65l.46-.93c.47-1,1-1.92,1.45-2.87.16-.29.31-.58.46-.88.64-1.18,1.29-2.36,2-3.53L721,290c.6-1,1.22-2,1.85-3l.54-.85c.78-1.22,1.58-2.42,2.41-3.59l.39-.56c.87-1.22,1.76-2.43,2.67-3.61l.31-.41c1.14-1.47,2.32-2.9,3.52-4.29l.42-.49c.77-.88,1.55-1.75,2.34-2.59l.18-.19c.74-.78,1.48-1.54,2.23-2.29l.56-.54c1.07-1,2.14-2.05,3.24-3l.23-.22c1.13-1,2.28-1.93,3.44-2.84.22-.18.43-.35.66-.52,1.13-.88,2.28-1.71,3.45-2.51l.63-.42c1.22-.81,2.44-1.59,3.68-2.31L930.06,154c1-.57,2-1.09,3-1.59Z" fill="#b71d1d"/><path d="M930.06,154c26-15,47.3-2.85,47.39,27l.57,202.6c.09,29.85-21.1,66.54-47.08,81.54L754.64,566.87c-26,15-47.3,2.84-47.38-27l-.57-202.6c-.09-29.85,21.09-66.54,47.06-81.53Z" fill="#e23737"/><path d="M803.87,451.76l76.24-44c30.24-17.46,55-64.74,55-105.06h0c0-40.32-24.74-59-55-41.57l-76.24,44c-30.25,17.46-55,64.74-55,105.06h0C748.88,450.51,773.62,469.22,803.87,451.76Z" fill="#ffc2c7"/><polygon points="928.63 329.01 948.65 317.46 948.65 272.25 928.63 283.81 928.63 329.01" fill="#ffc2c7"/><polygon points="905.45 260.04 926.67 240.56 917.31 268.45 905.45 260.04" fill="#ffc2c7"/><polygon points="799.27 443.04 793.89 480.9 785.33 478.92 776.52 490.93 776.52 444.17 799.27 443.04" fill="#ffc2c7"/><polygon points="890.92 390.13 885.53 427.99 876.97 426.01 868.16 438.02 868.16 391.26 890.92 390.13" fill="#ffc2c7"/><path d="M760.09,385.18s-14.24-5.31-20.3,5.82,11.94,9.63,9.09-12" fill="none" stroke="#ffc2c7" stroke-linecap="round" stroke-miterlimit="10" stroke-width="4.5"/><path d="M813.32,315.23l57.82-33.38a8.85,8.85,0,0,0,4-6.92h0c0-2.54-1.79-3.57-4-2.31L813.32,306a8.83,8.83,0,0,0-4,6.92h0C809.33,315.46,811.12,316.5,813.32,315.23Z" fill="#843710"/><path d="M909.69,290.86h0a12.22,12.22,0,0,0-5.51,9.54h0c0,3.5,2.48,4.93,5.51,3.18h0a12.23,12.23,0,0,0,5.5-9.54h0C915.19,290.55,912.71,289.11,909.69,290.86Z" fill="#843710"/><path d="M1042.17,1504.07c.74-.36,1.48-.7,2.2-1l.83-.35c.66-.27,1.31-.52,2-.75l.62-.23c.86-.3,1.7-.56,2.54-.79.56-.15,1.11-.28,1.67-.41l.49-.12c.71-.15,1.42-.28,2.12-.39,1.07-.16,2.11-.25,3.14-.31l.64,0c.93,0,1.85,0,2.74,0l.42,0c.74,0,1.47.14,2.18.25l.66.11a23.5,23.5,0,0,1,2.38.55h0a23.1,23.1,0,0,1,2.21.78l.6.26c.6.26,1.19.54,1.76.85.18.11.38.19.56.3L1017.19,1471l-.26-.15-.3-.15c-.57-.31-1.16-.59-1.76-.86-.11,0-.21-.11-.33-.16l-.27-.09a23.1,23.1,0,0,0-2.21-.78h0a22.89,22.89,0,0,0-2.38-.55l-.28-.07-.38,0c-.71-.11-1.43-.2-2.17-.25l-.32,0h-.1a25.17,25.17,0,0,0-2.75,0h-.28l-.36,0c-1,.06-2.07.15-3.14.31h0c-.69.1-1.39.23-2.09.38l-.49.12c-.52.12-1,.24-1.56.38l-.11,0c-.84.23-1.68.49-2.54.79l-.62.23c-.65.23-1.31.48-2,.75l-.3.11-.52.24c-.73.31-1.47.65-2.2,1l-.86.42c-1,.5-2,1-3,1.59L807.31,1576.05c-1.24.72-2.46,1.5-3.68,2.31l-.64.43c-1.16.79-2.31,1.63-3.44,2.5-.23.17-.44.35-.66.52-1.16.91-2.31,1.85-3.44,2.85a2.29,2.29,0,0,0-.23.21c-1.1,1-2.17,2-3.23,3l-.34.32-.23.23c-.75.74-1.49,1.5-2.23,2.28l-.18.19c-.79.84-1.57,1.71-2.34,2.59l-.18.2-.24.29c-1.2,1.39-2.38,2.82-3.52,4.29l-.08.1-.23.31q-1.36,1.77-2.67,3.62l-.27.36-.12.19c-.83,1.18-1.62,2.37-2.41,3.59l-.22.33-.32.52c-.63,1-1.25,2-1.85,3l-.29.46a1.74,1.74,0,0,1-.1.19c-.68,1.16-1.33,2.34-2,3.53l-.16.29-.3.59c-.5.95-1,1.9-1.45,2.86l-.3.59c0,.12-.1.23-.16.35-.57,1.2-1.13,2.42-1.66,3.64l-.07.14c-.06.14-.11.29-.17.43-.47,1.09-.91,2.18-1.34,3.27-.07.19-.16.37-.23.55l-.15.43q-.75,2-1.41,3.93s0,.08,0,.11-.06.21-.1.32c-.44,1.33-.84,2.67-1.22,4-.05.17-.11.33-.15.5s0,.17-.06.25c-.44,1.58-.82,3.16-1.16,4.73,0,.14-.08.29-.11.43s-.07.38-.11.57c-.12.62-.24,1.23-.35,1.85-.08.42-.16.85-.23,1.27-.11.64-.2,1.28-.29,1.91,0,.3-.1.61-.14.91a1.49,1.49,0,0,1,0,.21q-.26,2-.39,4c0,.29,0,.57,0,.86-.08,1.36-.14,2.72-.13,4.06l.57,202.6c0,14.82,5.32,25.28,13.81,30.22l54.74,31.81c-8.49-4.94-13.77-15.39-13.81-30.22l-.58-202.6c0-1.34,0-2.69.13-4.06l.06-.86q.14-2,.39-4c.05-.37.11-.75.16-1.12.09-.64.18-1.27.29-1.91.07-.42.15-.85.23-1.28.11-.61.22-1.22.35-1.83.07-.34.14-.67.22-1,.34-1.57.72-3.15,1.16-4.73.06-.25.14-.5.21-.75.38-1.34.78-2.67,1.22-4,.05-.14.09-.28.14-.41.44-1.32.91-2.63,1.41-3.94.12-.32.25-.65.38-1,.42-1.1.87-2.19,1.34-3.28.08-.19.15-.38.24-.57.53-1.22,1.09-2.44,1.66-3.64.15-.32.31-.63.46-.94.47-1,1-1.91,1.45-2.86l.46-.88c.64-1.19,1.29-2.37,2-3.53l.39-.65c.6-1,1.22-2,1.85-3l.54-.85c.78-1.21,1.58-2.41,2.41-3.59l.39-.55q1.31-1.84,2.67-3.62l.31-.41c1.14-1.47,2.32-2.9,3.52-4.29l.42-.49c.77-.88,1.55-1.75,2.34-2.59l.18-.18c.73-.78,1.48-1.55,2.23-2.3l.56-.54c1.06-1,2.14-2,3.23-3l.24-.21c1.13-1,2.28-1.94,3.43-2.85l.66-.52c1.14-.87,2.29-1.71,3.45-2.5.21-.15.42-.28.64-.42,1.21-.82,2.44-1.6,3.68-2.32l176.31-101.78c1-.58,2-1.1,3-1.6Z" fill="#1ea58b"/><path d="M1038.36,1506.08c26-15,47.3-2.86,47.38,27l.58,202.6c.08,29.84-21.1,66.53-47.08,81.53L862.93,1919c-26,15-47.29,2.84-47.37-27l-.58-202.6c-.08-29.84,21.1-66.53,47.07-81.53Z" fill="#27e0c0"/><path d="M897.22,1694.79c-7.14,21.39-11.2,43.31-11.2,64.09,0,20.18,3.82,37,10.58,50a251,251,0,0,0-20.46,33.44c-16.1-11.27-25.91-32.87-25.91-62.78,0-30.39,10.13-63.88,26.69-94.12A49.34,49.34,0,0,0,897.22,1694.79Z" fill="none" stroke="#fff" stroke-linecap="round" stroke-linejoin="round" stroke-width="8.92"/><path d="M1006.11,1746.79c7-21.24,11-43,11-63.62,0-21.23-4.22-38.78-11.66-52a250.65,250.65,0,0,0,18.89-30.86c16.56,11.12,26.7,32.91,26.7,63.3,0,29.91-9.82,62.84-25.92,92.7A49.46,49.46,0,0,0,1006.11,1746.79Z" fill="none" stroke="#fff" stroke-linecap="round" stroke-linejoin="round" stroke-width="8.92"/><path d="M1005.49,1631.15c7.44,13.24,11.66,30.79,11.66,52,0,20.63-4,42.38-11,63.62-15.89-4-35-.72-55.46,11.12-19.91,11.49-38.44,29.47-54,51-6.76-13-10.58-29.83-10.58-50,0-20.78,4.06-42.7,11.2-64.09,15.48,3.26,33.79-.23,53.43-11.57C970.89,1671.53,989.72,1653.14,1005.49,1631.15Z" fill="none" stroke="#fff" stroke-linecap="round" stroke-linejoin="round" stroke-width="8.92"/><path d="M947.6,1607.46c-21.76,24-39.6,55-50.38,87.33a49.34,49.34,0,0,1-20.3-9.36C894.62,1653.11,919.68,1624.54,947.6,1607.46Z" fill="none" stroke="#fff" stroke-linecap="round" stroke-linejoin="round" stroke-width="8.92"/><path d="M1005.49,1631.15c-10.8-19.25-28.4-29.38-49.8-28.31,27.13-14.11,51.41-14.14,68.69-2.55A250.65,250.65,0,0,1,1005.49,1631.15Z" fill="none" stroke="#fff" stroke-linecap="round" stroke-linejoin="round" stroke-width="8.92"/><path d="M896.6,1808.89c10.71,20.59,28.82,31.47,51,30.31-28.33,15.38-53.71,15.54-71.46,3.13A251,251,0,0,1,896.6,1808.89Z" fill="none" stroke="#fff" stroke-linecap="round" stroke-linejoin="round" stroke-width="8.92"/><path d="M1006.11,1746.79a49.46,49.46,0,0,1,19.05,9.5c-17.33,32.13-41.94,60.71-69.47,78.18C977.51,1810.38,995.37,1779.19,1006.11,1746.79Z" fill="none" stroke="#fff" stroke-linecap="round" stroke-linejoin="round" stroke-width="8.92"/><line x1="951.59" y1="1605.16" x2="951.59" y2="1836.84" fill="none" stroke="#fff" stroke-linecap="round" stroke-linejoin="round" stroke-width="9.28"/><line x1="1051.08" y1="1663.59" x2="850.95" y2="1779.13" fill="none" stroke="#fff" stroke-linecap="round" stroke-linejoin="round" stroke-width="9.28"/><path d="M1431.82,36.22c.73-.36,1.47-.69,2.2-1l.82-.36c.66-.27,1.32-.51,2-.75l.63-.23c.85-.29,1.7-.55,2.53-.78.56-.15,1.12-.28,1.67-.41l.49-.12c.72-.15,1.42-.28,2.12-.39a31.46,31.46,0,0,1,3.14-.31l.64,0c.93,0,1.85,0,2.75,0l.42,0c.74.06,1.46.14,2.18.26l.66.11c.8.15,1.6.32,2.37.54l0,0c.75.22,1.48.48,2.2.77l.6.26c.6.26,1.19.55,1.76.86.19.1.38.19.56.3L1406.84,3.2l-.26-.15c-.1-.06-.21-.1-.31-.15-.57-.31-1.16-.6-1.76-.86l-.32-.16-.28-.1c-.72-.29-1.45-.55-2.2-.77l0,0h0c-.77-.22-1.57-.39-2.37-.54L1399,.38l-.37,0c-.72-.12-1.44-.2-2.18-.26l-.32,0a.34.34,0,0,1-.1,0c-.9,0-1.82,0-2.75,0H1393l-.36,0c-1,.06-2.07.16-3.13.32h0c-.69.11-1.38.24-2.09.39l-.49.12c-.52.12-1,.24-1.56.38l-.11,0c-.83.23-1.68.49-2.53.78l-.63.23c-.65.24-1.31.48-2,.75l-.3.12-.52.24c-.73.31-1.46.64-2.2,1l-.86.42c-1,.49-2,1-3,1.59L1197,108.21c-1.24.72-2.47,1.5-3.69,2.31l-.63.42c-1.17.8-2.32,1.63-3.45,2.51l-.66.52c-1.16.91-2.31,1.85-3.44,2.84l-.23.21c-1.09,1-2.17,2-3.23,3l-.34.32c-.08.08-.15.16-.23.23-.75.75-1.49,1.51-2.23,2.29l-.18.19c-.79.84-1.56,1.71-2.33,2.58l-.18.2c-.09.1-.16.2-.24.3q-1.82,2.08-3.53,4.29l-.08.1-.23.31q-1.36,1.77-2.66,3.61c-.09.13-.19.24-.28.37l-.12.18c-.82,1.18-1.62,2.38-2.4,3.59l-.23.33c-.11.18-.21.36-.32.53-.63,1-1.25,2-1.85,3l-.28.47-.11.18c-.67,1.17-1.33,2.35-2,3.53l-.17.3c-.1.19-.19.39-.29.58-.5,1-1,1.91-1.46,2.87-.09.2-.2.39-.3.59l-.15.34c-.58,1.21-1.14,2.42-1.67,3.65l-.06.13c-.07.15-.12.29-.18.44-.47,1.08-.91,2.17-1.34,3.27l-.22.55c-.06.14-.1.28-.16.43-.49,1.3-1,2.61-1.41,3.93,0,0,0,.07,0,.11l-.09.32c-.44,1.33-.85,2.66-1.23,4,0,.16-.1.33-.15.5l-.06.25c-.43,1.58-.82,3.15-1.16,4.73,0,.14-.07.28-.1.42s-.08.39-.12.58c-.12.62-.24,1.23-.35,1.84-.08.43-.16.85-.23,1.28-.1.64-.2,1.27-.29,1.91,0,.3-.09.6-.13.9,0,.07,0,.14,0,.21-.17,1.35-.3,2.7-.4,4,0,.28,0,.57,0,.86-.08,1.36-.14,2.72-.13,4l.57,202.61c0,14.82,5.33,25.28,13.82,30.21L1219,454.36c-8.49-4.93-13.78-15.39-13.82-30.21l-.57-202.61c0-1.33,0-2.69.13-4,0-.29,0-.58,0-.87.1-1.33.22-2.66.39-4,0-.38.11-.75.16-1.13.09-.63.19-1.26.29-1.9.07-.43.15-.86.23-1.28.11-.61.23-1.22.35-1.84.07-.33.15-.67.22-1,.34-1.58.73-3.15,1.16-4.73l.21-.75c.38-1.34.79-2.68,1.23-4,0-.14.08-.28.13-.42.44-1.31.91-2.63,1.41-3.93.12-.33.25-.65.38-1,.43-1.09.87-2.19,1.34-3.27l.24-.57c.53-1.23,1.09-2.44,1.67-3.65l.45-.93c.47-1,1-1.92,1.45-2.87.16-.29.31-.58.46-.88.64-1.18,1.3-2.36,2-3.53l.39-.65c.6-1,1.22-2,1.85-3l.54-.86c.79-1.21,1.59-2.41,2.41-3.58l.39-.56c.87-1.22,1.76-2.43,2.67-3.61l.31-.41c1.14-1.47,2.32-2.9,3.52-4.29l.42-.5c.77-.87,1.55-1.74,2.34-2.58l.18-.19c.74-.78,1.48-1.54,2.24-2.29l.56-.54c1.06-1,2.13-2,3.23-3,.08-.06.15-.14.23-.21,1.13-1,2.28-1.93,3.44-2.84l.66-.52c1.13-.88,2.28-1.71,3.45-2.51l.63-.42c1.22-.81,2.44-1.59,3.68-2.31L1428,38.23c1-.57,2-1.1,3-1.59Z" fill="#5353c9"/><path d="M1428,38.23c26-15,47.3-2.85,47.39,27l.57,202.6c.09,29.84-21.1,66.53-47.08,81.54l-176.3,101.78c-26,15-47.29,2.85-47.38-27l-.57-202.61c-.09-29.84,21.09-66.53,47.06-81.52Z" fill="#8183f7"/><path d="M1280.74,267.8c0-45.09,31.65-99.92,70.71-122.47s70.7-4.27,70.7,40.83c0,2.71-.12,5.47-.35,8.25l13.69,27.13-4.7,9.48-22,12.73v37.68l-10,14.44L1380,306.66v42L1301.47,394V328.06l-13-27.58.06-.05C1283.58,292.13,1280.74,281.18,1280.74,267.8Z" fill="#fff"/><g style="isolation:isolate"><polygon points="2258.19 1702.04 2262.01 1765.53 2379.72 1838.04 2375.9 1774.55 2258.19 1702.04" fill="#002f70"/><polygon points="2375.9 1774.55 2379.72 1838.04 2469.92 1744.8 2466.11 1681.3 2375.9 1774.55" fill="#00204c"/><path d="M2262.34,1699.57c-1.4.81-2.77,1.63-4.15,2.47l117.71,72.51,90.21-93.25C2403.45,1659.94,2320.49,1666,2262.34,1699.57Z" fill="#003886"/></g><path d="M2208.21,1852.42c0-.22-.05-.44-.08-.67s-.07-.73-.11-1.1c0-.18,0-.37-.05-.55-.06-.56-.09-1.11-.11-1.66l-4.58-76.2c0,.55.08,1.11.12,1.66,0,.18,0,.37,0,.55q.07.55.12,1.11,0,.33.09.66c0,.34.07.66.12,1s.07.46.11.69.09.65.14,1,.08.4.11.61.11.67.18,1l.12.65.21,1c0,.22.09.43.15.65s.14.65.22,1,.11.41.16.62.17.71.28,1a3.44,3.44,0,0,0,.15.55c.12.45.26.91.38,1.37,0,.07,0,.15.07.22.16.53.33,1,.5,1.58a3.9,3.9,0,0,1,.17.48c.12.37.25.73.37,1.1l.25.63q.16.47.36,1a6,6,0,0,0,.27.65c.11.31.24.62.37.93s.18.45.29.67.25.61.38.91.2.45.31.67.27.62.43.92.2.44.3.65.33.64.47,1,.21.39.3.58l.58,1.11c.09.15.16.29.24.45l.85,1.54c.13.21.25.41.37.63s.37.64.59,1,.28.46.41.68.37.61.58.91.29.47.44.69.38.6.58.89l.48.71.59.86c.17.24.35.48.51.72s.4.56.61.84.35.47.54.72.41.55.64.82l.56.73.64.81c.2.24.4.48.59.73s.46.54.67.82a3.9,3.9,0,0,1,.33.38l.89,1c.13.15.28.3.4.46l.93,1,.33.35c.41.46.84.91,1.26,1.37l.28.26c.36.36.7.73,1.05,1.09l.43.43,1,1,.43.42c.45.44.92.87,1.4,1.31l4.58,76.21-1.41-1.33-.42-.41-1-1-.43-.43-1.07-1.09-.26-.27-1.27-1.35c-.13-.13-.21-.24-.33-.36l-.92-1c-.14-.16-.27-.3-.4-.46-.31-.33-.6-.68-.89-1l-.33-.38-.12-.14-.55-.68-.59-.72-.66-.82-.55-.72-.64-.83-.54-.71-.6-.85c-.18-.24-.34-.48-.52-.71s-.38-.57-.59-.86-.33-.47-.48-.71l-.57-.89-.47-.69-.56-.92c-.14-.22-.29-.44-.43-.67s-.37-.65-.56-1l-.37-.62v0c-.3-.5-.57-1-.85-1.51l-.25-.46-.57-1.09c-.09-.21-.21-.4-.3-.6s-.32-.64-.48-1-.21-.43-.3-.65-.29-.61-.43-.92-.19-.44-.3-.67-.27-.61-.41-.92-.19-.44-.28-.66-.24-.62-.38-.93l-.24-.65c-.13-.33-.25-.64-.36-1s-.17-.42-.25-.62,0-.13-.05-.21c-.13-.3-.22-.6-.32-.9s-.12-.31-.16-.47c-.18-.53-.35-1-.51-1.58a1.19,1.19,0,0,1-.07-.23c-.12-.45-.27-.91-.4-1.36,0-.19-.09-.37-.14-.55-.1-.35-.19-.7-.28-1,0-.2-.1-.41-.15-.62a8.46,8.46,0,0,1-.22-1c-.07-.22-.11-.44-.16-.66s-.13-.64-.2-1l-.12-.65c-.07-.34-.12-.66-.18-1s-.08-.42-.11-.62,0-.15,0-.22c0-.25-.07-.49-.1-.74s-.08-.47-.11-.71S2208.27,1852.75,2208.21,1852.42Z" fill="#b72129"/><polygon points="2230 1823.93 2234.58 1900.14 2379.68 1838.05 2375.1 1761.85 2230 1823.93" fill="#5c1115"/><path d="M2257.4,1689.35c-60.86,37.32-71.23,94-27.4,134.58l145.1-62.08Z" fill="#f42c37"/><g mask="url(#n)"><path d="M2259.58,1694.74l107.16,66-135.1,57.81C2197.14,1780.12,2207.4,1729.91,2259.58,1694.74Z" fill="url(#p)" style="mix-blend-mode:overlay"/></g><path d="M2229,1822.45l144.34-61.75,1.73,1.07L2230,1823.84a95.49,95.49,0,0,1-14.25-16.39A97.55,97.55,0,0,0,2229,1822.45Z" fill="url(#q)" style="mix-blend-mode:overlay"/><path d="M2229,1822.45l144.34-61.75,1.73,1.07L2230,1823.84a95.49,95.49,0,0,1-14.25-16.39A97.55,97.55,0,0,0,2229,1822.45Z" fill="url(#q)" style="mix-blend-mode:overlay"/><g style="isolation:isolate"><polygon points="2376.69 1787.25 2379.73 1838.04 2551.62 1829.01 2548.56 1778.22 2376.69 1787.25" fill="#1f629a"/><g style="isolation:isolate"><g clip-path="url(#s)"><g style="isolation:isolate"><path d="M2548.56,1778.22l3.06,50.79c0-.44,0-.89-.07-1.34l-3-50.8c0,.45,0,.89,0,1.35" fill="#174b76"/></g></g></g><path d="M2466.89,1694l-90.2,93.24,171.87-9c-.93-23.88-15-47.19-42.77-65.51A169.73,169.73,0,0,0,2466.89,1694Z" fill="#39a2ea"/></g><g style="isolation:isolate"><polygon points="2377.81 1807.55 2379.65 1838.03 2521.42 1892.46 2519.6 1861.98 2377.81 1807.55" fill="#8c24b5"/><g style="isolation:isolate"><g clip-path="url(#t)"><g style="isolation:isolate"><path d="M2519.6,1862l1.82,30.48c20.81-19.36,31-41.64,30.12-63.47l-1.84-30.47c.87,21.82-9.28,44.1-30.1,63.46" fill="#62197e"/></g></g></g><path d="M2549.7,1798.52l-171.89,9L2519.6,1862C2540.42,1842.62,2550.57,1820.34,2549.7,1798.52Z" fill="#a72bd7"/></g><polygon points="2376.94 1792.16 2379.68 1837.88 2410.8 1940.51 2408.05 1894.79 2376.94 1792.16" fill="#9d8d2a"/><path d="M2410.16,1894.46l.77-.12c.88-.14,1.75-.28,2.61-.44l.46-.07,2.17-.38.9-.17c.58-.1,1.13-.2,1.71-.32l1-.2,1.56-.31,1.07-.22,1.55-.32,1.06-.23,1.55-.34,1-.22,1.49-.35,1.16-.27,1.5-.37,1.14-.27,1.53-.4c.37-.08.74-.18,1.1-.27l1.67-.44.93-.25,2.06-.58.55-.14,2.58-.75.71-.21c.63-.19,1.24-.37,1.86-.57l1-.29,1.58-.5,2.6-.85a1,1,0,0,0,.16-.06q1.41-.45,2.79-.93l.89-.32,1.86-.65,1.07-.39,1.66-.62c.37-.15.76-.28,1.12-.42l1.61-.62,1.13-.44,1.61-.64,1.09-.45,1.65-.68,1-.44,1.8-.78.85-.36,1.31-.6,1.13-.51c.47-.21.89-.42,1.33-.61l1.14-.53,1.32-.63c.37-.18.74-.35,1.1-.54s.9-.43,1.32-.66.73-.35,1.07-.53l1.36-.69,1-.53,1.43-.75.93-.5c.54-.28,1-.58,1.59-.86.25-.14.5-.28.74-.43.78-.42,1.53-.86,2.31-1.3a154.73,154.73,0,0,0,28.21-20.55l2.74,45.72a154,154,0,0,1-28.21,20.54c-.77.45-1.52.89-2.29,1.32l-.76.4c-.52.3-1,.59-1.57.87l-.95.5-1.4.76-1,.51-1.38.71-1.05.53c-.45.21-.89.44-1.34.66l-1.1.52c-.45.23-.89.44-1.33.64l-1.12.53-1.31.61-1.16.52-1.31.59a.52.52,0,0,0-.15.07l-.71.3-1.8.78c-.33.15-.69.29-1,.43-.54.24-1.09.46-1.64.69-.39.14-.75.29-1.1.44l-1.6.65-1.13.43-1.62.62-1.1.42-1.68.63-1.07.38-1.86.67-.89.31-2.79.93-.13,0c-.89.3-1.76.58-2.65.86l-.16,0-1.39.44-1,.31c-.61.18-1.23.36-1.82.55l-.75.22c-.85.24-1.7.5-2.58.74l-.59.16c-.67.2-1.34.39-2,.56-.32.1-.64.18-1,.26l-1.65.43-1.1.28c-.49.13-1,.27-1.53.39l-1.12.28c-.51.13-1,.25-1.52.36l-1.17.27-1.07.26-.41.08-1,.25c-.52.1-1,.22-1.55.33l-1.07.23-1.55.32-1.07.22-1.56.31-1,.2-1.69.32-.92.17-2.16.38-.44.07c-.88.15-1.76.3-2.64.43l-.76.13-1.56.25-.55.08-2.74-45.72Z" fill="#ff8200"/><path d="M2376.94,1792.16l31.12,102.63c29.61-4.43,58.2-13.65,82.44-27.65a154.73,154.73,0,0,0,28.21-20.55Z" fill="#ffe644"/><path d="M2238.51,1903.6l-.6-.51c-.38-.33-.8-.68-1.18-1-.18-.15-.36-.3-.52-.45-.55-.49-1.1-1-1.63-1.47v0l-3.36-55.87c.53.5,1.1,1,1.64,1.48.17.15.33.31.52.46l1.18,1,.6.5,1.25,1c.17.14.33.29.51.42l1.67,1.34.36.27c.59.46,1.21.92,1.81,1.38,0,0,0,0,0,.06l1.84,1.33c.11.08.23.17.36.25.6.44,1.23.87,1.85,1.31l.37.25c.66.45,1.31.9,2,1.34l1.9,1.24.66.41c.43.27.85.54,1.29.8.26.17.52.32.78.47s.78.49,1.19.72l.85.51,1.14.66.89.51,1.13.63c.3.18.61.34.93.51l1.12.61.93.49,1.14.6,1,.49,1.14.57,1,.49,1.14.55,1,.47c.37.19.77.37,1.14.54l1,.46,1.16.54,1,.45,1.18.51,1,.44,1.18.5,1,.43c.38.16.79.33,1.21.48l1,.42,1.22.48,1,.4,1.23.46,1,.39,1.28.46,1,.37c.44.14.87.3,1.31.45s.66.23,1,.34.9.31,1.35.46l1,.32c.46.17,1,.31,1.45.47l.9.28,1.65.51.74.22c.78.24,1.58.47,2.39.7l.35.1,2,.57.88.23c.52.14,1,.29,1.56.42l1,.25c.49.13.95.26,1.45.38l1,.26c.46.1.93.22,1.4.34l1.1.25,1.38.32,1.14.25,1.34.3c.39.08.77.15,1.15.24l1.36.28,1.14.23,1.37.27,1.15.22,1.23.23,2.55.45.54.09c1,.18,2,.34,3.08.51l.85.13,2.31.34,1,.14,2.44.33c.25,0,.47.07.71.09l3.13.39.75.08,2.43.26,1,.1,2.38.23.83.07,3.16.26,1.14.08,1.59.1c.41,0,.79.06,1.2.08s1,.06,1.55.09l1.22.06,1.54.07c.42,0,.84,0,1.26.05s1,0,1.48.06l1.28,0,1.51,0,1.28,0,1.48,0h8.15l1.46,0,1.18,0,1.48,0,1.18,0,1.49,0,1.14,0,1.56-.08,1.1,0,1.63-.1,1-.05,1.92-.13.74,0,2.65-.2.34,0,2.22-.2.88-.08,1.69-.16,1-.1,1.56-.17,1.06-.11c.49-.06,1-.11,1.52-.18l1.06-.12,1.56-.2,1-.13c.58-.07,1.15-.14,1.72-.23l.85-.11,2.51-.36h0l3.36,55.88c-.85.13-1.68.25-2.53.36l-.85.13-1.7.22-1,.13-1.58.19-1,.13-1.54.17-1,.12c-.52.06-1,.12-1.56.16l-1,.11-1.68.16-.9.08c-.74.08-1.47.13-2.21.2l-.34,0h0l-2.62.19-.73,0-1.91.12-1,.06-1.64.1-1.1,0-1.53.07-1.16,0-1.5,0-1.18,0-1.46,0-1.2,0-1.46,0-1.2,0h-5.65l-1.29,0-1.48,0-1.29,0-1.49,0-1.28,0-1.51,0-1.26,0-1.52-.09-1.22-.05-1.56-.1-1.19-.07-1.62-.1-1-.08h-.12l-3.17-.25-.84-.08-2.35-.22-1-.11c-.82-.08-1.63-.16-2.44-.26l-.75-.08-3.11-.38-.73-.09c-.81-.1-1.63-.21-2.43-.33l-1-.14-2.3-.35-.85-.12c-1-.16-2.06-.33-3.07-.51l-.54-.1-2.56-.44-.41-.07-.8-.16-1.18-.22-1.37-.27-1.15-.23-1.34-.29-1.16-.23-1.35-.3-1.11-.25-1.39-.32-1.08-.26c-.46-.1-.93-.22-1.41-.34l-1.06-.25c-.46-.13-1-.25-1.43-.37l-1-.25c-.54-.14-1.06-.28-1.56-.43l-.87-.23c-.68-.18-1.37-.37-2-.58a2.93,2.93,0,0,1-.37-.1c-.8-.22-1.59-.46-2.39-.69l-.72-.22-1.66-.5c-.3-.11-.61-.2-.91-.3l-1.44-.46-1-.32-1.36-.45-1-.36-1.3-.44c-.35-.13-.71-.25-1-.38l-1.28-.45-1-.39L2283,1929l-1-.41-1.21-.47-1-.42-1.21-.49c-.35-.13-.68-.28-1-.42l-1.2-.5c-.34-.14-.68-.3-1-.45s-.8-.33-1.18-.51-.69-.3-1-.45l-1.17-.52-1-.47-1.14-.53c-.33-.17-.67-.32-1-.48s-.77-.37-1.14-.56l-1-.48-1.14-.58c-.31-.16-.64-.32-.94-.49s-.77-.39-1.14-.59l-.94-.49c-.37-.21-.74-.42-1.13-.62l-.92-.51-1.13-.63-.88-.5-1.16-.67-.84-.5c-.4-.23-.79-.47-1.18-.72l-.8-.47-1.26-.8c-.23-.14-.45-.27-.66-.42-.65-.4-1.29-.82-1.92-1.24s-1.34-.89-2-1.33l-.35-.26-1.87-1.3c-.11-.08-.23-.18-.36-.26-.6-.44-1.21-.88-1.8-1.33,0,0-.06,0-.07,0-.62-.45-1.22-.91-1.81-1.38-.13-.09-.24-.19-.36-.27l-1.49-1.18a1.16,1.16,0,0,0-.2-.16,4.76,4.76,0,0,0-.52-.43Z" fill="#bf6200"/><path d="M2231.22,1844.25a123.24,123.24,0,0,0,16,12.46c41.38,27.32,102.75,36.7,160.2,28.09l-31.1-102.63Z" fill="#ff9b33"/><polygon points="924.26 2600.46 1216.65 2770.22 1594.18 2553.46 1301.79 2383.71 924.26 2600.46" fill="#f8f9fa"/><path d="M1452.49,2521.47c1.75.89,3.48,1.82,5.16,2.79a78.59,78.59,0,0,1,21,17.09L1379.74,2569Z" fill="#163160"/><path d="M1372.88,2505.69c28.26-1,57.06,4.25,79.61,15.78L1379.74,2569Z" fill="#f4c41d"/><path d="M1273.89,2552c4.92-10.27,14.36-20,28.38-28,19.68-11.3,44.92-17.4,70.61-18.32l6.86,63.3Z" fill="#00ccab"/><path d="M1273.89,2552l105.85,17-103.13,21.87C1268.68,2578.37,1267.78,2564.75,1273.89,2552Z" fill="#f73c38"/><path d="M1353.22,2630.56c-18.85-2.7-36.7-8.31-51.39-16.84-11.55-6.7-19.93-14.53-25.22-22.86L1379.74,2569Z" fill="#eec926"/><path d="M1440,2622.06c-26,9.84-57.55,12.67-86.74,8.5l26.52-61.57Z" fill="#379af2"/><path d="M1478.63,2541.35c19.87,23.69,12.73,53-21.42,72.62a120.32,120.32,0,0,1-17.25,8.09L1379.74,2569Z" fill="#fb3a3b"/><polygon points="1088.55 2655.55 1107.15 2666.35 1139.69 2647.67 1121.09 2636.87 1088.55 2655.55" fill="#f4c41d"/><polygon points="1060.87 2639.48 1079.47 2650.28 1132.39 2619.9 1113.79 2609.1 1060.87 2639.48" fill="#00ccab"/><polygon points="1033.18 2623.41 1051.79 2634.21 1123.14 2593.25 1104.53 2582.45 1033.18 2623.41" fill="#f73c38"/><polygon points="1005.51 2607.34 1024.11 2618.14 1042.93 2607.34 1024.33 2596.54 1005.51 2607.34" fill="#163160"/><polygon points="1228.66 2630.97 1237.43 2636.06 1241.35 2633.81 1232.58 2628.72 1228.66 2630.97" fill="#969696"/><polygon points="1218.66 2636.71 1227.44 2641.8 1231.35 2639.55 1222.58 2634.46 1218.66 2636.71" fill="#969696"/><polygon points="1208.67 2642.45 1217.44 2647.54 1221.36 2645.29 1212.59 2640.2 1208.67 2642.45" fill="#969696"/><polygon points="1198.67 2648.19 1207.44 2653.28 1211.36 2651.03 1202.59 2645.94 1198.67 2648.19" fill="#969696"/><polygon points="1188.67 2653.93 1197.44 2659.02 1201.37 2656.77 1192.6 2651.68 1188.67 2653.93" fill="#969696"/><polygon points="1178.67 2659.67 1187.45 2664.76 1191.37 2662.51 1182.6 2657.42 1178.67 2659.67" fill="#969696"/><polygon points="1168.68 2665.41 1177.45 2670.5 1181.38 2668.25 1172.61 2663.16 1168.68 2665.41" fill="#969696"/><polygon points="1158.68 2671.15 1167.46 2676.24 1171.37 2673.99 1162.6 2668.9 1158.68 2671.15" fill="#969696"/><polygon points="1148.68 2676.89 1157.46 2681.98 1161.38 2679.73 1152.61 2674.64 1148.68 2676.89" fill="#969696"/><polygon points="992.07 2601.04 1144.39 2689.48 1145.7 2688.73 993.36 2600.29 992.07 2601.04" fill="#163160"/><path d="M1283.79,2450.66l45.24,26.27a5.9,5.9,0,0,0,5.32,0h0c1.47-.85,1.48-2.23,0-3.08l-45.24-26.26a5.89,5.89,0,0,0-5.33,0h0C1282.33,2448.43,1282.32,2449.81,1283.79,2450.66Z" fill="#f42a35"/><path d="M1264.51,2439.47l45.24,26.27a5.92,5.92,0,0,0,5.33,0h0c1.46-.84,1.47-2.22,0-3.07l-45.24-26.26a5.87,5.87,0,0,0-5.32,0h0C1263.05,2437.24,1263.05,2438.62,1264.51,2439.47Z" fill="#119dff"/><path d="M1254.23,2445.38l45.23,26.26a5.92,5.92,0,0,0,5.33,0h0c1.47-.84,1.48-2.23,0-3.07l-45.24-26.27a5.92,5.92,0,0,0-5.33,0h0C1252.78,2443.14,1252.77,2444.53,1254.23,2445.38Z" fill="#119dff"/><path d="M1273.5,2456.57l45.24,26.27a5.9,5.9,0,0,0,5.32,0h0c1.47-.84,1.48-2.22,0-3.07l-45.24-26.27a5.89,5.89,0,0,0-5.33,0h0C1272.05,2454.34,1272,2455.72,1273.5,2456.57Z" fill="#f42a35"/><path d="M1262.54,2466l41.38,24a8.52,8.52,0,0,0,7.68,0h0c2.12-1.21,2.13-3.2,0-4.43l-41.37-24a8.54,8.54,0,0,0-7.69,0h0C1260.44,2462.74,1260.43,2464.74,1262.54,2466Z" fill="#119dff"/><path d="M1241.75,2453.9l10.76,6.24a8.54,8.54,0,0,0,7.69,0h0c2.12-1.21,2.12-3.21,0-4.43l-10.76-6.25a8.54,8.54,0,0,0-7.69,0h0C1239.65,2450.67,1239.64,2452.67,1241.75,2453.9Z" fill="#f42a35"/><path d="M1239.2,2466.42l52.22,30.32a9.32,9.32,0,0,0,8.42,0h0c2.31-1.33,2.33-3.52,0-4.86l-52.23-30.32a9.36,9.36,0,0,0-8.41,0h0C1236.9,2462.89,1236.89,2465.08,1239.2,2466.42Z" fill="#f42a35"/><path d="M1228.77,2460.37h0a6.68,6.68,0,0,0,6,0l2.43-1.4c1.65-.95,1.67-2.5,0-3.46h0a6.63,6.63,0,0,0-6,0l-2.44,1.41C1227.14,2457.86,1227.13,2459.42,1228.77,2460.37Z" fill="#119dff"/><path d="M1224.35,2486.28l44,25.56a5.76,5.76,0,0,0,5.18,0h0c1.43-.82,1.44-2.17,0-3l-44-25.56a5.76,5.76,0,0,0-5.18,0h0C1222.94,2484.11,1222.93,2485.46,1224.35,2486.28Z" fill="#898989"/><path d="M1205.6,2475.4l44,25.55a5.73,5.73,0,0,0,5.18,0h0c1.43-.82,1.44-2.17,0-3l-44-25.56a5.76,5.76,0,0,0-5.18,0h0C1204.18,2473.22,1204.17,2474.57,1205.6,2475.4Z" fill="#898989"/><path d="M1195.59,2481.14l44,25.55a5.75,5.75,0,0,0,5.19,0h0c1.42-.82,1.43-2.16,0-3l-44-25.55a5.75,5.75,0,0,0-5.19,0h0C1194.17,2479,1194.17,2480.32,1195.59,2481.14Z" fill="#898989"/><path d="M1214.35,2492l44,25.55a5.73,5.73,0,0,0,5.18,0h0c1.43-.82,1.43-2.16,0-3l-44-25.55a5.73,5.73,0,0,0-5.18,0h0C1212.93,2489.86,1212.93,2491.2,1214.35,2492Z" fill="#898989"/><path d="M1203.68,2501.17l40.26,23.37a8.26,8.26,0,0,0,7.47,0h0c2.07-1.18,2.08-3.12,0-4.31l-40.25-23.38a8.29,8.29,0,0,0-7.47,0h0C1201.64,2498,1201.63,2500,1203.68,2501.17Z" fill="#898989"/><path d="M1183.46,2489.43l10.47,6.08a8.32,8.32,0,0,0,7.47,0h0c2.07-1.19,2.08-3.13,0-4.32l-10.47-6.08a8.31,8.31,0,0,0-7.48,0h0C1181.41,2486.3,1181.4,2488.24,1183.46,2489.43Z" fill="#898989"/><path d="M1181,2501.61l50.81,29.5a9,9,0,0,0,8.18,0h0c2.27-1.29,2.28-3.42,0-4.72l-50.81-29.5a9.06,9.06,0,0,0-8.19,0h0C1178.74,2498.18,1178.72,2500.31,1181,2501.61Z" fill="#898989"/><path d="M1170.82,2495.73h0a6.47,6.47,0,0,0,5.83,0l2.38-1.36c1.6-.92,1.6-2.43,0-3.36h0a6.47,6.47,0,0,0-5.83,0l-2.36,1.37C1169.24,2493.29,1169.23,2494.8,1170.82,2495.73Z" fill="#898989"/><polygon points="1221.74 2734.66 1228.57 2738.63 1256.81 2722.42 1249.97 2718.46 1221.74 2734.66" fill="#71bdc4"/><polygon points="1211.39 2728.65 1218.22 2732.62 1266.46 2704.92 1259.63 2700.95 1211.39 2728.65" fill="#586172"/><polygon points="1201.04 2722.64 1207.86 2726.61 1255.61 2699.2 1248.78 2695.23 1201.04 2722.64" fill="#eb8658"/><polygon points="1183.26 2712.32 1190.09 2716.28 1250.97 2681.33 1244.14 2677.37 1183.26 2712.32" fill="#71bdc4"/><polygon points="1176.32 2708.29 1179.74 2710.27 1274.16 2656.06 1270.74 2654.08 1176.32 2708.29" fill="#586172"/><polygon points="1162.55 2700.29 1169.38 2704.26 1258.27 2653.22 1251.44 2649.26 1162.55 2700.29" fill="#eb8658"/><path d="M1175.42,2547.84c-2.58,1.49-3.88,3.43-3.91,5.39l-11.58,1.3c-.62-4.13,1.7-8.37,7.18-11.52a34.73,34.73,0,0,1,14.59-4l.22,6.83A17.71,17.71,0,0,0,1175.42,2547.84Z" fill="#f15a23"/><path d="M1187.16,2545.75l-.22-6.82a38.41,38.41,0,0,1,11.45,2.21l-7.52,5.37A19.37,19.37,0,0,0,1187.16,2545.75Z" fill="#576272"/><path d="M1175.37,2558.67c5.17,3,13.56,3,18.75,0a8.57,8.57,0,0,0,3.05-2.77l11.7,1.07a15.07,15.07,0,0,1-6.44,6.53c-9.81,5.63-25.66,5.6-35.42-.06a15.42,15.42,0,0,1-6.08-6l11.59-1.31A9.07,9.07,0,0,0,1175.37,2558.67Z" fill="#6fbbc4"/><path d="M1194.94,2548.42l7.53-5.38.06,0c5.19,3,7.52,7,7.18,10.94l-11.73-1.07A6.3,6.3,0,0,0,1194.94,2548.42Z" fill="#ef8559"/><polygon points="1139.93 2516.97 1170.17 2534.53 1173.09 2532.85 1142.84 2515.29 1139.93 2516.97" fill="#898989"/><polygon points="1121.89 2513.85 1163.8 2538.18 1165.65 2537.11 1123.76 2512.78 1121.89 2513.85" fill="#898989"/><polygon points="1117.07 2516.62 1158.98 2540.95 1160.83 2539.89 1118.93 2515.55 1117.07 2516.62" fill="#898989"/><polygon points="1112.25 2519.39 1154.15 2543.72 1156.01 2542.65 1114.1 2518.33 1112.25 2519.39" fill="#898989"/><polygon points="2011.1 1622.62 2011.1 1880.66 2215.49 1998.66 2215.49 1740.63 2011.1 1622.62" fill="#00a0d4"/><polygon points="2220.86 1994.99 2157.28 2031.7 1952.88 1913.7 2016.47 1876.98 2220.86 1994.99" fill="#f43434"/><polygon points="2016.47 1618.95 2010.48 1622.41 2208.97 1736.95 2157.28 1766.8 1958.78 1652.26 1952.88 1655.66 2157.28 1773.66 2220.86 1736.95 2016.47 1618.95" fill="#00789f"/><polygon points="2220.86 1736.95 2220.86 1994.99 2157.28 2031.7 2157.28 1773.66 2220.86 1736.95" fill="#00506a"/><polygon points="1952.88 1655.66 1952.88 1913.7 2157.28 2031.7 2157.28 1773.66 1952.88 1655.66" fill="#00a0d4"/><path d="M2166.36,1965.36c0-14.49,10.16-32.1,22.71-39.34s22.71-1.37,22.71,13.11-10.17,32.1-22.71,39.34S2166.36,1979.84,2166.36,1965.36Z" fill="#fff"/><polygon points="2011.1 1682.45 2157.28 1766.8 2196.09 1744.39 2011.1 1669.66 2011.1 1682.45" fill="#002835" opacity="0.71"/><path d="M2189.07,1930.35c11.9-6.88,21.66-1.91,22.61,11,.05-.74.1-1.49.1-2.22,0-14.48-10.17-20.35-22.71-13.11s-22.71,24.85-22.71,39.34c0,.73,0,1.42.09,2.11C2167.41,1953.44,2177.15,1937.22,2189.07,1930.35Z" fill="#0b0a20" opacity="0.63"/><polygon points="2124.04 2020.42 2060.45 2057.13 1856.06 1939.13 1919.66 1902.42 2124.04 2020.42" fill="#f43434"/><polygon points="2124.04 1762.39 2060.45 1799.11 1856.06 1681.1 1919.66 1644.39 2124.04 1762.39" fill="#f43434"/><polygon points="1861.8 1677.6 1913.5 1647.76 2112.14 1762.39 2060.45 1792.24 1861.8 1677.6" fill="#fff"/><polygon points="1913.5 1647.76 1909.16 1650.26 2103.49 1762.39 2056.13 1789.74 2060.45 1792.24 2112.14 1762.39 1913.5 1647.76" fill="#701414" opacity="0.39"/><polygon points="1864.43 1676.21 1864.44 1676.19 1864.35 1676.13 1861.8 1677.6 2060.45 1792.24 2062.97 1790.78 1864.43 1676.21" fill="#701414"/><polygon points="2124.04 1762.39 2124.04 2020.42 2060.45 2057.13 2060.45 1799.11 2124.04 1762.39" fill="#b72727"/><polygon points="1856.06 1681.1 1856.06 1939.13 2060.45 2057.13 2060.45 1799.11 1856.06 1681.1" fill="#ed3e3e"/><path d="M2069.53,1990.79c0-14.48,10.17-32.09,22.72-39.33s22.71-1.37,22.71,13.11-10.17,32.1-22.71,39.33S2069.53,2005.27,2069.53,1990.79Z" fill="#fff"/><path d="M2092.25,1955.91c11.9-6.88,21.66-1.91,22.61,11,.06-.74.1-1.49.1-2.21,0-14.49-10.17-20.36-22.71-13.12s-22.72,24.85-22.72,39.34c0,.73,0,1.42.1,2.1C2070.58,1979,2080.34,1962.79,2092.25,1955.91Z" fill="#350606" opacity="0.63"/><g style="isolation:isolate"><polygon points="1079.77 2415.03 1044.42 2394.49 1043.55 2087.54 1078.91 2108.08 1079.77 2415.03" fill="#186065"/><polygon points="1078.91 2108.08 1043.55 2087.54 1079.95 2066.52 1115.31 2087.06 1078.91 2108.08" fill="#238f98"/><polygon points="1115.31 2087.06 1116.18 2394.01 1079.77 2415.03 1078.91 2108.08 1115.31 2087.06" fill="#54e6ea"/></g><g style="isolation:isolate"><polygon points="1029.06 2444.3 993.72 2423.76 992.97 2160.5 1028.32 2181.05 1029.06 2444.3" fill="#186065"/><polygon points="1028.32 2181.05 992.97 2160.5 1029.37 2139.49 1064.72 2160.03 1028.32 2181.05" fill="#238f98"/><polygon points="1064.72 2160.03 1065.47 2423.29 1029.06 2444.3 1028.32 2181.05 1064.72 2160.03" fill="#54e6ea"/></g><g style="isolation:isolate"><polygon points="978.36 2473.59 943 2453.04 942.38 2236.01 977.74 2256.55 978.36 2473.59" fill="#186065"/><polygon points="977.74 2256.55 942.38 2236.01 978.8 2214.99 1014.15 2235.53 977.74 2256.55" fill="#238f98"/><polygon points="1014.15 2235.53 1014.76 2452.56 978.36 2473.59 977.74 2256.55 1014.15 2235.53" fill="#54e6ea"/></g><g style="isolation:isolate"><polygon points="927.65 2502.86 892.3 2482.32 891.75 2292.18 927.11 2312.72 927.65 2502.86" fill="#186065"/><polygon points="927.11 2312.72 891.75 2292.18 928.17 2271.16 963.51 2291.7 927.11 2312.72" fill="#238f98"/><polygon points="963.51 2291.7 964.06 2481.84 927.65 2502.86 927.11 2312.72 963.51 2291.7" fill="#54e6ea"/></g><g style="isolation:isolate"><polygon points="876.94 2532.14 841.59 2511.59 841.18 2368.06 876.53 2388.6 876.94 2532.14" fill="#186065"/><polygon points="876.53 2388.6 841.18 2368.06 877.59 2347.04 912.94 2367.58 876.53 2388.6" fill="#238f98"/><polygon points="912.94 2367.58 913.35 2511.12 876.94 2532.14 876.53 2388.6 912.94 2367.58" fill="#54e6ea"/></g><g style="isolation:isolate"><polygon points="826.23 2561.41 790.88 2540.87 790.6 2443.16 825.96 2463.7 826.23 2561.41" fill="#186065"/><polygon points="825.96 2463.7 790.6 2443.16 827.01 2422.14 862.36 2442.69 825.96 2463.7" fill="#238f98"/><polygon points="862.36 2442.69 862.64 2540.39 826.23 2561.41 825.96 2463.7 862.36 2442.69" fill="#54e6ea"/></g><polygon points="1043.55 2147.73 1035.25 2153.09 1011.58 2171.47 1028.32 2181.05 1061.66 2158.25 1043.55 2147.73" fill="#050c28" opacity="0.28"/><polygon points="992.33 2223.23 984.04 2228.59 962.01 2247.15 977.74 2256.55 1010.45 2233.75 992.33 2223.23" fill="#072526" opacity="0.28"/><path d="M1049.25,2090.85s23.07-9.47,35.58-21.5l15,8.72s-21.41,18.65-31.17,24Z" fill="#050c28" opacity="0.28"/><polygon points="814.5 2433.72 837.54 2428.26 827.01 2422.14 814.5 2433.72" fill="#050c28" opacity="0.28"/><path d="M866.11,2382.55S895,2366,903.47,2362.08l-13.05-7.28Z" fill="#050c28" opacity="0.28"/><polygon points="1151.53 2403.1 1150.66 2150.48 1115.31 2129.94 1078.91 2150.96 1079.11 2211.27 1064.72 2202.91 1028.32 2223.92 1028.54 2286.77 1014.15 2278.41 977.74 2299.43 977.9 2342.93 963.51 2334.58 927.11 2355.6 927.36 2418.84 912.94 2410.46 876.53 2431.48 876.82 2493.97 862.36 2485.57 825.96 2506.59 826.23 2549.96 861.58 2570.5 897.99 2549.48 897.88 2532.85 912.29 2541.22 948.69 2520.2 948.62 2503.59 963 2511.95 999.41 2490.93 999.34 2474.33 1013.7 2482.67 1050.11 2461.65 1050.05 2445.05 1064.41 2453.39 1100.82 2432.38 1100.76 2415.78 1115.12 2424.12 1151.53 2403.1" fill="#d31616" opacity="0.53" style="mix-blend-mode:multiply"/><g style="isolation:isolate"><polygon points="1122.62 2428.46 1087.28 2407.91 1086.41 2155.3 1121.76 2175.84 1122.62 2428.46" fill="#b95804"/><polygon points="1121.76 2175.84 1086.41 2155.3 1122.82 2134.28 1158.16 2154.82 1121.76 2175.84" fill="#f67606"/><polygon points="1158.16 2154.82 1159.04 2407.44 1122.62 2428.46 1121.76 2175.84 1158.16 2154.82" fill="#f6b518"/></g><g style="isolation:isolate"><polygon points="1071.92 2457.73 1036.57 2437.19 1035.83 2228.27 1071.18 2248.81 1071.92 2457.73" fill="#b95804"/><polygon points="1071.18 2248.81 1035.83 2228.27 1072.23 2207.25 1107.59 2227.79 1071.18 2248.81" fill="#f67606"/><polygon points="1107.59 2227.79 1108.33 2436.71 1071.92 2457.73 1071.18 2248.81 1107.59 2227.79" fill="#f6b518"/></g><polygon points="1021.22 2487.01 985.86 2466.47 985.24 2303.77 1020.6 2324.31 1021.22 2487.01" fill="#b95804"/><polygon points="1020.6 2324.31 985.24 2303.77 1021.66 2282.75 1057 2303.29 1020.6 2324.31" fill="#f67606"/><polygon points="1057 2303.29 1057.63 2465.99 1021.22 2487.01 1020.6 2324.31 1057 2303.29" fill="#f6b518"/><g opacity="0.56"><polygon points="1057 2303.29 1057.63 2465.99 1021.22 2487.01 1020.6 2324.31 1057 2303.29" fill="url(#u)"/></g><polygon points="970.51 2516.29 935.15 2495.74 934.61 2359.94 969.97 2380.48 970.51 2516.29" fill="#b95804"/><polygon points="969.97 2380.48 934.61 2359.94 971.03 2338.91 1006.38 2359.46 969.97 2380.48" fill="#f67606"/><polygon points="1006.38 2359.46 1006.91 2495.26 970.51 2516.29 969.97 2380.48 1006.38 2359.46" fill="#f6b518"/><g opacity="0.72"><polygon points="1006.38 2359.46 1006.91 2495.26 970.51 2516.29 969.97 2380.48 1006.38 2359.46" fill="url(#v)"/></g><polygon points="919.79 2545.56 884.44 2525.01 884.04 2435.82 919.39 2456.36 919.79 2545.56" fill="#b95804"/><polygon points="919.39 2456.36 884.04 2435.82 920.45 2414.8 955.8 2435.34 919.39 2456.36" fill="#f67606"/><polygon points="955.8 2435.34 956.2 2524.54 919.79 2545.56 919.39 2456.36 955.8 2435.34" fill="#f6b518"/><g style="mix-blend-mode:color-dodge"><polygon points="955.8 2435.34 956.2 2524.54 919.79 2545.56 919.39 2456.36 955.8 2435.34" fill="url(#w)"/></g><polygon points="869.1 2574.84 833.74 2554.29 833.46 2510.92 868.82 2531.47 869.1 2574.84" fill="#b95804"/><polygon points="868.82 2531.47 833.46 2510.92 869.87 2489.9 905.22 2510.45 868.82 2531.47" fill="#f67606"/><polygon points="905.22 2510.45 905.5 2553.82 869.1 2574.84 868.82 2531.47 905.22 2510.45" fill="#f6b518"/><g style="mix-blend-mode:color-dodge"><polygon points="905.22 2510.45 905.5 2553.82 869.1 2574.84 868.82 2531.47 905.22 2510.45" fill="url(#x)"/></g><g style="isolation:isolate"><g style="isolation:isolate"><g clip-path="url(#y)"><path d="M1070.32,1969.86q-6.72,22.67-14.2,44.84-10.68,31.59-23,62.11-3.59,8.93-7.32,17.77-16.87,39.95-36.46,77.83Q969,2212,945.69,2249q-13.89,22.1-28.72,43.21-12.63,18-24.92,33.87a855.45,855.45,0,0,1-67.24,77.56c-12.42,12.64-23.43,23-32.51,31l22.2-.93c9.08-8.07,20.09-18.37,32.5-31a855.37,855.37,0,0,0,67.25-77.56c8.16-10.61,16.5-21.89,24.92-33.88q14.83-21.09,28.71-43.21,23.24-37,43.7-76.59,19.56-37.84,36.46-77.83,3.74-8.82,7.32-17.76,12.27-30.49,23-62.11,7.48-22.17,14.19-44.84Z" fill="#f24646"/></g></g><polygon points="1074.65 1869.44 1096.85 1868.51 1120.3 1979.43 1098.1 1980.37 1074.65 1869.44" fill="#f42f2f"/><path d="M1074.65,1869.44l23.45,110.93-27.78-10.51q-16.26,55-37.16,107c-31.34,77.81-70.43,150.29-116.19,215.4-49.84,70.91-96.51,117.42-124.67,142.44l-48.16-27c19.45-15.76,74.64-64.08,134-149C925.54,2190.79,982.48,2089.16,1023,1952l-30.66-11.6Z" fill="#d00200"/></g></g></svg>