<svg width="21" height="22" viewBox="0 0 21 22" fill="none" xmlns="http://www.w3.org/2000/svg">
<path d="M10.4545 21.9998C6.90909 21.9998 3.45455 21.3712 0.454545 20.2937L0 20.1141V19.6651C0 19.4855 0 19.2161 0 18.9468C0 15.8937 1.27273 12.9304 3.45455 10.8651C3.72727 10.5957 4.18182 10.5957 4.45455 10.8651C4.72727 11.1345 4.72727 11.5835 4.45455 11.8529C2.54545 13.6488 1.45455 16.2529 1.45455 18.9468V19.0366C4.18182 20.0243 7.27273 20.4733 10.4545 20.4733C13.6364 20.4733 16.8182 19.9345 19.4545 19.0366V18.9468C19.4545 16.2529 18.3636 13.6488 16.4545 11.8529C16.1818 11.5835 16.1818 11.1345 16.4545 10.8651C16.7273 10.5957 17.1818 10.5957 17.4545 10.8651C19.6364 12.9304 20.9091 15.8937 20.9091 18.9468C20.9091 19.2161 20.9091 19.3957 20.9091 19.6651V20.1141L20.4545 20.2937C17.5455 21.3712 14.0909 21.9998 10.4545 21.9998Z" fill="black"/>
<path d="M10.4542 12.1224C7.09055 12.1224 4.36328 9.42857 4.36328 6.10612C4.36328 2.78367 7.09055 0 10.4542 0C13.8178 0 16.5451 2.69388 16.5451 6.01633C16.5451 9.33878 13.8178 12.1224 10.4542 12.1224ZM10.4542 1.43673C7.90874 1.43673 5.81783 3.50204 5.81783 6.01633C5.81783 8.53061 7.90874 10.5959 10.4542 10.5959C12.9996 10.5959 15.0906 8.53061 15.0906 6.01633C15.1815 3.50204 13.0906 1.43673 10.4542 1.43673Z" fill="#0085FF"/>
<path d="M3.72727 21.1021C3.72727 21.1021 3.63636 21.1021 3.72727 21.1021C3.27273 21.1021 3 20.7429 3 20.3837C3 20.2939 3.18182 17.3307 3.81818 15.8041C4 15.445 4.36364 15.2654 4.72727 15.445C5.09091 15.6246 5.27273 15.9837 5.09091 16.3429C4.63636 17.4205 4.45455 19.6654 4.36364 20.4735C4.36364 20.8327 4.09091 21.1021 3.72727 21.1021Z" fill="black"/>
<path d="M17.2729 21.1021C16.9093 21.1021 16.5457 20.8327 16.5457 20.3837C16.5457 19.5755 16.2729 17.3306 15.8184 16.2531C15.6366 15.8939 15.8184 15.4449 16.182 15.3551C16.5457 15.1755 17.0002 15.3551 17.0911 15.7143C17.7275 17.2408 17.9093 20.2041 17.9093 20.2939C18.0002 20.7429 17.7275 21.1021 17.2729 21.1021Z" fill="black"/>
<path d="M14.1818 16.1633H12.7273C12.3636 16.1633 12 15.8041 12 15.4449C12 15.0857 12.3636 14.7266 12.7273 14.7266H14.1818C14.5455 14.7266 14.9091 15.0857 14.9091 15.4449C14.9091 15.8041 14.5455 16.1633 14.1818 16.1633Z" fill="#0085FF"/>
</svg>
