<svg width="23" height="21" viewBox="0 0 23 21" fill="none" xmlns="http://www.w3.org/2000/svg">
<path d="M9.34629 21.0001C6.17668 21.0001 3.08834 20.4001 0.40636 19.3716L0 19.2001V18.7716C0 18.5144 0 18.343 0 18.0859C0 15.1716 1.13781 12.343 3.08834 10.3716C3.33216 10.1144 3.73852 10.1144 3.98233 10.3716C4.22615 10.6287 4.22615 11.0573 3.98233 11.3144C2.27562 13.0287 1.30035 15.5144 1.30035 18.0859V18.1716C3.73852 19.1144 6.50177 19.543 9.34629 19.543C12.1908 19.543 15.0353 19.0287 17.3922 18.1716V18.0859C17.3922 15.5144 16.417 13.0287 14.7102 11.3144C14.4664 11.0573 14.4664 10.6287 14.7102 10.3716C14.9541 10.1144 15.3604 10.1144 15.6042 10.3716C17.5548 12.343 18.6926 15.1716 18.6926 18.0859C18.6926 18.343 18.6926 18.5144 18.6926 18.7716V19.2001L18.2862 19.3716C15.6855 20.4001 12.5972 21.0001 9.34629 21.0001Z" fill="black"/>
<path d="M9.3466 11.5714C6.33953 11.5714 3.90137 9 3.90137 5.82857C3.90137 2.65714 6.33953 0 9.3466 0C12.3537 0 14.7918 2.57143 14.7918 5.74286C14.7918 8.91429 12.3537 11.5714 9.3466 11.5714ZM9.3466 1.37143C7.07098 1.37143 5.20172 3.34286 5.20172 5.74286C5.20172 8.14286 7.07098 10.1143 9.3466 10.1143C11.6222 10.1143 13.4915 8.14286 13.4915 5.74286C13.5727 3.34286 11.7035 1.37143 9.3466 1.37143Z" fill="#0085FF"/>
<path d="M3.33182 20.1425C3.33182 20.1425 3.25055 20.1425 3.33182 20.1425C2.92546 20.1425 2.68164 19.7997 2.68164 19.4568C2.68164 19.3711 2.84418 16.5425 3.41309 15.0854C3.57563 14.7425 3.90072 14.5711 4.22581 14.7425C4.5509 14.914 4.71344 15.2568 4.5509 15.5997C4.14454 16.6283 3.98199 18.7711 3.90072 19.5425C3.90072 19.8854 3.65691 20.1425 3.33182 20.1425Z" fill="black"/>
<path d="M15.4413 20.1428C15.1162 20.1428 14.7911 19.8857 14.7911 19.4571C14.7911 18.6857 14.5473 16.5428 14.1409 15.5142C13.9784 15.1714 14.1409 14.7428 14.466 14.6571C14.7911 14.4857 15.1975 14.6571 15.2787 15C15.8476 16.4571 16.0102 19.2857 16.0102 19.3714C16.0914 19.8 15.8476 20.1428 15.4413 20.1428Z" fill="black"/>
<path d="M12.6781 15.4286H11.3777C11.0526 15.4286 10.7275 15.0857 10.7275 14.7428C10.7275 14.4 11.0526 14.0571 11.3777 14.0571H12.6781C13.0032 14.0571 13.3282 14.4 13.3282 14.7428C13.3282 15.0857 13.0032 15.4286 12.6781 15.4286Z" fill="#0085FF"/>
<path d="M19.9109 9.42835C19.5858 9.42835 19.2607 9.08549 19.2607 8.74263V3.59978C19.2607 3.25692 19.5858 2.91406 19.9109 2.91406C20.236 2.91406 20.5611 3.25692 20.5611 3.59978V8.65692C20.5611 9.08549 20.236 9.42835 19.9109 9.42835Z" fill="#0085FF"/>
<path d="M22.3495 6.85678H17.5545C17.2294 6.85678 16.9043 6.51392 16.9043 6.17107C16.9043 5.82821 17.2294 5.48535 17.5545 5.48535H22.3495C22.6746 5.48535 22.9997 5.82821 22.9997 6.17107C22.9997 6.51392 22.6746 6.85678 22.3495 6.85678Z" fill="#0085FF"/>
</svg>
