<svg width="23" height="19" viewBox="0 0 23 19" fill="none" xmlns="http://www.w3.org/2000/svg">
<path d="M14.5747 1.22334C18.4894 1.22334 21.6758 4.167 21.6758 7.7835C21.6758 11.4 18.4894 14.3437 14.5747 14.3437H11.7855H11.6862C11.2807 14.3437 10.9 14.5119 10.6434 14.8101L8.94674 16.798L8.49982 15.1771C8.3674 14.6954 7.93703 14.3437 7.40734 14.2672C3.93955 13.7932 1.32422 11.0101 1.32422 7.7835C1.32422 4.167 4.51062 1.22334 8.42533 1.22334H14.5747ZM14.5747 0H8.41706C3.79057 0 0 3.50181 0 7.7835C0 11.6829 3.15329 14.9324 7.22526 15.4753L8.11911 18.7018C8.17704 18.893 8.35912 19.0076 8.5412 19.0076C8.66535 19.0076 8.78949 18.9618 8.88053 18.8547L11.6862 15.567H11.7855H14.5747C19.2094 15.567 23 12.0652 23 7.7835C23 3.50181 19.2094 0 14.5747 0Z" fill="black"/>
<path d="M16.2036 6.55928H6.26367C5.89951 6.55928 5.60156 6.28403 5.60156 5.94761C5.60156 5.61119 5.89951 5.33594 6.26367 5.33594H16.2119C16.576 5.33594 16.874 5.61119 16.874 5.94761C16.874 6.28403 16.576 6.55928 16.2036 6.55928Z" fill="#0085FF"/>
<path d="M11.5026 10.5046H6.26367C5.89951 10.5046 5.60156 10.2293 5.60156 9.89292C5.60156 9.5565 5.89951 9.28125 6.26367 9.28125H11.5026C11.8668 9.28125 12.1647 9.5565 12.1647 9.89292C12.1647 10.2293 11.8668 10.5046 11.5026 10.5046Z" fill="#0085FF"/>
</svg>
