<svg width="17" height="20" viewBox="0 0 17 20" fill="none" xmlns="http://www.w3.org/2000/svg">
<path d="M7.0485 6.36346C7.0485 6.19817 7.13143 6.03288 7.21435 5.86759C7.46313 5.61966 7.87777 5.61966 8.12655 5.86759L11.7753 9.50395C12.0241 9.75189 12.0241 10.1651 11.7753 10.413L8.12655 14.0494C7.87777 14.2973 7.46313 14.2973 7.21435 14.0494C6.96557 13.8015 6.96557 13.3883 7.21435 13.1403L10.3656 9.99982L7.21435 6.85933C7.13143 6.77668 7.0485 6.61139 7.0485 6.36346Z" fill="#0085FF"/>
<path d="M-0.000461607 10C-0.000461593 9.66945 0.331245 9.33887 0.662952 9.33887L10.863 9.33887C11.1947 9.33887 11.5264 9.66945 11.5264 10C11.5264 10.3306 11.1947 10.6612 10.863 10.6612L0.662952 10.6612C0.331245 10.6612 -0.000461622 10.3306 -0.000461607 10Z" fill="#0085FF"/>
<path d="M-7.80302e-07 17.8512L-6.53865e-07 14.9587C-6.39414e-07 14.6281 0.331706 14.2975 0.663413 14.2975C0.99512 14.2975 1.32683 14.6281 1.32683 14.9587L1.32683 17.8512C1.32683 18.2645 1.65854 18.6777 2.1561 18.6777L14.8439 18.6777C15.2585 18.6777 15.6732 18.3471 15.6732 17.8512L15.6732 2.14876C15.6732 1.73554 15.3415 1.32231 14.8439 1.32231L2.1561 1.32231C1.74146 1.32231 1.32683 1.65289 1.32683 2.14876L1.32683 4.95868C1.32683 5.28926 0.995121 5.61983 0.663414 5.61983C0.331707 5.61983 -2.31201e-07 5.28926 -2.16751e-07 4.95868L-9.39253e-08 2.14876C-4.33501e-08 0.991735 0.912195 -7.0322e-07 2.1561 -6.48848e-07L14.8439 -9.4246e-08C16.0878 -3.98733e-08 17 0.909091 17 2.14876L17 17.9339C17 19.0909 16.0878 20.0826 14.8439 20.0826L2.1561 20.0826C0.995122 20 -8.30878e-07 19.0083 -7.80302e-07 17.8512Z" fill="black"/>
</svg>
