<svg width="21" height="18" viewBox="0 0 21 18" fill="none" xmlns="http://www.w3.org/2000/svg">
<path d="M10.4349 18C10.2435 18 10.0598 17.9111 9.94495 17.7631L7.84725 15.0383H1.98287C0.888079 15.0383 0 14.1793 0 13.1205V1.91773C0 0.858906 0.888079 0 1.98287 0H19.0248C20.1196 0 21.0077 0.858906 21.0077 1.91773V13.1205C21.0077 14.1793 20.1196 15.0383 19.0248 15.0383H13.0303L10.9326 17.7631C10.8101 17.9111 10.634 18 10.4349 18ZM1.98287 1.1847C1.56179 1.1847 1.22494 1.51049 1.22494 1.91773V13.1205C1.22494 13.5204 1.56179 13.8536 1.98287 13.8536H8.16114C8.35253 13.8536 8.53627 13.9424 8.65111 14.0905L10.4349 16.4155L12.2187 14.0905C12.3336 13.9424 12.5173 13.8536 12.7087 13.8536H19.0095C19.4229 13.8536 19.7674 13.5278 19.7674 13.1205V1.91773C19.7674 1.51789 19.4305 1.1847 19.0095 1.1847H1.98287Z" fill="black"/>
<path d="M15.7268 11.2179H5.27653C4.93967 11.2179 4.66406 10.9513 4.66406 10.6256C4.66406 10.2998 4.93967 10.0332 5.27653 10.0332H15.7268C16.0636 10.0332 16.3392 10.2998 16.3392 10.6256C16.3392 10.9513 16.0636 11.2179 15.7268 11.2179Z" fill="#0085FF"/>
<path d="M11.1945 6.88587H5.27653C4.93967 6.88587 4.66406 6.61931 4.66406 6.29352C4.66406 5.96773 4.93967 5.70117 5.27653 5.70117H11.1945C11.5314 5.70117 11.807 5.96773 11.807 6.29352C11.807 6.61931 11.5314 6.88587 11.1945 6.88587Z" fill="black"/>
<path d="M15.7268 4.30189H5.27653C4.93967 4.30189 4.66406 4.03533 4.66406 3.70954C4.66406 3.38374 4.93967 3.11719 5.27653 3.11719H15.7268C16.0636 3.11719 16.3392 3.38374 16.3392 3.70954C16.3392 4.03533 16.0636 4.30189 15.7268 4.30189Z" fill="black"/>
</svg>
