<svg width="20" height="19" viewBox="0 0 20 19" fill="none" xmlns="http://www.w3.org/2000/svg">
<path d="M9.96109 1.2459C10.0389 1.2459 10.1167 1.2459 10.1946 1.32377L18.5992 9.26639C18.677 9.34426 18.677 9.42213 18.677 9.5V17.3648C18.677 17.5984 18.5214 17.7541 18.2879 17.7541H1.63424C1.40078 17.7541 1.24514 17.5984 1.24514 17.3648V9.5C1.24514 9.42213 1.32296 9.26639 1.32296 9.26639L9.72763 1.32377C9.80545 1.2459 9.96109 1.2459 9.96109 1.2459ZM9.96109 0C9.57198 0 9.18288 0.155738 8.87159 0.467213L0.466926 8.33197C0.155642 8.64344 0 9.11066 0 9.5V17.3648C0 18.2213 0.700389 19 1.63424 19H18.3658C19.2218 19 20 18.2992 20 17.3648V9.5C20 9.03279 19.8444 8.64344 19.5331 8.33197L11.1284 0.467213C10.8171 0.155738 10.428 0 9.96109 0Z" fill="black"/>
<path d="M3.50147 13.4714C3.19019 13.4714 2.87891 13.1599 2.87891 12.8485V10.0452L5.29136 7.63126C5.52482 7.39765 5.91393 7.39765 6.14739 7.63126C6.38085 7.86487 6.38085 8.25421 6.14739 8.48782L4.04622 10.5903V12.9263C4.12404 13.2378 3.89058 13.4714 3.50147 13.4714Z" fill="#0085FF"/>
</svg>
