<svg width="22" height="15" viewBox="0 0 22 15" fill="none" xmlns="http://www.w3.org/2000/svg">
<path d="M20.4896 1.2018C20.6498 1.2018 20.7718 1.32949 20.7718 1.47972V13.5203C20.7718 13.678 20.6422 13.7982 20.4896 13.7982H1.50277C1.35021 13.7982 1.22053 13.6705 1.22053 13.5203V1.47972C1.22053 1.32198 1.35021 1.2018 1.50277 1.2018H20.4896ZM20.4896 0H1.50277C0.67129 0 0 0.660991 0 1.47972V13.5203C0 14.339 0.67129 15 1.50277 15H20.4896C21.3211 15 21.9924 14.339 21.9924 13.5203V1.47972C22 0.660991 21.3211 0 20.4896 0Z" fill="black"/>
<path d="M21.3503 4.38672H0.753906V6.6401H21.3503V4.38672Z" fill="black"/>
<path d="M6.07771 12.5065H2.95011C2.61446 12.5065 2.33984 12.2361 2.33984 11.9056C2.33984 11.5751 2.61446 11.3047 2.95011 11.3047H6.07771C6.41335 11.3047 6.68797 11.5751 6.68797 11.9056C6.68797 12.2361 6.41335 12.5065 6.07771 12.5065Z" fill="#0085FF"/>
<path d="M9.39941 12.5065H8.27042C7.93477 12.5065 7.66016 12.2361 7.66016 11.9056C7.66016 11.5751 7.93477 11.3047 8.27042 11.3047H9.39941C9.73505 11.3047 10.0097 11.5751 10.0097 11.9056C10.0097 12.2361 9.73505 12.5065 9.39941 12.5065Z" fill="#0085FF"/>
</svg>
