<svg width="21" height="21" viewBox="0 0 21 21" fill="none" xmlns="http://www.w3.org/2000/svg">
<g clip-path="url(#clip0)">
<path d="M7.86545 1.22182C11.5309 1.22182 14.5091 4.2 14.5091 7.86545C14.5091 11.5309 11.5309 14.5091 7.86545 14.5091C4.2 14.5091 1.22182 11.5309 1.22182 7.86545C1.22182 4.2 4.2 1.22182 7.86545 1.22182ZM7.86545 0C3.51273 0 0 3.51273 0 7.86545C0 12.2182 3.51273 15.7309 7.86545 15.7309C12.2182 15.7309 15.7309 12.2182 15.7309 7.86545C15.7309 3.51273 12.1418 0 7.86545 0Z" fill="black"/>
<path d="M3.6656 9.23983C3.36014 9.23983 3.05469 8.93437 3.05469 8.62892C3.05469 6.41437 4.42923 4.35255 6.49105 3.51255C6.79651 3.35983 7.17832 3.51255 7.25469 3.81801C7.40742 4.12346 7.25469 4.50528 6.94923 4.58164C5.3456 5.34528 4.27651 6.87255 4.27651 8.62892C4.27651 9.01073 4.04742 9.23983 3.6656 9.23983Z" fill="#0085FF"/>
<path d="M20.389 21.0002C20.2363 21.0002 20.0836 20.9239 19.9308 20.8475L12.4472 13.3639C12.2181 13.1348 12.2181 12.753 12.4472 12.5239C12.6763 12.2948 13.0581 12.2948 13.2872 12.5239L20.7708 20.0075C20.9999 20.2366 20.9999 20.6184 20.7708 20.8475C20.6945 20.9239 20.5418 21.0002 20.389 21.0002Z" fill="black"/>
</g>
<defs>
<clipPath id="clip0">
<rect width="21" height="21" fill="white"/>
</clipPath>
</defs>
</svg>
