<svg width="21" height="21" viewBox="0 0 21 21" fill="none" xmlns="http://www.w3.org/2000/svg">
<path d="M8.20976 9.9749C6.56778 9.9749 5.27148 8.6624 5.27148 6.9999C5.27148 5.3374 6.56778 4.0249 8.20976 4.0249C9.85173 4.0249 11.148 5.3374 11.148 6.9999C11.148 8.6624 9.76531 9.9749 8.20976 9.9749ZM8.20976 5.4249C7.34556 5.4249 6.6542 6.1249 6.6542 6.9999C6.6542 7.8749 7.34556 8.5749 8.20976 8.5749C9.07395 8.5749 9.76531 7.8749 9.76531 6.9999C9.76531 6.1249 9.07395 5.4249 8.20976 5.4249Z" fill="#0085FF"/>
<path d="M11.4936 15.4875C11.1479 15.4875 10.8023 15.1375 10.8023 14.7875V12.775C10.8023 12.25 10.3702 11.8125 9.85165 11.8125H6.39486C5.87634 11.8125 5.44424 12.25 5.44424 12.775V14.7C5.44424 15.05 5.09856 15.4 4.75288 15.4C4.4072 15.4 4.06152 15.05 4.06152 14.7V12.775C4.14794 11.55 5.18498 10.5 6.48128 10.5H9.93807C11.2344 10.5 12.2714 11.55 12.2714 12.8625V14.875C12.185 15.225 11.9257 15.4875 11.4936 15.4875Z" fill="#0085FF"/>
<path d="M8.2963 16.7125C3.71605 16.7125 0 12.95 0 8.4C0 3.7625 3.71605 0 8.2963 0C12.8765 0 16.5926 3.7625 16.5926 8.4C16.5062 12.95 12.7901 16.7125 8.2963 16.7125ZM8.2963 1.4C4.49383 1.4 1.38272 4.55 1.38272 8.4C1.38272 12.25 4.49383 15.4 8.2963 15.4C12.0988 15.4 15.2099 12.25 15.2099 8.4C15.1235 4.55 12.0123 1.4 8.2963 1.4Z" fill="black"/>
<path d="M20.3082 21C20.1354 21 19.9625 20.9125 19.7897 20.825L13.2218 14.175C12.9625 13.9125 12.9625 13.475 13.2218 13.2125C13.481 12.95 13.9131 12.95 14.1724 13.2125L20.7403 19.8625C20.9996 20.125 20.9996 20.5625 20.7403 20.825C20.6539 21 20.481 21 20.3082 21Z" fill="black"/>
</svg>
