<svg width="24" height="13" viewBox="0 0 24 13" fill="none" xmlns="http://www.w3.org/2000/svg">
<path d="M11.9982 9.4634C9.35121 9.4634 7.20703 7.43441 7.20703 4.94166C7.20703 2.44891 9.3586 0.419922 11.9982 0.419922C14.6377 0.419922 16.7893 2.44891 16.7893 4.94166C16.7967 7.43441 14.6451 9.4634 11.9982 9.4634ZM11.9982 1.57934C10.0092 1.57934 8.39003 3.08659 8.39003 4.94166C8.39003 6.79673 10.0092 8.30398 11.9982 8.30398C13.9871 8.30398 15.6063 6.79673 15.6063 4.94166C15.6137 3.08659 13.9945 1.57934 11.9982 1.57934Z" fill="#0085FF"/>
<path d="M12 1.15942C16.2736 1.15942 20.2662 3.18841 22.5952 6.5C20.2588 9.81159 16.2662 11.8406 12 11.8406C7.73383 11.8406 3.74122 9.81159 1.40481 6.5C3.73383 3.18841 7.72643 1.15942 12 1.15942ZM12 0C6.86876 0 2.38817 2.6087 0 6.50725C2.39556 10.3913 6.86876 13 12 13C17.1312 13 21.6044 10.3913 24 6.50725C21.6118 2.6087 17.1312 0 12 0Z" fill="black"/>
<path d="M13.1012 5.47894C12.4949 5.47894 11.9995 4.99343 11.9995 4.39923C11.9995 3.87024 12.3988 3.44995 12.9163 3.35575C12.6428 3.20358 12.3322 3.10938 11.9995 3.10938C10.9644 3.10938 10.1289 3.92822 10.1289 4.94271C10.1289 5.9572 10.9644 6.77604 11.9995 6.77604C12.9459 6.77604 13.7223 6.08039 13.8406 5.18909C13.6483 5.363 13.3895 5.47894 13.1012 5.47894Z" fill="black"/>
</svg>
