<svg width="24" height="17" viewBox="0 0 24 17" fill="none" xmlns="http://www.w3.org/2000/svg">
<path d="M6.96767 17.0001C6.12446 17.0001 5.28126 16.8416 4.46592 16.5175C2.73073 15.8259 1.35791 14.4789 0.605297 12.7285C-0.147316 10.9709 -0.203065 9.01874 0.465924 7.2251C1.13491 5.43145 2.43805 4.01238 4.13143 3.22721C5.83178 2.44925 7.72028 2.39882 9.45547 3.08315C10.459 3.48654 11.3649 4.12764 12.0966 4.94882L22.682 0.0793325C23.0304 -0.0791421 23.4346 -0.00710819 23.7063 0.259417C23.9781 0.525943 24.0687 0.943739 23.9363 1.31111L22.3684 5.54671C22.1802 6.04374 21.6367 6.29586 21.1558 6.10137L20.7238 5.92849L20.4381 6.69925C20.2569 7.19628 19.7063 7.4484 19.2255 7.25391L17.7203 6.65603L15.7482 7.56366L14.8004 10.1137C14.7098 10.3514 14.5356 10.5459 14.3056 10.6539C14.1593 10.7187 14.006 10.7476 13.8597 10.7331C13.79 11.3022 13.6576 11.8569 13.4624 12.3827C12.7935 14.1764 11.4903 15.5954 9.79694 16.3734C8.89101 16.7912 7.92934 17.0001 6.96767 17.0001ZM6.97464 3.76027C4.6262 3.76027 2.40321 5.23696 1.51122 7.63569C0.953729 9.1412 0.995541 10.7836 1.62969 12.2603C2.26383 13.737 3.41366 14.8679 4.87707 15.4442C6.33352 16.0204 7.92237 15.9772 9.35094 15.3217C10.7795 14.6662 11.8736 13.4776 12.4311 11.9649C12.668 11.331 12.7935 10.6467 12.8144 9.94077L12.8353 9.12679L13.8387 9.52298L14.7516 7.07382C14.8422 6.82891 15.0164 6.64162 15.2464 6.53357L17.3509 5.56832C17.5809 5.46747 17.8318 5.46027 18.0687 5.54671L19.4764 6.10857L19.7621 5.34501C19.8527 5.1073 20.0269 4.91281 20.2569 4.80476C20.4868 4.69671 20.7377 4.6895 20.9746 4.78315L21.4067 4.95603L22.7586 1.31111L11.7969 6.35349L11.5252 6.00772C10.8631 5.17933 10.0199 4.53823 9.05826 4.16366C8.37533 3.88993 7.66453 3.76027 6.97464 3.76027Z" fill="black"/>
<path d="M5.28985 12.9298C4.96232 12.9298 4.64176 12.865 4.32817 12.7425C3.65918 12.476 3.12957 11.9574 2.83688 11.2803C2.5442 10.6031 2.52329 9.84678 2.78113 9.15525C3.03897 8.46373 3.54072 7.91627 4.19577 7.61373C4.85082 7.31839 5.57556 7.29678 6.24455 7.56331C6.91354 7.82983 7.44316 8.34848 7.73584 9.02559C8.02852 9.70271 8.04943 10.4591 7.79159 11.1506C7.53375 11.8421 7.03201 12.3896 6.37695 12.6921C6.02852 12.8506 5.65918 12.9298 5.28985 12.9298ZM5.28288 8.52856C5.06685 8.52856 4.85082 8.57898 4.64873 8.67263C4.26545 8.84551 3.97277 9.16966 3.81946 9.57305C3.66615 9.97644 3.68009 10.4158 3.84734 10.812C4.01458 11.2082 4.32817 11.5108 4.71842 11.6692C5.10866 11.8277 5.53375 11.8133 5.91702 11.6404C6.3003 11.4675 6.59298 11.1434 6.74629 10.74C6.8996 10.3366 6.88566 9.8972 6.71842 9.50102C6.5442 9.09763 6.23758 8.79509 5.84734 8.64381C5.66615 8.56458 5.47103 8.52856 5.28288 8.52856Z" fill="#0085FF"/>
</svg>
