<svg width="16" height="19" viewBox="0 0 16 19" fill="none" xmlns="http://www.w3.org/2000/svg">
<path d="M2.58949 19C2.21955 19 1.84961 18.6514 1.84961 18.3028V6.44954C1.84961 2.87615 4.90163 0 8.69354 0C12.4854 0 15.5375 2.87615 15.5375 6.44954C15.5375 6.79817 15.1675 7.14679 14.7976 7.14679C14.4276 7.14679 14.0577 6.79817 14.0577 6.44954C14.0577 3.66055 11.6531 1.3945 8.69354 1.3945C5.734 1.3945 3.32938 3.66055 3.32938 6.44954V18.3028C3.32938 18.6514 2.95944 19 2.58949 19Z" fill="black"/>
<path d="M15.2601 19.0001H0.739884C0.369942 19.0001 0 18.6515 0 18.3029C0 17.9542 0.369942 17.6056 0.739884 17.6056H14.5202V14.5552C14.5202 14.2065 14.8902 13.8579 15.2601 13.8579C15.6301 13.8579 16 14.2065 16 14.5552V18.3029C16 18.6515 15.7225 19.0001 15.2601 19.0001Z" fill="black"/>
<path d="M8.69364 11.0688H0.739884C0.369942 11.0688 0 10.7202 0 10.3716C0 10.0229 0.369942 9.67432 0.739884 9.67432H8.69364C9.06358 9.67432 9.43353 10.0229 9.43353 10.3716C9.43353 10.7202 9.15607 11.0688 8.69364 11.0688Z" fill="#0085FF"/>
</svg>
