<svg width="22" height="19" viewBox="0 0 22 19" fill="none" xmlns="http://www.w3.org/2000/svg">
<path d="M6.48396 1.16878C7.67249 1.16878 8.83075 1.55594 9.75432 2.2499L10.5038 2.81238L11.2532 2.2499C12.1768 1.54864 13.3351 1.16878 14.5236 1.16878C15.9393 1.16878 17.2641 1.69473 18.2558 2.65167C20.3149 4.6386 20.3149 7.88197 18.2558 9.8689L10.4962 17.3491L2.7518 9.8689C1.75252 8.91196 1.20746 7.6263 1.20746 6.26028C1.20746 4.89427 1.75252 3.60861 2.7518 2.65167C3.74351 1.69473 5.06831 1.16878 6.48396 1.16878ZM14.516 0C13.0928 0 11.6696 0.445598 10.5038 1.32949C9.32282 0.445598 7.90717 0 6.48396 0C4.81849 0 3.15303 0.606305 1.89636 1.82622C-0.63212 4.26605 -0.63212 8.25452 1.89636 10.6943L10.5038 19L19.1112 10.6943C21.6397 8.25452 21.6397 4.26605 19.1112 1.82622C17.8394 0.606305 16.1739 0 14.516 0Z" fill="black"/>
<path d="M11.2364 14.207C11.0774 14.207 10.926 14.1486 10.8049 14.039C10.5702 13.8126 10.5702 13.44 10.8049 13.2136L15.8619 8.3339C16.0966 8.10745 16.4826 8.10745 16.7173 8.3339C16.952 8.56035 16.952 8.9329 16.7173 9.15935L11.6604 14.039C11.5468 14.1486 11.3954 14.207 11.2364 14.207Z" fill="#0085FF"/>
</svg>
