<svg width="25" height="15" viewBox="0 0 25 15" fill="none" xmlns="http://www.w3.org/2000/svg">
<path d="M17.2789 15H7.72108C3.46576 15 0 11.6397 0 7.50404C0 3.36834 3.46576 0 7.72108 0H17.2872C21.5426 0 25.0083 3.36834 25.0083 7.50404C25.0083 11.6397 21.5426 15 17.2789 15ZM7.72108 1.29241C4.19714 1.29241 1.32979 4.07916 1.32979 7.50404C1.32979 10.9289 4.19714 13.7157 7.72108 13.7157H17.2872C20.8112 13.7157 23.6785 10.9289 23.6785 7.50404C23.6785 4.07916 20.8029 1.29241 17.2789 1.29241H7.72108Z" fill="black"/>
<path d="M8.42819 12.0357C5.86004 12.0357 3.76562 10.0001 3.76562 7.50416C3.76562 5.0082 5.86004 2.97266 8.42819 2.97266C10.9963 2.97266 13.0908 5.0082 13.0908 7.50416C13.0908 10.0001 10.9963 12.0357 8.42819 12.0357ZM8.42819 4.26506C6.59142 4.26506 5.09541 5.71902 5.09541 7.50416C5.09541 9.2893 6.59142 10.7433 8.42819 10.7433C10.265 10.7433 11.761 9.2893 11.761 7.50416C11.761 5.71902 10.265 4.26506 8.42819 4.26506Z" fill="#0085FF"/>
</svg>
