<svg width="55" height="43" viewBox="0 0 55 43" fill="none" xmlns="http://www.w3.org/2000/svg">
<path d="M49.5576 41.5571H5.44303C3.15137 41.5571 1.43262 39.8255 1.43262 37.5168V8.65773C1.43262 6.34901 3.15137 4.61746 5.44303 4.61746H49.5576C51.8493 4.61746 53.568 6.34901 53.568 8.65773V37.5168C53.568 39.8255 51.5628 41.5571 49.5576 41.5571Z" fill="#0085FF"/>
<path d="M49.5573 43H5.44271C2.57812 43 0 40.4027 0 37.5168V8.65771C0 5.48321 2.57812 2.88589 5.44271 2.88589H49.5573C52.4219 2.88589 55 5.48321 55 8.36912V37.2282C55 40.4027 52.4219 43 49.5573 43ZM5.44271 5.7718C4.01042 5.7718 2.86458 6.92616 2.86458 8.36912V37.2282C2.86458 38.6711 4.01042 39.8255 5.44271 39.8255H49.5573C50.9896 39.8255 52.1354 38.6711 52.1354 37.2282V8.36912C52.1354 6.92616 50.9896 5.7718 49.5573 5.7718H5.44271Z" fill="#0968C0"/>
<path d="M28.6468 35.4967C35.4497 35.4967 40.9645 29.9408 40.9645 23.0873C40.9645 16.2338 35.4497 10.6779 28.6468 10.6779C21.8439 10.6779 16.3291 16.2338 16.3291 23.0873C16.3291 29.9408 21.8439 35.4967 28.6468 35.4967Z" fill="white"/>
<path d="M28.6465 36.651C21.1986 36.651 14.8965 30.5906 14.8965 22.7987C14.8965 15.0067 21.1986 9.23492 28.6465 9.23492C36.0944 9.23492 42.3965 15.2953 42.3965 23.0873C42.3965 30.8792 36.0944 36.651 28.6465 36.651ZM28.6465 12.1208C22.6309 12.1208 17.7611 17.0269 17.7611 23.0873C17.7611 29.1477 22.6309 34.0537 28.6465 34.0537C34.6621 34.0537 39.2454 28.8591 39.2454 23.0873C39.2454 17.3155 34.6621 12.1208 28.6465 12.1208Z" fill="#0968C0"/>
<path d="M47.5518 13.2752H43.8278C42.9684 13.2752 42.3955 12.698 42.3955 11.8322C42.3955 10.9665 42.9684 10.3893 43.8278 10.3893H47.5518C48.4111 10.3893 48.9841 10.9665 48.9841 11.8322C48.9841 12.698 48.1247 13.2752 47.5518 13.2752Z" fill="#0968C0"/>
<path d="M10.8857 37.2282H7.16178C6.30241 37.2282 5.72949 36.651 5.72949 35.7852C5.72949 34.9195 6.30241 34.3423 7.16178 34.3423H10.8857C11.7451 34.3423 12.318 34.9195 12.318 35.7852C12.318 36.651 11.7451 37.2282 10.8857 37.2282Z" fill="#0968C0"/>
<path d="M9.4528 4.90604C8.59342 4.90604 8.02051 4.32886 8.02051 3.46309V1.44295C8.02051 0.577181 8.87988 0 9.4528 0C10.0257 0 10.8851 0.577181 10.8851 1.44295V3.46309C10.8851 4.32886 10.3122 4.90604 9.4528 4.90604Z" fill="#0968C0"/>
</svg>
