<svg width="58" height="47" viewBox="0 0 58 47" fill="none" xmlns="http://www.w3.org/2000/svg">
<path d="M33.9713 45.6012H5.52372C3.31419 45.6012 1.38086 43.6429 1.38086 41.4048C1.38086 39.1667 3.31419 37.2084 5.52372 37.2084H33.9713C36.1809 37.2084 38.1142 39.1667 38.1142 41.4048C38.1142 43.6429 36.1809 45.6012 33.9713 45.6012Z" fill="#0085FF"/>
<path d="M33.9714 47H5.52381C2.48571 47 0 44.4822 0 41.4048C0 38.3274 2.48571 35.8096 5.52381 35.8096H33.9714C37.0095 35.8096 39.4952 38.3274 39.4952 41.4048C39.4952 44.4822 37.0095 47 33.9714 47ZM5.52381 38.6072C4.14286 38.6072 2.7619 39.7262 2.7619 41.4048C2.7619 43.0834 3.86667 44.2024 5.52381 44.2024H33.9714C35.3524 44.2024 36.7333 43.0834 36.7333 41.4048C36.7333 39.7262 35.6286 38.6072 33.9714 38.6072H5.52381Z" fill="#0968C0"/>
<path d="M52.476 45.6012H48.8855C46.676 45.6012 44.7427 43.6429 44.7427 41.4048C44.7427 39.1667 46.676 37.2084 48.8855 37.2084H52.476C54.6855 37.2084 56.6189 39.1667 56.6189 41.4048C56.6189 43.6429 54.6855 45.6012 52.476 45.6012Z" fill="#0085FF"/>
<path d="M52.4761 47H48.8856C45.8475 47 43.3618 44.4822 43.3618 41.4048C43.3618 38.3274 45.8475 35.8096 48.8856 35.8096H52.4761C55.5142 35.8096 57.9999 38.3274 57.9999 41.4048C57.9999 44.4822 55.5142 47 52.4761 47ZM48.8856 38.6072C47.5047 38.6072 46.1237 39.7262 46.1237 41.4048C46.1237 43.0834 47.2285 44.2024 48.8856 44.2024H52.4761C53.8571 44.2024 55.238 43.0834 55.238 41.4048C55.238 39.7262 54.1332 38.6072 52.4761 38.6072H48.8856Z" fill="#0968C0"/>
<path d="M37.2856 27.6964H5.52372C3.31419 27.6964 1.38086 25.7381 1.38086 23.5C1.38086 21.2619 3.31419 19.3036 5.52372 19.3036H37.2856C39.4951 19.3036 41.4285 21.2619 41.4285 23.5C41.4285 25.7381 39.4951 27.6964 37.2856 27.6964Z" fill="white"/>
<path d="M37.2857 29.0953H5.52381C2.48571 29.0953 0 26.5774 0 23.5C0 20.4226 2.48571 17.9048 5.52381 17.9048H37.2857C40.3238 17.9048 42.8095 20.4226 42.8095 23.5C42.8095 26.5774 40.3238 29.0953 37.2857 29.0953ZM5.52381 20.7024C4.14286 20.7024 2.7619 21.8215 2.7619 23.5C2.7619 24.8988 3.86667 26.2976 5.52381 26.2976H37.2857C38.6667 26.2976 40.0476 25.1786 40.0476 23.5C40.0476 22.1012 38.9429 20.7024 37.2857 20.7024H5.52381Z" fill="#0968C0"/>
<path d="M52.4761 9.79166H5.52372C3.31419 9.79166 1.38086 7.83333 1.38086 5.59523C1.38086 3.35714 3.31419 1.3988 5.52372 1.3988H52.4761C54.6856 1.3988 56.619 3.35714 56.619 5.59523C56.619 7.83333 54.6856 9.79166 52.4761 9.79166Z" fill="#0085FF"/>
<path d="M52.4762 11.1905H5.52381C2.48571 11.1905 0 8.67262 0 5.59524C0 2.51786 2.48571 0 5.52381 0H52.4762C55.5143 0 58 2.51786 58 5.59524C58 8.67262 55.5143 11.1905 52.4762 11.1905ZM5.52381 2.79762C3.86667 2.79762 2.7619 3.91667 2.7619 5.59524C2.7619 7.27381 3.86667 8.39286 5.52381 8.39286H52.4762C53.8571 8.39286 55.2381 7.27381 55.2381 5.59524C55.2381 3.91667 54.1333 2.79762 52.4762 2.79762H5.52381Z" fill="#0968C0"/>
</svg>
