<svg width="65" height="39" viewBox="0 0 65 39" fill="none" xmlns="http://www.w3.org/2000/svg">
<g clip-path="url(#clip0)">
<path d="M15.0001 14.9549H3.82364C2.64717 14.9549 1.4707 13.7819 1.4707 12.609V3.81202C1.4707 2.63909 2.64717 1.46616 3.82364 1.46616H15.0001C16.1766 1.46616 17.3531 2.63909 17.3531 3.81202V12.609C17.0589 13.7819 16.1766 14.9549 15.0001 14.9549Z" fill="#0085FF"/>
<path d="M15 16.4211H3.82353C1.76471 16.4211 0 14.6617 0 12.609V3.81203C0 1.7594 1.76471 0 3.82353 0H15C17.0588 0 18.8235 1.7594 18.8235 3.81203V12.609C18.5294 14.6617 17.0588 16.4211 15 16.4211ZM3.82353 2.93233C3.23529 2.93233 2.94118 3.22556 2.94118 3.81203V12.609C2.94118 13.1955 3.23529 13.4887 3.82353 13.4887H15C15.5882 13.4887 15.8824 13.1955 15.8824 12.609V3.81203C15.5882 3.22556 15.2941 2.93233 15 2.93233H3.82353Z" fill="#0968C0"/>
<path d="M37.9423 14.9549H27.06C25.8835 14.9549 24.707 13.7819 24.707 12.609V3.81202C24.707 2.63909 25.8835 1.46616 27.06 1.46616H38.2364C39.4129 1.46616 40.5894 2.63909 40.5894 3.81202V12.609C40.2953 13.7819 39.1188 14.9549 37.9423 14.9549Z" fill="white"/>
<path d="M37.9422 16.4211H27.0599C24.7069 16.4211 23.2363 14.6617 23.2363 12.609V3.81203C23.2363 1.7594 24.7069 0 27.0599 0H38.2363C40.2952 0 42.0599 1.7594 42.0599 3.81203V12.609C41.7657 14.6617 40.001 16.4211 37.9422 16.4211ZM27.0599 2.93233C26.4716 2.93233 26.1775 3.22556 26.1775 3.81203V12.609C26.1775 13.1955 26.4716 13.4887 27.0599 13.4887H38.2363C38.8246 13.4887 39.1187 13.1955 39.1187 12.609V3.81203C39.1187 3.22556 38.8246 2.93233 38.2363 2.93233H27.0599Z" fill="#0968C0"/>
<path d="M61.1759 14.9549H49.9994C48.823 14.9549 47.6465 13.7819 47.6465 12.609V3.81202C47.6465 2.63909 48.823 1.46616 49.9994 1.46616H61.1759C62.3524 1.46616 63.5288 2.63909 63.5288 3.81202V12.609C63.5288 13.7819 62.3524 14.9549 61.1759 14.9549Z" fill="#0085FF"/>
<path d="M61.1758 16.4211H49.9993C47.9405 16.4211 46.1758 14.6617 46.1758 12.609V3.81203C46.1758 1.7594 47.9405 0 49.9993 0H61.1758C63.2346 0 64.9993 1.7594 64.9993 3.81203V12.609C64.9993 14.6617 63.2346 16.4211 61.1758 16.4211ZM49.9993 2.93233C49.4111 2.93233 49.117 3.22556 49.117 3.81203V12.609C49.117 13.1955 49.4111 13.4887 49.9993 13.4887H61.1758C61.764 13.4887 62.0581 13.1955 62.0581 12.609V3.81203C62.0581 3.22556 61.764 2.93233 61.1758 2.93233H49.9993Z" fill="#0968C0"/>
<path d="M15.0001 37.5339H3.82364C2.64717 37.5339 1.4707 36.3609 1.4707 35.188V26.391C1.4707 25.2181 2.64717 24.0451 3.82364 24.0451H15.0001C16.1766 24.0451 17.3531 25.2181 17.3531 26.391V35.188C17.0589 36.3609 16.1766 37.5339 15.0001 37.5339Z" fill="#0085FF"/>
<path d="M15 39H3.82353C1.76471 39 0 37.2406 0 35.188V26.391C0 24.3384 1.76471 22.579 3.82353 22.579H15C17.0588 22.579 18.8235 24.3384 18.8235 26.391V35.188C18.5294 37.2406 17.0588 39 15 39ZM3.82353 25.5113C3.23529 25.5113 2.94118 25.8045 2.94118 26.391V35.188C2.94118 35.7745 3.23529 36.0677 3.82353 36.0677H15C15.5882 36.0677 15.8824 35.7745 15.8824 35.188V26.391C15.8824 25.8045 15.5882 25.5113 15 25.5113H3.82353Z" fill="#0968C0"/>
<path d="M37.9423 37.5339H27.06C25.8835 37.5339 24.707 36.3609 24.707 35.188V26.391C24.707 25.2181 25.8835 24.0451 27.06 24.0451H38.2364C39.4129 24.0451 40.5894 25.2181 40.5894 26.391V35.188C40.2953 36.3609 39.1188 37.5339 37.9423 37.5339Z" fill="#0085FF"/>
<path d="M37.9422 39H27.0599C25.001 39 23.2363 37.2406 23.2363 35.188V26.391C23.2363 24.3384 25.001 22.579 27.0599 22.579H38.2363C40.2952 22.579 42.0599 24.3384 42.0599 26.391V35.188C41.7657 37.2406 40.001 39 37.9422 39ZM27.0599 25.5113C26.4716 25.5113 26.1775 25.8045 26.1775 26.391V35.188C26.1775 35.7745 26.4716 36.0677 27.0599 36.0677H38.2363C38.8246 36.0677 39.1187 35.7745 39.1187 35.188V26.391C39.1187 25.8045 38.8246 25.5113 38.2363 25.5113H27.0599Z" fill="#0968C0"/>
<path d="M61.1759 37.5339H49.9994C48.823 37.5339 47.6465 36.3609 47.6465 35.188V26.391C47.6465 25.2181 48.823 24.0451 49.9994 24.0451H61.1759C62.3524 24.0451 63.5288 25.2181 63.5288 26.391V35.188C63.5288 36.3609 62.3524 37.5339 61.1759 37.5339Z" fill="#0085FF"/>
<path d="M61.1758 39H49.9993C47.9405 39 46.1758 37.2406 46.1758 35.188V26.391C46.1758 24.3384 47.9405 22.579 49.9993 22.579H61.1758C63.2346 22.579 64.9993 24.3384 64.9993 26.391V35.188C64.9993 37.2406 63.2346 39 61.1758 39ZM49.9993 25.5113C49.4111 25.5113 49.117 25.8045 49.117 26.391V35.188C49.117 35.7745 49.4111 36.0677 49.9993 36.0677H61.1758C61.764 36.0677 62.0581 35.7745 62.0581 35.188V26.391C62.0581 25.8045 61.764 25.5113 61.1758 25.5113H49.9993Z" fill="#0968C0"/>
</g>
<defs>
<clipPath id="clip0">
<rect width="65" height="39" fill="white"/>
</clipPath>
</defs>
</svg>
