<svg width="55" height="52" viewBox="0 0 55 52" fill="none" xmlns="http://www.w3.org/2000/svg">
<g clip-path="url(#clip0)">
<path d="M16.9652 14.625L1.36816 24.9166V40.3541L16.9652 50.6458L32.5622 40.3541V24.9166L16.9652 14.625Z" fill="#0085FF"/>
<path d="M16.9652 52L0 40.8958V24.1041L16.9652 13L33.9303 24.1041V40.8958L16.9652 52ZM2.73632 39.2708L16.9652 48.75L31.194 39.5416V25.4583L16.9652 16.25L2.73632 25.4583V39.2708Z" fill="#0968C0"/>
<path d="M16.9652 33.5833L6.84082 27.0833L16.9652 20.3125L27.0896 27.0833L16.9652 33.5833Z" fill="white"/>
<path d="M39.9498 1.625L30.9199 7.58333V16.5208L39.9498 22.4792L48.9796 16.5208V7.58333L39.9498 1.625Z" fill="#0085FF"/>
<path d="M39.9498 24.1042L29.5518 17.3333V6.77083L39.9498 0L50.3478 6.77083V17.0625L39.9498 24.1042ZM32.2881 15.7083L39.9498 20.8542L47.6115 15.7083V8.39583L39.9498 3.25L32.2881 8.39583V15.7083Z" fill="#0968C0"/>
<path d="M39.9498 11.9167L35.0244 8.66666L39.9498 5.41666L45.1488 8.66666L39.9498 11.9167Z" fill="white"/>
<path d="M46.244 30.875L38.856 35.75V43.0625L46.244 47.9375L53.6321 43.0625V35.75L46.244 30.875Z" fill="#0085FF"/>
<path d="M46.244 49.5625L37.4878 43.875V35.2083L46.244 29.5208L55.0002 35.2083V43.875L46.244 49.5625ZM40.2241 42.5208L46.244 46.5833L52.2639 42.5208V36.5625L46.244 32.5L40.2241 36.5625V42.5208Z" fill="#0968C0"/>
<path d="M46.2437 39.5416L42.6865 37.1041L46.2437 34.9375L49.8009 37.1041L46.2437 39.5416Z" fill="white"/>
</g>
<defs>
<clipPath id="clip0">
<rect width="55" height="52" fill="white"/>
</clipPath>
</defs>
</svg>
