<svg width="44" height="57" viewBox="0 0 44 57" fill="none" xmlns="http://www.w3.org/2000/svg">
<path d="M42.5802 1.40393H1.41895V55.596H42.5802V1.40393Z" fill="#0085FF"/>
<path d="M44 57H0V0H44V57ZM2.83871 54.1921H41.1613V2.80788H2.83871V54.1921Z" fill="#0968C0"/>
<path d="M28.1038 11.2315H9.08439C8.23278 11.2315 7.66504 10.67 7.66504 9.82759C7.66504 8.98522 8.23278 8.42365 9.08439 8.42365H28.1038C28.9554 8.42365 29.5231 8.98522 29.5231 9.82759C29.5231 10.67 28.9554 11.2315 28.1038 11.2315Z" fill="white"/>
<path d="M23.8457 22.4631H9.08439C8.23278 22.4631 7.66504 21.6207 7.66504 21.0591C7.66504 20.4975 8.23278 19.6552 9.08439 19.6552H23.8457C24.6973 19.6552 25.265 20.2168 25.265 21.0591C25.265 21.9015 24.6973 22.4631 23.8457 22.4631Z" fill="white"/>
<path d="M23.8457 48.0148H9.08439C8.23278 48.0148 7.66504 47.4532 7.66504 46.6109C7.66504 45.7685 8.23278 45.2069 9.08439 45.2069H23.8457C24.6973 45.2069 25.265 45.7685 25.265 46.6109C25.265 47.4532 24.6973 48.0148 23.8457 48.0148Z" fill="white"/>
<path d="M19.5876 16.8473H9.08439C8.23278 16.8473 7.66504 16.2857 7.66504 15.4433C7.66504 14.601 8.23278 14.0394 9.08439 14.0394H19.5876C20.4392 14.0394 21.007 14.601 21.007 15.4433C21.007 16.2857 20.4392 16.8473 19.5876 16.8473Z" fill="white"/>
<path d="M28.6719 16.8473H23.8461C22.9945 16.8473 22.4268 16.2857 22.4268 15.4433C22.4268 14.601 22.9945 14.0394 23.8461 14.0394H28.6719C29.5235 14.0394 30.0913 14.601 30.0913 15.4433C30.0913 16.2857 29.5235 16.8473 28.6719 16.8473Z" fill="white"/>
</svg>
