<svg width="43" height="57" viewBox="0 0 43 57" fill="none" xmlns="http://www.w3.org/2000/svg">
<path d="M41.5855 21.3399C41.5855 38.7488 21.5 55.0345 21.5 55.0345C21.5 55.0345 1.41443 38.1872 1.41443 21.3399C1.41443 10.3892 10.4671 1.40393 21.5 1.40393C32.5328 1.40393 41.5855 10.3892 41.5855 21.3399Z" fill="#0085FF"/>
<path d="M21.5 57L20.6513 56.1576C19.8026 55.5961 0 38.7488 0 21.3399C0 9.5468 9.61842 0 21.5 0C33.3816 0 43 9.5468 43 21.3399C43 39.0296 23.1974 55.5961 22.3487 56.1576L21.5 57ZM21.5 2.80788C11.3158 2.80788 2.82895 11.2315 2.82895 21.3399C2.82895 35.3793 17.8224 49.6995 21.5 53.3498C25.4605 49.9803 40.1711 35.6601 40.1711 21.3399C40.1711 11.2315 31.9671 2.80788 21.5 2.80788Z" fill="#0968C0"/>
<path d="M28.5723 21.9015C28.5723 25.8326 25.4605 28.9212 21.5 28.9212C17.5395 28.9212 14.4276 25.8326 14.4276 21.9015C14.4276 17.9705 17.5395 14.8818 21.5 14.8818C25.4605 14.8818 28.5723 17.9705 28.5723 21.9015Z" fill="white"/>
</svg>
