<svg width="20" height="20" viewBox="0 0 20 20" fill="none" xmlns="http://www.w3.org/2000/svg">
<path d="M7.14552 1.20966C4.88052 1.98466 2.95052 3.67966 1.87552 5.82466C1.50052 6.56466 1.23052 7.34966 1.06552 8.16466C0.655519 10.1847 0.940519 12.3397 1.87052 14.1797C2.47552 15.3797 3.34552 16.4497 4.39552 17.2847C5.39052 18.0747 6.54552 18.6647 7.77552 18.9897C9.32552 19.4047 10.9755 19.3947 12.5355 19.0397C13.9455 18.7147 15.2805 18.0397 16.3455 17.0597C17.4705 16.0247 18.2755 14.6647 18.7005 13.1997C19.1655 11.6047 19.2255 9.89966 18.9355 8.25966C16.0205 8.25966 13.1005 8.25966 10.1855 8.25966C10.1855 9.46966 10.1855 10.6797 10.1855 11.8897C11.8755 11.8897 13.5655 11.8897 15.2555 11.8897C15.0605 13.0497 14.3705 14.1097 13.3955 14.7647C12.7805 15.1797 12.0755 15.4447 11.3455 15.5747C10.6155 15.6997 9.85552 15.7147 9.12552 15.5697C8.38052 15.4197 7.67552 15.1097 7.05552 14.6747C6.06552 13.9797 5.31052 12.9647 4.92552 11.8197C4.53052 10.6547 4.52552 9.35966 4.92552 8.19966C5.20552 7.37966 5.66552 6.62466 6.27552 6.00466C7.02552 5.23466 8.00052 4.68466 9.05552 4.45966C9.95552 4.26966 10.9055 4.30466 11.7855 4.56966C12.5355 4.79466 13.2255 5.20966 13.7905 5.74966C14.3605 5.17966 14.9305 4.60966 15.5005 4.03966C15.8005 3.73466 16.1155 3.43966 16.4055 3.12466C15.5405 2.32466 14.5205 1.67966 13.4105 1.26966C11.4105 0.529664 9.16052 0.514664 7.14552 1.20966Z" fill="white"/>
<path d="M7.145 1.21024C9.155 0.515243 11.41 0.530243 13.41 1.26524C14.52 1.67524 15.535 2.31524 16.405 3.12024C16.115 3.43524 15.8 3.73024 15.5 4.03524C14.93 4.60524 14.36 5.17524 13.79 5.74524C13.225 5.20524 12.535 4.79524 11.785 4.56524C10.905 4.30024 9.955 4.26024 9.055 4.45524C8.005 4.68024 7.03 5.23024 6.275 6.00024C5.665 6.61524 5.205 7.37524 4.925 8.19524C3.91 7.40524 2.895 6.62024 1.875 5.83024C2.95 3.68024 4.88 1.98524 7.145 1.21024Z" fill="#EA4335"/>
<path d="M1.07111 8.16031C1.23611 7.35031 1.50611 6.56031 1.88111 5.82031C2.89611 6.61031 3.91111 7.39531 4.93111 8.18531C4.53111 9.35031 4.53111 10.6453 4.93111 11.8053C3.91611 12.5953 2.90111 13.3853 1.88611 14.1703C0.946115 12.3353 0.661115 10.1803 1.07111 8.16031Z" fill="#FBBC05"/>
<path d="M10.1847 8.25586C13.0997 8.25586 16.0197 8.25586 18.9347 8.25586C19.2247 9.89086 19.1597 11.5959 18.6997 13.1959C18.2747 14.6609 17.4697 16.0209 16.3447 17.0559C15.3597 16.2909 14.3747 15.5259 13.3897 14.7609C14.3647 14.1059 15.0547 13.0459 15.2497 11.8859C13.5597 11.8859 11.8697 11.8859 10.1797 11.8859C10.1847 10.6759 10.1847 9.46586 10.1847 8.25586Z" fill="#4285F4"/>
<path d="M1.875 14.1756C2.89 13.3906 3.905 12.6005 4.92 11.8105C5.31 12.9556 6.06 13.9706 7.05 14.6656C7.67 15.1006 8.38 15.4106 9.12 15.5606C9.85 15.7106 10.605 15.6906 11.34 15.5656C12.07 15.4356 12.775 15.1706 13.39 14.7556C14.375 15.5206 15.36 16.2856 16.345 17.0506C15.28 18.0356 13.945 18.7056 12.535 19.0306C10.975 19.3856 9.325 19.3956 7.775 18.9806C6.545 18.6556 5.39 18.0706 4.395 17.2756C3.35 16.4456 2.48 15.3756 1.875 14.1756Z" fill="#34A853"/>
</svg>
