<svg width="141" height="169" viewBox="0 0 141 169" fill="none" xmlns="http://www.w3.org/2000/svg">
<path d="M141 64.3066V76.4657L71.0109 130.753L0 75.6094V64.3066H141Z" fill="#0085FF"/>
<path d="M141 64.3058V56.2569C141 53.6881 139.808 51.1193 137.764 49.578L76.1196 1.79816C73.0543 -0.599388 68.9674 -0.599388 65.9022 1.79816L3.23551 50.4342C1.19203 51.9755 0 54.3731 0 57.1131V64.3058H141Z" fill="#0085FF"/>
<path d="M119.714 136.061H21.2863C20.2645 136.061 19.4131 135.205 19.4131 134.177V60.5381C19.4131 59.5106 20.2645 58.6543 21.2863 58.6543H119.714C120.736 58.6543 121.587 59.5106 121.587 60.5381V134.177C121.417 135.205 120.565 136.061 119.714 136.061Z" fill="#D1DFE8"/>
<path d="M71.0109 130.753L0 75.6094V160.894C0 164.833 3.23551 168.086 7.15217 168.086H133.848C137.764 168.086 141 164.833 141 160.894V76.4656L71.0109 130.753Z" fill="white"/>
</svg>
