<svg width="230" height="181" viewBox="0 0 230 181" fill="none" xmlns="http://www.w3.org/2000/svg">
<path d="M215.607 180.998H14.3926C6.4908 180.998 0 174.463 0 166.507V53.4171C0 45.4611 6.4908 38.9258 14.3926 38.9258H215.607C223.509 38.9258 230 45.4611 230 53.4171V166.507C230 174.463 223.509 180.998 215.607 180.998Z" fill="white"/>
<path d="M54.4657 111.668H31.6068C26.5271 111.668 22.5762 107.406 22.5762 102.291V89.2205C22.5762 84.1059 26.8093 79.8438 31.8891 79.8438H54.7479C59.8277 79.8438 64.0608 84.1059 64.0608 89.2205V102.291C63.7786 107.406 59.5455 111.668 54.4657 111.668Z" fill="#0085FF"/>
<path d="M60.9565 141.219H22.5762V150.027H60.9565V141.219Z" fill="#D1DFE8"/>
<path d="M110.062 141.219H71.6816V150.027H110.062V141.219Z" fill="#D1DFE8"/>
<path d="M60.9565 158.553H22.5762V167.361H60.9565V158.553Z" fill="#D1DFE8"/>
<path d="M110.062 158.553H71.6816V167.361H110.062V158.553Z" fill="#D1DFE8"/>
<path d="M159.167 141.219H120.787V150.027H159.167V141.219Z" fill="#D1DFE8"/>
<path d="M208.554 141.219H170.174V150.027H208.554V141.219Z" fill="#D1DFE8"/>
<path d="M200.933 45.1785H160.295V24.7201C160.295 13.3543 169.326 4.26172 180.614 4.26172C191.902 4.26172 200.933 13.3543 200.933 24.7201V45.1785Z" stroke="#0085FF" stroke-width="7" stroke-miterlimit="10"/>
<path d="M229.999 53.1339V109.679L152.674 73.8765L162.833 38.6426H215.606C223.508 38.6426 229.999 45.1779 229.999 53.1339Z" fill="#0085FF"/>
<path d="M208.269 29.5508H152.674V74.1615H208.269V29.5508Z" fill="#D1DFE8"/>
<path d="M180.612 54.8389C182.638 54.8389 184.281 53.1851 184.281 51.145C184.281 49.105 182.638 47.4512 180.612 47.4512C178.586 47.4512 176.943 49.105 176.943 51.145C176.943 53.1851 178.586 54.8389 180.612 54.8389Z" fill="#0085FF"/>
<path d="M181.74 52.8514L180.611 51.1465L179.482 52.8514L178.354 63.3647L180.611 64.5013L182.869 63.3647L181.74 52.8514Z" fill="#0085FF"/>
</svg>
