<svg xmlns="http://www.w3.org/2000/svg" viewBox="0 0 24.45 23.6"><title>ico-support</title><path d="M7.7,23.6a.46.46,0,0,1-.23-.05A.6.6,0,0,1,7.1,23V19.58A7.7,7.7,0,0,1,7.7,4.2h7.2a.6.6,0,0,1,0,1.2H7.7a6.5,6.5,0,0,0,0,13,.6.6,0,0,1,.6.6v2.55l3-3a.56.56,0,0,1,.42-.18H15a6.69,6.69,0,0,0,6.33-4.68.6.6,0,0,1,1.14.36A7.89,7.89,0,0,1,15,19.6H12L8.12,23.42A.56.56,0,0,1,7.7,23.6Z"/><path d="M15.27,15h-.15a.64.64,0,0,1-.27-.11l-2.4-1.7a.61.61,0,0,1-.15-.83L14,9.86a.62.62,0,0,1,.82-.17l.8.5A1,1,0,0,0,16.94,10l3.37-4.77A1,1,0,0,0,20.16,4l-.73-.36a.61.61,0,0,1-.31-.39.65.65,0,0,1,.08-.49L20.9.26A.66.66,0,0,1,21.3,0a.58.58,0,0,1,.46.11l2.3,1.7a.69.69,0,0,1,.16.18c.13.23,1.18,2.39-2.63,7.84h0C18.19,14.63,15.9,15,15.27,15Zm-1.64-2.45,1.76,1.25c.45-.07,2.32-.57,5.22-4.64s2.7-6.05,2.59-6.48L21.55,1.45l-1,1.42.19.09.11.08A2.15,2.15,0,0,1,21.29,6l-3.4,4.8a2.16,2.16,0,0,1-2.94.44L14.67,11Z" fill="#0085ff"/></svg>