<svg xmlns="http://www.w3.org/2000/svg" viewBox="0 0 22.3 17.78"><title>ico-sort</title><path d="M4.85,16.38a.66.66,0,0,1-.65-.66V.72a.65.65,0,1,1,1.3,0v15A.66.66,0,0,1,4.85,16.38Z"/><path d="M4.84,17.74.19,13.08a.66.66,0,0,1,0-.92.66.66,0,0,1,.92,0l3.74,3.75L8.6,12.26a.65.65,0,1,1,.9.93Z"/><path d="M17.45,17.78a.66.66,0,0,1-.65-.65V2a.65.65,0,0,1,1.3,0V17.13A.66.66,0,0,1,17.45,17.78Z" fill="#0085ff"/><path d="M13.25,5.87a.64.64,0,0,1-.46-1.1L17.44,0l4.67,4.67a.65.65,0,0,1-.92.91L17.46,1.85,13.71,5.68A.62.62,0,0,1,13.25,5.87Z" fill="#0085ff"/></svg>