<svg xmlns="http://www.w3.org/2000/svg" viewBox="0 0 22.3 20.3"><title>ico-signin</title><path d="M19.82,20.3H10.48A2.47,2.47,0,0,1,8,17.84a.65.65,0,0,1,1.3,0A1.17,1.17,0,0,0,10.48,19h9.34A1.17,1.17,0,0,0,21,17.84V2.46A1.17,1.17,0,0,0,19.82,1.3H10.48A1.17,1.17,0,0,0,9.3,2.46a.65.65,0,1,1-1.3,0A2.47,2.47,0,0,1,10.48,0h9.34A2.47,2.47,0,0,1,22.3,2.46V17.84A2.47,2.47,0,0,1,19.82,20.3Z"/><path d="M10.61,10.8H.65a.65.65,0,0,1,0-1.3h10a.65.65,0,0,1,0,1.3Z" fill="#0085ff"/><path d="M7.65,14.89a.65.65,0,0,1-.47-1.1l3.51-3.64L7.09,6.42A.65.65,0,0,1,8,5.52l4.47,4.63L8.12,14.69A.67.67,0,0,1,7.65,14.89Z" fill="#0085ff"/></svg>