<svg xmlns="http://www.w3.org/2000/svg" viewBox="0 0 30.91 22.2"><title>ico-map</title><path d="M25.43,20.33,25,20a18.93,18.93,0,0,1-2.41-2.5.65.65,0,0,1,1-.82,20.43,20.43,0,0,0,1.82,2c1.13-1,4.17-4.09,4.17-7.21a4.09,4.09,0,0,0-3.35-4.1.64.64,0,0,1-.54-.74A.66.66,0,0,1,26.47,6a5.38,5.38,0,0,1,4.44,5.38c0,4.43-4.86,8.41-5.07,8.58Z" fill="#0085ff"/><path d="M5.48,20.33,5.07,20C4.86,19.83,0,15.85,0,11.42A5.38,5.38,0,0,1,4.44,6a.66.66,0,0,1,.75.54.64.64,0,0,1-.53.74,4.09,4.09,0,0,0-3.36,4.1c0,3.13,3,6.18,4.17,7.21a20.43,20.43,0,0,0,1.82-2,.65.65,0,0,1,.92-.09.64.64,0,0,1,.09.91A18.93,18.93,0,0,1,5.89,20Z" fill="#0085ff"/><path d="M15.5,22.2l-.42-.35c-.32-.28-7.93-6.77-7.93-13.5a8.36,8.36,0,0,1,16.71,0c0,6.92-7.62,13.24-7.95,13.5Zm0-20.9a7.05,7.05,0,0,0-7,7.05c0,5.27,5.49,10.69,7.06,12.13,1.57-1.41,7-6.71,7-12.13A7.06,7.06,0,0,0,15.5,1.3Z"/><path d="M15.5,10.68a2.6,2.6,0,1,0-2.6-2.6A2.6,2.6,0,0,0,15.5,10.68Z"/></svg>