<svg width="483" height="254" viewBox="0 0 483 254" fill="none" xmlns="http://www.w3.org/2000/svg">
<rect width="483" height="254" fill="#F2F6F7"/>
<path d="M329 105.948V118.725L242.234 175.771L154.201 117.825V105.948H329Z" fill="#0085FF"/>
<path d="M329 105.949V97.4911C329 94.7918 327.522 92.0924 324.988 90.4728L248.567 40.2655C244.767 37.7461 239.7 37.7461 235.9 40.2655L158.212 91.3726C155.679 92.9922 154.201 95.5116 154.201 98.3909V105.949H329Z" fill="#0085FF"/>
<path d="M302.611 181.35H180.59C179.323 181.35 178.268 180.45 178.268 179.371V101.99C178.268 100.911 179.323 100.011 180.59 100.011H302.611C303.877 100.011 304.933 100.911 304.933 101.99V179.371C304.722 180.45 303.666 181.35 302.611 181.35Z" fill="#F2F2F2"/>
<path d="M242.234 175.771L154.201 117.825V207.443C154.201 211.582 158.212 215.001 163.068 215.001H320.133C324.988 215.001 329 211.582 329 207.443V118.725L242.234 175.771Z" fill="white"/>
</svg>
