<svg width="175" height="177" viewBox="0 0 175 177" fill="none" xmlns="http://www.w3.org/2000/svg">
<path d="M175 67.9482V80.725L88.2337 137.771L0.201172 79.8252V67.9482H175Z" fill="#0085FF"/>
<path d="M175 67.9489V59.4911C175 56.7918 173.522 54.0924 170.988 52.4728L94.5669 2.2655C90.767 -0.253865 85.7004 -0.253865 81.9004 2.2655L4.21224 53.3726C1.67894 54.9922 0.201172 57.5116 0.201172 60.3909V67.9489H175Z" fill="#0085FF"/>
<path d="M148.611 143.35H26.5898C25.3231 143.35 24.2676 142.45 24.2676 141.371V63.9902C24.2676 62.9105 25.3231 62.0107 26.5898 62.0107H148.611C149.877 62.0107 150.933 62.9105 150.933 63.9902V141.371C150.722 142.45 149.666 143.35 148.611 143.35Z" fill="#F2F2F2"/>
<path d="M88.2337 137.771L0.201172 79.8252V169.443C0.201172 173.582 4.21224 177.001 9.06775 177.001H166.133C170.988 177.001 175 173.582 175 169.443V80.725L88.2337 137.771Z" fill="white"/>
</svg>
