<svg width="483" height="255" viewBox="0 0 483 255" fill="none" xmlns="http://www.w3.org/2000/svg">
<rect width="483" height="254" fill="#F2F6F7"/>
<g clip-path="url(#clip0)">
<path d="M287.204 98.8849C285.994 101.504 284.581 103.921 282.967 106.338C274.289 118.626 259.962 126.683 243.818 126.683C217.382 126.683 195.992 105.331 195.992 78.9424C195.79 52.3525 217.18 31 243.616 31C255.724 31 266.621 35.4317 275.097 42.6835C277.316 44.4964 279.334 46.7122 280.949 48.9281C272.473 53.3597 266.621 62.4245 266.621 72.6978C266.621 85.3885 275.5 95.8633 287.204 98.8849Z" fill="#0085FF"/>
<path d="M300 79.8548C300 89.7258 297.806 98.7742 293.968 107C278.065 103.161 266 88.629 266 71.3548C266 57.371 273.952 45.0323 285.468 39C294.516 50.5161 300 64.5 300 79.8548Z" fill="#57A8F3"/>
<path d="M352.184 123.259L322.318 93.2449C326.555 87.4031 328.977 80.3528 328.977 72.6981C328.977 53.36 313.035 37.4463 293.662 37.4463C286.801 37.4463 280.545 39.4607 275.097 42.6837C265.007 48.9283 258.348 60.0074 258.348 72.6981C258.348 88.4103 268.639 101.705 282.967 106.338C286.398 107.346 289.828 107.95 293.662 107.95C301.331 107.95 308.394 105.533 314.246 101.302L344.314 131.317C346.533 133.533 350.166 133.533 352.386 131.317C354.404 129.101 354.404 125.475 352.184 123.259ZM293.662 99.4895C291.443 99.4895 289.223 99.288 287.205 98.6837C275.501 95.8636 266.621 85.1873 266.621 72.4967C266.621 62.2233 272.474 53.1585 280.949 48.7269C284.783 46.7125 289.021 45.7053 293.461 45.7053C308.394 45.7053 320.502 57.7916 320.502 72.6981C320.502 87.6046 308.394 99.4895 293.662 99.4895Z" fill="#303A43"/>
<path d="M177.629 247.547C178.234 247.748 178.638 247.748 179.243 247.547C180.252 250.165 181.463 252.583 182.876 255H304.964C306.376 252.583 307.587 250.165 308.596 247.547C309 247.748 309.605 247.748 310.009 247.547C323.933 244.324 330.39 234.856 332.812 223.978C335.435 213.101 338.664 179.057 328.776 153.676C322.117 136.554 298.506 123.863 293.865 121.647C290.838 119.633 286.398 119.834 283.573 122.655C273.281 132.525 259.357 138.568 243.819 138.568C228.28 138.568 214.558 132.525 204.065 122.655C201.441 120.237 197.607 119.633 194.378 121.446C194.378 121.446 166.127 134.741 158.66 153.878C148.772 179.46 152.001 213.302 154.624 224.18C157.247 234.856 163.705 244.324 177.629 247.547Z" fill="#0085FF"/>
<circle cx="276" cy="72" r="4" fill="white"/>
</g>
<defs>
<clipPath id="clip0">
<rect width="202" height="224" fill="white" transform="translate(152 31)"/>
</clipPath>
</defs>
</svg>
