<svg width="202" height="224" viewBox="0 0 202 224" fill="none" xmlns="http://www.w3.org/2000/svg">
<g clip-path="url(#clip0)">
<path d="M135.204 67.8849C133.994 70.5036 132.581 72.9209 130.967 75.3381C122.289 87.6259 107.962 95.6834 91.8178 95.6834C65.3823 95.6834 43.9917 74.3309 43.9917 47.9424C43.7899 21.3525 65.1805 0 91.616 0C103.724 0 114.621 4.43165 123.097 11.6835C125.316 13.4964 127.334 15.7122 128.949 17.9281C120.473 22.3597 114.621 31.4245 114.621 41.6978C114.621 54.3885 123.5 64.8633 135.204 67.8849Z" fill="#0085FF"/>
<path d="M148 48.8548C148 58.7258 145.806 67.7742 141.968 76C126.065 72.1613 114 57.629 114 40.3548C114 26.371 121.952 14.0323 133.468 8C142.516 19.5161 148 33.5 148 48.8548Z" fill="#57A8F3"/>
<path d="M200.184 92.2592L170.318 62.2449C174.555 56.4031 176.977 49.3528 176.977 41.6981C176.977 22.36 161.035 6.44629 141.662 6.44629C134.801 6.44629 128.545 8.46068 123.097 11.6837C113.007 17.9283 106.348 29.0074 106.348 41.6981C106.348 57.4103 116.639 70.7053 130.967 75.3384C134.398 76.3456 137.828 76.9499 141.662 76.9499C149.331 76.9499 156.394 74.5326 162.246 70.3024L192.314 100.317C194.533 102.533 198.166 102.533 200.386 100.317C202.404 98.101 202.404 94.4751 200.184 92.2592ZM141.662 68.4895C139.443 68.4895 137.223 68.288 135.205 67.6837C123.501 64.8636 114.621 54.1873 114.621 41.4967C114.621 31.2233 120.474 22.1585 128.949 17.7269C132.783 15.7125 137.021 14.7053 141.461 14.7053C156.394 14.7053 168.502 26.7916 168.502 41.6981C168.502 56.6046 156.394 68.4895 141.662 68.4895Z" fill="#303A43"/>
<path d="M25.6291 216.547C26.2345 216.748 26.6381 216.748 27.2435 216.547C28.2525 219.165 29.4632 221.583 30.8758 224H152.964C154.376 221.583 155.587 219.165 156.596 216.547C157 216.748 157.605 216.748 158.009 216.547C171.933 213.324 178.39 203.856 180.812 192.978C183.435 182.101 186.664 148.057 176.776 122.676C170.117 105.554 146.506 92.8632 141.865 90.6473C138.838 88.633 134.398 88.8344 131.573 91.6545C121.281 101.525 107.357 107.568 91.8189 107.568C76.2804 107.568 62.5581 101.525 52.0646 91.6545C49.4413 89.2373 45.6071 88.633 42.3783 90.4459C42.3783 90.4459 14.1266 103.741 6.66004 122.878C-3.22807 148.46 0.000703629 182.302 2.62408 193.18C5.24746 203.856 11.705 213.324 25.6291 216.547Z" fill="#0085FF"/>
<circle cx="124" cy="41" r="4" fill="white"/>
</g>
<defs>
<clipPath id="clip0">
<rect width="202" height="224" fill="white"/>
</clipPath>
</defs>
</svg>
