<svg width="20" height="20" viewBox="0 0 20 20" fill="none" xmlns="http://www.w3.org/2000/svg">
<path d="M16.1538 20H3.84615C1.79487 20 0 18.2051 0 16.1538V3.84615C0 1.79487 1.79487 0 3.84615 0H15.8974C17.9487 0 19.7436 1.79487 19.7436 3.84615V15.8974C20 18.2051 18.2051 20 16.1538 20Z" fill="#0077B7"/>
<path d="M6.92263 5.64124C6.92263 6.15407 6.66622 6.41048 6.40981 6.66689C6.1534 6.66689 5.89699 6.9233 5.38416 6.9233C4.87134 6.9233 4.61493 6.66689 4.35852 6.41048C4.10211 6.15407 3.8457 5.89766 3.8457 5.64124C3.8457 5.12842 4.10211 4.87201 4.35852 4.6156C4.61493 4.35919 4.87134 4.10278 5.38416 4.10278C5.89699 4.10278 6.1534 4.10278 6.40981 4.6156C6.66622 4.87201 6.92263 5.12842 6.92263 5.64124ZM6.66622 7.94894V15.8977H4.10211V7.94894H6.66622ZM16.1534 11.2823V15.8977H13.5893V11.5387C13.5893 11.0259 13.5893 10.513 13.3329 10.2566C13.0765 10.0002 12.5637 9.74381 12.3072 9.74381C12.0508 9.74381 11.7944 9.74381 11.538 10.0002C11.0252 10.2566 11.0252 10.513 10.7688 10.7694C10.7688 11.0259 10.7688 11.0259 10.7688 11.5387V15.8977H8.20468C8.20468 13.8464 8.20468 12.0515 8.20468 10.7694C8.20468 9.4874 8.20468 8.71817 8.20468 8.46176V8.20535H10.7688V9.23099C10.7688 8.97458 11.0252 8.97458 11.0252 8.71817C11.0252 8.71817 11.2816 8.46176 11.538 8.20535C11.7944 7.94894 12.0508 7.94894 12.3072 7.94894C12.5637 7.94894 12.8201 7.94894 13.3329 7.94894C14.1021 7.69253 14.8713 8.20535 15.3842 8.71817C15.897 9.23099 16.1534 10.2566 16.1534 11.2823Z" fill="white"/>
</svg>
