<svg width="23" height="12" viewBox="0 0 23 12" fill="none" xmlns="http://www.w3.org/2000/svg">
<path d="M21.2324 0H4.16793C1.85484 0 0 1.83453 0 4.1223V11.1151H3.90607C3.86243 10.9209 3.79696 10.7482 3.79696 10.5324C3.79696 9.43165 4.69165 8.54676 5.80455 8.54676C6.91746 8.54676 7.81214 9.43165 7.81214 10.5324C7.81214 10.7482 7.74668 10.9209 7.70304 11.1151H16.6935C16.6063 10.9209 16.5408 10.7482 16.5408 10.5324C16.5408 9.43165 17.4355 8.54676 18.5484 8.54676C19.6613 8.54676 20.556 9.43165 20.556 10.5324C20.556 10.7482 20.4905 10.9209 20.4469 11.1151H23.0218V1.7482C23 0.776978 22.2144 0 21.2324 0ZM5.41177 7.16547H2.18216V5.09352H5.41177V7.16547ZM5.41177 3.97122H2.18216V1.89928H5.41177V3.97122ZM9.60152 7.16547H6.37192V5.09352H9.60152V7.16547ZM9.60152 3.97122H6.37192V1.89928H9.60152V3.97122ZM13.7913 7.16547H10.5617V5.09352H13.7913V7.16547ZM13.7913 3.97122H10.5617V1.89928H13.7913V3.97122ZM17.981 7.16547H14.7514V5.09352H17.981V7.16547ZM17.981 3.97122H14.7514V1.89928H17.981V3.97122ZM22.149 7.16547H18.9412V5.09352H22.1708V7.16547H22.149ZM22.149 3.97122H18.9412V1.89928H22.1708V3.97122H22.149Z" fill="#D82C2C"/>
<path d="M5.80445 12.0007C6.56371 12.0007 7.17921 11.3919 7.17921 10.641C7.17921 9.89001 6.56371 9.28125 5.80445 9.28125C5.04519 9.28125 4.42969 9.89001 4.42969 10.641C4.42969 11.3919 5.04519 12.0007 5.80445 12.0007Z" fill="#181C28"/>
<path d="M19.9453 10.641C19.9453 11.3964 19.3343 12.0007 18.5706 12.0007C17.8068 12.0007 17.1958 11.3964 17.1958 10.641C17.1958 9.88557 17.8068 9.28125 18.5706 9.28125C19.3343 9.28125 19.9453 9.88557 19.9453 10.641Z" fill="#181C28"/>
</svg>
