<svg width="28" height="25" viewBox="0 0 28 25" fill="none" xmlns="http://www.w3.org/2000/svg">
<path d="M17.61 1.6C22.34 1.6 26.19 5.45 26.19 10.18C26.19 14.91 22.34 18.76 17.61 18.76H14.24H14.12C13.63 18.76 13.17 18.98 12.86 19.37L10.81 21.97L10.27 19.85C10.11 19.22 9.59 18.76 8.95 18.66C4.76 18.04 1.6 14.4 1.6 10.18C1.6 5.45 5.45 1.6 10.18 1.6H17.61ZM17.61 0H10.17C4.58 0 0 4.58 0 10.18C0 15.28 3.81 19.53 8.73 20.24L9.81 24.46C9.88 24.71 10.1 24.86 10.32 24.86C10.47 24.86 10.62 24.8 10.73 24.66L14.12 20.36H14.24H17.61C23.21 20.36 27.79 15.78 27.79 10.18C27.79 4.58 23.21 0 17.61 0Z" fill="black"/>
<path d="M19.58 8.58H7.57C7.13 8.58 6.77 8.22 6.77 7.78C6.77 7.34 7.13 6.98 7.57 6.98H19.59C20.03 6.98 20.39 7.34 20.39 7.78C20.39 8.22 20.03 8.58 19.58 8.58Z" fill="#0085FF"/>
<path d="M13.9 13.74H7.57C7.13 13.74 6.77 13.38 6.77 12.94C6.77 12.5 7.13 12.14 7.57 12.14H13.9C14.34 12.14 14.7 12.5 14.7 12.94C14.7 13.38 14.34 13.74 13.9 13.74Z" fill="#0085FF"/>
</svg>
