<svg width="29" height="25" viewBox="0 0 29 25" fill="none" xmlns="http://www.w3.org/2000/svg">
<path d="M26.58 1.6C26.79 1.6 26.95 1.77 26.95 1.97V22.87C26.95 23.08 26.78 23.24 26.58 23.24H1.97C1.76 23.24 1.6 23.07 1.6 22.87V1.97C1.6 1.76 1.77 1.6 1.97 1.6H26.58ZM26.58 0H1.97C0.88 0 0 0.88 0 1.97V22.87C0 23.96 0.88 24.84 1.97 24.84H26.58C27.67 24.84 28.55 23.96 28.55 22.87V1.97C28.56 0.88 27.67 0 26.58 0Z" fill="black"/>
<path d="M28.56 6.89H0V8.49H28.56V6.89Z" fill="black"/>
<g class="c-days">
<path d="M6.74 13.9H5.59C5.15 13.9 4.79 13.54 4.79 13.1C4.79 12.66 5.15 12.3 5.59 12.3H6.74C7.18 12.3 7.54 12.66 7.54 13.1C7.54 13.54 7.18 13.9 6.74 13.9Z" fill="#0085FF"/>
<path d="M12.21 13.9H11.06C10.62 13.9 10.26 13.54 10.26 13.1C10.26 12.66 10.62 12.3 11.06 12.3H12.21C12.65 12.3 13.01 12.66 13.01 13.1C13.01 13.54 12.65 13.9 12.21 13.9Z" fill="#0085FF"/>
<path d="M17.69 13.9H16.54C16.1 13.9 15.74 13.54 15.74 13.1C15.74 12.66 16.1 12.3 16.54 12.3H17.69C18.13 12.3 18.49 12.66 18.49 13.1C18.49 13.54 18.13 13.9 17.69 13.9Z" fill="#0085FF"/>
<path d="M23.16 13.9H22.01C21.57 13.9 21.21 13.54 21.21 13.1C21.21 12.66 21.57 12.3 22.01 12.3H23.16C23.6 12.3 23.96 12.66 23.96 13.1C23.96 13.54 23.6 13.9 23.16 13.9Z" fill="#0085FF"/>
<path d="M6.74 18.53H5.59C5.15 18.53 4.79 18.17 4.79 17.73C4.79 17.29 5.15 16.93 5.59 16.93H6.74C7.18 16.93 7.54 17.29 7.54 17.73C7.54 18.17 7.18 18.53 6.74 18.53Z" fill="#0085FF"/>
<path d="M12.21 18.53H11.06C10.62 18.53 10.26 18.17 10.26 17.73C10.26 17.29 10.62 16.93 11.06 16.93H12.21C12.65 16.93 13.01 17.29 13.01 17.73C13.01 18.17 12.65 18.53 12.21 18.53Z" fill="#0085FF"/>
<path d="M17.69 18.53H16.54C16.1 18.53 15.74 18.17 15.74 17.73C15.74 17.29 16.1 16.93 16.54 16.93H17.69C18.13 16.93 18.49 17.29 18.49 17.73C18.49 18.17 18.13 18.53 17.69 18.53Z" fill="#0085FF"/>
<path d="M23.16 18.53H22.01C21.57 18.53 21.21 18.17 21.21 17.73C21.21 17.29 21.57 16.93 22.01 16.93H23.16C23.6 16.93 23.96 17.29 23.96 17.73C23.96 18.17 23.6 18.53 23.16 18.53Z" fill="#0085FF"/>
</g>
</svg>
