<svg width="23" height="13" viewBox="0 0 23 13" fill="none" xmlns="http://www.w3.org/2000/svg">
<path d="M16.5733 1.64812C16.9635 1.20055 16.8717 0.569874 16.3667 0.224022C15.8617 -0.121831 15.1501 -0.0607985 14.7599 0.386776L9.13616 6.81557L8.24095 5.79836C7.85073 5.35078 7.1162 5.26941 6.63417 5.61526C6.12918 5.96111 6.03736 6.61213 6.42758 7.03936L7.6671 8.46346L6.03736 10.3351L2.04335 5.79836C1.65313 5.35078 0.9186 5.26941 0.436564 5.61526C-0.0684261 5.96111 -0.160242 6.59178 0.229977 7.03936L5.1192 12.6137C5.14215 12.634 5.18806 12.6544 5.21101 12.6747C5.25692 12.7154 5.27988 12.7561 5.32578 12.7968C5.34874 12.8171 5.39465 12.7968 5.4176 12.8171C5.60123 12.9189 5.80782 13.0002 6.03736 13.0002C6.2669 13.0002 6.47349 12.9392 6.65712 12.8171C6.68008 12.7968 6.72598 12.8171 6.74894 12.7968C6.79485 12.7561 6.8178 12.7154 6.86371 12.6747C6.88666 12.6544 6.90962 12.634 6.93257 12.6137L16.5733 1.64812Z" fill="#0085FF"/>
<path d="M22.5393 0.223981C22.0343 -0.121871 21.3228 -0.0404943 20.9325 0.40708L12.2559 10.2944L12.1411 10.1723C11.7739 9.72476 11.0393 9.6027 10.5343 9.94855C10.0293 10.2741 9.89162 10.9047 10.2818 11.3726L11.2918 12.6137C11.3148 12.6137 11.3377 12.634 11.3836 12.6543C11.4295 12.695 11.4525 12.7561 11.5214 12.7967C11.5443 12.8171 11.5673 12.7967 11.5902 12.8171C11.7739 12.9392 11.9804 13.0002 12.21 13.0002C12.4166 13.0002 12.6232 12.9392 12.8068 12.8374C12.8297 12.8171 12.8527 12.8374 12.8757 12.8171C12.9445 12.7764 12.9675 12.7357 13.0134 12.6747C13.0593 12.6543 13.0822 12.634 13.1281 12.6137L22.7689 1.64808C23.1361 1.20051 23.0443 0.569834 22.5393 0.223981Z" fill="#0085FF"/>
</svg>
