<svg width="47" height="40" viewBox="0 0 47 40" fill="none" xmlns="http://www.w3.org/2000/svg">
<g clip-path="url(#clip0)">
<path d="M10.7261 10.7317H1.56017C0.780083 10.7317 0 9.95122 0 9.17073V1.56098C0 0.780488 0.780083 0 1.56017 0H10.7261C11.7012 0 12.2863 0.780488 12.2863 1.56098V9.17073C12.2863 9.95122 11.7012 10.7317 10.7261 10.7317ZM3.12033 7.60976H9.16597V3.12195H3.12033V7.60976Z" fill="#0085FF"/>
<path d="M28.0836 10.7317H18.9176C18.1375 10.7317 17.3574 9.95122 17.3574 9.17073V1.56098C17.3574 0.780488 18.1375 0 18.9176 0H28.0836C28.8636 0 29.6437 0.780488 29.6437 1.56098V9.17073C29.6437 9.95122 29.0587 10.7317 28.0836 10.7317ZM20.4778 7.60976H26.5234V3.12195H20.4778V7.60976Z" fill="black"/>
<path d="M45.441 10.7317H36.275C35.4949 10.7317 34.7148 9.95122 34.7148 9.17073V1.56098C34.7148 0.780488 35.4949 0 36.275 0H45.441C46.2211 0 47.0012 0.780488 47.0012 1.56098V9.17073C47.0012 9.95122 46.4161 10.7317 45.441 10.7317ZM37.8352 7.60976H43.8808V3.12195H37.8352V7.60976Z" fill="black"/>
<path d="M10.7261 25.3665H1.56017C0.780083 25.3665 0 24.586 0 23.8055V16.1957C0 15.4153 0.780083 14.6348 1.56017 14.6348H10.7261C11.5062 14.6348 12.2863 15.4153 12.2863 16.1957V23.8055C12.2863 24.586 11.7012 25.3665 10.7261 25.3665ZM3.12033 22.2445H9.16597V17.7567H3.12033V22.2445Z" fill="black"/>
<path d="M28.0836 25.3665H18.9176C18.1375 25.3665 17.3574 24.586 17.3574 23.8055V16.1957C17.3574 15.4153 18.1375 14.6348 18.9176 14.6348H28.0836C28.8636 14.6348 29.6437 15.4153 29.6437 16.1957V23.8055C29.6437 24.586 29.0587 25.3665 28.0836 25.3665ZM20.4778 22.2445H26.5234V17.7567H20.4778V22.2445Z" fill="black"/>
<path d="M45.441 25.3665H36.275C35.4949 25.3665 34.7148 24.586 34.7148 23.8055V16.1957C34.7148 15.4153 35.4949 14.6348 36.275 14.6348H45.441C46.2211 14.6348 47.0012 15.4153 47.0012 16.1957V23.8055C47.0012 24.586 46.4161 25.3665 45.441 25.3665ZM37.8352 22.2445H43.8808V17.7567H37.8352V22.2445Z" fill="black"/>
<path d="M10.7261 39.9993H1.56017C0.780083 39.9993 0 39.2188 0 38.4383V30.8286C0 29.8529 0.780083 29.2676 1.56017 29.2676H10.7261C11.5062 29.2676 12.2863 30.0481 12.2863 30.8286V38.4383C12.2863 39.2188 11.7012 39.9993 10.7261 39.9993ZM3.12033 36.8773H9.16597V32.3895H3.12033V36.8773Z" fill="black"/>
<path d="M28.0836 39.9993H18.9176C18.1375 39.9993 17.3574 39.2188 17.3574 38.4383V30.8286C17.3574 30.0481 18.1375 29.2676 18.9176 29.2676H28.0836C28.8636 29.2676 29.6437 30.0481 29.6437 30.8286V38.4383C29.6437 39.2188 29.0587 39.9993 28.0836 39.9993ZM20.4778 36.8773H26.5234V32.3895H20.4778V36.8773Z" fill="black"/>
<path d="M45.441 39.9993H36.275C35.4949 39.9993 34.7148 39.2188 34.7148 38.4383V30.8286C34.7148 30.0481 35.4949 29.2676 36.275 29.2676H45.441C46.2211 29.2676 47.0012 30.0481 47.0012 30.8286V38.4383C47.0012 39.2188 46.4161 39.9993 45.441 39.9993ZM37.8352 36.8773H43.8808V32.3895H37.8352V36.8773Z" fill="black"/>
</g>
<defs>
<clipPath id="clip0">
<rect width="47" height="40" fill="white"/>
</clipPath>
</defs>
</svg>
