<svg width="17" height="17" viewBox="0 0 17 17" fill="none" xmlns="http://www.w3.org/2000/svg">
<path d="M16.9332 15.2088C16.9777 15.2867 17 15.3868 17 15.4869C17 15.7206 16.9109 15.9319 16.7439 16.1099L16.1316 16.7107C15.9646 16.8887 15.7642 16.9778 15.5305 16.9778H15.4748C15.2299 16.9444 15.0183 16.8331 14.8513 16.644L9.99738 10.4025C9.41847 10.9143 8.87295 11.3593 8.36084 11.7487C7.84872 12.127 7.37001 12.4607 6.91356 12.7389L7.28094 15.7317V15.8318C7.28094 16.0654 7.20301 16.2657 7.04715 16.4215L6.71316 16.7552C6.54617 16.9221 6.34578 17 6.10085 17H6.06745C5.78913 16.9777 5.5776 16.8665 5.44401 16.6662L3.26195 13.7736L0.333988 11.5596C0.122462 11.3927 0.0111329 11.1813 0 10.9254V10.892C0 10.6695 0.0779306 10.4692 0.244925 10.2801L0.56778 9.96859C0.701375 9.79058 0.901768 9.70157 1.15783 9.7127C1.21349 9.7127 1.24689 9.72382 1.26916 9.73495L4.25278 10.0687C4.53111 9.62369 4.86509 9.14529 5.24361 8.63351C5.63327 8.12173 6.07859 7.5877 6.57957 7.02029L0.37852 2.15838C0.155861 1.98037 0.0445318 1.76898 0.0445318 1.53534V1.49084C0.0445318 1.26832 0.122462 1.06806 0.289456 0.878927L0.890635 0.267016C1.0799 0.100131 1.28029 0.0222513 1.49181 0.0222513C1.53635 0.0222513 1.58088 0.0222513 1.63654 0.0222513C1.69221 0.0222513 1.73674 0.0445026 1.78127 0.0667539L10.3425 3.18194L11.9568 1.59097C12.4578 1.09031 13.0255 0.700916 13.6713 0.422775C14.3281 0.144634 14.9181 0 15.4525 0C15.9646 0 16.3543 0.133508 16.6103 0.389398C16.7551 0.522906 16.8553 0.678665 16.9109 0.878927C16.9666 1.07919 17 1.3017 17 1.54647C17 2.09162 16.8664 2.68128 16.5881 3.32657C16.3098 3.97186 15.9201 4.53927 15.408 5.0288L13.8048 6.64202L16.9332 15.2088Z" fill="#7CC9CE"/>
</svg>
