<svg width="15" height="15" viewBox="0 0 15 15" fill="none" xmlns="http://www.w3.org/2000/svg">
<path d="M14.9411 13.4195C14.9804 13.4882 15 13.5766 15 13.6649C15 13.8711 14.9214 14.0576 14.7741 14.2147L14.2338 14.7448C14.0864 14.9018 13.9096 14.9804 13.7033 14.9804H13.6542C13.4381 14.9509 13.2515 14.8527 13.1041 14.6859L8.82122 9.17867C8.31041 9.63024 7.82908 10.0229 7.37721 10.3665C6.92534 10.7003 6.50295 10.9948 6.1002 11.2402L6.42436 13.8809V13.9692C6.42436 14.1754 6.3556 14.3521 6.21807 14.4895L5.92338 14.784C5.77603 14.9313 5.59921 15 5.3831 15H5.35363C5.10805 14.9804 4.92141 14.8822 4.80354 14.7055L2.87819 12.1531L0.294695 10.1996C0.108055 10.0524 0.00982318 9.86584 0 9.64005V9.6106C0 9.41427 0.0687623 9.23757 0.21611 9.07068L0.500982 8.79581C0.61886 8.63874 0.795678 8.56021 1.02161 8.57003C1.07073 8.57003 1.1002 8.57984 1.11984 8.58966L3.75246 8.88416C3.99804 8.49149 4.29273 8.06937 4.62672 7.6178C4.97053 7.16623 5.36346 6.69503 5.8055 6.19437L0.333988 1.90445C0.137525 1.74738 0.0392927 1.56086 0.0392927 1.35471V1.31545C0.0392927 1.11911 0.108055 0.942408 0.255403 0.775524L0.785855 0.235602C0.952849 0.0883508 1.12967 0.0196335 1.31631 0.0196335C1.3556 0.0196335 1.39489 0.0196335 1.44401 0.0196335C1.49312 0.0196335 1.53242 0.039267 1.57171 0.0589005L9.12574 2.80759L10.5501 1.4038C10.9921 0.962042 11.4931 0.618455 12.0629 0.373037C12.6424 0.127618 13.1631 0 13.6346 0C14.0864 0 14.4303 0.117801 14.6562 0.343586C14.7839 0.461387 14.8723 0.598822 14.9214 0.775524C14.9705 0.952225 15 1.14856 15 1.36453C15 1.84555 14.8821 2.36584 14.6365 2.93521C14.391 3.50458 14.0472 4.00524 13.5953 4.43717L12.1807 5.8606L14.9411 13.4195Z" fill="#0085FF"/>
</svg>
