<svg width="20" height="17" viewBox="0 0 20 17" fill="none" xmlns="http://www.w3.org/2000/svg">
<path d="M10.1113 17C5.48904 17 1.72607 13.1855 1.72607 8.5C1.72607 3.81449 5.48904 0 10.1113 0C14.7335 0 18.4964 3.80698 18.4964 8.5C18.489 13.1855 14.7335 17 10.1113 17ZM10.1113 2.17756C6.66681 2.17756 3.86681 5.0159 3.86681 8.50751C3.86681 11.9991 6.66681 14.8375 10.1113 14.8375C13.5557 14.8375 16.3557 11.9991 16.3557 8.50751C16.3483 5.0159 13.5483 2.17756 10.1113 2.17756Z" fill="#DB2627"/>
<path d="M19.7037 10.2427H0.296296C0.133333 10.2427 0 10.1075 0 9.94234V6.78863C0 6.62344 0.133333 6.48828 0.296296 6.48828H19.7037C19.8667 6.48828 20 6.62344 20 6.78863V9.94985C20 10.1075 19.8667 10.2427 19.7037 10.2427Z" fill="#22439A"/>
</svg>
