<svg width="17" height="15" viewBox="0 0 17 15" fill="none" xmlns="http://www.w3.org/2000/svg">
<g clip-path="url(#clip0)">
<path d="M15.4956 1.21827C15.646 1.21827 15.7965 1.37056 15.7965 1.52284V13.4772C15.7965 13.6294 15.646 13.7817 15.4956 13.7817H1.50442C1.35398 13.7817 1.20354 13.6294 1.20354 13.4772V1.52284C1.20354 1.37056 1.35398 1.21827 1.50442 1.21827H15.4956ZM15.4956 0H1.50442C0.676991 0 0 0.685279 0 1.52284V13.4772C0 14.3147 0.676991 15 1.50442 15H15.5708C16.3982 15 17.0752 14.3147 17.0752 13.4772V1.52284C17 0.685279 16.323 0 15.4956 0Z" fill="black"/>
<path d="M12.7132 4.49269H3.91232C3.61143 4.49269 3.31055 4.18812 3.31055 3.88355C3.31055 3.57898 3.61143 3.27441 3.91232 3.27441H12.7884C13.0893 3.27441 13.3902 3.57898 13.3902 3.88355C13.3902 4.18812 13.0893 4.49269 12.7132 4.49269Z" fill="#0085FF"/>
<path d="M12.7132 8.07179H3.91232C3.61143 8.07179 3.31055 7.76722 3.31055 7.46265C3.31055 7.15808 3.53621 6.85352 3.91232 6.85352H12.7884C13.0893 6.85352 13.3902 7.15808 13.3902 7.46265C13.3902 7.76722 13.0893 8.07179 12.7132 8.07179Z" fill="#0085FF"/>
<path d="M10.3813 11.6499H3.91232C3.61143 11.6499 3.31055 11.3453 3.31055 11.0408C3.31055 10.7362 3.61143 10.4316 3.91232 10.4316H10.3813C10.6822 10.4316 10.9831 10.7362 10.9831 11.0408C10.9831 11.3453 10.6822 11.6499 10.3813 11.6499Z" fill="#0085FF"/>
</g>
<defs>
<clipPath id="clip0">
<rect width="17" height="15" fill="white"/>
</clipPath>
</defs>
</svg>
