<svg width="16" height="16" viewBox="0 0 16 16" fill="none" xmlns="http://www.w3.org/2000/svg">
<circle cx="8" cy="8" r="8" fill="#0085FF"/>
<path d="M7.314 9.348C7.028 9.036 6.885 8.65467 6.885 8.204C6.885 7.85733 6.98467 7.54533 7.184 7.268C7.38333 6.99067 7.6 6.78267 7.834 6.644C8.068 6.50533 8.28467 6.34067 8.484 6.15C8.68333 5.95933 8.783 5.76867 8.783 5.578C8.783 5.36133 8.69633 5.18367 8.523 5.045C8.35833 4.90633 8.107 4.837 7.769 4.837C7.15367 4.837 6.62067 5.10567 6.17 5.643L5.117 4.46C5.83633 3.61933 6.78533 3.199 7.964 3.199C8.796 3.199 9.45467 3.38967 9.94 3.771C10.4253 4.14367 10.668 4.63767 10.668 5.253C10.668 5.59967 10.5943 5.91167 10.447 6.189C10.2997 6.46633 10.1177 6.69167 9.901 6.865C9.693 7.03833 9.48067 7.19867 9.264 7.346C9.04733 7.49333 8.86533 7.65367 8.718 7.827C8.57067 8.00033 8.497 8.18667 8.497 8.386C8.497 8.61133 8.575 8.79333 8.731 8.932L7.314 9.348ZM8.679 11.831C8.471 12.039 8.224 12.143 7.938 12.143C7.652 12.143 7.405 12.039 7.197 11.831C6.989 11.623 6.885 11.376 6.885 11.09C6.885 10.804 6.989 10.557 7.197 10.349C7.405 10.141 7.652 10.037 7.938 10.037C8.224 10.037 8.471 10.141 8.679 10.349C8.887 10.557 8.991 10.804 8.991 11.09C8.991 11.376 8.887 11.623 8.679 11.831Z" fill="white"/>
</svg>
