<svg width="40" height="40" viewBox="0 0 40 40" fill="none" xmlns="http://www.w3.org/2000/svg">
<path d="M20 40C8.93905 40 0 31.0609 0 20C0 8.93905 8.93905 0 20 0C31.0609 0 40 8.93905 40 20C40 31.0609 31.0609 40 20 40Z" fill="#24B6FF"/>
<path d="M30.2481 21.1736C30.2933 20.7673 30.2933 20.4061 30.2933 19.9998C30.2933 14.3113 25.6431 9.6612 19.9547 9.6612C19.5483 9.6612 19.142 9.70634 18.7808 9.70634C17.7425 9.07429 16.5686 8.66797 15.2594 8.66797C11.6025 8.66797 8.66797 11.6025 8.66797 15.2594C8.66797 16.5686 9.02914 17.7425 9.70634 18.7808C9.6612 19.1872 9.6612 19.5483 9.6612 19.9547C9.6612 25.6431 14.3113 30.2933 19.9998 30.2933C20.4061 30.2933 20.8124 30.2481 21.1736 30.2481C22.212 30.8802 23.3858 31.2865 24.6951 31.2865C28.3519 31.2865 31.2865 28.3519 31.2865 24.6951C31.2865 23.4309 30.9253 22.212 30.2481 21.1736ZM19.9547 27.2684C16.8395 27.2684 15.2142 25.4626 14.4016 23.9276C14.1759 23.5212 14.221 23.0698 14.4467 22.7086C14.7176 22.2571 15.2594 21.9863 15.8012 21.9863C16.3881 21.9863 16.8847 22.2571 17.1556 22.7086C17.5619 23.4309 18.51 24.6048 19.9547 24.6048C21.6702 24.6048 22.4829 24.1081 22.4829 23.0698C22.4829 22.3926 22.4829 21.6702 19.458 21.0382C16.8847 20.4061 14.4467 19.5032 14.4467 16.7944C14.4467 14.7628 16.1172 12.7312 19.8192 12.7312C23.1601 12.7312 24.5596 14.4467 25.1465 15.8914C25.282 16.2978 25.2368 16.7041 25.0111 17.0653C24.7402 17.4716 24.2436 17.7425 23.7018 17.7425H23.6567C23.0246 17.7425 22.4377 17.3813 22.212 16.8847C21.9411 16.2526 21.2639 15.4851 19.7741 15.4851C17.6522 15.4851 17.6522 16.4332 17.6522 16.7492C17.6522 17.291 17.6522 17.6973 20.4061 18.3294C24.1533 19.142 25.7334 20.4964 25.7334 22.9795C25.7334 24.9659 24.2436 27.2684 19.9547 27.2684Z" fill="white"/>
</svg>
