<svg width="40" height="40" viewBox="0 0 40 40" fill="none" xmlns="http://www.w3.org/2000/svg">
<path d="M20 40C8.93905 40 0 31.0609 0 20C0 8.93905 8.93905 0 20 0C31.0609 0 40 8.93905 40 20C40 31.0609 31.0609 40 20 40Z" fill="#2AD846"/>
<path d="M19.9994 8.35156C13.5886 8.35156 8.35156 13.5434 8.35156 19.9994C8.35156 22.2116 8.98362 24.2432 10.022 26.0039L8.5773 31.6021L14.3561 30.2026C16.0265 31.1055 17.9227 31.6473 19.9994 31.6473C26.4103 31.6473 31.6473 26.4554 31.6473 19.9994C31.6473 13.5886 26.4554 8.35156 19.9994 8.35156ZM19.9994 29.706C18.013 29.706 16.2071 29.1191 14.6721 28.0807L11.2861 28.9385L12.189 25.6428C11.0152 24.0626 10.338 22.0762 10.338 19.9543C10.338 14.627 14.6721 10.2477 20.0446 10.2477C25.3719 10.2477 29.7511 14.5818 29.7511 19.9543C29.706 25.3267 25.3267 29.706 19.9994 29.706Z" fill="white"/>
<path d="M24.9192 22.3469C24.7386 22.2566 24.6032 22.2115 24.4677 22.1212C24.0614 21.8954 23.7002 21.7148 23.2939 21.4891C23.1585 21.444 23.0682 21.3537 22.9327 21.3537C22.391 21.3537 22.1652 22.1212 21.8492 22.392C21.7138 22.5275 21.5332 22.6178 21.3526 22.6178C21.2172 22.6178 21.0817 22.5726 20.9463 22.4823C20.2691 22.1663 19.637 21.7148 19.0953 21.2182C18.6889 20.8119 18.2826 20.3604 17.9214 19.8638C17.7409 19.6381 17.6054 19.4124 17.5603 19.1415C17.47 18.4643 18.4181 18.2385 18.4632 17.5613C18.4632 17.3356 18.3729 17.1099 18.2375 16.8841C18.0569 16.523 17.9214 16.1166 17.786 15.7103C17.5603 14.988 17.154 14.672 16.3413 14.8525C15.3481 15.0783 14.8515 16.4327 14.8063 17.3356C14.7612 18.6449 15.6641 19.9541 15.7996 20.1347C16.3865 20.9925 16.9734 21.8503 17.7409 22.6178C19.005 23.8367 20.7205 24.83 22.4361 25.1009C22.7521 25.146 23.1133 25.1911 23.4293 25.146C24.0163 25.0557 24.558 24.7848 24.9192 24.3334C25.2804 23.927 25.7318 23.1595 25.3707 22.6629C25.2804 22.5275 25.0998 22.4372 24.9192 22.3469Z" fill="white"/>
</svg>
