<svg width="40" height="40" viewBox="0 0 40 40" fill="none" xmlns="http://www.w3.org/2000/svg">
<path d="M20 40C8.93905 40 0 31.0609 0 20C0 8.93905 8.93905 0 20 0C31.0609 0 40 8.93905 40 20C40 31.0609 31.0609 40 20 40Z" fill="#24B6FF"/>
<path d="M29.0756 10.4743C28.4887 10.6098 27.8567 10.8807 27.4955 11.0161C25.4639 11.6482 23.4774 12.5511 21.4458 13.3186C19.3239 14.1312 17.2472 14.9439 15.1253 15.7565C13.0034 16.5692 10.8815 17.3818 8.75959 18.2396C8.44356 18.375 8.12753 18.5105 7.85665 18.7362C7.45033 19.0974 7.49548 19.4585 7.94694 19.7294C8.12753 19.8649 14.2675 22.1222 15.351 21.445C15.5316 21.3096 26.8183 13.0929 26.9989 13.3186C27.1343 13.4992 21.1298 19.3683 18.6016 21.9416C17.9695 22.5737 18.0147 23.5669 18.6919 24.1538C20.4977 25.6436 23.7483 28.3073 24.877 29.1199C25.1027 29.3005 25.3736 29.436 25.6445 29.5263C26.0508 29.6166 26.5023 29.4811 26.7731 29.1199C26.9537 28.8491 26.9989 28.533 27.0892 28.2622C28.1275 23.296 29.2111 18.2847 30.2494 13.3186C30.3849 12.7317 30.5655 12.0996 30.6106 11.5579C30.7009 10.3841 29.8883 10.2938 29.0756 10.4743Z" fill="white"/>
</svg>
