<svg width="40" height="40" viewBox="0 0 40 40" fill="none" xmlns="http://www.w3.org/2000/svg">
<path d="M20 40C8.93905 40 0 31.0609 0 20C0 8.93905 8.93905 0 20 0C31.0609 0 40 8.93905 40 20C40 31.0609 31.0609 40 20 40Z" fill="#0B86CA"/>
<path d="M15.035 11.9185C15.035 13.0472 14.1772 13.9501 12.8228 13.9501C11.5136 13.9501 10.6558 13.0472 10.7009 11.9185C10.6558 10.7447 11.5587 9.8418 12.868 9.8418C14.1772 9.8418 15.035 10.7447 15.035 11.9185ZM10.7912 28.8034V15.5754H14.8996V28.8034H10.7912Z" fill="white"/>
<path d="M18.1958 19.8194C18.1958 18.1489 18.1506 16.7494 18.1055 15.6207H21.6721L21.8526 17.4266H21.9429C22.4847 16.5688 23.8391 15.3047 26.0061 15.3047C28.7149 15.3047 30.7465 17.1106 30.7465 20.9932V28.8487H26.6382V21.4898C26.6382 19.7742 26.0513 18.6455 24.5615 18.6455C23.4328 18.6455 22.7556 19.413 22.4847 20.1805C22.3944 20.4063 22.3041 20.8126 22.3041 21.2189V28.8487H18.1958V19.8194Z" fill="white"/>
</svg>
