<svg width="40" height="40" viewBox="0 0 40 40" fill="none" xmlns="http://www.w3.org/2000/svg">
<path d="M20 40C8.93905 40 0 31.0609 0 20C0 8.93905 8.93905 0 20 0C31.0609 0 40 8.93905 40 20C40 31.0609 31.0609 40 20 40Z" fill="#0085FF"/>
<g clip-path="url(#clip0)">
<path d="M30.001 14.709L22.1211 20.4992L30.001 26.2894C30.001 26.2521 30.001 26.1774 30.001 26.14V14.8211C30.001 14.7837 30.001 14.7463 30.001 14.709Z" fill="white"/>
<path d="M10 14.709C10 14.7463 10 14.7837 10 14.8211V26.1027C10 26.14 10 26.2147 10 26.2521L17.8799 20.4619L10 14.709Z" fill="white"/>
<path d="M20.0184 22.0318L18.6676 21.0605L10.5625 27.0002H29.4368L21.3317 21.0605L20.0184 22.0318Z" fill="white"/>
<path d="M19.0803 20.2012L19.4556 20.5L20.0184 20.9109L20.5437 20.5L20.9565 20.2012L21.3317 19.9397L29.4368 14H10.5625L18.6676 19.9397L19.0803 20.2012Z" fill="white"/>
</g>
<defs>
<clipPath id="clip0">
<rect width="20" height="13" fill="white" transform="translate(10 14)"/>
</clipPath>
</defs>
</svg>
