<svg width="520" height="399" viewBox="0 0 520 399" fill="none" xmlns="http://www.w3.org/2000/svg">
<g clip-path="url(#clip0)">
<path d="M330.573 263.63H127.39V255.789H337.968V257.669H129.271V261.75H330.573V263.63Z" fill="#231F20"/>
<path d="M512.379 263.63H426.462V261.75H510.497V257.669H427.44V255.789H512.379V263.63Z" fill="#231F20"/>
<path d="M138.998 256.729H117.66V262.672H138.998V256.729Z" fill="#B5C0C4"/>
<path d="M139.94 263.63H116.72V255.789H139.94V263.63ZM118.601 261.75H138.058V257.669H118.601V261.75Z" fill="#231F20"/>
<path d="M216.768 80.0674C195.806 81.064 194.979 105.528 194.979 105.528H216.768H238.558C238.558 105.509 237.73 81.064 216.768 80.0674Z" fill="#231F20"/>
<path d="M217.709 0H215.827V80.067H217.709V0Z" fill="url(#paint0_linear)"/>
<path d="M437.376 80.0674C416.414 81.064 415.586 105.528 415.586 105.528H437.376H459.165C459.147 105.509 458.338 81.064 437.376 80.0674Z" fill="#231F20"/>
<path d="M438.316 0H436.435V80.067H438.316V0Z" fill="url(#paint1_linear)"/>
<path d="M229.695 217.787H203.859V254.868H229.695V217.787Z" fill="white"/>
<path d="M230.636 255.808H202.919V216.847H230.636V255.808ZM204.801 253.928H228.754V218.727H204.801V253.928Z" fill="#231F20"/>
<path d="M264.506 239.882H169.03C166.132 239.882 163.799 237.55 163.799 234.654V179.483C163.799 176.588 166.132 174.256 169.03 174.256H264.506C267.404 174.256 269.737 176.588 269.737 179.483V234.673C269.737 237.55 267.404 239.882 264.506 239.882Z" fill="#231F20"/>
<path d="M264.506 240.821H169.03C165.624 240.821 162.858 238.057 162.858 234.654V179.483C162.858 176.08 165.624 173.315 169.03 173.315H264.506C267.912 173.315 270.678 176.08 270.678 179.483V234.673C270.678 238.057 267.912 240.821 264.506 240.821ZM169.03 175.196C166.659 175.196 164.74 177.114 164.74 179.483V234.673C164.74 237.042 166.659 238.96 169.03 238.96H264.506C266.877 238.96 268.797 237.042 268.797 234.673V179.483C268.797 177.114 266.877 175.196 264.506 175.196H169.03Z" fill="#231F20"/>
<path d="M240.684 253.928H192.871V255.808H240.684V253.928Z" fill="#231F20"/>
<path d="M285.525 195.353L288.479 188.114C289.175 186.422 285.487 183.338 280.275 181.194C275.044 179.069 270.264 178.712 269.568 180.386L261.91 199.133C261.213 200.825 264.901 203.909 270.114 206.053C275.345 208.178 280.124 208.535 280.82 206.861L281.855 204.323" fill="#F2F6F7"/>
<path d="M277.998 208.874C277.716 208.874 277.415 208.855 277.095 208.836C274.968 208.686 272.372 208.009 269.756 206.937C267.141 205.865 264.807 204.53 263.189 203.158C260.762 201.127 260.687 199.66 261.044 198.795L268.703 180.048C269.06 179.183 270.133 178.205 273.294 178.43C275.42 178.581 278.017 179.258 280.632 180.33C283.248 181.401 285.581 182.736 287.199 184.109C289.627 186.14 289.702 187.607 289.344 188.472L286.39 195.711L284.64 194.997L287.594 187.757C287.67 187.588 287.5 186.836 285.976 185.538C284.49 184.297 282.345 183.056 279.898 182.06C277.452 181.063 275.063 180.442 273.124 180.292C271.13 180.142 270.471 180.574 270.415 180.743L262.756 199.491C262.681 199.66 262.85 200.412 264.375 201.71C265.861 202.951 268.006 204.192 270.452 205.188C272.899 206.185 275.288 206.805 277.226 206.956C279.221 207.106 279.88 206.674 279.936 206.505L280.971 203.985L282.721 204.699L281.686 207.219C281.366 207.99 280.463 208.874 277.998 208.874Z" fill="#231F20"/>
<path d="M269.55 180.405C269.55 180.405 276.136 187.269 288.461 188.115L269.55 180.405Z" fill="#F2F6F7"/>
<path d="M288.404 189.055C275.853 188.19 269.154 181.345 268.872 181.063L270.227 179.766C270.283 179.841 276.737 186.385 288.536 187.193L288.404 189.055Z" fill="#231F20"/>
<path d="M347.884 399.019C381.274 399.019 408.342 395.02 408.342 390.087C408.342 385.154 381.274 381.155 347.884 381.155C314.494 381.155 287.426 385.154 287.426 390.087C287.426 395.02 314.494 399.019 347.884 399.019Z" fill="#B5C0C4"/>
<path d="M38.5178 387.416C59.7906 387.416 77.0356 385.017 77.0356 382.057C77.0356 379.098 59.7906 376.698 38.5178 376.698C17.245 376.698 0 379.098 0 382.057C0 385.017 17.245 387.416 38.5178 387.416Z" fill="#B5C0C4"/>
<path d="M342.577 242.401C342.577 242.401 356.896 240.52 372.157 244.996C387.417 249.452 370.294 251.878 370.294 251.878C370.294 251.878 355.485 247.478 341.617 248.663C342.276 245.315 342.577 242.401 342.577 242.401Z" fill="white"/>
<path d="M370.219 252.837L370.031 252.781C369.88 252.743 355.203 248.437 341.712 249.603L340.47 249.716L340.714 248.494C341.354 245.24 341.655 242.363 341.655 242.326L341.73 241.593L342.464 241.499C342.615 241.48 357.16 239.656 372.421 244.112C377.445 245.579 379.552 246.952 379.42 248.682C379.232 251.295 373.06 252.461 370.426 252.837H370.219ZM346.623 247.516C358.045 247.516 368.695 250.449 370.351 250.919C373.888 250.393 377.35 249.246 377.539 248.512C377.539 248.512 377.275 247.478 371.875 245.899C358.91 242.1 346.491 242.965 343.405 243.266C343.292 244.169 343.085 245.767 342.747 247.647C344.064 247.553 345.343 247.516 346.623 247.516Z" fill="#231F20"/>
<path d="M287.613 360.94C287.444 358.477 283.869 300.655 307.653 290.275C311.398 288.639 315.293 287.06 319.056 285.537C339.265 277.338 358.346 269.61 362.015 251.671L363.859 252.047C360.001 270.964 340.47 278.88 319.771 287.267C316.027 288.79 312.15 290.351 308.406 291.986C285.826 301.84 289.458 360.207 289.495 360.79L287.613 360.94Z" fill="#231F20"/>
<path d="M125.094 372.279L153.131 387.416H520L470.682 370.662L125.094 372.279Z" fill="#B5C0C4"/>
<path d="M353.603 318.933H348.636V372.242H353.603V318.933Z" fill="#0085FF"/>
<path d="M348.636 367.504L311.21 389.185L313.618 390.576L351.12 373.089L348.636 367.504Z" fill="#0085FF"/>
<path d="M353.058 367.504L390.503 389.185L388.076 390.576L350.593 373.089L353.058 367.504Z" fill="#0085FF"/>
<path d="M293.259 359.061L294.369 364.608L280.501 373.916C280.501 373.916 281.216 364.89 284.848 362.765C288.479 360.602 293.259 359.061 293.259 359.061Z" fill="#231F20"/>
<path d="M327.599 356.315L328.709 361.863L314.841 371.171C314.841 371.171 315.556 362.145 319.187 360.02C322.819 357.857 327.599 356.315 327.599 356.315Z" fill="#231F20"/>
<path d="M342.727 225.929L341.824 224.274C341.881 224.255 346.905 221.435 351.345 217.016L352.681 218.351C348.053 222.976 342.953 225.816 342.727 225.929Z" fill="#231F20"/>
<path d="M351.12 370.023H350.594H348.016L349.878 393.829H350.594H351.12H351.817L353.68 370.023H351.12Z" fill="#0085FF"/>
<path d="M156.121 386.006C155.595 386.006 155.181 385.592 155.181 385.066V262.69C155.181 262.164 155.595 261.75 156.121 261.75C156.648 261.75 157.062 262.164 157.062 262.69V385.066C157.062 385.574 156.63 386.006 156.121 386.006Z" fill="#231F20"/>
<path d="M134.276 374.855C133.749 374.855 133.335 374.442 133.335 373.915V262.69C133.335 262.164 133.749 261.75 134.276 261.75C134.803 261.75 135.217 262.164 135.217 262.69V373.915C135.217 374.442 134.803 374.855 134.276 374.855Z" fill="#231F20"/>
<path d="M155.369 367.164C155.256 367.164 155.143 367.146 155.03 367.089L134.407 358.909C133.918 358.721 133.692 358.176 133.88 357.687C134.069 357.198 134.614 356.973 135.104 357.161L155.727 365.34C156.216 365.528 156.442 366.074 156.254 366.563C156.103 366.939 155.745 367.164 155.369 367.164Z" fill="#231F20"/>
<path d="M362.937 181.476C360.058 181.476 357.236 180.893 354.601 179.727C346.209 176.023 341.072 166.865 341.505 156.392C341.524 155.865 341.9 155.47 342.483 155.489C343.01 155.508 343.405 155.959 343.387 156.467C342.973 166.151 347.677 174.612 355.354 177.997C359.155 179.671 363.407 180.028 367.66 179.013C368.168 178.881 368.676 179.201 368.789 179.708C368.902 180.216 368.601 180.724 368.093 180.837C366.381 181.269 364.649 181.476 362.937 181.476Z" fill="#231F20"/>
<path d="M354.771 148.043C355.748 148.043 356.539 147.252 356.539 146.275C356.539 145.299 355.748 144.508 354.771 144.508C353.794 144.508 353.002 145.299 353.002 146.275C353.002 147.252 353.794 148.043 354.771 148.043Z" fill="#231F20"/>
<path d="M376.541 177.095L375.488 175.534C379.834 172.601 383.315 168.351 385.573 163.274C388.358 156.975 388.885 150.149 387.079 144.038C385.291 137.983 381.396 133.376 376.127 131.044C365.496 126.343 352.456 132.36 346.416 144.715L342.126 153.684C341.937 154.098 342.05 154.587 342.427 154.85L346.792 157.971L342.728 159.344L342.126 157.558L342.709 157.37L341.316 156.373C340.206 155.583 339.83 154.098 340.413 152.876L344.703 143.906C351.176 130.631 365.308 124.237 376.861 129.333C382.638 131.89 386.89 136.911 388.847 143.511C390.786 150.036 390.221 157.332 387.248 164.045C384.896 169.461 381.189 173.974 376.541 177.095Z" fill="#231F20"/>
<path d="M374.114 180.461C382.638 173.955 386.025 177.678 391.162 172.281C396.299 166.884 393.853 162.992 395.095 161.206C396.337 159.419 405.595 151.277 396.431 143.285C397.635 138.396 398.275 131.89 392.818 127.396C387.361 122.902 381.999 124.858 381.999 124.858C381.999 124.858 380.493 121.266 377.031 119.611C373.569 117.957 370.897 119.498 370.897 119.498C370.897 119.498 363.577 117.261 361.394 113.35C360.679 117.938 355.975 121.811 361.15 128.863C366.663 131.514 371.141 131.195 372.252 135.858C373.362 140.521 368.507 148.983 374.378 154.981C375.507 154.737 377.426 147.855 381.34 149.66C385.254 151.465 375.375 174.218 374.114 180.461Z" fill="#0085FF"/>
<path d="M488.312 255.808H459.636V222.45H488.312V255.808ZM461.517 253.928H486.431V224.331H461.517V253.928Z" fill="#231F20"/>
<path d="M298.207 257.575H283.36V240.464H298.207V257.575ZM285.242 255.695H296.325V242.344H285.242V255.695Z" fill="#231F20"/>
<path d="M283.982 364.118L283.831 362.764C283.568 360.357 277.773 303.4 292.939 282.998C300.823 272.412 310.871 268.97 319.734 265.943C323.158 264.777 326.395 263.668 329.349 262.22C334.618 259.663 336.857 258.309 339.774 250.825C341.994 245.108 341.712 238.377 341.411 231.25C341.335 229.708 341.279 228.147 341.241 226.549C334.486 230.009 324.927 233.337 315.519 231.344C298.847 227.809 291.603 211.224 290.154 207.482C284.622 208.196 282.157 206.278 281.178 205C279.918 203.401 279.692 201.295 280.576 199.246C281.63 196.801 283.211 195.165 285.036 194.639C286.428 194.244 287.821 194.507 289.1 195.391C291.377 196.97 293.409 199.791 293.993 200.637C296.062 201.521 310.231 207.463 318.078 210.378C322.744 212.107 325.247 208.967 329.631 202.8C331.889 199.641 334.448 196.049 337.948 192.721C345.833 185.256 352.475 180.968 358.854 179.238L359.343 181.043C353.284 182.679 346.886 186.835 339.228 194.075C335.86 197.271 333.357 200.769 331.156 203.871C326.959 209.776 323.648 214.439 317.401 212.126C308.914 208.986 293.146 202.329 292.976 202.254L292.713 202.141L292.562 201.897C292.544 201.859 290.323 198.531 287.99 196.914C287.181 196.35 286.353 196.181 285.506 196.425C284.245 196.782 283.079 198.042 282.27 199.96C281.668 201.37 281.799 202.762 282.627 203.815C283.963 205.507 286.861 206.109 290.587 205.47L291.377 205.338L291.622 206.109C291.678 206.297 298.207 225.722 315.858 229.464C325.36 231.476 335.126 227.677 341.636 224.142L342.991 223.409L343.01 224.969C343.048 227.057 343.123 229.125 343.217 231.137C343.518 238.471 343.819 245.39 341.448 251.464C338.287 259.587 335.54 261.223 330.102 263.875C327.053 265.36 323.761 266.488 320.279 267.673C311.247 270.757 301.914 273.954 294.388 284.07C280.915 302.178 284.716 352.253 285.506 361.147L291.095 358.345C291.189 353.325 292.901 317.861 319.79 302.253L321.54 301.238L321.183 303.231C317.344 324.931 319.47 352.591 320.054 358.985L325.642 356.183C325.755 350.316 328.088 302.987 370.163 294.055C392.253 289.373 400.382 281.626 403.299 275.947C405.99 270.719 404.917 266.131 404.428 264.664L397.071 263.837L397.635 262.652C400.834 255.902 406.385 243.341 407.589 235.029L407.909 232.942C409.941 219.667 414.156 192.044 392.385 183.958L391.538 183.657L392.159 181.89L393.025 182.209C416.226 190.84 411.691 220.55 409.753 233.243L409.433 235.312C408.248 243.397 403.167 255.225 399.874 262.276L405.745 262.934L405.971 263.423C406.084 263.668 408.643 269.61 404.992 276.755C400.495 285.556 388.904 292.005 370.539 295.898C327.411 305.055 327.486 356.239 327.505 356.747V357.33L318.435 361.881L318.285 360.527C318.247 360.207 315.086 329.481 318.962 304.924C292.845 321.659 292.939 358.533 292.939 358.91V359.492L283.982 364.118Z" fill="#231F20"/>
<path d="M151.003 262.776L149.307 263.59L155.26 275.982L156.956 275.168L151.003 262.776Z" fill="#231F20"/>
<path d="M139.505 262.823L133.421 276.829L135.147 277.578L141.231 263.572L139.505 262.823Z" fill="#231F20"/>
<path d="M502.839 384.013C502.312 384.013 501.898 383.599 501.898 383.073V262.69C501.898 262.164 502.312 261.75 502.839 261.75C503.366 261.75 503.78 262.164 503.78 262.69V383.073C503.78 383.58 503.347 384.013 502.839 384.013Z" fill="#231F20"/>
<path d="M467.52 374.855C466.993 374.855 466.579 374.442 466.579 373.915V262.69C466.579 262.164 466.993 261.75 467.52 261.75C468.047 261.75 468.461 262.164 468.461 262.69V373.915C468.461 374.442 468.047 374.855 467.52 374.855Z" fill="#231F20"/>
<path d="M501.634 367.164C501.559 367.164 501.484 367.164 501.409 367.145L468.084 358.966C467.576 358.834 467.275 358.326 467.388 357.838C467.52 357.33 468.009 357.029 468.517 357.142L501.841 365.321C502.349 365.453 502.65 365.961 502.538 366.45C502.443 366.882 502.048 367.164 501.634 367.164Z" fill="#231F20"/>
<path d="M493.984 262.597L492.497 263.75L502.132 276.154L503.618 275.001L493.984 262.597Z" fill="#231F20"/>
<path d="M476.596 262.653L466.761 276.66L468.301 277.74L478.137 263.733L476.596 262.653Z" fill="#231F20"/>
<path d="M391.802 183.808C386.722 182.473 384.181 176.362 384.068 176.098L385.818 175.384C385.837 175.44 388.133 180.912 392.291 181.984L391.802 183.808Z" fill="#231F20"/>
<path d="M461.725 208.064C461.725 208.064 461.235 218.971 469.232 220.832C477.23 222.694 470.042 211.487 461.725 208.064Z" fill="#0085FF"/>
<path d="M486.224 208.064C486.224 208.064 486.713 218.971 478.716 220.832C470.719 222.694 477.907 211.487 486.224 208.064Z" fill="#0085FF"/>
<path d="M473.73 206.861C473.73 206.861 463.681 221.66 473.73 221.66C483.778 221.66 473.73 206.861 473.73 206.861Z" fill="#0085FF"/>
<path d="M361.168 222.732L349.068 271.453L297.511 283.77C294.82 284.409 292.976 286.684 293.07 289.242C293.427 297.572 295.761 315.116 309.177 319.046C326.902 324.255 395.019 344.713 413.553 302.687C432.088 260.66 436.924 227.922 436.924 227.922C436.924 227.922 444.187 207.84 400.25 210.435C356.313 213.03 366.399 221.623 361.168 222.732Z" fill="#0085FF"/>
<path d="M291.734 206.467L289.853 206.429C289.928 201.954 292.901 200.619 293.033 200.562L293.785 202.292C293.691 202.33 291.772 203.251 291.734 206.467Z" fill="#231F20"/>
<path d="M291.133 198.08L289.458 197.234C289.985 196.219 290.079 195.297 289.778 194.413C289.157 192.627 287.031 191.612 287.012 191.612L287.802 189.9C287.915 189.957 290.662 191.235 291.565 193.793C292.036 195.147 291.885 196.595 291.133 198.08Z" fill="#231F20"/>
<path d="M283.963 208.235C282.213 208.235 280.632 207.313 280.538 207.257L281.479 205.64C281.498 205.658 284 207.088 285.355 205.865L286.616 207.257C285.807 207.99 284.866 208.235 283.963 208.235Z" fill="#231F20"/>
<path d="M343.066 164.309L348.561 164.14L344.666 167.994L343.217 165.042" fill="#231F20"/>
<path d="M286.18 231.737L284.347 232.159L286.475 241.395L288.309 240.973L286.18 231.737Z" fill="#231F20"/>
<path d="M295.646 234.783L293.779 240.917L295.58 241.464L297.446 235.33L295.646 234.783Z" fill="#231F20"/>
<path d="M35.4882 325.288C33.6253 319.459 31.3297 312.709 29.8243 308.252C28.94 305.676 28.319 303.852 28.1873 303.363C27.3782 300.58 32.628 293.999 41.359 284.258C42.2998 283.205 43.0525 282.378 43.4665 281.87L44.9154 283.074C44.4826 283.581 43.7299 284.446 42.7514 285.518C33.8323 295.465 29.5421 301.295 29.9749 302.836C30.1066 303.307 30.7275 305.112 31.5931 307.65C33.1173 312.126 35.4129 318.876 37.2758 324.724L35.4882 325.288Z" fill="#231F20"/>
<path d="M32.8911 349.941C22.9559 336.289 5.41869 307.425 5.79502 298.494C6.28426 287.211 31.7997 247.384 33.8884 244.15C34.1142 242.966 35.4878 234.974 36.7297 211.3L38.6114 211.394C37.2566 237.343 35.7512 244.413 35.6948 244.696L35.5631 245.015C35.2808 245.448 8.14711 287.55 7.67669 298.569C7.33799 306.354 23.2758 333.544 34.4153 348.832L32.8911 349.941Z" fill="#231F20"/>
<path d="M97.2444 244.921L95.4004 244.545C95.4568 244.3 100.33 219.968 103.247 199.021L105.11 199.284C102.193 220.288 97.3009 244.676 97.2444 244.921Z" fill="#231F20"/>
<path d="M39.4965 378.673H30.8408L30.8596 377.714C30.8785 376.905 33.3999 295.597 54.437 248.117L56.1493 248.869C36.4858 293.228 33.1176 367.466 32.7601 376.792H38.2358L95.4386 244.356L97.1698 245.109L39.4965 378.673Z" fill="#231F20"/>
<path d="M39.4022 195.297L37.5205 195.165C38.1603 186.403 39.7973 178.956 42.3752 173.033L44.1064 173.785C41.6226 179.502 40.0419 186.741 39.4022 195.297Z" fill="#231F20"/>
<path d="M47.9639 211.882C39.4587 211.882 32.5341 209.87 28.3945 206.598C25.0639 203.985 23.615 200.544 24.3112 196.933C30.4643 165.606 44.2193 157.821 54.0417 154.7C56.7136 153.853 59.4232 153.158 62.1517 152.612L63.8452 148.701L65.5763 149.453L63.4877 154.267L62.9984 154.361C60.1947 154.888 57.3722 155.602 54.625 156.486C45.2731 159.457 32.139 166.941 26.1741 197.29C25.4402 200.995 27.623 203.59 29.5611 205.113C37.1442 211.055 55.7352 212.503 75.6056 203.665C74.3449 202.01 73.1971 200.581 72.6702 199.923C68.7563 200.337 45.2542 202.499 37.8969 195.372L39.2141 194.019C46.4397 201.032 72.7078 198.024 72.9713 198.005L73.4793 197.949L73.7992 198.343C73.818 198.362 75.775 200.769 77.826 203.477L78.5222 204.398L77.4685 204.887C66.7994 209.814 56.5631 211.882 47.9639 211.882Z" fill="#231F20"/>
<path d="M129.196 253.213H123.908L123.701 252.536C123.551 252.009 107.895 200.487 94.6107 185.575C92.635 183.356 90.9791 180.63 89.6619 177.49L91.3931 176.775C92.635 179.727 94.178 182.266 96.022 184.334C108.893 198.794 123.325 244.939 125.301 251.332H127.389C127.333 249.151 126.994 241.912 124.924 219.46C120.615 180.592 115.14 162.164 94.178 155.752C92.5597 155.282 87.9496 154.022 86.2373 153.928L86.3314 152.048C88.6082 152.161 94.4602 153.872 94.7048 153.928C116.702 160.641 122.365 179.502 126.787 219.234C129.497 248.719 129.271 252.179 129.252 252.31L129.196 253.213Z" fill="#231F20"/>
<path d="M31.8194 377.732L21.1315 381.813C20.3412 382.114 20.567 383.204 21.4325 383.204H39.8165L38.8944 377.732H31.8194Z" fill="#231F20"/>
<path d="M44.8594 363.573L45.9319 374.16C46.0072 374.95 47.2115 375.063 47.4749 374.31L52.9129 358.177L46.948 357.368L44.8594 363.573Z" fill="#231F20"/>
<path d="M78.2587 155.678C76.9227 155.678 75.5491 155.546 74.1943 155.283C69.0385 154.249 64.5789 151.278 61.9258 147.103C59.5549 143.342 58.821 138.961 59.8559 134.768L63.544 119.932C63.7698 119.029 64.0897 118.126 64.466 117.261C64.673 116.791 65.2375 116.566 65.7079 116.791C66.1784 116.998 66.4042 117.562 66.1784 118.032C65.8397 118.785 65.5762 119.574 65.3692 120.383L61.6812 135.219C60.7591 138.924 61.4177 142.797 63.5064 146.107C65.8773 149.849 69.9041 152.538 74.5518 153.459C83.7532 155.302 92.8981 150.055 94.9491 141.782L98.6372 126.945C98.7689 126.438 99.2581 126.137 99.785 126.25C100.293 126.381 100.594 126.889 100.462 127.397L96.7743 142.233C94.7986 150.206 86.9332 155.678 78.2587 155.678Z" fill="#231F20"/>
<path d="M76.9794 204.849L76.8288 202.969C79.4256 202.743 81.1191 202.085 81.5895 201.089C82.0787 200.054 81.2508 198.795 81.2319 198.776C81.0814 198.55 81.025 198.268 81.1002 198.005C81.1755 197.741 81.3449 197.516 81.6083 197.403L84.8636 195.842C82.6808 196.406 79.8207 197.516 77.9578 198.324C77.6191 198.475 77.2428 198.418 76.9606 198.174C76.6783 197.93 76.5654 197.553 76.6783 197.215C77.1111 195.692 76.9794 194.188 76.6219 193.003C75.7751 195.748 74.1192 198.907 73.8746 199.377L72.2188 198.512C73.0843 196.877 75.2859 192.232 75.2671 190.333C75.2671 189.957 75.4929 189.599 75.8316 189.449C76.1891 189.299 76.5842 189.374 76.8665 189.656C78.0707 190.859 79.0116 193.323 78.8234 195.955C81.2131 194.996 85.5598 193.398 87.6296 193.642C87.9872 193.68 88.4764 193.924 89.1162 194.357C89.3984 194.545 89.5489 194.864 89.5113 195.203C89.4925 195.541 89.2855 195.823 88.9844 195.974L83.283 198.7C83.6029 199.509 83.8475 200.713 83.283 201.897C82.4927 203.571 80.3664 204.567 76.9794 204.849Z" fill="#231F20"/>
<path d="M83.4714 127.716C84.4275 127.716 85.2025 126.941 85.2025 125.986C85.2025 125.03 84.4275 124.256 83.4714 124.256C82.5153 124.256 81.7402 125.03 81.7402 125.986C81.7402 126.941 82.5153 127.716 83.4714 127.716Z" fill="#231F20"/>
<path d="M93.8766 129.446C94.8327 129.446 95.6078 128.672 95.6078 127.716C95.6078 126.761 94.8327 125.986 93.8766 125.986C92.9206 125.986 92.1455 126.761 92.1455 127.716C92.1455 128.672 92.9206 129.446 93.8766 129.446Z" fill="#231F20"/>
<path d="M88.1186 129.784V138.697H85.1455" fill="white"/>
<path d="M89.0594 139.637H85.1455V137.757H87.1777V129.784H89.0594V139.637Z" fill="#231F20"/>
<path d="M81.4384 144C80.8551 144 80.4788 144.658 80.7987 145.147C81.8712 146.727 83.5083 147.742 85.3335 147.742C87.1587 147.742 88.7958 146.727 89.8683 145.147C90.207 144.658 89.8307 144 89.2285 144H81.4384Z" fill="#221E1F"/>
<path d="M58.1811 136.177C59.1031 138.509 59.2913 139.205 59.2913 139.205C59.2913 139.205 63.6003 135.538 64.8798 125.986C66.1594 116.433 71.7291 119.762 71.9925 121.247C72.256 122.733 70.1673 128.054 70.1673 128.054C70.1673 128.054 71.842 128.054 72.7452 126.437C73.6484 124.82 79.0676 113.406 79.0676 113.406C79.0676 113.406 95.0242 116.602 98.637 116.226C101.779 115.907 99.4085 117.919 100.406 124.237C100.537 125.083 101.798 124.368 102.043 123.56C104.131 116.903 103.398 112.014 100.613 107.783C98.4865 96.8208 85.6911 92.8908 77.1671 94.7523C71.5786 95.9746 69.0948 98.9832 68.041 100.901C68.041 100.901 62.5089 104.041 59.9875 107.219C59.1595 108.272 58.7456 110.397 58.5198 112.955C55.622 119.385 54.4554 127.302 56.5816 132.36C57.2967 133.958 57.8047 135.218 58.1811 136.177Z" fill="#E87E00"/>
<path d="M146.206 257.67H123.664V252.273H125.546V255.789H138.793C136.008 254.567 131.981 253.082 128.331 253.213L128.312 251.333C128.387 251.333 128.462 251.333 128.538 251.333C135.425 251.333 142.951 255.733 143.271 255.94L146.206 257.67Z" fill="#231F20"/>
<path d="M95.0055 247.403C69.8476 231.006 36.5984 234.391 36.2597 234.428L36.0527 232.567C36.3914 232.529 70.2992 229.069 96.0216 245.842L95.0055 247.403Z" fill="#231F20"/>
<path d="M82.7933 255.413C74.0623 252.95 74.9091 241.893 74.9091 241.78L76.7907 241.931C76.7531 242.326 76.0757 251.558 83.3013 253.589L82.7933 255.413Z" fill="#231F20"/>
</g>
<defs>
<linearGradient id="paint0_linear" x1="216.775" y1="80.0599" x2="216.775" y2="9.54388e-06" gradientUnits="userSpaceOnUse">
<stop offset="0.6536" stop-color="#231F20"/>
<stop offset="1" stop-color="white"/>
</linearGradient>
<linearGradient id="paint1_linear" x1="437.373" y1="80.0599" x2="437.373" y2="9.54388e-06" gradientUnits="userSpaceOnUse">
<stop offset="0.6536" stop-color="#231F20"/>
<stop offset="1" stop-color="white"/>
</linearGradient>
<clipPath id="clip0">
<rect width="520" height="399" fill="white"/>
</clipPath>
</defs>
</svg>
