<svg width="515" height="384" viewBox="0 0 515 384" fill="none" xmlns="http://www.w3.org/2000/svg">
<g clip-path="url(#clip0)">
<path d="M139.632 381C139.546 381 139.46 381 139.374 380.971C138.599 380.828 138.083 380.084 138.227 379.31L164.605 235.53C166.842 223.274 175.472 214.712 185.565 214.712H258.106C268.37 214.712 277.23 223.818 279.208 236.36L301.716 379.368C301.831 380.141 301.315 380.885 300.512 381C299.709 381.114 298.992 380.599 298.878 379.797L276.37 236.79C274.621 225.65 266.937 217.575 258.106 217.575H185.565C176.877 217.575 169.422 225.164 167.415 236.045L141.037 379.826C140.922 380.513 140.32 381 139.632 381Z" fill="#231F20"/>
<path d="M18.9497 381C18.835 381 18.749 381 18.6343 380.971C17.8602 380.8 17.3728 380.026 17.5448 379.253L41.1995 275.992C43.2639 267.029 51.0341 260.758 60.1232 260.758H125.181C134.442 260.758 142.441 267.43 144.248 276.594L164.433 379.311C164.576 380.084 164.089 380.828 163.315 381C162.541 381.143 161.795 380.656 161.623 379.883L141.438 277.167C139.89 269.32 133.066 263.65 125.181 263.65H60.1519C52.4103 263.65 45.7584 269.005 44.0094 276.651L20.3547 379.912C20.1826 380.542 19.6092 381 18.9497 381Z" fill="#231F20"/>
<path d="M494.538 381C493.85 381 493.247 380.484 493.133 379.797L470.625 236.79C468.876 225.65 461.192 217.575 452.361 217.575H379.82C379.017 217.575 378.386 216.945 378.386 216.143C378.386 215.342 379.017 214.712 379.82 214.712H452.361C462.625 214.712 471.485 223.818 473.464 236.36L495.971 379.368C496.086 380.141 495.57 380.885 494.767 381C494.71 380.971 494.624 381 494.538 381Z" fill="#231F20"/>
<path d="M333.887 381C333.801 381 333.715 381 333.629 380.971C332.854 380.828 332.338 380.084 332.482 379.311L358.86 235.53C359.663 231.149 361.355 227.054 363.763 223.675C364.222 223.045 365.111 222.873 365.77 223.331C366.401 223.789 366.573 224.677 366.114 225.336C363.964 228.342 362.444 232.065 361.699 236.045L335.32 379.826C335.148 380.513 334.546 381 333.887 381Z" fill="#231F20"/>
<path d="M423.86 217.546H211.054C210.251 217.546 209.621 216.916 209.621 216.115C209.621 215.313 210.251 214.683 211.054 214.683H423.86C424.663 214.683 425.294 215.313 425.294 216.115C425.294 216.916 424.634 217.546 423.86 217.546Z" fill="#231F20"/>
<path d="M401.926 205.978H290.792L320.095 126.513H431.229L401.926 205.978ZM294.892 203.114H399.919L427.1 129.377H322.074L294.892 203.114Z" fill="#231F20"/>
<path d="M394.127 217.546C393.927 217.546 393.754 217.518 393.554 217.432C392.837 217.117 392.493 216.286 392.808 215.542L397.797 203.973C398.113 203.257 398.944 202.913 399.69 203.228C400.406 203.543 400.751 204.374 400.435 205.118L395.446 216.687C395.217 217.231 394.672 217.546 394.127 217.546Z" fill="#231F20"/>
<path d="M231.842 217.546C231.641 217.546 231.469 217.518 231.268 217.432C230.552 217.117 230.207 216.286 230.523 215.542L235.885 203.114H294.003C294.806 203.114 295.437 203.744 295.437 204.546C295.437 205.348 294.806 205.978 294.003 205.978H237.777L233.161 216.687C232.931 217.231 232.387 217.546 231.842 217.546Z" fill="#231F20"/>
<path d="M287.552 217.546C287.351 217.546 287.179 217.518 286.979 217.432C286.262 217.117 285.918 216.286 286.233 215.542L291.222 203.973C291.538 203.257 292.369 202.913 293.115 203.228C293.831 203.543 294.175 204.374 293.86 205.118L288.871 216.687C288.642 217.231 288.097 217.546 287.552 217.546Z" fill="#231F20"/>
<path d="M49.7725 266.972C49.1704 266.972 48.5969 266.571 48.3962 265.97L18.577 171.5C16.0251 163.482 16.5986 156.638 20.2113 151.684C24.6555 145.642 33.4292 142.578 46.3031 142.578C47.1059 142.578 47.7367 143.208 47.7367 144.01C47.7367 144.812 47.1059 145.442 46.3031 145.442C34.3754 145.442 26.3758 148.105 22.5338 153.374C18.663 158.643 19.7239 165.687 21.3295 170.641L51.1487 265.111C51.3781 265.855 50.9767 266.657 50.2026 266.915C50.0592 266.943 49.9158 266.972 49.7725 266.972Z" fill="#231F20"/>
<path d="M152.821 106.955C149.839 106.955 146.886 106.554 143.961 105.752C136.764 103.748 130.485 99.395 125.754 93.181C125.267 92.551 125.41 91.6633 126.041 91.1765C126.672 90.6897 127.561 90.8329 128.048 91.4629C132.406 97.1901 138.169 101.17 144.735 103.003C158.039 106.697 172.805 100.884 182.411 88.1411C182.898 87.5111 183.787 87.368 184.418 87.8548C185.049 88.3416 185.163 89.2293 184.705 89.8593C176.447 100.798 164.605 106.955 152.821 106.955Z" fill="#231F20"/>
<path d="M177.594 380.141L177.995 377.134C178.081 376.504 186.367 313.964 164.003 280.517C152.133 262.763 141.467 262.963 118.07 263.393C109.268 263.536 98.286 263.736 84.896 262.992C65.3128 261.875 49.3997 244.55 42.289 216.659C31.7662 175.423 43.0058 119.068 79.9357 96.1594C106.286 79.8369 109.497 55.296 109.526 55.0669C109.612 54.2937 110.357 53.721 111.103 53.8069C111.877 53.8928 112.45 54.6087 112.364 55.3819C112.249 56.4414 109.038 81.4978 81.4554 98.5934C45.6436 120.786 34.8342 175.71 45.0988 215.943C51.8942 242.574 66.8325 259.069 85.0968 260.128C98.372 260.873 109.296 260.701 118.041 260.529C141.782 260.128 153.681 259.899 166.411 278.942C186.798 309.439 182.64 361.442 181.206 374.557L191.356 368.257C194.424 363.847 238.694 299.13 229.032 252.311C225.935 237.305 217.563 225.536 204.116 217.346C203.427 216.945 203.227 216.058 203.628 215.37C204.03 214.683 204.918 214.483 205.607 214.884C219.771 223.503 228.602 235.874 231.842 251.709C242.049 301.192 195.514 367.341 193.536 370.119L193.134 370.519L177.594 380.141Z" fill="#231F20"/>
<path d="M231.842 217.547C231.068 217.547 230.437 216.945 230.408 216.172C230.379 215.943 229.204 205.978 199.929 205.978C183.242 205.978 127.79 201.281 114.715 141.032C110.816 123.048 101.669 111.995 88.9389 109.876C76.6958 107.843 62.6177 114.887 55.5069 126.628C55.1055 127.315 54.2167 127.515 53.5285 127.115C52.8404 126.714 52.6397 125.826 53.0411 125.139C60.8687 112.224 75.8069 104.779 89.4263 107.041C97.5119 108.387 111.934 114.515 117.525 140.43C130.141 198.618 183.787 203.143 199.929 203.143C232.616 203.143 233.247 215.599 233.275 216.115C233.304 216.917 232.673 217.547 231.87 217.575C231.842 217.547 231.842 217.547 231.842 217.547Z" fill="#231F20"/>
<path d="M185.966 217.547C66.5745 217.547 61.5568 200.594 44.9268 144.382C44.6975 143.638 45.1276 142.836 45.9017 142.607C46.6759 142.378 47.45 142.807 47.6794 143.58C64.252 199.621 68.7249 214.683 185.966 214.683C186.769 214.683 187.4 215.313 187.4 216.115C187.4 216.917 186.769 217.547 185.966 217.547Z" fill="#231F20"/>
<path d="M177.737 379.568H206.553C207.786 379.568 208.216 377.936 207.155 377.334L192.905 369.173L177.737 379.568Z" fill="#231F20"/>
<path d="M215.384 380.37L216.158 377.02C216.273 376.561 226.652 330.83 225.563 296.782C225.534 295.98 226.165 295.321 226.939 295.293C227.713 295.321 228.401 295.894 228.43 296.667C229.347 325.733 222.036 363.103 219.656 374.299L229.491 368.2C232.358 364.42 274.162 308.494 264.127 262.19C259.998 243.09 247.583 228.027 227.197 217.346C226.509 216.974 226.222 216.115 226.595 215.399C226.967 214.712 227.828 214.425 228.516 214.797C249.676 225.88 262.607 241.601 266.937 261.56C277.545 310.584 232.042 369.546 231.584 370.118L231.211 370.462L215.384 380.37Z" fill="#231F20"/>
<path d="M215.871 379.568H244.687C245.92 379.568 246.35 377.936 245.289 377.334L231.039 369.173L215.871 379.568Z" fill="#231F20"/>
<path d="M178.54 66.2636C180.139 66.2636 181.436 64.9687 181.436 63.3713C181.436 61.774 180.139 60.4791 178.54 60.4791C176.941 60.4791 175.644 61.774 175.644 63.3713C175.644 64.9687 176.941 66.2636 178.54 66.2636Z" fill="#231F20"/>
<path d="M367.835 172.044C369.434 172.044 370.731 170.749 370.731 169.152C370.731 167.555 369.434 166.26 367.835 166.26C366.235 166.26 364.939 167.555 364.939 169.152C364.939 170.749 366.235 172.044 367.835 172.044Z" fill="#231F20"/>
<path d="M185.335 204.202C184.79 204.202 184.246 203.887 184.016 203.343C183.644 202.484 174.87 182.067 182.468 151.656C189.751 122.59 168.619 102.517 168.39 102.316C167.816 101.772 167.788 100.884 168.304 100.283C168.82 99.6816 169.738 99.6816 170.34 100.197C170.569 100.397 192.933 121.588 185.249 152.343C177.88 181.809 186.54 201.997 186.626 202.169C186.941 202.885 186.626 203.744 185.88 204.059C185.737 204.145 185.536 204.202 185.335 204.202Z" fill="#231F20"/>
<path d="M244.974 206.035C195.371 206.035 181.522 157.841 181.378 157.326C181.178 156.552 181.608 155.779 182.382 155.579C183.156 155.378 183.93 155.808 184.131 156.581C184.274 157.068 198.094 204.89 247.554 203.143C248.386 203.143 249.016 203.744 249.045 204.518C249.074 205.319 248.443 205.978 247.669 206.007C246.78 206.007 245.863 206.035 244.974 206.035Z" fill="#231F20"/>
<path d="M370.731 99.4239C361.355 99.4239 353.728 91.8067 353.728 82.4428C353.728 73.0789 361.355 65.4617 370.731 65.4617C380.106 65.4617 387.733 73.0789 387.733 82.4428C387.733 91.8067 380.106 99.4239 370.731 99.4239ZM370.731 68.3253C362.932 68.3253 356.595 74.6538 356.595 82.4428C356.595 90.2317 362.932 96.5603 370.731 96.5603C378.529 96.5603 384.866 90.2317 384.866 82.4428C384.866 74.6538 378.529 68.3253 370.731 68.3253Z" fill="#0085FF"/>
<path d="M392.751 106.984C392.378 106.984 392.005 106.84 391.747 106.554L379.934 94.756C379.361 94.1833 379.361 93.2956 379.934 92.7229C380.508 92.1502 381.397 92.1502 381.97 92.7229L393.783 104.521C394.357 105.094 394.357 105.981 393.783 106.554C393.496 106.84 393.124 106.984 392.751 106.984Z" fill="#0085FF"/>
<path d="M384.149 59.9634C384.149 59.9634 389.282 61.7961 390.4 67.781" stroke="#0085FF" stroke-miterlimit="10" stroke-linecap="round"/>
<path d="M390.371 56.0405C390.371 56.0405 395.503 57.8732 396.622 63.8581" stroke="#0085FF" stroke-miterlimit="10" stroke-linecap="round"/>
<path d="M180.203 92.3507L176.619 86.5949L185.192 87.1676C186.023 87.2535 186.711 86.7094 186.884 85.9363L190.783 70.1293C196.03 48.1942 185.737 26.9751 167.329 21.8492C158.211 19.3293 148.463 21.1333 139.861 26.9178C131.202 32.7881 124.751 42.0089 121.711 52.8619C119.274 61.6244 119.274 70.6447 121.711 78.8919L118.959 79.6937C116.35 70.9311 116.35 61.3667 118.93 52.0887C122.141 40.5485 128.994 30.7836 138.227 24.541C147.516 18.2411 158.125 16.3225 168.074 19.0716C187.973 24.5983 199.155 47.3065 193.536 70.7593L189.636 86.5663C189.12 88.6853 187.17 90.1457 184.962 89.9739L181.952 89.7735L182.583 90.8044L180.203 92.3507Z" fill="#231F20"/>
<path d="M42.375 211.762C42.3176 211.762 42.2316 211.762 42.1743 211.734C41.4001 211.619 40.8553 210.903 40.97 210.13C41.056 209.615 43.0631 197.129 63.1337 186.591C63.8219 186.219 64.7107 186.477 65.0835 187.193C65.4562 187.88 65.1695 188.768 64.4813 189.111C45.8443 198.905 43.8373 210.416 43.8373 210.531C43.6652 211.247 43.0631 211.762 42.375 211.762Z" fill="#231F20"/>
<path d="M43.9806 218.806C43.7513 218.806 43.5219 218.749 43.3212 218.635C42.633 218.262 42.3463 217.403 42.7191 216.687C43.0631 216 51.6648 199.907 68.3521 192.662C69.0689 192.347 69.9291 192.691 70.2445 193.406C70.5599 194.122 70.2158 194.981 69.499 195.296C53.7292 202.112 45.3282 217.861 45.2709 218.033C45.0129 218.52 44.4967 218.806 43.9806 218.806Z" fill="#231F20"/>
<path d="M39.1924 182.124C39.1924 182.124 35.8377 212.249 42.289 241.2C47.1059 257.809 47.9661 261.102 50.3172 265.512C50.9194 260.501 82.975 261.789 82.975 261.789C82.975 261.789 60.3812 262.648 47.192 229.832C44.2387 221.498 38.3609 193.378 39.1924 182.124Z" fill="#231F20"/>
<path d="M187.199 372.495C187.084 372.495 186.941 372.495 186.826 372.438C186.052 372.237 185.593 371.464 185.823 370.691C199.385 319.776 197.836 282.979 181.178 261.331C170.11 246.956 152.391 239.653 128.535 239.653C68.0367 239.653 56.7112 201.539 56.5965 201.167C56.3958 200.394 56.8259 199.62 57.6 199.391C58.3455 199.191 59.1483 199.62 59.3777 200.394C59.4924 200.766 70.3305 236.79 128.564 236.79C153.366 236.79 171.859 244.464 183.5 259.584C200.732 281.977 202.481 319.605 188.661 371.436C188.403 372.066 187.83 372.495 187.199 372.495Z" fill="#231F20"/>
<path d="M466.754 225.278H272.528C271.725 225.278 271.094 224.648 271.094 223.846C271.094 223.045 271.725 222.415 272.528 222.415H466.754C467.557 222.415 468.188 223.045 468.188 223.846C468.188 224.648 467.557 225.278 466.754 225.278Z" fill="#231F20"/>
<path d="M118.471 86.5375C114.457 69.4706 106.286 70.6446 105.397 58.4744C104.508 46.3042 111.647 43.9274 111.934 40.3765C112.221 36.8257 108.952 16.9238 128.879 16.3224C132.463 8.90575 138.399 0 149.982 0C161.566 0 166.326 8.01804 166.326 8.01804C166.326 8.01804 171.974 5.03991 178.081 6.52897C184.188 8.01804 185.966 12.7716 185.966 12.7716C185.966 12.7716 197.55 17.5251 204.402 14.862C200.532 21.391 202.481 31.1844 188.575 34.7639C178.827 32.3871 173.494 27.3472 167.243 32.1008C160.992 36.8543 158.326 52.5754 144.649 54.0645C143.474 52.5754 148.205 41.8942 141.381 40.1188C134.528 38.2861 123.403 77.3454 118.471 86.5375Z" fill="#0085FF"/>
</g>
<path d="M0 381.5C0 380.119 1.11929 379 2.5 379H512.5C513.881 379 515 380.119 515 381.5C515 382.881 513.881 384 512.5 384H2.50001C1.11929 384 0 382.881 0 381.5Z" fill="#231F20"/>
<defs>
<clipPath id="clip0">
<path d="M17 0H496V381H17V0Z" fill="white"/>
</clipPath>
</defs>
</svg>
