<svg width="574" height="496" viewBox="0 0 574 496" fill="none" xmlns="http://www.w3.org/2000/svg">
<path d="M164.451 164.753H145.672V248.807H164.451V164.753Z" fill="#D1DCE0"/>
<path d="M97.3938 164.753H86.9468V248.807H97.3938V164.753Z" fill="#D1DCE0"/>
<path d="M190.559 205.7H180.112V248.828H190.559V205.7Z" fill="#D1DCE0"/>
<path d="M198.159 234.005H187.732V199.599L198.159 190.898V234.005Z" fill="#D1DCE0"/>
<path d="M105.663 180.436H95.2163V264.49H105.663V180.436Z" fill="#D1DCE0"/>
<path d="M116.194 175.131H108.155V255.264H116.194V175.131Z" fill="#D1DCE0"/>
<path d="M108.804 189.724H100.765V269.857H108.804V189.724Z" fill="#D1DCE0"/>
<path d="M180.112 183.706H161.332V248.827H180.112V183.706Z" fill="#D1DCE0"/>
<path d="M205.026 197.649H198.159V248.828H205.026V197.649Z" fill="#D1DCE0"/>
<path d="M214.384 186.872H204.042V238.051H214.384V186.872Z" fill="#D1DCE0"/>
<path d="M130.975 248.827H112.196V183.706H113.096C122.978 183.706 130.996 191.736 130.996 201.632V248.827H130.975Z" fill="#D1DCE0"/>
<path d="M145.672 248.828H126.872V205.7H127.772C137.654 205.7 145.672 213.73 145.672 223.626V248.828Z" fill="#D1DCE0"/>
<path d="M214.292 240.812L229.952 240.812L229.952 183.05L214.292 183.05L214.292 240.812Z" fill="#D1DCE0"/>
<path d="M270.176 240.812L278.885 240.812L278.885 183.05L270.176 183.05L270.176 240.812Z" fill="#D1DCE0"/>
<path d="M192.526 240.809L201.235 240.809L201.235 211.183L192.526 211.183L192.526 240.809Z" fill="#D1DCE0"/>
<path d="M186.183 230.65H194.892V207L186.183 201.004V230.65Z" fill="#D1DCE0"/>
<path d="M263.287 251.584L271.996 251.584L271.996 193.822L263.287 193.822L263.287 251.584Z" fill="#D1DCE0"/>
<path d="M254.511 245.243L261.21 245.243L261.21 190.186L254.511 190.186L254.511 245.243Z" fill="#D1DCE0"/>
<path d="M260.683 255.273L267.382 255.273L267.382 200.216L260.683 200.216L260.683 255.273Z" fill="#D1DCE0"/>
<path d="M201.231 240.812L216.891 240.812L216.891 196.069L201.231 196.069L201.231 240.812Z" fill="#D1DCE0"/>
<path d="M180.439 240.807L186.175 240.807L186.175 205.646L180.439 205.646L180.439 240.807Z" fill="#D1DCE0"/>
<path d="M172.669 233.414L181.294 233.414L181.294 198.254L172.669 198.254L172.669 233.414Z" fill="#D1DCE0"/>
<path d="M242.208 240.818H257.868V196.076H257.114C248.886 196.076 242.208 202.764 242.208 211.004V240.818Z" fill="#D1DCE0"/>
<path d="M229.939 240.819H245.599V211.193H244.845C236.618 211.193 229.939 217.882 229.939 226.121V240.819Z" fill="#D1DCE0"/>
<path d="M359.721 169.911H339.078V253.965H359.721V169.911Z" fill="#D1DCE0"/>
<path d="M286.006 169.911H274.533V253.965H286.006V169.911Z" fill="#D1DCE0"/>
<path d="M388.424 210.858H376.951V253.986H388.424V210.858Z" fill="#D1DCE0"/>
<path d="M396.778 239.163H385.305V204.758L396.778 196.057V239.163Z" fill="#D1DCE0"/>
<path d="M295.092 185.594H283.619V269.648H295.092V185.594Z" fill="#D1DCE0"/>
<path d="M306.69 180.289H297.855V260.422H306.69V180.289Z" fill="#D1DCE0"/>
<path d="M298.546 194.882H289.711V275.015H298.546V194.882Z" fill="#D1DCE0"/>
<path d="M376.93 188.864H356.288V253.986H376.93V188.864Z" fill="#D1DCE0"/>
<path d="M404.335 202.808H396.777V253.986H404.335V202.808Z" fill="#D1DCE0"/>
<path d="M414.615 192.03H403.247V243.209H414.615V192.03Z" fill="#D1DCE0"/>
<path d="M322.916 253.986H302.273V188.864H305.036C314.918 188.864 322.937 196.894 322.937 206.79V253.986H322.916Z" fill="#D1DCE0"/>
<path d="M339.078 253.986H318.436V210.858H321.199C331.081 210.858 339.099 218.889 339.099 228.785V253.986H339.078Z" fill="#D1DCE0"/>
<path d="M414.502 245.973L431.711 245.973L431.711 188.21L414.502 188.21L414.502 245.973Z" fill="#D1DCE0"/>
<path d="M475.949 245.973L485.517 245.973L485.517 188.21L475.949 188.21L475.949 245.973Z" fill="#D1DCE0"/>
<path d="M390.578 245.969L400.146 245.969L400.146 216.343L390.578 216.343L390.578 245.969Z" fill="#D1DCE0"/>
<path d="M383.609 235.808H393.177V212.158L383.609 206.162V235.808Z" fill="#D1DCE0"/>
<path d="M468.384 256.745L477.952 256.745L477.952 198.983L468.384 198.983L468.384 256.745Z" fill="#D1DCE0"/>
<path d="M458.714 250.403L466.083 250.403L466.083 195.346L458.714 195.346L458.714 250.403Z" fill="#D1DCE0"/>
<path d="M465.501 260.434L472.871 260.434L472.871 205.376L465.501 205.376L465.501 260.434Z" fill="#D1DCE0"/>
<path d="M400.171 245.972L417.38 245.972L417.38 201.23L400.171 201.23L400.171 245.972Z" fill="#D1DCE0"/>
<path d="M377.309 245.967L383.61 245.967L383.61 210.806L377.309 210.806L377.309 245.967Z" fill="#D1DCE0"/>
<path d="M368.762 238.575L378.246 238.575L378.246 203.415L368.762 203.415L368.762 238.575Z" fill="#D1DCE0"/>
<path d="M445.181 245.976H462.391V201.234H460.088C451.86 201.234 445.181 207.923 445.181 216.162V245.976Z" fill="#D1DCE0"/>
<path d="M431.72 245.977H448.929V216.352H446.626C438.398 216.352 431.72 223.04 431.72 231.28V245.977Z" fill="#D1DCE0"/>
<path d="M478.972 238.555V236.815H463.898V221.426H443.171V238.555H439.549V202.178C439.549 196.455 434.902 191.8 429.186 191.8C423.471 191.8 418.823 196.455 418.823 202.178V233.041H407.517V190.353H379.254V205.114L369.351 195.008L349.253 215.534V223.879L334.493 212.347L314.395 228.051V238.576H257.072V236.836L212.269 201.864V125.337H160.892V196.748H117.974V238.555H86.9468V340.745H117.974H160.892H169.309H205.695H212.227H257.03H379.254H389.45H407.517H434.043H443.171H458.245H463.898H478.972H485.525V238.555H478.972Z" fill="#B5C0C4"/>
<path d="M486.571 341.793H85.8999V38.8926H486.55V341.793H486.571ZM87.9935 339.696H484.457V40.9892H87.9935V339.696Z" fill="#231F20"/>
<path d="M87.512 287.343V255.265H154.402V266.125H175.171V259.227H261.929V287.343H328.757L485.525 317.535V340.744H86.9468V287.343H87.512Z" fill="#424A4C"/>
<path d="M132.927 271.852L148.021 271.852L148.021 242.897L132.927 242.897L132.927 271.852Z" fill="#424A4C"/>
<path d="M121.908 268.596L128.44 268.596L128.44 247.86L121.908 247.86L121.908 268.596Z" fill="#424A4C"/>
<path d="M98.1895 251.113H104.135C105.831 251.113 107.192 249.73 107.192 248.052V247.738C107.192 246.04 105.81 244.677 104.135 244.677H98.1895C96.4937 244.677 95.1328 246.061 95.1328 247.738V248.052C95.1328 249.751 96.4937 251.113 98.1895 251.113Z" fill="#424A4C"/>
<path d="M98.4429 256.11L103.886 256.11L103.886 249.569L98.4429 249.569L98.4429 256.11Z" fill="#424A4C"/>
<path d="M187.648 39.9404H185.555V340.744H187.648V39.9404Z" fill="#231F20"/>
<path d="M287.283 39.9404H285.189V340.744H287.283V39.9404Z" fill="#231F20"/>
<path d="M386.917 39.9404H384.823V340.744H386.917V39.9404Z" fill="#231F20"/>
<path d="M154.633 194.693C154.633 194.693 176.992 178.15 183.357 175.257L178.667 150.789C178.667 150.789 155.302 157.184 138.449 191.506C137.277 196.013 142.448 207.126 163.572 222.263C165.77 223.836 167.78 224.716 169.623 225.01C156.412 206.056 154.633 194.693 154.633 194.693Z" fill="white"/>
<path d="M171.884 226.436L169.434 226.037C167.362 225.702 165.184 224.716 162.944 223.102C141.904 208.006 136.041 196.496 137.423 191.233L137.507 191.044C154.381 156.702 177.432 150.034 178.395 149.783L179.483 149.489L184.55 175.886L183.796 176.221C178.165 178.779 159.259 192.617 155.805 195.154C156.391 197.733 159.322 208.384 170.481 224.423L171.884 226.436ZM139.412 191.862C138.596 195.426 142.72 206.035 164.158 221.404C165.142 222.117 166.105 222.683 167.048 223.102C155.407 205.679 153.669 195.301 153.586 194.86L153.481 194.231L153.984 193.854C154.863 193.204 174.982 178.339 182.142 174.67L177.83 152.173C173.119 153.934 153.795 162.656 139.412 191.862Z" fill="#231F20"/>
<path d="M168.514 308.184C167.153 330.094 164.306 355.044 158.82 380.245H166.315C174.983 368.567 200.19 335.273 201.257 295.94C211.474 314.935 227.909 339.885 238.042 380.245H245.202C249.222 310.994 237.686 254.385 234.127 238.932V226.709H165.876V240.169C164.096 246.292 162.589 256.439 163.824 272.457C165.269 291.516 167.278 299.106 168.514 308.184Z" fill="white"/>
<path d="M246.186 381.293H237.225L237.016 380.496C228.537 346.783 215.891 324.244 205.716 306.15C204.46 303.927 203.267 301.789 202.115 299.713C199.666 337.117 176.469 368.336 167.55 380.329L166.838 381.293H157.522L157.794 380.014C162.63 357.769 165.875 333.616 167.467 308.205C167.111 305.626 166.692 303.152 166.252 300.51C165.122 293.759 163.824 286.106 162.777 272.541C161.521 256.019 163.175 245.746 164.829 240.022V225.66H235.173V238.806C238.816 254.678 250.247 311.203 246.248 380.308L246.186 381.293ZM238.858 379.196H244.218C248.049 310.658 236.702 254.719 233.122 239.162L233.101 238.932V227.757H166.943L166.901 240.462C165.289 245.997 163.635 256.04 164.891 272.394C165.917 285.875 167.215 293.465 168.346 300.174C168.806 302.879 169.225 305.395 169.581 308.037L169.602 308.142V308.246C168.053 333.322 164.87 357.182 160.16 379.196H165.834L165.917 379.071C175.024 366.826 199.205 334.308 200.252 295.897L200.357 291.977L202.22 295.436C203.874 298.497 205.675 301.726 207.601 305.122C217.692 323.195 230.316 345.65 238.858 379.196Z" fill="#231F20"/>
<path d="M216.289 153.557C216.289 153.557 212.437 152.824 211.809 145.192C211.809 145.192 220.204 139.866 220.79 122.276C221.292 107.18 214.426 99.4014 202.052 99.4014C189.679 99.4014 180.551 110.367 180.551 123.68C180.551 128.649 181.724 134.792 182.854 138.315C182.875 138.357 182.875 138.399 182.896 138.441C184.529 143.703 181.828 149.301 176.95 151.88C165.519 157.939 159.113 166.179 159.113 181.401C159.113 188.152 160.055 194.63 162.442 199.893C164.577 204.61 165.875 209.642 165.875 214.8V226.709H234.482C234.482 226.709 227.699 213.898 235.529 177.417C238.627 163.055 231.76 159.323 216.289 153.557Z" fill="white"/>
<path d="M234.482 227.757H164.828V214.8C164.828 210.082 163.698 205.197 161.478 200.333C159.196 195.322 158.045 188.969 158.045 181.401C158.045 166.892 163.551 157.792 176.448 150.957C181.033 148.525 183.315 143.389 181.87 138.755C180.656 135.002 179.483 128.691 179.483 123.659C179.483 109.465 189.386 98.332 202.031 98.332C208.082 98.332 212.876 100.114 216.268 103.616C220.225 107.725 222.109 113.994 221.837 122.276C221.334 137.686 214.886 144.06 212.918 145.653C213.588 151.733 216.393 152.488 216.519 152.509L216.665 152.551C231.614 158.128 239.925 162.028 236.576 177.627C228.955 213.144 235.361 226.08 235.424 226.206L236.22 227.736L234.482 227.757ZM166.922 225.66H232.933C231.404 221.278 228.096 207.126 234.524 177.186C237.371 163.894 231.718 160.392 215.996 154.543C215.263 154.354 211.411 152.949 210.782 145.255L210.72 144.668L211.243 144.311C212.06 143.745 219.22 138.378 219.743 122.234C219.994 114.539 218.319 108.773 214.76 105.104C211.787 102.022 207.496 100.45 202.031 100.45C190.558 100.45 181.577 110.66 181.577 123.68C181.577 128.482 182.707 134.52 183.817 138C185.597 143.745 182.896 149.909 177.411 152.823C165.289 159.239 160.118 167.793 160.118 181.422C160.118 188.676 161.206 194.756 163.363 199.473C165.707 204.631 166.901 209.789 166.901 214.821V225.66H166.922Z" fill="#231F20"/>
<path d="M187.314 251.616C185.576 266.293 191.982 278.684 201.236 295.939L187.314 251.616Z" fill="white"/>
<path d="M200.315 296.443C190.475 278.118 184.529 266.167 186.267 251.512L188.339 251.763C186.665 265.79 192.506 277.51 202.157 295.457L200.315 296.443Z" fill="#231F20"/>
<path d="M256.653 380.098L246.311 374.647L235.571 374.374L237.35 381.607H256.276C257.072 381.628 257.365 380.517 256.653 380.098Z" fill="#231F20"/>
<path d="M171.528 380.245L169.35 374.919L159.469 374.5L157.898 381.629L171.297 381.775C171.779 381.754 171.946 380.664 171.528 380.245Z" fill="#231F20"/>
<path d="M234.503 232.475H165.875V234.571H234.503V232.475Z" fill="#231F20"/>
<path d="M168.911 243.607C168.911 243.607 174.25 242.999 180.593 243.607H168.911Z" fill="white"/>
<path d="M180.509 244.655C174.354 244.068 169.099 244.655 169.036 244.655L168.806 242.58C169.036 242.559 174.333 241.972 180.719 242.58L180.509 244.655Z" fill="#231F20"/>
<path d="M196.881 243.482C196.881 243.482 205.402 242.182 215.431 243.482H196.881Z" fill="white"/>
<path d="M215.305 244.509C205.549 243.251 197.133 244.488 197.049 244.509L196.735 242.433C197.091 242.37 205.507 241.112 215.577 242.433L215.305 244.509Z" fill="#231F20"/>
<path d="M182.142 146.156C182.142 146.156 196.944 141.648 213.044 150.181L182.142 146.156Z" fill="white"/>
<path d="M212.562 151.104C197.07 142.885 182.603 147.12 182.456 147.162L181.849 145.149C182.477 144.961 197.237 140.621 213.546 149.238L212.562 151.104Z" fill="#231F20"/>
<path d="M261.72 193.016C253.388 170.163 232.347 157.625 221.984 157.185C217.252 156.975 210.699 162.447 210.05 168.737C209.024 178.507 215.326 181.338 223.282 183.77C228.013 185.217 245.118 191.737 245.578 198.782C245.809 202.409 244.28 210.292 233.771 222.558C233.645 222.537 229.73 221.719 229.479 222.767C229.207 223.857 233.289 224.675 233.645 225.828C256.298 214.15 262.62 197.042 261.72 193.016Z" fill="white"/>
<path d="M233.017 227.317L232.64 226.122C232.493 225.975 231.593 225.535 231.049 225.283C229.667 224.633 228.097 223.899 228.453 222.495C228.767 221.216 230.253 220.88 233.352 221.404C243.924 208.909 244.699 201.465 244.511 198.824C244.134 193.079 229.541 186.747 222.947 184.734C214.949 182.302 207.873 179.241 208.982 168.59C209.715 161.609 216.75 155.906 222.005 156.094C233.373 156.577 254.392 169.869 262.683 192.618L262.725 192.744C263.834 197.65 256.947 214.947 234.105 226.709L233.017 227.317ZM231.782 223.333C231.844 223.354 231.886 223.375 231.949 223.417C232.682 223.753 233.394 224.088 233.917 224.507C254.937 213.374 261.49 197.146 260.715 193.31C252.445 170.687 231.405 158.631 221.942 158.233C217.713 157.96 211.683 163.16 211.097 168.842C210.155 177.92 215.933 180.415 223.596 182.764C223.826 182.826 246.06 189.829 246.625 198.719C246.855 202.346 245.599 210.355 234.566 223.25L234.189 223.69L233.624 223.627C232.849 223.459 232.242 223.375 231.782 223.333Z" fill="#231F20"/>
<path d="M213.379 91.9371C211.976 91.7904 210.594 91.2872 209.527 90.3647C207.307 88.4567 203.748 87.2197 199.708 87.2197C194.453 87.2197 189.993 89.3164 188.277 92.2726C186.56 92.9226 185.052 93.8031 183.713 94.9353C178.374 99.4221 180.844 102.903 176.992 106.53C173.14 110.157 174.752 117.16 176.867 122.716C172.784 126.573 179.002 139.405 184.362 136.512C189.7 133.618 202.178 140.139 204.23 133.828C204.983 131.543 204.774 124.938 204.669 123.072C204.355 116.363 202.639 113.595 204.963 112.149C209.087 108.668 211.495 123.135 211.495 123.135C211.495 123.135 214.112 121.374 214.3 118.124C214.446 115.713 212.939 108.333 216.289 106.173C219.932 104.119 222.025 98.3948 222.967 94.9773C223.323 93.7193 222.381 92.4613 221.083 92.4613C219.534 92.4613 217.105 92.3355 213.379 91.9371Z" fill="#0085FF"/>
<path d="M211.955 146.533C211.955 146.533 211.076 143.745 210.804 140.537L211.955 146.533Z" fill="white"/>
<path d="M210.971 146.848C210.929 146.723 210.05 143.913 209.778 140.621L211.871 140.433C212.144 143.494 212.981 146.177 212.981 146.198L210.971 146.848Z" fill="#231F20"/>
<path d="M237.33 381.629L102.335 481.869L171.277 381.901L157.899 381.629L0 478.053L95.1956 487.173L94.7769 487.488L168.911 496L256.256 381.629H237.33Z" fill="url(#paint0_linear)"/>
<path d="M224.266 489.039C225.271 487.047 325.951 355.819 325.951 355.819L337.675 353.366L298.546 487.299L224.266 489.039Z" fill="url(#paint1_linear)"/>
<path d="M438.859 89.2744C415.536 90.3856 414.615 117.663 414.615 117.663H438.859H463.102C463.081 117.642 462.181 90.3856 438.859 89.2744Z" fill="#231F20"/>
<path d="M333.991 264.28H326.559V358.398H333.991L337.697 353.366V264.28H333.991Z" fill="#B5C0C4"/>
<path d="M334.514 359.446H325.512V263.253H338.743V353.723L334.514 359.446ZM327.605 357.35H333.467L336.671 353.031V265.35H327.626V357.35H327.605Z" fill="#231F20"/>
<path d="M335.037 264.28H332.944V358.377H335.037V264.28Z" fill="#231F20"/>
<path d="M439.906 0H437.812V89.2746H439.906V0Z" fill="url(#paint2_linear)"/>
<path d="M547.077 264.28H554.509V358.398H547.077L543.371 353.366V264.28H547.077Z" fill="#B5C0C4"/>
<path d="M555.556 359.446H546.553L542.324 353.723V263.253H555.556V359.446ZM547.621 357.35H553.483V265.35H544.439V353.031L547.621 357.35Z" fill="#231F20"/>
<path d="M548.123 264.28H546.03V358.377H548.123V264.28Z" fill="#231F20"/>
<path d="M548.689 258.221H331.144L307.716 266.859V275.497H572.953V266.859L548.689 258.221Z" fill="white"/>
<path d="M574 276.546H306.669V266.125L331.144 257.173H548.877L574 266.125V276.546ZM308.763 274.449H571.907V267.593L548.521 259.269H331.332L308.763 267.593V274.449Z" fill="#231F20"/>
<path d="M572.953 265.811H307.716V267.907H572.953V265.811Z" fill="#231F20"/>
<path d="M323.23 275.497H315.274V376.261H323.23L327.207 370.873V275.497H323.23Z" fill="white"/>
<path d="M323.753 377.31H314.227V274.449H328.254V371.23L323.753 377.31ZM316.321 375.213H322.706L326.16 370.538V276.546H316.321V375.213Z" fill="#231F20"/>
<path d="M324.276 275.497H322.183V376.261H324.276V275.497Z" fill="#231F20"/>
<path d="M555.953 275.497H563.909V376.261H555.953L551.976 370.873V275.497H555.953Z" fill="white"/>
<path d="M564.956 377.31H555.43L550.929 371.23V274.449H564.956V377.31ZM556.477 375.213H562.862V276.546H553.022V370.538L556.477 375.213Z" fill="#231F20"/>
<path d="M557 275.497H554.906V376.261H557V275.497Z" fill="#231F20"/>
<path d="M400.462 231.887H379.233V262.414H400.462V231.887Z" fill="white"/>
<path d="M401.509 263.462H378.187V230.839H401.509V263.462ZM380.28 261.366H399.416V232.935H380.28V261.366Z" fill="#231F20"/>
<path d="M409.465 261.366H370.21V263.463H409.465V261.366Z" fill="#231F20"/>
<path d="M433.352 196.056H346.343V250.086H433.352V196.056Z" fill="#424A4C"/>
<path d="M434.399 251.135H345.296V195.008H434.399V251.135ZM347.389 249.038H432.306V197.104H347.389V249.038Z" fill="#231F20"/>
<defs>
<linearGradient id="paint0_linear" x1="148.346" y1="367.827" x2="116.048" y2="466.621" gradientUnits="userSpaceOnUse">
<stop stop-color="#B5C0C4"/>
<stop offset="1" stop-color="#B5C0C4" stop-opacity="0"/>
</linearGradient>
<linearGradient id="paint1_linear" x1="302.406" y1="362.423" x2="271.445" y2="457.124" gradientUnits="userSpaceOnUse">
<stop stop-color="#C4CDD0"/>
<stop offset="1" stop-color="#C4CDD0" stop-opacity="0"/>
</linearGradient>
<linearGradient id="paint2_linear" x1="438.85" y1="89.2666" x2="438.85" y2="0" gradientUnits="userSpaceOnUse">
<stop offset="0.6536" stop-color="#231F20"/>
<stop offset="1" stop-color="white"/>
</linearGradient>
</defs>
</svg>
