<svg width="18" height="16" viewBox="0 0 18 16" fill="none" xmlns="http://www.w3.org/2000/svg">
<path d="M9 3L9.01174 3.00001C10.3595 3.00311 11.582 3.53946 12.4795 4.40926L12.5143 4.44332L12.5355 4.46447L12.5539 4.48298C13.4479 5.3863 14 6.62868 14 8L17 8C17 6.97157 16.8017 5.953 16.4162 5L16.391 4.93853C15.989 3.96793 15.3997 3.08601 14.6569 2.34315C13.914 1.60028 13.0321 1.011 12.0615 0.608964C11.0909 0.206926 10.0506 6.07538e-07 9 6.99382e-07L9 3Z" fill="black"/>
<path d="M9 3L8.98826 3.00001C7.64049 3.00311 6.41798 3.53946 5.52054 4.40926L5.48574 4.44332L5.46447 4.46447L5.44605 4.48298C4.55206 5.3863 4 6.62868 4 8L1 8C1 6.97157 1.19829 5.953 1.5838 5L1.60896 4.93853C2.011 3.96793 2.60028 3.08601 3.34314 2.34315C4.08601 1.60028 4.96793 1.011 5.93853 0.608963C6.90914 0.206925 7.94942 -6.07538e-07 9 -6.99382e-07L9 3Z" fill="black"/>
<rect y="6" width="9" height="2" fill="black"/>
<rect x="9" y="6" width="9" height="2" fill="black"/>
<path d="M9 13L8.98826 13C7.64049 12.9969 6.41798 12.4605 5.52054 11.5907L5.48574 11.5567L5.46447 11.5355L5.44605 11.517C4.55206 10.6137 4 9.37132 4 8H1C1 9.02843 1.19829 10.047 1.5838 11L1.60896 11.0615C2.011 12.0321 2.60028 12.914 3.34315 13.6569C4.08601 14.3997 4.96793 14.989 5.93853 15.391C6.90914 15.7931 7.94942 16 9 16L9 13Z" fill="black"/>
<path d="M9 13L9.01174 13C10.3595 12.9969 11.582 12.4605 12.4795 11.5907L12.5143 11.5567L12.5355 11.5355L12.5539 11.517C13.4479 10.6137 14 9.37132 14 8H17C17 9.02843 16.8017 10.047 16.4162 11L16.391 11.0615C15.989 12.0321 15.3997 12.914 14.6569 13.6569C13.914 14.3997 13.0321 14.989 12.0615 15.391C11.0909 15.7931 10.0506 16 9 16L9 13Z" fill="black"/>
<rect y="8" width="9" height="2" fill="black"/>
<rect x="9" y="8" width="9" height="2" fill="black"/>
</svg>
