<svg width="24" height="13" viewBox="0 0 24 13" fill="none" xmlns="http://www.w3.org/2000/svg"><path d="M11.998 9.463c-2.647 0-4.791-2.029-4.791-4.521C7.207 2.449 9.359.42 11.998.42c2.64 0 4.791 2.029 4.791 4.522.008 2.492-2.144 4.521-4.79 4.521zm0-7.884c-1.989 0-3.608 1.508-3.608 3.363s1.62 3.362 3.608 3.362c1.99 0 3.608-1.507 3.608-3.362.008-1.855-1.611-3.363-3.608-3.363z" fill="#0085FF"/><path d="M12 1.16c4.274 0 8.266 2.028 10.595 5.34C20.26 9.812 16.266 11.84 12 11.84c-4.266 0-8.259-2.028-10.595-5.34C3.734 3.188 7.726 1.16 12 1.16zM12 0C6.869 0 2.388 2.609 0 6.507 2.396 10.391 6.869 13 12 13s9.604-2.609 12-6.493C21.612 2.61 17.131 0 12 0z" fill="#000"/><path d="M13.101 5.479A1.094 1.094 0 0 1 12 4.399c0-.529.4-.95.917-1.043A1.88 1.88 0 0 0 12 3.109c-1.035 0-1.87.82-1.87 1.834 0 1.014.835 1.833 1.87 1.833.947 0 1.723-.696 1.842-1.587-.193.174-.451.29-.74.29z" fill="#000"/></svg>