<svg width="24" height="17" viewBox="0 0 24 17" fill="none" xmlns="http://www.w3.org/2000/svg"><path d="M6.968 17a6.749 6.749 0 0 1-2.502-.483C2.73 15.826 1.358 14.48.606 12.73a7.37 7.37 0 0 1-.14-5.504c.669-1.794 1.972-3.213 3.665-3.998a6.739 6.739 0 0 1 5.324-.144 7.091 7.091 0 0 1 2.642 1.866L22.682.079a.916.916 0 0 1 1.024.18c.272.267.363.685.23 1.052l-1.568 4.236c-.188.497-.731.749-1.212.554l-.432-.173-.286.771a.928.928 0 0 1-1.212.555l-1.506-.598-1.972.908-.948 2.55a.975.975 0 0 1-.494.54.89.89 0 0 1-.446.08 7.287 7.287 0 0 1-.398 1.649c-.668 1.793-1.972 3.212-3.665 3.99a6.743 6.743 0 0 1-2.83.627zm.007-13.24c-2.349 0-4.572 1.477-5.464 3.876a6.208 6.208 0 0 0 .119 4.624c.634 1.477 1.784 2.608 3.247 3.184a5.65 5.65 0 0 0 4.474-.122c1.428-.656 2.523-1.844 3.08-3.357a6.311 6.311 0 0 0 .383-2.024l.021-.814 1.004.396.913-2.45a.953.953 0 0 1 .494-.54l2.105-.965c.23-.1.48-.108.718-.021l1.407.562.286-.764a.975.975 0 0 1 .495-.54.89.89 0 0 1 .718-.022l.432.173 1.352-3.645-10.962 5.042-.272-.345a5.927 5.927 0 0 0-2.467-1.844 5.609 5.609 0 0 0-2.083-.404z" fill="#000"/><path d="M5.29 12.93c-.328 0-.648-.065-.962-.188a2.716 2.716 0 0 1-1.491-1.462 2.838 2.838 0 0 1-.056-2.125 2.73 2.73 0 0 1 1.415-1.541 2.596 2.596 0 0 1 2.049-.05 2.717 2.717 0 0 1 1.49 1.462c.294.677.314 1.433.057 2.125a2.73 2.73 0 0 1-1.415 1.541 2.62 2.62 0 0 1-1.087.238zm-.007-4.401c-.216 0-.432.05-.634.144a1.596 1.596 0 0 0-.83.9 1.66 1.66 0 0 0 .028 1.239c.168.396.481.699.871.857.39.159.816.144 1.199-.029.383-.173.676-.497.83-.9a1.655 1.655 0 0 0-.029-1.239 1.565 1.565 0 0 0-.87-.857 1.415 1.415 0 0 0-.565-.115z" fill="#0085FF"/></svg>