<svg width="21" height="18" viewBox="0 0 21 18" fill="none" xmlns="http://www.w3.org/2000/svg"><path d="M10.435 18a.624.624 0 0 1-.49-.237l-2.098-2.725H1.983C.888 15.038 0 14.18 0 13.12V1.918C0 .858.888 0 1.983 0h17.042c1.095 0 1.983.859 1.983 1.918V13.12c0 1.06-.888 1.918-1.983 1.918H13.03l-2.097 2.725a.64.64 0 0 1-.498.237zM1.983 1.185a.743.743 0 0 0-.758.733V13.12c0 .4.337.734.758.734H8.16a.62.62 0 0 1 .49.237l1.784 2.325 1.784-2.325a.624.624 0 0 1 .49-.237h6.3a.747.747 0 0 0 .758-.733V1.918c0-.4-.337-.733-.758-.733H1.983z" fill="#000"/><path d="M15.727 11.218H5.277a.604.604 0 0 1-.613-.592c0-.326.276-.593.613-.593h10.45c.337 0 .612.267.612.593a.604.604 0 0 1-.612.592z" fill="#0085FF"/><path d="M11.194 6.886H5.277a.604.604 0 0 1-.613-.592c0-.326.276-.593.613-.593h5.917c.337 0 .613.267.613.593a.604.604 0 0 1-.613.592zm4.533-2.584H5.277a.604.604 0 0 1-.613-.592c0-.326.276-.593.613-.593h10.45c.337 0 .612.267.612.593a.604.604 0 0 1-.612.592z" fill="#000"/></svg>