<svg width="22" height="19" viewBox="0 0 22 19" fill="none" xmlns="http://www.w3.org/2000/svg"><path d="M6.484 1.169c1.188 0 2.347.387 3.27 1.08l.75.563.75-.562a5.42 5.42 0 013.27-1.081c1.415 0 2.74.526 3.732 1.483a4.988 4.988 0 010 7.217l-7.76 7.48-7.744-7.48A4.96 4.96 0 011.207 6.26a4.96 4.96 0 011.545-3.608c.992-.957 2.316-1.483 3.732-1.483zM14.516 0a6.645 6.645 0 00-4.012 1.33A6.7 6.7 0 006.484 0C4.818 0 3.153.606 1.896 1.826a6.132 6.132 0 000 8.868L10.504 19l8.607-8.306a6.132 6.132 0 000-8.868A6.624 6.624 0 0014.516 0z" fill="#000"/><path d="M11.236 14.207a.638.638 0 01-.431-.168.572.572 0 010-.825l5.057-4.88a.623.623 0 01.855 0 .572.572 0 010 .825l-5.057 4.88a.607.607 0 01-.424.168z" fill="#0085FF"/></svg>