<svg width="20" height="19" viewBox="0 0 20 19" fill="none" xmlns="http://www.w3.org/2000/svg"><path d="M9.961 1.246c.078 0 .156 0 .234.078l8.404 7.942c.078.078.078.156.078.234v7.865c0 .233-.156.39-.39.39H1.635c-.233 0-.389-.157-.389-.39V9.5c0-.078.078-.234.078-.234l8.405-7.942c.077-.078.233-.078.233-.078zm0-1.246a1.54 1.54 0 00-1.09.467L.468 8.332C.156 8.643 0 9.111 0 9.5v7.865C0 18.22.7 19 1.634 19h16.732c.856 0 1.634-.7 1.634-1.635V9.5c0-.467-.156-.857-.467-1.168L11.128.467C10.818.156 10.428 0 9.961 0z" fill="#000"/><path d="M3.501 13.471c-.31 0-.622-.311-.622-.623v-2.803L5.29 7.631a.61.61 0 01.856 0 .611.611 0 010 .857l-2.1 2.102v2.336c.077.312-.156.545-.546.545z" fill="#0085FF"/></svg>