<svg width="44" height="57" fill="none" xmlns="http://www.w3.org/2000/svg"><path d="M42.58 1.404H1.42v54.192h41.16V1.404z" fill="#0085FF"/><path d="M44 57H0V0h44v57zM2.839 54.192H41.16V2.808H2.84v51.384z" fill="#0968C0"/><path d="M28.104 11.232H9.084c-.851 0-1.419-.562-1.419-1.404 0-.843.568-1.404 1.42-1.404h19.019c.851 0 1.42.561 1.42 1.404 0 .842-.569 1.404-1.42 1.404zm-4.258 11.231H9.084c-.851 0-1.419-.842-1.419-1.404 0-.562.568-1.404 1.42-1.404h14.76c.852 0 1.42.562 1.42 1.404 0 .842-.568 1.404-1.42 1.404zm0 25.552H9.084c-.851 0-1.419-.562-1.419-1.404 0-.842.568-1.404 1.42-1.404h14.76c.852 0 1.42.562 1.42 1.404 0 .842-.568 1.404-1.42 1.404zm-4.258-31.168H9.084c-.851 0-1.419-.561-1.419-1.404 0-.842.568-1.404 1.42-1.404h10.503c.851 0 1.419.562 1.419 1.404 0 .843-.568 1.404-1.42 1.404zm9.084 0h-4.826c-.852 0-1.42-.561-1.42-1.404 0-.842.569-1.404 1.42-1.404h4.826c.851 0 1.42.562 1.42 1.404 0 .843-.569 1.404-1.42 1.404z" fill="#fff"/></svg>