<svg width="65" height="39" viewBox="0 0 65 39" fill="none" xmlns="http://www.w3.org/2000/svg"><g clip-path="url(#clip0)"><path d="M15 14.955H3.824c-1.177 0-2.353-1.173-2.353-2.346V3.812c0-1.173 1.176-2.346 2.353-2.346H15c1.177 0 2.353 1.173 2.353 2.346v8.797c-.294 1.173-1.176 2.346-2.353 2.346z" fill="#0085FF"/><path d="M15 16.421H3.824C1.764 16.421 0 14.661 0 12.61V3.812C0 1.759 1.765 0 3.824 0H15c2.059 0 3.823 1.76 3.823 3.812v8.797c-.294 2.053-1.764 3.812-3.823 3.812zM3.824 2.932c-.589 0-.883.294-.883.88v8.797c0 .586.294.88.883.88H15c.588 0 .882-.294.882-.88V3.812c-.294-.586-.588-.88-.882-.88H3.824z" fill="#0968C0"/><path d="M37.942 14.955H27.06c-1.176 0-2.353-1.173-2.353-2.346V3.812c0-1.173 1.177-2.346 2.353-2.346h11.176c1.177 0 2.353 1.173 2.353 2.346v8.797c-.294 1.173-1.47 2.346-2.647 2.346z" fill="#fff"/><path d="M37.942 16.421H27.06c-2.353 0-3.824-1.76-3.824-3.812V3.812C23.236 1.759 24.706 0 27.06 0h11.176c2.06 0 3.824 1.76 3.824 3.812v8.797c-.294 2.053-2.059 3.812-4.118 3.812zM27.06 2.932c-.588 0-.883.294-.883.88v8.797c0 .586.295.88.883.88h11.176c.589 0 .883-.294.883-.88V3.812c0-.586-.294-.88-.883-.88H27.06z" fill="#0968C0"/><path d="M61.176 14.955H49.999c-1.176 0-2.352-1.173-2.352-2.346V3.812c0-1.173 1.176-2.346 2.352-2.346h11.177c1.176 0 2.353 1.173 2.353 2.346v8.797c0 1.173-1.177 2.346-2.353 2.346z" fill="#0085FF"/><path d="M61.176 16.421H49.999c-2.059 0-3.823-1.76-3.823-3.812V3.812C46.176 1.759 47.94 0 49.999 0h11.177c2.059 0 3.823 1.76 3.823 3.812v8.797c0 2.053-1.764 3.812-3.823 3.812zM49.999 2.932c-.588 0-.882.294-.882.88v8.797c0 .586.294.88.882.88h11.177c.588 0 .882-.294.882-.88V3.812c0-.586-.294-.88-.882-.88H49.999z" fill="#0968C0"/><path d="M15 37.534H3.824c-1.177 0-2.353-1.173-2.353-2.346v-8.797c0-1.173 1.176-2.346 2.353-2.346H15c1.177 0 2.353 1.173 2.353 2.346v8.797c-.294 1.173-1.176 2.346-2.353 2.346z" fill="#0085FF"/><path d="M15 39H3.824C1.764 39 0 37.24 0 35.188v-8.797c0-2.053 1.765-3.812 3.824-3.812H15c2.059 0 3.823 1.76 3.823 3.812v8.797C18.53 37.241 17.06 39 15 39zM3.824 25.511c-.589 0-.883.294-.883.88v8.797c0 .587.294.88.883.88H15c.588 0 .882-.293.882-.88v-8.797c0-.586-.294-.88-.882-.88H3.824z" fill="#0968C0"/><path d="M37.942 37.534H27.06c-1.176 0-2.353-1.173-2.353-2.346v-8.797c0-1.173 1.177-2.346 2.353-2.346h11.176c1.177 0 2.353 1.173 2.353 2.346v8.797c-.294 1.173-1.47 2.346-2.647 2.346z" fill="#0085FF"/><path d="M37.942 39H27.06c-2.059 0-3.824-1.76-3.824-3.812v-8.797c0-2.053 1.765-3.812 3.824-3.812h11.176c2.06 0 3.824 1.76 3.824 3.812v8.797C41.766 37.241 40 39 37.942 39zM27.06 25.511c-.588 0-.883.294-.883.88v8.797c0 .587.295.88.883.88h11.176c.589 0 .883-.293.883-.88v-8.797c0-.586-.294-.88-.883-.88H27.06z" fill="#0968C0"/><path d="M61.176 37.534H49.999c-1.176 0-2.352-1.173-2.352-2.346v-8.797c0-1.173 1.176-2.346 2.352-2.346h11.177c1.176 0 2.353 1.173 2.353 2.346v8.797c0 1.173-1.177 2.346-2.353 2.346z" fill="#0085FF"/><path d="M61.176 39H49.999c-2.059 0-3.823-1.76-3.823-3.812v-8.797c0-2.053 1.764-3.812 3.823-3.812h11.177c2.059 0 3.823 1.76 3.823 3.812v8.797C65 37.241 63.235 39 61.176 39zM49.999 25.511c-.588 0-.882.294-.882.88v8.797c0 .587.294.88.882.88h11.177c.588 0 .882-.293.882-.88v-8.797c0-.586-.294-.88-.882-.88H49.999z" fill="#0968C0"/></g><defs><clipPath id="clip0"><path fill="#fff" d="M0 0h65v39H0z"/></clipPath></defs></svg>