<svg width="55" height="52" viewBox="0 0 55 52" fill="none" xmlns="http://www.w3.org/2000/svg"><g clip-path="url(#a)"><path d="M16.965 14.625L1.368 24.917v15.437l15.597 10.292 15.597-10.292V24.917L16.965 14.625z" fill="#0085FF"/><path d="M16.965 52L0 40.896V24.104L16.965 13 33.93 24.104v16.792L16.965 52zM2.736 39.27l14.23 9.48 14.228-9.208V25.458L16.965 16.25 2.736 25.458v13.813z" fill="#0968C0"/><path d="M16.965 33.583l-10.124-6.5 10.124-6.77 10.125 6.77-10.125 6.5z" fill="#fff"/><path d="M39.95 1.625l-9.03 5.958v8.938l9.03 5.958 9.03-5.958V7.583l-9.03-5.958z" fill="#0085FF"/><path d="M39.95 24.104l-10.398-6.77V6.77L39.95 0l10.398 6.77v10.293L39.95 24.104zm-7.662-8.396l7.662 5.146 7.661-5.146V8.396L39.95 3.25l-7.662 5.146v7.312z" fill="#0968C0"/><path d="M39.95 11.917l-4.926-3.25 4.926-3.25 5.199 3.25-5.2 3.25z" fill="#fff"/><path d="M46.244 30.875l-7.388 4.875v7.313l7.388 4.874 7.388-4.874V35.75l-7.388-4.875z" fill="#0085FF"/><path d="M46.244 49.563l-8.756-5.688v-8.667l8.756-5.687L55 35.208v8.667l-8.756 5.688zm-6.02-7.042l6.02 4.062 6.02-4.062v-5.959l-6.02-4.062-6.02 4.063v5.958z" fill="#0968C0"/><path d="M46.244 39.542l-3.557-2.438 3.557-2.166 3.557 2.166-3.557 2.438z" fill="#fff"/></g><defs><clipPath id="a"><path fill="#fff" d="M0 0h55v52H0z"/></clipPath></defs></svg>