<svg width="20" height="20" viewBox="0 0 20 20" fill="none" xmlns="http://www.w3.org/2000/svg"><path d="M7.146 1.21a9.354 9.354 0 0 0-5.27 4.615 9.208 9.208 0 0 0-.81 2.34 9.333 9.333 0 0 0 .805 6.015 9.384 9.384 0 0 0 2.525 3.105c.995.79 2.15 1.38 3.38 1.705 1.55.415 3.2.405 4.76.05 1.41-.325 2.745-1 3.81-1.98 1.125-1.035 1.93-2.395 2.355-3.86.465-1.595.524-3.3.235-4.94h-8.75v3.63h5.07a4.38 4.38 0 0 1-1.86 2.875c-.616.415-1.32.68-2.05.81-.73.125-1.49.14-2.22-.005a5.506 5.506 0 0 1-2.07-.895 5.75 5.75 0 0 1-2.13-2.855 5.644 5.644 0 0 1 0-3.62c.28-.82.74-1.575 1.35-2.195a5.516 5.516 0 0 1 2.78-1.545c.9-.19 1.85-.155 2.73.11.75.225 1.44.64 2.005 1.18l1.71-1.71c.3-.305.615-.6.905-.915A9.069 9.069 0 0 0 13.41 1.27c-2-.74-4.25-.755-6.265-.06z" fill="#fff"/><path d="M7.145 1.21a9.418 9.418 0 0 1 6.265.055 9.038 9.038 0 0 1 2.995 1.855c-.29.315-.605.61-.905.915l-1.71 1.71a5.065 5.065 0 0 0-2.005-1.18 5.49 5.49 0 0 0-2.73-.11A5.557 5.557 0 0 0 6.275 6a5.77 5.77 0 0 0-1.35 2.195c-1.015-.79-2.03-1.575-3.05-2.365a9.345 9.345 0 0 1 5.27-4.62z" fill="#EA4335"/><path d="M1.071 8.16c.165-.81.435-1.6.81-2.34 1.015.79 2.03 1.575 3.05 2.365a5.61 5.61 0 0 0 0 3.62c-1.015.79-2.03 1.58-3.045 2.365a9.254 9.254 0 0 1-.815-6.01z" fill="#FBBC05"/><path d="M10.185 8.256h8.75a11 11 0 0 1-.235 4.94c-.425 1.465-1.23 2.825-2.355 3.86L13.39 14.76a4.38 4.38 0 0 0 1.86-2.875h-5.07c.005-1.21.005-2.42.005-3.63z" fill="#4285F4"/><path d="M1.875 14.176C2.89 13.39 3.905 12.6 4.92 11.81a5.78 5.78 0 0 0 2.13 2.856 5.54 5.54 0 0 0 2.07.895c.73.15 1.485.13 2.22.005a5.327 5.327 0 0 0 2.05-.81l2.955 2.295c-1.065.985-2.4 1.655-3.81 1.98-1.56.355-3.21.365-4.76-.05a9.19 9.19 0 0 1-3.38-1.705 9.363 9.363 0 0 1-2.52-3.1z" fill="#34A853"/></svg>