<svg width="230" height="181" viewBox="0 0 230 181" fill="none" xmlns="http://www.w3.org/2000/svg"><path d="M215.607 180.998H14.393C6.49 180.998 0 174.463 0 166.507V53.417c0-7.956 6.49-14.491 14.393-14.491h201.214c7.902 0 14.393 6.535 14.393 14.491v113.09c0 7.956-6.491 14.491-14.393 14.491z" fill="#fff"/><path d="M54.466 111.668h-22.86c-5.079 0-9.03-4.262-9.03-9.377v-13.07c0-5.115 4.233-9.377 9.313-9.377h22.859c5.08 0 9.313 4.262 9.313 9.377v13.07c-.282 5.115-4.516 9.377-9.595 9.377z" fill="#0085FF"/><path d="M60.956 141.219h-38.38v8.808h38.38v-8.808zm49.106 0h-38.38v8.808h38.38v-8.808zm-49.106 17.334h-38.38v8.808h38.38v-8.808zm49.106 0h-38.38v8.808h38.38v-8.808zm49.105-17.334h-38.38v8.808h38.38v-8.808zm49.387 0h-38.38v8.808h38.38v-8.808z" fill="#D1DFE8"/><path d="M200.933 45.178h-40.638V24.72c0-11.366 9.031-20.458 20.319-20.458 11.288 0 20.319 9.092 20.319 20.458v20.46z" stroke="#0085FF" stroke-width="7" stroke-miterlimit="10"/><path d="M229.999 53.134v56.545l-77.325-35.803 10.159-35.233h52.773c7.902 0 14.393 6.535 14.393 14.49z" fill="#0085FF"/><path d="M208.269 29.55h-55.595v44.612h55.595V29.55z" fill="#D1DFE8"/><path d="M180.612 54.839c2.026 0 3.669-1.654 3.669-3.694s-1.643-3.694-3.669-3.694-3.669 1.654-3.669 3.694 1.643 3.694 3.669 3.694z" fill="#0085FF"/><path d="M181.74 52.851l-1.129-1.704-1.129 1.704-1.128 10.514 2.257 1.136 2.258-1.136-1.129-10.514z" fill="#0085FF"/></svg>