<svg xmlns="http://www.w3.org/2000/svg" viewBox="0 0 30.91 22.2"><path d="M25.43 20.33L25 20a18.93 18.93 0 01-2.41-2.5.65.65 0 011-.82 20.43 20.43 0 001.82 2c1.13-1 4.17-4.09 4.17-7.21a4.09 4.09 0 00-3.35-4.1.64.64 0 01-.54-.74.66.66 0 01.78-.63 5.38 5.38 0 014.44 5.38c0 4.43-4.86 8.41-5.07 8.58zm-19.95 0L5.07 20C4.86 19.83 0 15.85 0 11.42A5.38 5.38 0 014.44 6a.66.66 0 01.75.54.64.64 0 01-.53.74 4.09 4.09 0 00-3.36 4.1c0 3.13 3 6.18 4.17 7.21a20.43 20.43 0 001.82-2 .65.65 0 01.92-.09.64.64 0 01.09.91A18.93 18.93 0 015.89 20z" fill="#0085ff"/><path d="M15.5 22.2l-.42-.35c-.32-.28-7.93-6.77-7.93-13.5a8.36 8.36 0 0116.71 0c0 6.92-7.62 13.24-7.95 13.5zm0-20.9a7.05 7.05 0 00-7 7.05c0 5.27 5.49 10.69 7.06 12.13 1.57-1.41 7-6.71 7-12.13A7.06 7.06 0 0015.5 1.3z"/><path d="M15.5 10.68a2.6 2.6 0 10-2.6-2.6 2.6 2.6 0 002.6 2.6z"/></svg>