<svg xmlns="http://www.w3.org/2000/svg" viewBox="0 0 22.3 20.3"><path d="M19.82 20.3h-9.34A2.47 2.47 0 018 17.84a.65.65 0 011.3 0A1.17 1.17 0 0010.48 19h9.34A1.17 1.17 0 0021 17.84V2.46a1.17 1.17 0 00-1.18-1.16h-9.34A1.17 1.17 0 009.3 2.46a.65.65 0 11-1.3 0A2.47 2.47 0 0110.48 0h9.34a2.47 2.47 0 012.48 2.46v15.38a2.47 2.47 0 01-2.48 2.46z"/><path d="M10.61 10.8H.65a.65.65 0 010-1.3h10a.65.65 0 010 1.3z" fill="#0085ff"/><path d="M7.65 14.89a.65.65 0 01-.47-1.1l3.51-3.64-3.6-3.73a.65.65 0 01.91-.9l4.47 4.63-4.35 4.54a.67.67 0 01-.47.2z" fill="#0085ff"/></svg>