<svg width="175" height="177" viewBox="0 0 175 177" fill="none" xmlns="http://www.w3.org/2000/svg"><path d="M175 67.948v12.777l-86.766 57.046L.2 79.825V67.948H175z" fill="#0085FF"/><path d="M175 67.949V59.49c0-2.7-1.478-5.399-4.012-7.018L94.567 2.266c-3.8-2.52-8.867-2.52-12.667 0L4.212 53.373C1.68 54.993.202 57.512.202 60.39v7.558H175z" fill="#0085FF"/><path d="M148.611 143.35H26.59c-1.267 0-2.322-.9-2.322-1.979v-77.38c0-1.08 1.055-1.98 2.322-1.98h122.02c1.266 0 2.322.9 2.322 1.98v77.38c-.211 1.079-1.267 1.979-2.322 1.979z" fill="#F2F2F2"/><path d="M88.234 137.771L.2 79.825v89.618c0 4.139 4.011 7.558 8.867 7.558h157.065c4.855 0 8.867-3.419 8.867-7.558V80.725l-86.766 57.046z" fill="#fff"/></svg>