<svg width="483" height="255" viewBox="0 0 483 255" fill="none" xmlns="http://www.w3.org/2000/svg"><path fill="#F2F6F7" d="M0 0h483v254H0z"/><g clip-path="url(#a)"><path d="M287.204 98.885c-1.21 2.619-2.623 5.036-4.237 7.453-8.678 12.288-23.005 20.345-39.149 20.345-26.436 0-47.826-21.352-47.826-47.74C195.79 52.352 217.18 31 243.616 31c12.108 0 23.005 4.432 31.481 11.684 2.219 1.812 4.237 4.028 5.852 6.244-8.476 4.432-14.328 13.497-14.328 23.77 0 12.69 8.879 23.165 20.583 26.187z" fill="#0085FF"/><path d="M300 79.855c0 9.87-2.194 18.92-6.032 27.145C278.065 103.161 266 88.629 266 71.355c0-13.984 7.952-26.323 19.468-32.355C294.516 50.516 300 64.5 300 79.855z" fill="#57A8F3"/><path d="M352.184 123.259l-29.866-30.014c4.237-5.842 6.659-12.892 6.659-20.547 0-19.338-15.942-35.252-35.315-35.252-6.861 0-13.117 2.015-18.565 5.238-10.09 6.244-16.749 17.323-16.749 30.014 0 15.712 10.291 29.007 24.619 33.64 3.431 1.008 6.861 1.612 10.695 1.612 7.669 0 14.732-2.417 20.584-6.648l30.068 30.015c2.219 2.216 5.852 2.216 8.072 0 2.018-2.216 2.018-5.842-.202-8.058zm-58.522-23.77c-2.219 0-4.439-.201-6.457-.805-11.704-2.82-20.584-13.497-20.584-26.187 0-10.274 5.853-19.339 14.328-23.77 3.834-2.014 8.072-3.022 12.512-3.022 14.933 0 27.041 12.087 27.041 26.993 0 14.907-12.108 26.792-26.84 26.792z" fill="#303A43"/><path d="M177.629 247.547c.605.201 1.009.201 1.614 0 1.009 2.618 2.22 5.036 3.633 7.453h122.088c1.412-2.417 2.623-4.835 3.632-7.453.404.201 1.009.201 1.413 0 13.924-3.223 20.381-12.691 22.803-23.569 2.623-10.877 5.852-44.921-4.036-70.302-6.659-17.122-30.27-29.813-34.911-32.029-3.027-2.014-7.467-1.813-10.292 1.008-10.292 9.87-24.216 15.913-39.754 15.913-15.539 0-29.261-6.043-39.754-15.913-2.624-2.418-6.458-3.022-9.687-1.209 0 0-28.251 13.295-35.718 32.432-9.888 25.582-6.659 59.424-4.036 70.302 2.623 10.676 9.081 20.144 23.005 23.367z" fill="#0085FF"/><circle cx="276" cy="72" r="4" fill="#fff"/></g><defs><clipPath id="a"><path fill="#fff" transform="translate(152 31)" d="M0 0h202v224H0z"/></clipPath></defs></svg>