<svg width="20" height="20" fill="none" xmlns="http://www.w3.org/2000/svg"><path d="M16.154 20H3.846C1.795 20 0 18.205 0 16.154V3.846C0 1.795 1.795 0 3.846 0h12.051c2.052 0 3.847 1.795 3.847 3.846v12.051C20 18.205 18.205 20 16.154 20z" fill="#0077B7"/><path d="M6.923 5.641c0 .513-.257.77-.513 1.026-.257 0-.513.256-1.026.256s-.77-.256-1.025-.513c-.257-.256-.513-.512-.513-.769 0-.513.256-.769.513-1.025.256-.257.512-.513 1.025-.513.513 0 .77 0 1.026.513.256.256.513.512.513 1.025zM6.666 7.95v7.949H4.102v-7.95h2.564zm9.487 3.333v4.616H13.59v-4.36c0-.512 0-1.025-.256-1.281-.257-.257-.77-.513-1.026-.513s-.513 0-.769.256c-.513.257-.513.513-.77.77v5.128H8.206V8.206h2.564v1.026c0-.256.256-.256.256-.513l.513-.513c.256-.256.513-.256.77-.256h1.025c.77-.256 1.538.256 2.051.77.513.512.77 1.538.77 2.563z" fill="#fff"/></svg>