<svg width="28" height="25" fill="none" xmlns="http://www.w3.org/2000/svg"><path d="M17.61 1.6c4.73 0 8.58 3.85 8.58 8.58s-3.85 8.58-8.58 8.58h-3.49c-.49 0-.95.22-1.26.61l-2.05 2.6-.54-2.12c-.16-.63-.68-1.09-1.32-1.19-4.19-.62-7.35-4.26-7.35-8.48 0-4.73 3.85-8.58 8.58-8.58h7.43zm0-1.6h-7.44C4.58 0 0 4.58 0 10.18c0 5.1 3.81 9.35 8.73 10.06l1.08 4.22c.07.25.29.4.51.4.15 0 .3-.06.41-.2l3.39-4.3h3.49c5.6 0 10.18-4.58 10.18-10.18S23.21 0 17.61 0z" fill="#000"/><path d="M19.58 8.58H7.57c-.44 0-.8-.36-.8-.8 0-.44.36-.8.8-.8h12.02c.44 0 .8.36.8.8 0 .44-.36.8-.81.8zm-5.68 5.16H7.57c-.44 0-.8-.36-.8-.8 0-.44.36-.8.8-.8h6.33c.44 0 .8.36.8.8 0 .44-.36.8-.8.8z" fill="#0085FF"/></svg>