<svg width="29" height="25" viewBox="0 0 29 25" fill="none" xmlns="http://www.w3.org/2000/svg"><path d="M26.58 1.6c.21 0 .37.17.37.37v20.9c0 .21-.17.37-.37.37H1.97a.37.37 0 01-.37-.37V1.97c0-.21.17-.37.37-.37h24.61zm0-1.6H1.97C.88 0 0 .88 0 1.97v20.9c0 1.09.88 1.97 1.97 1.97h24.61c1.09 0 1.97-.88 1.97-1.97V1.97C28.56.88 27.67 0 26.58 0z" fill="#000"/><path d="M28.56 6.89H0v1.6h28.56v-1.6z" fill="#000"/><path d="M6.74 13.9H5.59c-.44 0-.8-.36-.8-.8 0-.44.36-.8.8-.8h1.15c.44 0 .8.36.8.8 0 .44-.36.8-.8.8zm5.47 0h-1.15c-.44 0-.8-.36-.8-.8 0-.44.36-.8.8-.8h1.15c.44 0 .8.36.8.8 0 .44-.36.8-.8.8zm5.48 0h-1.15c-.44 0-.8-.36-.8-.8 0-.44.36-.8.8-.8h1.15c.44 0 .8.36.8.8 0 .44-.36.8-.8.8zm5.47 0h-1.15c-.44 0-.8-.36-.8-.8 0-.44.36-.8.8-.8h1.15c.44 0 .8.36.8.8 0 .44-.36.8-.8.8zM6.74 18.53H5.59c-.44 0-.8-.36-.8-.8 0-.44.36-.8.8-.8h1.15c.44 0 .8.36.8.8 0 .44-.36.8-.8.8zm5.47 0h-1.15c-.44 0-.8-.36-.8-.8 0-.44.36-.8.8-.8h1.15c.44 0 .8.36.8.8 0 .44-.36.8-.8.8zm5.48 0h-1.15c-.44 0-.8-.36-.8-.8 0-.44.36-.8.8-.8h1.15c.44 0 .8.36.8.8 0 .44-.36.8-.8.8zm5.47 0h-1.15c-.44 0-.8-.36-.8-.8 0-.44.36-.8.8-.8h1.15c.44 0 .8.36.8.8 0 .44-.36.8-.8.8z" fill="#0085FF"/></svg>