<svg width="21" height="21" viewBox="0 0 21 21" fill="none" xmlns="http://www.w3.org/2000/svg"><path d="M10.057 20.212C4.535 20.212 0 15.677 0 10.057 0 4.535 4.535 0 10.057 0c5.521 0 10.057 4.535 10.057 10.057.098 5.62-4.437 10.155-10.057 10.155zm0-18.634c-4.733 0-8.48 3.845-8.48 8.479 0 4.634 3.846 8.48 8.48 8.48s8.48-3.846 8.48-8.48-3.748-8.48-8.48-8.48z" fill="#000"/><path d="M10.056 15.776c-.394 0-.788-.394-.788-.789v-7c0-.394.394-.789.788-.789.395 0 .79.296.79.789v7a.778.778 0 0 1-.79.79zm0-9.958c-.394 0-.788-.395-.788-.79v-.295c0-.394.394-.789.788-.789.395 0 .79.395.79.79v.295c0 .493-.297.789-.79.789z" fill="#0085FF"/><path d="M11.832 16.17h-3.55c-.393 0-.788-.395-.788-.79 0-.394.395-.788.789-.788h3.55c.394 0 .788.394.788.789a.778.778 0 0 1-.789.788zm-1.774-7.394H8.283c-.394 0-.789-.395-.789-.789s.395-.789.789-.789h1.775c.394 0 .788.395.788.789a.778.778 0 0 1-.788.789z" fill="#0085FF"/></svg>