<svg width="15" height="15" viewBox="0 0 15 15" fill="none" xmlns="http://www.w3.org/2000/svg"><path d="M14.941 13.42c.04.068.059.157.059.245a.79.79 0 01-.226.55l-.54.53a.702.702 0 01-.53.235h-.05a.874.874 0 01-.55-.294L8.821 9.179c-.51.451-.992.844-1.444 1.188-.452.333-.874.628-1.277.873l.324 2.64v.09a.71.71 0 01-.206.52l-.295.294a.726.726 0 01-.54.216h-.03c-.245-.02-.432-.118-.55-.294l-1.925-2.553L.295 10.2A.727.727 0 010 9.64v-.03a.79.79 0 01.216-.54l.285-.274c.118-.157.295-.236.52-.226.05 0 .08.01.099.02l2.632.294c.246-.393.54-.815.875-1.266a25.64 25.64 0 011.179-1.424L.333 1.904c-.196-.157-.295-.343-.295-.55v-.039a.79.79 0 01.216-.54l.53-.54A.786.786 0 011.317.02h.128c.05 0 .088.02.128.039l7.554 2.749 1.424-1.404A4.813 4.813 0 0112.063.373c.58-.245 1.1-.373 1.572-.373.451 0 .795.118 1.021.344a.894.894 0 01.265.432c.05.176.079.373.079.589 0 .48-.118 1-.364 1.57a4.534 4.534 0 01-1.04 1.502L12.18 5.861l2.76 7.558z" fill="#0085FF"/></svg>