<svg width="17" height="17" fill="none" xmlns="http://www.w3.org/2000/svg"><path d="M16.933 15.209a.571.571 0 01.067.278c0 .234-.09.445-.256.623l-.612.6a.796.796 0 01-.602.268h-.055a.99.99 0 01-.624-.334l-4.854-6.241c-.579.511-1.124.956-1.636 1.346a20 20 0 01-1.447.99l.367 2.993v.1a.805.805 0 01-.234.59l-.334.333a.823.823 0 01-.612.245h-.034c-.278-.022-.49-.134-.623-.334l-2.182-2.892L.334 11.56A.824.824 0 010 10.925v-.033c0-.223.078-.423.245-.612l.323-.311c.133-.178.334-.267.59-.256a.24.24 0 01.111.022l2.984.334c.278-.445.612-.924.99-1.435A29.06 29.06 0 016.58 7.02L.379 2.158C.156 1.98.045 1.77.045 1.535v-.044c0-.223.077-.423.244-.612L.891.267a.89.89 0 01.6-.245h.146c.055 0 .1.023.144.045l8.562 3.115 1.614-1.591c.5-.5 1.068-.89 1.714-1.168C14.328.145 14.918 0 15.453 0c.512 0 .901.134 1.157.39.145.133.245.289.3.489.057.2.09.423.09.667 0 .546-.134 1.135-.412 1.78a5.144 5.144 0 01-1.18 1.703l-1.603 1.613 3.128 8.567z" fill="#7CC9CE"/></svg>