<svg width="17" height="15" viewBox="0 0 17 15" fill="none" xmlns="http://www.w3.org/2000/svg"><g clip-path="url(#a)"><path d="M15.496 1.218c.15 0 .3.153.3.305v11.954c0 .152-.15.305-.3.305H1.504c-.15 0-.3-.153-.3-.305V1.523c0-.152.15-.305.3-.305h13.992zm0-1.218H1.504C.677 0 0 .685 0 1.523v11.954C0 14.315.677 15 1.504 15h14.067c.827 0 1.504-.685 1.504-1.523V1.523C17 .685 16.323 0 15.495 0z" fill="#000"/><path d="M12.713 4.493h-8.8c-.302 0-.602-.305-.602-.61 0-.304.3-.609.601-.609h8.876c.301 0 .602.305.602.61 0 .304-.3.609-.677.609zm0 3.579h-8.8c-.302 0-.602-.305-.602-.61 0-.304.225-.608.601-.608h8.876c.301 0 .602.304.602.609 0 .304-.3.609-.677.609zm-2.332 3.578H3.912c-.3 0-.601-.305-.601-.61 0-.304.3-.608.601-.608h6.47c.3 0 .601.304.601.609 0 .304-.3.609-.602.609z" fill="#0085FF"/></g><defs><clipPath id="a"><path fill="#fff" d="M0 0h17v15H0z"/></clipPath></defs></svg>