<svg width="16" height="16" viewBox="0 0 16 16" fill="none" xmlns="http://www.w3.org/2000/svg"><circle cx="8" cy="8" r="8" fill="#0085FF"/><path d="M7.314 9.348a1.631 1.631 0 01-.429-1.144c0-.347.1-.659.299-.936.2-.277.416-.485.65-.624.234-.139.45-.303.65-.494.2-.19.299-.381.299-.572a.653.653 0 00-.26-.533c-.165-.139-.416-.208-.754-.208-.615 0-1.148.269-1.599.806L5.117 4.46c.72-.84 1.668-1.261 2.847-1.261.832 0 1.49.19 1.976.572.485.373.728.867.728 1.482 0 .347-.074.659-.221.936a2.13 2.13 0 01-.546.676 8.18 8.18 0 01-.637.481 2.71 2.71 0 00-.546.481.848.848 0 00-.221.559c0 .225.078.407.234.546l-1.417.416zm1.365 2.483a1.012 1.012 0 01-.741.312c-.286 0-.533-.104-.741-.312a1.012 1.012 0 01-.312-.741c0-.286.104-.533.312-.741.208-.208.455-.312.741-.312s.533.104.741.312c.208.208.312.455.312.741s-.104.533-.312.741z" fill="#fff"/></svg>