<svg width="40" height="40" viewBox="0 0 40 40" fill="none" xmlns="http://www.w3.org/2000/svg"><path d="M20 40C8.94 40 0 31.06 0 20S8.94 0 20 0s20 8.94 20 20-8.94 20-20 20z" fill="#2AD846"/><path d="M20 8.352c-6.411 0-11.648 5.191-11.648 11.647 0 2.213.632 4.244 1.67 6.005l-1.445 5.598 5.78-1.4a11.773 11.773 0 005.642 1.445c6.411 0 11.648-5.192 11.648-11.648 0-6.41-5.192-11.647-11.648-11.647zm0 21.354a9.4 9.4 0 01-5.328-1.625l-3.386.858.903-3.296c-1.174-1.58-1.851-3.567-1.851-5.689 0-5.327 4.334-9.706 9.707-9.706 5.327 0 9.706 4.334 9.706 9.706-.045 5.373-4.424 9.752-9.752 9.752z" fill="#fff"/><path d="M24.92 22.347c-.181-.09-.317-.136-.452-.226-.407-.226-.768-.406-1.174-.632-.136-.045-.226-.135-.361-.135-.542 0-.768.767-1.084 1.038a.725.725 0 01-.496.226.728.728 0 01-.407-.136 7.467 7.467 0 01-1.85-1.264 11.492 11.492 0 01-1.175-1.354c-.18-.226-.316-.452-.36-.723-.091-.677.857-.902.902-1.58 0-.225-.09-.451-.226-.677-.18-.361-.316-.767-.451-1.174-.226-.722-.632-1.038-1.445-.858-.993.226-1.49 1.58-1.535 2.484-.045 1.309.858 2.618.994 2.799.587.857 1.173 1.715 1.94 2.483 1.265 1.219 2.98 2.212 4.696 2.483.316.045.677.09.993.045.587-.09 1.129-.361 1.49-.813.361-.406.813-1.173.452-1.67-.09-.136-.271-.226-.452-.316z" fill="#fff"/></svg>