<svg width="40" height="40" viewBox="0 0 40 40" fill="none" xmlns="http://www.w3.org/2000/svg"><path d="M20 40C8.94 40 0 31.06 0 20S8.94 0 20 0s20 8.94 20 20-8.94 20-20 20z" fill="#0085FF"/><g clip-path="url(#clip0)" fill="#fff"><path d="M30.001 14.709l-7.88 5.79 7.88 5.79v-11.58zm-20.001 0v11.544l7.88-5.791L10 14.709zm10.018 7.323l-1.35-.971L10.563 27h18.874l-8.105-5.94-1.314.97zm-.938-1.831l.376.299.562.41.526-.41.412-.299.376-.261L29.437 14H10.562l8.106 5.94.412.261z"/></g><defs><clipPath id="clip0"><path fill="#fff" transform="translate(10 14)" d="M0 0h20v13H0z"/></clipPath></defs></svg>