<svg width="40" height="40" viewBox="0 0 40 40" fill="none" xmlns="http://www.w3.org/2000/svg"><path d="M20 40C8.94 40 0 31.06 0 20S8.94 0 20 0s20 8.94 20 20-8.94 20-20 20z" fill="#0B86CA"/><path d="M15.035 11.918c0 1.13-.858 2.032-2.212 2.032-1.31 0-2.167-.903-2.122-2.031-.045-1.174.858-2.077 2.167-2.077 1.31 0 2.167.903 2.167 2.076zm-4.244 16.885V15.575H14.9v13.228h-4.11zm7.405-8.983c0-1.671-.045-3.07-.09-4.2h3.566l.18 1.807h.09c.543-.858 1.897-2.122 4.064-2.122 2.709 0 4.74 1.806 4.74 5.688v7.856h-4.108v-7.36c0-1.715-.587-2.844-2.077-2.844-1.128 0-1.805.768-2.076 1.535a3.07 3.07 0 00-.18 1.039v7.63h-4.11v-9.03z" fill="#fff"/></svg>