<svg width="515" height="384" fill="none" xmlns="http://www.w3.org/2000/svg"><g clip-path="url(#clip0)"><path d="M139.632 381c-.086 0-.172 0-.258-.029a1.427 1.427 0 01-1.147-1.661l26.378-143.78c2.237-12.256 10.867-20.818 20.96-20.818h72.541c10.264 0 19.124 9.106 21.102 21.648l22.508 143.008a1.426 1.426 0 01-1.204 1.632c-.803.114-1.52-.401-1.634-1.203L276.37 236.79c-1.749-11.14-9.433-19.215-18.264-19.215h-72.541c-8.688 0-16.143 7.589-18.15 18.47l-26.378 143.781a1.417 1.417 0 01-1.405 1.174z" fill="#231F20"/><path d="M18.95 381c-.115 0-.201 0-.316-.029a1.44 1.44 0 01-1.09-1.718L41.2 275.992c2.065-8.963 9.835-15.234 18.924-15.234h65.058c9.261 0 17.26 6.672 19.067 15.836l20.185 102.717a1.453 1.453 0 01-1.118 1.689 1.456 1.456 0 01-1.692-1.117l-20.185-102.716c-1.548-7.847-8.372-13.517-16.257-13.517h-65.03c-7.74 0-14.393 5.355-16.142 13.001L20.355 379.912A1.47 1.47 0 0118.95 381zm475.588 0a1.442 1.442 0 01-1.405-1.203L470.625 236.79c-1.749-11.14-9.433-19.215-18.264-19.215H379.82a1.42 1.42 0 01-1.434-1.432c0-.801.631-1.431 1.434-1.431h72.541c10.264 0 19.124 9.106 21.103 21.648l22.507 143.008a1.426 1.426 0 01-1.204 1.632c-.057-.029-.143 0-.229 0zm-160.651 0c-.086 0-.172 0-.258-.029a1.427 1.427 0 01-1.147-1.66L358.86 235.53c.803-4.381 2.495-8.476 4.903-11.855a1.457 1.457 0 012.007-.344c.631.458.803 1.346.344 2.005-2.15 3.006-3.67 6.729-4.415 10.709L335.32 379.826c-.172.687-.774 1.174-1.433 1.174z" fill="#231F20"/><path d="M423.86 217.546H211.054c-.803 0-1.433-.63-1.433-1.431 0-.802.63-1.432 1.433-1.432H423.86c.803 0 1.434.63 1.434 1.432 0 .801-.66 1.431-1.434 1.431zm-21.934-11.568H290.792l29.303-79.465h111.134l-29.303 79.465zm-107.034-2.864h105.027l27.181-73.737H322.074l-27.182 73.737z" fill="#231F20"/><path d="M394.127 217.546c-.2 0-.373-.028-.573-.114a1.441 1.441 0 01-.746-1.89l4.989-11.569a1.445 1.445 0 011.893-.745 1.44 1.44 0 01.745 1.89l-4.989 11.569a1.432 1.432 0 01-1.319.859zm-162.285 0c-.201 0-.373-.028-.574-.114a1.44 1.44 0 01-.745-1.89l5.362-12.428h58.118c.803 0 1.434.63 1.434 1.432a1.42 1.42 0 01-1.434 1.432h-56.226l-4.616 10.709c-.23.544-.774.859-1.319.859z" fill="#231F20"/><path d="M287.552 217.546c-.201 0-.373-.028-.573-.114a1.441 1.441 0 01-.746-1.89l4.989-11.569a1.445 1.445 0 011.893-.745 1.441 1.441 0 01.745 1.89l-4.989 11.569a1.432 1.432 0 01-1.319.859zM49.773 266.972a1.473 1.473 0 01-1.377-1.002L18.577 171.5c-2.552-8.018-1.978-14.862 1.634-19.816 4.445-6.042 13.218-9.106 26.092-9.106.803 0 1.434.63 1.434 1.432a1.42 1.42 0 01-1.434 1.432c-11.928 0-19.927 2.663-23.77 7.932-3.87 5.269-2.81 12.313-1.204 17.267l29.82 94.47a1.45 1.45 0 01-.946 1.804c-.144.028-.287.057-.43.057zm103.048-160.017c-2.982 0-5.935-.401-8.86-1.203-7.197-2.004-13.476-6.357-18.207-12.571-.487-.63-.344-1.518.287-2.004.631-.487 1.52-.344 2.007.286 4.358 5.727 10.121 9.707 16.687 11.54 13.304 3.694 28.07-2.119 37.676-14.862.487-.63 1.376-.773 2.007-.286a1.45 1.45 0 01.287 2.004c-8.258 10.939-20.1 17.096-31.884 17.096z" fill="#231F20"/><path d="M177.594 380.141l.401-3.007c.086-.63 8.372-63.17-13.992-96.617-11.87-17.754-22.536-17.554-45.933-17.124-8.802.143-19.784.343-33.174-.401-19.583-1.117-35.496-18.442-42.607-46.333-10.523-41.236.717-97.591 37.647-120.5 26.35-16.322 29.561-40.863 29.59-41.092.086-.773.831-1.346 1.577-1.26a1.439 1.439 0 011.261 1.575c-.115 1.06-3.326 26.116-30.909 43.211-35.811 22.193-46.62 77.117-36.356 117.35 6.795 26.631 21.733 43.126 39.998 44.185 13.275.745 24.199.573 32.944.401 23.741-.401 35.64-.63 48.37 18.413 20.387 30.497 16.229 82.5 14.795 95.615l10.15-6.3c3.068-4.41 47.338-69.127 37.676-115.946-3.097-15.006-11.469-26.775-24.916-34.965-.689-.401-.889-1.288-.488-1.976.402-.687 1.29-.887 1.979-.486 14.164 8.619 22.995 20.99 26.235 36.825 10.207 49.483-36.328 115.632-38.306 118.41l-.402.4-15.54 9.622z" fill="#231F20"/><path d="M231.842 217.547a1.427 1.427 0 01-1.434-1.375c-.029-.229-1.204-10.194-30.479-10.194-16.687 0-72.139-4.697-85.214-64.946-3.899-17.984-13.046-29.037-25.776-31.156-12.243-2.033-26.321 5.011-33.432 16.752-.401.687-1.29.887-1.978.487-.689-.401-.89-1.289-.488-1.976 7.828-12.915 22.766-20.36 36.385-18.098 8.086 1.346 22.508 7.474 28.099 33.389 12.616 58.188 66.262 62.713 82.404 62.713 32.687 0 33.318 12.456 33.346 12.972.029.802-.602 1.432-1.405 1.46l-.028-.028z" fill="#231F20"/><path d="M185.966 217.547c-119.392 0-124.41-16.953-141.04-73.165-.229-.744.202-1.546.976-1.775.774-.229 1.548.2 1.777.973 16.573 56.041 21.046 71.103 138.287 71.103.803 0 1.434.63 1.434 1.432a1.42 1.42 0 01-1.434 1.432zm-8.229 162.021h28.816c1.233 0 1.663-1.632.602-2.234l-14.25-8.161-15.168 10.395zm37.647.802l.774-3.35c.115-.459 10.494-46.19 9.405-80.238a1.438 1.438 0 011.376-1.489c.774.028 1.462.601 1.491 1.374.917 29.066-6.394 66.436-8.774 77.632l9.835-6.099c2.867-3.78 44.671-59.706 34.636-106.01-4.129-19.1-16.544-34.163-36.93-44.844a1.45 1.45 0 01-.602-1.947c.372-.687 1.233-.974 1.921-.602 21.16 11.083 34.091 26.804 38.421 46.763 10.608 49.024-34.895 107.986-35.353 108.558l-.373.344-15.827 9.908z" fill="#231F20"/><path d="M215.871 379.568h28.816c1.233 0 1.663-1.632.602-2.234l-14.25-8.161-15.168 10.395zM178.54 66.264a2.894 2.894 0 002.896-2.893 2.894 2.894 0 00-2.896-2.892 2.894 2.894 0 00-2.896 2.892 2.894 2.894 0 002.896 2.893zm189.295 105.78a2.894 2.894 0 002.896-2.892 2.894 2.894 0 00-2.896-2.892 2.894 2.894 0 00-2.896 2.892 2.894 2.894 0 002.896 2.892zm-182.5 32.158a1.433 1.433 0 01-1.319-.859c-.372-.859-9.146-21.276-1.548-51.687 7.283-29.066-13.849-49.139-14.078-49.34-.574-.544-.602-1.432-.086-2.033s1.434-.601 2.036-.086c.229.2 22.593 21.391 14.909 52.146-7.369 29.466 1.291 49.654 1.377 49.826.315.716 0 1.575-.746 1.89a1.097 1.097 0 01-.545.143z" fill="#231F20"/><path d="M244.974 206.035c-49.603 0-63.452-48.194-63.596-48.709-.2-.774.23-1.547 1.004-1.747.774-.201 1.548.229 1.749 1.002.143.487 13.963 48.309 63.423 46.562.832 0 1.462.601 1.491 1.375a1.44 1.44 0 01-1.376 1.489c-.889 0-1.806.028-2.695.028z" fill="#231F20"/><path d="M370.731 99.424c-9.376 0-17.003-7.617-17.003-16.981s7.627-16.981 17.003-16.981c9.375 0 17.002 7.617 17.002 16.98 0 9.365-7.627 16.982-17.002 16.982zm0-31.099c-7.799 0-14.136 6.329-14.136 14.118 0 7.789 6.337 14.117 14.136 14.117 7.798 0 14.135-6.328 14.135-14.117 0-7.79-6.337-14.118-14.135-14.118z" fill="#0085FF"/><path d="M392.751 106.984c-.373 0-.746-.144-1.004-.43l-11.813-11.798a1.417 1.417 0 010-2.033 1.421 1.421 0 012.036 0l11.813 11.798c.574.573.574 1.46 0 2.033-.287.286-.659.43-1.032.43z" fill="#0085FF"/><path d="M384.149 59.963s5.133 1.833 6.251 7.818m-.029-11.741s5.132 1.833 6.251 7.818" stroke="#0085FF" stroke-miterlimit="10" stroke-linecap="round"/><path d="M180.203 92.35l-3.584-5.755 8.573.573c.831.085 1.519-.459 1.692-1.232l3.899-15.807c5.247-21.935-5.046-43.154-23.454-48.28-9.118-2.52-18.866-.716-27.468 5.069-8.659 5.87-15.11 15.09-18.15 25.944-2.437 8.762-2.437 17.783 0 26.03l-2.752.802c-2.609-8.763-2.609-18.327-.029-27.605 3.211-11.54 10.064-21.305 19.297-27.548 9.289-6.3 19.898-8.218 29.847-5.47 19.899 5.527 31.081 28.235 25.462 51.688l-3.9 15.807c-.516 2.12-2.466 3.58-4.674 3.408l-3.01-.2.631 1.03-2.38 1.547zM42.375 211.762c-.057 0-.143 0-.2-.028a1.42 1.42 0 01-1.205-1.604c.086-.515 2.093-13.001 22.164-23.539a1.438 1.438 0 011.95.602 1.417 1.417 0 01-.603 1.918c-18.637 9.794-20.644 21.305-20.644 21.42-.172.716-.774 1.231-1.462 1.231zm1.605 7.044c-.229 0-.458-.057-.659-.171a1.452 1.452 0 01-.602-1.948c.344-.687 8.946-16.78 25.633-24.025.717-.315 1.577.029 1.892.744.316.716-.028 1.575-.745 1.89-15.77 6.816-24.17 22.565-24.228 22.737a1.473 1.473 0 01-1.29.773z" fill="#231F20"/><path d="M39.192 182.124s-3.354 30.125 3.097 59.076c4.817 16.609 5.677 19.902 8.028 24.312.602-5.011 32.658-3.723 32.658-3.723s-22.594.859-35.783-31.957c-2.953-8.334-8.831-36.454-8-47.708zm148.007 190.371c-.115 0-.258 0-.373-.057-.774-.201-1.233-.974-1.003-1.747 13.562-50.915 12.013-87.712-4.645-109.36-11.068-14.375-28.787-21.678-52.643-21.678-60.498 0-71.824-38.114-71.939-38.486-.2-.773.23-1.547 1.004-1.776.745-.2 1.548.229 1.778 1.003.114.372 10.953 36.396 69.186 36.396 24.802 0 43.295 7.674 54.936 22.794 17.232 22.393 18.981 60.021 5.161 111.852-.258.63-.831 1.059-1.462 1.059zm279.555-147.217H272.528a1.42 1.42 0 01-1.434-1.432c0-.801.631-1.431 1.434-1.431h194.226c.803 0 1.434.63 1.434 1.431a1.42 1.42 0 01-1.434 1.432z" fill="#231F20"/><path d="M118.471 86.537c-4.014-17.066-12.185-15.892-13.074-28.063-.889-12.17 6.25-14.547 6.537-18.097.287-3.551-2.982-23.453 16.945-24.055C132.463 8.906 138.399 0 149.982 0c11.584 0 16.344 8.018 16.344 8.018s5.648-2.978 11.755-1.489c6.107 1.489 7.885 6.243 7.885 6.243s11.584 4.753 18.436 2.09c-3.87 6.529-1.921 16.322-15.827 19.902-9.748-2.377-15.081-7.417-21.332-2.663-6.251 4.753-8.917 20.474-22.594 21.964-1.175-1.49 3.556-12.17-3.268-13.946-6.853-1.833-17.978 37.226-22.91 46.418z" fill="#0085FF"/></g><path d="M0 381.5a2.5 2.5 0 012.5-2.5h510a2.5 2.5 0 110 5H2.5a2.5 2.5 0 01-2.5-2.5z" fill="#231F20"/><defs><clipPath id="clip0"><path d="M17 0h479v381H17V0z" fill="#fff"/></clipPath></defs></svg>