<svg width="520" height="399" viewBox="0 0 520 399" fill="none" xmlns="http://www.w3.org/2000/svg"><g clip-path="url(#clip0)"><path d="M330.573 263.63H127.39v-7.841h210.578v1.88H129.271v4.081h201.302v1.88zm181.806 0h-85.917v-1.88h84.035v-4.081H427.44v-1.88h84.939v7.841z" fill="#231F20"/><path d="M138.998 256.729H117.66v5.943h21.338v-5.943z" fill="#B5C0C4"/><path d="M139.94 263.63h-23.22v-7.841h23.22v7.841zm-21.339-1.88h19.457v-4.081h-19.457v4.081zm98.167-181.683c-20.962.997-21.789 25.461-21.789 25.461h43.579c0-.019-.828-24.464-21.79-25.46z" fill="#231F20"/><path d="M217.709 0h-1.882v80.067h1.882V0z" fill="url(#paint0_linear)"/><path d="M437.376 80.067c-20.962.997-21.79 25.461-21.79 25.461h43.579c-.018-.019-.827-24.464-21.789-25.46z" fill="#231F20"/><path d="M438.316 0h-1.881v80.067h1.881V0z" fill="url(#paint1_linear)"/><path d="M229.695 217.787h-25.836v37.081h25.836v-37.081z" fill="#fff"/><path d="M230.636 255.808h-27.717v-38.961h27.717v38.961zm-25.835-1.88h23.953v-35.201h-23.953v35.201z" fill="#231F20"/><path d="M264.506 239.882H169.03a5.218 5.218 0 01-5.231-5.228v-55.171a5.218 5.218 0 015.231-5.227h95.476a5.218 5.218 0 015.231 5.227v55.19c0 2.877-2.333 5.209-5.231 5.209z" fill="#231F20"/><path d="M264.506 240.821H169.03a6.173 6.173 0 01-6.172-6.167v-55.171a6.174 6.174 0 016.172-6.168h95.476a6.174 6.174 0 016.172 6.168v55.19c0 3.384-2.766 6.148-6.172 6.148zm-95.476-65.625a4.287 4.287 0 00-4.29 4.287v55.19a4.287 4.287 0 004.29 4.287h95.476a4.287 4.287 0 004.291-4.287v-55.19a4.287 4.287 0 00-4.291-4.287H169.03zm71.654 78.732h-47.813v1.88h47.813v-1.88z" fill="#231F20"/><path d="M285.525 195.353l2.954-7.239c.696-1.692-2.992-4.776-8.204-6.92-5.231-2.125-10.011-2.482-10.707-.808l-7.658 18.747c-.697 1.692 2.991 4.776 8.204 6.92 5.231 2.125 10.01 2.482 10.706.808l1.035-2.538" fill="#F2F6F7"/><path d="M277.998 208.874c-.282 0-.583-.019-.903-.038-2.127-.15-4.723-.827-7.339-1.899-2.615-1.072-4.949-2.407-6.567-3.779-2.427-2.031-2.502-3.498-2.145-4.363l7.659-18.747c.357-.865 1.43-1.843 4.591-1.618 2.126.151 4.723.828 7.338 1.9 2.616 1.071 4.949 2.406 6.567 3.779 2.428 2.031 2.503 3.498 2.145 4.363l-2.954 7.239-1.75-.714 2.954-7.24c.076-.169-.094-.921-1.618-2.219-1.486-1.241-3.631-2.482-6.078-3.478-2.446-.997-4.835-1.618-6.774-1.768-1.994-.15-2.653.282-2.709.451l-7.659 18.748c-.075.169.094.921 1.619 2.219 1.486 1.241 3.631 2.482 6.077 3.478 2.447.997 4.836 1.617 6.774 1.768 1.995.15 2.654-.282 2.71-.451l1.035-2.52 1.75.714-1.035 2.52c-.32.771-1.223 1.655-3.688 1.655z" fill="#231F20"/><path d="M269.55 180.405s6.586 6.864 18.911 7.71l-18.911-7.71z" fill="#F2F6F7"/><path d="M288.404 189.055c-12.551-.865-19.25-7.71-19.532-7.992l1.355-1.297c.056.075 6.51 6.619 18.309 7.427l-.132 1.862z" fill="#231F20"/><path d="M347.884 399.019c33.39 0 60.458-3.999 60.458-8.932s-27.068-8.932-60.458-8.932-60.458 3.999-60.458 8.932 27.068 8.932 60.458 8.932zM38.518 387.416c21.273 0 38.518-2.399 38.518-5.359 0-2.959-17.245-5.359-38.518-5.359S0 379.098 0 382.057c0 2.96 17.245 5.359 38.518 5.359z" fill="#B5C0C4"/><path d="M342.577 242.401s14.319-1.881 29.58 2.595c15.26 4.456-1.863 6.882-1.863 6.882s-14.809-4.4-28.677-3.215c.659-3.348.96-6.262.96-6.262z" fill="#fff"/><path d="M370.219 252.837l-.188-.056c-.151-.038-14.828-4.344-28.319-3.178l-1.242.113.244-1.222c.64-3.254.941-6.131.941-6.168l.075-.733.734-.094c.151-.019 14.696-1.843 29.957 2.613 5.024 1.467 7.131 2.84 6.999 4.57-.188 2.613-6.36 3.779-8.994 4.155h-.207zm-23.596-5.321c11.422 0 22.072 2.933 23.728 3.403 3.537-.526 6.999-1.673 7.188-2.407 0 0-.264-1.034-5.664-2.613-12.965-3.799-25.384-2.934-28.47-2.633-.113.903-.32 2.501-.658 4.381a54.1 54.1 0 013.876-.131z" fill="#231F20"/><path d="M287.613 360.94c-.169-2.463-3.744-60.285 20.04-70.665 3.745-1.636 7.64-3.215 11.403-4.738 20.209-8.199 39.29-15.927 42.959-33.866l1.844.376c-3.858 18.917-23.389 26.833-44.088 35.22-3.744 1.523-7.621 3.084-11.365 4.719-22.58 9.854-18.948 68.221-18.911 68.804l-1.882.15z" fill="#231F20"/><path d="M125.094 372.279l28.037 15.137H520l-49.318-16.754-345.588 1.617z" fill="#B5C0C4"/><path d="M353.603 318.933h-4.967v53.309h4.967v-53.309z" fill="#0085FF"/><path d="M348.636 367.504l-37.426 21.681 2.408 1.391 37.502-17.487-2.484-5.585z" fill="#0085FF"/><path d="M353.058 367.504l37.445 21.681-2.427 1.391-37.483-17.487 2.465-5.585z" fill="#0085FF"/><path d="M293.259 359.061l1.11 5.547-13.868 9.308s.715-9.026 4.347-11.151c3.631-2.163 8.411-3.704 8.411-3.704zm34.34-2.746l1.11 5.548-13.868 9.308s.715-9.026 4.346-11.151c3.632-2.163 8.412-3.705 8.412-3.705zm15.128-130.386l-.903-1.655c.057-.019 5.081-2.839 9.521-7.258l1.336 1.335c-4.628 4.625-9.728 7.465-9.954 7.578z" fill="#231F20"/><path d="M351.12 370.023h-3.104l1.862 23.806h1.939l1.863-23.806h-2.56z" fill="#0085FF"/><path d="M156.121 386.006a.931.931 0 01-.94-.94V262.69c0-.526.414-.94.94-.94.527 0 .941.414.941.94v122.376c0 .508-.432.94-.941.94zm-21.845-11.151a.931.931 0 01-.941-.94V262.69c0-.526.414-.94.941-.94.527 0 .941.414.941.94v111.225c0 .527-.414.94-.941.94z" fill="#231F20"/><path d="M155.369 367.164a.732.732 0 01-.339-.075l-20.623-8.18a.936.936 0 01-.527-1.222.937.937 0 011.224-.526l20.623 8.179a.937.937 0 01.527 1.223.954.954 0 01-.885.601zm207.568-185.688c-2.879 0-5.701-.583-8.336-1.749-8.392-3.704-13.529-12.862-13.096-23.335.019-.527.395-.922.978-.903.527.019.922.47.904.978-.414 9.684 4.29 18.145 11.967 21.53 3.801 1.674 8.053 2.031 12.306 1.016a.92.92 0 011.129.695.935.935 0 01-.696 1.129 21.066 21.066 0 01-5.156.639zm-8.166-33.433a1.767 1.767 0 100-3.535 1.768 1.768 0 100 3.535z" fill="#231F20"/><path d="M376.541 177.095l-1.053-1.561c4.346-2.933 7.827-7.183 10.085-12.26 2.785-6.299 3.312-13.125 1.506-19.236-1.788-6.055-5.683-10.662-10.952-12.994-10.631-4.701-23.671 1.316-29.711 13.671l-4.29 8.969a.935.935 0 00.301 1.166l4.365 3.121-4.064 1.373-.602-1.786.583-.188-1.393-.997a2.816 2.816 0 01-.903-3.497l4.29-8.97c6.473-13.275 20.605-19.669 32.158-14.573 5.777 2.557 10.029 7.578 11.986 14.178 1.939 6.525 1.374 13.821-1.599 20.534-2.352 5.416-6.059 9.929-10.707 13.05z" fill="#231F20"/><path d="M374.114 180.461c8.524-6.506 11.911-2.783 17.048-8.18 5.137-5.397 2.691-9.289 3.933-11.075 1.242-1.787 10.5-9.929 1.336-17.921 1.204-4.889 1.844-11.395-3.613-15.889s-10.819-2.538-10.819-2.538-1.506-3.592-4.968-5.247c-3.462-1.654-6.134-.113-6.134-.113s-7.32-2.237-9.503-6.148c-.715 4.588-5.419 8.461-.244 15.513 5.513 2.651 9.991 2.332 11.102 6.995 1.11 4.663-3.745 13.125 2.126 19.123 1.129-.244 3.048-7.126 6.962-5.321 3.914 1.805-5.965 24.558-7.226 30.801z" fill="#0085FF"/><path d="M488.312 255.808h-28.676V222.45h28.676v33.358zm-26.795-1.88h24.914v-29.597h-24.914v29.597zm-163.31 3.647H283.36v-17.111h14.847v17.111zm-12.965-1.88h11.083v-13.351h-11.083v13.351z" fill="#231F20"/><path d="M283.982 364.118l-.151-1.354c-.263-2.407-6.058-59.364 9.108-79.766 7.884-10.586 17.932-14.028 26.795-17.055 3.424-1.166 6.661-2.275 9.615-3.723 5.269-2.557 7.508-3.911 10.425-11.395 2.22-5.717 1.938-12.448 1.637-19.575a184.4 184.4 0 01-.17-4.701c-6.755 3.46-16.314 6.788-25.722 4.795-16.672-3.535-23.916-20.12-25.365-23.862-5.532.714-7.997-1.204-8.976-2.482-1.26-1.599-1.486-3.705-.602-5.754 1.054-2.445 2.635-4.081 4.46-4.607 1.392-.395 2.785-.132 4.064.752 2.277 1.579 4.309 4.4 4.893 5.246 2.069.884 16.238 6.826 24.085 9.741 4.666 1.729 7.169-1.411 11.553-7.578 2.258-3.159 4.817-6.751 8.317-10.079 7.885-7.465 14.527-11.753 20.906-13.483l.489 1.805c-6.059 1.636-12.457 5.792-20.115 13.032-3.368 3.196-5.871 6.694-8.072 9.796-4.197 5.905-7.508 10.568-13.755 8.255-8.487-3.14-24.255-9.797-24.425-9.872l-.263-.113-.151-.244c-.018-.038-2.239-3.366-4.572-4.983-.809-.564-1.637-.733-2.484-.489-1.261.357-2.427 1.617-3.236 3.535-.602 1.41-.471 2.802.357 3.855 1.336 1.692 4.234 2.294 7.96 1.655l.79-.132.245.771c.056.188 6.585 19.613 24.236 23.355 9.502 2.012 19.268-1.787 25.778-5.322l1.355-.733.019 1.56c.038 2.088.113 4.156.207 6.168.301 7.334.602 14.253-1.769 20.327-3.161 8.123-5.908 9.759-11.346 12.411-3.049 1.485-6.341 2.613-9.823 3.798-9.032 3.084-18.365 6.281-25.891 16.397-13.473 18.108-9.672 68.183-8.882 77.077l5.589-2.802c.094-5.02 1.806-40.484 28.695-56.092l1.75-1.015-.357 1.993c-3.839 21.7-1.713 49.36-1.129 55.754l5.588-2.802c.113-5.867 2.446-53.196 44.521-62.128 22.09-4.682 30.219-12.429 33.136-18.108 2.691-5.228 1.618-9.816 1.129-11.283l-7.357-.827.564-1.185c3.199-6.75 8.75-19.311 9.954-27.623l.32-2.087c2.032-13.275 6.247-40.898-15.524-48.984l-.847-.301.621-1.767.866.319c23.201 8.631 18.666 38.341 16.728 51.034l-.32 2.069c-1.185 8.085-6.266 19.913-9.559 26.964l5.871.658.226.489c.113.245 2.672 6.187-.979 13.332-4.497 8.801-16.088 15.25-34.453 19.143-43.128 9.157-43.053 60.341-43.034 60.849v.583l-9.07 4.551-.15-1.354c-.038-.32-3.199-31.046.677-55.603-26.117 16.735-26.023 53.609-26.023 53.986v.582l-8.957 4.626zM151.003 262.776l-1.696.814 5.953 12.392 1.696-.814-5.953-12.392zm-11.498.047l-6.084 14.006 1.726.749 6.084-14.006-1.726-.749zm363.334 121.19a.932.932 0 01-.941-.94V262.69c0-.526.414-.94.941-.94.527 0 .941.414.941.94v120.383c0 .507-.433.94-.941.94zm-35.319-9.158a.931.931 0 01-.941-.94V262.69c0-.526.414-.94.941-.94.527 0 .941.414.941.94v111.225c0 .527-.414.94-.941.94z" fill="#231F20"/><path d="M501.634 367.164c-.075 0-.15 0-.225-.019l-33.325-8.179a.953.953 0 01-.696-1.128.944.944 0 011.129-.696l33.324 8.179c.508.132.809.64.697 1.129a.925.925 0 01-.904.714zm-7.65-104.567l-1.487 1.153 9.635 12.404 1.486-1.153-9.634-12.404zm-17.388.056l-9.835 14.007 1.54 1.08 9.836-14.007-1.541-1.08zm-84.794-78.845c-5.08-1.335-7.621-7.446-7.734-7.71l1.75-.714c.019.056 2.315 5.528 6.473 6.6l-.489 1.824z" fill="#231F20"/><path d="M461.725 208.064s-.49 10.907 7.507 12.768c7.998 1.862.81-9.345-7.507-12.768zm24.499 0s.489 10.907-7.508 12.768c-7.997 1.862-.809-9.345 7.508-12.768z" fill="#0085FF"/><path d="M473.73 206.861s-10.049 14.799 0 14.799c10.048 0 0-14.799 0-14.799zm-112.562 15.871l-12.1 48.721-51.557 12.317c-2.691.639-4.535 2.914-4.441 5.472.357 8.33 2.691 25.874 16.107 29.804 17.725 5.209 85.842 25.667 104.376-16.359 18.535-42.027 23.371-74.765 23.371-74.765s7.263-20.082-36.674-17.487c-43.937 2.595-33.851 11.188-39.082 12.297z" fill="#0085FF"/><path d="M291.734 206.467l-1.881-.038c.075-4.475 3.048-5.81 3.18-5.867l.752 1.73c-.094.038-2.013.959-2.051 4.175zm-.601-8.387l-1.675-.846c.527-1.015.621-1.937.32-2.821-.621-1.786-2.747-2.801-2.766-2.801l.79-1.712c.113.057 2.86 1.335 3.763 3.893.471 1.354.32 2.802-.432 4.287zm-7.17 10.155c-1.75 0-3.331-.922-3.425-.978l.941-1.617c.019.018 2.521 1.448 3.876.225l1.261 1.392c-.809.733-1.75.978-2.653.978zm59.103-43.926l5.495-.169-3.895 3.854-1.449-2.952m-57.037 66.695l-1.833.422 2.128 9.236 1.834-.422-2.129-9.236zm9.466 3.046l-1.867 6.134 1.801.547 1.866-6.134-1.8-.547zM35.488 325.288c-1.863-5.829-4.158-12.579-5.664-17.036-.884-2.576-1.505-4.4-1.637-4.889-.809-2.783 4.441-9.364 13.172-19.105.94-1.053 1.694-1.88 2.108-2.388l1.448 1.204a98.225 98.225 0 01-2.164 2.444c-8.919 9.947-13.209 15.777-12.776 17.318.132.471.752 2.276 1.618 4.814 1.524 4.476 3.82 11.226 5.683 17.074l-1.788.564z" fill="#231F20"/><path d="M32.891 349.941c-9.935-13.652-27.472-42.516-27.096-51.447.49-11.283 26.005-51.11 28.093-54.344.226-1.184 1.6-9.176 2.842-32.85l1.881.094c-1.354 25.949-2.86 33.019-2.916 33.302l-.132.319c-.282.433-27.416 42.535-27.886 53.554-.339 7.785 15.599 34.975 26.738 50.263l-1.524 1.109zm64.353-105.02l-1.844-.376c.057-.245 4.93-24.577 7.847-45.524l1.863.263c-2.917 21.004-7.81 45.392-7.866 45.637z" fill="#231F20"/><path d="M39.496 378.673h-8.655l.019-.959c.018-.809 2.54-82.117 23.577-129.597l1.712.752C36.486 293.228 33.118 367.466 32.76 376.792h5.476l57.203-132.436 1.73.753-57.672 133.564zm-.094-183.376l-1.882-.132c.64-8.762 2.277-16.209 4.855-22.132l1.731.752c-2.483 5.717-4.064 12.956-4.704 21.512z" fill="#231F20"/><path d="M47.964 211.882c-8.505 0-15.43-2.012-19.57-5.284-3.33-2.613-4.779-6.054-4.083-9.665 6.153-31.327 19.908-39.112 29.73-42.233a76.552 76.552 0 018.11-2.088l1.694-3.911 1.731.752-2.088 4.814-.49.094a69.182 69.182 0 00-8.373 2.125c-9.352 2.971-22.486 10.455-28.45 40.804-.735 3.705 1.448 6.3 3.386 7.823 7.583 5.942 26.174 7.39 46.045-1.448-1.261-1.655-2.409-3.084-2.936-3.742-3.914.414-27.416 2.576-34.773-4.551l1.317-1.353c7.226 7.013 33.494 4.005 33.757 3.986l.508-.056.32.394a199.38 199.38 0 014.027 5.134l.696.921-1.053.489c-10.67 4.927-20.906 6.995-29.505 6.995zm81.232 41.331h-5.288l-.207-.677c-.15-.527-15.806-52.049-29.09-66.961-1.976-2.219-3.632-4.945-4.95-8.085l1.732-.715c1.242 2.952 2.785 5.491 4.629 7.559 12.871 14.46 27.303 60.605 29.279 66.998h2.088c-.056-2.181-.395-9.42-2.465-31.872-4.309-38.868-9.784-57.296-30.746-63.708-1.618-.47-6.228-1.73-7.94-1.824l.093-1.88c2.277.113 8.13 1.824 8.374 1.88 21.997 6.713 27.66 25.574 32.082 65.306 2.71 29.485 2.484 32.945 2.465 33.076l-.056.903zM31.82 377.732l-10.689 4.081c-.79.301-.564 1.391.302 1.391h18.383l-.922-5.472H31.82zm13.04-14.159l1.072 10.587c.075.79 1.28.903 1.543.15l5.438-16.133-5.965-.809-2.089 6.205z" fill="#231F20"/><path d="M78.259 155.678a21.43 21.43 0 01-4.065-.395c-5.156-1.034-9.615-4.005-12.268-8.18-2.371-3.761-3.105-8.142-2.07-12.335l3.688-14.836a17.29 17.29 0 01.922-2.671.93.93 0 011.242-.47c.47.207.696.771.47 1.241a14.462 14.462 0 00-.809 2.351l-3.688 14.836c-.922 3.705-.263 7.578 1.825 10.888 2.371 3.742 6.398 6.431 11.046 7.352 9.201 1.843 18.346-3.404 20.397-11.677l3.688-14.837a.954.954 0 011.148-.695.935.935 0 01.677 1.147l-3.688 14.836c-1.975 7.973-9.84 13.445-18.515 13.445zm-1.279 49.171l-.151-1.88c2.597-.226 4.29-.884 4.76-1.88.49-1.035-.338-2.294-.357-2.313a.935.935 0 01.376-1.373l3.256-1.561c-2.183.564-5.043 1.674-6.906 2.482a.924.924 0 01-.997-.15.897.897 0 01-.283-.959c.433-1.523.301-3.027-.056-4.212-.847 2.745-2.503 5.904-2.747 6.374l-1.656-.865c.865-1.635 3.067-6.28 3.048-8.179 0-.376.226-.734.565-.884a.93.93 0 011.035.207c1.204 1.203 2.145 3.667 1.956 6.299 2.39-.959 6.737-2.557 8.807-2.313.357.038.846.282 1.486.715a.888.888 0 01.395.846.922.922 0 01-.527.771l-5.701 2.726c.32.809.564 2.013 0 3.197-.79 1.674-2.917 2.67-6.304 2.952z" fill="#231F20"/><path d="M83.471 127.716a1.73 1.73 0 10.001-3.462 1.73 1.73 0 000 3.462zm10.406 1.73a1.73 1.73 0 10.001-3.46 1.73 1.73 0 00-.001 3.46z" fill="#231F20"/><path d="M88.119 129.784v8.913h-2.974" fill="#fff"/><path d="M89.06 139.637h-3.915v-1.88h2.033v-7.973h1.881v9.853z" fill="#231F20"/><path d="M81.438 144c-.583 0-.96.658-.64 1.147 1.073 1.58 2.71 2.595 4.535 2.595 1.826 0 3.463-1.015 4.535-2.595.339-.489-.037-1.147-.64-1.147h-7.79z" fill="#221E1F"/><path d="M58.181 136.177c.922 2.332 1.11 3.028 1.11 3.028s4.31-3.667 5.589-13.219c1.28-9.553 6.85-6.224 7.113-4.739.263 1.486-1.826 6.807-1.826 6.807s1.675 0 2.578-1.617c.903-1.617 6.323-13.031 6.323-13.031s15.956 3.196 19.569 2.82c3.142-.319.772 1.693 1.769 8.011.131.846 1.392.131 1.637-.677 2.088-6.657 1.355-11.546-1.43-15.777-2.126-10.962-14.922-14.892-23.446-13.03-5.588 1.222-8.072 4.23-9.126 6.148 0 0-5.532 3.14-8.053 6.318-.828 1.053-1.242 3.178-1.468 5.736-2.898 6.43-4.065 14.347-1.938 19.405a85.8 85.8 0 011.6 3.817z" fill="#E87E00"/><path d="M146.206 257.67h-22.542v-5.397h1.882v3.516h13.247c-2.785-1.222-6.812-2.707-10.462-2.576l-.019-1.88h.226c6.887 0 14.413 4.4 14.733 4.607l2.935 1.73zm-51.201-10.267c-25.157-16.397-58.407-13.012-58.745-12.975l-.207-1.861c.338-.038 34.246-3.498 59.969 13.275l-1.017 1.561z" fill="#231F20"/><path d="M82.793 255.413c-8.73-2.463-7.884-13.52-7.884-13.633l1.882.151c-.038.395-.715 9.627 6.51 11.658l-.508 1.824z" fill="#231F20"/></g><defs><linearGradient id="paint0_linear" x1="216.775" y1="80.06" x2="216.775" y2="0" gradientUnits="userSpaceOnUse"><stop offset=".654" stop-color="#231F20"/><stop offset="1" stop-color="#fff"/></linearGradient><linearGradient id="paint1_linear" x1="437.373" y1="80.06" x2="437.373" y2="0" gradientUnits="userSpaceOnUse"><stop offset=".654" stop-color="#231F20"/><stop offset="1" stop-color="#fff"/></linearGradient><clipPath id="clip0"><path fill="#fff" d="M0 0h520v399H0z"/></clipPath></defs></svg>