<svg width="18" height="16" viewBox="0 0 18 16" fill="none" xmlns="http://www.w3.org/2000/svg"><path d="M9 3h.012a4.98 4.98 0 013.467 1.41l.035.033.022.021.018.019A4.984 4.984 0 0114 8h3a8 8 0 00-.584-3l-.025-.061A8 8 0 009 0v3z" fill="#F186A0"/><path d="M9 3h-.012a4.983 4.983 0 00-3.467 1.41l-.035.033-.022.021-.018.019A4.984 4.984 0 004 8H1a8 8 0 01.584-3l.025-.061A8 8 0 019 0v3z" fill="#FFCE0E"/><path fill="#FFCE0E" d="M0 6h9v2H0z"/><path fill="#F186A0" d="M9 6h9v2H9z"/><path d="M9 13h-.012a4.983 4.983 0 01-3.467-1.41l-.035-.033-.022-.021-.018-.019A4.984 4.984 0 014 8H1a8 8 0 00.584 3l.025.062A8 8 0 009 16v-3z" fill="#93035F"/><path d="M9 13h.012a4.984 4.984 0 003.467-1.41l.035-.033.022-.021.018-.019A4.984 4.984 0 0014 8h3a8 8 0 01-.584 3l-.025.062A8 8 0 019 16v-3z" fill="#EE271A"/><path fill="#93035F" d="M0 8h9v2H0z"/><path fill="#EE271A" d="M9 8h9v2H9z"/></svg>