<svg width="20" height="17" viewBox="0 0 20 17" fill="none" xmlns="http://www.w3.org/2000/svg">
<path d="M9.68439 1.16042C9.6989 1.16042 9.7134 1.16042 9.72791 1.16767L13.2237 2.21929C13.4557 2.29182 13.6951 2.32083 13.9344 2.32083C14.152 2.32083 14.3696 2.29182 14.5871 2.2338L17.3214 1.48678C17.3359 1.47953 17.3504 1.47953 17.3649 1.47953C17.4229 1.47953 17.5027 1.52305 17.5099 1.61733L18.2134 14.585C18.2207 14.6575 18.1699 14.7155 18.1047 14.7373L14.3696 15.6656C14.3551 15.6656 14.3406 15.6656 14.3333 15.6584L10.3516 14.5705C10.1413 14.5124 9.92373 14.4834 9.6989 14.4834C9.48132 14.4834 9.26374 14.5124 9.04616 14.5705L5.06449 15.6584C5.05724 15.6584 5.04998 15.6584 5.03548 15.6584C5.02823 15.6584 5.01372 15.6584 4.99196 15.6584L1.29314 14.73C1.20611 14.7228 1.16259 14.6648 1.16259 14.5922L1.86609 1.62458C1.87335 1.5303 1.95312 1.48678 2.01115 1.48678C2.02565 1.48678 2.04016 1.48678 2.05466 1.49404L4.78889 2.24105C4.99196 2.29182 5.20954 2.32083 5.43437 2.32083C5.67371 2.32083 5.91304 2.28457 6.14513 2.21929L9.64088 1.16767C9.65538 1.16042 9.66989 1.16042 9.68439 1.16042ZM9.68439 0C9.55385 0 9.43055 0.0217578 9.30726 0.0580208L5.81151 1.10239C5.68821 1.13866 5.55767 1.16042 5.43437 1.16042C5.31833 1.16042 5.20229 1.14591 5.0935 1.1169L2.35202 0.369882C2.23598 0.33362 2.11993 0.319114 2.01115 0.319114C1.33665 0.319114 0.749194 0.848554 0.705678 1.55931L0.00217605 14.527C-0.0340869 15.1507 0.386564 15.7164 0.988529 15.8687L4.68735 16.797C4.78889 16.826 4.89768 16.8333 5.00647 16.8333C5.12251 16.8333 5.23855 16.8188 5.34734 16.7898L9.32902 15.7019C9.44506 15.6729 9.55385 15.6584 9.66989 15.6584C9.78593 15.6584 9.90197 15.6729 10.0108 15.7019L13.9924 16.7898C14.1085 16.8188 14.2173 16.8333 14.3333 16.8333C14.4421 16.8333 14.5436 16.8188 14.6524 16.797L18.3512 15.8687C18.9605 15.7164 19.3739 15.1579 19.3376 14.527L18.6631 1.55931C18.6268 0.848554 18.0321 0.319114 17.3576 0.319114C17.2416 0.319114 17.1256 0.33362 17.0095 0.36263L14.2753 1.10965C14.1592 1.13866 14.0505 1.15316 13.9344 1.15316C13.8111 1.15316 13.6806 1.13141 13.5573 1.09514L10.0615 0.0435156C9.93823 0.0217578 9.80769 0 9.68439 0Z" fill="#0085FF"/>
<path d="M9.68485 5.54811C10.693 5.54811 11.5125 6.36765 11.5125 7.37577C11.5125 8.60145 10.5044 9.95769 9.6921 10.8207C8.87981 9.94318 7.84994 8.56519 7.84994 7.37577C7.84994 6.36765 8.67674 5.54811 9.68485 5.54811ZM9.68485 4.3877C8.03126 4.3877 6.69678 5.72943 6.69678 7.37577C6.69678 9.89967 9.68485 12.4308 9.68485 12.4308C9.68485 12.4308 12.6729 9.96494 12.6729 7.37577C12.6729 5.72217 11.3384 4.3877 9.68485 4.3877Z" fill="#0085FF"/>
</svg>
