<svg width="26" height="14" viewBox="0 0 26 14" fill="none" xmlns="http://www.w3.org/2000/svg">
<path d="M15.9708 3.85349C15.9708 5.72223 14.5125 7.20698 12.7501 7.20698C10.9877 7.20698 9.5293 5.72223 9.5293 3.85349C9.5293 1.98475 10.9877 0.5 12.7501 0.5C14.5125 0.5 15.9708 1.98475 15.9708 3.85349Z" stroke="#A3ACBA"/>
<path d="M18.5006 12.6116C18.5006 10.6768 15.9261 9.1084 12.7503 9.1084C9.57449 9.1084 7 10.6768 7 12.6116" stroke="#A3ACBA" stroke-linecap="round" stroke-linejoin="round"/>
<path d="M7.55061 5.51424C7.55061 6.83912 6.51796 7.88298 5.28068 7.88298C4.0434 7.88298 3.01074 6.83912 3.01074 5.51424C3.01074 4.18936 4.0434 3.14551 5.28068 3.14551C6.51796 3.14551 7.55061 4.18936 7.55061 5.51424Z" stroke="#A3ACBA"/>
<path d="M1 12.0342C1 10.5939 2.91658 9.42627 5.28081 9.42627" stroke="#A3ACBA" stroke-linecap="round" stroke-linejoin="round"/>
<path d="M18.4494 5.51424C18.4494 6.83912 19.482 7.88298 20.7193 7.88298C21.9566 7.88298 22.9893 6.83912 22.9893 5.51424C22.9893 4.18936 21.9566 3.14551 20.7193 3.14551C19.482 3.14551 18.4494 4.18936 18.4494 5.51424Z" stroke="#A3ACBA"/>
<path d="M25 12.0342C25 10.5939 23.0834 9.42627 20.7192 9.42627" stroke="#A3ACBA" stroke-linecap="round" stroke-linejoin="round"/>
</svg>
