<svg width="26" height="14" viewBox="0 0 26 14" fill="none" xmlns="http://www.w3.org/2000/svg">
<path d="M15.9708 3.85349C15.9708 5.72223 14.5125 7.20698 12.7501 7.20698C10.9877 7.20698 9.5293 5.72223 9.5293 3.85349C9.5293 1.98475 10.9877 0.5 12.7501 0.5C14.5125 0.5 15.9708 1.98475 15.9708 3.85349Z" stroke="#0085FF"/>
<path d="M18.5006 12.6106C18.5006 10.6758 15.9261 9.10742 12.7503 9.10742C9.57449 9.10742 7 10.6758 7 12.6106" stroke="#0085FF" stroke-linecap="round" stroke-linejoin="round"/>
<path d="M7.55061 5.51327C7.55061 6.83814 6.51796 7.882 5.28068 7.882C4.0434 7.882 3.01074 6.83814 3.01074 5.51327C3.01074 4.18839 4.0434 3.14453 5.28068 3.14453C6.51796 3.14453 7.55061 4.18839 7.55061 5.51327Z" stroke="#0085FF"/>
<path d="M1 12.0337C1 10.5934 2.91658 9.42578 5.28081 9.42578" stroke="#0085FF" stroke-linecap="round" stroke-linejoin="round"/>
<path d="M18.4494 5.51327C18.4494 6.83814 19.482 7.882 20.7193 7.882C21.9566 7.882 22.9893 6.83814 22.9893 5.51327C22.9893 4.18839 21.9566 3.14453 20.7193 3.14453C19.482 3.14453 18.4494 4.18839 18.4494 5.51327Z" stroke="#0085FF"/>
<path d="M25 12.0337C25 10.5934 23.0834 9.42578 20.7192 9.42578" stroke="#0085FF" stroke-linecap="round" stroke-linejoin="round"/>
</svg>
