<svg width="16" height="17" viewBox="0 0 16 17" fill="none" xmlns="http://www.w3.org/2000/svg">
<path d="M3.43478 2.30444H3C1.89543 2.30444 1 3.19987 1 4.30444V14.0001C1 15.1047 1.89543 16.0001 3 16.0001H13C14.1046 16.0001 15 15.1047 15 14.0001V4.30444C15 3.19987 14.1046 2.30444 13 2.30444H12.5652" stroke="#0085FF" stroke-linecap="round" stroke-linejoin="round"/>
<path d="M5.26078 1H3.43469V3.6087H5.26078V1Z" stroke="#0085FF" stroke-linecap="round" stroke-linejoin="round"/>
<path d="M12.5652 1H10.7391V3.6087H12.5652V1Z" stroke="#0085FF" stroke-linecap="round" stroke-linejoin="round"/>
<path d="M5.26086 2.3042H10.7391" stroke="#0085FF" stroke-linecap="round" stroke-linejoin="round"/>
<path d="M1 5.56519H15" stroke="#0085FF" stroke-linecap="round" stroke-linejoin="round"/>
<circle cx="4" cy="9" r="1" fill="#0085FF"/>
<circle cx="8" cy="9" r="1" fill="#0085FF"/>
<circle cx="12" cy="9" r="1" fill="#0085FF"/>
<circle cx="4" cy="12" r="1" fill="#0085FF"/>
<circle cx="8" cy="12" r="1" fill="#0085FF"/>
<circle cx="12" cy="12" r="1" fill="#0085FF"/>
</svg>
