<svg width="16" height="9" viewBox="0 0 16 9" fill="none" xmlns="http://www.w3.org/2000/svg">
<path d="M9.52385 2.57018C9.52385 3.55219 8.75957 4.3181 7.85336 4.3181C6.94714 4.3181 6.18286 3.55219 6.18286 2.57018C6.18286 1.58817 6.94714 0.822266 7.85336 0.822266C8.75957 0.822266 9.52385 1.58817 9.52385 2.57018Z" stroke="#A3ACBA"/>
<path d="M11.2064 7.67857C11.2064 6.54994 9.70455 5.63501 7.85196 5.63501C5.99938 5.63501 4.49756 6.54994 4.49756 7.67857" stroke="#A3ACBA" stroke-linecap="round" stroke-linejoin="round"/>
<path d="M4.61178 3.53845C4.61178 4.2032 4.09584 4.71192 3.49596 4.71192C2.89607 4.71192 2.38013 4.2032 2.38013 3.53845C2.38013 2.87371 2.89607 2.36499 3.49596 2.36499C4.09584 2.36499 4.61178 2.87371 4.61178 3.53845Z" stroke="#A3ACBA"/>
<path d="M1 7.3414C1 6.50119 2.11803 5.82007 3.49719 5.82007" stroke="#A3ACBA" stroke-linecap="round" stroke-linejoin="round"/>
<path d="M11.3846 3.5387C11.3846 4.20344 11.9005 4.71216 12.5004 4.71216C13.1003 4.71216 13.6162 4.20344 13.6162 3.5387C13.6162 2.87395 13.1003 2.36523 12.5004 2.36523C11.9005 2.36523 11.3846 2.87395 11.3846 3.5387Z" stroke="#A3ACBA"/>
<path d="M14.9963 7.34237C14.9963 6.50217 13.8783 5.82104 12.4991 5.82104" stroke="#A3ACBA" stroke-linecap="round" stroke-linejoin="round"/>
</svg>
