<svg width="17" height="20" viewBox="0 0 17 20" fill="none" xmlns="http://www.w3.org/2000/svg"><path d="M7.048 6.363c0-.165.083-.33.166-.495a.652.652 0 0 1 .913 0l3.648 3.636a.647.647 0 0 1 0 .909l-3.648 3.636a.652.652 0 0 1-.913 0 .647.647 0 0 1 0-.909L10.366 10 7.214 6.86c-.083-.083-.166-.249-.166-.497z" fill="#0085FF"/><path d="M0 10c0-.33.331-.661.663-.661h10.2c.332 0 .663.33.663.661 0 .33-.331.661-.663.661H.663C.331 10.661 0 10.331 0 10z" fill="#0085FF"/><path d="M0 17.851V14.96c0-.33.332-.662.663-.662.332 0 .664.331.664.662v2.892a.83.83 0 0 0 .83.827h12.687a.83.83 0 0 0 .83-.827V2.15a.83.83 0 0 0-.83-.827H2.156a.83.83 0 0 0-.83.827v2.81c0 .33-.33.66-.663.66C.332 5.62 0 5.29 0 4.96V2.15C0 .992.912 0 2.156 0h12.688C16.088 0 17 .91 17 2.149v15.785a2.137 2.137 0 0 1-2.156 2.149H2.156C.996 20 0 19.008 0 17.85z" fill="#000"/></svg>