<svg width="21" height="21" viewBox="0 0 21 21" fill="none" xmlns="http://www.w3.org/2000/svg"><path d="M8.21 9.975C6.568 9.975 5.27 8.662 5.27 7c0-1.663 1.297-2.975 2.939-2.975 1.642 0 2.938 1.312 2.938 2.975 0 1.662-1.383 2.975-2.938 2.975zm0-4.55c-.864 0-1.556.7-1.556 1.575s.692 1.575 1.556 1.575c.864 0 1.555-.7 1.555-1.575S9.074 5.425 8.21 5.425zm3.284 10.063c-.346 0-.692-.35-.692-.7v-2.013a.965.965 0 0 0-.95-.963H6.395a.965.965 0 0 0-.95.963V14.7c0 .35-.346.7-.692.7s-.691-.35-.691-.7v-1.925c.086-1.225 1.123-2.275 2.42-2.275h3.456c1.296 0 2.333 1.05 2.333 2.363v2.012c-.086.35-.345.613-.777.613z" fill="#0085FF"/><path d="M8.296 16.712C3.716 16.712 0 12.95 0 8.4 0 3.762 3.716 0 8.296 0c4.58 0 8.297 3.763 8.297 8.4-.087 4.55-3.803 8.312-8.297 8.312zm0-15.312c-3.802 0-6.913 3.15-6.913 7s3.11 7 6.913 7c3.803 0 6.914-3.15 6.914-7-.087-3.85-3.198-7-6.914-7z" fill="#000"/><path d="M20.308 21c-.173 0-.346-.087-.518-.175l-6.568-6.65a.693.693 0 0 1 0-.963.672.672 0 0 1 .95 0l6.568 6.65c.26.263.26.7 0 .963-.086.175-.259.175-.432.175z" fill="#000"/></svg>