<svg width="21" height="21" viewBox="0 0 21 21" fill="none" xmlns="http://www.w3.org/2000/svg"><g clip-path="url(#a)"><path d="M7.865 1.222a6.648 6.648 0 0 1 6.644 6.643 6.648 6.648 0 0 1-6.644 6.644 6.648 6.648 0 0 1-6.643-6.644 6.648 6.648 0 0 1 6.643-6.643zm0-1.222A7.854 7.854 0 0 0 0 7.865a7.854 7.854 0 0 0 7.865 7.866 7.854 7.854 0 0 0 7.866-7.866C15.73 3.513 12.14 0 7.865 0z" fill="#000"/><path d="M3.666 9.24c-.306 0-.611-.306-.611-.611 0-2.215 1.374-4.276 3.436-5.116.306-.153.687 0 .764.305.152.305 0 .687-.306.764-1.603.763-2.672 2.29-2.672 4.047 0 .382-.23.61-.611.61z" fill="#0085FF"/><path d="M20.389 21c-.153 0-.305-.076-.458-.152l-7.484-7.484a.6.6 0 0 1 0-.84.6.6 0 0 1 .84 0l7.484 7.484a.6.6 0 0 1 0 .84.583.583 0 0 1-.382.152z" fill="#000"/></g><defs><clipPath id="a"><path fill="#fff" d="M0 0h21v21H0z"/></clipPath></defs></svg>