<svg width="23" height="21" viewBox="0 0 23 21" fill="none" xmlns="http://www.w3.org/2000/svg"><path d="M9.346 21c-3.17 0-6.258-.6-8.94-1.628L0 19.2v-1.114c0-2.914 1.138-5.743 3.088-7.714a.614.614 0 0 1 .894 0 .699.699 0 0 1 0 .942C2.276 13.03 1.3 15.514 1.3 18.086v.086c2.439.942 5.202 1.371 8.046 1.371 2.845 0 5.69-.514 8.046-1.371v-.086c0-2.572-.975-5.057-2.682-6.772a.7.7 0 0 1 0-.942.614.614 0 0 1 .894 0c1.95 1.971 3.089 4.8 3.089 7.714V19.2l-.407.172C15.686 20.4 12.597 21 9.346 21z" fill="#000"/><path d="M9.347 11.571C6.34 11.571 3.9 9 3.9 5.83 3.901 2.657 6.34 0 9.347 0s5.445 2.571 5.445 5.743c0 3.171-2.438 5.828-5.445 5.828zm0-10.2c-2.276 0-4.145 1.972-4.145 4.372s1.869 4.371 4.145 4.371c2.275 0 4.145-1.971 4.145-4.371.08-2.4-1.789-4.372-4.145-4.372z" fill="#0085FF"/><path d="M3.332 20.142s-.081 0 0 0c-.407 0-.65-.342-.65-.685 0-.086.162-2.915.731-4.372.163-.343.488-.514.813-.343.325.172.487.515.325.858-.406 1.028-.569 3.171-.65 3.943 0 .342-.244.6-.57.6zm12.109.001a.658.658 0 0 1-.65-.686c0-.771-.244-2.914-.65-3.943-.163-.343 0-.771.325-.857.325-.171.732 0 .813.343.569 1.457.731 4.286.731 4.371.081.429-.162.772-.569.772z" fill="#000"/><path d="M12.678 15.429h-1.3c-.325 0-.65-.343-.65-.686s.325-.686.65-.686h1.3c.325 0 .65.343.65.686s-.325.686-.65.686zm7.232-6.001c-.324 0-.65-.343-.65-.685V3.6c0-.343.326-.686.65-.686.326 0 .651.343.651.686v5.057c0 .428-.325.771-.65.771z" fill="#0085FF"/><path d="M22.35 6.857h-4.796c-.325 0-.65-.343-.65-.686s.325-.686.65-.686h4.796c.325 0 .65.343.65.686s-.325.686-.65.686z" fill="#0085FF"/></svg>