<svg width="25" height="15" fill="none" xmlns="http://www.w3.org/2000/svg"><path d="M17.279 15H7.72C3.466 15 0 11.64 0 7.504 0 3.368 3.466 0 7.721 0h9.566c4.256 0 7.721 3.368 7.721 7.504 0 4.136-3.465 7.496-7.73 7.496zM7.72 1.292c-3.524 0-6.391 2.787-6.391 6.212s2.867 6.212 6.391 6.212h9.566c3.524 0 6.392-2.787 6.392-6.212s-2.876-6.212-6.4-6.212H7.72z" fill="#000"/><path d="M8.428 12.036c-2.568 0-4.662-2.036-4.662-4.532S5.86 2.973 8.428 2.973s4.663 2.035 4.663 4.531c0 2.496-2.095 4.532-4.663 4.532zm0-7.77c-1.837 0-3.333 1.453-3.333 3.238s1.496 3.24 3.333 3.24c1.837 0 3.333-1.455 3.333-3.24 0-1.785-1.496-3.239-3.333-3.239z" fill="#0085FF"/></svg>