<svg width="16" height="19" viewBox="0 0 16 19" fill="none" xmlns="http://www.w3.org/2000/svg"><path d="M2.59 19c-.37 0-.74-.349-.74-.697V6.45C1.85 2.876 4.902 0 8.694 0c3.791 0 6.843 2.876 6.843 6.45 0 .348-.37.697-.74.697s-.74-.349-.74-.697c0-2.79-2.404-5.056-5.363-5.056-2.96 0-5.365 2.267-5.365 5.056v11.853c0 .348-.37.697-.74.697z" fill="#000"/><path d="M15.26 19H.74c-.37 0-.74-.349-.74-.697 0-.349.37-.697.74-.697h13.78v-3.05c0-.35.37-.698.74-.698s.74.348.74.697v3.748c0 .348-.277.697-.74.697z" fill="#000"/><path d="M8.694 11.069H.74c-.37 0-.74-.349-.74-.697 0-.35.37-.698.74-.698h7.954c.37 0 .74.349.74.698 0 .348-.278.697-.74.697z" fill="#0085FF"/></svg>