<svg width="21" height="22" viewBox="0 0 21 22" fill="none" xmlns="http://www.w3.org/2000/svg"><path d="M10.454 22c-3.545 0-7-.629-10-1.706L0 20.114v-1.167c0-3.053 1.273-6.017 3.455-8.082a.72.72 0 011 0 .699.699 0 010 .988c-1.91 1.796-3 4.4-3 7.094v.09c2.727.987 5.818 1.436 9 1.436 3.181 0 6.363-.538 9-1.436v-.09c0-2.694-1.091-5.298-3-7.094a.699.699 0 010-.988.72.72 0 011 0c2.181 2.065 3.454 5.029 3.454 8.082v1.168l-.454.179C17.544 21.37 14.09 22 10.454 22z" fill="#000"/><path d="M10.454 12.122c-3.363 0-6.09-2.693-6.09-6.016C4.363 2.784 7.09 0 10.453 0c3.364 0 6.091 2.694 6.091 6.016 0 3.323-2.727 6.106-6.09 6.106zm0-10.685c-2.545 0-4.636 2.065-4.636 4.58 0 2.514 2.09 4.579 4.636 4.579 2.546 0 4.637-2.065 4.637-4.58.09-2.514-2-4.58-4.637-4.58z" fill="#0085FF"/><path d="M3.727 21.102s-.09 0 0 0A.712.712 0 013 20.384c0-.09.182-3.053.818-4.58.182-.359.546-.539.91-.359.363.18.545.539.363.898-.455 1.078-.636 3.322-.727 4.13 0 .36-.273.63-.637.63zm13.546 0c-.364 0-.727-.27-.727-.718 0-.808-.273-3.053-.728-4.13-.181-.36 0-.81.364-.899.364-.18.818 0 .91.36.636 1.526.817 4.49.817 4.579.091.449-.181.808-.636.808z" fill="#000"/><path d="M14.182 16.163h-1.455c-.363 0-.727-.359-.727-.718 0-.36.364-.718.727-.718h1.455c.364 0 .727.359.727.718 0 .36-.364.718-.727.718z" fill="#0085FF"/></svg>