<svg width="23" height="19" fill="none" xmlns="http://www.w3.org/2000/svg"><path d="M14.575 1.223c3.914 0 7.1 2.944 7.1 6.56 0 3.617-3.186 6.56-7.1 6.56h-2.889c-.405 0-.786.169-1.043.467l-1.696 1.988-.447-1.62c-.133-.483-.563-.834-1.093-.91-3.467-.475-6.083-3.258-6.083-6.485 0-3.616 3.187-6.56 7.101-6.56h6.15zm0-1.223H8.417C3.791 0 0 3.502 0 7.784c0 3.899 3.153 7.148 7.225 7.691l.894 3.227a.44.44 0 00.422.306.436.436 0 00.34-.153l2.805-3.288h2.889c4.634 0 8.425-3.502 8.425-7.784C23 3.503 19.21 0 14.575 0z" fill="#000"/><path d="M16.204 6.56h-9.94c-.364 0-.662-.276-.662-.612 0-.337.298-.612.662-.612h9.948c.364 0 .662.275.662.612 0 .336-.298.611-.67.611zm-4.701 3.945h-5.24c-.363 0-.661-.276-.661-.612 0-.337.298-.612.662-.612h5.239c.364 0 .662.275.662.612 0 .336-.298.612-.662.612z" fill="#0085FF"/></svg>