<svg width="22" height="15" viewBox="0 0 22 15" fill="none" xmlns="http://www.w3.org/2000/svg"><path d="M20.49 1.202a.28.28 0 0 1 .282.278v12.04a.28.28 0 0 1-.282.278H1.503a.284.284 0 0 1-.282-.278V1.48a.28.28 0 0 1 .282-.278H20.49zm0-1.202H1.503A1.49 1.49 0 0 0 0 1.48v12.04C0 14.34.671 15 1.503 15H20.49a1.49 1.49 0 0 0 1.502-1.48V1.48C22 .66 21.322 0 20.49 0z" fill="#000"/><path d="M21.35 4.387H.754V6.64H21.35V4.387z" fill="#000"/><path d="M6.078 12.507H2.95a.607.607 0 0 1-.61-.601c0-.33.274-.601.61-.601h3.128c.335 0 .61.27.61.6a.608.608 0 0 1-.61.602zm3.322 0H8.27a.607.607 0 0 1-.61-.601c0-.33.275-.601.61-.601H9.4c.335 0 .61.27.61.6a.608.608 0 0 1-.61.602z" fill="#0085FF"/></svg>