<svg width="43" height="57" viewBox="0 0 43 57" fill="none" xmlns="http://www.w3.org/2000/svg"><path d="M41.586 21.34c0 17.409-20.086 33.695-20.086 33.695S1.414 38.187 1.414 21.34c0-10.95 9.053-19.936 20.086-19.936 11.033 0 20.086 8.985 20.086 19.936z" fill="#0085FF"/><path d="M21.5 57l-.849-.842C19.803 55.596 0 38.748 0 21.34 0 9.547 9.618 0 21.5 0S43 9.547 43 21.34c0 17.69-19.803 34.256-20.651 34.818L21.5 57zm0-54.192c-10.184 0-18.671 8.424-18.671 18.532 0 14.04 14.993 28.36 18.671 32.01 3.96-3.37 18.671-17.69 18.671-32.01 0-10.108-8.204-18.532-18.671-18.532z" fill="#0968C0"/><path d="M28.572 21.901c0 3.932-3.111 7.02-7.072 7.02-3.96 0-7.072-3.088-7.072-7.02 0-3.93 3.111-7.02 7.072-7.02 3.96 0 7.072 3.09 7.072 7.02z" fill="#fff"/></svg>