<svg width="58" height="47" fill="none" xmlns="http://www.w3.org/2000/svg"><path d="M33.971 45.601H5.524c-2.21 0-4.143-1.958-4.143-4.196 0-2.238 1.933-4.197 4.143-4.197H33.97c2.21 0 4.143 1.959 4.143 4.197S36.181 45.6 33.971 45.6z" fill="#0085FF"/><path d="M33.971 47H5.524C2.486 47 0 44.482 0 41.405c0-3.078 2.486-5.595 5.524-5.595H33.97c3.039 0 5.524 2.517 5.524 5.595 0 3.077-2.485 5.595-5.524 5.595zM5.524 38.607c-1.381 0-2.762 1.12-2.762 2.798s1.105 2.797 2.762 2.797H33.97c1.381 0 2.762-1.119 2.762-2.797 0-1.679-1.104-2.798-2.762-2.798H5.524z" fill="#0968C0"/><path d="M52.476 45.601h-3.59c-2.21 0-4.143-1.958-4.143-4.196 0-2.238 1.933-4.197 4.142-4.197h3.591c2.21 0 4.143 1.959 4.143 4.197S54.685 45.6 52.476 45.6z" fill="#0085FF"/><path d="M52.476 47h-3.59c-3.039 0-5.524-2.518-5.524-5.595 0-3.078 2.485-5.595 5.524-5.595h3.59c3.038 0 5.524 2.517 5.524 5.595C58 44.482 55.514 47 52.476 47zm-3.59-8.393c-1.381 0-2.762 1.12-2.762 2.798s1.104 2.797 2.762 2.797h3.59c1.381 0 2.762-1.119 2.762-2.797 0-1.679-1.105-2.798-2.762-2.798h-3.59z" fill="#0968C0"/><path d="M37.286 27.696H5.524c-2.21 0-4.143-1.958-4.143-4.196 0-2.238 1.933-4.196 4.143-4.196h31.762c2.21 0 4.142 1.958 4.142 4.196 0 2.238-1.933 4.196-4.142 4.196z" fill="#fff"/><path d="M37.286 29.095H5.524C2.486 29.095 0 26.577 0 23.5s2.486-5.595 5.524-5.595h31.762c3.038 0 5.523 2.518 5.523 5.595s-2.485 5.595-5.523 5.595zM5.524 20.702c-1.381 0-2.762 1.12-2.762 2.798 0 1.399 1.105 2.798 2.762 2.798h31.762c1.38 0 2.762-1.12 2.762-2.798 0-1.399-1.105-2.798-2.762-2.798H5.524z" fill="#0968C0"/><path d="M52.476 9.792H5.524c-2.21 0-4.143-1.959-4.143-4.197S3.314 1.4 5.524 1.4h46.952c2.21 0 4.143 1.958 4.143 4.196 0 2.238-1.933 4.197-4.143 4.197z" fill="#0085FF"/><path d="M52.476 11.19H5.524C2.486 11.19 0 8.674 0 5.596 0 2.518 2.486 0 5.524 0h46.952C55.514 0 58 2.518 58 5.595c0 3.078-2.486 5.596-5.524 5.596zM5.524 2.799c-1.657 0-2.762 1.119-2.762 2.797 0 1.679 1.105 2.798 2.762 2.798h46.952c1.381 0 2.762-1.12 2.762-2.798s-1.105-2.797-2.762-2.797H5.524z" fill="#0968C0"/></svg>