<svg width="55" height="43" fill="none" xmlns="http://www.w3.org/2000/svg"><path d="M49.558 41.557H5.443c-2.292 0-4.01-1.732-4.01-4.04V8.657c0-2.308 1.718-4.04 4.01-4.04h44.115c2.291 0 4.01 1.732 4.01 4.04v28.86c0 2.308-2.005 4.04-4.01 4.04z" fill="#0085FF"/><path d="M49.557 43H5.443C2.578 43 0 40.403 0 37.517V8.657c0-3.174 2.578-5.771 5.443-5.771h44.114C52.422 2.886 55 5.483 55 8.369v28.86C55 40.402 52.422 43 49.557 43zM5.443 5.772a2.577 2.577 0 00-2.578 2.597v28.86a2.577 2.577 0 002.578 2.596h44.114a2.577 2.577 0 002.578-2.597V8.37a2.577 2.577 0 00-2.578-2.597H5.443z" fill="#0968C0"/><path d="M28.647 35.497c6.803 0 12.318-5.556 12.318-12.41 0-6.853-5.515-12.41-12.318-12.41s-12.318 5.557-12.318 12.41c0 6.854 5.515 12.41 12.318 12.41z" fill="#fff"/><path d="M28.646 36.651c-7.447 0-13.75-6.06-13.75-13.852 0-7.792 6.303-13.564 13.75-13.564 7.448 0 13.75 6.06 13.75 13.852 0 7.792-6.302 13.564-13.75 13.564zm0-24.53c-6.015 0-10.885 4.906-10.885 10.966s4.87 10.967 10.886 10.967c6.015 0 10.598-5.195 10.598-10.967 0-5.771-4.583-10.966-10.598-10.966zm18.906 1.154h-3.724c-.86 0-1.433-.577-1.433-1.443 0-.866.573-1.443 1.433-1.443h3.724c.86 0 1.432.578 1.432 1.443 0 .866-.86 1.443-1.432 1.443zM10.886 37.228H7.162c-.86 0-1.433-.577-1.433-1.443 0-.865.573-1.443 1.433-1.443h3.724c.86 0 1.432.578 1.432 1.443 0 .866-.573 1.443-1.432 1.443zM9.453 4.906c-.86 0-1.432-.577-1.432-1.443v-2.02C8.02.577 8.88 0 9.453 0s1.432.577 1.432 1.443v2.02c0 .866-.573 1.443-1.432 1.443z" fill="#0968C0"/></svg>