<svg width="141" height="169" viewBox="0 0 141 169" fill="none" xmlns="http://www.w3.org/2000/svg"><path d="M141 64.307v12.159l-69.99 54.287L0 75.609V64.307h141zm0-.001v-8.05c0-2.568-1.192-5.137-3.236-6.678L76.12 1.798c-3.066-2.397-7.153-2.397-10.218 0L3.236 50.434C1.192 51.975 0 54.374 0 57.114v7.192h141z" fill="#0085FF"/><path d="M119.714 136.061H21.286c-1.021 0-1.873-.856-1.873-1.884V60.538c0-1.027.852-1.884 1.873-1.884h98.428c1.022 0 1.873.857 1.873 1.884v73.639c-.17 1.028-1.022 1.884-1.873 1.884z" fill="#D1DFE8"/><path d="M71.01 130.753L0 75.609v85.285c0 3.939 3.236 7.192 7.152 7.192h126.696c3.916 0 7.152-3.253 7.152-7.192V76.466l-69.99 54.287z" fill="#fff"/></svg>