<svg xmlns="http://www.w3.org/2000/svg" viewBox="0 0 24.45 23.6"><path d="M7.7 23.6a.46.46 0 01-.23-.05.6.6 0 01-.37-.55v-3.42A7.7 7.7 0 017.7 4.2h7.2a.6.6 0 010 1.2H7.7a6.5 6.5 0 000 13 .6.6 0 01.6.6v2.55l3-3a.56.56 0 01.42-.18H15a6.69 6.69 0 006.33-4.68.6.6 0 011.14.36A7.89 7.89 0 0115 19.6h-3l-3.88 3.82a.56.56 0 01-.42.18z"/><path d="M15.27 15h-.15a.64.64 0 01-.27-.11l-2.4-1.7a.61.61 0 01-.15-.83l1.7-2.5a.62.62 0 01.82-.17l.8.5a1 1 0 001.32-.19l3.37-4.77A1 1 0 0020.16 4l-.73-.36a.61.61 0 01-.31-.39.65.65 0 01.08-.49l1.7-2.5a.66.66 0 01.4-.26.58.58 0 01.46.11l2.3 1.7a.69.69 0 01.16.18c.13.23 1.18 2.39-2.63 7.84-3.4 4.8-5.69 5.17-6.32 5.17zm-1.64-2.45l1.76 1.25c.45-.07 2.32-.57 5.22-4.64s2.7-6.05 2.59-6.48l-1.65-1.23-1 1.42.19.09.11.08A2.15 2.15 0 0121.29 6l-3.4 4.8a2.16 2.16 0 01-2.94.44l-.28-.24z" fill="#0085ff"/></svg>