<svg xmlns="http://www.w3.org/2000/svg" viewBox="0 0 22.3 17.78"><path d="M4.85 16.38a.66.66 0 01-.65-.66v-15a.65.65 0 111.3 0v15a.66.66 0 01-.65.66z"/><path d="M4.84 17.74L.19 13.08a.66.66 0 010-.92.66.66 0 01.92 0l3.74 3.75 3.75-3.65a.65.65 0 11.9.93z"/><path d="M17.45 17.78a.66.66 0 01-.65-.65V2a.65.65 0 011.3 0v15.13a.66.66 0 01-.65.65z" fill="#0085ff"/><path d="M13.25 5.87a.64.64 0 01-.46-1.1L17.44 0l4.67 4.67a.65.65 0 01-.92.91l-3.73-3.73-3.75 3.83a.62.62 0 01-.46.19z" fill="#0085ff"/></svg>