<svg xmlns="http://www.w3.org/2000/svg" viewBox="0 0 23.8 21.1"><path d="M21.25 4.2H7.35a.65.65 0 010-1.3h13.9a.65.65 0 110 1.3z"/><path d="M3.65 7.1A3.65 3.65 0 010 3.55 3.55 3.55 0 013.55 0 3.65 3.65 0 017.2 3.55 3.55 3.55 0 013.65 7.1zm-.1-5.8A2.25 2.25 0 001.3 3.55 2.33 2.33 0 003.65 5.8 2.25 2.25 0 005.9 3.55 2.33 2.33 0 003.55 1.3z" fill="#0085ff"/><path d="M21.25 18.2H7.35a.65.65 0 010-1.3h13.9a.65.65 0 110 1.3z"/><path d="M3.65 21.1a3.55 3.55 0 113.55-3.55 3.55 3.55 0 01-3.55 3.55zm0-5.8a2.25 2.25 0 102.25 2.25 2.25 2.25 0 00-2.25-2.25z" fill="#0085ff"/><path d="M16.55 11.4H2.65a.65.65 0 110-1.3h13.9a.65.65 0 110 1.3z"/><path d="M20.25 14.3a3.55 3.55 0 01-3.55-3.55 3.69 3.69 0 011.14-2.65 3.3 3.3 0 012.45-.9 3.55 3.55 0 010 7.1zm-.13-5.8a2 2 0 00-1.39.55 2.37 2.37 0 00-.73 1.7 2.25 2.25 0 102.25-2.25z" fill="#0085ff"/></svg>