<svg width="483" height="254" fill="none" xmlns="http://www.w3.org/2000/svg"><path fill="#F2F6F7" d="M0 0h483v254H0z"/><path d="M329 105.948v12.777l-86.766 57.046-88.033-57.946v-11.877H329z" fill="#0085FF"/><path d="M329 105.949v-8.458c0-2.7-1.478-5.399-4.012-7.018l-76.421-50.207c-3.8-2.52-8.867-2.52-12.667 0l-77.688 51.107c-2.533 1.62-4.011 4.139-4.011 7.018v7.558H329z" fill="#0085FF"/><path d="M302.611 181.35H180.59c-1.267 0-2.322-.9-2.322-1.979V101.99c0-1.079 1.055-1.979 2.322-1.979h122.021c1.266 0 2.322.9 2.322 1.979v77.381c-.211 1.079-1.267 1.979-2.322 1.979z" fill="#F2F2F2"/><path d="M242.234 175.771l-88.033-57.946v89.618c0 4.139 4.011 7.558 8.867 7.558h157.065c4.855 0 8.867-3.419 8.867-7.558v-88.718l-86.766 57.046z" fill="#fff"/></svg>