<svg width="23" height="12" viewBox="0 0 23 12" fill="none" xmlns="http://www.w3.org/2000/svg"><path d="M21.232 0H4.168C1.855 0 0 1.835 0 4.122v6.993h3.906c-.044-.194-.109-.367-.109-.583 0-1.1.895-1.985 2.008-1.985 1.112 0 2.007.885 2.007 1.985 0 .216-.065.389-.109.583h8.99c-.087-.194-.152-.367-.152-.583 0-1.1.895-1.985 2.007-1.985 1.113 0 2.008.885 2.008 1.985 0 .216-.066.389-.11.583h2.576V1.748A1.784 1.784 0 0 0 21.232 0zM5.412 7.165h-3.23V5.094h3.23v2.071zm0-3.194h-3.23V1.9h3.23v2.072zm4.19 3.194h-3.23V5.094h3.23v2.071zm0-3.194h-3.23V1.9h3.23v2.072zm4.19 3.194h-3.23V5.094h3.23v2.071zm0-3.194h-3.23V1.9h3.23v2.072zm4.189 3.194h-3.23V5.094h3.23v2.071zm0-3.194h-3.23V1.9h3.23v2.072zm4.168 3.194h-3.208V5.094h3.23v2.071h-.022zm0-3.194h-3.208V1.9h3.23v2.072h-.022z" fill="#D82C2C"/><path d="M5.804 12c.76 0 1.375-.608 1.375-1.359s-.615-1.36-1.375-1.36c-.759 0-1.374.609-1.374 1.36 0 .75.615 1.36 1.374 1.36zm14.141-1.359c0 .755-.61 1.36-1.374 1.36a1.362 1.362 0 0 1-1.375-1.36c0-.755.61-1.36 1.375-1.36.763 0 1.374.605 1.374 1.36z" fill="#181C28"/></svg>