<svg width="23" height="13" fill="none" xmlns="http://www.w3.org/2000/svg"><path d="M16.573 1.648c.39-.447.299-1.078-.206-1.424-.505-.346-1.217-.285-1.607.163L9.136 6.816l-.895-1.018c-.39-.447-1.125-.529-1.607-.183-.505.346-.597.997-.206 1.424l1.24 1.424-1.63 1.872-3.995-4.537C1.653 5.351.92 5.27.437 5.615c-.505.346-.597.977-.207 1.424l4.89 5.575c.022.02.068.04.091.06.046.041.069.082.115.123.023.02.069 0 .092.02.183.102.39.183.62.183.229 0 .435-.06.62-.183.022-.02.068 0 .09-.02.047-.04.07-.082.116-.122l.069-.061 9.64-10.966zM22.54.224c-.506-.346-1.217-.264-1.607.183l-8.677 9.887-.115-.122c-.367-.447-1.102-.57-1.607-.223-.505.325-.642.956-.252 1.424l1.01 1.24c.023 0 .046.021.092.041.046.041.069.102.137.143.023.02.046 0 .07.02.183.122.39.183.619.183.207 0 .413-.06.597-.163.023-.02.046 0 .069-.02.069-.04.091-.081.137-.142.046-.02.07-.041.115-.061l9.64-10.966c.368-.447.276-1.078-.229-1.424z" fill="#0085FF"/></svg>