<svg width="17" height="15" viewBox="0 0 17 15" fill="none" xmlns="http://www.w3.org/2000/svg"><path d="M14.655 15H1.612C.732 15 0 14.263 0 13.307V1.838C0 .882.733.146 1.612.146h9.233c.293 0 .586.295.586.589s-.293.588-.586.588H1.612c-.22 0-.44.22-.44.515v11.47c0 .294.22.515.44.515h13.043c.22 0 .44-.22.44-.515V6.544c0-.295.293-.589.586-.589s.586.294.586.589v6.764c0 .956-.732 1.691-1.612 1.691z" fill="#000"/><path d="M14.8 3.014c-.659.735-1.318 1.397-1.978 2.132-.66.662-1.319 1.397-2.051 2.06-.66.66-1.393 1.323-2.052 1.984-.733.662-1.319 1.397-2.491 1.618h-.074c.22-1.176.953-1.765 1.612-2.5a53.34 53.34 0 011.979-2.059c.66-.662 1.319-1.397 2.052-2.059.659-.661 1.392-1.323 2.124-1.985.22-.22.587-.22.807.074.293.22.293.514.073.735zm.808-1.029c-.146 0-.293-.074-.44-.147a.578.578 0 010-.809l.807-.809c.22-.22.586-.22.806 0 .22.22.22.588 0 .809l-.806.809a.559.559 0 01-.367.147z" fill="#0085FF"/></svg>