<svg width="47" height="40" viewBox="0 0 47 40" fill="none" xmlns="http://www.w3.org/2000/svg"><g clip-path="url(#clip0)"><path d="M10.726 10.732H1.56C.78 10.732 0 9.952 0 9.17V1.56C0 .781.78 0 1.56 0h9.166c.975 0 1.56.78 1.56 1.561v7.61c0 .78-.585 1.56-1.56 1.56zM3.12 7.61h6.046V3.122H3.12V7.61z" fill="#0085FF"/><path d="M28.084 10.732h-9.166c-.78 0-1.56-.78-1.56-1.561V1.56c0-.78.78-1.561 1.56-1.561h9.166c.78 0 1.56.78 1.56 1.561v7.61c0 .78-.585 1.56-1.56 1.56zM20.478 7.61h6.045V3.122h-6.045V7.61zm24.963 3.122h-9.166c-.78 0-1.56-.78-1.56-1.561V1.56c0-.78.78-1.561 1.56-1.561h9.166c.78 0 1.56.78 1.56 1.561v7.61c0 .78-.585 1.56-1.56 1.56zM37.835 7.61h6.046V3.122h-6.046V7.61zM10.726 25.366H1.56c-.78 0-1.56-.78-1.56-1.56v-7.61c0-.78.78-1.561 1.56-1.561h9.166c.78 0 1.56.78 1.56 1.56v7.61c0 .781-.585 1.561-1.56 1.561zM3.12 22.244h6.046v-4.487H3.12v4.487zm24.964 3.122h-9.166c-.78 0-1.56-.78-1.56-1.56v-7.61c0-.78.78-1.561 1.56-1.561h9.166c.78 0 1.56.78 1.56 1.56v7.61c0 .781-.585 1.561-1.56 1.561zm-7.606-3.122h6.045v-4.487h-6.045v4.487zm24.963 3.122h-9.166c-.78 0-1.56-.78-1.56-1.56v-7.61c0-.78.78-1.561 1.56-1.561h9.166c.78 0 1.56.78 1.56 1.56v7.61c0 .781-.585 1.561-1.56 1.561zm-7.606-3.122h6.046v-4.487h-6.046v4.487zM10.726 40H1.56C.78 40 0 39.218 0 38.437v-7.61c0-.975.78-1.56 1.56-1.56h9.166c.78 0 1.56.78 1.56 1.56v7.61c0 .78-.585 1.561-1.56 1.561zM3.12 36.876h6.046V32.39H3.12v4.488zM28.084 40h-9.166c-.78 0-1.56-.781-1.56-1.562v-7.61c0-.78.78-1.56 1.56-1.56h9.166c.78 0 1.56.78 1.56 1.56v7.61c0 .78-.585 1.561-1.56 1.561zm-7.606-3.123h6.045V32.39h-6.045v4.488zM45.441 40h-9.166c-.78 0-1.56-.781-1.56-1.562v-7.61c0-.78.78-1.56 1.56-1.56h9.166c.78 0 1.56.78 1.56 1.56v7.61c0 .78-.585 1.561-1.56 1.561zm-7.606-3.123h6.046V32.39h-6.046v4.488z" fill="#000"/></g><defs><clipPath id="clip0"><path fill="#fff" d="M0 0h47v40H0z"/></clipPath></defs></svg>