<svg width="23" height="31" viewBox="0 0 23 31" fill="none" xmlns="http://www.w3.org/2000/svg"><path d="M23 11.521C23 21.505 11.5 31 11.5 31S0 21.26 0 11.521C0 5.151 5.14 0 11.5 0S23 5.15 23 11.521z" fill="#0085FF"/><path d="M22.5 11.521c0 4.817-2.785 9.573-5.642 13.173a45.607 45.607 0 0 1-5.196 5.505l-.158.14a42.003 42.003 0 0 1-1.45-1.368 47.804 47.804 0 0 1-3.911-4.367C3.283 20.97.5 16.214.5 11.52.5 5.426 5.418.5 11.5.5s11 4.926 11 11.021z" stroke="#1F1F1F" stroke-opacity=".28"/><circle cx="11.5" cy="10.5" r="4.5" fill="#fff"/></svg>