<svg width="20" height="17" viewBox="0 0 20 17" fill="none" xmlns="http://www.w3.org/2000/svg"><path d="M10.111 17c-4.622 0-8.385-3.815-8.385-8.5 0-4.686 3.763-8.5 8.385-8.5s8.385 3.807 8.385 8.5c-.007 4.685-3.762 8.5-8.385 8.5zm0-14.822c-3.444 0-6.244 2.838-6.244 6.33 0 3.491 2.8 6.33 6.244 6.33 3.445 0 6.245-2.839 6.245-6.33-.008-3.492-2.808-6.33-6.245-6.33z" fill="#DB2627"/><path d="M19.704 10.243H.296a.3.3 0 01-.296-.3V6.788a.3.3 0 01.296-.3h19.408a.3.3 0 01.296.3v3.16a.298.298 0 01-.296.294z" fill="#22439A"/></svg>