<svg width="40" height="40" viewBox="0 0 40 40" fill="none" xmlns="http://www.w3.org/2000/svg"><path d="M20 40C8.94 40 0 31.06 0 20S8.94 0 20 0s20 8.94 20 20-8.94 20-20 20z" fill="#24B6FF"/><path d="M29.076 10.474c-.587.136-1.22.407-1.58.542-2.032.632-4.019 1.535-6.05 2.303-2.122.812-4.199 1.625-6.32 2.438A360.121 360.121 0 008.76 18.24c-.316.135-.632.27-.903.496-.407.361-.362.723.09.993.18.136 6.32 2.393 7.404 1.716.18-.135 11.467-8.352 11.648-8.126.135.18-5.87 6.05-8.397 8.623-.633.632-.587 1.625.09 2.212 1.806 1.49 5.056 4.153 6.185 4.966.226.18.497.316.768.406.406.09.857-.045 1.128-.406.18-.27.226-.587.316-.858 1.039-4.966 2.122-9.977 3.16-14.943.136-.587.317-1.22.362-1.761.09-1.174-.723-1.264-1.535-1.084z" fill="#fff"/></svg>