<svg width="40" height="40" viewBox="0 0 40 40" fill="none" xmlns="http://www.w3.org/2000/svg"><path d="M20 40C8.94 40 0 31.06 0 20S8.94 0 20 0s20 8.94 20 20-8.94 20-20 20z" fill="#24B6FF"/><path d="M30.248 21.174c.045-.407.045-.768.045-1.174 0-5.689-4.65-10.339-10.338-10.339-.407 0-.813.045-1.174.045-1.038-.632-2.212-1.038-3.522-1.038a6.57 6.57 0 00-6.591 6.591c0 1.31.361 2.483 1.038 3.522-.045.406-.045.767-.045 1.174 0 5.688 4.65 10.338 10.339 10.338.406 0 .812-.045 1.174-.045 1.038.632 2.212 1.038 3.521 1.038a6.57 6.57 0 006.591-6.59 6.432 6.432 0 00-1.038-3.522zm-10.293 6.094c-3.115 0-4.74-1.805-5.553-3.34a1.18 1.18 0 01.045-1.22c.27-.45.812-.722 1.354-.722.587 0 1.084.271 1.355.723.406.722 1.354 1.896 2.799 1.896 1.715 0 2.528-.497 2.528-1.535 0-.677 0-1.4-3.025-2.032-2.573-.632-5.011-1.535-5.011-4.244 0-2.031 1.67-4.063 5.372-4.063 3.341 0 4.74 1.716 5.328 3.16.135.407.09.813-.136 1.174-.27.407-.767.677-1.31.677h-.044c-.632 0-1.22-.36-1.445-.857-.27-.632-.948-1.4-2.438-1.4-2.122 0-2.122.948-2.122 1.264 0 .542 0 .948 2.754 1.58 3.747.813 5.327 2.167 5.327 4.65 0 1.987-1.49 4.29-5.778 4.29z" fill="#fff"/></svg>