<svg width="574" height="496" fill="none" xmlns="http://www.w3.org/2000/svg"><path d="M164.451 164.753h-18.779v84.054h18.779v-84.054zm-67.057 0H86.947v84.054h10.447v-84.054zm93.165 40.947h-10.447v43.128h10.447V205.7z" fill="#D1DCE0"/><path d="M198.159 234.005h-10.427v-34.406l10.427-8.701v43.107zm-92.496-53.569H95.216v84.054h10.447v-84.054zm10.531-5.305h-8.039v80.133h8.039v-80.133z" fill="#D1DCE0"/><path d="M108.804 189.724h-8.039v80.133h8.039v-80.133zm71.308-6.018h-18.78v65.121h18.78v-65.121zm24.914 13.943h-6.867v51.179h6.867v-51.179z" fill="#D1DCE0"/><path d="M214.384 186.872h-10.342v51.179h10.342v-51.179zm-83.409 61.955h-18.779v-65.121h.9c9.882 0 17.9 8.03 17.9 17.926v47.195h-.021z" fill="#D1DCE0"/><path d="M145.672 248.828h-18.8V205.7h.9c9.882 0 17.9 8.03 17.9 17.926v25.202zm68.62-8.016h15.66V183.05h-15.66v57.762zm55.884 0h8.709V183.05h-8.709v57.762zm-77.65-.003h8.709v-29.626h-8.709v29.626z" fill="#D1DCE0"/><path d="M186.183 230.65h8.709V207l-8.709-5.996v29.646zm77.104 20.934h8.709v-57.762h-8.709v57.762zm-8.776-6.341h6.699v-55.057h-6.699v55.057z" fill="#D1DCE0"/><path d="M260.683 255.273h6.699v-55.057h-6.699v55.057zm-59.452-14.461h15.66v-44.743h-15.66v44.743zm-20.792-.005h5.736v-35.161h-5.736v35.161z" fill="#D1DCE0"/><path d="M172.669 233.414h8.625v-35.16h-8.625v35.16zm69.539 7.404h15.66v-44.742h-.754c-8.228 0-14.906 6.688-14.906 14.928v29.814z" fill="#D1DCE0"/><path d="M229.939 240.819h15.66v-29.626h-.754c-8.227 0-14.906 6.689-14.906 14.928v14.698zm129.782-70.908h-20.643v84.054h20.643v-84.054zm-73.715 0h-11.473v84.054h11.473v-84.054zm102.418 40.947h-11.473v43.128h11.473v-43.128z" fill="#D1DCE0"/><path d="M396.778 239.163h-11.473v-34.405l11.473-8.701v43.106zm-101.686-53.569h-11.473v84.054h11.473v-84.054zm11.598-5.305h-8.835v80.133h8.835v-80.133z" fill="#D1DCE0"/><path d="M298.546 194.882h-8.835v80.133h8.835v-80.133zm78.384-6.018h-20.642v65.122h20.642v-65.122zm27.405 13.944h-7.558v51.178h7.558v-51.178z" fill="#D1DCE0"/><path d="M414.615 192.03h-11.368v51.179h11.368V192.03zm-91.699 61.956h-20.643v-65.122h2.763c9.882 0 17.901 8.03 17.901 17.926v47.196h-.021z" fill="#D1DCE0"/><path d="M339.078 253.986h-20.642v-43.128h2.763c9.882 0 17.9 8.031 17.9 17.927v25.201h-.021zm75.424-8.013h17.209V188.21h-17.209v57.763zm61.447 0h9.568V188.21h-9.568v57.763zm-85.371-.004h9.568v-29.626h-9.568v29.626z" fill="#D1DCE0"/><path d="M383.609 235.808h9.568v-23.65l-9.568-5.996v29.646zm84.775 20.937h9.568v-57.762h-9.568v57.762zm-9.67-6.342h7.369v-55.057h-7.369v55.057z" fill="#D1DCE0"/><path d="M465.501 260.434h7.37v-55.058h-7.37v55.058zm-65.33-14.462h17.209V201.23h-17.209v44.742zm-22.862-.005h6.301v-35.161h-6.301v35.161z" fill="#D1DCE0"/><path d="M368.762 238.575h9.484v-35.16h-9.484v35.16zm76.419 7.401h17.21v-44.742h-2.303c-8.228 0-14.907 6.689-14.907 14.928v29.814z" fill="#D1DCE0"/><path d="M431.72 245.977h17.209v-29.625h-2.303c-8.228 0-14.906 6.688-14.906 14.928v14.697z" fill="#D1DCE0"/><path d="M478.972 238.555v-1.74h-15.074v-15.389h-20.727v17.129h-3.622v-36.377c0-5.723-4.647-10.378-10.363-10.378-5.715 0-10.363 4.655-10.363 10.378v30.863h-11.306v-42.688h-28.263v14.761l-9.903-10.106-20.098 20.526v8.345l-14.76-11.532-20.098 15.704v10.525h-57.323v-1.74l-44.803-34.972v-76.527h-51.377v71.411h-42.918v41.807H86.947v102.19h398.578v-102.19h-6.553z" fill="#B5C0C4"/><path d="M486.571 341.793H85.9v-302.9h400.65v302.9h.021zm-398.578-2.097h396.464V40.989H87.993v298.707z" fill="#231F20"/><path d="M87.512 287.343v-32.078h66.89v10.86h20.769v-6.898h86.758v28.116h66.828l156.768 30.192v23.209H86.947v-53.401h.565z" fill="#424A4C"/><path d="M132.927 271.852h15.094v-28.955h-15.094v28.955zm-11.019-3.256h6.532V247.86h-6.532v20.736zM98.19 251.113h5.945a3.062 3.062 0 003.057-3.061v-.314a3.063 3.063 0 00-3.057-3.061h-5.946a3.063 3.063 0 00-3.056 3.061v.314a3.049 3.049 0 003.056 3.061z" fill="#424A4C"/><path d="M98.443 256.11h5.443v-6.541h-5.443v6.541z" fill="#424A4C"/><path d="M187.648 39.94h-2.093v300.804h2.093V39.94zm99.635 0h-2.094v300.804h2.094V39.94zm99.634 0h-2.094v300.804h2.094V39.94z" fill="#231F20"/><path d="M154.633 194.693s22.359-16.543 28.724-19.436l-4.69-24.468s-23.365 6.395-40.218 40.717c-1.172 4.507 3.999 15.62 25.123 30.757 2.198 1.573 4.208 2.453 6.051 2.747-13.211-18.954-14.99-30.317-14.99-30.317z" fill="#fff"/><path d="M171.884 226.436l-2.45-.399c-2.072-.335-4.25-1.321-6.49-2.935-21.04-15.096-26.903-26.606-25.521-31.869l.084-.189c16.874-34.342 39.925-41.01 40.888-41.261l1.088-.294 5.067 26.397-.754.335c-5.631 2.558-24.537 16.396-27.991 18.933.586 2.579 3.517 13.23 14.676 29.269l1.403 2.013zm-32.472-34.574c-.816 3.564 3.308 14.173 24.746 29.542.984.713 1.947 1.279 2.89 1.698-11.641-17.423-13.379-27.801-13.462-28.242l-.105-.629.503-.377c.879-.65 20.998-15.515 28.158-19.184l-4.312-22.497c-4.711 1.761-24.035 10.483-38.418 39.689z" fill="#231F20"/><path d="M168.514 308.184c-1.361 21.91-4.208 46.86-9.694 72.061h7.495c8.668-11.678 33.875-44.972 34.942-84.305 10.217 18.995 26.652 43.945 36.785 84.305h7.16c4.02-69.251-7.516-125.86-11.075-141.313v-12.223h-68.251v13.46c-1.78 6.123-3.287 16.27-2.052 32.288 1.445 19.059 3.454 26.649 4.69 35.727z" fill="#fff"/><path d="M246.186 381.293h-8.961l-.209-.797c-8.479-33.713-21.125-56.252-31.3-74.346a954.376 954.376 0 01-3.601-6.437c-2.449 37.404-25.646 68.623-34.565 80.616l-.712.964h-9.316l.272-1.279c4.836-22.245 8.081-46.398 9.673-71.809-.356-2.579-.775-5.053-1.215-7.695-1.13-6.751-2.428-14.404-3.475-27.969-1.256-16.522.398-26.795 2.052-32.519V225.66h70.344v13.146c3.643 15.872 15.074 72.397 11.075 141.502l-.062.985zm-7.328-2.097h5.36c3.831-68.538-7.516-124.477-11.096-140.034l-.021-.23v-11.175h-66.158l-.042 12.705c-1.612 5.535-3.266 15.578-2.01 31.932 1.026 13.481 2.324 21.071 3.455 27.78.46 2.705.879 5.221 1.235 7.863l.021.105v.104c-1.549 25.076-4.732 48.936-9.442 70.95h5.674l.083-.125c9.107-12.245 33.288-44.763 34.335-83.174l.105-3.92 1.863 3.459a544.613 544.613 0 005.381 9.686c10.091 18.073 22.715 40.528 31.257 74.074z" fill="#231F20"/><path d="M216.289 153.557s-3.852-.733-4.48-8.365c0 0 8.395-5.326 8.981-22.916.502-15.096-6.364-22.875-18.738-22.875-12.373 0-21.501 10.966-21.501 24.279 0 4.969 1.173 11.112 2.303 14.635.021.042.021.084.042.126 1.633 5.262-1.068 10.86-5.946 13.439-11.431 6.059-17.837 14.299-17.837 29.521 0 6.751.942 13.229 3.329 18.492 2.135 4.717 3.433 9.749 3.433 14.907v11.909h68.607s-6.783-12.811 1.047-49.292c3.098-14.362-3.769-18.094-19.24-23.86z" fill="#fff"/><path d="M234.482 227.757h-69.654V214.8c0-4.718-1.13-9.603-3.35-14.467-2.282-5.011-3.433-11.364-3.433-18.932 0-14.509 5.506-23.609 18.403-30.444 4.585-2.432 6.867-7.568 5.422-12.202-1.214-3.753-2.387-10.064-2.387-15.096 0-14.194 9.903-25.327 22.548-25.327 6.051 0 10.845 1.782 14.237 5.284 3.957 4.109 5.841 10.378 5.569 18.66-.503 15.41-6.951 21.784-8.919 23.377.67 6.08 3.475 6.835 3.601 6.856l.146.042c14.949 5.577 23.26 9.477 19.911 25.076-7.621 35.517-1.215 48.453-1.152 48.579l.796 1.53-1.738.021zm-67.56-2.097h66.011c-1.529-4.382-4.837-18.534 1.591-48.474 2.847-13.292-2.806-16.794-18.528-22.643-.733-.189-4.585-1.594-5.214-9.288l-.062-.587.523-.357c.817-.566 7.977-5.933 8.5-22.077.251-7.695-1.424-13.461-4.983-17.13-2.973-3.082-7.264-4.654-12.729-4.654-11.473 0-20.454 10.21-20.454 23.23 0 4.802 1.13 10.84 2.24 14.32 1.78 5.745-.921 11.909-6.406 14.823-12.122 6.416-17.293 14.97-17.293 28.599 0 7.254 1.088 13.334 3.245 18.051 2.344 5.158 3.538 10.316 3.538 15.348v10.839h.021z" fill="#231F20"/><path d="M187.314 251.616c-1.738 14.677 4.668 27.068 13.922 44.323l-13.922-44.323z" fill="#fff"/><path d="M200.315 296.443c-9.84-18.325-15.786-30.276-14.048-44.931l2.072.251c-1.674 14.027 4.167 25.747 13.818 43.694l-1.842.986zm56.338 83.655l-10.342-5.451-10.74-.273 1.779 7.233h18.926c.796.021 1.089-1.09.377-1.509zm-85.125.147l-2.178-5.326-9.881-.419-1.571 7.129 13.399.146c.482-.021.649-1.111.231-1.53zm62.975-147.77h-68.628v2.096h68.628v-2.096z" fill="#231F20"/><path d="M168.911 243.607s5.339-.608 11.682 0h-11.682z" fill="#fff"/><path d="M180.509 244.655c-6.155-.587-11.41 0-11.473 0l-.23-2.075c.23-.021 5.527-.608 11.913 0l-.21 2.075z" fill="#231F20"/><path d="M196.881 243.482s8.521-1.3 18.55 0h-18.55z" fill="#fff"/><path d="M215.305 244.509c-9.756-1.258-18.172-.021-18.256 0l-.314-2.076c.356-.063 8.772-1.321 18.842 0l-.272 2.076z" fill="#231F20"/><path d="M182.142 146.156s14.802-4.508 30.902 4.025l-30.902-4.025z" fill="#fff"/><path d="M212.562 151.104c-15.492-8.219-29.959-3.984-30.106-3.942l-.607-2.013c.628-.188 15.388-4.528 31.697 4.089l-.984 1.866z" fill="#231F20"/><path d="M261.72 193.016c-8.332-22.853-29.373-35.391-39.736-35.831-4.732-.21-11.285 5.262-11.934 11.552-1.026 9.77 5.276 12.601 13.232 15.033 4.731 1.447 21.836 7.967 22.296 15.012.231 3.627-1.298 11.51-11.807 23.776-.126-.021-4.041-.839-4.292.209-.272 1.09 3.81 1.908 4.166 3.061 22.653-11.678 28.975-28.786 28.075-32.812z" fill="#fff"/><path d="M233.017 227.317l-.377-1.195c-.147-.147-1.047-.587-1.591-.839-1.382-.65-2.952-1.384-2.596-2.788.314-1.279 1.8-1.615 4.899-1.091 10.572-12.495 11.347-19.939 11.159-22.58-.377-5.745-14.97-12.077-21.564-14.09-7.998-2.432-15.074-5.493-13.965-16.144.733-6.981 7.768-12.684 13.023-12.496 11.368.483 32.387 13.775 40.678 36.524l.042.126c1.109 4.906-5.778 22.203-28.62 33.965l-1.088.608zm-1.235-3.984a.638.638 0 01.167.084c.733.336 1.445.671 1.968 1.09 21.02-11.133 27.573-27.361 26.798-31.197-8.27-22.623-29.31-34.679-38.773-35.077-4.229-.273-10.259 4.927-10.845 10.609-.942 9.078 4.836 11.573 12.499 13.922.23.062 22.464 7.065 23.029 15.955.23 3.627-1.026 11.636-12.059 24.531l-.377.44-.565-.063a15.25 15.25 0 00-1.842-.294z" fill="#231F20"/><path d="M213.379 91.937c-1.403-.147-2.785-.65-3.852-1.572-2.22-1.908-5.779-3.145-9.819-3.145-5.255 0-9.715 2.096-11.431 5.053a15.444 15.444 0 00-4.564 2.662c-5.339 4.487-2.869 7.968-6.721 11.595-3.852 3.627-2.24 10.63-.125 16.186-4.083 3.857 2.135 16.689 7.495 13.796 5.338-2.894 17.816 3.627 19.868-2.684.753-2.285.544-8.89.439-10.756-.314-6.709-2.03-9.477.294-10.923 4.124-3.481 6.532 10.986 6.532 10.986s2.617-1.761 2.805-5.011c.146-2.411-1.361-9.791 1.989-11.951 3.643-2.054 5.736-7.778 6.678-11.196.356-1.258-.586-2.516-1.884-2.516-1.549 0-3.978-.126-7.704-.524z" fill="#0085FF"/><path d="M211.955 146.533s-.879-2.788-1.151-5.996l1.151 5.996z" fill="#fff"/><path d="M210.971 146.848c-.042-.125-.921-2.935-1.193-6.227l2.093-.188c.273 3.061 1.11 5.744 1.11 5.765l-2.01.65z" fill="#231F20"/><path d="M237.33 381.629l-134.995 100.24 68.942-99.968-13.378-.272L0 478.053l95.196 9.12-.42.315L168.912 496l87.345-114.371H237.33z" fill="url(#paint0_linear)"/><path d="M224.266 489.039c1.005-1.992 101.685-133.22 101.685-133.22l11.724-2.453-39.129 133.933-74.28 1.74z" fill="url(#paint1_linear)"/><path d="M438.859 89.274c-23.323 1.112-24.244 28.389-24.244 28.389h48.487c-.021-.021-.921-27.277-24.243-28.389z" fill="#231F20"/><path d="M333.991 264.28h-7.432v94.118h7.432l3.706-5.032V264.28h-3.706z" fill="#B5C0C4"/><path d="M334.514 359.446h-9.002v-96.193h13.231v90.47l-4.229 5.723zm-6.909-2.096h5.862l3.204-4.319V265.35h-9.045v92h-.021z" fill="#231F20"/><path d="M335.037 264.28h-2.093v94.097h2.093V264.28z" fill="#231F20"/><path d="M439.906 0h-2.094v89.275h2.094V0z" fill="url(#paint2_linear)"/><path d="M547.077 264.28h7.432v94.118h-7.432l-3.706-5.032V264.28h3.706z" fill="#B5C0C4"/><path d="M555.556 359.446h-9.003l-4.229-5.723v-90.47h13.232v96.193zm-7.935-2.096h5.862v-92h-9.044v87.681l3.182 4.319z" fill="#231F20"/><path d="M548.123 264.28h-2.093v94.097h2.093V264.28z" fill="#231F20"/><path d="M548.689 258.221H331.144l-23.428 8.638v8.638h265.237v-8.638l-24.264-8.638z" fill="#fff"/><path d="M574 276.546H306.669v-10.421l24.475-8.952h217.733L574 266.125v10.421zm-265.237-2.097h263.144v-6.856l-23.386-8.324H331.332l-22.569 8.324v6.856z" fill="#231F20"/><path d="M572.953 265.811H307.716v2.096h265.237v-2.096z" fill="#231F20"/><path d="M323.23 275.497h-7.956v100.764h7.956l3.977-5.388v-95.376h-3.977z" fill="#fff"/><path d="M323.753 377.31h-9.526V274.449h14.027v96.781l-4.501 6.08zm-7.432-2.097h6.385l3.454-4.675v-93.992h-9.839v98.667z" fill="#231F20"/><path d="M324.276 275.497h-2.093v100.764h2.093V275.497z" fill="#231F20"/><path d="M555.953 275.497h7.956v100.764h-7.956l-3.977-5.388v-95.376h3.977z" fill="#fff"/><path d="M564.956 377.31h-9.526l-4.501-6.08v-96.781h14.027V377.31zm-8.479-2.097h6.385v-98.667h-9.84v93.992l3.455 4.675z" fill="#231F20"/><path d="M557 275.497h-2.094v100.764H557V275.497z" fill="#231F20"/><path d="M400.462 231.887h-21.229v30.527h21.229v-30.527z" fill="#fff"/><path d="M401.509 263.462h-23.322v-32.623h23.322v32.623zm-21.229-2.096h19.136v-28.431H380.28v28.431z" fill="#231F20"/><path d="M409.465 261.366H370.21v2.097h39.255v-2.097z" fill="#231F20"/><path d="M433.352 196.056h-87.009v54.03h87.009v-54.03z" fill="#424A4C"/><path d="M434.399 251.135h-89.103v-56.127h89.103v56.127zm-87.01-2.097h84.917v-51.934h-84.917v51.934z" fill="#231F20"/><defs><linearGradient id="paint0_linear" x1="148.346" y1="367.827" x2="116.048" y2="466.621" gradientUnits="userSpaceOnUse"><stop stop-color="#B5C0C4"/><stop offset="1" stop-color="#B5C0C4" stop-opacity="0"/></linearGradient><linearGradient id="paint1_linear" x1="302.406" y1="362.423" x2="271.445" y2="457.124" gradientUnits="userSpaceOnUse"><stop stop-color="#C4CDD0"/><stop offset="1" stop-color="#C4CDD0" stop-opacity="0"/></linearGradient><linearGradient id="paint2_linear" x1="438.85" y1="89.267" x2="438.85" y2="0" gradientUnits="userSpaceOnUse"><stop offset=".654" stop-color="#231F20"/><stop offset="1" stop-color="#fff"/></linearGradient></defs></svg>