<svg width="27" height="24" viewBox="0 0 27 24" fill="none" xmlns="http://www.w3.org/2000/svg"><g clip-path="url(#clip0)" fill="#fff"><path d="M13.35 1.6c.02 0 .04 0 .06.01l4.82 1.45a3.48 3.48 0 001.88.02l3.77-1.03c.02-.01.04-.01.06-.01.08 0 .19.06.2.19l.97 17.88c.01.1-.06.18-.15.21l-5.15 1.28c-.02 0-.04 0-.05-.01l-5.49-1.5c-.29-.08-.59-.12-.9-.12-.3 0-.6.04-.9.12l-5.49 1.5h-.1l-5.1-1.28c-.12-.01-.18-.09-.18-.19l.97-17.88c.01-.13.12-.19.2-.19.02 0 .04 0 .06.01L6.6 3.09c.28.07.58.11.89.11.33 0 .66-.05.98-.14l4.82-1.45c.02-.01.04-.01.06-.01zm0-1.6c-.18 0-.35.03-.52.08L8.01 1.52c-.17.05-.35.08-.52.08-.16 0-.32-.02-.47-.06L3.24.51C3.08.46 2.92.44 2.77.44c-.93 0-1.74.73-1.8 1.71L0 20.03c-.05.86.53 1.64 1.36 1.85l5.1 1.28c.14.04.29.05.44.05.16 0 .32-.02.47-.06l5.49-1.5a1.893 1.893 0 01.94 0l5.49 1.5a1.893 1.893 0 00.91.01l5.1-1.28c.84-.21 1.41-.98 1.36-1.85l-.93-17.88c-.05-.98-.87-1.71-1.8-1.71-.16 0-.32.02-.48.06l-3.77 1.03c-.16.04-.31.06-.47.06-.17 0-.35-.03-.52-.08L13.87.06a3.07 3.07 0 00-.52-.06z"/><path d="M13.35 7.65c1.39 0 2.52 1.13 2.52 2.52 0 1.69-1.39 3.56-2.51 4.75-1.12-1.21-2.54-3.11-2.54-4.75a2.53 2.53 0 012.53-2.52zm0-1.6a4.12 4.12 0 00-4.12 4.12c0 3.48 4.12 6.97 4.12 6.97s4.12-3.4 4.12-6.97c0-2.28-1.84-4.12-4.12-4.12z"/></g><defs><clipPath id="clip0"><path fill="#fff" d="M0 0h26.7v23.21H0z"/></clipPath></defs></svg>