<svg width="16" height="17" viewBox="0 0 16 17" fill="none" xmlns="http://www.w3.org/2000/svg"><path d="M3.435 2.304H3a2 2 0 00-2 2V14a2 2 0 002 2h10a2 2 0 002-2V4.304a2 2 0 00-2-2h-.435" stroke="#0085FF" stroke-linecap="round" stroke-linejoin="round"/><path d="M5.26 1H3.436v2.609H5.26V1zm7.305 0H10.74v2.609h1.826V1zM5.26 2.304h5.48M1 5.565h14" stroke="#0085FF" stroke-linecap="round" stroke-linejoin="round"/><circle cx="4" cy="9" r="1" fill="#0085FF"/><circle cx="8" cy="9" r="1" fill="#0085FF"/><circle cx="12" cy="9" r="1" fill="#0085FF"/><circle cx="4" cy="12" r="1" fill="#0085FF"/><circle cx="8" cy="12" r="1" fill="#0085FF"/><circle cx="12" cy="12" r="1" fill="#0085FF"/></svg>