<?xml version="1.0" standalone="no"?>
<!DOCTYPE svg PUBLIC "-//W3C//DTD SVG 1.1//EN" "http://www.w3.org/Graphics/SVG/1.1/DTD/svg11.dtd" >
<svg xmlns="http://www.w3.org/2000/svg" xmlns:xlink="http://www.w3.org/1999/xlink" version="1.1">
<metadata>
Created by FontForge 20170731 at Mon Nov 30 22:38:32 2015
 By Aleksey,,,
Copyright (c) 2015 by Mariya Pigoulevskaya. All rights reserved.
</metadata>
<defs>
<font id="Stolzl-Regular" horiz-adv-x="0" >
  <font-face 
    font-family="Stolzl"
    font-weight="400"
    font-stretch="normal"
    units-per-em="1000"
    panose-1="0 0 5 0 0 0 0 0 0 0"
    ascent="800"
    descent="-200"
    x-height="550"
    cap-height="700"
    bbox="-561 -262 1435 1055"
    underline-thickness="50"
    underline-position="-200"
    unicode-range="U+0020-25CA"
  />
<missing-glyph horiz-adv-x="510" 
d="M418 770v-1020h-323v1020h323zM340 702h-169v-34h67v-38h-68v-33h170v33h-68v38h68v34zM272 570h-102v-106h170v35h-68v71zM238 535v-36h-34v36h34zM340 436h-170v-33h68v-38h-68v-34h102v72h68v33zM340 375h-34v-67h-136v-35h170v102zM340 251h-102v-57h34v23h34v-48
h-102v82h-34v-115h170v115zM340 74h-170v-115h170v115zM306 41v-48h-102v48h102zM340 -64h-170v-34h72l-72 -48v-34h170v34h-104l71 48h33v34z" />
    <glyph glyph-name=".notdef" horiz-adv-x="510" 
d="M418 770v-1020h-323v1020h323zM340 702h-169v-34h67v-38h-68v-33h170v33h-68v38h68v34zM272 570h-102v-106h170v35h-68v71zM238 535v-36h-34v36h34zM340 436h-170v-33h68v-38h-68v-34h102v72h68v33zM340 375h-34v-67h-136v-35h170v102zM340 251h-102v-57h34v23h34v-48
h-102v82h-34v-115h170v115zM340 74h-170v-115h170v115zM306 41v-48h-102v48h102zM340 -64h-170v-34h72l-72 -48v-34h170v34h-104l71 48h33v34z" />
    <glyph glyph-name=".null" 
 />
    <glyph glyph-name="nonmarkingreturn" horiz-adv-x="333" 
 />
    <glyph glyph-name="space" unicode=" " horiz-adv-x="300" 
 />
    <glyph glyph-name="exclam" unicode="!" horiz-adv-x="310" 
d="M212 700v-252l-7 -228h-99l-8 228v252h114zM155 130q32 0 53 -20t21 -51t-21 -51t-53 -20t-52.5 20t-20.5 51t20.5 51t52.5 20z" />
    <glyph glyph-name="quotedbl" unicode="&#x22;" horiz-adv-x="467" 
d="M95 377l-13 204v119h113v-119l-14 -204h-86zM286 377l-13 204v119h113v-119l-14 -204h-86z" />
    <glyph glyph-name="numbersign" unicode="#" horiz-adv-x="931" 
d="M825 476h-149l-45 -168h150l-24 -92h-150l-57 -216h-104l57 216h-167l-57 -216h-104l57 216h-150l24 92h150l44 168h-150l25 92h149l54 202h104l-53 -202h166l54 202h104l-53 -202h150zM527 308l44 168h-166l-45 -168h167z" />
    <glyph glyph-name="dollar" unicode="$" horiz-adv-x="644" 
d="M603 201q0 -96 -64.5 -149t-158.5 -62v-114h-112v118q-102 17 -158 77.5t-69 145.5h114q16 -62 60.5 -92.5t125.5 -30.5q71 0 109.5 26.5t38.5 75.5q0 44 -36 62t-141 41q-7 1 -10 2q-58 13 -96 26t-74.5 35t-54 56.5t-17.5 81.5q0 89 59 143t151 66v115h113v-117
q93 -14 145 -67t66 -130h-114q-33 96 -162 96q-70 0 -107.5 -27.5t-37.5 -75.5q0 -36 32.5 -53.5t123.5 -37.5q74 -16 118.5 -30.5t83.5 -38.5t55.5 -58t16.5 -84z" />
    <glyph glyph-name="percent" unicode="%" horiz-adv-x="1085" 
d="M271 291q-86 0 -137.5 54.5t-51.5 155.5t51.5 156t137.5 55q85 0 137 -55.5t52 -155.5t-51.5 -155t-137.5 -55zM797 700l-400 -700h-109l400 700h109zM271 379q90 0 90 122t-90 122t-90 -122t90 -122zM815 409q86 0 137.5 -55t51.5 -155t-52 -155.5t-137 -55.5
q-86 0 -137.5 55t-51.5 156t51.5 155.5t137.5 54.5zM815 321q-91 0 -91 -122t91 -122q90 0 90 122t-90 122z" />
    <glyph glyph-name="ampersand" unicode="&#x26;" horiz-adv-x="721" 
d="M680 0h-143q-6 6 -24.5 25t-27.5 29q-89 -66 -204 -66q-105 0 -172.5 50t-67.5 144q0 63 35 104.5t111 87.5q-74 92 -74 162q0 83 57.5 129.5t139.5 46.5q81 0 135 -46t54 -124q0 -63 -38.5 -106t-113.5 -89q42 -46 131 -138q25 49 35 111h115q-13 -111 -71 -192
q21 -22 63 -65.5t60 -62.5zM309 608q-37 0 -59.5 -20.5t-22.5 -58.5q0 -41 50 -104q63 39 85.5 62.5t22.5 53.5t-20 48.5t-56 18.5zM288 92q70 0 123 38q-123 128 -155 164q-57 -34 -79 -56t-22 -53q0 -42 34.5 -67.5t98.5 -25.5z" />
    <glyph glyph-name="quotesingle" unicode="'" horiz-adv-x="276" 
d="M195 700v-119l-14 -204h-86l-13 204v119h113z" />
    <glyph glyph-name="parenleft" unicode="(" horiz-adv-x="413" 
d="M331 731q-74 -143 -105 -247.5t-31 -223.5t31 -223.5t105 -247.5l-86 -51q-163 250 -163 522t163 522z" />
    <glyph glyph-name="parenright" unicode=")" horiz-adv-x="413" 
d="M82 731l86 51q163 -250 163 -522t-163 -522l-86 51q74 143 105 247.5t31 223.5t-31 223.5t-105 247.5z" />
    <glyph glyph-name="asterisk" unicode="*" horiz-adv-x="564" 
d="M483 541l-133 -56l92 -112l-67 -54l-94 115l-93 -115l-66 54l91 112l-131 56l33 78l125 -52v133h83v-133l125 52z" />
    <glyph glyph-name="plus" unicode="+" horiz-adv-x="664" 
d="M389 545v-194h194v-108h-194v-194h-113v194h-194v108h194v194h113z" />
    <glyph glyph-name="comma" unicode="," horiz-adv-x="335" 
d="M253 54q2 -40 -96 -226h-75l71 164q-47 15 -47 65q0 32 21 52t52 20q29 0 51.5 -17.5t22.5 -57.5z" />
    <glyph glyph-name="hyphen" unicode="-" horiz-adv-x="493" 
d="M412 353v-108h-330v108h330z" />
    <glyph glyph-name="period" unicode="." horiz-adv-x="310" 
d="M155 129q32 0 53 -19.5t21 -50.5t-21 -51t-53 -20t-52.5 20t-20.5 51t20.5 50.5t52.5 19.5z" />
    <glyph glyph-name="slash" unicode="/" horiz-adv-x="353" 
d="M335 770l-203 -770h-114l203 770h114z" />
    <glyph glyph-name="zero" unicode="0" horiz-adv-x="687" 
d="M343 712q138 0 215 -96.5t77 -265.5t-77 -265.5t-215 -96.5q-137 0 -214 96t-77 266t77 266t214 96zM343 96q178 0 178 254t-178 254q-177 0 -177 -254t177 -254z" />
    <glyph glyph-name="one" unicode="1" horiz-adv-x="385" 
d="M252 700h51v-700h-113v568l-159 -65v111z" />
    <glyph glyph-name="two" unicode="2" horiz-adv-x="613" 
d="M226 108h346v-108h-531v81l203 178q128 111 162.5 150.5t34.5 83.5q0 48 -35.5 79.5t-97.5 31.5q-123 0 -147 -129h-114q12 109 84.5 173t181.5 64t175.5 -61.5t66.5 -152.5q0 -31 -10.5 -60.5t-23 -51t-47 -57t-57 -56t-79.5 -69.5l-110 -95z" />
    <glyph glyph-name="three" unicode="3" horiz-adv-x="613" 
d="M459 368q54 -20 83.5 -64t29.5 -105q0 -98 -70.5 -154.5t-185.5 -56.5q-111 0 -187 57t-88 164h114q24 -114 160 -114q69 0 106 30.5t37 83.5q0 100 -133 100h-95v100h75q131 0 131 89q0 48 -35 77.5t-97 29.5q-114 0 -140 -105h-114q14 105 84 158.5t173 53.5
q105 0 174 -56.5t69 -143.5q0 -49 -24 -87t-67 -57z" />
    <glyph glyph-name="four" unicode="4" horiz-adv-x="636" 
d="M606 267v-106h-101v-161h-113v161l-361 -1v107l306 433h168v-433h101zM154 267h238v328h-9z" />
    <glyph glyph-name="five" unicode="5" horiz-adv-x="615" 
d="M339 466q100 0 168 -63t68 -168q0 -110 -74 -178.5t-187 -68.5q-107 0 -184.5 59t-88.5 168h114q12 -58 55 -89t103 -31q65 0 106 40t41 101q0 62 -40.5 99t-104.5 37q-96 0 -142 -74h-108l86 402h391v-108h-306l-36 -170q57 44 139 44z" />
    <glyph glyph-name="six" unicode="6" horiz-adv-x="615" 
d="M340 474q96 0 165 -61.5t69 -169.5q0 -113 -76.5 -184t-190.5 -71q-112 0 -189 70t-77 186q0 59 27.5 123t68.5 123t122 167q22 28 33 43h133l-194 -254q53 28 109 28zM307 96q66 0 109.5 40.5t43.5 106.5t-43 105t-109 39q-68 0 -110.5 -39t-42.5 -106q0 -66 43.5 -106
t108.5 -40z" />
    <glyph glyph-name="seven" unicode="7" horiz-adv-x="550" 
d="M31 700h488v-83l-304 -617h-128l297 592h-353v108z" />
    <glyph glyph-name="eight" unicode="8" horiz-adv-x="609" 
d="M451 367q56 -20 86.5 -66t30.5 -107q0 -94 -74.5 -150t-188.5 -56q-115 0 -189.5 56t-74.5 150q0 61 30.5 107t86.5 66q-45 19 -70 59t-25 90q0 87 69 141.5t173 54.5q103 0 172 -54.5t69 -141.5q0 -50 -25 -90t-70 -59zM305 605q-61 0 -95 -27.5t-34 -75.5
q0 -92 129 -92q128 0 128 92q0 48 -34 75.5t-94 27.5zM305 95q69 0 109.5 28.5t40.5 80.5q0 108 -150 108q-151 0 -151 -108q0 -52 40.5 -80.5t110.5 -28.5z" />
    <glyph glyph-name="nine" unicode="9" horiz-adv-x="615" 
d="M308 712q112 0 189 -70t77 -186q0 -59 -27.5 -123t-68.5 -123t-122 -167q-22 -28 -33 -43h-133l194 254q-53 -28 -109 -28q-96 0 -165 61.5t-69 169.5q0 113 76.5 184t190.5 71zM307 313q68 0 110.5 39t42.5 106q0 66 -43.5 106t-108.5 40q-66 0 -109.5 -40.5
t-43.5 -106.5t43 -105t109 -39z" />
    <glyph glyph-name="colon" unicode=":" horiz-adv-x="310" 
d="M155 512q32 0 53 -19.5t21 -50.5t-21 -51t-53 -20t-52.5 20t-20.5 51t20.5 50.5t52.5 19.5zM155 129q32 0 53 -19.5t21 -50.5t-21 -51t-53 -20t-52.5 20t-20.5 51t20.5 50.5t52.5 19.5z" />
    <glyph glyph-name="semicolon" unicode=";" horiz-adv-x="335" 
d="M180 371q-32 0 -53 20t-21 51t21 50.5t53 19.5t52.5 -19.5t20.5 -50.5t-20.5 -51t-52.5 -20zM253 54q2 -40 -96 -226h-75l71 164q-47 15 -47 65q0 32 21 52t52 20q29 0 51.5 -17.5t22.5 -57.5z" />
    <glyph glyph-name="less" unicode="&#x3c;" horiz-adv-x="664" 
d="M583 510v-117l-332 -96l332 -96v-119l-501 177v75z" />
    <glyph glyph-name="equal" unicode="=" horiz-adv-x="664" 
d="M583 458v-104h-501v104h501zM583 251v-103h-501v103h501z" />
    <glyph glyph-name="greater" unicode="&#x3e;" horiz-adv-x="664" 
d="M82 511l501 -176v-76l-501 -176v118l331 96l-331 95v119z" />
    <glyph glyph-name="question" unicode="?" horiz-adv-x="575" 
d="M223 220v52q0 50 23.5 74.5t86.5 57.5q49 25 68 44.5t19 54.5q0 47 -33.5 75.5t-97.5 28.5q-122 0 -134 -125h-114q7 112 76 171t176 59q106 0 173.5 -55.5t67.5 -150.5q0 -67 -33.5 -104t-102.5 -73q-34 -18 -49 -34.5t-15 -43.5v-31h-111zM279 -12q-32 0 -53.5 20
t-21.5 51t21 50.5t54 19.5t54.5 -19.5t21.5 -50.5t-21.5 -51t-54.5 -20z" />
    <glyph glyph-name="at" unicode="@" horiz-adv-x="1139" 
d="M580 782q106 0 198.5 -33.5t161 -95.5t108 -156.5t39.5 -210.5q0 -140 -56 -215t-154 -75q-54 0 -98.5 25t-62.5 83q-60 -108 -181 -108q-99 0 -163 72t-64 183q0 112 64 184t162 72q112 0 173 -96v85h100v-318q0 -43 21.5 -64.5t55.5 -21.5q101 0 101 181
q0 104 -31.5 185t-87.5 130t-127.5 73.5t-155.5 24.5q-190 0 -309.5 -117t-119.5 -313t116.5 -309t301.5 -113q111 0 195 40l20 -93q-100 -43 -218 -43q-227 0 -372 142t-145 376t148.5 380t379.5 146zM556 93q65 0 107.5 44t42.5 114q0 69 -43 114t-107 45t-104.5 -44.5
t-40.5 -114.5q0 -69 41 -113.5t104 -44.5z" />
    <glyph glyph-name="A" unicode="A" horiz-adv-x="748" 
d="M597 0l-71 188h-304l-71 -188h-120l271 700h144l271 -700h-120zM263 295h222l-111 293z" />
    <glyph glyph-name="B" unicode="B" horiz-adv-x="657" 
d="M500 374q58 -18 87 -64t29 -112q0 -93 -61 -145.5t-171 -52.5h-302v700h298q102 0 157.5 -47t55.5 -133q0 -103 -93 -146zM479 502q0 46 -26.5 68t-86.5 22h-171v-180h172q112 0 112 90zM381 108q66 0 93.5 25.5t27.5 73.5q0 50 -28 75.5t-94 25.5h-185v-200h186z" />
    <glyph glyph-name="C" unicode="C" horiz-adv-x="792" 
d="M416 -12q-156 0 -258.5 103t-102.5 259t102.5 259t258.5 103q120 0 211 -66.5t124 -176.5h-121q-28 62 -85 98.5t-130 36.5q-107 0 -176.5 -72t-69.5 -182t69.5 -182t176.5 -72q73 0 130 36.5t85 98.5h121q-33 -110 -124 -176.5t-211 -66.5z" />
    <glyph glyph-name="D" unicode="D" horiz-adv-x="737" 
d="M327 700q154 0 256 -99t102 -251q0 -151 -102.5 -250.5t-255.5 -99.5h-245v700h245zM328 108q106 0 175 67.5t69 174.5q0 106 -69 174t-175 68h-133v-484h133z" />
    <glyph glyph-name="E" unicode="E" horiz-adv-x="580" 
d="M539 592h-344v-181h319v-108h-319v-195h344v-108h-457v700h457v-108z" />
    <glyph glyph-name="F" unicode="F" horiz-adv-x="580" 
d="M539 592h-344v-186h319v-108h-319v-298h-113v700h457v-108z" />
    <glyph glyph-name="G" unicode="G" horiz-adv-x="831" 
d="M376 372h378v-372h-98v140q-25 -69 -93 -110.5t-160 -41.5q-149 0 -250 102.5t-101 258.5q0 157 103 260t258 103q121 0 211.5 -65t123.5 -173h-121q-29 61 -85.5 95.5t-129.5 34.5q-107 0 -176.5 -72.5t-69.5 -184.5q0 -109 67 -181.5t178 -72.5q89 0 152 49.5t76 133.5
h-263v96z" />
    <glyph glyph-name="H" unicode="H" horiz-adv-x="748" 
d="M554 700h113v-700h-113v306h-359v-306h-113v700h113v-286h359v286z" />
    <glyph glyph-name="I" unicode="I" horiz-adv-x="277" 
d="M82 0v700h113v-700h-113z" />
    <glyph glyph-name="J" unicode="J" horiz-adv-x="571" 
d="M375 700h114v-474q0 -113 -65 -175.5t-166 -62.5q-100 0 -163.5 61t-63.5 173v41h114v-38q0 -129 114 -129q53 0 84.5 32t31.5 101v471z" />
    <glyph glyph-name="K" unicode="K" horiz-adv-x="665" 
d="M634 0h-143l-296 334v-334h-113v700h113v-320l283 320h142l-302 -341z" />
    <glyph glyph-name="L" unicode="L" horiz-adv-x="544" 
d="M195 108h319v-108h-432v700h113v-592z" />
    <glyph glyph-name="M" unicode="M" horiz-adv-x="827" 
d="M612 700h133v-700h-113v547l-216 -326h-11l-215 326v-547h-113v700h133l201 -302z" />
    <glyph glyph-name="N" unicode="N" horiz-adv-x="740" 
d="M550 700h113v-700h-134l-350 541l11 -248v-293h-113v700h133l350 -540l-10 247v293z" />
    <glyph glyph-name="O" unicode="O" horiz-adv-x="829" 
d="M415 712q154 0 258 -104t105 -258q-1 -154 -105 -258t-258 -104t-258.5 104t-104.5 258t104.5 258t258.5 104zM415 604q-107 0 -178 -72.5t-71 -181.5t71 -181.5t178 -72.5q106 0 177 72.5t71 181.5t-71 181.5t-177 72.5z" />
    <glyph glyph-name="P" unicode="P" horiz-adv-x="666" 
d="M369 700q114 0 180 -63t66 -167t-66.5 -168.5t-179.5 -64.5h-174v-237h-113v700h287zM365 345q66 0 100.5 34t34.5 90t-34 89.5t-101 33.5h-170v-247h170z" />
    <glyph glyph-name="Q" unicode="Q" horiz-adv-x="829" 
d="M778 350q-2 -158 -108 -261l108 -142l-87 -65l-109 145q-78 -39 -167 -39q-154 0 -258.5 104t-104.5 258t104.5 258t258.5 104t258 -104t105 -258zM166 350q0 -109 71 -181.5t178 -72.5q106 0 177 72.5t71 181.5t-71 181.5t-177 72.5q-107 0 -178 -72.5t-71 -181.5z" />
    <glyph glyph-name="R" unicode="R" horiz-adv-x="673" 
d="M503 0l-200 261h-108v-261h-113v700h289q112 0 175 -60.5t63 -161.5q0 -86 -46 -140.5t-130 -70.5l209 -267h-139zM195 592v-231h164q67 0 101.5 31.5t34.5 84.5t-34.5 84t-101.5 31h-164z" />
    <glyph glyph-name="S" unicode="S" horiz-adv-x="644" 
d="M329 412q74 -16 118.5 -30.5t83.5 -38.5t55.5 -58t16.5 -84q0 -106 -77.5 -159.5t-183.5 -53.5q-137 0 -211 64.5t-90 164.5h114q16 -62 60.5 -92.5t125.5 -30.5q71 0 109.5 26.5t38.5 75.5q0 44 -36 62t-141 41q-7 1 -10 2q-58 13 -96 26t-74.5 35t-54 56.5t-17.5 81.5
q0 99 75 155.5t182 56.5q124 0 192.5 -56t84.5 -146h-114q-33 96 -162 96q-69 0 -107 -28t-38 -75q0 -36 32.5 -53.5t123.5 -37.5z" />
    <glyph glyph-name="T" unicode="T" horiz-adv-x="602" 
d="M571 700v-108h-214v-592h-113v592h-213v108h540z" />
    <glyph glyph-name="U" unicode="U" horiz-adv-x="725" 
d="M533 700h115v-421q0 -141 -78.5 -216t-204.5 -75t-204.5 75t-78.5 216v421h115v-414q0 -97 45.5 -143.5t122.5 -46.5t122.5 46.5t45.5 143.5v414z" />
    <glyph glyph-name="V" unicode="V" horiz-adv-x="687" 
d="M536 700h120l-241 -700h-144l-240 700h120l192 -570z" />
    <glyph glyph-name="W" unicode="W" horiz-adv-x="1004" 
d="M857 700h116l-186 -700h-141l-67 253l-68 313h-18l-67 -313l-67 -253h-142l-186 700h116l89 -335l53 -247l53 247l88 335h144l88 -335l54 -248l53 248z" />
    <glyph glyph-name="X" unicode="X" horiz-adv-x="658" 
d="M627 0h-134l-165 266l-163 -266h-134l228 361l-218 339h135l155 -250l155 250h134l-220 -346z" />
    <glyph glyph-name="Y" unicode="Y" horiz-adv-x="681" 
d="M650 700l-252 -459l-1 -241h-113v239l-253 461h128l182 -334l182 334h127z" />
    <glyph glyph-name="Z" unicode="Z" horiz-adv-x="596" 
d="M182 108h373v-108h-514v108l372 484h-355v108h496v-108z" />
    <glyph glyph-name="bracketleft" unicode="[" horiz-adv-x="410" 
d="M329 770v-108h-134v-804h134v-108h-247v1020h247z" />
    <glyph glyph-name="backslash" unicode="\" horiz-adv-x="481" 
d="M196 770l203 -770h-114l-203 770h114z" />
    <glyph glyph-name="bracketright" unicode="]" horiz-adv-x="410" 
d="M82 770h247v-1020h-247v108h133v804h-133v108z" />
    <glyph glyph-name="asciicircum" unicode="^" horiz-adv-x="600" 
d="M300 712l218 -219l-79 -79l-139 138l-139 -138l-79 79z" />
    <glyph glyph-name="underscore" unicode="_" horiz-adv-x="623" 
d="M542 -19v-107h-460v107h460z" />
    <glyph glyph-name="grave" unicode="`" horiz-adv-x="395" 
d="M149 839l164 -164l-52 -51l-179 147z" />
    <glyph glyph-name="a" unicode="a" horiz-adv-x="673" 
d="M494 550h113v-550h-113v92q-66 -104 -192 -104q-111 0 -182.5 80.5t-71.5 206.5q0 125 72 206t181 81q126 0 193 -106v94zM326 96q73 0 121 50t48 129q0 78 -48 128.5t-121 50.5q-72 0 -118 -50t-46 -129t46 -129t118 -50z" />
    <glyph glyph-name="b" unicode="b" horiz-adv-x="673" 
d="M372 562q109 0 181 -81t72 -206q0 -126 -71.5 -206.5t-182.5 -80.5q-125 0 -192 104v-92h-113v770h113v-314q67 106 193 106zM347 96q72 0 118 50t46 129t-46 129t-118 50q-73 0 -121 -50.5t-48 -128.5q0 -79 48 -129t121 -50z" />
    <glyph glyph-name="c" unicode="c" horiz-adv-x="642" 
d="M333 -12q-122 0 -203.5 82t-81.5 205t81.5 205t204.5 82q100 0 176 -57.5t94 -154.5h-117q-15 51 -57 79t-96 28q-76 0 -124 -51t-48 -131t48 -131t123 -51q55 0 96.5 29t57.5 79h117q-19 -99 -95 -156t-176 -57z" />
    <glyph glyph-name="d" unicode="d" horiz-adv-x="679" 
d="M501 770h113v-770h-113v92q-69 -104 -193 -104q-111 0 -182.5 80.5t-71.5 206.5q0 125 72 206t181 81q125 0 194 -106v314zM332 96q73 0 121 50t48 129q0 78 -48 128.5t-121 50.5q-72 0 -118 -50t-46 -129t46 -129t118 -50z" />
    <glyph glyph-name="e" unicode="e" horiz-adv-x="654" 
d="M332 562q131 0 208.5 -90.5t69.5 -227.5h-447q7 -74 54 -115.5t118 -41.5q50 0 89 21t58 61h117q-31 -89 -102 -135t-163 -46q-125 0 -205.5 80.5t-80.5 205.5t80 206.5t204 81.5zM332 464q-63 0 -105.5 -35.5t-57.5 -92.5h320q-13 58 -54.5 93t-102.5 35z" />
    <glyph glyph-name="f" unicode="f" horiz-adv-x="482" 
d="M353 682q-114 0 -114 -129v-3h203v-106h-203v-444h-113v444h-102v106h102v8q0 108 60.5 166t153.5 58q70 0 124 -24l-20 -93l-16 5q-39 12 -75 12z" />
    <glyph glyph-name="g" unicode="g" horiz-adv-x="673" 
d="M494 550h113v-543q0 -123 -72 -196t-194 -73q-104 0 -180.5 53t-93.5 152h117q14 -51 55 -77.5t99 -26.5q76 0 116 42t40 122v94q-69 -103 -192 -103q-110 0 -182 80t-72 204q0 123 72.5 203.5t181.5 80.5q62 0 111.5 -28.5t80.5 -77.5v94zM326 102q73 0 121 49.5
t48 126.5q0 76 -48.5 126t-120.5 50t-118 -49.5t-46 -126.5t46.5 -126.5t117.5 -49.5z" />
    <glyph glyph-name="h" unicode="h" horiz-adv-x="626" 
d="M368 562q92 0 145 -57.5t53 -157.5v-347h-113v324q0 130 -121 130q-71 0 -109.5 -44.5t-38.5 -124.5v-285h-113v770h113v-310q62 102 184 102z" />
    <glyph glyph-name="i" unicode="i" horiz-adv-x="244" 
d="M122 798q32 0 53 -19.5t21 -49.5q0 -31 -21 -51t-53 -20q-31 0 -52 20t-21 51q0 30 21 49.5t52 19.5zM66 0v550h113v-550h-113z" />
    <glyph glyph-name="j" unicode="j" horiz-adv-x="244" 
d="M122 798q32 0 53 -19.5t21 -49.5q0 -31 -21 -51t-53 -20q-31 0 -52 20t-21 51q0 30 21 49.5t52 19.5zM66 -250v800h113v-800h-113z" />
    <glyph glyph-name="k" unicode="k" horiz-adv-x="613" 
d="M589 0h-146l-259 254v-254h-113v770h113v-458l238 238h145l-269 -261z" />
    <glyph glyph-name="l" unicode="l" horiz-adv-x="244" 
d="M67 0v770h114v-770h-114z" />
    <glyph glyph-name="m" unicode="m" horiz-adv-x="953" 
d="M706 562q87 0 136.5 -55.5t49.5 -153.5v-353h-113v329q0 125 -109 125q-65 0 -100 -46t-35 -123l1 -285h-114v329q0 125 -109 125q-65 0 -99.5 -46t-34.5 -123v-285h-113v550h113v-88q60 100 171 100q128 0 170 -115q60 115 186 115z" />
    <glyph glyph-name="n" unicode="n" horiz-adv-x="622" 
d="M363 562q93 0 145.5 -57t52.5 -158v-347h-113v324q0 130 -120 130q-72 0 -110.5 -44.5t-38.5 -124.5v-285h-113v550h113v-91q63 103 184 103z" />
    <glyph glyph-name="o" unicode="o" horiz-adv-x="665" 
d="M333 562q120 0 202.5 -82t82.5 -205t-82 -205t-203 -82q-120 0 -202.5 82.5t-82.5 204.5q0 123 83 205t202 82zM333 454q-72 0 -121.5 -50.5t-49.5 -128.5q0 -79 49 -129t122 -50t122 50t49 129q0 78 -49.5 128.5t-121.5 50.5z" />
    <glyph glyph-name="p" unicode="p" horiz-adv-x="678" 
d="M377 562q109 0 181 -81t72 -206q0 -126 -71.5 -206.5t-182.5 -80.5q-125 0 -192 104v-342h-113v800h113v-94q67 106 193 106zM352 96q72 0 118 50t46 129t-46 129t-118 50q-73 0 -121 -50.5t-48 -128.5q0 -79 48 -129t121 -50z" />
    <glyph glyph-name="q" unicode="q" horiz-adv-x="673" 
d="M494 550h113v-800h-113v342q-67 -104 -192 -104q-111 0 -182.5 80.5t-71.5 206.5q0 125 72 206t181 81q126 0 193 -106v94zM326 96q73 0 121 50t48 129q0 78 -48 128.5t-121 50.5q-72 0 -118 -50t-46 -129t46 -129t118 -50z" />
    <glyph glyph-name="r" unicode="r" horiz-adv-x="419" 
d="M362 562q21 0 33 -3v-115q-20 2 -34 2q-82 0 -132 -48.5t-50 -145.5v-252h-113v550h113v-109q52 121 183 121z" />
    <glyph glyph-name="s" unicode="s" horiz-adv-x="584" 
d="M309 -12q-109 0 -181.5 50t-88.5 139h115q13 -46 50 -67.5t107 -21.5q55 0 86.5 16.5t31.5 46.5q0 20 -15.5 33t-36 19t-66.5 17q-17 4 -26 6q-123 30 -171 62.5t-48 98.5q0 82 63.5 128.5t168.5 46.5q103 0 163.5 -44.5t76.5 -122.5h-114q-24 67 -128 67q-54 0 -85 -17
t-31 -46q0 -25 25 -36.5t105 -30.5q52 -12 82.5 -20.5t63.5 -22.5t50 -30t28 -39.5t11 -55.5q0 -85 -66.5 -130.5t-169.5 -45.5z" />
    <glyph glyph-name="t" unicode="t" horiz-adv-x="521" 
d="M464 120l20 -92q-67 -40 -157 -40q-89 0 -145 57t-56 166v233h-102v106h102v125l113 25v-150h226v-106h-226v-227q0 -124 108 -124q40 0 117 27z" />
    <glyph glyph-name="u" unicode="u" horiz-adv-x="616" 
d="M439 550h113v-550h-113v91q-64 -103 -183 -103q-91 0 -143 57t-52 158v347h113v-324q0 -130 118 -130q70 0 108.5 44.5t38.5 124.5v285z" />
    <glyph glyph-name="v" unicode="v" horiz-adv-x="581" 
d="M437 550h120l-198 -550h-137l-198 550h120l146 -432z" />
    <glyph glyph-name="w" unicode="w" horiz-adv-x="860" 
d="M723 550h113l-157 -550h-132l-53 185l-55 251h-18l-55 -251l-53 -185h-132l-157 550h112l49 -173l64 -258l64 258l49 173h136l48 -173l64 -256l65 256z" />
    <glyph glyph-name="x" unicode="x" horiz-adv-x="580" 
d="M556 0h-135l-133 197l-128 -197h-136l197 283l-186 267h135l122 -184l118 184h136l-186 -269z" />
    <glyph glyph-name="y" unicode="y" horiz-adv-x="605" 
d="M460 550h121l-364 -800h-121l145 320l-217 480h121l156 -358z" />
    <glyph glyph-name="z" unicode="z" horiz-adv-x="542" 
d="M183 107h320v-107h-464v107l314 336h-296v107h441v-107z" />
    <glyph glyph-name="braceleft" unicode="{" horiz-adv-x="513" 
d="M318 422q0 -78 -26 -114t-87 -48q61 -12 87 -48t26 -114v-40q0 -118 24.5 -162.5t89.5 -49.5v-108q-102 0 -164.5 70.5t-62.5 211.5v46q0 76 -18 107t-81 31h-24v112h24q63 0 81 31t18 107v46q0 141 62.5 211.5t164.5 70.5v-108q-65 -5 -89.5 -49.5t-24.5 -162.5v-40z
" />
    <glyph glyph-name="bar" unicode="|" horiz-adv-x="276" 
d="M195 700v-794h-113v794h113z" />
    <glyph glyph-name="braceright" unicode="}" horiz-adv-x="513" 
d="M407 316h25v-112h-25q-63 0 -81 -31t-18 -107v-46q0 -141 -62 -211.5t-164 -70.5v108q65 5 89 49.5t24 162.5v40q0 78 26.5 114t86.5 48q-60 12 -86.5 48t-26.5 114v40q0 118 -24 162.5t-89 49.5v108q102 0 164 -70.5t62 -211.5v-46q0 -76 18 -107t81 -31z" />
    <glyph glyph-name="asciitilde" unicode="~" horiz-adv-x="639" 
d="M434 234q-22 0 -44.5 7.5t-34.5 14.5t-42 25q-11 6 -27.5 16t-24 13.5t-17.5 7t-19 3.5q-49 0 -49 -75h-94q0 176 123 176q7 0 14 -0.5t12.5 -1.5t12.5 -3.5t11.5 -3.5t12 -4.5t11 -5.5t12 -6.5t11.5 -6.5t12.5 -7.5t12.5 -7.5q12 -6 28 -16t23.5 -13.5t17 -7t18.5 -3.5
q50 0 50 75h94q0 -176 -124 -176z" />
    <glyph glyph-name="exclamdown" unicode="&#xa1;" horiz-adv-x="310" 
d="M155 333q-31 0 -52 20t-21 50q0 31 20.5 51t52.5 20t53 -20t21 -51q0 -30 -21 -50t-53 -20zM212 -238h-114v252l8 228h99l7 -228v-252z" />
    <glyph glyph-name="cent" unicode="&#xa2;" horiz-adv-x="642" 
d="M333 93q55 0 96.5 29t57.5 79h117q-16 -85 -74.5 -139t-140.5 -69v-143h-112v143q-102 19 -165.5 96.5t-63.5 185.5t63.5 185.5t165.5 96.5v143h112v-143q82 -15 141 -69.5t74 -137.5h-117q-15 51 -57 79t-96 28q-76 0 -124 -51t-48 -131t48 -131t123 -51z" />
    <glyph glyph-name="sterling" unicode="&#xa3;" horiz-adv-x="735" 
d="M559 194h114q0 -104 -46.5 -149t-143.5 -45h-421v108h39q39 0 53 16.5t14 53.5v112h-106v100h106v99q0 99 59 161t167 62q107 0 169.5 -61t62.5 -163h-114q0 116 -112 116q-119 0 -119 -120v-94h191v-100h-191v-106q0 -56 -32 -76h219q53 0 72 17.5t19 68.5z" />
    <glyph glyph-name="currency" unicode="&#xa4;" horiz-adv-x="738" 
d="M605 349q0 -66 -32 -122l83 -85l-79 -80l-83 84q-58 -34 -125 -34t-124 35l-83 -85l-80 80l84 84q-32 55 -32 123q0 67 33 124l-85 84l80 80l84 -85q56 34 123 34t124 -33l83 84l80 -80l-84 -84q33 -57 33 -124zM369 212q57 0 95.5 38t38.5 99q0 60 -38.5 98.5
t-95.5 38.5q-56 0 -94.5 -38.5t-38.5 -98.5t38.5 -98.5t94.5 -38.5z" />
    <glyph glyph-name="yen" unicode="&#xa5;" horiz-adv-x="744" 
d="M682 700l-228 -414h149v-62h-174v-60h174v-62h-174v-102h-113v102h-175v62h175v60h-175v62h149l-228 414h128l182 -334l182 334h128z" />
    <glyph glyph-name="brokenbar" unicode="&#xa6;" horiz-adv-x="276" 
d="M195 700v-355h-113v355h113zM195 261v-355h-113v355h113z" />
    <glyph glyph-name="section" unicode="&#xa7;" horiz-adv-x="644" 
d="M477 187q78 -37 78 -118q0 -84 -61.5 -129.5t-164.5 -45.5q-99 0 -161 42.5t-78 120.5h115q22 -76 127 -76q50 0 79.5 20t29.5 56q0 25 -23 36.5t-97 29.5q-53 13 -79 20t-62.5 21t-53.5 29t-30 39t-13 55q0 78 83 131q-78 38 -78 119q0 83 63.5 129t165.5 46
q98 0 159 -41t77 -119h-114q-22 73 -125 73q-49 0 -80.5 -20t-31.5 -56q0 -25 23.5 -36.5t97.5 -29.5q52 -13 78 -20t62.5 -21.5t53.5 -29t30 -39t13 -55.5q0 -77 -83 -131zM200 311q0 -31 24.5 -44t102.5 -33q13 -3 19 -5q5 -1 20.5 -5t22.5 -6q55 36 55 77q0 31 -24.5 44
t-102.5 33q-13 3 -19 5q-18 4 -44 11q-54 -36 -54 -77z" />
    <glyph glyph-name="dieresis" unicode="&#xa8;" horiz-adv-x="526" 
d="M149 793q29 0 48 -18t19 -46t-19 -46.5t-48 -18.5t-48 18.5t-19 46.5t19 46t48 18zM376 793q29 0 48.5 -18t19.5 -46t-19.5 -46.5t-48.5 -18.5t-48.5 18.5t-19.5 46.5t19.5 46t48.5 18z" />
    <glyph glyph-name="copyright" unicode="&#xa9;" horiz-adv-x="703" 
d="M352 782q112 0 191 -79t79 -191t-79 -191t-191 -79t-191 79t-79 191t79 191t191 79zM352 289q92 0 157 65t65 158q0 92 -65 157t-157 65t-157 -65t-65 -157q0 -93 65 -158t157 -65zM353 596q-35 0 -57.5 -23.5t-22.5 -60.5t22.5 -60.5t57.5 -23.5q53 0 70 47h62
q-10 -47 -47 -75t-85 -28q-59 0 -99 40t-40 100t40 100t99 40q48 0 85 -28t47 -75h-62q-18 47 -70 47z" />
    <glyph glyph-name="guillemotleft" unicode="&#xab;" horiz-adv-x="710" 
d="M298 63l-216 216l216 216l77 -78l-139 -138l139 -138zM552 63l-217 216l217 216l77 -78l-139 -138l139 -138z" />
    <glyph glyph-name="logicalnot" unicode="&#xac;" horiz-adv-x="664" 
d="M583 353v-239h-113v131h-388v108h501z" />
    <glyph glyph-name="registered" unicode="&#xae;" horiz-adv-x="703" 
d="M352 782q112 0 191 -79t79 -191t-79 -191t-191 -79t-191 79t-79 191t79 191t191 79zM352 289q92 0 157 65t65 158q0 92 -65 157t-157 65t-157.5 -65t-65.5 -157q0 -93 65.5 -158t157.5 -65zM467 558q0 -32 -17.5 -53.5t-49.5 -28.5l78 -101h-70l-74 98h-27v-98h-58v269
h130q42 0 65 -23.5t23 -62.5zM307 594v-76h56q45 0 45 39q0 37 -45 37h-56z" />
    <glyph glyph-name="macron" unicode="&#xaf;" horiz-adv-x="414" 
d="M332 770v-83h-250v83h250z" />
    <glyph glyph-name="degree" unicode="&#xb0;" horiz-adv-x="506" 
d="M253 782q72 0 122 -50t50 -121t-50.5 -121.5t-121.5 -50.5t-121.5 50.5t-49.5 121.5q-1 71 49.5 121t121.5 50zM253 700q-37 0 -63 -26t-25 -64q-1 -38 25 -64t63 -26t63 26t26 64t-26 64t-63 26z" />
    <glyph glyph-name="plusminus" unicode="&#xb1;" horiz-adv-x="664" 
d="M389 545v-135h194v-86h-194v-138h-113v138h-194v86h194v135h113zM583 146v-86h-501v86h501z" />
    <glyph glyph-name="uni00B2" unicode="&#xb2;" horiz-adv-x="420" 
d="M167 451h219v-79h-352v71l146 110q56 42 73.5 61.5t17.5 43.5q0 23 -15.5 37t-44.5 14q-65 0 -73 -72h-99q6 63 51 104t123 41q76 0 116.5 -38t40.5 -91q0 -45 -31.5 -79.5t-102.5 -77.5z" />
    <glyph glyph-name="uni00B3" unicode="&#xb3;" horiz-adv-x="419" 
d="M324 584q61 -30 61 -97q0 -52 -42.5 -89t-124.5 -37q-80 0 -128.5 37t-55.5 99h99q13 -64 81 -64q34 0 53 16t19 42q0 53 -53 53h-64v64h51q23 0 38.5 13t15.5 36q0 24 -16.5 38t-46.5 14q-62 0 -71 -64h-99q5 62 51 99.5t121 37.5t117.5 -36.5t42.5 -87.5q0 -49 -49 -74
z" />
    <glyph glyph-name="acute" unicode="&#xb4;" horiz-adv-x="395" 
d="M245 840l68 -68l-180 -147l-51 52z" />
    <glyph glyph-name="paragraph" unicode="&#xb6;" horiz-adv-x="670" 
d="M184 700h404v-801h-113v693h-135v-693h-113v509h-43q-44 0 -73 29t-29 73v88q0 44 29 73t73 29z" />
    <glyph glyph-name="periodcentered" unicode="&#xb7;" horiz-adv-x="310" 
d="M155 383q32 0 53 -20t21 -51q0 -30 -21 -50t-53 -20q-31 0 -52 20t-21 50q0 31 20.5 51t52.5 20z" />
    <glyph glyph-name="cedilla" unicode="&#xb8;" horiz-adv-x="355" 
d="M195 -79q39 -8 65 -30t26 -60q0 -46 -39 -69.5t-106 -23.5q-27 0 -59 4v58q32 -4 46 -4q70 0 70 41q0 42 -91 50l49 113h78z" />
    <glyph glyph-name="uni00B9" unicode="&#xb9;" horiz-adv-x="283" 
d="M198 770h51v-398h-97v297l-118 -40v89z" />
    <glyph glyph-name="guillemotright" unicode="&#xbb;" horiz-adv-x="710" 
d="M159 63l-77 78l139 138l-139 138l77 78l216 -216zM413 63l-78 78l139 138l-139 138l78 78l216 -216z" />
    <glyph glyph-name="onequarter" unicode="&#xbc;" horiz-adv-x="917" 
d="M249 302h-97v297l-118 -40v89l164 52h51v-398zM577 700h109l-400 -700h-109zM883 158v-79h-71v-79h-98v79h-206v79l183 240h121v-240h71zM588 158h126v168z" />
    <glyph glyph-name="onehalf" unicode="&#xbd;" horiz-adv-x="962" 
d="M249 302h-97v297l-118 -40v89l164 52h51v-398zM577 700h109l-400 -700h-109zM708 79h220v-79h-352v70l146 110q57 44 74 62.5t17 42.5t-15.5 38t-44.5 14q-65 0 -73 -73h-99q6 63 51 104t123 41q75 0 116 -38t41 -90q0 -45 -31.5 -79.5t-102.5 -78.5z" />
    <glyph glyph-name="threequarters" unicode="&#xbe;" horiz-adv-x="1015" 
d="M385 417q0 -52 -42.5 -89t-124.5 -37q-80 0 -128.5 37t-55.5 99h99q13 -64 81 -64q34 0 53 16t19 42q0 53 -53 53h-64v64h51q23 0 38.5 13t15.5 36q0 24 -16.5 38t-46.5 14q-62 0 -71 -64h-99q5 62 51 99.5t121 37.5t117.5 -36.5t42.5 -87.5q0 -49 -49 -74q61 -30 61 -97
zM675 700h109l-400 -700h-109zM981 158v-79h-71v-79h-98v79h-206v79l183 240h121v-240h71zM686 158h126v168z" />
    <glyph glyph-name="questiondown" unicode="&#xbf;" horiz-adv-x="575" 
d="M295 462q33 0 54.5 -20t21.5 -51t-21.5 -50.5t-54.5 -19.5t-54 19.5t-21 50.5t21.5 51t53.5 20zM351 230v-52q0 -50 -23.5 -75t-85.5 -57q-49 -25 -68.5 -44.5t-19.5 -54.5q0 -47 34 -75.5t98 -28.5q122 0 134 125h114q-7 -112 -76 -171t-177 -59q-106 0 -173 55.5
t-67 150.5q0 67 33.5 104t102.5 73q34 18 49 34.5t15 43.5v31h110z" />
    <glyph glyph-name="Agrave" unicode="&#xc0;" horiz-adv-x="748" 
d="M489 821l-52 -51l-179 147l67 68zM597 0l-71 188h-304l-71 -188h-120l271 700h144l271 -700h-120zM263 295h222l-111 293z" />
    <glyph glyph-name="Aacute" unicode="&#xc1;" horiz-adv-x="748" 
d="M489 917l-180 -147l-51 51l163 164zM597 0l-71 188h-304l-71 -188h-120l271 700h144l271 -700h-120zM263 295h222l-111 293z" />
    <glyph glyph-name="Acircumflex" unicode="&#xc2;" horiz-adv-x="748" 
d="M374 878l-102 -108l-61 61l163 164l164 -164l-62 -61zM597 0l-71 188h-304l-71 -188h-120l271 700h144l271 -700h-120zM263 295h222l-111 293z" />
    <glyph glyph-name="Atilde" unicode="&#xc3;" horiz-adv-x="748" 
d="M305 852q-37 0 -37 -63h-70q0 151 103 151q23 0 39 -8t42 -30q40 -33 60 -33q38 0 38 64h70q0 -152 -104 -152q-23 0 -39.5 8.5t-41.5 29.5q-38 33 -60 33zM597 0l-71 188h-304l-71 -188h-120l271 700h144l271 -700h-120zM263 295h222l-111 293z" />
    <glyph glyph-name="Adieresis" unicode="&#xc4;" horiz-adv-x="748" 
d="M260 809q-29 0 -48 18.5t-19 46.5t19 46.5t48 18.5t48 -18.5t19 -46.5t-19 -46.5t-48 -18.5zM487 809q-29 0 -48.5 18.5t-19.5 46.5t19.5 46.5t48.5 18.5t48.5 -18.5t19.5 -46.5t-19.5 -46.5t-48.5 -18.5zM597 0l-71 188h-304l-71 -188h-120l271 700h144l271 -700h-120z
M263 295h222l-111 293z" />
    <glyph glyph-name="Aring" unicode="&#xc5;" horiz-adv-x="748" 
d="M373 770q-52 0 -88.5 37t-36.5 89q0 53 36.5 89.5t88.5 36.5q53 0 90 -37t36 -89q1 -52 -36.5 -89t-89.5 -37zM373 955q-25 0 -42 -17t-16 -43q-1 -25 16.5 -42.5t41.5 -17.5q25 0 42 17.5t17 42.5q0 26 -17 43t-42 17zM597 0l-71 188h-304l-71 -188h-120l271 700h144
l271 -700h-120zM263 295h222l-111 293z" />
    <glyph glyph-name="AE" unicode="&#xc6;" horiz-adv-x="874" 
d="M833 592h-344v-181h318v-108h-318v-195h344v-108h-457v188h-154l-71 -188h-120l271 700h144h387v-108zM263 295h113v298z" />
    <glyph glyph-name="Ccedilla" unicode="&#xc7;" horiz-adv-x="792" 
d="M415 96q73 0 130 36.5t85 98.5h121q-33 -106 -119 -172.5t-202 -70.5l-34 -67q40 -8 66 -30t26 -60q0 -46 -39 -69.5t-106 -23.5q-27 0 -59 4v58q32 -4 46 -4q70 0 70 41q0 42 -91 50l46 106q-133 20 -216.5 119t-83.5 238q0 156 102.5 259t258.5 103q120 0 211 -66.5
t124 -176.5h-121q-28 62 -85 98.5t-130 36.5q-107 0 -176.5 -72t-69.5 -182t69.5 -182t176.5 -72z" />
    <glyph glyph-name="Egrave" unicode="&#xc8;" horiz-adv-x="580" 
d="M406 821l-52 -51l-179 147l67 68zM539 592h-344v-181h319v-108h-319v-195h344v-108h-457v700h457v-108z" />
    <glyph glyph-name="Eacute" unicode="&#xc9;" horiz-adv-x="580" 
d="M406 917l-180 -147l-51 51l163 164zM539 592h-344v-181h319v-108h-319v-195h344v-108h-457v700h457v-108z" />
    <glyph glyph-name="Ecircumflex" unicode="&#xca;" horiz-adv-x="580" 
d="M290 878l-102 -108l-61 61l163 164l164 -164l-62 -61zM539 592h-344v-181h319v-108h-319v-195h344v-108h-457v700h457v-108z" />
    <glyph glyph-name="Edieresis" unicode="&#xcb;" horiz-adv-x="580" 
d="M176 809q-29 0 -48 18.5t-19 46.5t19 46.5t48 18.5t48 -18.5t19 -46.5t-19 -46.5t-48 -18.5zM403 809q-29 0 -48.5 18.5t-19.5 46.5t19.5 46.5t48.5 18.5t48.5 -18.5t19.5 -46.5t-19.5 -46.5t-48.5 -18.5zM539 592h-344v-181h319v-108h-319v-195h344v-108h-457v700h457
v-108z" />
    <glyph glyph-name="Igrave" unicode="&#xcc;" horiz-adv-x="277" 
d="M89 985l164 -164l-52 -51l-179 147zM82 0v700h113v-700h-113z" />
    <glyph glyph-name="Iacute" unicode="&#xcd;" horiz-adv-x="277" 
d="M185 985l68 -68l-180 -147l-51 51zM82 0v700h113v-700h-113z" />
    <glyph glyph-name="Icircumflex" unicode="&#xce;" horiz-adv-x="277" 
d="M302 831l-62 -61l-102 108l-102 -108l-61 61l163 164zM82 0v700h113v-700h-113z" />
    <glyph glyph-name="Idieresis" unicode="&#xcf;" horiz-adv-x="277" 
d="M24 939q29 0 48 -18.5t19 -46.5t-19 -46.5t-48 -18.5t-48 18.5t-19 46.5t19 46.5t48 18.5zM251 939q29 0 48.5 -18.5t19.5 -46.5t-19.5 -46.5t-48.5 -18.5t-48.5 18.5t-19.5 46.5t19.5 46.5t48.5 18.5zM82 0v700h113v-700h-113z" />
    <glyph glyph-name="Eth" unicode="&#xd0;" horiz-adv-x="737" 
d="M327 700q154 0 256 -99t102 -251q0 -151 -102.5 -250.5t-255.5 -99.5h-245v296h-64v108h64v296h245zM328 108q106 0 175 67.5t69 174.5q0 106 -69 174t-175 68h-133v-188h122v-108h-122v-188h133z" />
    <glyph glyph-name="Ntilde" unicode="&#xd1;" horiz-adv-x="740" 
d="M301 852q-37 0 -37 -63h-70q0 151 103 151q23 0 39 -8t42 -30q40 -33 60 -33q38 0 38 64h70q0 -152 -104 -152q-23 0 -39.5 8.5t-41.5 29.5q-39 33 -60 33zM550 700h113v-700h-134l-350 541l11 -248v-293h-113v700h133l350 -540l-10 247v293z" />
    <glyph glyph-name="Ograve" unicode="&#xd2;" horiz-adv-x="829" 
d="M366 985l164 -164l-52 -51l-179 147zM415 712q154 0 258 -104t105 -258q-1 -154 -105 -258t-258 -104t-258.5 104t-104.5 258t104.5 258t258.5 104zM415 604q-107 0 -178 -72.5t-71 -181.5t71 -181.5t178 -72.5q106 0 177 72.5t71 181.5t-71 181.5t-177 72.5z" />
    <glyph glyph-name="Oacute" unicode="&#xd3;" horiz-adv-x="829" 
d="M462 985l68 -68l-180 -147l-51 51zM415 712q154 0 258 -104t105 -258q-1 -154 -105 -258t-258 -104t-258.5 104t-104.5 258t104.5 258t258.5 104zM415 604q-107 0 -178 -72.5t-71 -181.5t71 -181.5t178 -72.5q106 0 177 72.5t71 181.5t-71 181.5t-177 72.5z" />
    <glyph glyph-name="Ocircumflex" unicode="&#xd4;" horiz-adv-x="829" 
d="M578 831l-62 -61l-102 108l-102 -108l-61 61l163 164zM415 712q154 0 258 -104t105 -258q-1 -154 -105 -258t-258 -104t-258.5 104t-104.5 258t104.5 258t258.5 104zM415 604q-107 0 -178 -72.5t-71 -181.5t71 -181.5t178 -72.5q106 0 177 72.5t71 181.5t-71 181.5
t-177 72.5z" />
    <glyph glyph-name="Otilde" unicode="&#xd5;" horiz-adv-x="829" 
d="M520 933h70q0 -152 -104 -152q-23 0 -39.5 8.5t-41.5 29.5q-39 33 -60 33q-37 0 -37 -63h-70q0 151 103 151q23 0 39 -8t42 -30q40 -33 60 -33q38 0 38 64zM415 712q154 0 258 -104t105 -258q-1 -154 -105 -258t-258 -104t-258.5 104t-104.5 258t104.5 258t258.5 104z
M415 604q-107 0 -178 -72.5t-71 -181.5t71 -181.5t178 -72.5q106 0 177 72.5t71 181.5t-71 181.5t-177 72.5z" />
    <glyph glyph-name="Odieresis" unicode="&#xd6;" horiz-adv-x="829" 
d="M300 939q29 0 48 -18.5t19 -46.5t-19 -46.5t-48 -18.5t-48 18.5t-19 46.5t19 46.5t48 18.5zM527 939q29 0 48.5 -18.5t19.5 -46.5t-19.5 -46.5t-48.5 -18.5t-48.5 18.5t-19.5 46.5t19.5 46.5t48.5 18.5zM415 712q154 0 258 -104t105 -258q-1 -154 -105 -258t-258 -104
t-258.5 104t-104.5 258t104.5 258t258.5 104zM415 604q-107 0 -178 -72.5t-71 -181.5t71 -181.5t178 -72.5q106 0 177 72.5t71 181.5t-71 181.5t-177 72.5z" />
    <glyph glyph-name="multiply" unicode="&#xd7;" horiz-adv-x="661" 
d="M503 547l77 -77l-173 -172l173 -173l-77 -76l-173 173l-172 -173l-76 76l172 173l-172 172l76 77l172 -172z" />
    <glyph glyph-name="Oslash" unicode="&#xd8;" horiz-adv-x="829" 
d="M616 654q75 -48 118 -127.5t44 -176.5q-1 -154 -105 -258t-258 -104q-57 0 -108 15l-18 -38h-114l38 81q-75 48 -118 128t-43 176q0 154 104.5 258t258.5 104q57 0 106 -15l18 38h115zM166 350q0 -128 95 -203l213 450q-27 7 -59 7q-107 0 -178 -72.5t-71 -181.5zM415 96
q106 0 177 72.5t71 181.5q0 129 -95 203l-214 -450q28 -7 61 -7z" />
    <glyph glyph-name="Ugrave" unicode="&#xd9;" horiz-adv-x="725" 
d="M314 985l164 -164l-52 -51l-179 147zM533 700h115v-421q0 -141 -78.5 -216t-204.5 -75t-204.5 75t-78.5 216v421h115v-414q0 -97 45.5 -143.5t122.5 -46.5t122.5 46.5t45.5 143.5v414z" />
    <glyph glyph-name="Uacute" unicode="&#xda;" horiz-adv-x="725" 
d="M410 985l68 -68l-180 -147l-51 51zM533 700h115v-421q0 -141 -78.5 -216t-204.5 -75t-204.5 75t-78.5 216v421h115v-414q0 -97 45.5 -143.5t122.5 -46.5t122.5 46.5t45.5 143.5v414z" />
    <glyph glyph-name="Ucircumflex" unicode="&#xdb;" horiz-adv-x="725" 
d="M527 831l-62 -61l-102 108l-102 -108l-61 61l163 164zM533 700h115v-421q0 -141 -78.5 -216t-204.5 -75t-204.5 75t-78.5 216v421h115v-414q0 -97 45.5 -143.5t122.5 -46.5t122.5 46.5t45.5 143.5v414z" />
    <glyph glyph-name="Udieresis" unicode="&#xdc;" horiz-adv-x="725" 
d="M249 939q29 0 48 -18.5t19 -46.5t-19 -46.5t-48 -18.5t-48 18.5t-19 46.5t19 46.5t48 18.5zM476 939q29 0 48.5 -18.5t19.5 -46.5t-19.5 -46.5t-48.5 -18.5t-48.5 18.5t-19.5 46.5t19.5 46.5t48.5 18.5zM533 700h115v-421q0 -141 -78.5 -216t-204.5 -75t-204.5 75
t-78.5 216v421h115v-414q0 -97 45.5 -143.5t122.5 -46.5t122.5 46.5t45.5 143.5v414z" />
    <glyph glyph-name="Yacute" unicode="&#xdd;" horiz-adv-x="681" 
d="M456 917l-180 -147l-51 51l163 164zM650 700l-252 -459l-1 -241h-113v239l-253 461h128l182 -334l182 334h127z" />
    <glyph glyph-name="Thorn" unicode="&#xde;" horiz-adv-x="666" 
d="M369 608q114 0 180 -63t66 -167q0 -105 -66.5 -169t-179.5 -64h-174v-145h-113v700h113v-92h174zM365 253q66 0 100.5 34t34.5 90t-34 89.5t-101 33.5h-170v-247h170z" />
    <glyph glyph-name="germandbls" unicode="&#xdf;" horiz-adv-x="632" 
d="M461 403q63 -18 97.5 -71t34.5 -126q0 -102 -64 -160t-162 -58q-83 0 -141 23l23 104q52 -19 99 -19q60 0 95.5 31t35.5 87q0 55 -35 86.5t-100 31.5h-84v108h69q53 0 84.5 30.5t31.5 82.5t-33.5 86.5t-97.5 34.5q-65 0 -100 -37.5t-35 -106.5v-530h-113v532
q0 116 67 183t181 67q113 0 179 -62.5t66 -154.5q0 -56 -26 -98t-72 -64z" />
    <glyph glyph-name="agrave" unicode="&#xe0;" horiz-adv-x="673" 
d="M458 675l-52 -51l-179 147l67 68zM494 550h113v-550h-113v92q-66 -104 -192 -104q-111 0 -182.5 80.5t-71.5 206.5q0 125 72 206t181 81q126 0 193 -106v94zM326 96q73 0 121 50t48 129q0 78 -48 128.5t-121 50.5q-72 0 -118 -50t-46 -129t46 -129t118 -50z" />
    <glyph glyph-name="aacute" unicode="&#xe1;" horiz-adv-x="673" 
d="M458 772l-180 -147l-51 52l163 163zM494 550h113v-550h-113v92q-66 -104 -192 -104q-111 0 -182.5 80.5t-71.5 206.5q0 125 72 206t181 81q126 0 193 -106v94zM326 96q73 0 121 50t48 129q0 78 -48 128.5t-121 50.5q-72 0 -118 -50t-46 -129t46 -129t118 -50z" />
    <glyph glyph-name="acircumflex" unicode="&#xe2;" horiz-adv-x="673" 
d="M342 734l-102 -109l-61 61l163 164l164 -164l-62 -61zM494 550h113v-550h-113v92q-66 -104 -192 -104q-111 0 -182.5 80.5t-71.5 206.5q0 125 72 206t181 81q126 0 193 -106v94zM326 96q73 0 121 50t48 129q0 78 -48 128.5t-121 50.5q-72 0 -118 -50t-46 -129t46 -129
t118 -50z" />
    <glyph glyph-name="atilde" unicode="&#xe3;" horiz-adv-x="673" 
d="M274 713q-37 0 -37 -63h-70q0 151 103 151q23 0 39 -8t42 -30q40 -33 60 -33q38 0 38 64h70q0 -152 -104 -152q-23 0 -39.5 8.5t-41.5 29.5q-39 33 -60 33zM494 550h113v-550h-113v92q-66 -104 -192 -104q-111 0 -182.5 80.5t-71.5 206.5q0 125 72 206t181 81
q126 0 193 -106v94zM326 96q73 0 121 50t48 129q0 78 -48 128.5t-121 50.5q-72 0 -118 -50t-46 -129t46 -129t118 -50z" />
    <glyph glyph-name="adieresis" unicode="&#xe4;" horiz-adv-x="673" 
d="M229 664q-29 0 -48 18.5t-19 46.5t19 46t48 18t48 -18t19 -46t-19 -46.5t-48 -18.5zM456 664q-29 0 -48.5 18.5t-19.5 46.5t19.5 46t48.5 18t48.5 -18t19.5 -46t-19.5 -46.5t-48.5 -18.5zM494 550h113v-550h-113v92q-66 -104 -192 -104q-111 0 -182.5 80.5t-71.5 206.5
q0 125 72 206t181 81q126 0 193 -106v94zM326 96q73 0 121 50t48 129q0 78 -48 128.5t-121 50.5q-72 0 -118 -50t-46 -129t46 -129t118 -50z" />
    <glyph glyph-name="aring" unicode="&#xe5;" horiz-adv-x="673" 
d="M342 625q-52 0 -88.5 37t-36.5 89q0 53 36.5 89.5t88.5 36.5q53 0 90 -37t36 -89q1 -52 -36.5 -89t-89.5 -37zM342 811q-24 0 -41.5 -17.5t-16.5 -42.5q-1 -26 16.5 -43t41.5 -17q25 0 42 17t17 43q0 25 -17 42.5t-42 17.5zM494 550h113v-550h-113v92q-66 -104 -192 -104
q-111 0 -182.5 80.5t-71.5 206.5q0 125 72 206t181 81q126 0 193 -106v94zM326 96q73 0 121 50t48 129q0 78 -48 128.5t-121 50.5q-72 0 -118 -50t-46 -129t46 -129t118 -50z" />
    <glyph glyph-name="ae" unicode="&#xe6;" horiz-adv-x="1101" 
d="M779 562q131 0 208.5 -90.5t69.5 -227.5h-447q7 -74 54 -115.5t118 -41.5q50 0 89 21t58 61h117q-31 -89 -102 -135t-163 -46q-115 0 -192 68v-57h-95v91q-66 -103 -192 -103q-110 0 -182 81t-72 207q0 125 72.5 206t181.5 81q124 0 193 -107v95h95l-1 -56q79 68 190 68z
M779 464q-63 0 -105.5 -35.5t-57.5 -92.5h320q-13 58 -54.5 93t-102.5 35zM326 96q73 0 121 50t48 129q0 78 -48 128.5t-121 50.5q-71 0 -117.5 -50t-46.5 -129t46 -129t118 -50z" />
    <glyph glyph-name="ccedilla" unicode="&#xe7;" horiz-adv-x="642" 
d="M333 93q55 0 96.5 29t57.5 79h117q-17 -92 -85 -148t-160 -64l-35 -68q40 -8 66 -30t26 -60q0 -46 -39 -69.5t-106 -23.5q-27 0 -59 4v58q32 -4 46 -4q70 0 70 41q0 42 -91 50l46 105q-104 17 -169.5 95.5t-65.5 187.5q0 123 81.5 205t204.5 82q100 0 176 -57.5
t94 -154.5h-117q-15 51 -57 79t-96 28q-76 0 -124 -51t-48 -131t48 -131t123 -51z" />
    <glyph glyph-name="egrave" unicode="&#xe8;" horiz-adv-x="654" 
d="M442 675l-52 -51l-179 147l67 68zM332 562q131 0 208.5 -90.5t69.5 -227.5h-447q7 -74 54 -115.5t118 -41.5q50 0 89 21t58 61h117q-31 -89 -102 -135t-163 -46q-125 0 -205.5 80.5t-80.5 205.5t80 206.5t204 81.5zM332 464q-63 0 -105.5 -35.5t-57.5 -92.5h320
q-13 58 -54.5 93t-102.5 35z" />
    <glyph glyph-name="eacute" unicode="&#xe9;" horiz-adv-x="654" 
d="M442 772l-180 -147l-51 52l163 163zM332 562q131 0 208.5 -90.5t69.5 -227.5h-447q7 -74 54 -115.5t118 -41.5q50 0 89 21t58 61h117q-31 -89 -102 -135t-163 -46q-125 0 -205.5 80.5t-80.5 205.5t80 206.5t204 81.5zM332 464q-63 0 -105.5 -35.5t-57.5 -92.5h320
q-13 58 -54.5 93t-102.5 35z" />
    <glyph glyph-name="ecircumflex" unicode="&#xea;" horiz-adv-x="654" 
d="M326 734l-102 -109l-61 61l163 164l164 -164l-62 -61zM332 562q131 0 208.5 -90.5t69.5 -227.5h-447q7 -74 54 -115.5t118 -41.5q50 0 89 21t58 61h117q-31 -89 -102 -135t-163 -46q-125 0 -205.5 80.5t-80.5 205.5t80 206.5t204 81.5zM332 464q-63 0 -105.5 -35.5
t-57.5 -92.5h320q-13 58 -54.5 93t-102.5 35z" />
    <glyph glyph-name="edieresis" unicode="&#xeb;" horiz-adv-x="654" 
d="M212 664q-29 0 -48 18.5t-19 46.5t19 46t48 18t48 -18t19 -46t-19 -46.5t-48 -18.5zM439 664q-29 0 -48.5 18.5t-19.5 46.5t19.5 46t48.5 18t48.5 -18t19.5 -46t-19.5 -46.5t-48.5 -18.5zM332 562q131 0 208.5 -90.5t69.5 -227.5h-447q7 -74 54 -115.5t118 -41.5
q50 0 89 21t58 61h117q-31 -89 -102 -135t-163 -46q-125 0 -205.5 80.5t-80.5 205.5t80 206.5t204 81.5zM332 464q-63 0 -105.5 -35.5t-57.5 -92.5h320q-13 58 -54.5 93t-102.5 35z" />
    <glyph glyph-name="igrave" unicode="&#xec;" horiz-adv-x="244" 
d="M73 839l164 -164l-52 -51l-179 147zM66 0v550h113v-550h-113z" />
    <glyph glyph-name="iacute" unicode="&#xed;" horiz-adv-x="244" 
d="M169 840l68 -68l-180 -147l-51 52zM66 0v550h113v-550h-113z" />
    <glyph glyph-name="icircumflex" unicode="&#xee;" horiz-adv-x="244" 
d="M286 686l-62 -61l-102 109l-102 -109l-61 61l163 164zM66 0v550h113v-550h-113z" />
    <glyph glyph-name="idieresis" unicode="&#xef;" horiz-adv-x="244" 
d="M8 793q29 0 48 -18t19 -46t-19 -46.5t-48 -18.5t-48 18.5t-19 46.5t19 46t48 18zM235 793q29 0 48.5 -18t19.5 -46t-19.5 -46.5t-48.5 -18.5t-48.5 18.5t-19.5 46.5t19.5 46t48.5 18zM66 0v550h113v-550h-113z" />
    <glyph glyph-name="eth" unicode="&#xf0;" horiz-adv-x="661" 
d="M614 690l-74 -64q74 -109 74 -302q-1 -111 -41.5 -188.5t-103.5 -112.5t-142 -35q-120 0 -199.5 79t-79.5 205q0 118 70.5 191.5t177.5 73.5q63 0 116.5 -28.5t83.5 -81.5q-17 140 -101.5 194t-253.5 54v107q211 0 320 -77l79 68zM331 86q73 0 120.5 49.5t47.5 130.5
q0 77 -50.5 125.5t-122.5 48.5t-118.5 -48t-46.5 -126q0 -81 48.5 -130.5t121.5 -49.5z" />
    <glyph glyph-name="ntilde" unicode="&#xf1;" horiz-adv-x="622" 
d="M242 713q-37 0 -37 -63h-70q0 151 103 151q23 0 39 -8t42 -30q40 -33 60 -33q38 0 38 64h70q0 -152 -104 -152q-23 0 -39.5 8.5t-41.5 29.5q-38 33 -60 33zM363 562q93 0 145.5 -57t52.5 -158v-347h-113v324q0 130 -120 130q-72 0 -110.5 -44.5t-38.5 -124.5v-285h-113
v550h113v-91q63 103 184 103z" />
    <glyph glyph-name="ograve" unicode="&#xf2;" horiz-adv-x="665" 
d="M284 839l164 -164l-52 -51l-179 147zM333 562q120 0 202.5 -82t82.5 -205t-82 -205t-203 -82q-120 0 -202.5 82.5t-82.5 204.5q0 123 83 205t202 82zM333 454q-72 0 -121.5 -50.5t-49.5 -128.5q0 -79 49 -129t122 -50t122 50t49 129q0 78 -49.5 128.5t-121.5 50.5z" />
    <glyph glyph-name="oacute" unicode="&#xf3;" horiz-adv-x="665" 
d="M380 840l68 -68l-180 -147l-51 52zM333 562q120 0 202.5 -82t82.5 -205t-82 -205t-203 -82q-120 0 -202.5 82.5t-82.5 204.5q0 123 83 205t202 82zM333 454q-72 0 -121.5 -50.5t-49.5 -128.5q0 -79 49 -129t122 -50t122 50t49 129q0 78 -49.5 128.5t-121.5 50.5z" />
    <glyph glyph-name="ocircumflex" unicode="&#xf4;" horiz-adv-x="665" 
d="M496 686l-62 -61l-102 109l-102 -109l-61 61l163 164zM333 562q120 0 202.5 -82t82.5 -205t-82 -205t-203 -82q-120 0 -202.5 82.5t-82.5 204.5q0 123 83 205t202 82zM333 454q-72 0 -121.5 -50.5t-49.5 -128.5q0 -79 49 -129t122 -50t122 50t49 129q0 78 -49.5 128.5
t-121.5 50.5z" />
    <glyph glyph-name="otilde" unicode="&#xf5;" horiz-adv-x="665" 
d="M438 794h70q0 -152 -104 -152q-23 0 -39.5 8.5t-41.5 29.5q-38 33 -60 33q-37 0 -37 -63h-70q0 151 103 151q23 0 39 -8t42 -30q40 -33 60 -33q38 0 38 64zM333 562q120 0 202.5 -82t82.5 -205t-82 -205t-203 -82q-120 0 -202.5 82.5t-82.5 204.5q0 123 83 205t202 82z
M333 454q-72 0 -121.5 -50.5t-49.5 -128.5q0 -79 49 -129t122 -50t122 50t49 129q0 78 -49.5 128.5t-121.5 50.5z" />
    <glyph glyph-name="odieresis" unicode="&#xf6;" horiz-adv-x="665" 
d="M218 793q29 0 48 -18t19 -46t-19 -46.5t-48 -18.5t-48 18.5t-19 46.5t19 46t48 18zM445 793q29 0 48.5 -18t19.5 -46t-19.5 -46.5t-48.5 -18.5t-48.5 18.5t-19.5 46.5t19.5 46t48.5 18zM333 562q120 0 202.5 -82t82.5 -205t-82 -205t-203 -82q-120 0 -202.5 82.5
t-82.5 204.5q0 123 83 205t202 82zM333 454q-72 0 -121.5 -50.5t-49.5 -128.5q0 -79 49 -129t122 -50t122 50t49 129q0 78 -49.5 128.5t-121.5 50.5z" />
    <glyph glyph-name="divide" unicode="&#xf7;" horiz-adv-x="664" 
d="M332 556q32 0 53 -19.5t21 -49.5t-21 -49.5t-53 -19.5t-53 19.5t-21 49.5t21 49.5t53 19.5zM583 353v-108h-501v108h501zM332 180q32 0 53 -19.5t21 -49.5t-21 -49t-53 -19t-53 19t-21 49t21 49.5t53 19.5z" />
    <glyph glyph-name="oslash" unicode="&#xf8;" horiz-adv-x="665" 
d="M527 487q91 -83 91 -212q0 -123 -82 -205t-203 -82q-74 0 -139 35l-16 -23h-85l45 63q-90 82 -90 212q0 123 83 205t202 82q71 0 137 -34l16 22h86zM162 275q0 -71 41 -120l203 283q-35 16 -73 16q-72 0 -121.5 -50.5t-49.5 -128.5zM333 96q73 0 122 50t49 129
q0 72 -43 121l-203 -284q37 -16 75 -16z" />
    <glyph glyph-name="ugrave" unicode="&#xf9;" horiz-adv-x="616" 
d="M421 675l-52 -51l-179 147l67 68zM439 550h113v-550h-113v91q-64 -103 -183 -103q-91 0 -143 57t-52 158v347h113v-324q0 -130 118 -130q70 0 108.5 44.5t38.5 124.5v285z" />
    <glyph glyph-name="uacute" unicode="&#xfa;" horiz-adv-x="616" 
d="M421 772l-180 -147l-51 52l163 163zM439 550h113v-550h-113v91q-64 -103 -183 -103q-91 0 -143 57t-52 158v347h113v-324q0 -130 118 -130q70 0 108.5 44.5t38.5 124.5v285z" />
    <glyph glyph-name="ucircumflex" unicode="&#xfb;" horiz-adv-x="616" 
d="M306 734l-102 -109l-61 61l163 164l164 -164l-62 -61zM439 550h113v-550h-113v91q-64 -103 -183 -103q-91 0 -143 57t-52 158v347h113v-324q0 -130 118 -130q70 0 108.5 44.5t38.5 124.5v285z" />
    <glyph glyph-name="udieresis" unicode="&#xfc;" horiz-adv-x="616" 
d="M192 664q-29 0 -48 18.5t-19 46.5t19 46t48 18t48 -18t19 -46t-19 -46.5t-48 -18.5zM419 664q-29 0 -48.5 18.5t-19.5 46.5t19.5 46t48.5 18t48.5 -18t19.5 -46t-19.5 -46.5t-48.5 -18.5zM439 550h113v-550h-113v91q-64 -103 -183 -103q-91 0 -143 57t-52 158v347h113
v-324q0 -130 118 -130q70 0 108.5 44.5t38.5 124.5v285z" />
    <glyph glyph-name="yacute" unicode="&#xfd;" horiz-adv-x="605" 
d="M418 772l-180 -147l-51 52l163 163zM460 550h121l-364 -800h-121l145 320l-217 480h121l156 -358z" />
    <glyph glyph-name="thorn" unicode="&#xfe;" horiz-adv-x="678" 
d="M377 562q109 0 181 -81t72 -206q0 -126 -71.5 -206.5t-182.5 -80.5q-125 0 -192 104v-342h-113v1020h113v-314q67 106 193 106zM352 96q72 0 118 50t46 129t-46 129t-118 50q-73 0 -121 -50.5t-48 -128.5q0 -79 48 -129t121 -50z" />
    <glyph glyph-name="ydieresis" unicode="&#xff;" horiz-adv-x="605" 
d="M188 664q-29 0 -48 18.5t-19 46.5t19 46t48 18t48 -18t19 -46t-19 -46.5t-48 -18.5zM415 664q-29 0 -48.5 18.5t-19.5 46.5t19.5 46t48.5 18t48.5 -18t19.5 -46t-19.5 -46.5t-48.5 -18.5zM460 550h121l-364 -800h-121l145 320l-217 480h121l156 -358z" />
    <glyph glyph-name="Amacron" unicode="&#x100;" horiz-adv-x="748" 
d="M499 915v-84h-250v84h250zM597 0l-71 188h-304l-71 -188h-120l271 700h144l271 -700h-120zM263 295h222l-111 293z" />
    <glyph glyph-name="amacron" unicode="&#x101;" horiz-adv-x="673" 
d="M468 770v-83h-250v83h250zM494 550h113v-550h-113v92q-66 -104 -192 -104q-111 0 -182.5 80.5t-71.5 206.5q0 125 72 206t181 81q126 0 193 -106v94zM326 96q73 0 121 50t48 129q0 78 -48 128.5t-121 50.5q-72 0 -118 -50t-46 -129t46 -129t118 -50z" />
    <glyph glyph-name="Abreve" unicode="&#x102;" horiz-adv-x="748" 
d="M374 777q-69 0 -116.5 43t-47.5 113v22h90v-19q0 -33 20 -52.5t54 -19.5q33 0 53 19.5t20 52.5v19h90v-22q0 -70 -47.5 -113t-115.5 -43zM597 0l-71 188h-304l-71 -188h-120l271 700h144l271 -700h-120zM263 295h222l-111 293z" />
    <glyph glyph-name="abreve" unicode="&#x103;" horiz-adv-x="673" 
d="M343 633q-69 0 -116.5 42.5t-47.5 112.5v23h90v-19q0 -34 20 -53.5t54 -19.5q33 0 53 19.5t20 53.5v19h90v-23q0 -70 -47.5 -112.5t-115.5 -42.5zM494 550h113v-550h-113v92q-66 -104 -192 -104q-111 0 -182.5 80.5t-71.5 206.5q0 125 72 206t181 81q126 0 193 -106v94z
M326 96q73 0 121 50t48 129q0 78 -48 128.5t-121 50.5q-72 0 -118 -50t-46 -129t46 -129t118 -50z" />
    <glyph glyph-name="Aogonek" unicode="&#x104;" horiz-adv-x="748" 
d="M717 0q-60 -66 -81 -95.5t-21 -56.5q0 -46 59 -46q23 0 43 5v-65q-32 -4 -61 -4q-59 0 -94 23.5t-35 72.5q0 41 26.5 75.5t88.5 90.5h-45l-71 188h-304l-71 -188h-120l271 700h144zM263 295h222l-111 293z" />
    <glyph glyph-name="aogonek" unicode="&#x105;" horiz-adv-x="673" 
d="M494 550h113v-550h-1q-60 -66 -81 -95.5t-21 -56.5q0 -46 59 -46q23 0 43 5v-65q-32 -4 -61 -4q-59 0 -94 23.5t-35 72.5q0 41 26.5 76t86.5 90h-35v92q-66 -104 -192 -104q-111 0 -182.5 80.5t-71.5 206.5q0 125 72 206t181 81q126 0 193 -106v94zM326 96q73 0 121 50
t48 129q0 78 -48 128.5t-121 50.5q-72 0 -118 -50t-46 -129t46 -129t118 -50z" />
    <glyph glyph-name="Cacute" unicode="&#x106;" horiz-adv-x="792" 
d="M443 985l68 -68l-180 -147l-51 51zM416 -12q-156 0 -258.5 103t-102.5 259t102.5 259t258.5 103q120 0 211 -66.5t124 -176.5h-121q-28 62 -85 98.5t-130 36.5q-107 0 -176.5 -72t-69.5 -182t69.5 -182t176.5 -72q73 0 130 36.5t85 98.5h121q-33 -110 -124 -176.5
t-211 -66.5z" />
    <glyph glyph-name="cacute" unicode="&#x107;" horiz-adv-x="642" 
d="M371 840l68 -68l-180 -147l-51 52zM333 -12q-122 0 -203.5 82t-81.5 205t81.5 205t204.5 82q100 0 176 -57.5t94 -154.5h-117q-15 51 -57 79t-96 28q-76 0 -124 -51t-48 -131t48 -131t123 -51q55 0 96.5 29t57.5 79h117q-19 -99 -95 -156t-176 -57z" />
    <glyph glyph-name="Ccaron" unicode="&#x10c;" horiz-adv-x="792" 
d="M560 936l-164 -164l-163 164l61 61l102 -108l102 108zM416 -12q-156 0 -258.5 103t-102.5 259t102.5 259t258.5 103q120 0 211 -66.5t124 -176.5h-121q-28 62 -85 98.5t-130 36.5q-107 0 -176.5 -72t-69.5 -182t69.5 -182t176.5 -72q73 0 130 36.5t85 98.5h121
q-33 -110 -124 -176.5t-211 -66.5z" />
    <glyph glyph-name="ccaron" unicode="&#x10d;" horiz-adv-x="642" 
d="M487 789l-164 -164l-163 164l61 61l102 -108l102 108zM333 -12q-122 0 -203.5 82t-81.5 205t81.5 205t204.5 82q100 0 176 -57.5t94 -154.5h-117q-15 51 -57 79t-96 28q-76 0 -124 -51t-48 -131t48 -131t123 -51q55 0 96.5 29t57.5 79h117q-19 -99 -95 -156t-176 -57z
" />
    <glyph glyph-name="Dcaron" unicode="&#x10e;" horiz-adv-x="737" 
d="M491 936l-164 -164l-163 164l61 61l102 -108l102 108zM327 700q154 0 256 -99t102 -251q0 -151 -102.5 -250.5t-255.5 -99.5h-245v700h245zM328 108q106 0 175 67.5t69 174.5q0 106 -69 174t-175 68h-133v-484h133z" />
    <glyph glyph-name="dcaron" unicode="&#x10f;" horiz-adv-x="679" 
d="M800 733q0 -28 -54 -133h-64l46 87q-43 7 -43 46q0 24 17 38.5t40 14.5t40 -14t18 -39zM501 456v314h113v-770h-113v92q-69 -104 -193 -104q-111 0 -182.5 80.5t-71.5 206.5q0 125 72 206t181 81q125 0 194 -106zM332 96q73 0 121 50t48 129q0 78 -48 128.5t-121 50.5
q-72 0 -118 -50t-46 -129t46 -129t118 -50z" />
    <glyph glyph-name="Dcroat" unicode="&#x110;" horiz-adv-x="737" 
d="M327 700q154 0 256 -99t102 -251q0 -151 -102.5 -250.5t-255.5 -99.5h-245v296h-64v108h64v296h245zM328 108q106 0 175 67.5t69 174.5q0 106 -69 174t-175 68h-133v-188h122v-108h-122v-188h133z" />
    <glyph glyph-name="dcroat" unicode="&#x111;" horiz-adv-x="679" 
d="M663 718v-108h-49v-610h-113v92q-69 -104 -193 -104q-111 0 -182.5 80.5t-71.5 206.5q0 125 72 206t181 81q125 0 194 -106v154h-137v108h137v52h113v-52h49zM332 96q73 0 121 50t48 129q0 78 -48 128.5t-121 50.5q-72 0 -118 -50t-46 -129t46 -129t118 -50z" />
    <glyph glyph-name="Emacron" unicode="&#x112;" horiz-adv-x="580" 
d="M415 915v-84h-250v84h250zM539 592h-344v-181h319v-108h-319v-195h344v-108h-457v700h457v-108z" />
    <glyph glyph-name="emacron" unicode="&#x113;" horiz-adv-x="654" 
d="M451 770v-83h-250v83h250zM332 562q131 0 208.5 -90.5t69.5 -227.5h-447q7 -74 54 -115.5t118 -41.5q50 0 89 21t58 61h117q-31 -89 -102 -135t-163 -46q-125 0 -205.5 80.5t-80.5 205.5t80 206.5t204 81.5zM332 464q-63 0 -105.5 -35.5t-57.5 -92.5h320q-13 58 -54.5 93
t-102.5 35z" />
    <glyph glyph-name="Edotaccent" unicode="&#x116;" horiz-adv-x="580" 
d="M290 809q-29 0 -48 18.5t-19 46.5t19 46.5t48 18.5t48 -18.5t19 -46.5t-19 -46.5t-48 -18.5zM539 592h-344v-181h319v-108h-319v-195h344v-108h-457v700h457v-108z" />
    <glyph glyph-name="edotaccent" unicode="&#x117;" horiz-adv-x="654" 
d="M326 658q-31 0 -52 20t-21 51q0 30 21 49.5t52 19.5q32 0 53 -19.5t21 -49.5q0 -31 -21 -51t-53 -20zM332 562q131 0 208.5 -90.5t69.5 -227.5h-447q7 -74 54 -115.5t118 -41.5q50 0 89 21t58 61h117q-31 -89 -102 -135t-163 -46q-125 0 -205.5 80.5t-80.5 205.5
t80 206.5t204 81.5zM332 464q-63 0 -105.5 -35.5t-57.5 -92.5h320q-13 58 -54.5 93t-102.5 35z" />
    <glyph glyph-name="Eogonek" unicode="&#x118;" horiz-adv-x="580" 
d="M539 592h-344v-181h319v-108h-319v-195h344v-108q-60 -66 -81 -95.5t-21 -56.5q0 -46 59 -46q23 0 43 5v-65q-32 -4 -61 -4q-59 0 -94 23.5t-35 72.5q0 41 26.5 75.5t88.5 90.5h-382v700h457v-108z" />
    <glyph glyph-name="eogonek" unicode="&#x119;" horiz-adv-x="654" 
d="M332 562q131 0 208.5 -90.5t69.5 -227.5h-447q7 -74 54 -115.5t118 -41.5q50 0 89 21t58 61h117q-46 -133 -178 -169h3q-60 -66 -81 -95.5t-21 -56.5q0 -46 59 -46q23 0 43 5v-65q-32 -4 -61 -4q-59 0 -94 23.5t-35 72.5q0 39 23.5 71.5t76.5 83.5v-1q-125 0 -205.5 80.5
t-80.5 205.5t80 206.5t204 81.5zM332 464q-63 0 -105.5 -35.5t-57.5 -92.5h320q-13 58 -54.5 93t-102.5 35z" />
    <glyph glyph-name="Ecaron" unicode="&#x11a;" horiz-adv-x="580" 
d="M454 936l-164 -164l-163 164l61 61l102 -108l102 108zM539 592h-344v-181h319v-108h-319v-195h344v-108h-457v700h457v-108z" />
    <glyph glyph-name="ecaron" unicode="&#x11b;" horiz-adv-x="654" 
d="M490 789l-164 -164l-163 164l61 61l102 -108l102 108zM332 562q131 0 208.5 -90.5t69.5 -227.5h-447q7 -74 54 -115.5t118 -41.5q50 0 89 21t58 61h117q-31 -89 -102 -135t-163 -46q-125 0 -205.5 80.5t-80.5 205.5t80 206.5t204 81.5zM332 464q-63 0 -105.5 -35.5
t-57.5 -92.5h320q-13 58 -54.5 93t-102.5 35z" />
    <glyph glyph-name="Gcommaaccent" unicode="&#x122;" horiz-adv-x="831" 
d="M376 372h378v-372h-98v140q-25 -69 -93 -110.5t-160 -41.5q-149 0 -250 102.5t-101 258.5q0 157 103 260t258 103q121 0 211.5 -65t123.5 -173h-121q-29 61 -85.5 95.5t-129.5 34.5q-107 0 -176.5 -72.5t-69.5 -184.5q0 -109 67 -181.5t178 -72.5q89 0 152 49.5t76 133.5
h-263v96zM419 -64q23 0 39.5 -14t17.5 -39t-53 -133h-65l46 87q-43 7 -43 46q0 24 17 38.5t41 14.5z" />
    <glyph glyph-name="gcommaaccent" unicode="&#x123;" horiz-adv-x="673" 
d="M334 625q-23 0 -40 14.5t-17 38.5q-1 25 53 134h64l-46 -87q44 -7 44 -47q0 -24 -17 -38.5t-41 -14.5zM494 550h113v-543q0 -123 -72 -196t-194 -73q-104 0 -180.5 53t-93.5 152h117q14 -51 55 -77.5t99 -26.5q76 0 116 42t40 122v94q-69 -103 -192 -103q-110 0 -182 80
t-72 204q0 123 72.5 203.5t181.5 80.5q62 0 111.5 -28.5t80.5 -77.5v94zM326 102q73 0 121 49.5t48 126.5q0 76 -48.5 126t-120.5 50t-118 -49.5t-46 -126.5t46.5 -126.5t117.5 -49.5z" />
    <glyph glyph-name="Imacron" unicode="&#x12a;" horiz-adv-x="277" 
d="M263 915v-84h-250v84h250zM82 0v700h113v-700h-113z" />
    <glyph glyph-name="imacron" unicode="&#x12b;" horiz-adv-x="244" 
d="M247 770v-83h-250v83h250zM66 0v550h113v-550h-113z" />
    <glyph glyph-name="Iogonek" unicode="&#x12e;" horiz-adv-x="277" 
d="M82 700h113v-700q-60 -66 -81 -95.5t-21 -56.5q0 -46 59 -46q23 0 43 5v-65q-32 -4 -61 -4q-59 0 -94 23.5t-35 72.5q0 41 26.5 75.5t88.5 90.5h-38v700z" />
    <glyph glyph-name="iogonek" unicode="&#x12f;" horiz-adv-x="244" 
d="M122 658q-31 0 -52 20t-21 51q0 30 21 49.5t52 19.5q32 0 53 -19.5t21 -49.5q0 -31 -21 -51t-53 -20zM66 0v550h113v-550h-1q-60 -66 -81 -95.5t-21 -56.5q0 -46 59 -46q23 0 43 5v-65q-32 -4 -61 -4q-59 0 -94 23.5t-35 72.5q0 41 26.5 76t86.5 90h-35z" />
    <glyph glyph-name="dotlessi" unicode="&#x131;" horiz-adv-x="244" 
d="M66 0v550h113v-550h-113z" />
    <glyph glyph-name="Kcommaaccent" unicode="&#x136;" horiz-adv-x="665" 
d="M318 359l316 -359h-143l-296 334v-334h-113v700h113v-320l283 320h142zM337 -64q23 0 39.5 -14t17.5 -39t-53 -133h-65l46 87q-43 7 -43 46q0 24 17 38.5t41 14.5z" />
    <glyph glyph-name="kcommaaccent" unicode="&#x137;" horiz-adv-x="613" 
d="M298 289l291 -289h-146l-259 254v-254h-113v770h113v-458l238 238h145zM310 -64q23 0 39.5 -14t17.5 -39t-53 -133h-65l46 87q-43 7 -43 46q0 24 17 38.5t41 14.5z" />
    <glyph glyph-name="Lacute" unicode="&#x139;" horiz-adv-x="544" 
d="M388 917l-180 -147l-51 51l163 164zM195 108h319v-108h-432v700h113v-592z" />
    <glyph glyph-name="lacute" unicode="&#x13a;" horiz-adv-x="244" 
d="M168 1055l68 -68l-180 -147l-51 51zM67 0v770h114v-770h-114z" />
    <glyph glyph-name="Lcommaaccent" unicode="&#x13b;" horiz-adv-x="544" 
d="M195 108h319v-108h-432v700h113v-592zM277 -64q23 0 39.5 -14t17.5 -39t-53 -133h-65l46 87q-43 7 -43 46q0 24 17 38.5t41 14.5z" />
    <glyph glyph-name="lcommaaccent" unicode="&#x13c;" horiz-adv-x="244" 
d="M181 770v-770h-114v770h114zM182 -117q1 -25 -53 -133h-65l46 87q-43 7 -43 46q0 24 17 38.5t41 14.5q23 0 39.5 -14t17.5 -39z" />
    <glyph glyph-name="Lcaron" unicode="&#x13d;" horiz-adv-x="544" 
d="M385 526h-64l46 87q-43 7 -43 46q0 24 17 38.5t40 14.5t40 -14.5t18 -38.5q0 -28 -54 -133zM195 108h319v-108h-432v700h113v-592z" />
    <glyph glyph-name="lcaron" unicode="&#x13e;" horiz-adv-x="241" 
d="M367 733q1 -25 -53 -133h-65l47 87q-44 7 -44 46q0 24 17 38.5t41 14.5q23 0 39.5 -14t17.5 -39zM67 0v770h114v-770h-114z" />
    <glyph glyph-name="Lslash" unicode="&#x141;" horiz-adv-x="544" 
d="M195 108h319v-108h-432v261l-64 -16v108l64 16v331h113v-303l123 30v-108l-123 -30v-181z" />
    <glyph glyph-name="lslash" unicode="&#x142;" horiz-adv-x="241" 
d="M261 422v-108l-80 -20v-294h-114v266l-84 -21v108l84 21v396h114v-368z" />
    <glyph glyph-name="Nacute" unicode="&#x143;" horiz-adv-x="740" 
d="M485 917l-180 -147l-51 51l163 164zM550 700h113v-700h-134l-350 541l11 -248v-293h-113v700h133l350 -540l-10 247v293z" />
    <glyph glyph-name="nacute" unicode="&#x144;" horiz-adv-x="622" 
d="M426 772l-180 -147l-51 52l163 163zM363 562q93 0 145.5 -57t52.5 -158v-347h-113v324q0 130 -120 130q-72 0 -110.5 -44.5t-38.5 -124.5v-285h-113v550h113v-91q63 103 184 103z" />
    <glyph glyph-name="Ncommaaccent" unicode="&#x145;" horiz-adv-x="740" 
d="M550 700h113v-700h-134l-350 541l11 -248v-293h-113v700h133l350 -540l-10 247v293zM374 -64q23 0 39.5 -14t17.5 -39t-53 -133h-65l46 87q-43 7 -43 46q0 24 17 38.5t41 14.5z" />
    <glyph glyph-name="ncommaaccent" unicode="&#x146;" horiz-adv-x="622" 
d="M363 562q93 0 145.5 -57t52.5 -158v-347h-113v324q0 130 -120 130q-72 0 -110.5 -44.5t-38.5 -124.5v-285h-113v550h113v-91q63 103 184 103zM315 -64q23 0 39.5 -14t17.5 -39t-53 -133h-65l46 87q-43 7 -43 46q0 24 17 38.5t41 14.5z" />
    <glyph glyph-name="Ncaron" unicode="&#x147;" horiz-adv-x="740" 
d="M533 936l-164 -164l-163 164l61 61l102 -108l102 108zM550 700h113v-700h-134l-350 541l11 -248v-293h-113v700h133l350 -540l-10 247v293z" />
    <glyph glyph-name="ncaron" unicode="&#x148;" horiz-adv-x="622" 
d="M475 789l-164 -164l-163 164l61 61l102 -108l102 108zM363 562q93 0 145.5 -57t52.5 -158v-347h-113v324q0 130 -120 130q-72 0 -110.5 -44.5t-38.5 -124.5v-285h-113v550h113v-91q63 103 184 103z" />
    <glyph glyph-name="Eng" unicode="&#x14a;" horiz-adv-x="740" 
d="M550 700h113v-700v-39q0 -109 -56 -166t-146 -57q-89 0 -156 40l19 92q79 -27 118 -27q108 0 108 124v33h-21l-350 541l11 -248v-293h-113v700h133l350 -540l-10 247v293z" />
    <glyph glyph-name="eng" unicode="&#x14b;" horiz-adv-x="622" 
d="M363 562q93 0 145.5 -57t52.5 -158v-347v-39q0 -109 -56 -166t-146 -57q-43 0 -86.5 12.5t-69.5 27.5l20 92q77 -27 117 -27q108 0 108 124v182v175q0 130 -120 130q-72 0 -110.5 -44.5t-38.5 -124.5v-285h-113v550h113v-91q63 103 184 103z" />
    <glyph glyph-name="Omacron" unicode="&#x14c;" horiz-adv-x="829" 
d="M540 915v-84h-250v84h250zM415 712q154 0 258 -104t105 -258q-1 -154 -105 -258t-258 -104t-258.5 104t-104.5 258t104.5 258t258.5 104zM415 604q-107 0 -178 -72.5t-71 -181.5t71 -181.5t178 -72.5q106 0 177 72.5t71 181.5t-71 181.5t-177 72.5z" />
    <glyph glyph-name="omacron" unicode="&#x14d;" horiz-adv-x="665" 
d="M457 770v-83h-250v83h250zM333 562q120 0 202.5 -82t82.5 -205t-82 -205t-203 -82q-120 0 -202.5 82.5t-82.5 204.5q0 123 83 205t202 82zM333 454q-72 0 -121.5 -50.5t-49.5 -128.5q0 -79 49 -129t122 -50t122 50t49 129q0 78 -49.5 128.5t-121.5 50.5z" />
    <glyph glyph-name="Ohungarumlaut" unicode="&#x150;" horiz-adv-x="829" 
d="M362 992l70 -33l-118 -189l-51 25zM496 992l70 -33l-118 -189l-51 25zM415 712q154 0 258 -104t105 -258q-1 -154 -105 -258t-258 -104t-258.5 104t-104.5 258t104.5 258t258.5 104zM415 604q-107 0 -178 -72.5t-71 -181.5t71 -181.5t178 -72.5q106 0 177 72.5t71 181.5
t-71 181.5t-177 72.5z" />
    <glyph glyph-name="ohungarumlaut" unicode="&#x151;" horiz-adv-x="665" 
d="M280 848l70 -34l-118 -189l-51 25zM414 848l70 -34l-118 -189l-51 25zM333 562q120 0 202.5 -82t82.5 -205t-82 -205t-203 -82q-120 0 -202.5 82.5t-82.5 204.5q0 123 83 205t202 82zM333 454q-72 0 -121.5 -50.5t-49.5 -128.5q0 -79 49 -129t122 -50t122 50t49 129
q0 78 -49.5 128.5t-121.5 50.5z" />
    <glyph glyph-name="OE" unicode="&#x152;" horiz-adv-x="1162" 
d="M1121 592h-345v-181h319v-108h-319v-195h345v-108h-458v92q-97 -104 -248 -104q-154 0 -258.5 104t-104.5 258t104.5 258t258.5 104q151 0 248 -104v92h458v-108zM415 96q106 0 177 72.5t71 181.5t-71 181.5t-177 72.5q-107 0 -178 -72.5t-71 -181.5t71 -181.5t178 -72.5
z" />
    <glyph glyph-name="oe" unicode="&#x153;" horiz-adv-x="1110" 
d="M788 562q131 0 208.5 -90.5t69.5 -227.5h-447q7 -74 54 -115.5t118 -41.5q50 0 89 21t58 61h117q-32 -89 -103 -135t-162 -46q-74 0 -134.5 29.5t-98.5 82.5q-37 -53 -96 -83t-128 -30q-120 0 -202.5 82.5t-82.5 205.5t83 205t202 82q69 0 128 -30.5t96 -83.5
q38 54 98 84t133 30zM787 464q-63 0 -105.5 -35.5t-56.5 -92.5h320q-13 58 -54.5 93t-103.5 35zM333 96q73 0 122 50t49 129q0 78 -49.5 128.5t-121.5 50.5t-121.5 -50.5t-49.5 -128.5q0 -79 49 -129t122 -50z" />
    <glyph glyph-name="Racute" unicode="&#x154;" horiz-adv-x="673" 
d="M452 917l-180 -147l-51 51l163 164zM503 0l-200 261h-108v-261h-113v700h289q112 0 175 -60.5t63 -161.5q0 -86 -46 -140.5t-130 -70.5l209 -267h-139zM195 592v-231h164q67 0 101.5 31.5t34.5 84.5t-34.5 84t-101.5 31h-164z" />
    <glyph glyph-name="racute" unicode="&#x155;" horiz-adv-x="419" 
d="M325 772l-180 -147l-51 52l163 163zM362 562q21 0 33 -3v-115q-20 2 -34 2q-82 0 -132 -48.5t-50 -145.5v-252h-113v550h113v-109q52 121 183 121z" />
    <glyph glyph-name="Rcommaaccent" unicode="&#x156;" horiz-adv-x="673" 
d="M433 267l209 -267h-139l-200 261h-108v-261h-113v700h289q112 0 175 -60.5t63 -161.5q0 -86 -46 -140.5t-130 -70.5zM195 592v-231h164q67 0 101.5 31.5t34.5 84.5t-34.5 84t-101.5 31h-164zM341 -64q23 0 39.5 -14t17.5 -39t-53 -133h-65l46 87q-43 7 -43 46
q0 24 17 38.5t41 14.5z" />
    <glyph glyph-name="rcommaaccent" unicode="&#x157;" horiz-adv-x="419" 
d="M362 562q21 0 33 -3v-115q-20 2 -34 2q-82 0 -132 -48.5t-50 -145.5v-252h-113v550h113v-109q52 121 183 121zM214 -64q23 0 39.5 -14t17.5 -39t-53 -133h-65l46 87q-43 7 -43 46q0 24 17 38.5t41 14.5z" />
    <glyph glyph-name="Rcaron" unicode="&#x158;" horiz-adv-x="673" 
d="M500 936l-164 -164l-163 164l61 61l102 -108l102 108zM503 0l-200 261h-108v-261h-113v700h289q112 0 175 -60.5t63 -161.5q0 -86 -46 -140.5t-130 -70.5l209 -267h-139zM195 592v-231h164q67 0 101.5 31.5t34.5 84.5t-34.5 84t-101.5 31h-164z" />
    <glyph glyph-name="rcaron" unicode="&#x159;" horiz-adv-x="419" 
d="M374 789l-164 -164l-163 164l61 61l102 -108l102 108zM362 562q21 0 33 -3v-115q-20 2 -34 2q-82 0 -132 -48.5t-50 -145.5v-252h-113v550h113v-109q52 121 183 121z" />
    <glyph glyph-name="Sacute" unicode="&#x15a;" horiz-adv-x="644" 
d="M369 985l68 -68l-180 -147l-51 51zM329 412q74 -16 118.5 -30.5t83.5 -38.5t55.5 -58t16.5 -84q0 -106 -77.5 -159.5t-183.5 -53.5q-137 0 -211 64.5t-90 164.5h114q16 -62 60.5 -92.5t125.5 -30.5q71 0 109.5 26.5t38.5 75.5q0 44 -36 62t-141 41q-7 1 -10 2
q-58 13 -96 26t-74.5 35t-54 56.5t-17.5 81.5q0 99 75 155.5t182 56.5q124 0 192.5 -56t84.5 -146h-114q-33 96 -162 96q-69 0 -107 -28t-38 -75q0 -36 32.5 -53.5t123.5 -37.5z" />
    <glyph glyph-name="sacute" unicode="&#x15b;" horiz-adv-x="584" 
d="M340 840l68 -68l-180 -147l-51 52zM309 -12q-109 0 -181.5 50t-88.5 139h115q13 -46 50 -67.5t107 -21.5q55 0 86.5 16.5t31.5 46.5q0 20 -15.5 33t-36 19t-66.5 17q-17 4 -26 6q-123 30 -171 62.5t-48 98.5q0 82 63.5 128.5t168.5 46.5q103 0 163.5 -44.5t76.5 -122.5
h-114q-24 67 -128 67q-54 0 -85 -17t-31 -46q0 -25 25 -36.5t105 -30.5q52 -12 82.5 -20.5t63.5 -22.5t50 -30t28 -39.5t11 -55.5q0 -85 -66.5 -130.5t-169.5 -45.5z" />
    <glyph glyph-name="Scedilla" unicode="&#x15e;" horiz-adv-x="644" 
d="M603 201q0 -102 -72 -155.5t-174 -57.5l-34 -67q40 -8 66 -30t26 -60q0 -46 -39 -69.5t-106 -23.5q-27 0 -59 4v58q32 -4 46 -4q70 0 70 41q0 42 -91 50l45 105q-108 14 -167 75.5t-73 149.5h114q16 -62 60.5 -92.5t125.5 -30.5q71 0 109.5 26.5t38.5 75.5q0 44 -36 62
t-141 41q-7 1 -10 2q-58 13 -96 26t-74.5 35t-54 56.5t-17.5 81.5q0 99 75 155.5t182 56.5q124 0 192.5 -56t84.5 -146h-114q-33 96 -162 96q-69 0 -107 -28t-38 -75q0 -36 32.5 -53.5t123.5 -37.5q74 -16 118.5 -30.5t83.5 -38.5t55.5 -58t16.5 -84z" />
    <glyph glyph-name="scedilla" unicode="&#x15f;" horiz-adv-x="584" 
d="M545 164q0 -81 -60.5 -126t-156.5 -49l-34 -68q40 -8 66 -30t26 -60q0 -46 -39 -69.5t-106 -23.5q-27 0 -59 4v58q32 -4 46 -4q70 0 70 41q0 42 -91 50l46 105q-88 12 -144.5 60t-69.5 125h115q13 -46 50 -67.5t107 -21.5q55 0 86.5 16.5t31.5 46.5q0 20 -15.5 33t-36 19
t-66.5 17q-17 4 -26 6q-123 30 -171 62.5t-48 98.5q0 82 63.5 128.5t168.5 46.5q103 0 163.5 -44.5t76.5 -122.5h-114q-24 67 -128 67q-54 0 -85 -17t-31 -46q0 -25 25 -36.5t105 -30.5q52 -12 82.5 -20.5t63.5 -22.5t50 -30t28 -39.5t11 -55.5z" />
    <glyph glyph-name="Scaron" unicode="&#x160;" horiz-adv-x="644" 
d="M486 936l-164 -164l-163 164l61 61l102 -108l102 108zM329 412q74 -16 118.5 -30.5t83.5 -38.5t55.5 -58t16.5 -84q0 -106 -77.5 -159.5t-183.5 -53.5q-137 0 -211 64.5t-90 164.5h114q16 -62 60.5 -92.5t125.5 -30.5q71 0 109.5 26.5t38.5 75.5q0 44 -36 62t-141 41
q-7 1 -10 2q-58 13 -96 26t-74.5 35t-54 56.5t-17.5 81.5q0 99 75 155.5t182 56.5q124 0 192.5 -56t84.5 -146h-114q-33 96 -162 96q-69 0 -107 -28t-38 -75q0 -36 32.5 -53.5t123.5 -37.5z" />
    <glyph glyph-name="scaron" unicode="&#x161;" horiz-adv-x="584" 
d="M457 789l-164 -164l-163 164l61 61l102 -108l102 108zM309 -12q-109 0 -181.5 50t-88.5 139h115q13 -46 50 -67.5t107 -21.5q55 0 86.5 16.5t31.5 46.5q0 20 -15.5 33t-36 19t-66.5 17q-17 4 -26 6q-123 30 -171 62.5t-48 98.5q0 82 63.5 128.5t168.5 46.5
q103 0 163.5 -44.5t76.5 -122.5h-114q-24 67 -128 67q-54 0 -85 -17t-31 -46q0 -25 25 -36.5t105 -30.5q52 -12 82.5 -20.5t63.5 -22.5t50 -30t28 -39.5t11 -55.5q0 -85 -66.5 -130.5t-169.5 -45.5z" />
    <glyph glyph-name="uni0162" unicode="&#x162;" horiz-adv-x="602" 
d="M357 0h-15l-40 -79q40 -8 66 -30t26 -60q0 -46 -39 -69.5t-106 -23.5q-27 0 -59 4v58q32 -4 46 -4q70 0 70 41q0 42 -91 50l49 113h-20v592h-213v108h540v-108h-214v-592z" />
    <glyph glyph-name="uni0163" unicode="&#x163;" horiz-adv-x="521" 
d="M329 -79q40 -8 66 -30t26 -60q0 -46 -39 -69.5t-106 -23.5q-27 0 -59 4v58q32 -4 46 -4q70 0 70 41q0 42 -91 50l45 104q-73 13 -117 68.5t-44 151.5v233h-102v106h102v125l113 25v-150h226v-106h-226v-227q0 -124 108 -124q40 0 117 27l20 -92q-44 -27 -120 -38z" />
    <glyph glyph-name="Tcaron" unicode="&#x164;" horiz-adv-x="602" 
d="M465 936l-164 -164l-163 164l61 61l102 -108l102 108zM571 700v-108h-214v-592h-113v592h-213v108h540z" />
    <glyph glyph-name="tcaron" unicode="&#x165;" horiz-adv-x="528" 
d="M394 600h-64l46 87q-43 7 -43 46q0 24 17 38.5t40 14.5t40 -14t18 -39q0 -28 -54 -133zM464 120l20 -92q-67 -40 -157 -40q-89 0 -145 57t-56 166v233h-102v106h102v125l113 25v-150h226v-106h-226v-227q0 -124 108 -124q40 0 117 27z" />
    <glyph glyph-name="Tbar" unicode="&#x166;" horiz-adv-x="602" 
d="M571 592h-214v-188h94v-108h-94v-296h-113v296h-92v108h92v188h-213v108h540v-108z" />
    <glyph glyph-name="tbar" unicode="&#x167;" horiz-adv-x="521" 
d="M464 120l20 -92q-67 -40 -157 -40q-89 0 -145 57t-56 166v10h-102v108h102v115h-102v106h102v125l113 25v-150h226v-106h-226v-115h84v-108h-84v-4q0 -124 108 -124q40 0 117 27z" />
    <glyph glyph-name="Umacron" unicode="&#x16a;" horiz-adv-x="725" 
d="M488 915v-84h-250v84h250zM533 700h115v-421q0 -141 -78.5 -216t-204.5 -75t-204.5 75t-78.5 216v421h115v-414q0 -97 45.5 -143.5t122.5 -46.5t122.5 46.5t45.5 143.5v414z" />
    <glyph glyph-name="umacron" unicode="&#x16b;" horiz-adv-x="616" 
d="M431 770v-83h-250v83h250zM439 550h113v-550h-113v91q-64 -103 -183 -103q-91 0 -143 57t-52 158v347h113v-324q0 -130 118 -130q70 0 108.5 44.5t38.5 124.5v285z" />
    <glyph glyph-name="Uring" unicode="&#x16e;" horiz-adv-x="725" 
d="M362 1022q53 0 90 -37t36 -89q1 -52 -36.5 -89t-89.5 -37t-88.5 37t-36.5 89q0 53 36.5 89.5t88.5 36.5zM362 955q-24 0 -41.5 -17t-16.5 -43q-1 -25 16.5 -42.5t41.5 -17.5q25 0 42 17.5t17 42.5q0 26 -17 43t-42 17zM533 700h115v-421q0 -141 -78.5 -216t-204.5 -75
t-204.5 75t-78.5 216v421h115v-414q0 -97 45.5 -143.5t122.5 -46.5t122.5 46.5t45.5 143.5v414z" />
    <glyph glyph-name="uring" unicode="&#x16f;" horiz-adv-x="616" 
d="M306 625q-52 0 -88.5 37t-36.5 89q0 53 36.5 89.5t88.5 36.5q53 0 90 -37t36 -89q1 -52 -36.5 -89t-89.5 -37zM306 811q-24 0 -41.5 -17.5t-16.5 -42.5q-1 -26 16.5 -43t41.5 -17q25 0 42 17t17 43q0 25 -17 42.5t-42 17.5zM439 550h113v-550h-113v91q-64 -103 -183 -103
q-91 0 -143 57t-52 158v347h113v-324q0 -130 118 -130q70 0 108.5 44.5t38.5 124.5v285z" />
    <glyph glyph-name="Uhungarumlaut" unicode="&#x170;" horiz-adv-x="725" 
d="M310 992l70 -33l-118 -189l-51 25zM444 992l70 -33l-118 -189l-51 25zM533 700h115v-421q0 -141 -78.5 -216t-204.5 -75t-204.5 75t-78.5 216v421h115v-414q0 -97 45.5 -143.5t122.5 -46.5t122.5 46.5t45.5 143.5v414z" />
    <glyph glyph-name="uhungarumlaut" unicode="&#x171;" horiz-adv-x="616" 
d="M323 814l-118 -189l-51 25l99 198zM339 625l-51 25l99 198l70 -34zM439 550h113v-550h-113v91q-64 -103 -183 -103q-91 0 -143 57t-52 158v347h113v-324q0 -130 118 -130q70 0 108.5 44.5t38.5 124.5v285z" />
    <glyph glyph-name="Uogonek" unicode="&#x172;" horiz-adv-x="725" 
d="M533 700h115v-421q0 -113 -51.5 -184t-139.5 -95q-60 -66 -81 -95.5t-21 -56.5q0 -46 59 -46q23 0 43 5v-65q-32 -4 -61 -4q-59 0 -94 23.5t-35 72.5q0 39 24 72t78 82h-4q-126 0 -204.5 75t-78.5 216v421h115v-414q0 -97 45.5 -143.5t122.5 -46.5t122.5 46.5t45.5 143.5
v414z" />
    <glyph glyph-name="uogonek" unicode="&#x173;" horiz-adv-x="616" 
d="M439 550h113v-550h-1q-60 -66 -81 -95.5t-21 -56.5q0 -46 59 -46q23 0 43 5v-65q-32 -4 -61 -4q-59 0 -94 23.5t-35 72.5q0 41 26.5 76t86.5 90h-35v91q-64 -103 -183 -103q-91 0 -143 57t-52 158v347h113v-324q0 -130 118 -130q70 0 108.5 44.5t38.5 124.5v285z" />
    <glyph glyph-name="Wcircumflex" unicode="&#x174;" horiz-adv-x="1004" 
d="M502 878l-102 -108l-61 61l163 164l164 -164l-62 -61zM857 700h116l-186 -700h-141l-67 253l-68 313h-18l-67 -313l-67 -253h-142l-186 700h116l89 -335l53 -247l53 247l88 335h144l88 -335l54 -248l53 248z" />
    <glyph glyph-name="wcircumflex" unicode="&#x175;" horiz-adv-x="860" 
d="M430 734l-102 -109l-61 61l163 164l164 -164l-62 -61zM723 550h113l-157 -550h-132l-53 185l-55 251h-18l-55 -251l-53 -185h-132l-157 550h112l49 -173l64 -258l64 258l49 173h136l48 -173l64 -256l65 256z" />
    <glyph glyph-name="Ycircumflex" unicode="&#x176;" horiz-adv-x="681" 
d="M341 878l-102 -108l-61 61l163 164l164 -164l-62 -61zM650 700l-252 -459l-1 -241h-113v239l-253 461h128l182 -334l182 334h127z" />
    <glyph glyph-name="ycircumflex" unicode="&#x177;" horiz-adv-x="605" 
d="M302 734l-102 -109l-61 61l163 164l164 -164l-62 -61zM460 550h121l-364 -800h-121l145 320l-217 480h121l156 -358z" />
    <glyph glyph-name="Ydieresis" unicode="&#x178;" horiz-adv-x="681" 
d="M227 809q-29 0 -48 18.5t-19 46.5t19 46.5t48 18.5t48 -18.5t19 -46.5t-19 -46.5t-48 -18.5zM454 809q-29 0 -48.5 18.5t-19.5 46.5t19.5 46.5t48.5 18.5t48.5 -18.5t19.5 -46.5t-19.5 -46.5t-48.5 -18.5zM650 700l-252 -459l-1 -241h-113v239l-253 461h128l182 -334
l182 334h127z" />
    <glyph glyph-name="Zacute" unicode="&#x179;" horiz-adv-x="596" 
d="M413 917l-180 -147l-51 51l163 164zM182 108h373v-108h-514v108l372 484h-355v108h496v-108z" />
    <glyph glyph-name="zacute" unicode="&#x17a;" horiz-adv-x="542" 
d="M386 772l-180 -147l-51 52l163 163zM183 107h320v-107h-464v107l314 336h-296v107h441v-107z" />
    <glyph glyph-name="Zdotaccent" unicode="&#x17b;" horiz-adv-x="596" 
d="M298 809q-29 0 -48 18.5t-19 46.5t19 46.5t48 18.5t48 -18.5t19 -46.5t-19 -46.5t-48 -18.5zM182 108h373v-108h-514v108l372 484h-355v108h496v-108z" />
    <glyph glyph-name="zdotaccent" unicode="&#x17c;" horiz-adv-x="542" 
d="M271 658q-31 0 -52 20t-21 51q0 30 21 49.5t52 19.5q32 0 53 -19.5t21 -49.5q0 -31 -21 -51t-53 -20zM183 107h320v-107h-464v107l314 336h-296v107h441v-107z" />
    <glyph glyph-name="Zcaron" unicode="&#x17d;" horiz-adv-x="596" 
d="M462 936l-164 -164l-163 164l61 61l102 -108l102 108zM182 108h373v-108h-514v108l372 484h-355v108h496v-108z" />
    <glyph glyph-name="zcaron" unicode="&#x17e;" horiz-adv-x="542" 
d="M435 789l-164 -164l-163 164l61 61l102 -108l102 108zM183 107h320v-107h-464v107l314 336h-296v107h441v-107z" />
    <glyph glyph-name="uni0237" unicode="&#x237;" horiz-adv-x="244" 
d="M66 -250v800h113v-800h-113z" />
    <glyph glyph-name="circumflex" unicode="&#x2c6;" horiz-adv-x="490" 
d="M409 686l-62 -61l-102 109l-102 -109l-61 61l163 164z" />
    <glyph glyph-name="caron" unicode="&#x2c7;" horiz-adv-x="490" 
d="M409 789l-164 -164l-163 164l61 61l102 -108l102 108z" />
    <glyph glyph-name="breve" unicode="&#x2d8;" horiz-adv-x="485" 
d="M406 811v-23q0 -70 -47.5 -112.5t-115.5 -42.5q-69 0 -116.5 42.5t-47.5 112.5v23h90v-19q0 -34 20 -53.5t54 -19.5q33 0 53 19.5t20 53.5v19h90z" />
    <glyph glyph-name="dotaccent" unicode="&#x2d9;" horiz-adv-x="298" 
d="M149 798q32 0 53 -19.5t21 -49.5q0 -31 -21 -51t-53 -20q-31 0 -52 20t-21 51q0 30 21 49.5t52 19.5z" />
    <glyph glyph-name="ring" unicode="&#x2da;" horiz-adv-x="415" 
d="M207 877q53 0 90 -37t36 -89q1 -52 -36.5 -89t-89.5 -37t-88.5 37t-36.5 89q0 53 36.5 89.5t88.5 36.5zM207 811q-24 0 -41.5 -17.5t-16.5 -42.5q-1 -26 16 -43t42 -17t42 17t17 43q0 25 -17 42.5t-42 17.5z" />
    <glyph glyph-name="ogonek" unicode="&#x2db;" horiz-adv-x="342" 
d="M272 -258q-32 -4 -61 -4q-59 0 -94 23.5t-35 72.5q0 42 26.5 76.5t88.5 91.5l75 -2q-60 -66 -81 -95.5t-21 -56.5q0 -46 59 -46q23 0 43 5v-65z" />
    <glyph glyph-name="tilde" unicode="&#x2dc;" horiz-adv-x="507" 
d="M364 794h70q0 -152 -104 -152q-23 0 -39.5 8.5t-41.5 29.5q-38 33 -60 33q-37 0 -37 -63h-70q0 151 103 151q23 0 39 -8t42 -30q40 -33 60 -33q38 0 38 64z" />
    <glyph glyph-name="hungarumlaut" unicode="&#x2dd;" horiz-adv-x="467" 
d="M181 848l70 -34l-118 -189l-51 25zM315 848l70 -34l-118 -189l-51 25z" />
    <glyph glyph-name="gravecomb" unicode="&#x300;" 
d="M-246 839l164 -164l-52 -51l-179 147z" />
    <glyph glyph-name="acutecomb" unicode="&#x301;" 
d="M-150 840l68 -68l-180 -147l-51 52z" />
    <glyph glyph-name="uni0302" unicode="&#x302;" 
d="M-81 686l-62 -61l-102 109l-102 -109l-61 61l163 164z" />
    <glyph glyph-name="tildecomb" unicode="&#x303;" 
d="M-152 794h70q0 -152 -104 -152q-23 0 -39.5 8.5t-41.5 29.5q-39 33 -60 33q-37 0 -37 -63h-70q0 151 103 151q23 0 39 -8t42 -30q40 -33 60 -33q38 0 38 64z" />
    <glyph glyph-name="uni0304" unicode="&#x304;" 
d="M-82 770v-83h-250v83h250z" />
    <glyph glyph-name="uni0306" unicode="&#x306;" 
d="M-79 811v-23q0 -70 -47.5 -112.5t-115.5 -42.5q-69 0 -116.5 42.5t-47.5 112.5v23h90v-19q0 -34 20 -53.5t54 -19.5q33 0 53 19.5t20 53.5v19h90z" />
    <glyph glyph-name="uni0307" unicode="&#x307;" 
d="M-149 798q32 0 53 -19.5t21 -49.5q0 -31 -21 -51t-53 -20q-31 0 -52 20t-21 51q0 30 21 49.5t52 19.5z" />
    <glyph glyph-name="uni0308" unicode="&#x308;" 
d="M-377 793q29 0 48 -18t19 -46t-19 -46.5t-48 -18.5t-48 18.5t-19 46.5t19 46t48 18zM-150 793q29 0 48.5 -18t19.5 -46t-19.5 -46.5t-48.5 -18.5t-48.5 18.5t-19.5 46.5t19.5 46t48.5 18z" />
    <glyph glyph-name="uni030A" unicode="&#x30a;" 
d="M-208 877q53 0 90 -37t36 -89q1 -52 -36.5 -89t-89.5 -37t-88.5 37t-36.5 89q0 53 36.5 89.5t88.5 36.5zM-208 811q-24 0 -41.5 -17.5t-16.5 -42.5q-1 -26 16.5 -43t41.5 -17q25 0 42 17t17 43q0 25 -17 42.5t-42 17.5z" />
    <glyph glyph-name="uni030B" unicode="&#x30b;" 
d="M-286 848l70 -34l-118 -189l-51 25zM-152 848l70 -34l-118 -189l-51 25z" />
    <glyph glyph-name="uni030C" unicode="&#x30c;" 
d="M-81 789l-164 -164l-163 164l61 61l102 -108l102 108z" />
    <glyph glyph-name="uni0312" unicode="&#x312;" 
d="M-131 725q44 -8 44 -47q0 -24 -17 -38.5t-41 -14.5q-23 0 -40 14.5t-17 38.5q-1 25 53 134h64z" />
    <glyph glyph-name="uni0326" unicode="&#x326;" 
d="M-82 -117q1 -25 -53 -133h-65l47 87q-44 7 -44 46q0 24 17 38.5t41 14.5q23 0 39.5 -14t17.5 -39z" />
    <glyph glyph-name="uni0327" unicode="&#x327;" 
d="M-173 -79q39 -8 65 -30t26 -60q0 -46 -39 -69.5t-106 -23.5q-27 0 -59 4v58q32 -4 46 -4q70 0 70 41q0 42 -91 50l49 113h78z" />
    <glyph glyph-name="uni0328" unicode="&#x328;" 
d="M-82 -258q-32 -4 -61 -4q-59 0 -94 23.5t-35 72.5q0 42 26.5 76.5t88.5 91.5l75 -2q-60 -66 -81 -95.5t-21 -56.5q0 -46 59 -46q23 0 43 5v-65z" />
    <glyph glyph-name="uni0335" unicode="&#x335;" 
d="M-82 353v-108h-299v108h299z" />
    <glyph glyph-name="uni0337" unicode="&#x337;" 
d="M-82 550l-394 -550h-85l393 550h86z" />
    <glyph glyph-name="uni0338" unicode="&#x338;" 
d="M-81 770l-365 -770h-114l364 770h115z" />
    <glyph glyph-name="uni0401" unicode="&#x401;" horiz-adv-x="580" 
d="M194 809q-29 0 -48 18.5t-19 46.5t19 46.5t48 18.5t48 -18.5t19 -46.5t-19 -46.5t-48 -18.5zM421 809q-29 0 -48.5 18.5t-19.5 46.5t19.5 46.5t48.5 18.5t48.5 -18.5t19.5 -46.5t-19.5 -46.5t-48.5 -18.5zM539 592h-344v-181h319v-108h-319v-195h344v-108h-457v700h457
v-108z" />
    <glyph glyph-name="uni0404" unicode="&#x404;" horiz-adv-x="792" 
d="M415 96q73 0 130 36.5t85 98.5h121q-33 -110 -124 -176.5t-211 -66.5q-156 0 -258.5 103t-102.5 259t102.5 259t258.5 103q120 0 211 -66.5t124 -176.5h-121q-28 62 -85 98.5t-130 36.5q-92 0 -158 -54.5t-83 -143.5h294v-108h-295q17 -90 82.5 -146t159.5 -56z" />
    <glyph glyph-name="uni0406" unicode="&#x406;" horiz-adv-x="277" 
d="M82 0v700h113v-700h-113z" />
    <glyph glyph-name="uni0407" unicode="&#x407;" horiz-adv-x="277" 
d="M24 939q29 0 48 -18.5t19 -46.5t-19 -46.5t-48 -18.5t-48 18.5t-19 46.5t19 46.5t48 18.5zM251 939q29 0 48.5 -18.5t19.5 -46.5t-19.5 -46.5t-48.5 -18.5t-48.5 18.5t-19.5 46.5t19.5 46.5t48.5 18.5zM82 0v700h113v-700h-113z" />
    <glyph glyph-name="uni040E" unicode="&#x40e;" horiz-adv-x="712" 
d="M532 955v-22q0 -70 -47.5 -113t-115.5 -43q-69 0 -116.5 43t-47.5 113v22h90v-19q0 -33 20 -52.5t54 -19.5q33 0 53 19.5t20 52.5v19h90zM681 700l-380 -700h-126l135 248l-248 452h127l184 -330l182 330h126z" />
    <glyph glyph-name="uni0410" unicode="&#x410;" horiz-adv-x="748" 
d="M597 0l-71 188h-304l-71 -188h-120l271 700h144l271 -700h-120zM263 295h222l-111 293z" />
    <glyph glyph-name="uni0411" unicode="&#x411;" horiz-adv-x="655" 
d="M383 427q114 0 173 -55t59 -157q0 -101 -62.5 -158t-176.5 -57h-294v700h113h369v-108h-369v-165h188zM372 108q64 0 96 28.5t32 79.5q0 107 -122 107h-183v-215h177z" />
    <glyph glyph-name="uni0412" unicode="&#x412;" horiz-adv-x="657" 
d="M500 374q58 -18 87 -64t29 -112q0 -93 -61 -145.5t-171 -52.5h-302v700h298q102 0 157.5 -47t55.5 -133q0 -103 -93 -146zM479 502q0 46 -26.5 68t-86.5 22h-171v-180h172q112 0 112 90zM381 108q66 0 93.5 25.5t27.5 73.5q0 50 -28 75.5t-94 25.5h-185v-200h186z" />
    <glyph glyph-name="uni0413" unicode="&#x413;" horiz-adv-x="545" 
d="M514 700v-108h-319v-592h-113v700h432z" />
    <glyph glyph-name="uni0414" unicode="&#x414;" horiz-adv-x="817" 
d="M686 108h100v-251h-113v143h-529v-143h-113v251h99q28 23 44 116l77 476h435v-592zM285 214q-12 -73 -30 -106h318v484h-227z" />
    <glyph glyph-name="uni0415" unicode="&#x415;" horiz-adv-x="580" 
d="M539 592h-344v-181h319v-108h-319v-195h344v-108h-457v700h457v-108z" />
    <glyph glyph-name="uni0416" unicode="&#x416;" horiz-adv-x="1017" 
d="M987 0h-141l-281 333v-333h-113v333l-281 -333h-140l299 359l-286 341h139l269 -318v318h113v-318l269 318h139l-286 -341z" />
    <glyph glyph-name="uni0417" unicode="&#x417;" horiz-adv-x="630" 
d="M473 368q55 -20 86 -64t31 -105q0 -97 -71.5 -154t-191.5 -57q-118 0 -196 56.5t-90 164.5h114q23 -113 170 -113q74 0 112 30t38 83q0 100 -137 100h-106v100h85q135 0 135 89q0 48 -36 77t-103 29q-63 0 -99 -23.5t-50 -80.5h-114q14 106 85.5 159t180.5 53
q111 0 181 -56t70 -144q0 -48 -25 -86.5t-69 -57.5z" />
    <glyph glyph-name="uni0418" unicode="&#x418;" horiz-adv-x="740" 
d="M530 700h133v-700h-113v293l11 248l-351 -541h-133v700h113v-293l-10 -247z" />
    <glyph glyph-name="uni0419" unicode="&#x419;" horiz-adv-x="740" 
d="M370 777q-69 0 -116.5 43t-47.5 113v22h90v-19q0 -33 20 -52.5t54 -19.5q33 0 53 19.5t20 52.5v19h90v-22q0 -70 -47.5 -113t-115.5 -43zM530 700h133v-700h-113v293l11 248l-351 -541h-133v700h113v-293l-10 -247z" />
    <glyph glyph-name="uni041A" unicode="&#x41a;" horiz-adv-x="665" 
d="M634 0h-143l-296 334v-334h-113v700h113v-320l283 320h142l-302 -341z" />
    <glyph glyph-name="uni041B" unicode="&#x41b;" horiz-adv-x="759" 
d="M240 700h437v-700h-113v592h-229l-61 -378q-20 -120 -64 -173t-117 -53q-28 0 -62 6v102q33 -3 40 -3q40 0 59.5 27.5t32.5 103.5z" />
    <glyph glyph-name="uni041C" unicode="&#x41c;" horiz-adv-x="827" 
d="M612 700h133v-700h-113v547l-216 -326h-11l-215 326v-547h-113v700h133l201 -302z" />
    <glyph glyph-name="uni041D" unicode="&#x41d;" horiz-adv-x="748" 
d="M554 700h113v-700h-113v306h-359v-306h-113v700h113v-286h359v286z" />
    <glyph glyph-name="uni041E" unicode="&#x41e;" horiz-adv-x="829" 
d="M415 712q154 0 258 -104t105 -258q-1 -154 -105 -258t-258 -104t-258.5 104t-104.5 258t104.5 258t258.5 104zM415 604q-107 0 -178 -72.5t-71 -181.5t71 -181.5t178 -72.5q106 0 177 72.5t71 181.5t-71 181.5t-177 72.5z" />
    <glyph glyph-name="uni041F" unicode="&#x41f;" horiz-adv-x="748" 
d="M667 700v-700h-113v592h-359v-592h-113v700h113h472z" />
    <glyph glyph-name="uni0420" unicode="&#x420;" horiz-adv-x="666" 
d="M369 700q114 0 180 -63t66 -167t-66.5 -168.5t-179.5 -64.5h-174v-237h-113v700h287zM365 345q66 0 100.5 34t34.5 90t-34 89.5t-101 33.5h-170v-247h170z" />
    <glyph glyph-name="uni0421" unicode="&#x421;" horiz-adv-x="792" 
d="M416 -12q-156 0 -258.5 103t-102.5 259t102.5 259t258.5 103q120 0 211 -66.5t124 -176.5h-121q-28 62 -85 98.5t-130 36.5q-107 0 -176.5 -72t-69.5 -182t69.5 -182t176.5 -72q73 0 130 36.5t85 98.5h121q-33 -110 -124 -176.5t-211 -66.5z" />
    <glyph glyph-name="uni0422" unicode="&#x422;" horiz-adv-x="602" 
d="M571 700v-108h-214v-592h-113v592h-213v108h540z" />
    <glyph glyph-name="uni0423" unicode="&#x423;" horiz-adv-x="712" 
d="M681 700l-380 -700h-126l135 248l-248 452h127l184 -330l182 330h126z" />
    <glyph glyph-name="uni0424" unicode="&#x424;" horiz-adv-x="920" 
d="M584 623q122 0 203 -72.5t81 -193.5t-80.5 -193.5t-203.5 -72.5h-58v-91h-113v91h-59q-123 0 -203.5 72.5t-80.5 193.5t81 193.5t203 72.5h59v77h113v-77h58zM354 198h59v317h-59q-75 0 -122.5 -41t-47.5 -117q0 -77 47.5 -118t122.5 -41zM584 198q75 0 122.5 41
t47.5 118q0 76 -47.5 117t-122.5 41h-58v-317h58z" />
    <glyph glyph-name="uni0425" unicode="&#x425;" horiz-adv-x="658" 
d="M627 0h-134l-165 266l-163 -266h-134l228 361l-218 339h135l155 -250l155 250h134l-220 -346z" />
    <glyph glyph-name="uni0426" unicode="&#x426;" horiz-adv-x="782" 
d="M638 108h113v-251h-113v143h-556v108v592h113v-592h330v592h113v-592z" />
    <glyph glyph-name="uni0427" unicode="&#x427;" horiz-adv-x="659" 
d="M464 700h113v-700h-113v258q-70 -33 -168 -33q-114 0 -179 58.5t-65 177.5v239h114v-226q0 -76 39 -108.5t113 -32.5q97 0 146 30v337z" />
    <glyph glyph-name="uni0428" unicode="&#x428;" horiz-adv-x="1019" 
d="M825 700h113v-614v-86h-856v108v592h113v-592h258v592h113v-592h259v592z" />
    <glyph glyph-name="uni0429" unicode="&#x429;" horiz-adv-x="1082" 
d="M938 108h113v-251h-113v143h-856v108v592h113v-592h258v592h113v-592h259v592h113v-592z" />
    <glyph glyph-name="uni042A" unicode="&#x42a;" horiz-adv-x="746" 
d="M459 429q115 0 175 -56t60 -158q0 -101 -62 -158t-176 -57h-290v592h-135v108h198h51v-271h179zM452 108q64 0 96 28.5t32 79.5q0 107 -125 107h-175v-215h172z" />
    <glyph glyph-name="uni042B" unicode="&#x42b;" horiz-adv-x="878" 
d="M374 429q115 0 175.5 -56t60.5 -158q0 -101 -62.5 -158t-176.5 -57h-289v700h113v-271h179zM699 700h113v-700h-113v700zM367 108q64 0 96 28.5t32 79.5q0 107 -125 107h-175v-215h172z" />
    <glyph glyph-name="uni042C" unicode="&#x42c;" horiz-adv-x="661" 
d="M374 429q115 0 175.5 -56t60.5 -158q0 -101 -62.5 -158t-176.5 -57h-289v700h113v-271h179zM367 108q64 0 96 28.5t32 79.5q0 107 -125 107h-175v-215h172z" />
    <glyph glyph-name="uni042D" unicode="&#x42d;" horiz-adv-x="789" 
d="M378 712q155 0 256 -103t101 -259t-100.5 -259t-255.5 -103q-123 0 -215 67t-123 176h121q26 -63 84.5 -99t132.5 -36q93 0 157.5 56t79.5 147h-295v108h294q-17 88 -80.5 142.5t-155.5 54.5q-75 0 -133 -36t-84 -99h-121q30 110 121.5 176.5t215.5 66.5z" />
    <glyph glyph-name="uni042E" unicode="&#x42e;" horiz-adv-x="1084" 
d="M670 712q154 0 258.5 -104t104.5 -258t-104.5 -258t-258.5 -104q-139 0 -239.5 86.5t-119.5 220.5h-116v-295h-113v700h113v-297h115q19 135 119.5 222t240.5 87zM670 96q106 0 177 72.5t71 181.5t-71 181.5t-177 72.5t-177 -72.5t-72 -181.5q1 -109 72 -181.5t177 -72.5
z" />
    <glyph glyph-name="uni042F" unicode="&#x42f;" horiz-adv-x="673" 
d="M302 700h289v-700h-113v253h-117l-191 -253h-139l201 261q-80 19 -124 75.5t-44 140.5q0 102 62.5 162.5t175.5 60.5zM314 356h164v236h-164q-67 0 -101.5 -32t-34.5 -86t34.5 -86t101.5 -32z" />
    <glyph glyph-name="uni0430" unicode="&#x430;" horiz-adv-x="673" 
d="M494 550h113v-550h-113v92q-66 -104 -192 -104q-111 0 -182.5 80.5t-71.5 206.5q0 125 72 206t181 81q126 0 193 -106v94zM326 96q73 0 121 50t48 129q0 78 -48 128.5t-121 50.5q-72 0 -118 -50t-46 -129t46 -129t118 -50z" />
    <glyph glyph-name="uni0431" unicode="&#x431;" horiz-adv-x="661" 
d="M365 537q107 0 178 -73.5t71 -191.5q0 -126 -79.5 -205t-199.5 -79q-124 0 -205 85.5t-82 250.5q0 115 23.5 197.5t63 132.5t105 79t136 39t169.5 10v-107q-80 0 -135 -6t-102.5 -21.5t-76 -44t-46 -73t-22.5 -108.5q29 55 83.5 85t118.5 30zM330 86q73 0 122 49.5
t49 130.5q0 78 -47 126t-118 48q-72 0 -123 -48.5t-51 -125.5q0 -81 47.5 -130.5t120.5 -49.5z" />
    <glyph glyph-name="uni0432" unicode="&#x432;" horiz-adv-x="582" 
d="M441 295q102 -30 102 -137q0 -77 -52 -117.5t-145 -40.5h-280v550h256q194 0 194 -139q0 -71 -75 -116zM402 390q0 35 -20 53t-69 18h-134v-138h132q91 0 91 67zM339 89q49 0 69.5 20.5t20.5 57.5q0 74 -91 74h-159v-152h160z" />
    <glyph glyph-name="uni0433" unicode="&#x433;" horiz-adv-x="456" 
d="M432 550v-106h-253v-444h-113v550h366z" />
    <glyph glyph-name="uni0434" unicode="&#x434;" horiz-adv-x="740" 
d="M616 106h100v-249h-113v143h-466v-143h-113v249h96q35 27 54 139l49 305h393v-444zM243 106h260v338h-184l-33 -204q-14 -92 -43 -134z" />
    <glyph glyph-name="uni0435" unicode="&#x435;" horiz-adv-x="654" 
d="M332 562q131 0 208.5 -90.5t69.5 -227.5h-447q7 -74 54 -115.5t118 -41.5q50 0 89 21t58 61h117q-31 -89 -102 -135t-163 -46q-125 0 -205.5 80.5t-80.5 205.5t80 206.5t204 81.5zM332 464q-63 0 -105.5 -35.5t-57.5 -92.5h320q-13 58 -54.5 93t-102.5 35z" />
    <glyph glyph-name="uni0436" unicode="&#x436;" horiz-adv-x="971" 
d="M947 0h-145l-260 254v-254h-113v254l-260 -254h-145l290 289l-269 261h146l238 -239v239h113v-239l238 239h146l-269 -261z" />
    <glyph glyph-name="uni0437" unicode="&#x437;" horiz-adv-x="576" 
d="M448 291q43 -16 66 -51.5t23 -83.5q0 -79 -64 -123.5t-173 -44.5q-232 0 -268 193h114q12 -56 48.5 -80.5t102.5 -24.5q126 0 126 88q0 76 -97 76h-102v87h82q100 0 100 68q0 81 -117 81q-108 0 -128 -82h-115q16 77 76 122.5t169 45.5q105 0 167 -43t62 -116
q0 -77 -72 -112z" />
    <glyph glyph-name="uni0438" unicode="&#x438;" horiz-adv-x="642" 
d="M444 550h133v-550h-113v230l7 174l-272 -404h-133v550h113v-230l-7 -173z" />
    <glyph glyph-name="uni0439" unicode="&#x439;" horiz-adv-x="642" 
d="M322 633q-69 0 -116.5 42.5t-47.5 112.5v23h90v-19q0 -34 20 -53.5t54 -19.5q33 0 53 19.5t20 53.5v19h90v-23q0 -70 -47.5 -112.5t-115.5 -42.5zM444 550h133v-550h-113v230l7 174l-272 -404h-133v550h113v-230l-7 -173z" />
    <glyph glyph-name="uni043A" unicode="&#x43a;" horiz-adv-x="608" 
d="M584 0h-146l-259 254v-254h-113v550h113v-238l238 238h145l-269 -261z" />
    <glyph glyph-name="uni043B" unicode="&#x43b;" horiz-adv-x="658" 
d="M202 550h391v-550h-113v444h-182l-36 -230q-20 -120 -64.5 -173t-117.5 -53q-20 0 -56 6v102q4 0 10.5 -1t12 -1.5t10.5 -0.5q40 0 60 27.5t33 103.5z" />
    <glyph glyph-name="uni043C" unicode="&#x43c;" horiz-adv-x="723" 
d="M524 550h133v-550h-113v230l8 191l-189 -269h-3l-189 269l8 -191v-230h-113v550h133l162 -226z" />
    <glyph glyph-name="uni043D" unicode="&#x43d;" horiz-adv-x="649" 
d="M471 550h113v-550h-113v227h-292v-227h-113v550h113v-216h292v216z" />
    <glyph glyph-name="uni043E" unicode="&#x43e;" horiz-adv-x="665" 
d="M333 562q120 0 202.5 -82t82.5 -205t-82 -205t-203 -82q-120 0 -202.5 82.5t-82.5 204.5q0 123 83 205t202 82zM333 454q-72 0 -121.5 -50.5t-49.5 -128.5q0 -79 49 -129t122 -50t122 50t49 129q0 78 -49.5 128.5t-121.5 50.5z" />
    <glyph glyph-name="uni043F" unicode="&#x43f;" horiz-adv-x="641" 
d="M576 550v-550h-113v444h-284v-444h-113v550h113h397z" />
    <glyph glyph-name="uni0440" unicode="&#x440;" horiz-adv-x="678" 
d="M377 562q109 0 181 -81t72 -206q0 -126 -71.5 -206.5t-182.5 -80.5q-125 0 -192 104v-342h-113v800h113v-94q67 106 193 106zM352 96q72 0 118 50t46 129t-46 129t-118 50q-73 0 -121 -50.5t-48 -128.5q0 -79 48 -129t121 -50z" />
    <glyph glyph-name="uni0441" unicode="&#x441;" horiz-adv-x="642" 
d="M333 -12q-122 0 -203.5 82t-81.5 205t81.5 205t204.5 82q100 0 176 -57.5t94 -154.5h-117q-15 51 -57 79t-96 28q-76 0 -124 -51t-48 -131t48 -131t123 -51q55 0 96.5 29t57.5 79h117q-19 -99 -95 -156t-176 -57z" />
    <glyph glyph-name="uni0442" unicode="&#x442;" horiz-adv-x="520" 
d="M496 550v-106h-179v-444h-113v444h-180v106h293h179z" />
    <glyph glyph-name="uni0443" unicode="&#x443;" horiz-adv-x="605" 
d="M460 550h121l-364 -800h-121l145 320l-217 480h121l156 -358z" />
    <glyph glyph-name="uni0444" unicode="&#x444;" horiz-adv-x="1102" 
d="M800 562q109 0 181.5 -81t72.5 -206t-72 -206t-182 -81q-123 0 -193 103v-329h-113v329q-68 -103 -192 -103q-111 0 -182.5 80.5t-71.5 206.5q0 125 72 206t181 81q127 0 193 -106v314h113v-314q68 106 193 106zM326 96q73 0 121 50t48 129q0 78 -48 128.5t-121 50.5
q-72 0 -118 -50t-46 -129t46 -129t118 -50zM776 96q72 0 118 50t46 129t-46 129t-118 50q-73 0 -121 -50.5t-48 -128.5q0 -79 48 -129t121 -50z" />
    <glyph glyph-name="uni0445" unicode="&#x445;" horiz-adv-x="580" 
d="M556 0h-135l-133 197l-128 -197h-136l197 283l-186 267h135l122 -184l118 184h136l-186 -269z" />
    <glyph glyph-name="uni0446" unicode="&#x446;" horiz-adv-x="686" 
d="M562 106h100v-249h-113v143h-370h-113v550h113v-444h270v444h113v-444z" />
    <glyph glyph-name="uni0447" unicode="&#x447;" horiz-adv-x="592" 
d="M413 550h113v-550h-113v188q-64 -27 -145 -27q-99 0 -158 47.5t-59 153.5v188h113v-161q0 -68 28 -97.5t98 -29.5q76 0 123 27v261z" />
    <glyph glyph-name="uni0448" unicode="&#x448;" horiz-adv-x="871" 
d="M692 550h113v-550h-113h-313h-257h-56v550h113v-444h200v444h113v-444h200v444z" />
    <glyph glyph-name="uni0449" unicode="&#x449;" horiz-adv-x="929" 
d="M805 106h100v-249h-113v143h-300h-313h-113v550h113v-444h200v444h113v-444h200v444h113v-444z" />
    <glyph glyph-name="uni044A" unicode="&#x44a;" horiz-adv-x="665" 
d="M420 378q90 0 143.5 -45.5t53.5 -139.5q0 -95 -56 -144t-145 -49h-267l-1 443h-124v107h237v-172h159zM413 108q90 0 90 85q0 41 -20 63t-69 22h-153l1 -170h151z" />
    <glyph glyph-name="uni044B" unicode="&#x44b;" horiz-adv-x="793" 
d="M337 378q90 0 143.5 -45.5t53.5 -139.5q0 -95 -56 -144t-145 -49h-267v550h113v-172h158zM615 550h113v-550h-113v550zM329 108q91 0 91 85q0 41 -20 63t-69 22h-152v-170h150z" />
    <glyph glyph-name="uni044C" unicode="&#x44c;" horiz-adv-x="583" 
d="M338 378q90 0 143.5 -45.5t53.5 -139.5q0 -95 -56 -144t-145 -49h-268v550h113v-172h159zM331 108q90 0 90 85q0 41 -20 63t-69 22h-153v-170h152z" />
    <glyph glyph-name="uni044D" unicode="&#x44d;" horiz-adv-x="644" 
d="M311 562q123 0 204 -82t81 -205t-80.5 -205t-203.5 -82q-101 0 -178.5 57t-95.5 156h117q15 -52 58 -81.5t99 -29.5q65 0 110 39t56 104h-203v89h202q-12 63 -56.5 100.5t-109.5 37.5q-57 0 -99.5 -29t-56.5 -81h-117q18 97 94.5 154.5t178.5 57.5z" />
    <glyph glyph-name="uni044E" unicode="&#x44e;" horiz-adv-x="899" 
d="M566 562q120 0 202.5 -82t82.5 -205t-82 -205t-203 -82q-106 0 -184 65t-96 168h-107v-221h-113v550h113v-222h107q18 103 96.5 168.5t183.5 65.5zM566 96q73 0 122 50t49 129q0 78 -49 128.5t-122 50.5q-72 0 -121.5 -50.5t-49.5 -128.5t49.5 -128.5t121.5 -50.5z" />
    <glyph glyph-name="uni044F" unicode="&#x44f;" horiz-adv-x="594" 
d="M252 550h276v-550h-113v199h-109l-143 -199h-139l161 207q-133 33 -133 159q0 91 55 137.5t145 46.5zM261 292h154v156h-157q-92 0 -92 -80q0 -76 95 -76z" />
    <glyph glyph-name="uni0451" unicode="&#x451;" horiz-adv-x="654" 
d="M213 664q-29 0 -48 18.5t-19 46.5t19 46t48 18t48 -18t19 -46t-19 -46.5t-48 -18.5zM440 664q-29 0 -48.5 18.5t-19.5 46.5t19.5 46t48.5 18t48.5 -18t19.5 -46t-19.5 -46.5t-48.5 -18.5zM332 562q131 0 208.5 -90.5t69.5 -227.5h-447q7 -74 54 -115.5t118 -41.5
q50 0 89 21t58 61h117q-31 -89 -102 -135t-163 -46q-125 0 -205.5 80.5t-80.5 205.5t80 206.5t204 81.5zM332 464q-63 0 -105.5 -35.5t-57.5 -92.5h320q-13 58 -54.5 93t-102.5 35z" />
    <glyph glyph-name="uni0454" unicode="&#x454;" horiz-adv-x="642" 
d="M333 90q55 0 97 29.5t57 81.5h117q-19 -99 -95 -156t-176 -57q-122 0 -203.5 82t-81.5 205t81.5 205t204.5 82q100 0 176 -57.5t94 -154.5h-117q-15 53 -56.5 81.5t-96.5 28.5q-65 0 -109.5 -37.5t-57.5 -100.5h202v-89h-203q12 -65 57.5 -104t109.5 -39z" />
    <glyph glyph-name="uni0456" unicode="&#x456;" horiz-adv-x="244" 
d="M122 798q32 0 53 -19.5t21 -49.5q0 -31 -21 -51t-53 -20q-31 0 -52 20t-21 51q0 30 21 49.5t52 19.5zM66 0v550h113v-550h-113z" />
    <glyph glyph-name="uni0457" unicode="&#x457;" horiz-adv-x="244" 
d="M8 793q29 0 48 -18t19 -46t-19 -46.5t-48 -18.5t-48 18.5t-19 46.5t19 46t48 18zM235 793q29 0 48.5 -18t19.5 -46t-19.5 -46.5t-48.5 -18.5t-48.5 18.5t-19.5 46.5t19.5 46t48.5 18zM66 0v550h113v-550h-113z" />
    <glyph glyph-name="uni045E" unicode="&#x45e;" horiz-adv-x="605" 
d="M303 633q-69 0 -116.5 42.5t-47.5 112.5v23h90v-19q0 -34 20 -53.5t54 -19.5q33 0 53 19.5t20 53.5v19h90v-23q0 -70 -47.5 -112.5t-115.5 -42.5zM460 550h121l-364 -800h-121l145 320l-217 480h121l156 -358z" />
    <glyph glyph-name="uni0490" unicode="&#x490;" horiz-adv-x="545" 
d="M514 770v-178h-319v-592h-113v700h319v70h113z" />
    <glyph glyph-name="uni0491" unicode="&#x491;" horiz-adv-x="456" 
d="M432 624v-180h-253v-444h-113v550h253v74h113z" />
    <glyph glyph-name="Wgrave" unicode="&#x1e80;" horiz-adv-x="1004" 
d="M618 821l-52 -51l-179 147l67 68zM857 700h116l-186 -700h-141l-67 253l-68 313h-18l-67 -313l-67 -253h-142l-186 700h116l89 -335l53 -247l53 247l88 335h144l88 -335l54 -248l53 248z" />
    <glyph glyph-name="wgrave" unicode="&#x1e81;" horiz-adv-x="860" 
d="M545 675l-52 -51l-179 147l67 68zM723 550h113l-157 -550h-132l-53 185l-55 251h-18l-55 -251l-53 -185h-132l-157 550h112l49 -173l64 -258l64 258l49 173h136l48 -173l64 -256l65 256z" />
    <glyph glyph-name="Wacute" unicode="&#x1e82;" horiz-adv-x="1004" 
d="M618 917l-180 -147l-51 51l163 164zM857 700h116l-186 -700h-141l-67 253l-68 313h-18l-67 -313l-67 -253h-142l-186 700h116l89 -335l53 -247l53 247l88 335h144l88 -335l54 -248l53 248z" />
    <glyph glyph-name="wacute" unicode="&#x1e83;" horiz-adv-x="860" 
d="M545 772l-180 -147l-51 52l163 163zM723 550h113l-157 -550h-132l-53 185l-55 251h-18l-55 -251l-53 -185h-132l-157 550h112l49 -173l64 -258l64 258l49 173h136l48 -173l64 -256l65 256z" />
    <glyph glyph-name="Wdieresis" unicode="&#x1e84;" horiz-adv-x="1004" 
d="M388 809q-29 0 -48 18.5t-19 46.5t19 46.5t48 18.5t48 -18.5t19 -46.5t-19 -46.5t-48 -18.5zM615 809q-29 0 -48.5 18.5t-19.5 46.5t19.5 46.5t48.5 18.5t48.5 -18.5t19.5 -46.5t-19.5 -46.5t-48.5 -18.5zM857 700h116l-186 -700h-141l-67 253l-68 313h-18l-67 -313
l-67 -253h-142l-186 700h116l89 -335l53 -247l53 247l88 335h144l88 -335l54 -248l53 248z" />
    <glyph glyph-name="wdieresis" unicode="&#x1e85;" horiz-adv-x="860" 
d="M316 664q-29 0 -48 18.5t-19 46.5t19 46t48 18t48 -18t19 -46t-19 -46.5t-48 -18.5zM543 664q-29 0 -48.5 18.5t-19.5 46.5t19.5 46t48.5 18t48.5 -18t19.5 -46t-19.5 -46.5t-48.5 -18.5zM723 550h113l-157 -550h-132l-53 185l-55 251h-18l-55 -251l-53 -185h-132
l-157 550h112l49 -173l64 -258l64 258l49 173h136l48 -173l64 -256l65 256z" />
    <glyph glyph-name="Ygrave" unicode="&#x1ef2;" horiz-adv-x="681" 
d="M456 821l-52 -51l-179 147l67 68zM650 700l-252 -459l-1 -241h-113v239l-253 461h128l182 -334l182 334h127z" />
    <glyph glyph-name="ygrave" unicode="&#x1ef3;" horiz-adv-x="605" 
d="M418 675l-52 -51l-179 147l67 68zM460 550h121l-364 -800h-121l145 320l-217 480h121l156 -358z" />
    <glyph glyph-name="uni2009" unicode="&#x2009;" horiz-adv-x="150" 
 />
    <glyph glyph-name="endash" unicode="&#x2013;" horiz-adv-x="646" 
d="M564 353v-108h-482v108h482z" />
    <glyph glyph-name="emdash" unicode="&#x2014;" horiz-adv-x="747" 
d="M665 353v-108h-583v108h583z" />
    <glyph glyph-name="quoteleft" unicode="&#x2018;" horiz-adv-x="335" 
d="M182 536q47 -15 47 -65q0 -32 -21 -52t-52 -20q-29 0 -51.5 17.5t-22.5 57.5q-2 40 96 226h75z" />
    <glyph glyph-name="quoteright" unicode="&#x2019;" horiz-adv-x="335" 
d="M253 636q2 -40 -96 -226h-75l71 164q-47 15 -47 66q0 32 21 52t52 20q29 0 51.5 -17.5t22.5 -58.5z" />
    <glyph glyph-name="quotesinglbase" unicode="&#x201a;" horiz-adv-x="335" 
d="M253 54q2 -40 -96 -226h-75l71 164q-47 15 -47 65q0 32 21 52t52 20q29 0 51.5 -17.5t22.5 -57.5z" />
    <glyph glyph-name="quotedblleft" unicode="&#x201c;" horiz-adv-x="545" 
d="M178 700h75l-71 -164q47 -15 47 -65q0 -32 -21 -52t-52 -20q-29 0 -51.5 17.5t-22.5 57.5q-2 40 96 226zM391 536q47 -15 47 -65q0 -32 -20.5 -52t-52.5 -20q-28 0 -50.5 17.5t-23.5 57.5q0 42 96 226h76z" />
    <glyph glyph-name="quotedblright" unicode="&#x201d;" horiz-adv-x="545" 
d="M179 712q29 0 51.5 -17.5t22.5 -58.5q2 -40 -96 -226h-75l71 164q-47 15 -47 66q0 32 21 52t52 20zM463 636q2 -38 -96 -226h-76l72 164q-47 15 -47 66q0 32 21 52t52 20q28 0 51 -18t23 -58z" />
    <glyph glyph-name="quotedblbase" unicode="&#x201e;" horiz-adv-x="545" 
d="M179 129q29 0 51.5 -17.5t22.5 -57.5q2 -40 -96 -226h-75l71 164q-47 15 -47 65q0 32 21 52t52 20zM463 54q2 -39 -96 -226h-76l72 164q-47 15 -47 65q0 32 21 52t52 20q29 0 51.5 -17.5t22.5 -57.5z" />
    <glyph glyph-name="dagger" unicode="&#x2020;" horiz-adv-x="591" 
d="M352 700v-205h158v-108h-158v-488h-113v488h-157v108h157v205h113z" />
    <glyph glyph-name="daggerdbl" unicode="&#x2021;" horiz-adv-x="591" 
d="M352 700v-174h158v-108h-158v-179h158v-108h-158v-232h-113v232h-157v108h157v179h-157v108h157v174h113z" />
    <glyph glyph-name="bullet" unicode="&#x2022;" horiz-adv-x="470" 
d="M235 437q65 0 109.5 -43.5t44.5 -107.5t-44.5 -107.5t-109.5 -43.5t-109 43.5t-44 107.5t44 107.5t109 43.5z" />
    <glyph glyph-name="ellipsis" unicode="&#x2026;" horiz-adv-x="809" 
d="M155 129q32 0 53 -19.5t21 -50.5t-21 -51t-53 -20t-52.5 20t-20.5 51t20.5 50.5t52.5 19.5zM404 129q32 0 53 -19.5t21 -50.5t-21 -51t-53 -20t-52.5 20t-20.5 51t20.5 50.5t52.5 19.5zM653 129q32 0 53 -19.5t21 -50.5t-21 -51t-53 -20q-31 0 -52 20t-21 51q0 30 21 50
t52 20z" />
    <glyph glyph-name="perthousand" unicode="&#x2030;" horiz-adv-x="1517" 
d="M271 291q-86 0 -137.5 54.5t-51.5 155.5t51.5 156t137.5 55q85 0 137 -55.5t52 -155.5t-51.5 -155t-137.5 -55zM797 700l-400 -700h-109l400 700h109zM271 379q90 0 90 122t-90 122t-90 -122t90 -122zM815 409q86 0 137.5 -55t51.5 -155t-52 -155.5t-137 -55.5
q-86 0 -137.5 55t-51.5 156t51.5 155.5t137.5 54.5zM1246 409q86 0 137.5 -54.5t51.5 -155.5t-51.5 -156t-137.5 -55q-85 0 -137 55.5t-52 155.5t51.5 155t137.5 55zM815 321q-91 0 -91 -122t91 -122q90 0 90 122t-90 122zM1246 321q-90 0 -90 -122t90 -122t90 122t-90 122z
" />
    <glyph glyph-name="guilsinglleft" unicode="&#x2039;" horiz-adv-x="457" 
d="M298 63l-216 216l216 216l77 -78l-139 -138l139 -138z" />
    <glyph glyph-name="guilsinglright" unicode="&#x203a;" horiz-adv-x="457" 
d="M159 63l-77 78l139 138l-139 138l77 78l216 -216z" />
    <glyph glyph-name="fraction" unicode="&#x2044;" horiz-adv-x="221" 
d="M-144 0l400 700h109l-400 -700h-109z" />
    <glyph glyph-name="uni2070" unicode="&#x2070;" horiz-adv-x="446" 
d="M223 361q-86 0 -137.5 54.5t-51.5 155.5t51.5 156t137.5 55q85 0 137 -55.5t52 -155.5t-51.5 -155t-137.5 -55zM223 449q90 0 90 122t-90 122t-90 -122t90 -122z" />
    <glyph glyph-name="uni2074" unicode="&#x2074;" horiz-adv-x="443" 
d="M409 530v-79h-71v-79h-98v79h-206v79l183 240h121v-240h71zM114 530h126v168z" />
    <glyph glyph-name="uni2075" unicode="&#x2075;" horiz-adv-x="412" 
d="M231 636q65 0 106 -36.5t41 -96.5t-42.5 -101t-122.5 -41q-77 0 -123 37.5t-56 94.5h99q7 -28 27.5 -44t49.5 -16q33 0 52 19.5t19 50.5t-18.5 50.5t-52.5 19.5q-41 0 -68 -35h-92l49 232h255v-76h-195l-19 -87q39 29 91 29z" />
    <glyph glyph-name="uni2076" unicode="&#x2076;" horiz-adv-x="402" 
d="M229 634q64 0 102 -39.5t38 -93.5q0 -57 -44 -98.5t-122 -41.5q-81 0 -125 44.5t-44 106.5q0 52 33.5 102t126.5 156h104l-131 -146q33 10 62 10zM201 437q33 0 51.5 18.5t18.5 47.5t-18.5 47.5t-51.5 18.5q-32 0 -51 -18t-19 -47t18.5 -48t51.5 -19z" />
    <glyph glyph-name="uni2077" unicode="&#x2077;" horiz-adv-x="368" 
d="M34 770h300v-63l-165 -335h-92l159 319h-202v79z" />
    <glyph glyph-name="uni2078" unicode="&#x2078;" horiz-adv-x="418" 
d="M311 582q33 -13 53 -39t20 -62q0 -53 -44.5 -86.5t-130.5 -33.5t-130.5 33.5t-44.5 86.5q0 36 20 62t52 39q-60 26 -60 86q0 50 43 82t120 32t120 -32t43 -82q0 -60 -61 -86zM209 709q-29 0 -46.5 -14.5t-17.5 -37.5t17 -36.5t47 -13.5t47 13.5t17 36.5t-17.5 37.5
t-46.5 14.5zM209 433q37 0 56.5 15.5t19.5 40.5q0 54 -76 54t-76 -54q0 -25 19.5 -40.5t56.5 -15.5z" />
    <glyph glyph-name="uni2079" unicode="&#x2079;" horiz-adv-x="402" 
d="M200 782q81 0 125 -45t44 -106q0 -52 -34 -102.5t-127 -156.5h-103l130 147q-29 -10 -61 -10q-64 0 -102 39t-38 93q0 57 44 99t122 42zM201 574q33 0 51.5 17.5t18.5 47.5q0 29 -18.5 47.5t-51.5 18.5t-51.5 -18.5t-18.5 -47.5t18 -47t52 -18z" />
    <glyph glyph-name="Euro" unicode="&#x20ac;" horiz-adv-x="892" 
d="M515 96q73 0 129.5 36t85.5 99h121q-33 -110 -124 -176.5t-211 -66.5q-123 0 -215.5 67t-127.5 177h-126v86h109q-1 10 -1 32q0 20 1 30h-109v86h125q35 111 128 178.5t216 67.5q120 0 211 -66.5t124 -176.5h-121q-29 63 -85.5 99t-129.5 36q-75 0 -133.5 -37t-88.5 -101
h268v-86h-291q-1 -10 -1 -30q0 -22 2 -32h290v-86h-266q30 -63 87.5 -99.5t132.5 -36.5z" />
    <glyph glyph-name="uni2116" unicode="&#x2116;" horiz-adv-x="1235" 
d="M951 309q-86 0 -145 58t-59 143t59 143.5t145 58.5q84 0 143.5 -58.5t59.5 -143.5t-59 -143t-144 -58zM555 407v293h114v-700h-134l-351 541l11 -248v-293h-113v700h134l349 -540zM951 618q-46 0 -77 -31.5t-31 -76.5q0 -46 31 -77t77 -31q45 0 75.5 31t30.5 77
q0 45 -30.5 76.5t-75.5 31.5zM760 163v86h382v-86h-382zM760 0v86h382v-86h-382z" />
    <glyph glyph-name="trademark" unicode="&#x2122;" horiz-adv-x="833" 
d="M82 706v64h264v-64h-98v-242h-69v242h-97zM674 770h77v-306h-68v214l-104 -141h-4l-104 141v-214h-68v306h77l97 -132z" />
    <glyph glyph-name="oneeighth" unicode="&#x215b;" horiz-adv-x="959" 
d="M249 302h-97v297l-118 -40v89l164 52h51v-398zM577 700h109l-400 -700h-109zM853 209q33 -13 53 -39t20 -62q0 -52 -45 -86t-130 -34q-86 0 -130.5 33.5t-44.5 86.5q0 36 20 62t53 39q-61 26 -61 86q0 50 43 82t120 32t120 -32t43 -82q0 -60 -61 -86zM751 337
q-29 0 -46.5 -14.5t-17.5 -38.5q0 -22 17 -36t47 -14t47 14t17 36q0 24 -17.5 38.5t-46.5 14.5zM751 61q37 0 56.5 15t19.5 40q0 55 -76 55t-76 -55q0 -25 19.5 -40t56.5 -15z" />
    <glyph glyph-name="threeeighths" unicode="&#x215c;" horiz-adv-x="1057" 
d="M385 417q0 -52 -42.5 -89t-124.5 -37q-80 0 -128.5 37t-55.5 99h99q13 -64 81 -64q34 0 53 16t19 42q0 53 -53 53h-64v64h51q23 0 38.5 13t15.5 36q0 24 -16.5 38t-46.5 14q-62 0 -71 -64h-99q5 62 51 99.5t121 37.5t117.5 -36.5t42.5 -87.5q0 -49 -49 -74q61 -30 61 -97
zM675 700h109l-400 -700h-109zM950 209q33 -13 53 -39t20 -62q0 -52 -45 -86t-130 -34q-86 0 -130.5 33.5t-44.5 86.5q0 36 20 62t53 39q-61 26 -61 86q0 50 43 82t120 32t120 -32t43 -82q0 -60 -61 -86zM848 337q-29 0 -46.5 -14.5t-17.5 -38.5q0 -22 17 -36t47 -14t47 14
t17 36q0 24 -17.5 38.5t-46.5 14.5zM848 61q37 0 56.5 15t19.5 40q0 55 -76 55t-76 -55q0 -25 19.5 -40t56.5 -15z" />
    <glyph glyph-name="fiveeighths" unicode="&#x215d;" horiz-adv-x="1050" 
d="M378 433q0 -60 -42.5 -101t-122.5 -41q-77 0 -123 37.5t-56 94.5h99q7 -28 27.5 -44t49.5 -16q33 0 52 19.5t19 50.5t-18.5 50.5t-52.5 19.5q-41 0 -68 -35h-92l49 232h255v-76h-195l-19 -87q39 29 91 29q65 0 106 -36.5t41 -96.5zM668 700h109l-400 -700h-109zM944 209
q33 -13 53 -39t20 -62q0 -52 -45 -86t-130 -34q-86 0 -130.5 33.5t-44.5 86.5q0 36 20 62t53 39q-61 26 -61 86q0 50 43 82t120 32t120 -32t43 -82q0 -60 -61 -86zM842 337q-29 0 -46.5 -14.5t-17.5 -38.5q0 -22 17 -36t47 -14t47 14t17 36q0 24 -17.5 38.5t-46.5 14.5z
M842 61q37 0 56.5 15t19.5 40q0 55 -76 55t-76 -55q0 -25 19.5 -40t56.5 -15z" />
    <glyph glyph-name="seveneighths" unicode="&#x215e;" horiz-adv-x="943" 
d="M169 302h-92l159 319h-202v79h300v-63zM560 700h109l-400 -700h-109zM836 209q33 -13 53 -39t20 -62q0 -52 -45 -86t-130 -34q-86 0 -130.5 33.5t-44.5 86.5q0 36 20 62t53 39q-61 26 -61 86q0 50 43 82t120 32t120 -32t43 -82q0 -60 -61 -86zM734 337q-29 0 -46.5 -14.5
t-17.5 -38.5q0 -22 17 -36t47 -14t47 14t17 36q0 24 -17.5 38.5t-46.5 14.5zM734 61q37 0 56.5 15t19.5 40q0 55 -76 55t-76 -55q0 -25 19.5 -40t56.5 -15z" />
    <glyph glyph-name="arrowleft" unicode="&#x2190;" horiz-adv-x="902" 
d="M355 87l-273 273l273 274l79 -80l-142 -137h529v-113h-529l142 -137z" />
    <glyph glyph-name="arrowup" unicode="&#x2191;" horiz-adv-x="710" 
d="M298 0v501l-137 -141l-79 79l273 273l274 -273l-80 -80l-138 143v-502h-113z" />
    <glyph glyph-name="arrowright" unicode="&#x2192;" horiz-adv-x="902" 
d="M547 76l-79 80l143 137h-529v114h528l-142 136l79 80l274 -273z" />
    <glyph glyph-name="arrowdown" unicode="&#x2193;" horiz-adv-x="710" 
d="M355 -10l-273 273l79 80l138 -143v529h113v-529l137 142l80 -79z" />
    <glyph glyph-name="arrowboth" unicode="&#x2194;" horiz-adv-x="1177" 
d="M823 87l-79 80l141 137h-593l142 -137l-79 -80l-273 273l273 274l79 -80l-142 -137h594l-143 137l80 80l273 -274z" />
    <glyph glyph-name="arrowupdn" unicode="&#x2195;" horiz-adv-x="710" 
d="M355 -129l-273 273l79 80l138 -143v533l-138 -143l-79 80l273 273l274 -273l-80 -79l-137 142v-533l137 142l80 -79z" />
    <glyph glyph-name="uni2196" unicode="&#x2196;" horiz-adv-x="726" 
d="M564 68l-374 374l4 -197l-112 -1v386l386 1v-113l-198 5l374 -375z" />
    <glyph glyph-name="uni2197" unicode="&#x2197;" horiz-adv-x="726" 
d="M161 50l-79 80l374 374l-198 -3v112h386l1 -387h-113l4 198z" />
    <glyph glyph-name="uni2198" unicode="&#x2198;" horiz-adv-x="726" 
d="M257 88v113l199 -4l-374 374l80 80l373 -374l-3 197l112 1v-386z" />
    <glyph glyph-name="uni2199" unicode="&#x2199;" horiz-adv-x="726" 
d="M82 80v387h113l-4 -198l374 374l80 -80l-374 -374l197 3v-112h-386z" />
    <glyph glyph-name="partialdiff" unicode="&#x2202;" horiz-adv-x="690" 
d="M409 712q137 0 177.5 -106t2.5 -340q-22 -132 -98.5 -205t-194.5 -73q-111 0 -170 74.5t-41 190.5q17 108 87.5 164.5t165.5 56.5q113 0 158 -78l1 4q13 116 -18 164t-101 48q-79 0 -170 -40l-20 89q103 51 221 51zM471 246q9 61 -21 101t-93 40q-62 0 -104.5 -37
t-53.5 -104q-10 -68 20.5 -109t93.5 -41q62 0 104.5 41t53.5 109z" />
    <glyph glyph-name="emptyset" unicode="&#x2205;" horiz-adv-x="817" 
d="M735 549l-99 -99q57 -74 57 -175q0 -123 -82 -205t-203 -82q-98 0 -175 59l-99 -99l-52 53l98 99q-57 77 -57 175q0 123 83 205t202 82q99 0 176 -59l99 99zM238 275q0 -54 23 -94l244 244q-44 29 -97 29q-72 0 -121 -50.5t-49 -128.5zM579 275q0 52 -24 94l-244 -244
q43 -29 97 -29q73 0 122 50t49 129z" />
    <glyph glyph-name="product" unicode="&#x220f;" horiz-adv-x="838" 
d="M757 700v-108h-94v-592h-113v592h-261v-592h-113v592h-94v108h675z" />
    <glyph glyph-name="summation" unicode="&#x2211;" horiz-adv-x="635" 
d="M553 700v-108h-312l223 -230v-24l-223 -230h312v-108h-471v101l240 249l-240 249v101h471z" />
    <glyph glyph-name="minus" unicode="&#x2212;" horiz-adv-x="664" 
d="M583 353v-108h-501v108h501z" />
    <glyph glyph-name="radical" unicode="&#x221a;" horiz-adv-x="830" 
d="M631 700h118l-249 -700h-137l-158 442h-123v108h204l147 -418z" />
    <glyph glyph-name="infinity" unicode="&#x221e;" horiz-adv-x="887" 
d="M625 455q79 0 130 -51t51 -129t-51.5 -129t-129.5 -51q-100 0 -181 102q-81 -102 -182 -102q-78 0 -129 50.5t-51 129.5q0 78 51 129t129 51q99 0 182 -102q81 102 181 102zM262 185q41 0 70 23t57 67q-31 45 -59 67.5t-69 22.5q-38 0 -61.5 -25t-23.5 -65t23.5 -65
t62.5 -25zM625 185q39 0 63 25t24 65t-24 65t-63 25q-40 -1 -68.5 -23.5t-57.5 -66.5q30 -45 58 -67.5t68 -22.5z" />
    <glyph glyph-name="integral" unicode="&#x222b;" horiz-adv-x="760" 
d="M529 782q72 0 111 -42t39 -119h-79q0 28 -15.5 44.5t-45.5 16.5q-35 0 -52 -23.5t-22 -69.5l-57 -649q-7 -99 -53 -150.5t-124 -51.5q-72 0 -110.5 42t-38.5 119h78q0 -28 15.5 -44.5t46.5 -16.5q34 0 51 23.5t22 69.5l57 649q7 99 53 150.5t124 51.5z" />
    <glyph glyph-name="approxequal" unicode="&#x2248;" horiz-adv-x="615" 
d="M419 329q-20 0 -41 7t-35 14.5t-42 24.5q-12 6 -28.5 16t-23.5 14t-17 7.5t-19 3.5q-50 0 -50 -75h-81q0 157 114 157q20 0 41 -7t35 -14.5t42 -24.5q12 -6 28.5 -16t23.5 -14t17 -7.5t19 -3.5q50 0 50 75h81q0 -157 -114 -157zM419 135q-20 0 -41 7t-35 14.5t-42 24.5
q-12 6 -28.5 16t-23.5 14t-17 7.5t-19 3.5q-50 0 -50 -75h-81q0 157 114 157q20 0 42 -8t33 -14t43 -24q12 -6 28.5 -16t23.5 -14t17 -7.5t19 -3.5q50 0 50 75h81q0 -157 -114 -157z" />
    <glyph glyph-name="notequal" unicode="&#x2260;" horiz-adv-x="664" 
d="M468 606l-40 -152h155v-104h-182l-25 -95h207v-103h-235l-40 -152h-114l40 152h-152v103h179l25 95h-204v104h231l41 152h114z" />
    <glyph glyph-name="lessequal" unicode="&#x2264;" horiz-adv-x="664" 
d="M583 516v-92l-306 -67l306 -67v-93l-501 122v76zM583 146v-86h-501v86h501z" />
    <glyph glyph-name="greaterequal" unicode="&#x2265;" horiz-adv-x="664" 
d="M82 516l501 -121v-76l-501 -122v93l306 67l-306 67v92zM583 146v-86h-501v86h501z" />
    <glyph glyph-name="lozenge" unicode="&#x25ca;" horiz-adv-x="793" 
d="M396 618l315 -315l-315 -315l-314 315zM396 458l-155 -155l155 -155l156 155z" />
    <glyph glyph-name="A.001" horiz-adv-x="748" 
d="M597 0l-71 188h-304l-71 -188h-120l271 700h144l271 -700h-120zM263 295h222l-111 293z" />
    <glyph glyph-name="zero.subs" horiz-adv-x="446" 
d="M223 361q-86 0 -137.5 54.5t-51.5 155.5t51.5 156t137.5 55q85 0 137 -55.5t52 -155.5t-51.5 -155t-137.5 -55zM223 449q90 0 90 122t-90 122t-90 -122t90 -122z" />
    <glyph glyph-name="one.subs" horiz-adv-x="283" 
d="M198 770h51v-398h-97v297l-118 -40v89z" />
    <glyph glyph-name="two.subs" horiz-adv-x="420" 
d="M166 451h220v-79h-352v71l146 110q56 42 73.5 61.5t17.5 43.5q0 23 -15.5 37t-44.5 14q-65 0 -73 -72h-99q6 63 51 104t123 41q76 0 116.5 -38t40.5 -91q0 -45 -31.5 -79.5t-102.5 -77.5z" />
    <glyph glyph-name="three.subs" horiz-adv-x="419" 
d="M324 584q61 -29 61 -97q0 -52 -42.5 -89t-124.5 -37q-80 0 -128.5 37t-55.5 99h99q13 -64 81 -64q34 0 53 16t19 42q0 53 -53 53h-64v64h51q23 0 38.5 13t15.5 36q0 24 -16.5 38t-46.5 14q-62 0 -71 -64h-99q5 62 51 99.5t121 37.5t117.5 -36.5t42.5 -87.5q0 -50 -49 -74
z" />
    <glyph glyph-name="four.subs" horiz-adv-x="443" 
d="M409 530v-79h-71v-79h-98v79h-206v79l183 240h121v-240h71zM114 530h126v169z" />
    <glyph glyph-name="five.subs" horiz-adv-x="412" 
d="M231 636q65 0 106 -36.5t41 -96.5t-42.5 -101t-122.5 -41q-77 0 -123 37.5t-56 94.5h99q7 -28 27.5 -44t49.5 -16q33 0 52 19.5t19 50.5t-18.5 50.5t-52.5 19.5q-41 0 -68 -35h-92l49 232h255v-76h-196l-18 -88q38 30 91 30z" />
    <glyph glyph-name="six.subs" horiz-adv-x="402" 
d="M229 634q64 0 102 -39.5t38 -93.5q0 -57 -44 -98.5t-122 -41.5q-81 0 -125 44.5t-44 106.5q0 52 33.5 102t126.5 156h104l-131 -146q33 10 62 10zM201 437q33 0 51.5 18.5t18.5 47.5t-18.5 47.5t-51.5 18.5q-32 0 -51 -18t-19 -47t18.5 -48t51.5 -19z" />
    <glyph glyph-name="seven.subs" horiz-adv-x="368" 
d="M34 770h300v-63l-165 -335h-92l159 319h-202v79z" />
    <glyph glyph-name="eight.subs" horiz-adv-x="418" 
d="M312 582q32 -13 52 -39t20 -62q0 -53 -44.5 -86.5t-130.5 -33.5t-130.5 33.5t-44.5 86.5q0 36 20 62t52 39q-60 26 -60 86q0 50 43 82t120 32t120 -32t43 -82q0 -60 -60 -86zM209 709q-29 0 -46.5 -14.5t-17.5 -37.5t17 -36.5t47 -13.5t47 13.5t17 36.5t-17.5 37.5
t-46.5 14.5zM209 433q37 0 56.5 15.5t19.5 40.5q0 54 -76 54t-76 -54q0 -25 19.5 -40.5t56.5 -15.5z" />
    <glyph glyph-name="nine.subs" horiz-adv-x="402" 
d="M200 782q81 0 125 -45t44 -106q0 -52 -34 -102.5t-127 -156.5h-103l130 147q-33 -10 -61 -10q-64 0 -102 39t-38 93q0 57 44 99t122 42zM201 574q33 0 51.5 17.5t18.5 47.5q0 29 -18.5 47.5t-51.5 18.5t-51.5 -18.5t-18.5 -47.5t18 -47t52 -18z" />
    <glyph glyph-name="zero.dnom" horiz-adv-x="446" 
d="M223 -12q-86 0 -137.5 55t-51.5 156t51.5 155.5t137.5 54.5t137.5 -55t51.5 -155t-52 -155.5t-137 -55.5zM223 77q90 0 90 122t-90 122t-90 -122t90 -122z" />
    <glyph glyph-name="one.dnom" horiz-adv-x="283" 
d="M198 398h51v-398h-97v297l-118 -40v88z" />
    <glyph glyph-name="two.dnom" horiz-adv-x="420" 
d="M167 79h219v-79h-352v70l146 110q57 44 74 62.5t17 42.5t-15.5 38t-44.5 14q-65 0 -73 -73h-99q6 63 51 104t123 41q75 0 116 -38t41 -90q0 -45 -31.5 -79.5t-102.5 -78.5z" />
    <glyph glyph-name="three.dnom" horiz-adv-x="419" 
d="M324 212q61 -30 61 -98q0 -52 -42.5 -89t-124.5 -37q-80 0 -128.5 37.5t-55.5 99.5h99q13 -64 81 -64q34 0 53 15.5t19 41.5q0 54 -53 54h-64v63h51q23 0 38.5 13.5t15.5 35.5q0 24 -17 38.5t-46 14.5q-62 0 -71 -64h-99q5 62 51 99t121 37t117.5 -36.5t42.5 -86.5
q0 -49 -49 -74z" />
    <glyph glyph-name="four.dnom" horiz-adv-x="443" 
d="M409 158v-79h-71v-79h-98v79h-206v79l183 240h121v-240h71zM114 158h126v168z" />
    <glyph glyph-name="five.dnom" horiz-adv-x="412" 
d="M231 264q65 0 106 -36.5t41 -96.5q0 -61 -42.5 -102t-122.5 -41q-77 0 -123 37.5t-56 94.5h99q7 -28 27.5 -43.5t49.5 -15.5q33 0 52 19.5t19 50.5t-18.5 50.5t-52.5 19.5q-42 0 -68 -36h-92l49 233h255v-76h-195l-19 -88q38 30 91 30z" />
    <glyph glyph-name="six.dnom" horiz-adv-x="402" 
d="M229 261q64 0 102 -39.5t38 -92.5q0 -57 -44 -99t-122 -42q-81 0 -125 45t-44 106q0 52 34 103t126 156h104l-131 -147q29 10 62 10zM201 65q33 0 51.5 18.5t18.5 47.5t-18.5 47t-51.5 18q-32 0 -51 -18t-19 -47t18.5 -47.5t51.5 -18.5z" />
    <glyph glyph-name="seven.dnom" horiz-adv-x="368" 
d="M34 398h300v-63l-165 -335h-92l159 319h-202v79z" />
    <glyph glyph-name="eight.dnom" horiz-adv-x="418" 
d="M311 209q33 -13 53 -39t20 -62q0 -52 -45 -86t-130 -34q-86 0 -130.5 33.5t-44.5 86.5q0 36 20 62t52 39q-60 26 -60 86q0 50 43 82t120 32t120 -32t43 -82q0 -60 -61 -86zM209 337q-29 0 -46.5 -14.5t-17.5 -38.5q0 -22 17 -36t47 -14t47 14t17 36q0 24 -17.5 38.5
t-46.5 14.5zM209 61q37 0 56.5 15t19.5 40q0 55 -76 55t-76 -55q0 -25 19.5 -40t56.5 -15z" />
    <glyph glyph-name="nine.dnom" horiz-adv-x="402" 
d="M200 409q81 0 125 -44.5t44 -106.5q0 -51 -33.5 -101t-127.5 -157h-103l130 146q-33 -10 -61 -10q-64 0 -102 39t-38 93q0 58 43.5 99.5t122.5 41.5zM201 201q33 0 51.5 17.5t18.5 47.5t-18.5 48.5t-51.5 18.5t-51.5 -19t-18.5 -48t18.5 -47t51.5 -18z" />
    <glyph glyph-name="zero.numr" horiz-adv-x="446" 
d="M223 291q-86 0 -137.5 54.5t-51.5 155.5t51.5 156t137.5 55q85 0 137 -55.5t52 -155.5t-51.5 -155t-137.5 -55zM223 379q90 0 90 122t-90 122t-90 -122t90 -122z" />
    <glyph glyph-name="one.numr" horiz-adv-x="283" 
d="M198 700h51v-398h-97v297l-118 -40v89z" />
    <glyph glyph-name="two.numr" horiz-adv-x="420" 
d="M167 381h219v-79h-352v71l146 110q56 42 73.5 61.5t17.5 43.5q0 23 -15.5 37t-44.5 14q-65 0 -73 -72h-99q6 63 51 104t123 41q76 0 116.5 -38t40.5 -91q0 -45 -31.5 -79.5t-102.5 -77.5z" />
    <glyph glyph-name="three.numr" horiz-adv-x="419" 
d="M324 514q61 -30 61 -97q0 -52 -42.5 -89t-124.5 -37q-80 0 -128.5 37t-55.5 99h99q13 -64 81 -64q34 0 53 16t19 42q0 53 -53 53h-64v64h51q23 0 38.5 13t15.5 36q0 24 -16.5 38t-46.5 14q-62 0 -71 -64h-99q5 62 51 99.5t121 37.5t117.5 -36.5t42.5 -87.5q0 -49 -49 -74
z" />
    <glyph glyph-name="four.numr" horiz-adv-x="443" 
d="M409 460v-79h-71v-79h-98v79h-206v79l183 240h121v-240h71zM114 460h126v168z" />
    <glyph glyph-name="five.numr" horiz-adv-x="412" 
d="M231 566q65 0 106 -36.5t41 -96.5t-42.5 -101t-122.5 -41q-77 0 -123 37.5t-56 94.5h99q7 -28 27.5 -44t49.5 -16q33 0 52 19.5t19 50.5t-18.5 50.5t-52.5 19.5q-41 0 -68 -35h-92l49 232h255v-76h-195l-19 -87q39 29 91 29z" />
    <glyph glyph-name="six.numr" horiz-adv-x="402" 
d="M229 564q64 0 102 -39.5t38 -93.5q0 -57 -44 -98.5t-122 -41.5q-81 0 -125 44.5t-44 106.5q0 52 33.5 102t126.5 156h104l-131 -146q33 10 62 10zM201 367q33 0 51.5 18.5t18.5 47.5t-18.5 47.5t-51.5 18.5q-32 0 -51 -18t-19 -47t18.5 -48t51.5 -19z" />
    <glyph glyph-name="seven.numr" horiz-adv-x="368" 
d="M34 700h300v-63l-165 -335h-92l159 319h-202v79z" />
    <glyph glyph-name="eight.numr" horiz-adv-x="418" 
d="M311 512q33 -13 53 -39t20 -62q0 -53 -44.5 -86.5t-130.5 -33.5t-130.5 33.5t-44.5 86.5q0 36 20 62t52 39q-60 26 -60 86q0 50 43 82t120 32t120 -32t43 -82q0 -60 -61 -86zM209 639q-29 0 -46.5 -14.5t-17.5 -37.5t17 -36.5t47 -13.5t47 13.5t17 36.5t-17.5 37.5
t-46.5 14.5zM209 363q37 0 56.5 15.5t19.5 40.5q0 54 -76 54t-76 -54q0 -25 19.5 -40.5t56.5 -15.5z" />
    <glyph glyph-name="nine.numr" horiz-adv-x="402" 
d="M200 712q81 0 125 -45t44 -106q0 -52 -34 -102.5t-127 -156.5h-103l130 147q-29 -10 -61 -10q-64 0 -102 39t-38 93q0 57 44 99t122 42zM201 504q33 0 51.5 17.5t18.5 47.5q0 29 -18.5 47.5t-51.5 18.5t-51.5 -18.5t-18.5 -47.5t18 -47t52 -18z" />
    <glyph glyph-name="uni0308.case" 
d="M-377 939q29 0 48 -18.5t19 -46.5t-19 -46.5t-48 -18.5t-48 18.5t-19 46.5t19 46.5t48 18.5zM-150 939q29 0 48.5 -18.5t19.5 -46.5t-19.5 -46.5t-48.5 -18.5t-48.5 18.5t-19.5 46.5t19.5 46.5t48.5 18.5z" />
    <glyph glyph-name="uni0307.case" 
d="M-149 939q29 0 48 -18.5t19 -46.5t-19 -46.5t-48 -18.5t-48 18.5t-19 46.5t19 46.5t48 18.5z" />
    <glyph glyph-name="gravecomb.case" 
d="M-246 985l164 -164l-52 -51l-179 147z" />
    <glyph glyph-name="acutecomb.case" 
d="M-150 985l68 -68l-180 -147l-51 51z" />
    <glyph glyph-name="uni030B.case" 
d="M-286 992l70 -33l-118 -189l-51 25zM-152 992l70 -33l-118 -189l-51 25z" />
    <glyph glyph-name="uni0302.case" 
d="M-81 831l-62 -61l-102 108l-102 -108l-61 61l163 164z" />
    <glyph glyph-name="uni030C.case" 
d="M-81 936l-164 -164l-163 164l61 61l102 -108l102 108z" />
    <glyph glyph-name="uni0306.case" 
d="M-79 955v-22q0 -70 -47.5 -113t-115.5 -43q-69 0 -116.5 43t-47.5 113v22h90v-19q0 -33 20 -52.5t54 -19.5q33 0 53 19.5t20 52.5v19h90z" />
    <glyph glyph-name="uni030A.case" 
d="M-208 1022q53 0 90 -37t36 -89q1 -52 -36.5 -89t-89.5 -37t-88.5 37t-36.5 89q0 53 36.5 89.5t88.5 36.5zM-208 955q-24 0 -41.5 -17t-16.5 -43q-1 -25 16.5 -42.5t41.5 -17.5q25 0 42 17.5t17 42.5q0 26 -17 43t-42 17z" />
    <glyph glyph-name="tildecomb.case" 
d="M-152 933h70q0 -152 -104 -152q-23 0 -39.5 8.5t-41.5 29.5q-39 33 -60 33q-37 0 -37 -63h-70q0 151 103 151q23 0 39 -8t42 -30q40 -33 60 -33q38 0 38 64z" />
    <glyph glyph-name="uni0304.case" 
d="M-82 915v-84h-250v84h250z" />
    <glyph glyph-name="uni0327.case" 
d="M-173 -79q39 -8 65 -30t26 -60q0 -46 -39 -69.5t-106 -23.5q-27 0 -59 4v58q32 -4 46 -4q70 0 70 41q0 42 -91 50l49 113h78z" />
    <glyph glyph-name="uni0328.case" 
d="M-82 -258q-32 -4 -61 -4q-59 0 -94 23.5t-35 72.5q0 41 26.5 75.5t88.5 90.5h75q-60 -66 -81 -95.5t-21 -56.5q0 -46 59 -46q23 0 43 5v-65z" />
    <glyph glyph-name="newGlyph" horiz-adv-x="600" 
 />
    <glyph glyph-name="Bitcoinsymbol" horiz-adv-x="657" 
d="M616 198q0 -73 -38.5 -122t-110.5 -67v-134h-100v125h-110v-125h-101v125h-74v700h74v124h101v-124h110v124h100v-135q127 -36 127 -169q0 -104 -93 -148q57 -17 86 -63.5t29 -110.5zM479 502q0 46 -26.5 68t-86.5 22h-171v-183h172q59 0 85.5 23.5t26.5 69.5zM382 108
q66 0 93 25.5t27 73.5q0 49 -28 74t-94 25h-185v-198h187z" />
    </font>
</defs>
</svg>
